<!-- by TradingView --><svg width="56" height="56" viewBox="0 0 56 56" xmlns="http://www.w3.org/2000/svg"><path fill="#F0F3FA" d="M0 0h56v56H0z"/><path d="m25.03 30.04-1.04-.6v-4.72h-.37l.09 4.4-1.13-.82.47-4.4-.19-.2-.85 4.1c-.22-.09-.53-.31-.66-.42l.76-3.68-.2-.1-.65 1.63c-.15.09-.44-.23-.57-.4l.76-1.64-.2-.2c-.24.5-.8 1.53-1.03 1.53-.23 0-.47-.48-.56-.72l1.13-1.33h-.29l-.94 1.02-.75-.6 1.41-1.14v-.3l-3.3 2.04h-1.7L9 26.67l1.13-1.95 9.43-3.68v-.2L10.7 23.7l1.5-2.35 7.17-1.13v-.2l-6.88.5.66-1.43 6.7.2v-.2l-6.23-.71 1.23-.82 5 1.02.18-.2-4.15-1.33.85-.72 4.06 1.84v-.3l-3.4-2.05 1.04-.82 5.28 4.6 1.32 10.44Zm6.13 1.03.38-.41 6.5 7.06c-.1.41-.5 1.27-1.41 1.43l-5.47-8.08Zm-5.94-.1.47.5-5.19 8.4c-.34-.17-1.05-.61-1.13-1.02l5.85-7.88Zm.85.71.47.1-3.77 9.73c-.41-.14-1.29-.51-1.51-.92l4.8-8.9Zm1.22.41h-.37l-3.12 9.83c.3.32 1.39.61 1.89.71l1.6-10.54Zm.47 0h.57l.28 10.75c-.19.12-.86.3-2.07 0l1.22-10.75Zm1.32-.1-.37.1.47 10.65c.53.08 1.41-.18 1.79-.31l-1.89-10.44Zm.38-.1.47-.2 3.68 9.61c-.13.34-.66 1.03-1.8 1.03l-2.35-10.44Zm1.32-.62-.52.2 4.1 9.42c.91 0 1.58-.68 1.8-1.02l-5.38-8.6Zm.94-11.97 4.25-4.3h1.13v.61l-2.26 1.54.18.3 3.02-1.43 1.04.41-3.58 1.44.28.1 4.05-1.23 1.14.72-5.2 1.12v.3l6.52-.7.84 1.43-7.16-.31v.3l7.64.62 1.6 2.35-9.24-2.35-.38.2 10.09 3.18L47 25.23l-.28.52-5.75-2.87h-2.93l-2.45-1.64h-.28l1.5 1.23-.47.3-1.5-1.12-.2.1 1.8 1.85-.47.5-1.8-2.04H34l1.5 2.36-.65.71-1.51-3.07-.2.3 1.52 3.18.19 1.54-.38.3-1.32-4.5-.28.1 1.13 4.81-1.13.82-.38-4.91h-.28l.28 5.22-.94.82.18-10.44Zm-6.88-1.64c.38-.07 1.06-.11 1.13.2.12.5-.44.98-.95 1.43-.35.3-.67.58-.74.83-.16.49.81 6.75 1.32 9.82.18.41.96 1.25 2.54 1.33 1.98.1 2.83-1.02 2.83-1.33l.07-1.24c.14-2.58.46-8.33.3-8.89-.08-.35-.56-.65-1.03-.95-.5-.31-.99-.63-1.04-1l-.03-.34c-.05-.82-.13-2.12-1.76-2.21-1.88-.1-2.64 1.94-2.64 2.35Z"/></svg>