<!-- by TradingView --><svg width="56" height="56" viewBox="0 0 56 56" xmlns="http://www.w3.org/2000/svg"><path fill="#F0F3FA" d="M0 0h56v56H0z"/><path fill-rule="evenodd" d="M28 44c9.94 0 18-7.16 18-16 0-2.52-.65-4.9-1.82-7.02-1.94.67-5.29 3.26-5.6 9.28C38.2 37.23 35.23 43 28 43v-4c1.82-.03 5.6-2.05 6.18-9.99.59-7.94 4.4-10.72 7.29-11.63A19 19 0 0 0 28 12c-6.97 0-13.02 3.52-16 8.67 1.08-1.9 4.41-5.67 9.1-5.67 7.45 0 9.03 6.37 8.9 9.55V34h-4V23.5c0-.42-.71-4.5-5-4.5-3.43 0-4.68 1.95-4.92 3l-4.79.04A14.42 14.42 0 0 0 10 28c0 8.84 8.06 16 18 16Zm-5-15v-4c-3.25 0-10 1.62-10 8.08C13 39 21.64 42.1 25 42v-3.42c-2.47-.35-8-1.89-8-5.29 0-3.4 4.27-4.29 6-4.29Z" fill="#074"/></svg>