<!-- by TradingView --><svg width="56" height="56" viewBox="0 0 56 56" fill="none" xmlns="http://www.w3.org/2000/svg">
<rect width="56" height="56" fill="#F0F3FA"/>
<path fill-rule="evenodd" clip-rule="evenodd" d="M12.5762 25.6343L13.9643 29H11.1881L12.5762 25.6343ZM10.2485 21L4 35H8.90059L9.86059 32.5463H15.2914L16.2509 35H18.5V28.2L14.986 21H10.2485ZM25.5623 21H19V35H25.5623C29.3769 35 32.6642 31.844 32.6642 27.9916C32.6642 24.1393 29.3769 21 25.5623 21ZM24.4759 31H23V25H24.4759C26.2773 25 28 26.1724 28 27.9916C28 29.811 26.2774 31 24.4759 31ZM44.2869 21H49L48.999 35H45V28.5396L41.5389 35H39.2529L36 28.5305V35H32V31.8397C32.7398 30.6878 33 29.3538 33 27.9919C33 26.63 32.7398 25.2959 32 24.1441V21H36.5022L40.396 29.1455L44.2869 21Z" fill="#190F32"/>
</svg>
