<!-- by TradingView --><svg width="56" height="56" viewBox="0 0 56 56" xmlns="http://www.w3.org/2000/svg"><path fill="#F0F3FA" d="M0 0h56v56H0z"/><path d="M20.52 20.29a18.95 18.95 0 0 0-2.3 4.09 17.8 17.8 0 0 0-2-1.26c-3.12-1.68-6.27 2.39-4.27 5.48.28.43.8.9 1.57 1.39 1.38.89 2.76 1.76 4.16 2.61.86.53 1.8.63 2.8.29a3.83 3.83 0 0 0 2.27-3.47c.06-.88-.43-1.61-.5-2.33-.2-2.05.57-3.4 2.28-4.06a9.14 9.14 0 0 1 .03 12.6c-2.24 1.92-4.7 2.67-7.4 1.8-.63-.2-1.5-.64-2.59-1.33-1.84-1.15-4.23-2.43-5.47-3.86-5.44-6.3.53-16.58 8.14-13.76 1.04.39 2.19 1.2 3.28 1.81Z" fill="url(#a4ck2zp1o)"/><path d="M35.46 35.73a11.7 11.7 0 0 0 2.28-4.09c1.05.73 1.76 1.18 2.13 1.35 3.23 1.5 6.29-2.78 4.04-5.76-.27-.36-.8-.79-1.6-1.3a142.09 142.09 0 0 0-4.16-2.6 3 3 0 0 0-2.7-.15c-1.89.95-2.56 2.74-1.95 4.88.66 2.28-.01 3.94-2 4.99a9.22 9.22 0 0 1-2.37-8.47c0-.04 0-.08-.02-.11l-.02-.05c.08 0 .13-.04.15-.13a8.62 8.62 0 0 1 2.15-3.82c2.26-2.09 4.74-2.7 7.44-1.87.66.2 1.5.64 2.56 1.31 1.7 1.1 3.94 2.25 5.19 3.55 5.97 6.22-.03 16.94-7.9 14.06-1.03-.38-2.14-1.2-3.22-1.79Z" fill="url(#b4ck2zp1o)"/><path d="M29.24 24.29a8.62 8.62 0 0 1 2.15-3.82c-.48-.34-.94-.64-1.37-.92-3.3-2.1-6.47-1.85-9.5.74-1.21 1.29-1.58 2.24-2.2 3.86l-.1.23a9.07 9.07 0 0 0 2.26 8.5 3.83 3.83 0 0 0 2.27-3.46c.03-.52-.12-.99-.27-1.43-.1-.3-.2-.6-.23-.9-.2-2.05.57-3.4 2.28-4.06 1.7-.47 2.74.21 3.99 1.02l.57.37c.08 0 .13-.04.15-.13Zm8.5 7.35a8.91 8.91 0 0 0-2.28-8.46c-1.9.95-2.57 2.74-1.96 4.88.66 2.28-.01 3.94-2 4.99-1.82.46-2.83-.2-4.35-1.22l-.35-.23a8.67 8.67 0 0 1-2.24 4.02l.33.22a17.3 17.3 0 0 0 2.35 1.38c2.97 1.3 5.71.8 8.22-1.49a11.7 11.7 0 0 0 2.28-4.09Z" fill="url(#c4ck2zp1o)"/><path d="M30.47 37.67a9.06 9.06 0 0 1-5.07-1.71c.7.4 2.62 1.23 4.76 1.23a6.71 6.71 0 0 0 5.32-2.64c.78-.94 1.83-3.22 2.26-4.24 0 .79-.45 1.82-.77 2.73-.26.72-1.1 1.84-1.49 2.31-.71.78-2.71 2.32-5.01 2.32Z" fill="#FAAD81"/><path d="M7.17 25.87c-.2 1.25.44 3.2.79 4.02-.17-.87-.49-2.79-.4-3.5l.01-.07c.12-.93.42-3.28 1.57-4.66a6.96 6.96 0 0 1 4.17-2.7c2.02-.52 3.34.17 4.39.71l.34.18c.66.33 1.33.36 1.72.38l.25.02c-1-.53-3.14-1.65-3.74-1.87-.76-.28-3.3-.46-5.66 1.2-2.37 1.65-3.19 4.72-3.44 6.29Zm15.12 5.78a3.9 3.9 0 0 1-3.05 1.72c3.16.83 4.1-2.6 4.1-3.71 0-.9-.58-1.82-.87-2.17.42.84.83 2.5-.18 4.16Zm-5.18 5.48c.88.19 3.13.3 5.04-.79 1.92-1.09 3.4-3.3 3.9-4.27l.48-.57a6.57 6.57 0 0 1-.6 1.76c-.47.94-1.98 3.02-3.78 3.75a6.6 6.6 0 0 1-5.04.12Zm11.78-11.26c-.2 1.25.44 3.2.79 4.02-.17-.87-.49-2.79-.4-3.5l.01-.07c.12-.93.41-3.28 1.57-4.66a6.94 6.94 0 0 1 4.17-2.7c2.02-.52 3.34.17 4.39.71l.34.18c.66.33 1.33.36 1.72.38l.25.02c-1-.53-3.14-1.65-3.74-1.87-.77-.28-3.3-.46-5.67 1.2-2.36 1.65-3.18 4.72-3.43 6.29ZM44 31.65a3.9 3.9 0 0 1-3.06 1.72c3.17.83 4.12-2.6 4.12-3.71 0-.9-.59-1.82-.88-2.17.42.84.83 2.5-.18 4.16Zm-5.18 5.48c.88.19 3.13.3 5.04-.79 1.91-1.09 3.4-3.3 3.9-4.27l.48-.57a6.57 6.57 0 0 1-.6 1.76c-.47.94-1.98 3.02-3.78 3.75a6.6 6.6 0 0 1-5.04.12Z" fill="#C8C9CC"/><path d="M25.74 18.42a6.73 6.73 0 0 0-5.61 2.8c1.1-.73 2.7-2.34 5.13-2.34 2.42 0 2.9.75 3.52.95.5.16 1.36.35 1.73.43-.81-.62-2.9-1.84-4.77-1.84Z" fill="#FED48E"/><defs><linearGradient id="a4ck2zp1o" x1="9.62" y1="20.19" x2="21.74" y2="33.96" gradientUnits="userSpaceOnUse"><stop stop-color="#D4D6D7"/><stop offset=".34" stop-color="#818285"/></linearGradient><linearGradient id="b4ck2zp1o" x1="32" y1="19.91" x2="34.24" y2="23.36" gradientUnits="userSpaceOnUse"><stop stop-color="#DBDCDD"/><stop offset="1" stop-color="#818285"/></linearGradient><linearGradient id="c4ck2zp1o" x1="24.91" y1="19.37" x2="33.42" y2="35.64" gradientUnits="userSpaceOnUse"><stop stop-color="#FCAE17"/><stop offset="1" stop-color="#F15D22"/></linearGradient></defs></svg>