<!-- by TradingView --><svg width="56" height="56" viewBox="0 0 56 56" xmlns="http://www.w3.org/2000/svg"><path fill="#F0F3FA" d="M0 0h56v56H0z"/><path d="M28 12a16 16 0 1 0 0 32 16 16 0 0 0 0-32Zm-5.28 30.68s-1.69-.82-1.69-.98L21 29.77c0-.44-.06-.78-.5-.77h-1.92c-.35 0-.58.29-.58.64v10.13s-1.57-1.56-2-2.27l-.04-16.98c0-.9.54-2.52 1.54-2.52h4c.91 0 1.5.5 1.5 1.63v23.05M38.5 29h-2.86s-.58.16-.64.73v12s-1.2.76-2 .95V29.73s-.1-.73-1-.73c-1 0-1 .73-1 .73V40c0 1.68-.67 3.49-3 3.5-2.96 0-3-2.86-3-2.86V16c0-1.86 1.17-3 3-3a2.94 2.94 0 0 1 3 3v7c0 .59-.35 1-1 1-.7 0-1-.34-1-1v-7s.06-1-1-1c-1 0-1 1-1 1v24.42c0 .74.24 1.08 1 1.08.81 0 1-.37 1-1.08v-10.7s.1-.72-.43-.72h-.43c-.63 0-.64-.36-.64-1 0-.9.5-1 .5-1h5l-.01-6.57c0-1.07.88-2.19 2-2.43h3.14c1.12 0 1.87.5 1.93 1.82L40 27.5c0 .5-.5 1.5-1.5 1.5Z" fill="#D80011"/><path d="M36.91 20h-.82c-.6 0-1.09.47-1.09 1.06v4.89c0 .58.5 1.05 1.1 1.05h.81c.6 0 1.09-.47 1.09-1.05v-4.9c0-.58-.5-1.05-1.09-1.05ZM19.91 20h-.82c-.6 0-1.09.46-1.09 1.02v4.96c0 .56.5 1.02 1.09 1.02h.82c.6 0 1.09-.46 1.09-1.02v-4.96c0-.56-.5-1.02-1.09-1.02Z" fill="#D80011"/></svg>