<!-- by TradingView --><svg width="56" height="56" viewBox="0 0 56 56" xmlns="http://www.w3.org/2000/svg"><path fill="#F0F3FA" d="M0 0h56v56H0z"/><path fill="url(#axibu1i42)" d="M15 13h26v30H15z"/><path fill-rule="evenodd" d="M16.32 38.51c-.1-.19-.32-.73-.32-1.4 0-.85 7.64-7.11 9.14-7.11.75 0 .86.56.86 1.13 0 .21-.52.61-1.3 1.21a22.07 22.07 0 0 0-4.6 4.43.59.59 0 0 0-.1.33c.01.2.17.34.48.34.2 0 1-.74 1.89-1.6 1.2-1.13 2.59-2.45 3.08-2.45.37 0 .4.75.44 1.6.04 1.14.1 2.45.96 2.45 1.2 0 2.6-1.99 3.16-2.98a27.16 27.16 0 0 1 3.22-8.78C35.65 21.8 37.8 20 38.87 20c.65 0 1.13.79 1.13 1.63 0 .85-1.56 6.42-8.05 13.4l-.19.65c-.43 1.5-.8 2.83-.24 2.83.27 0 .87-.97 1.57-2.1.96-1.55 2.11-3.41 2.83-3.41.54 0 .66.78.8 1.65.16 1.1.34 2.35 1.45 2.35.65 0 1.13-.55 1.3-.9l.53 1.74c-.52.63-1.87 2.16-3.11 2.16-.86 0-1.87-1.98-2.26-2.84-.73 1.61-2.55 4.84-3.97 4.84-1.13 0-1.13-1.6-1.13-2.78 0-.68 0-1.22-.21-1.22-.22 0-.53.27-.92.6-.68.6-1.61 1.4-2.74 1.4-1.71 0-1.85-1.16-1.95-2.05-.04-.39-.08-.73-.25-.9a.15.15 0 0 0-.12-.05c-.22.02-.57.46-1.03 1.04-.94 1.18-2.35 2.96-4.1 2.96-.91 0-1.21-.4-1.21-.92 0-.64.39-1.45.67-2.03.2-.42.35-.73.26-.78-.25-.13-1.18.77-1.6 1.24ZM33 31c.72-2.08 2.72-6.59 5-8-.2 1.33-2.65 6.82-5 8Z" fill="#5A5F98"/><defs><linearGradient id="axibu1i42" x1="28" y1="13" x2="28" y2="43" gradientUnits="userSpaceOnUse"><stop stop-color="#EBE7D5"/><stop offset="1" stop-color="#EAD266"/></linearGradient></defs></svg>