<!-- by TradingView --><svg width="56" height="56" viewBox="0 0 56 56" xmlns="http://www.w3.org/2000/svg"><path fill="#F0F3FA" d="M0 0h56v56H0z"/><path d="M33.6 24.77A7.91 7.91 0 0 0 27.17 21 7.1 7.1 0 0 0 20 28.03a7.1 7.1 0 0 0 7.16 7.03 7.3 7.3 0 0 0 1.85-.24l1.55-3.2c-1.1.33-2.36.38-3.4.38-2.4 0-4.16-1.62-4.16-3.97S24.76 24 27.16 24a6.14 6.14 0 0 1 5.23 3.31C33.33 28.9 35.75 33.64 41 42c-1.73-4.7-4.87-13.45-7.4-17.23Z" fill="#27206A"/><path d="M35.14 20.69A10.96 10.96 0 0 0 16 27.99 11 11 0 0 0 26.74 39l1.38-3.07c-.39.05-.78.07-1.17.07-4.62 0-7.95-3.39-7.95-8.02A7.73 7.73 0 0 1 27 20a9.58 9.58 0 0 1 7.72 3.64l.01-.02C36.27 25.78 40 31.67 44 40c-.7-3.07-4.42-14.15-8.86-19.31Z" fill="#27206A"/><path d="M12 28.1c0 7.52 5.46 13.75 12.6 14.9l1.4-3c-6.25-.5-11-5.47-11-11.9C15 21.32 20.3 16 27 16c11.96 0 14.27 13.6 22 25-3.36-8.05-7.6-19.6-11.78-23.9A14.84 14.84 0 0 0 26.96 13 15.03 15.03 0 0 0 12 28.1Z" fill="#27206A"/></svg>