<!-- by TradingView --><svg width="56" height="56" viewBox="0 0 56 56" xmlns="http://www.w3.org/2000/svg"><path fill="#F0F3FA" d="M0 0h56v56H0z"/><path d="M27.84 42.5H25l2.76 3.7L30 47l-2.16-4.5Z" fill="url(#alsijnroe)"/><path d="M25 16h4v26.5h-4V16Z" fill="url(#blsijnroe)"/><path d="M29 9.93 31 9v37l-2-1.06V9.93Z" fill="#76767B"/><path d="M28.03 9.53 30 9 13.51 28H11L28.03 9.53Z" fill="#0067A6"/><path d="M24.3 42 11 28h2.1l7.28 7.27L26 42h-1.7Z" fill="#0073B6"/><path d="M13 28 30 9v38l-3-3.5V30h-7.3l6.3 7.4V42L13 28Zm6.64-2H27v-9l-7.36 9Z" fill="#0088CD"/><path d="M33 34.87 38 28h3l-8 11v-4.13Zm0-14.74L38 27h3l-8-11v4.13Z" fill="#ACADB1"/><path fill-rule="evenodd" d="M43 27.53 31 46V9.07l12 18.46ZM39 29l-6 9v-9h6Zm0-3-6-9v9h6Z" fill="#7E7F83"/><defs><linearGradient id="alsijnroe" x1="25.07" y1="43" x2="28.82" y2="47.26" gradientUnits="userSpaceOnUse"><stop stop-color="#00A5DF"/><stop offset="1" stop-color="#0068A6"/></linearGradient><linearGradient id="blsijnroe" x1="26.72" y1="25.33" x2="25" y2="25.33" gradientUnits="userSpaceOnUse"><stop stop-color="#0096D1"/><stop offset="1" stop-color="#0077B5"/></linearGradient></defs></svg>