<!-- by TradingView --><svg width="56" height="56" viewBox="0 0 56 56" xmlns="http://www.w3.org/2000/svg"><path fill="#F0F3FA" d="M0 0h56v56H0z"/><path fill-rule="evenodd" d="M37 32.5c0 5.76-5.21 11.54-7.92 13.81-.2.16-.3.35-.12.52.17.17.53.24.72.08C36.97 41.03 39 36.73 39 31.24c0-3.8-3.28-8.92-5.81-12.87-.94-1.47-1.78-2.78-2.31-3.8-2.2-4.22-2.72-6.62-2.73-8 0-.3-.26-.57-.6-.57-.3 0-.55.23-.55.51v.73c0 2.55 1.9 5.8 4.04 9.47C33.8 21.47 37 26.94 37 32.5Zm-16.76 6.35c-1.34-1.19-2.4-3.62-2.82-4.7a.22.22 0 0 0-.22-.15.2.2 0 0 0-.19.2c-.15 2.77 1.43 5.54 3.43 7.26 1.72 1.48 3.78-.33 3.05-2.41A27.72 27.72 0 0 1 21 28.89c0-3.66 1.74-9.6 2.98-13.52a.28.28 0 0 0-.5-.23C20.7 19.34 19 25.23 19 28.89c0 3.5 1.07 7.43 1.64 9.53l.04.15a.27.27 0 0 1-.44.28ZM22.95 45c-1.42 0-2.93-1.18-3.88-2.83a.5.5 0 0 1-.07-.27c.02-.36.55-.5.92-.15.65.62 1.55 1.25 2.4 1.25 2.73 0 3.51-5.2 3.51-6.28-.24.18-.52.28-.83.28-1.32.01-3-1.9-3-5.94 0-3.21 1.5-4.06 2.74-4.06.29 0 .56.05.8.13.17-.96.99-3.13 2.53-3.13C31 24 31 30.3 31 31.6c0 1.31.42 6.4 1.18 6.4.75 0 .82-3.25.82-5.53 0-2.29-.39-5.47-3.56-12.26-2.63-5.65-3.05-8.93-2.91-11 0-.12.07-.19.14-.2.1-.03.23.05.25.22.3 2.29 1.17 5.06 2.74 7.93C33.83 23.96 35 29.91 35 32c0 2.08-.79 8-3.58 8-2.1 0-2.48-8.62-2.69-13.19v-.1c-.02-.39-.29-.7-.7-.7-.37 0-.67.3-.65.66l.02.28c.09 1.34.27 4.06.27 7.38 0 5.52-1.8 10.67-4.72 10.67ZM26 31c0 .83-.22 2-.5 2s-.5-1.17-.5-2c0-.83.22-1 .5-1s.5.17.5 1Z" fill="url(#aenwvyazb)"/><path d="M25 16.03c0-1.58.24-4.16.62-5.92.03-.16.26-.14.26.03.1 3.93 1.6 8.24 2.97 11.21.27.58.2 1.19-.38 1.5-.49.26-1.2.18-1.55-.24C25.3 20.62 25 18.38 25 16.03Z" fill="url(#benwvyazb)"/><defs><linearGradient id="aenwvyazb" x1="18.91" y1="19.08" x2="31.91" y2="31.09" gradientUnits="userSpaceOnUse"><stop stop-color="#BF8F66"/><stop offset="1" stop-color="#86563A"/></linearGradient><linearGradient id="benwvyazb" x1="25.35" y1="14.15" x2="28.77" y2="15.96" gradientUnits="userSpaceOnUse"><stop stop-color="#BF8F66"/><stop offset="1" stop-color="#86563A"/></linearGradient></defs></svg>