<!-- by TradingView --><svg width="56" height="56" viewBox="0 0 56 56" xmlns="http://www.w3.org/2000/svg"><path fill="#F0F3FA" d="M0 0h56v56H0z"/><path fill="#2C15F9" d="M8 19.8h40v16.3H8z"/><path fill-rule="evenodd" d="M48 19H8v18h40V19Zm-1 1H9v16h38V20Z" fill="#F60321"/><path fill-rule="evenodd" d="M13 32h3.34v-.5H14.9l.96-1.8h4.74l.89 1.8h-1.17v.5h4.36v-.5H23.3L18.96 23h-.44l-4.37 8.5H13v.5Zm7.25-3-1.93-3.92L16.23 29h4.02Zm5.09 3h7.95l1.1-2.53h-.56c-.27.7-1.11 2.11-2.3 2.11H28v-3.93h3.22c.42 0 .77.36.77.8v.41h.33v-2.85H32v.24c0 .45-.35.75-.77.75H28v-3.48h3.87c.37.09 1.14.5 1.26 1.45h.44L33.29 23h-7.95v.52h.86c.42 0 .8.36.8.81v6.44c0 .45-.38.81-.8.81h-.86V32Zm9.12-8.49V23h4.1v.51h-.7c-.56 0-.86.48-.86 1.08v6.12c0 .45.67.8 1.09.8h3.38c.49-.1 1.5-.67 1.7-2.11h.43l-.88 2.6h-8.26v-.48h.8c.41 0 .74-.36.74-.8v-6.13c0-.6-.44-1.08-1-1.08h-.54Z" fill="#F8F8FF"/></svg>