<!-- by TradingView --><svg width="56" height="56" viewBox="0 0 56 56" xmlns="http://www.w3.org/2000/svg"><path fill="#F0F3FA" d="M0 0h56v56H0z"/><circle cx="28" cy="28" r="16" fill="url(#apn3po3m3)"/><path d="M43.65 31.36a15.99 15.99 0 0 1-29.3-11.72 16 16 0 1 0 29.3 11.71Z" fill="#2F5D2E"/><path d="M30.5 30.5c-4 3.2-5.33 9.33-5.5 12 2.5.17 8.5-.3 12.5-3.5 5-4 4.5-9.5 4.5-10s1-2 1-2.5-1.5.5-2.5.5-5-.5-10 3.5Z" fill="url(#bpn3po3m3)"/><path d="M25 42.5c4.5-3.67 12.7-13.9 9.5-25.5-.83 5-3.9 17.1-9.5 25.5Z" fill="#C4DEC1"/><path d="M38 17c.83 6.5-.5 20.6-12.5 25C29 39 36.4 29.8 38 17Z" fill="url(#cpn3po3m3)"/><defs><linearGradient id="apn3po3m3" x1="44" y1="29.5" x2="14.5" y2="34.5" gradientUnits="userSpaceOnUse"><stop stop-color="#ECF3EB"/><stop offset=".25" stop-color="#4B7648"/><stop offset="1" stop-color="#82C13F"/></linearGradient><linearGradient id="bpn3po3m3" x1="39.5" y1="27.5" x2="28.5" y2="42" gradientUnits="userSpaceOnUse"><stop stop-color="#B0D1A2"/><stop offset=".3" stop-color="#32823B"/><stop offset="1" stop-color="#307E44"/></linearGradient><linearGradient id="cpn3po3m3" x1="38" y1="18.5" x2="26.5" y2="41.5" gradientUnits="userSpaceOnUse"><stop stop-color="#83C348"/><stop offset="1" stop-color="#71A47B"/></linearGradient></defs></svg>