<!-- by TradingView --><svg width="56" height="56" viewBox="0 0 56 56" fill="none" xmlns="http://www.w3.org/2000/svg">
<rect width="56" height="56" fill="#3449BC"/>
<path fill-rule="evenodd" clip-rule="evenodd" d="M7.22825 23L4 33H6L6.9262 30.0001H11.0733L12 33H14L10.7729 23H7.22825ZM10.4554 28.0001H7.54368L8.99913 23.2859L10.4554 28.0001ZM17 25V23H27V25.0566L20.0064 31H27V33H17V30.9949L24.1112 25H17ZM39.3596 26.4173C38.8276 26.6077 37.75 26.9915 37.6954 27.003C37.3296 26.2713 36.1763 25 34.4896 25C31.2838 25 31 27.1835 31 28C31 28.8165 31.4886 31 34.4896 31C36.8809 31 37.6793 30.4954 38.106 30.0059H34V28H39.0041V31.4265C38.4835 31.951 36.8056 33 34.2591 33C30.0281 33 29 29.4286 29 28C29 26.2487 29.9095 23 34.2591 23C37.7388 23 39.1093 25.2782 39.3596 26.4173ZM43.4609 29.9798L41.8574 30.8789C42.353 31.5859 44.006 33 46.6537 33C50.618 33 52 29.9798 52 28.2124C52 26.4449 51.5454 23 46.8174 23C43.0349 23 42.0287 24.9312 41.9984 26.0187C41.9514 27.2065 42.7085 30 46.1131 30C49.5176 30 50.3104 27.6428 50.2813 26.5513C50.7669 29.8719 48.4859 31 46.521 31C44.9492 31 43.826 30.4033 43.4609 29.9798ZM49.9624 26.5C49.9624 27.3284 48.6193 28 46.9624 28C45.3055 28 43.9624 27.3284 43.9624 26.5C43.9624 25.6716 45.3055 25 46.9624 25C48.6193 25 49.9624 25.6716 49.9624 26.5Z" fill="#2EF5CF"/>
</svg>
