<!-- by TradingView --><svg width="56" height="56" viewBox="0 0 56 56" xmlns="http://www.w3.org/2000/svg"><path fill="#F0F3FA" d="M0 0h56v56H0z"/><path d="M28 41c11.05 0 20-5.82 20-13s-8.95-13-20-13S8 20.82 8 28c0 2.07.74 4.02 2.06 5.76C7.65 25.73 15.75 20.07 21 18c-9.72 5.47-10.83 12.43-9.63 17.22a19.27 19.27 0 0 0 6.74 4.08c6.15 1.07 16.72.37 26.39-8.3-2.24 3.99-8.46 10-18.3 9.95.59.03 1.19.05 1.8.05Z" fill="#E2EF3F"/><path fill-rule="evenodd" d="M19 35h-5c7-15.5 19.5-17 21.5-17 1.6 0 2.33.67 2.5 1 1 0 3 .2 3 1s-.67 2.33-1 3c0-.8-.67-1-1-1-4.43 0-5.8 1.99-5.98 3.21 2.07.29 3.38.84 3.98 1.29V29a12.23 12.23 0 0 0-3.57-1.45c1.78 4.85 8.53 6.66 12.07 6.95v.5c-13.7.8-17.19-3.45-16.9-7.9-2.1.06-4.1.4-5.67.8-1.7 2.53-3.1 5.22-3.93 7.1Zm12-14a14.15 14.15 0 0 0-2.01 4.03c-1.27.05-2.7.18-4.27.44 1.97-2.42 4.16-4.3 6.28-4.47Zm5-1c.55 0 1-.22 1-.5s-.45-.5-1-.5-1 .22-1 .5.45.5 1 .5Z" fill="#FB2531"/></svg>