<!-- by TradingView --><svg width="56" height="56" viewBox="0 0 56 56" xmlns="http://www.w3.org/2000/svg"><path fill="#F0F3FA" d="M0 0h56v56H0z"/><path fill-rule="evenodd" d="M51 22H5v11h46V22ZM4 21v13h48V21H4Z" fill="#11137A"/><path d="M6 29v-3c0-1 .87-2 2-2h4v1.5H9c-.8 0-1 1.17-1 1.5v1c0 .8.67 1.5 1 1.5h3V31H8c-.8 0-2-1-2-2ZM24.5 29v-3c0-1 .87-2 2-2h4v1.5h-3c-.8 0-1 1.17-1 1.5v1c0 .8.67 1.5 1 1.5h3V31h-4c-.8 0-2-1-2-2ZM21 24h-2v5c0 1.6 1.33 2 2 2h3v-1.5h-3V24ZM40 31h-2v-5c0-1.6 1.33-2 2-2h3v1.5h-3V31ZM46 31h-2v-7h4c1.06 0 2 .5 2 2.5 0 1.6-1 2.5-2 2.5h-1.5v-1.5h.5c.5 0 1-.5 1-1 0-.77-.5-1-1-1h-1V31ZM12.5 24v1.5h4v4H15c-.17 0-.5-.1-.5-.5s.33-.5.5-.5h1V27h-1.5c-.67 0-2 .4-2 2s1 2 1.5 2h4.5v-5c0-1.6-1.33-2-2-2h-4ZM31 29.5c0 .5.5 1.5 1.5 1.5h3c1 0 1.5-.7 1.5-1.5v-4c0-.63-.83-1.5-1.5-1.5h-3c-.5 0-1.5.7-1.5 1.5v4Zm2-4h2v4h-2v-4Z" fill="#11137A"/></svg>