<!-- by TradingView --><svg width="56" height="56" viewBox="0 0 56 56" xmlns="http://www.w3.org/2000/svg"><path fill="#F0F3FA" d="M0 0h56v56H0z"/><path d="M37.3 34.2c6.65-5.28 9.92-11.96 7.44-16.13-2.62-4.41-11.39-4.18-19.82-.18 9.36-4.85 18.62-5.26 21.32-.7 2.51 4.21-1.4 11.3-8.94 17.01ZM29 39.12c-7.83 3.3-15.27 2.97-17.75-1.2-1.93-3.26-.7-7.84 3-12.16-4.5 4.75-6.44 9.77-4.5 13.05 2.51 4.22 10.63 4.18 19.25.31Z" fill="#CE252B"/><path d="M27.35 22.56c-7.02 0-12.42-4.37-14.35-6.56.06.26.27 1 .57 1.86a20.91 20.91 0 0 0 13.26 5.73v10.25l.52-.48v-10.8Zm-11.53 3.12.41 1.25c.9.47 2.97 1.52 4.77 1.89V39l.52-.4V27.95c-.9-.22-3.16-1-5.7-2.27Zm24.14.39-.2.75a25.5 25.5 0 0 1-5.13 1.7v10.36l-.87-.84v-9.8l.05-.01c.95-.24 3.65-.9 6.15-2.16Zm-26.12-7.24.49 1.65c1.76 1.32 6.57 4.07 11.35 4.48v10.15l.6-.46V24.02c-1.98 0-7.31-1.04-12.44-5.19Zm1.14 3.92-.4-1.49c4.8 3.24 8.6 4.07 9.96 4.08v10.58l-.54.52V26.26c-3.34-.3-7.36-2.47-9.02-3.51Zm.25.73.4 1.32c1.28.73 4.66 2.28 7.22 2.67V37.8l.52-.52V26.61a24.45 24.45 0 0 1-8.14-3.13ZM28 22.56c7.02 0 13.07-4.37 15-6.56l-.04.18c-.02.16-.06.36-.29 1C38 21.73 31.54 23.22 29 23.24v10.69l-1-.94V22.56Zm13.85-3.3-.33 1.04a22.61 22.61 0 0 1-11.22 4.34v10.42l-.87-.84v-10.2c1.97 0 7.29-.6 12.42-4.75Zm-.78 3.22.27-.86c-4.8 3.23-8.97 4.06-10.34 4.06v9.9l1 .84V26c3.34-.3 7.42-2.47 9.07-3.51Zm-.38 1.4-.16.79c-1.28.72-4.69 2.36-7.25 2.75v10.23l-.88-.76v-9.93c1.37-.22 5.2-1.11 8.29-3.08Z" fill="#242578"/></svg>