<!-- by TradingView --><svg width="56" height="56" viewBox="0 0 56 56" xmlns="http://www.w3.org/2000/svg"><path fill="#F0F3FA" d="M0 0h56v56H0z"/><path fill-rule="evenodd" d="M28 17 8 21.99v12.02L28 39l20-4.99V21.99L28 17Zm0 2-18 4.08v9.84L28 37l18-4.08v-9.84L28 19Z" fill="#014F2A"/><path d="M37 23h-2v10h7v-2h-5v-8ZM25 33V23h5a3 3 0 0 1 .38 5.98c.9.91 2.04 2.92 2.62 4.02h-2.2a20.22 20.22 0 0 0-2.49-4H27v4h-2Zm2-6h3a1 1 0 1 0 0-2h-3v2Zm-13 6 3.96-10h2.08L24 33h-1.98l-.8-2h-4.45l-.79 2H14Zm3.57-4h2.86L19 25.38 17.57 29Z" fill="#1E1E1E"/></svg>