<!-- by TradingView --><svg width="56" height="56" viewBox="0 0 56 56" xmlns="http://www.w3.org/2000/svg"><path fill="#F0F3FA" d="M0 0h56v56H0z"/><path d="M14 31h-1.48l-.9-5.39L10.36 28H12l-1.14 1H9.85L8.8 31H7.33l1.08-2H4l1.14-1h3.8l2.15-4h1.64L14 31ZM15.16 26l.72 3.95L18.13 26h1.16l-2.94 5h-1.32L14 26h1.16ZM20.32 30.02 21.5 30l.5-1h-1.09l1.05-1.81.7 3.81h1.14l-.98-5h-1.27l-2.9 5h1.14l.53-.98ZM42.85 31c-1.21 0-2.3-.77-2.3-2.06 0-1.77 1.52-2.94 3.21-2.94 1.2 0 2.31.75 2.31 2.04 0 1.79-1.5 2.96-3.22 2.96Zm.16-1c1.1 0 1.96-.77 1.96-1.87 0-.76-.5-1.13-1.36-1.13-1.1 0-1.95.76-1.95 1.86 0 .77.5 1.14 1.35 1.14ZM30.46 28.5c.3-1.5 1.74-2.5 3.23-2.5 1.01 0 2.06.5 2.24 1.59h-1.25c-.17-.45-.58-.59-1.17-.59-.96 0-1.75.57-1.93 1.5-.03.15-.04.28-.04.37 0 .78.6 1.13 1.34 1.13.59 0 1.1-.14 1.44-.59h1.25A3.24 3.24 0 0 1 32.72 31c-1.2 0-2.3-.7-2.3-1.99 0-.16 0-.33.04-.5ZM29.17 31h-1.1l-1.79-3.4-.65 3.4h-1.1l.96-5h1.09l1.8 3.42.66-3.42h1.08l-.95 5ZM37.84 28l.25-1H40l.78-1h-3.63l-.96 5h3.32l.49-1h-2.56l.25-1h1.65l.66-1h-2.16ZM51.05 31h-1.1l-1.79-3.4-.66 3.4h-1.1l.97-5h1.09l1.8 3.42.65-3.42H52l-.95 5Z" fill="#005A96"/></svg>