<!-- by TradingView --><svg width="56" height="56" viewBox="0 0 56 56" xmlns="http://www.w3.org/2000/svg"><path fill="#F0F3FA" d="M0 0h56v56H0z"/><path d="m36.63 38.29-.15-.62a.14.14 0 0 0-.11-.1.14.14 0 0 0-.14.05l-.21.32-1.73-1a.13.13 0 0 0-.15 0 11.21 11.21 0 0 1-3.69 1.65.13.13 0 0 0-.1.11l-.66 3.1c-.01.06-.04.08-.1.08h-3.18c-.05 0-.09-.02-.1-.08l-.65-3.09a.15.15 0 0 0-.12-.12c-1.08-.27-2.1-.69-3.07-1.26a.14.14 0 0 0-.16 0l-2 1.37-.52-1.01a.13.13 0 0 0-.24.03l-.23 1.1-2.02-1.95c-.04-.03-.04-.08-.01-.13l1.67-2.68a.15.15 0 0 0 0-.18 11.5 11.5 0 0 1-1.35-3.05.14.14 0 0 0-.12-.1l-3.1-.57c-.06-.01-.1-.05-.1-.12l-.1-3.18c0-.05.02-.08.07-.1l3.06-.75c.07-.01.1-.06.12-.12a11.5 11.5 0 0 1 1.16-3.17.12.12 0 0 0-.01-.13l-1.84-2.57a.13.13 0 0 1 .01-.17l2.07-2.32c.05-.06.1-.07.17-.03l2.71 1.58c.05.03.1.03.15 0a10.8 10.8 0 0 1 3.77-1.71.15.15 0 0 0 .03-.08l.67-3.13c.01-.05.05-.07.1-.07h3.14c.02 0 .05 0 .07.02l.04.07.65 3.11c.01.06.05.1.1.11a11.83 11.83 0 0 1 3.17 1.29.1.1 0 0 0 .07-.03l2.62-1.77c.06-.04.11-.03.16.01l2.26 2.21a.1.1 0 0 1 .02.13l-1.67 2.7a.15.15 0 0 0 0 .18c.6.94 1.04 1.95 1.34 3.03.02.07.07.12.14.13l3.06.55c.03 0 .06.02.08.04.02.03.04.06.04.1l.1 3.16c0 .06-.03.09-.08.1l-3.08.78a.12.12 0 0 0-.1.1 10.9 10.9 0 0 1-1.13 3.14.16.16 0 0 0 .01.17L39.28 36a.12.12 0 0 1-.01.14l-2.11 2.37c-.04.04-.08.05-.13.02l-.4-.24Zm.91-10.3c0-2.54-1-4.99-2.8-6.79a9.5 9.5 0 0 0-13.48 0 9.64 9.64 0 0 0 0 13.59 9.5 9.5 0 0 0 15.55-3.12c.48-1.17.73-2.41.73-3.68Z" fill="#231F20"/><path d="M27.56 20.23c0-.28-.01-.54-.04-.8-.01-.07.02-.1.09-.09h.04c.05.01.07.04.07.08 0 .41.24 1.34-.54 1.22a.37.37 0 0 1-.3-.34l-.07-.83c0-.06.02-.08.08-.08h.05c.02 0 .03 0 .04.03.04.27.07.54.08.81 0 .07.03.13.07.18a.25.25 0 0 0 .36 0 .25.25 0 0 0 .07-.18Z" fill="#231F20"/><path d="m28.71 20.05-.05-.02a.04.04 0 0 1-.03-.03l.01-.03h.02l.2-.07a.12.12 0 0 1 .16.13l-.02.43a.12.12 0 0 1-.09.12c-1.25.34-1.07-1.6.05-1.19.08.03.08.07 0 .1a.21.21 0 0 1-.2 0 .19.19 0 0 0-.18 0c-.35.17-.43.48-.23.92a.24.24 0 0 0 .19.14.25.25 0 0 0 .22-.09.3.3 0 0 0 .05-.33.16.16 0 0 0-.1-.08Zm1.09.36c-.27-.08-.4.02-.43.3l-.01.02a.05.05 0 0 1-.08 0 1.25 1.25 0 0 0-.08-.08c-.03-.03-.04-.06-.02-.1l.56-1.03a.12.12 0 0 1 .13-.06.12.12 0 0 1 .1.1c.03.22.2 1.13.07 1.26-.04.04-.07.04-.08-.02l-.05-.27a.14.14 0 0 0-.11-.12Zm-.17-.2a.11.11 0 0 0 .09.06.12.12 0 0 0 .1-.04c.09-.12.09-.23.01-.34-.02-.04-.06-.04-.1-.01-.12.09-.15.2-.1.32ZM26.04 20l.43.17a.3.3 0 0 1 .1.5.58.58 0 0 1-.58.15.05.05 0 0 1-.05-.06.05.05 0 0 1 .05-.05l.27-.04c.05 0 .09-.03.12-.07.07-.11.05-.21-.05-.3a.3.3 0 0 0-.17-.07c-.6-.04-.43-.78.18-.7a.05.05 0 0 1 .04.04v.03l-.02.02a.38.38 0 0 1-.17.07c-.05 0-.1.03-.15.06-.05.04-.08.08-.08.13 0 .06.03.1.08.11Zm4.59.58-.12.33a.09.09 0 0 1-.11.03.09.09 0 0 1-.05-.1l.31-.9a.26.26 0 0 1 .18-.16.26.26 0 0 1 .23.05c.2.16.3.31.26.46a.25.25 0 0 1-.09.14c-.11.1-.15.33-.13.7a.06.06 0 0 1-.03.06h-.04c-.01 0-.02 0-.03-.02-.11-.1-.14-.25-.08-.42a.13.13 0 0 0-.05-.15l-.11-.07a.09.09 0 0 0-.08-.01.09.09 0 0 0-.06.06Zm.18-.62-.1.36a.08.08 0 0 0 0 .06.08.08 0 0 0 .04.04h.02c.08.03.17.03.24 0a.2.2 0 0 0 .15-.13l.01-.05c.02-.06 0-.13-.04-.2a.42.42 0 0 0-.21-.12h-.02a.08.08 0 0 0-.06 0 .08.08 0 0 0-.03.04Zm-6.66.44a.17.17 0 0 1 .1-.23l.16-.05a.67.67 0 0 1 .5.01c.15.07.26.2.32.36l.02.04a.6.6 0 0 1-.03.48.66.66 0 0 1-.38.32l-.14.06a.18.18 0 0 1-.23-.11l-.32-.89Zm.18 0 .32.78a.09.09 0 0 0 .11.05l.03-.01a.5.5 0 0 0 .27-.26.47.47 0 0 0 0-.37l-.02-.05a.47.47 0 0 0-.26-.26.5.5 0 0 0-.38 0l-.02.01a.09.09 0 0 0-.05.05.08.08 0 0 0 0 .06Zm-.48.7c.17.32.35.57.4.54.05-.02-.05-.31-.22-.64-.17-.33-.35-.58-.4-.55-.05.02.05.31.22.64Zm8.31-.23a.27.27 0 0 1-.05.02.04.04 0 0 0-.03.03 2.38 2.38 0 0 1-.38.66.06.06 0 0 1-.07-.01l-.03-.04c-.02-.02-.02-.04 0-.06l.6-.91a.14.14 0 0 1 .17-.05.14.14 0 0 1 .08.15l-.17.67a.08.08 0 0 0 .04.1.08.08 0 0 0 .1-.02l.53-.48a.13.13 0 0 1 .16 0c.02 0 .04.03.04.06v.08l-.45.96c0 .02-.01.03-.03.04a.08.08 0 0 1-.05 0c-.2-.04.2-.62.24-.7a.07.07 0 0 0-.03-.1.07.07 0 0 0-.09 0l-.54.52a.08.08 0 0 1-.13-.03.09.09 0 0 1-.01-.05l.17-.79c0-.06-.01-.07-.07-.05Zm-8.71.72a.16.16 0 0 0-.2 0 .16.16 0 0 0-.04.2l.2.34c.02.04.01.06-.02.08l-.04.03c-.03.01-.05 0-.07-.02l-.57-.9c-.03-.06-.03-.11.02-.16a.67.67 0 0 1 .6-.21.13.13 0 0 1 .12.12c.02.3.16.53.44.68.05.03.06.07.04.13l-.02.04-.01.02a.05.05 0 0 1-.05.01h-.02l-.38-.36Zm-.25-.03.07-.04a.21.21 0 0 0 .06-.07.25.25 0 0 0 .02-.09.28.28 0 0 0-.11-.25.2.2 0 0 0-.16-.03.19.19 0 0 0-.08.04.21.21 0 0 0-.05.07.25.25 0 0 0-.03.08.28.28 0 0 0 .11.25.2.2 0 0 0 .17.04Zm10.44-.26v-.01a.08.08 0 0 0-.11.02l-.63.88a.08.08 0 0 0 .02.11h.01c.04.03.08.02.1-.01l.63-.89a.08.08 0 0 0-.02-.1Zm-.09 1.34c.12.05.2.15.25.29a.05.05 0 0 1-.02.06.05.05 0 0 1-.07-.01 2.56 2.56 0 0 0-.4-.36c-.07-.05-.08-.1-.02-.17l.72-.83a.06.06 0 0 1 .1 0l.03.03c.02.02.02.04 0 .06l-.63.77c-.05.07-.04.12.04.16Zm-11.45-.86c.15.08.98.56.98.73 0 .09-.03.1-.1.04-.18-.19-.35-.18-.52.02a.13.13 0 0 0-.02.16c.05.1.07.2.06.3a.06.06 0 0 1-.09.04 8.9 8.9 0 0 1-.5-1.22.13.13 0 0 1 .1-.08h.08Zm.1.24c-.05-.03-.08 0-.07.05.02.14.08.26.18.34.03.02.06.03.1.03.04 0 .08-.01.1-.04a.12.12 0 0 0 .04-.08.12.12 0 0 0-.03-.1c-.1-.08-.2-.15-.32-.2Zm-.34 1.66a4.43 4.43 0 0 1-.82-.8c-.04-.04-.04-.08 0-.13l.34-.36a.06.06 0 0 1 .08 0l.02.03v.07c.01.03 0 .06-.04.08-.12.05-.18.15-.18.28a.22.22 0 0 0 .18.2.2.2 0 0 0 .13-.02.17.17 0 0 0 .07-.1c.02-.08.07-.1.15-.08.04.02.06.05.05.1-.02.05-.07.09-.15.1a.08.08 0 0 0-.07.04v.04l.01.05.33.4v.06l-.04.03c-.02.02-.03.02-.06 0Zm12.42.02a1.8 1.8 0 0 1-.37-.39c-.05-.06-.04-.12.01-.18l.76-.74a.08.08 0 0 1 .08-.02l.03.03.02.03c.01.16-.57.64-.7.76a.1.1 0 0 0-.01.12l.03.03c.12.08.19.18.21.32v.02l-.02.02h-.04Zm.94-.17a.43.43 0 0 0-.03.42c.02.04.02.1 0 .14-.22.52-.74.26-.77-.14-.01-.1.01-.11.08-.03l.17.21a.2.2 0 0 0 .23.06.2.2 0 0 0 .12-.2l-.04-.32a.3.3 0 0 1 .13-.3.32.32 0 0 1 .32-.02c.17.08.25.2.27.38 0 .1-.02.1-.08.03l-.2-.24c-.07-.1-.14-.1-.2 0Zm-14.84.37 1.11.34a.06.06 0 0 1 .04.04.06.06 0 0 1-.01.05l-.04.05a.06.06 0 0 1-.04.01h-.04c-.2-.1-.35-.07-.48.1a.17.17 0 0 0-.02.18l.03.06.08.15c.03.07.04.13.03.15a.05.05 0 0 1-.04.02.05.05 0 0 1-.04-.02l-.75-.87a.15.15 0 0 1 0-.2.16.16 0 0 1 .18-.06Zm.37.3a1.17 1.17 0 0 0-.24-.11.06.06 0 0 0-.08.08c.06.13.15.23.27.3a.13.13 0 0 0 .14-.01.13.13 0 0 0 .06-.12c-.01-.1-.06-.14-.15-.14Zm14.45 1.27.15.29a.05.05 0 0 1-.02.06l-.03.01-.03-.01a.8.8 0 0 1-.28-.47.12.12 0 0 1 .07-.13l.97-.49c.05-.02.07 0 .06.04v.06a.06.06 0 0 1-.03.06l-.82.43c-.06.03-.08.08-.04.15Zm-14.33-.12c.07.24.02.45-.15.65a.13.13 0 0 1-.16.03l-.89-.46c-.05-.03-.07-.07-.05-.13.07-.24.4-.8.68-.31a.2.2 0 0 0 .16.1h.24a.18.18 0 0 1 .17.12Zm-.67.1c.04-.16 0-.25-.15-.3-.07-.03-.12-.01-.16.05l-.08.14a.1.1 0 0 0 .06.14c.25.05.47.17.66.36a.1.1 0 0 0 .08.02.1.1 0 0 0 .07-.04.38.38 0 0 0 .05-.3.14.14 0 0 0-.12-.11c-.13-.03-.23 0-.31.13l-.04.02-.04-.02a.1.1 0 0 1-.03-.1Zm16.16.35-.04-.21v-.04a.06.06 0 0 1 .07-.02c.01 0 .02 0 .03.02.15.22.24.46.28.72.01.06 0 .07-.06.04a.24.24 0 0 1-.11-.18c-.01-.07-.05-.1-.12-.07-.24.08-.84.4-.99.33-.08-.05-.08-.09.01-.12l.87-.36c.05-.02.07-.06.06-.1Zm-16.13.8c-.21.37.23.58.13.68-.03.02-.05.02-.08 0l-.9-.66a.17.17 0 0 1 0-.28.17.17 0 0 1 .11-.03l1.1.07a.07.07 0 0 1 .08.07c0 .02-.01.04-.03.05a.07.07 0 0 1-.05.02l-.26.03a.13.13 0 0 0-.1.06Zm-.4-.1a.11.11 0 0 0-.1.08.11.11 0 0 0 .04.12l.18.1a.09.09 0 0 0 .13-.1c-.03-.14-.12-.2-.25-.2Zm16.87.26a.09.09 0 0 1 .11.07l.07.26a.64.64 0 0 1-.07.47.6.6 0 0 1-.37.28l-.09.02a.6.6 0 0 1-.45-.08.63.63 0 0 1-.28-.39l-.06-.26a.09.09 0 0 1 .06-.1l1.09-.27Zm-.13.22-.72.17a.13.13 0 0 0-.1.15v.04c.02.05.04.1.08.15.03.04.08.08.13.11a.49.49 0 0 0 .36.05l.05-.01a.5.5 0 0 0 .3-.2c.07-.1.1-.21.07-.32l-.01-.04a.13.13 0 0 0-.16-.1Zm-16.72.68c.2-.13.38-.1.54.1a.2.2 0 0 1 .04.14l-.04.41c0 .08-.05.11-.13.1l-.98-.19a.15.15 0 0 1-.12-.1c-.1-.3.21-.89.52-.49.02.03.05.04.08.05.03 0 .06 0 .1-.02Zm-.52.1c-.05.16 0 .27.15.34.13.05.2.01.2-.12v-.16a.17.17 0 0 0-.16-.18.18.18 0 0 0-.2.13Zm.52.37.3.1a.08.08 0 0 0 .08-.02l.02-.03.01-.03a.39.39 0 0 0 .02-.23.2.2 0 0 0-.11-.13l-.04-.02a.16.16 0 0 0-.09 0 .23.23 0 0 0-.08.03.34.34 0 0 0-.08.08.43.43 0 0 0-.06.1l-.01.04a.08.08 0 0 0 .04.1Zm16.12.25-.05.04h-.01c-.1-.05-.12-.12-.09-.2a.09.09 0 0 1 .1-.06.1.1 0 0 1 .08.07v.1a.1.1 0 0 1-.03.05Zm-5.67-3.71a2 2 0 0 0-.43.4.08.08 0 0 1-.1.02.08.08 0 0 1-.05-.08v-.85a.28.28 0 0 0-.05-.16c-.11-.17-.15-.34-.2-.51a1.5 1.5 0 0 0-.24-.6c-.01-.01-.03-.01-.03.02-.1.4 0 .73.27 1 .04.05.06.1.08.16.1.52.08 1.04-.04 1.56a.21.21 0 0 0 .03.17l.05.07c.05.06.08.05.1-.03l.06-.37a.3.3 0 0 1 .07-.14l.53-.6a.04.04 0 0 0-.02-.07l-.03.01Zm-.8 4.56c-.07-.93-.06-1.85.01-2.75 0-.06.04-.1.1-.11.28-.06.51 0 .71.15.05.04.08.03.1-.03l.02-.12c.02-.08-.01-.12-.1-.13-.26-.02-.53-.06-.8-.1a.14.14 0 0 0-.14.05c-.14.18-.14 1.14-.13 1.96 0 .47 0 .9-.02 1.1h-.17c-.06.01-.09-.02-.09-.08-.01-.37 0-.8.02-1.25.03-.93.06-1.93-.14-2.65a.1.1 0 0 1 .1-.14c.08.01.14 0 .2-.05.05-.05.04-.08-.03-.1l-.17-.04a.09.09 0 0 1-.07-.07c-.05-.38-.27-.52-.65-.43-.22.04-.27-.02-.15-.2l.41-.68a.17.17 0 0 1 .15-.07h.25c.04 0 .05-.02.04-.06l-.1-.4a.09.09 0 0 0-.08-.06.09.09 0 0 0-.09.05.4.4 0 0 0-.03.15c0 .05-.01.1-.04.13l-.94 1.28c-.07.1-.04.13.07.1.13-.04 1.31-.3.83.31a.07.07 0 0 0-.01.07.07.07 0 0 0 .05.05c.2.03.18.13.15.23l-.02.1c.03 1.25.05 2.51.05 3.77 0 .06-.03.1-.1.1-.2 0-.39-.05-.56-.14l-.11-.3c-.03-.07-.06-.08-.11-.03l-.41.36c-1.3 0-2.59.03-3.9.11-.5.04-1.03.43-1.48.77l-.3.22c-.04.03-.05.07-.02.12l.17.27c.04.05.08.06.13.02l1.1-.8c.04-.03.09-.03.14 0l1.18.87c.04.03.08.03.11 0l1.27-.88a.14.14 0 0 1 .17 0l1.1.85c.06.04.12.04.18 0l1.26-.83c.08-.05.15-.05.22 0l1.1.85a.06.06 0 0 0 .11-.06.06.06 0 0 0-.02-.04l-1.15-.92a.21.21 0 0 0-.13-.05c-.05 0-.1 0-.13.04l-1.19.82c-.06.04-.11.04-.17 0l-1.09-.8a.28.28 0 0 0-.33 0l-1.1.82c-.06.05-.12.05-.18 0l-1.17-.86c-.06-.05-.12-.05-.18 0l-.24.16c-.08.06-.1.04-.07-.05.23-.64.98.02 1.42.4l.2.17c.06.04.11.04.17 0l1.13-.82a.3.3 0 0 1 .37 0l1.04.8a.12.12 0 0 0 .14 0l1.17-.82a.28.28 0 0 1 .32 0l1.08.79c.05.03.11.05.17.05h4.05a.13.13 0 0 0 .12-.09.12.12 0 0 0-.05-.14c-.3-.21-.62-.42-.94-.62-.5-.32-1.2-.29-1.8-.25h-.26a.84.84 0 0 0-.12-.53.1.1 0 0 0-.06-.04.1.1 0 0 0-.08.02l-.07.06c-.07.06-.11.04-.12-.05l-.06-.82a.04.04 0 0 0-.04-.04.04.04 0 0 0-.04.04c-.05.45-.05.9.01 1.36l-1.14-.07Zm-2.56-5.85c.53.3.48.88.44 1.42l-.03.44c0 .06-.02.07-.06.02a.2.2 0 0 1-.04-.06.12.12 0 0 1 0-.06c.04-.63-.08-1.47-.76-1.75a3.64 3.64 0 0 0-.84-.23.02.02 0 0 1 0-.04h.02c.45-.06.87.03 1.27.26Zm-.9.03a.2.2 0 0 0-.11.15.2.2 0 0 1-.08.12.38.38 0 0 0-.17.35c0 .07.02.08.06.02l.35-.6c.03-.05.02-.07-.05-.04Zm4.67 2.74h-.02c-.11-.05-.08-.8-.07-1.19a6.81 6.81 0 0 0 0-.25.15.15 0 0 0-.03-.05l-.03-.02c-.01 0-.02 0-.03.02-.02.03-.05.04-.08.03-.06-.02-.07-.05-.01-.08.26-.19.35-.43.25-.74a.13.13 0 0 1 .12-.17c.03 0 .05 0 .08.02.17.13.24.3.22.53 0 .05-.03.06-.07.02l-.07-.07a.12.12 0 0 0-.2.08l-.06 1.87Zm-5.54-2.11h.04l.11-.01h.15c.12.02.13-.01.03-.08-.12-.08-.23-.06-.35.04a.03.03 0 0 0 0 .04h.02Zm.54.18c.08.1.1.2.07.33-.01.02-.02.03-.04.02l-.1-.05a.13.13 0 0 0-.1 0 .56.56 0 0 1-.37 0 .1.1 0 0 1-.06-.1.1.1 0 0 1 .08-.08.6.6 0 0 0 .36-.13c.06-.04.11-.04.16.01Zm.71.55h-1.17a.08.08 0 0 0-.07.07.08.08 0 0 0 .05.08 2.17 2.17 0 0 0 1.24-.08.05.05 0 0 0-.05-.07Zm-.73.62c.03.02.04.04.05.07v.1c0 .02-.03.04-.05.05a.1.1 0 0 1-.08.01h-.06a.04.04 0 0 1-.03-.02.03.03 0 0 1 0-.03c.02-.1-.01-.19-.12-.23-.04-.02-.07-.06-.06-.1v-.07c0-.06.01-.07.06-.03l.3.25Zm.18.26h.04c.29-.02.57 0 .85 0 .32.03.64.04.96 0 .17-.03.33-.04.5-.03h.15c.1-.01.14-.04.15-.08a.09.09 0 0 0-.08-.11l-.42-.01c-.89-.03-2.24-.07-2.15.23Zm-.41.13.03.1c.02.06 0 .07-.05.05-.16-.09-.18-.15-.06-.2.04 0 .07 0 .08.05Zm.45-.12h-.04l-.48.54c0 .08-.01.14-.04.18-.01.14.04.26.15.36.05.04.05.08 0 .13-.1.1-.19.2-.25.33-.25-.04-.4-.01-.48.07-.05.06-.03.1.04.12.15.05.31.05.5 0 .11-.02.09-.14.01-.18.08.04.1.16-.02.18.12.07.22.11.31.11.05 0 .07-.02.08-.06.01-.12-.03-.19-.13-.2-.1 0-.12-.04-.07-.12l.45-.83h.01v-.04c.26.02.43-.01.51-.08.07-.05.06-.1-.02-.12-.36-.1-.55-.06-.57.14l.07.1-.07-.1c-.1.2-.2.32-.3.34-.07.02-.1 0-.06-.08l.4-.8Zm1.33.59c0 .26.04.46.08.46.03 0 .06-.2.06-.46s-.04-.47-.08-.47-.07.21-.06.47Zm-1.89.13c.03-.04.04-.1.04-.18a.81.81 0 0 0-.55-.04.1.1 0 0 0-.07.11c.01.08.17.08.33.08.1 0 .2 0 .25.03Zm.65.37h1.25c.08 0 .12.04.12.12 0 .12-.02.22-.04.32-.03.17-.05.16-.05 0v-.07c0-.07-.03-.11-.1-.12a3.72 3.72 0 0 0-1.25-.02c-.1.02-.13-.02-.08-.1l.04-.07a.11.11 0 0 1 .1-.06Zm2.46.62H25.9a.05.05 0 0 0-.04.04v.1c0 .03.02.05.04.05h2.57c.03 0 .05-.02.05-.04v-.1a.05.05 0 0 0-.05-.05Zm-2.54.62h1.19c.06 0 .1.03.12.08l.05.14c.03.08.05.08.05 0v-.3c0-.07-.03-.1-.09-.1h-.08c-.32 0-1.25-.04-1.3.09-.03.06 0 .09.06.09Zm-.32-.07-.27.42a.06.06 0 0 1-.05.03l-.5.07a.06.06 0 0 0-.05.07.06.06 0 0 0 .06.06l.5.02a.06.06 0 0 1 .05.02l.31.4a.06.06 0 0 0 .11-.03v-.05l-.23-.44a.06.06 0 0 1 0-.05l.18-.46a.06.06 0 0 0-.03-.09.06.06 0 0 0-.08.03Zm.99.44c.2.01.42.02.63-.01.07-.01.1.01.1.08l.01.25c0 .04 0 .05-.03.01-.14-.26-.71-.21-1.15-.18-.17 0-.32.02-.41.01a.05.05 0 0 1-.05-.04v-.04l.04-.01c.3-.1.58-.08.86-.07Zm1.97.23a.05.05 0 0 0-.02-.02c-.1-.06-.2-.07-.28-.01-.06.03-.06.06 0 .08.1.03.17.04.25.03a.06.06 0 0 0 .05-.04v-.04Zm-1.2.42v.03h-1.11a2.14 2.14 0 0 1-.3-.04.41.41 0 0 1-.1-.03c-.02 0-.03-.02-.02-.03v-.06c0-.02.04-.04.12-.06.08-.01.2-.02.3-.01l1.08.01a.04.04 0 0 1 .04.04v.15Zm-2.6 1.94a.05.05 0 0 0-.05-.04.05.05 0 0 0-.05.04l.04 2.78c0 .02.02.04.04.04.03 0 .05-.02.05-.04l-.04-2.78Zm-2.3.52.09-.13a.07.07 0 0 1 .08-.03.07.07 0 0 1 .05.07c0 .2-.01.76.15.8.07.02.1 0 .08-.08a1.62 1.62 0 0 1-.01-.71.35.35 0 0 0-.04-.24.35.35 0 0 0-.2-.16.3.3 0 0 0-.22 0 .28.28 0 0 0-.14.19.3.3 0 0 0 .06.3c.04.05.08.04.1 0Zm5.87 1.25a.2.2 0 0 1-.2.2h-.22a.21.21 0 0 1-.19-.12.2.2 0 0 1-.02-.08v-1.4a.2.2 0 0 1 .2-.2h.22a.2.2 0 0 1 .21.2v1.4Zm-.45 0 .3-.01s.02 0 .03-.02v-.05a14.24 14.24 0 0 0-.08-1.18c-.01-.07-.03-.1-.04-.1h-.17c-.03 0-.05.14-.07.38-.02.24-.02.57-.02.9v.03a.04.04 0 0 0 .03.04h.02Zm-2.25.14a.1.1 0 0 0 .03-.08l-.03-1.52a.1.1 0 0 0-.11-.1h-.4a.11.11 0 0 0-.09.03.1.1 0 0 0-.03.08l.04 1.53c0 .03 0 .05.03.07.02.02.05.03.08.03h.4c.03 0 .06-.02.08-.04Zm-.48-.16-.02-1.3.03-.06a.07.07 0 0 1 .05-.02h.08a.2.2 0 0 1 .15.07c.04.04.06.1.06.17l.01.97-.01.1a.24.24 0 0 1-.05.07.21.21 0 0 1-.07.05.2.2 0 0 1-.08.02h-.08a.07.07 0 0 1-.07-.07Zm-1.04.3c-.44.22-.39-1.04-.37-1.49v-.13c.01-.06.04-.1.1-.11.76-.3.64.8.57 1.43a4.26 4.26 0 0 0-.04.36.08.08 0 0 1-.08.04.08.08 0 0 1-.04-.02l-.05-.06a.08.08 0 0 0-.1-.01Zm-.13-.82c-.13.25-.11.5.05.73.05.06.1.06.14 0 .17-.26.07-1.53-.15-1.44a.1.1 0 0 0-.06.1l.03.51-.01.1Zm2.87-.87.09.1c.03.02.04.05.03.1l-.05.64c0 .07.03.1.1.1.16-.03.07-.78.04-.94 0-.05-.04-.08-.1-.08h-.07l-.03.01a.05.05 0 0 0-.02.05l.01.02Zm2.6-.04.28.06a.1.1 0 0 1 .06.03.1.1 0 0 1 .02.06v.78c0 .13-.03.13-.1.02-.07-.12-.07-.3-.07-.46 0-.13 0-.25-.04-.3a.11.11 0 0 0-.2.07 3.08 3.08 0 0 1-.04.75.05.05 0 0 1-.09-.03c-.06-.3-.06-.58.01-.87.02-.09.08-.12.17-.1Zm2.2.83c.08-.06.1-.15.07-.27 0-.01 0-.02.02-.02h.04l.03.01.06.2c.01.03.03.04.06.03.09-.03.14-.08.14-.15l.02-.03h.04a.1.1 0 0 1 .05.02l.03.03c.06.1.14.12.22.06.05-.04.1-.05.16-.03.36.1.65.04.9-.2a.08.08 0 0 0 0-.07.07.07 0 0 0-.06-.05l-1.9.06c-.07 0-.1.03-.08.1l.06.26.02.04a.09.09 0 0 0 .08.03l.04-.02Zm1.33.22c-.07.35-.59.34-1 .33h-.4a.14.14 0 0 1-.15-.08.13.13 0 0 1 .06-.16c.06-.04.13-.05.19-.01.05.03.1.03.16 0a3.05 3.05 0 0 1 1.24-.18l.01.02v.02l-.02.02-.07.02a.03.03 0 0 0-.02.02Zm-2.29-6.17h.21c.2-.01.45-.02.46.17 0 .05-.02.07-.07.07l-.46-.04a.15.15 0 0 1-.13-.08c-.03-.04-.03-.08 0-.12Zm.63 1.44h-1.06a.07.07 0 0 0-.08.08v.03c0 .04.04.07.08.07h1.06c.05 0 .08-.04.08-.08v-.02a.07.07 0 0 0-.08-.08Zm-7.85 6.34a.08.08 0 0 1 .1.03v.06c0 .02-.01.03-.03.04-.34.22-.36.47-.08.76a.06.06 0 0 1-.02.1h-.07l-.4-.2a.13.13 0 0 0-.14.02v.01l-.28.27h-.01a.06.06 0 0 1-.1-.04v-.02l.07-.4a.13.13 0 0 0-.07-.12l-.36-.2a.06.06 0 0 1 0-.11l.04-.01c.38.05.58-.1.58-.47a.08.08 0 0 1 .02-.05.08.08 0 0 1 .04-.03l.05.01a.06.06 0 0 1 .03.04c.08.32.29.42.62.3Zm10.43.21-.47-.08a.1.1 0 0 1-.03 0h-.01a.1.1 0 0 1-.05-.07.1.1 0 0 1 0-.04.46.46 0 0 0-.08-.37.08.08 0 0 0-.03-.02.08.08 0 0 0-.09.03.08.08 0 0 0-.01.04c0 .14-.05.25-.18.33a.2.2 0 0 1-.17.03.66.66 0 0 0-.27-.04c-.1.01-.1.04-.03.1.15.1.24.25.26.42a.18.18 0 0 1-.05.14.23.23 0 0 0-.05.13.1.1 0 0 0 .1.11.1.1 0 0 0 .06-.01l.23-.13c.05-.03.1-.02.14.02l.27.25c.09.07.12.05.1-.05l-.06-.39a.1.1 0 0 1 .06-.11l.37-.16a.07.07 0 0 0 .04-.07l-.02-.04a.07.07 0 0 0-.04-.02Zm-9.18 1.51.36.14c.05.02.07.05.06.1l-.06.4c-.02.1.01.11.1.05l.31-.26c.05-.03.1-.04.14 0l.37.2h.03l.02-.05a.1.1 0 0 0-.02-.1c-.23-.24-.22-.44.04-.6a.12.12 0 0 0 0-.22.12.12 0 0 0-.1 0c-.39.08-.43-.1-.47-.23-.02-.07-.03-.13-.09-.15-.05-.01-.08 0-.1.05l-.05.3a.16.16 0 0 1-.12.14l-.41.1a.07.07 0 0 0-.05.08.07.07 0 0 0 .04.05Zm5.38-.02-.24-.2a.09.09 0 0 1-.02-.1.08.08 0 0 1 .05-.04h.06c.32.16.5.05.55-.3a.09.09 0 0 1 .05-.06.09.09 0 0 1 .07 0c.05.02.08.06.1.12v.05l.02.08c0 .11.06.2.16.27.06.04.11.05.18.04.07-.01.13 0 .17.05.06.05.05.1-.02.12l-.3.13a.14.14 0 0 0-.07.18c.05.11.08.23.1.35a.07.07 0 0 1-.05.08h-.02a.07.07 0 0 1-.07-.04c-.2-.33-.44-.37-.72-.1a.08.08 0 0 1-.1 0 .08.08 0 0 1-.03-.03.08.08 0 0 1 0-.04v-.02l.17-.36c.04-.07.02-.13-.04-.18Zm-2.19-.04-.12.34c-.02.06-.06.09-.12.09h-.39l-.04.01a.07.07 0 0 0 0 .12l.35.23c.05.03.06.08.04.13l-.12.35a.07.07 0 0 0 .09.1l.01-.02.28-.21a.14.14 0 0 1 .17 0l.31.23a.08.08 0 0 0 .1 0 .08.08 0 0 0 .02-.1c-.2-.33-.13-.55.2-.66a.1.1 0 0 0 .04-.04.09.09 0 0 0 .02-.05v-.06c0-.05-.02-.06-.06-.05-.4.09-.58-.04-.59-.38a.1.1 0 0 0-.12-.1.1.1 0 0 0-.03.02.1.1 0 0 0-.04.05Z" fill="#231F20"/><path d="M18.19 41.74A17.76 17.76 0 0 1 12 28.47c0-6.78 3.25-11.27 4.87-12.67.14-.28.27-.94-.26-1.32-.66-.47-3.24 2.68-4.59 5.71.69-2.32 2.55-6.97 4.5-6.97 1.17 0 1.3 1.08 1.22 1.62.61-1.25 2.44-3.98 4.85-4.84-.23.53-1 1.82-2.33 2.77.82-.56 3.04-1.65 6.11-2.01-.88.61-3.03 1.99-4.6 2.55.71-.13 2.43-.4 3.7-.33-.55.3-1.98.96-3.3 1.2.54.41 1.44 1.65.75 3.3-.08-1.07-.72-3.05-2.64-2.35-2.41.87-6.96 5.67-6.96 13.34 0 6.13 4.08 10.87 6.12 12.47L19.01 42l-.82-.26Z" fill="url(#avpmyobqy)"/><path d="M37.81 41.74c2.06-1.6 6.19-6.5 6.19-13.27 0-6.78-3.25-11.27-4.87-12.67-.14-.28-.27-.94.26-1.32.66-.47 3.24 2.68 4.59 5.71-.69-2.32-2.55-6.97-4.5-6.97-1.17 0-1.3 1.08-1.22 1.62-.61-1.25-2.44-3.98-4.85-4.84.23.53 1 1.82 2.33 2.77a14.73 14.73 0 0 0-6.11-2.01c.88.61 3.03 1.99 4.6 2.55a18.3 18.3 0 0 0-3.7-.33c.55.3 1.98.96 3.3 1.2a2.77 2.77 0 0 0-.75 3.3c.08-1.07.72-3.05 2.64-2.35 2.41.87 6.96 5.67 6.96 13.34 0 6.13-4.08 10.87-6.12 12.47l.43 1.06.82-.26Z" fill="url(#bvpmyobqy)"/><path fill-rule="evenodd" d="M18.66 36c1 2 4.26 6.02 9.37 6.02 5.12 0 8.5-4.01 9.55-6.02v3.75H39a11 11 0 0 1-2.7 2.03l1 .86-.22.14C35.2 43.93 31.82 46 28.03 46c-3.84 0-7.46-1.92-9.67-3.1l-.5-.26.8-.86L17 39.75h1.66V36Zm.14 6.56 2.42-2.34c.88.78 3.43 2.34 6.64 2.34a11.4 11.4 0 0 0 6.78-2.34l1.94 2.34c-1.25 1-4.73 3.01-8.72 3.01-3.98 0-7.7-2-9.06-3Z"/><path d="m21.94 41.2-.57 2 .68.25c.13.05.25.07.35.05.1-.01.19-.05.25-.12a.57.57 0 0 0 .14-.25c.03-.1.04-.2.02-.29a.51.51 0 0 0-.1-.21.37.37 0 0 0-.14-.13v-.02c.06 0 .12 0 .17-.02.06-.02.1-.05.15-.1a.61.61 0 0 0 .11-.49.52.52 0 0 0-.13-.25.7.7 0 0 0-.29-.18l-.64-.23Zm.15 1.98-.38-.13.18-.65.4.15a.4.4 0 0 1 .16.1.4.4 0 0 1 .08.36.28.28 0 0 1-.14.19c-.07.03-.17.03-.3-.02Zm.22-.88-.35-.13.17-.61.36.13c.1.04.18.1.21.17a.3.3 0 0 1 .02.23.31.31 0 0 1-.09.16.28.28 0 0 1-.15.07c-.05 0-.1 0-.17-.02Zm.75 1.6a.55.55 0 0 0 .4.16.38.38 0 0 0 .27-.13l-.05.2.25.1.28-1c.03-.1.04-.2.03-.28a.47.47 0 0 0-.08-.2.53.53 0 0 0-.15-.14.7.7 0 0 0-.4-.12.48.48 0 0 0-.42.22l.23.15a.33.33 0 0 1 .14-.1.3.3 0 0 1 .22 0c.09.03.14.08.17.14.03.06.03.13.01.22-.01.04-.03.06-.06.07h-.11l-.2-.05a1.5 1.5 0 0 0-.2-.03c-.06 0-.12 0-.18.02a.32.32 0 0 0-.15.09.44.44 0 0 0-.1.19.53.53 0 0 0-.02.27c.02.08.06.15.12.21Zm.53-.07a.35.35 0 0 1-.2-.02.33.33 0 0 1-.16-.12.22.22 0 0 1-.03-.19.2.2 0 0 1 .08-.1.22.22 0 0 1 .11-.05 10.29 10.29 0 0 1 .43.06h.06l-.05.18a.35.35 0 0 1-.09.16.3.3 0 0 1-.15.08Zm.72.61.56-2 .26.1-.21.74h.01a.78.78 0 0 1 .1-.08.36.36 0 0 1 .15-.07c.06-.01.13 0 .2.02.11.04.2.1.27.2.06.1.1.2.12.34a1 1 0 0 1-.05.44 1 1 0 0 1-.18.39.58.58 0 0 1-.28.2c-.1.03-.2.02-.3-.01a.43.43 0 0 1-.28-.27.93.93 0 0 1-.03-.13l-.03-.01-.06.23-.25-.09Zm.46-.66c-.03.1-.04.2-.04.3 0 .08.03.16.07.22.04.06.1.1.17.14.07.02.14.02.2 0a.41.41 0 0 0 .18-.15.84.84 0 0 0 .12-.26c.02-.1.04-.2.03-.28a.47.47 0 0 0-.06-.23.32.32 0 0 0-.18-.14.29.29 0 0 0-.2 0 .38.38 0 0 0-.17.14.84.84 0 0 0-.12.26ZM26 44.85a.55.55 0 0 0 .41.17.38.38 0 0 0 .26-.13h.01l-.06.2.25.1.29-1c.03-.11.04-.2.02-.29a.47.47 0 0 0-.08-.2.53.53 0 0 0-.15-.14.7.7 0 0 0-.4-.12.48.48 0 0 0-.41.23l.22.15a.33.33 0 0 1 .14-.11c.07-.03.14-.02.23 0 .08.04.14.08.17.15.02.06.03.13 0 .22 0 .04-.03.06-.05.07h-.12l-.2-.05a1.5 1.5 0 0 0-.2-.03l-.18.01a.32.32 0 0 0-.15.1.44.44 0 0 0-.1.19.53.53 0 0 0-.02.27c.02.08.06.15.12.21Zm.53-.06a.34.34 0 0 1-.2-.02.33.33 0 0 1-.16-.12.22.22 0 0 1-.02-.19.2.2 0 0 1 .07-.11.23.23 0 0 1 .12-.04l.14.01a7.18 7.18 0 0 1 .28.05l.07-.01-.06.2a.35.35 0 0 1-.09.14.3.3 0 0 1-.15.09Zm6.42-.8c.1.05.2.05.31.02a.4.4 0 0 0 .28-.26c.02-.05.04-.1.04-.14h.03l.05.25.26-.08-.5-2.14-.26.07.18.8h-.01a.93.93 0 0 0-.1-.1.36.36 0 0 0-.14-.07.37.37 0 0 0-.22.01.5.5 0 0 0-.26.19.7.7 0 0 0-.14.34c-.02.14 0 .3.03.47.04.17.1.31.18.42.08.11.16.19.27.23Zm.48-.4a.3.3 0 0 1-.17.14.28.28 0 0 1-.22-.02.44.44 0 0 1-.17-.17.96.96 0 0 1-.1-.28 1 1 0 0 1-.03-.3c0-.09.03-.16.07-.23.04-.06.1-.1.18-.13a.28.28 0 0 1 .21.01c.06.03.12.09.17.16.04.08.08.17.1.28a1 1 0 0 1 .03.31.5.5 0 0 1-.07.24Zm-1.3.72-.37-1.6.26-.08.37 1.6-.26.08Zm-.3-1.9a.15.15 0 0 1-.13-.01.19.19 0 0 1-.08-.12.2.2 0 0 1 .02-.14.17.17 0 0 1 .1-.1c.05 0 .1 0 .13.03.04.02.07.06.08.11a.2.2 0 0 1-.02.15.17.17 0 0 1-.1.09ZM30.8 43l.37 1.6.26-.07-.23-.98a.42.42 0 0 1 0-.2.36.36 0 0 1 .09-.16c.04-.05.1-.08.15-.1a.48.48 0 0 1 .14-.02l-.07-.3a.63.63 0 0 0-.1.02.37.37 0 0 0-.2.14.43.43 0 0 0-.09.24h-.01l-.06-.25-.25.08Zm-.88 1.96c.08.02.16.01.24-.01a.46.46 0 0 0 .34-.37l.01-.01.06.22.25-.08-.25-1.07a.67.67 0 0 0-.12-.27.4.4 0 0 0-.36-.16.72.72 0 0 0-.4.14.57.57 0 0 0-.16.2.64.64 0 0 0-.07.27l.26-.01c0-.06.03-.13.07-.19.04-.06.1-.1.19-.13.08-.02.15-.02.2.02.06.04.1.1.12.2.01.04 0 .07-.01.1a.28.28 0 0 1-.1.06l-.2.09-.17.1a.64.64 0 0 0-.15.12.4.4 0 0 0-.08.17.53.53 0 0 0 0 .24c.03.1.07.19.13.25.05.06.12.1.2.12Zm.42-.39a.36.36 0 0 1-.18.1.28.28 0 0 1-.2 0c-.05-.02-.09-.07-.1-.15a.24.24 0 0 1 0-.15.27.27 0 0 1 .08-.1 10.48 10.48 0 0 1 .39-.22.15.15 0 0 0 .04-.05l.05.21c.02.06.02.13 0 .2a.37.37 0 0 1-.08.16Zm-2.07.61-.06-2.2 1.16-.1.01.29-.88.07.02.68.8-.07v.28l-.8.07.03.96-.28.02Z"/><defs><linearGradient id="avpmyobqy" x1="19.19" y1="10" x2="19.19" y2="42" gradientUnits="userSpaceOnUse"><stop offset=".04" stop-color="#45933E"/><stop offset=".2" stop-color="#EBF777"/><stop offset=".38" stop-color="#3F8639"/><stop offset=".49" stop-color="#E7F374"/><stop offset=".54" stop-color="#548562"/><stop offset=".67" stop-color="#F6FB54"/><stop offset=".75" stop-color="#52943A"/><stop offset=".85" stop-color="#73B744"/><stop offset="1" stop-color="#F7FE57"/></linearGradient><linearGradient id="bvpmyobqy" x1="36.81" y1="10" x2="36.81" y2="42" gradientUnits="userSpaceOnUse"><stop offset=".04" stop-color="#45933E"/><stop offset=".2" stop-color="#EBF777"/><stop offset=".38" stop-color="#3F8639"/><stop offset=".49" stop-color="#E7F374"/><stop offset=".54" stop-color="#548562"/><stop offset=".67" stop-color="#F6FB54"/><stop offset=".75" stop-color="#52943A"/><stop offset=".85" stop-color="#73B744"/><stop offset="1" stop-color="#F7FE57"/></linearGradient></defs></svg>