<!-- by TradingView --><svg width="56" height="56" viewBox="0 0 56 56" xmlns="http://www.w3.org/2000/svg"><path fill="#4F8FBB" d="M0 0h56v56H0z"/><path d="M24.77 12.8a.1.1 0 0 0-.08.12l.09.52a.15.15 0 0 1-.13.17l-.06.01a.1.1 0 0 1-.12-.08l-.4-2.26a.1.1 0 0 1 .08-.11c.4-.1 1.31-.35 1.66.06.35.41.34.85-.04 1.3a.1.1 0 0 0 .01.15l.5.46a.11.11 0 0 1-.06.19l-.08.01a.18.18 0 0 1-.15-.05l-.56-.5a.22.22 0 0 0-.18-.07l-.48.09ZM31.14 12.21v.03c0 .01 0 .02.02.02l.02.01h.03l1.35-.88a.12.12 0 0 1 .13 0l.04.02a.13.13 0 0 1 .06.1.13.13 0 0 1-.06.11l-.95.68a.15.15 0 0 0-.06.1c-.01.03 0 .07.01.1l.64 1.11a.16.16 0 0 1 0 .14.16.16 0 0 1-.1.09l-.06.02h-.06a.08.08 0 0 1-.04-.04l-.62-1.08a.22.22 0 0 0-.18-.11.22.22 0 0 0-.2.1c-.16.24-.25.45-.27.6 0 .05-.02.1-.05.13a.2.2 0 0 1-.12.06h-.03a.11.11 0 0 1-.1-.03.12.12 0 0 1-.03-.1l.51-2.27a.13.13 0 0 1 .08-.1.13.13 0 0 1 .13.02l.04.03a.17.17 0 0 1 .07.17l-.2.97Z" fill="#fff"/><path d="M24.47 11.52a.08.08 0 0 1 .04-.08l.03-.01.53-.1a.67.67 0 0 1 .23.01.6.6 0 0 1 .2.08.5.5 0 0 1 .15.14c.04.05.07.12.08.18v.06a.47.47 0 0 1-.1.38.64.64 0 0 1-.39.21l-.53.09a.08.08 0 0 1-.1-.07l-.14-.9Z" fill="#4F8FBB"/><path d="m20.72 15.02-.04.05a.14.14 0 0 1-.09.04c-.03 0-.06 0-.09-.02l-.48-.3a.16.16 0 0 0-.17 0l-.8.53a.16.16 0 0 0-.07.15l.06.58a.16.16 0 0 1-.14.17.16.16 0 0 1-.18-.13l-.36-2.47a.13.13 0 0 1 .06-.13.13.13 0 0 1 .14 0l2.13 1.33a.13.13 0 0 1 .06.1.13.13 0 0 1-.03.1Z" fill="#fff"/><path d="m18.9 14.86-.12-.65a.1.1 0 0 1 .05-.1.1.1 0 0 1 .1 0l.56.35a.1.1 0 0 1 0 .17l-.45.3a.1.1 0 0 1-.1.01.1.1 0 0 1-.05-.08Z" fill="#4F8FBB"/><path d="m37.42 16.8-.06-.01a.14.14 0 0 1-.08-.16l.11-.57a.16.16 0 0 0-.06-.15l-.76-.59a.16.16 0 0 0-.16-.02l-.52.26a.16.16 0 0 1-.2-.07h-.01a.16.16 0 0 1 .06-.22l2.18-1.19a.13.13 0 0 1 .18.07c.01.03.02.05.01.08l-.52 2.48a.13.13 0 0 1-.17.1Z" fill="#fff"/><path d="M37.67 14.65v.02l.01.02v.02l-.17.77-.02.03-.03.03a.07.07 0 0 1-.07-.01 45.94 45.94 0 0 1-.5-.4.08.08 0 0 1 0-.07l.04-.03.68-.37.02-.01h.04Z" fill="#4F8FBB"/><path d="M15.4 20.57a.2.2 0 0 1-.28.06l-1.77-1.04a.22.22 0 0 1-.09-.3l.44-.75c.23-.37.54-.48.95-.32l.07.05.25.27a.14.14 0 0 0 .12.05c.43-.06.7.07.84.37.2.5-.28 1.25-.54 1.6ZM42.32 18.93l.38.64c.04.06.05.11.05.16a.12.12 0 0 1-.08.1.14.14 0 0 1-.14-.03 1.7 1.7 0 0 1-.33-.43.15.15 0 0 0-.16-.07.15.15 0 0 0-.05.02c-1.11.77-1.7 1.08-1.8.95-.07-.13.47-.54 1.64-1.21a.15.15 0 0 0 .04-.22c-.12-.17-.2-.34-.24-.49v-.07c0-.03.02-.05.03-.07a.12.12 0 0 1 .07-.03h.07l.12.12.4.63Z" fill="#fff"/><path d="M13.74 19.46a.15.15 0 0 1-.08-.15l.02-.06.26-.48a.68.68 0 0 1 .26-.28c.1-.05.2-.06.28-.02l.03.02c.04.02.07.05.1.1l.04.15a.6.6 0 0 1-.02.18.77.77 0 0 1-.07.19l-.26.48a.15.15 0 0 1-.08.08.14.14 0 0 1-.12-.02l-.36-.2ZM14.6 19.93a.1.1 0 0 1-.04-.06.11.11 0 0 1 0-.09l.3-.5a.9.9 0 0 1 .3-.32c.11-.07.22-.08.3-.03l.07.04c.08.05.13.15.12.28 0 .14-.04.29-.12.43l-.29.5a.1.1 0 0 1-.15.04l-.48-.29Z" fill="#4F8FBB"/><path d="M36 28a8 8 0 1 1-16 0 8 8 0 0 1 16 0Z" fill="#fff"/><path d="m33.06 33.45.33-.55c.76-1.19.54-2.87-.2-3.9a3.05 3.05 0 0 0-3.24-1.3c-.87.16-1.6.8-2.3 1.32a.1.1 0 0 1-.13 0 9.13 9.13 0 0 1-1.63-2c-1.11-1.84-.26-3.51 1.34-4.59a.03.03 0 0 0-.03-.06c-.41.18-.79.4-1.13.65-1.31.97-1.53 2.62-.82 4.01.3.59.7 1.15 1.17 1.68 1.6 1.74 2.92 3.2 4 4.34a.23.23 0 0 0 .31.02l.09-.08a.23.23 0 0 0 .06-.26.23.23 0 0 0-.05-.08l-3.1-3.35a.11.11 0 0 1 0-.15 53.08 53.08 0 0 1 1.26-.67c1.35-.65 2.82-.38 3.71.83 1.85 2.5-1 6.09-3.85 4.78-.4-.19-.98-.7-1.71-1.54a2247.44 2247.44 0 0 1-6.01-6.82c-.12-.12-.1-.36.07-.71a7.46 7.46 0 0 1 14.24 2.3 7.4 7.4 0 0 1-2.38 6.17v-.04Z" fill="#4F8FBB"/><path d="M30.75 34.94a7.45 7.45 0 0 1-9.98-8.6.1.1 0 0 1 .1-.04 525.07 525.07 0 0 0 6.39 7.23c1.01 1.13 2.17 1.59 3.48 1.38h.01v.02Z" fill="#4F8FBB"/><path d="M13.36 27.9c0 .32-.13.62-.35.84A1.17 1.17 0 0 1 11 27.9a1.17 1.17 0 1 1 2.36 0ZM45 27.9c0 .32-.12.62-.35.85a1.17 1.17 0 0 1-1.92-.39 1.2 1.2 0 0 1 .64-1.56 1.17 1.17 0 0 1 1.28.26c.23.22.35.53.35.84Z" fill="#fff"/><path d="M12.17 28.71c.45 0 .81-.36.81-.81a.81.81 0 0 0-.8-.82c-.45 0-.81.37-.81.82 0 .45.36.81.8.81ZM43.83 28.71c.44 0 .8-.36.8-.81a.81.81 0 0 0-.8-.82c-.45 0-.81.36-.81.82 0 .45.36.81.8.81Z" fill="#FDDC18"/><path d="m14.64 36.08.34.54a.5.5 0 0 1 .1.2.15.15 0 0 1-.09.14.14.14 0 0 1-.16-.02c-.2-.19-.35-.43-.47-.72a.12.12 0 0 0-.07-.07.11.11 0 0 0-.1 0l-.7.46a.13.13 0 0 1-.1.02.13.13 0 0 1-.08-.06l-.03-.06a.12.12 0 0 1-.02-.09c0-.03.02-.05.05-.07l1.87-1.22a.15.15 0 0 1 .21.04c.37.56.59.91.65 1.06a.3.3 0 0 1 0 .23.11.11 0 0 1-.08.07.11.11 0 0 1-.1-.05l-.55-.84a.16.16 0 0 0-.1-.08.16.16 0 0 0-.12.03l-.4.26a.17.17 0 0 0-.05.23ZM41.19 36.6a9.2 9.2 0 0 0 .74-.04v-.02l-.01-.02-1.29-.99a.12.12 0 0 1-.05-.08.13.13 0 0 1 .03-.1l.03-.03a.09.09 0 0 1 .12-.03c.65.42 1.24.82 1.76 1.21a.6.6 0 0 1 .16.15.17.17 0 0 1 0 .16.17.17 0 0 1-.14.09c-.32.02-.78.03-1.38.03a9.21 9.21 0 0 0-.74.04v.04l1.3 1a.12.12 0 0 1 .04.08.13.13 0 0 1-.02.1l-.03.03a.09.09 0 0 1-.12.02c-.65-.41-1.24-.81-1.77-1.2a.6.6 0 0 1-.15-.16.17.17 0 0 1 .06-.21 16.58 16.58 0 0 1 1.46-.06ZM17.52 40.5l-.32.41a.15.15 0 0 1-.2.03l-.06-.04a.1.1 0 0 1-.04-.07.1.1 0 0 1 .02-.08l1.38-1.82a.1.1 0 0 1 .13-.03c.34.23 1.14.74 1.08 1.28-.06.54-.38.83-.97.86a.1.1 0 0 0-.1.1v.68a.11.11 0 0 1-.06.1.1.1 0 0 1-.12-.01l-.06-.05a.18.18 0 0 1-.07-.14v-.76a.23.23 0 0 0-.09-.18l-.38-.3a.1.1 0 0 0-.14.02Z" fill="#fff"/><path d="M18.37 39.42a.12.12 0 0 1 .17-.02l.38.3c.12.1.2.23.24.37.02.15 0 .29-.09.4l-.02.02c-.04.06-.1.1-.16.13a.5.5 0 0 1-.2.05.6.6 0 0 1-.21-.03.66.66 0 0 1-.2-.11l-.39-.3a.13.13 0 0 1-.02-.18l.5-.63Z" fill="#4F8FBB"/><path d="m38.6 41.36-.03.05a.14.14 0 0 1-.08.05c-.04 0-.07 0-.1-.02l-.49-.3a.16.16 0 0 0-.16.01l-.8.54a.16.16 0 0 0-.06.16l.07.58a.16.16 0 0 1-.13.17c-.05.01-.09 0-.12-.02a.16.16 0 0 1-.07-.1L36.21 40a.14.14 0 0 1 .06-.13.13.13 0 0 1 .14 0l2.17 1.28a.13.13 0 0 1 .03.2Z" fill="#fff"/><path d="m36.77 41.3-.12-.8a.06.06 0 0 1 .03-.06.06.06 0 0 1 .06 0l.69.43a.06.06 0 0 1 0 .1l-.57.38a.06.06 0 0 1-.1-.05Z" fill="#4F8FBB"/><path d="M23.2 41.64h-.01a.15.15 0 0 0-.2.1l-.74 2.12c-.03.08.02.17.1.2.09.03.18-.01.2-.1l.74-2.12a.16.16 0 0 0-.1-.2ZM32.11 41.9v.01a.17.17 0 0 0-.12.2l.6 2.1c.02.09.11.14.2.11a.17.17 0 0 0 .12-.2l-.6-2.1a.16.16 0 0 0-.2-.11ZM28.17 43c-.23-.14-.82-.27-1.03-.01a.21.21 0 0 0-.04.1l.01.11a.3.3 0 0 0 .06.1c.03.04.07.06.1.08l.78.35a.58.58 0 0 1 .35.55c-.03.98-1.34.85-1.77.25a.12.12 0 0 1 .01-.16.12.12 0 0 1 .15-.01c.34.23.67.33.98.29a.37.37 0 0 0 .32-.4c0-.08-.07-.16-.2-.23a5.6 5.6 0 0 0-.65-.28c-.43-.16-.67-.64-.29-1 .3-.3.95-.34 1.3-.07a.21.21 0 0 1 .09.23l-.01.02a.12.12 0 0 1-.06.08.11.11 0 0 1-.1 0Z" fill="#fff"/></svg>