<!-- by TradingView --><svg width="56" height="56" viewBox="0 0 56 56" xmlns="http://www.w3.org/2000/svg"><path fill="#F0F3FA" d="M0 0h56v56H0z"/><path d="m13.97 23.95 2.86-2.25a5.51 5.51 0 0 1-1.27-3.58c0-1.4 1.27-2.14 2.51-2.14h3.11c.16 0 .4.12.1.61-.4.61-4.72 7.86-4.72 12.48 0 4.5 5.74 5.22 11.77 1.8l-.08.37c-.16.6-.14 1.8 1.26 1.78 1.39-.03 4.96-1 6.57-1.5v-.89l-2.97.2c-.52.12-1.46-.24-1.04-2.66.41-2.42 2.55-11.12 3.56-15.17-.94.03-3.1.14-4.21.34-1.38.25-1.61 1-1.55 1.23.06.23.37.32 1.93.32l-2.97 13.7a11.6 11.6 0 0 1-6.06 1.8c-4.07 0-2.77-4.18-1.59-7.34.95-2.53 3.41-7.4 4.52-9.5.05-.19 0-.55-.6-.55s-.96.46-1.06.69c-.24-.23-1.2-.69-3.15-.69-2.43 0-10.7 3.33-6.92 10.95Z" fill="#EC1D25"/><path d="m42 21-3.01 3.32c.02-1.4-.64-4.22-3.49-4.22-6.5 0-9.65 6.75-9.65 10.07 0 3.33 1.37 6.09 4.55 6.09 1.82 0 3.42-1.17 4.46-2.25.36-1.43.7-2.86.96-4h-5.14c-.48-1.5 1.92-1.96 3.17-2h7.26c-.24 1.55-1.41 1.98-1.96 2h-.63a33.75 33.75 0 0 1-1.66 7.17 12.11 12.11 0 0 1-13.05 7.7l2.08-2.64c3.33.88 6.3 0 7.37-2.75.3-.78.68-2.01 1.05-3.39a11.3 11.3 0 0 1-6.37 1.92c-3.97 0-5.14-3.77-5.23-5.65C22.7 23.12 31.29 18 36 18c4.7 0 5.54 1.94 5.98 2.98L42 21Z" fill="#284163"/></svg>