<!-- by TradingView --><svg width="56" height="56" viewBox="0 0 56 56" fill="none" xmlns="http://www.w3.org/2000/svg">
<rect width="56" height="56" fill="#F0F3FA"/>
<path fill-rule="evenodd" clip-rule="evenodd" d="M26.15 11.6649C26.0562 11.7598 26.0035 11.8884 26.0035 12.0225V20.4276L20.6244 15.181C20.5424 15.1025 20.4454 15.0673 20.3334 15.0754L18.5346 15.2095C18.3598 15.223 18.2655 15.3165 18.2519 15.4899L18.1085 17.3103C18.1032 17.3806 18.1133 17.4514 18.138 17.518C18.1628 17.5845 18.2016 17.6454 18.2519 17.6964L24.9309 24.32C25.0648 24.4527 25.0661 24.5854 24.935 24.7182L24.0376 25.6528C24.0168 25.6744 23.9918 25.6917 23.964 25.7036C23.9362 25.7156 23.9062 25.7219 23.8758 25.7223C23.8453 25.7226 23.815 25.7171 23.7865 25.7058C23.7581 25.6946 23.732 25.678 23.7098 25.6569L16.6784 18.6716C16.5746 18.566 16.449 18.5226 16.3014 18.5416L14.478 18.7448C14.3442 18.761 14.2718 18.8355 14.2609 18.9683L14.097 20.744C14.0906 20.8166 14.1001 20.8895 14.1249 20.9576C14.1497 21.0257 14.1891 21.0873 14.2404 21.1382L19.137 25.9819C19.1429 25.9876 19.1484 25.9937 19.1535 26L12.0225 26C11.8884 26 11.7598 26.0527 11.6649 26.1464L10.1481 27.6464C9.95064 27.8417 9.95064 28.1583 10.1481 28.3536L11.6649 29.8536C11.7598 29.9473 11.8884 30 12.0225 30H19.6539L14.4821 35.0843C14.3783 35.1872 14.3333 35.3119 14.3469 35.4581L14.5272 37.3721C14.5409 37.5129 14.6187 37.5874 14.7608 37.5956L16.6088 37.7012C16.718 37.7066 16.8109 37.6714 16.8874 37.5956L23.6812 30.8501C23.7048 30.8265 23.7329 30.8078 23.7638 30.795C23.7947 30.7822 23.8279 30.7756 23.8614 30.7756C23.895 30.7756 23.9282 30.7822 23.9591 30.795C23.99 30.8078 24.0181 30.8265 24.0417 30.8501L25.0374 31.8416C25.1413 31.9445 25.1413 32.0461 25.0374 32.1463L18.088 39.0422C18.0303 39.0981 17.9856 39.166 17.9573 39.2411C17.929 39.3163 17.9176 39.3968 17.9241 39.477L18.0552 41.2975C18.06 41.3627 18.0882 41.4241 18.1349 41.4704C18.1816 41.5166 18.2434 41.5447 18.3093 41.5494L20.1614 41.6876C20.2144 41.6913 20.2677 41.6839 20.3179 41.6657C20.368 41.6475 20.4138 41.6189 20.4523 41.5819L26.0035 36.0525V43.9775C26.0035 44.1116 26.0562 44.2402 26.15 44.3351L27.65 45.8519C27.8452 46.0494 28.1618 46.0494 28.3571 45.8519L29.8571 44.3351C29.9509 44.2402 30.0035 44.1116 30.0035 43.9775V36.7398L34.5315 41.2649C34.638 41.3706 34.7664 41.418 34.9167 41.4072L36.8097 41.2609C36.9436 41.25 37.0146 41.1783 37.0228 41.0455L37.1539 39.2088C37.1649 39.0652 37.1198 38.9433 37.0187 38.8431L30.3069 32.1951C30.2508 32.1398 30.219 32.0647 30.2182 31.9858C30.2174 31.9068 30.2478 31.8303 30.3028 31.7725L31.2657 30.7851C31.283 30.7666 31.3039 30.7519 31.3272 30.7418C31.3505 30.7317 31.3756 30.7265 31.401 30.7265C31.4263 30.7265 31.4515 30.7317 31.4747 30.7418C31.498 30.7519 31.5189 30.7666 31.5362 30.7851C33.8417 33.1582 36.1842 35.4974 38.5635 37.8028C38.6591 37.8949 38.7725 37.9369 38.9036 37.9288L40.8294 37.7947C40.8842 37.7909 40.9356 37.7682 40.9741 37.7308C41.0126 37.6934 41.0355 37.6439 41.0384 37.5915L41.1613 35.6573C41.1723 35.511 41.1258 35.3864 41.022 35.2834L35.6788 30.0252C35.6708 30.0174 35.6635 30.009 35.657 30H43.9775C44.1116 30 44.2402 29.9473 44.3351 29.8536L45.8519 28.3536C46.0494 28.1583 46.0494 27.8417 45.8519 27.6464L44.3351 26.1464C44.2402 26.0527 44.1116 26 43.9775 26L36.1157 26L40.7885 21.4226C40.8446 21.367 40.8874 21.2994 40.9137 21.2248C40.9399 21.1502 40.9489 21.0706 40.9401 20.9919L40.7311 19.1552C40.712 19.0008 40.6246 18.9195 40.4689 18.9114L38.6413 18.7935C38.5157 18.7854 38.4078 18.826 38.3176 18.9154L31.5813 25.6812C31.4556 25.8086 31.3313 25.8072 31.2084 25.6772L30.2168 24.6532C30.1792 24.6152 30.1582 24.5641 30.1582 24.5109C30.1582 24.4578 30.1792 24.4067 30.2168 24.3687C32.5551 22.0525 34.8934 19.7349 37.2318 17.416C37.3411 17.3076 37.3889 17.1762 37.3752 17.0218L37.24 15.2014C37.2291 15.0686 37.1567 14.9955 37.0228 14.9819L35.183 14.795C35.0355 14.7787 34.9098 14.8234 34.806 14.9291L30.0035 19.7345V12.0225C30.0035 12.0141 30.0033 12.0057 30.0029 11.9974C29.9968 11.8724 29.945 11.7538 29.8571 11.6649L28.3571 10.1481C28.3327 10.1234 28.3064 10.1018 28.2787 10.0833C28.1932 10.0263 28.0943 9.99852 27.9958 10.0001C27.9344 10.001 27.8731 10.0133 27.8154 10.037C27.7552 10.0617 27.6988 10.0987 27.65 10.1481L26.15 11.6649ZM28.4861 28.0756C28.4867 28.1047 28.4757 28.1329 28.4554 28.1539L27.5043 29.141C27.4942 29.1514 27.4822 29.1598 27.4689 29.1656C27.4556 29.1714 27.4413 29.1746 27.4268 29.1749C27.4122 29.1752 27.3978 29.1727 27.3842 29.1675C27.3707 29.1623 27.3583 29.1545 27.3478 29.1445L26.3762 28.2237C26.355 28.2036 26.3427 28.1759 26.342 28.1469C26.3414 28.1178 26.3524 28.0896 26.3726 28.0686L27.3238 27.0815C27.3338 27.071 27.3459 27.0627 27.3591 27.0569C27.3724 27.0511 27.3868 27.0479 27.4013 27.0476C27.4158 27.0472 27.4303 27.0498 27.4438 27.055C27.4574 27.0602 27.4697 27.068 27.4802 27.078L28.4519 27.9988C28.4731 28.0189 28.4854 28.0465 28.4861 28.0756Z" fill="#D2151E"/>
</svg>
