<!-- by TradingView --><svg width="56" height="56" viewBox="0 0 56 56" xmlns="http://www.w3.org/2000/svg"><path fill="#F0F3FA" d="M0 0h56v56H0z"/><path d="M20.8 12.7s10.18-4.92 18.23 4.25c0 0 6.94 7.05 1.74 17.75 0 0-2.6 5.67-9.3 7.49 0 0-6.8 2.35-14.06-2.52 0 0-8.04-4.87-5.76-16.3 0 0-2.92 8.91 3.62 15.98 0 0 5.8 7.37 16.57 5.27 0 0 9.99-1.65 12.75-12.87 0 0 2.44-9.29-4.62-15.88 0 .02-7.85-8.37-19.17-3.17Z" fill="#B7E858"/><path fill-rule="evenodd" d="M23.58 19.98s1.46 1.16 1.54 2.18c0 0-.84-.78-1.06-1.08 0 0-.5-.62-.5-1.02l.02-.08Zm-1.54-3.31s1.26.68 1.3 1.78c0 0-.7-.58-1-1 0 0-.22-.28-.28-.68l-.02-.1Zm1.08-2.78s2.2 1.7 2.94 4c0 0 .92 2.07-.06 5.25 0 0 1.72 2.04.92 3.7 0 0-.12-.77-.42-1.32 0 0-.78-1.42-1.64-2.14 0 0-.96-.98-1.4-1.82 0 0-.36-1.22-.22-1.88 0 0-.82-.6-1.28-1.37 0 0-.38-.98-.16-1.84l-.34-.28s-.52.7-1.04 1.1c0 0-.62.4-1.4.64 0 0-1.67.44-2.77.94l-.22.06.62-.3s2-.92 2.55-1.22c0 0 1.68-.98 2.02-1.36 0 0-.54-.34-.92-.94 0 0-.3-.68-.62-.82l.18-1.21.96.87s.06.1.06.3v.26l.16.12.06-.4s.3.18.56.52c0 0 .1.14.1.44 0 0 1.1.8 1.58 1.62 0 0 .48 1 .18 1.86 0 0 1.14.93 1.52 1.67 0 0 .44.6.24 2.1l.6.64s.34-1.86.2-2.76c0 0-.28-1.61-1-2.75 0 0-1.12-1.62-2.12-2.5l.16-1.18Zm.34 13.6s-.22-.52-.32-.68c0 0 .12-.3.82 0l.56.4-1.06.28Zm4.36 1.04-.52.96s-.52.04-.32.24c0 0 .38.24.64.2 0 0 .58-.06.5.26 0 0-.32.9-1.38 1.48 0 0-.32.3-1.02.06 0 0-1.24-.58-1.38-.78 0 0 .7.36 1.48.36 0 0 .68-.02 1.34-.34 0 0-.7-.12-.98-.4 0 0-.22-.3.02-.62 0 0 .32-.62 1.44-1.34l.18-.08Zm7.33 6.77s.58-.6.72-.8l1.04.84s-.5.7-.78.86l-1-.7-.68.82-1.2-.9.84-.92 1.06.8Zm4-1.12 1 .86-.7.94-1.14-.88.84-.92Zm-7.97-9.32s1.12-.28 1.8 0c0 0-1.62.74-2.08 1.17 0 0 .72-.34 1.52-.4 0 0 .12 0 .4-.2 0 0 .84-.67 1.06-1.41 0 0 .13-.22-.16-.28 0 0-1.24-.3-1.68-.22 0 0-.16-.04-.24.16l-.62 1.18Zm.64 4.69 1.12.68-.64 1.02-1.18-.76.7-.94Zm2.63 1.12s1.26-.22 1.68.04c0 0-1.4.58-1.66.84 0 0 1.04-.28 1.36-.3 0 0 .22-.12.44-.28l.78-1.04s.14-.26-.18-.26c0 0-.68-.22-1.56-.1l-.86 1.1Zm5.76-.22s.18.68-.06 1.61c0 0-.26 1.14-1.26 1.34 0 0-.88.16-1.3-.58 0 0-.26-.32-.2-.8 0 0-1.22 1.24-2.2 1.3 0 0-.76.06-1.26-.44 0 0-.35-.34-.47-.68 0 0-.6.88-.94 1.08 0 0-.54.46-1.4.12 0 0-.68-.22-1-1.12 0 0-.26-.55-.28-1.51l-.22.7s-.2.53-.52.83c0 0-1.22.88-2.32 1.28 0 0-1.24.52-2.28.36 0 0-1.18-.14-1.68-1 0 0-.4-.5-.34-1.03 0 0-1.78 1.27-2.9 1.73 0 0-.85 2.52-1.33 3.12 0 0-.08.12-.2.04 0 0-.02 0 .06-.18.08-.16.85-1.78.99-2.84 0 0-.93.56-2.35.18 0 0-1.62-.36-1.82-2.15 0 0-.22-1.68.8-3.26 0 0-1.44-.9-2.46-2.38 0 0-.76-1-.92-2.31 0 0-.36-1.66 1.02-2.74 0 0 1.02-.86 2.64-.3 0 0 1.22.38 2.82 1.9 0 0 1.43 1.48 2.2 2.7 0 0 1.03 1.47.97 1.93 0 0-.82-1.3-1.32-1.93 0 0-1.28-1.52-2.69-2.6 0 0-1.42-1.04-2.8-1.22 0 0-1.8-.24-2.22.96 0 0-.12.38.14 1.18 0 0 .54 1.86 2.38 3.17 0 0 1.32.98 1.8 1.24l-.24 1.24s-.98-.58-1.2-.74c0 0-.34.54-.5 1.46 0 0-.32 1.24.8 2.21 0 0 .72.66 1.86.52 0 0 .66-.04 1.1-.22 0 0 .09-.64-.44-1.71 0 0-.56-.98-1.3-1.4l.24-1.2s1.1.68 1.5 1.5c0 0 .69 1.16.55 2.57 0 0 1.16-.4 2.76-1.5 0 0 .02-.07-.44-.21-.44-.14-2.12-.52-2.48-.6 0 0 .12-.48.36-.94 0 0 .04-.16.36-.32 0 0 1.04-.7 2.68-1.24 0 0-.4-.48-.38-1.06 0 0 .02-.6.64-1.07 0 0 .28-.26.82-.06 0 0 .88.3 1.66 1.33 0 0 .2.2.08.56l-.24.62s-.1.18-.32.22c0 0-1.24.26-1.46.36 0 0-.04.4-.1.5 0 0-.08.08-.12-.08l-.16-.38s-1.76.6-1.92.74c0 0 .84.16 1.12.34 0 0 .4.32.4.78 0 0 0 .16-.06.5 0 0-.12.3-.06.52 0 0 .24.8 1.12 1.1 0 0 1 .47 2.52-.03 0 0 1.72-.52 2.74-1.35 0 0 .08-.06.12-.26l.18-1.72s-.6-.06-1.16-.86c0 0-.58-.84-.6-2.16 0 0-.2 1.02-.36 1.4 0 0-.34.96-.98 1.42 0 0-.52.3-1.02.52 0 0-1.62.8-1.76.9 0 0-.04-.04.22-.26 0 0 1.76-1.4 2.06-1.74 0 0 1.02-1.04 1.18-1.38 0 0 .3-.44.36-1.47 0 0 0-3.78-.08-4.26 0 0-.22-4.53-.32-5.11 0 0-.06 0 0-.12l.42-.92s.06-.14.12.04a25.11 25.11 0 0 0 .46 3.2 6657.77 6657.77 0 0 0 .26 6.3s.08 1.2.14 1.58c0 0 .22 1.34 1.02 1.6 0 0 0-2.9-.02-3.7l-.12-4.66s.4-.98.54-1.2c0 0 .12.62.18 1.08 0 0 .22 2 .24 2.97l.02.84s1.46-.4 2.48-1.26c0 0-.48-.52-.6-.7 0 0-.22-.22-.32-.48 0 0-.1-.2-.2-.26l-.28-.22.18-1.15 1.1.85v.34s-.02.1.16.2l.06-.4s.26.16.4.44c0 0 .16.26.16.64l3.6 3s1.5 1.1 1.89 2.37c0 0 .44.86 0 2.46 0 0-.44 1.2-.64 1.42 0 0-.18.18-.24.12 0 0 .04-.24.1-.4 0 0 .36-.74.4-1.68 0 0-.04-1.06-.56-1.82 0 0-.52-.76-1.24-1.33 0 0-3.39-2.72-3.73-3.16 0 0-.6.72-1.52.94 0 0-.9.24-1.2.24 0 0 .1 4.27 0 4.67 0 0 .68-.04 1.1-.5 0 0 .48-.5.64-.74 0 0 .32-.36.4-.24 0 0 .04.08.02.22 0 0-.04.24.04.52 0 0 .12.54.74.72 0 0 .59.16 1.19-.42 0 0 .4-.6.54-.88 0 0 .18-.32.38-.4 0 0 .06.04-.02.28 0 0-.18.68.26.98 0 0 .62.54 1.26.12 0 0 .04-.18-.12-.38l.48-1s.16.52.16.94c0 0 0 1.04-.58 1.5 0 0-.32.42-.94.3 0 0-1.08-.28-1-1.2 0 0-.26.54-.54.88 0 0-.46.78-1.43.48 0 0-.9-.4-.84-1.38 0 0-.48.58-.74.86 0 0-.62.54-.98.54 0 0 .02 1.26.12 1.66 0 0 .1 1.4 1.42 1.45 0 0 .84 0 1.26-.63.42-.64.56-.8.7-.9 0 0 .07.18.09.3 0 0 .14.9 1.16 1 0 0 .78.23 2.08-.84 0 0 .56-.64.74-.54 0 0 .06.04 0 .18 0 0-.2.52.2 1.02 0 0 .4.47 1.14.27 0 0 .38-.12.5-.27 0 0-.06-.34-.12-.46l.62-.96Z" fill="#0054A6"/></svg>