<!-- by TradingView --><svg width="56" height="56" viewBox="0 0 56 56" xmlns="http://www.w3.org/2000/svg"><path fill="#F0F3FA" d="M0 0h56v56H0z"/><path d="M17.98 36.26c-3.03-1.3.81-10.71 3.11-15.26-4.3 5.47-11.92 17.2-8 20.35 3.9 3.15 19.57-5.93 26.91-10.87-6.08 2.47-19 7.08-22.02 5.78Z" fill="#D9D9D9"/><path d="M47.97 22.89C47.1 18.29 31.63 16.39 24 16c6.54 1.76 18.08 2.3 20.26 8.03.8 2.11-2.1 4.9-3.48 5.97 2.76-.46 7.67-4.59 7.19-7.11Z" fill="#A30133"/><path d="M16.04 20H14.3c-.21 1.35-1.3 5.6-1.3 7.18 0 1.57 0 3.59 3.7 3.81 3.7.23 5-3.81 5.21-5.38.18-1.26.8-4.26 1.09-5.61h-1.3c0 .9-.87 6.06-1.1 6.73-.2.67-1.08 3.36-3.9 3.36-2.27 0-2.4-2.54-2.18-3.8.15-.76.48-2.43.65-3.15.18-.72.66-2.4.87-3.14ZM23.51 31H22c.43-1.07.91-3.85 1.3-5.27.43-1.6.71-4.36.86-5.73h.86l5.6 8.48c.53-2.57 1.09-6.88 1.3-8.48H33c-.52.92-1.65 7.87-2.16 11h-.64l-5.4-8.25c-.21.84-.69 2.89-.86 4.35l-.43 3.9ZM40 20.9l-.67 1.34c-.37-.6-1.37-1.8-2.44-1.8-1.33 0-2 1.06-2 2.25 0 .68.22.9 1.78 1.8 1.55.9 2.44 1.8 2.44 3.37S36.9 31 35.33 31A7.36 7.36 0 0 1 32 29.88l.67-1.35a3.13 3.13 0 0 0 2.66 1.8 2.24 2.24 0 0 0 2.23-2.25c0-1.12-.9-1.8-1.78-2.24-.9-.45-2.45-1.8-2.22-3.15.22-1.34 1.1-2.69 3.33-2.69 1.78 0 2.81.6 3.11.9Z"/></svg>