<!-- by TradingView --><svg width="56" height="56" viewBox="0 0 56 56" xmlns="http://www.w3.org/2000/svg"><path fill="#F0F3FA" d="M0 0h56v56H0z"/><path d="M22 27.55V22.5l2-.15V26c1.68 0 2.56-.01 4.16-1.2A15.85 15.85 0 0 1 34 22.5v1.87c0 .52-1.76.97-2.4.97-.64 0-1.68.5-2.96 1.24A9.83 9.83 0 0 1 24.16 28c-1.15 0-1.92-.3-2.16-.45Z" fill="#F61A29"/><path d="M22.56 23A6.51 6.51 0 0 1 16 16.54 6.58 6.58 0 0 1 22.56 10c2.26 0 4.26 1.2 5.44 2.93l-1.2 1.18-.3-.32A4.67 4.67 0 0 0 22.55 12 4.4 4.4 0 0 0 18 16.54c0 2.62 1.9 4.46 4.56 4.46a4.9 4.9 0 0 0 1.98-.53c.47-.22 1.05-.09 1.32.35.1.16.14.37.14.6 0 .33-.13.67-.37.81-.92.54-2.06.77-3.07.77Z" fill="#F61A29"/><path d="M40 16.54c0 3.57-3.08 6.46-6.8 6.46a7 7 0 0 1-2.75-.56c-.3-.13-.46-.48-.47-.82 0-.22.05-.43.15-.6.26-.4.8-.52 1.27-.34.56.2 1.16.32 1.8.32 2.73 0 4.8-1.84 4.8-4.46S36 12 33.26 12a5.3 5.3 0 0 0-4.07 1.67l-2.45 2.6c-.35.38-.95.43-1.36.11a.93.93 0 0 1-.11-1.4l2.42-2.5A7.46 7.46 0 0 1 33.26 10 6.67 6.67 0 0 1 40 16.54Z" fill="#F61A29"/><path fill-rule="evenodd" d="M22.11 28c-.24.32-.73 1.1-.73 1.65 0 .42.22.81.32.96-.56.46-1.7 1.76-1.7 3.22 0 1.82 1.14 3.04 4.14 5.04 1.05 1.74 2.19 3.13 4.38 3.13 2.08 0 2.98-1.18 3.42-1.74l.06-.09c-.2-.2-.4-.37-.49-.43l-.03.02c-.52.35-1.5 1.02-2.72 1.02-1.54 0-3.16-1.04-3.4-2.6l-.11-.05c-.85-.33-3.79-1.48-3.79-4.13 0-1.18 1.2-2.48 1.79-3-.22-.09-.65-.37-.65-.65 0-.35.5-1.09 1.4-1.35 0 .28-.57.88-.75 1.09.21.14.77.43 1.3.43a3 3 0 0 0 1.05-.17c-.33.43-.98 1.46-.98 2.08l.01.33c.02.75.04 1.67-.74 1.67-.5 0-.82-.28-1.08-.53-.2-.18-.36-.33-.57-.33-.16 0-.24.52-.24.86 0 .35.57 2.27 3 2.27l.16.24c.32.54.64 1.06 1.84 1.06 1.33 0 1.7-.73 1.97-1.25l.03-.05c.76.02 2.5-.32 3.09-2.61 0-.26-.08-.44-.57-.44-.22 0-.54.17-.87.35-.4.21-.8.43-1.16.43-.48 0-.48-.26-.48-.52v-.05c0-.34.02-1.45-.98-1.95 0 .7-.08 2.09-1.3 2.09-.8 0-.97-.78-.97-1.22 0-.56.18-1.04.37-1.52.18-.48.36-.96.36-1.52s-.81-1.28-1.22-1.57c-.3.06-1.02.18-1.54.18s-1.3-.23-1.62-.35ZM27 37c.55 0 1-.22 1-.5s-.45-.5-1-.5-1 .22-1 .5.45.5 1 .5Z"/><path d="M31.73 29c-.6 0-1.4.75-1.73 1.13.6.17.75.7 1.05.87.3-.49 1.43-.72 1.95-.78-.17-.4-.67-1.22-1.27-1.22Z"/><path d="M34.36 25c-.75.87-1.9.97-2.53.92.26.41.17.75.17 1.33-2.21.08-3 1.17-3 1.5 0 .33 0 .5.34.5s.6-.92 1.45-.92 1.61.34 1.78.67c.14-.27.46-.5.6-.58.26.14.83.81.83 1.75 0 1.16-.4 1.66-.4 2.08 0 .42.17.75.6.75.42 0 .16 0 .93-.58.61-.47 1.39-.7 1.7-.75.06-.3.17-1.14.17-2 0-2.57-1.26-3.57-2.61-4.65l-.03-.02Zm.57 11.01c0 2.47-2.62 2.64-3.93 2.41.5.68 1.5 1.58 2.71 1.58 1.22 0 2.29-1.28 2.29-3.09 0-2.7-.86-3.08-1.36-2.85-.5.22.29 1.27.29 1.95Z"/><path fill-rule="evenodd" d="M26.5 42c.29.17 1.2.5 2.5.5s2.24-.33 2.5-.5c1.15.17 3.42.66 5.07 1.41.44.2.56.71.29 1.1l-1.43 1.99c-.4.55-1.23.67-1.78.24-.81-.65-1.6-1.47-2.26-2.18l-.37-.38A2 2 0 0 1 29 45.55c-1.11 0-1.84-.72-2-1.37-.48.57-1.59 1.86-2.94 2.62a.8.8 0 0 1-1-.18 5.48 5.48 0 0 1-1.04-2.37.8.8 0 0 1 .43-.88c.88-.44 2.5-1.02 4.05-1.37Zm5.5 2c.43.32 1.63 1 3 1.22-.09.35-.34.78-.77.78S32.5 44.96 32 44Zm-2 0a1 1 0 1 1-2 0 1 1 0 0 1 2 0Zm-5.2 1.02c-.23.16-.6.34-.93.34-.25 0-.48-.06-.67-.14-.12-.05-.25.07-.18.2.15.29.43.58.85.58a1.1 1.1 0 0 0 1.13-.86c.02-.12-.1-.18-.2-.12Z" fill="#007DBC"/></svg>