<!-- by TradingView --><svg width="56" height="56" viewBox="0 0 56 56" xmlns="http://www.w3.org/2000/svg"><path fill="#F0F3FA" d="M0 0h56v56H0z"/><path d="M4 23h1.4c.44 0 .9 0 1.19.39.22.3.26.64.26.88 0 .8-.47 1-.68 1.1.17.06.34.12.51.3.15.18.32.48.32.94 0 .44-.17.93-.53 1.15-.36.22-.66.24-1.05.24H4v-5Zm.68.64v1.44h.56c.32 0 .9-.03.9-.74 0-.7-.6-.7-.83-.7h-.63Zm0 2.07v1.63h.69c.6 0 .91-.31.91-.8 0-.83-.73-.83-.97-.83h-.63ZM9.17 23h.75L11 28h-.68l-.25-1.35H8.89L8.64 28H8l1.17-5Zm-.15 3h.91l-.45-2.2-.46 2.2ZM12 23h.88l1.5 3.6V23H15v5h-.7l-1.68-4v4H12v-5Zm4 0h.88l1.5 3.6V23H19v5h-.7l-1.68-4v4H16v-5Zm4 0h.76v3.05c0 .65 0 1.28.78 1.28.76 0 .76-.59.76-1.3V23h.7v3c0 .71-.01 1.33-.48 1.7-.19.14-.48.3-1.02.3-1.48 0-1.5-1.08-1.5-1.95V23Zm5 0h.81l.65 3.74.75-3.74h.7l.74 3.74.68-3.74H30l-1 5h-.73l-.76-3.66-.74 3.66h-.73L25 23Zm7.5 0c1.25 0 1.5 1.37 1.5 2.5 0 1-.2 2.5-1.5 2.5-1.24 0-1.5-1.37-1.5-2.5 0-1.1.25-2.5 1.5-2.5Zm0 .66c-.35 0-.5.23-.6.5a4.4 4.4 0 0 0-.17 1.34c0 .3.02.94.17 1.35.11.31.28.5.6.5.36 0 .51-.25.6-.5.16-.43.17-1.09.17-1.35 0-.33-.02-.94-.17-1.35-.09-.24-.23-.5-.6-.5Zm4-.66c1.25 0 1.5 1.37 1.5 2.5 0 1-.2 2.5-1.5 2.5-1.24 0-1.5-1.37-1.5-2.5 0-1.1.25-2.5 1.5-2.5Zm0 .66c-.35 0-.5.23-.6.5a4.4 4.4 0 0 0-.17 1.34c0 .3.02.94.17 1.35.11.31.28.5.6.5.36 0 .51-.25.6-.5.16-.43.17-1.09.17-1.35 0-.33-.02-.94-.17-1.35-.09-.24-.23-.5-.6-.5ZM39 23h.64v4.3H41v.7h-2v-5Zm3 0h.64v4.3H44v.7h-2v-5Zm3 0h3v.66h-2.28v1.44h1.79v.66h-1.8v1.57H48V28h-3v-5Zm4 0h.88l1.5 3.6V23H52v5h-.7l-1.68-4v4H49v-5Z" fill="#E4A004"/><path d="M8 30h1.1l.91 2.88.92-2.88H12v4h-.7v-3.41L10.21 34h-.54l-1.06-3.42V34H8v-4Zm5 0h.72v4H13v-4Zm24 0h.72v4H37v-4Zm-7 0h.72v4H30v-4Zm-15 0h.64v3.44H17V34h-2v-4Zm3 0h.64v3.44H20V34h-2v-4Zm5.89.93-.62.2c-.14-.37-.32-.6-.78-.6-.47 0-.6.3-.6.48 0 .35.36.47.88.65.5.16 1.23.4 1.23 1.17 0 .56-.45 1.17-1.48 1.17-1.23 0-1.45-.82-1.52-1.08l.65-.16c.04.17.17.71.9.71.6 0 .7-.37.7-.55 0-.37-.35-.5-.75-.63-.48-.17-.69-.23-.93-.41a1 1 0 0 1-.4-.8c0-.52.43-1.08 1.36-1.08 1.03 0 1.27.67 1.36.93ZM27 30h.64v3.44H29V34h-2v-4Zm5 0h1.1l.91 2.88.92-2.88H36v4h-.7v-3.41L34.21 34h-.54l-.53-1.7-.53-1.72V34H32v-4Zm7 0h2.5v.56h-.96V34H40v-3.44h-1V30Zm3 0h1.97v.53h-1.35v1.15h1.05v.53h-1.05v1.25H44V34h-2v-4Zm3 0h.99c1.6 0 2.01 1.08 2.01 1.97 0 .86-.38 2.03-1.96 2.03H45v-4Zm1.03.53h-.3v2.94h.3c1.08 0 1.31-.93 1.31-1.47 0-.77-.38-1.47-1.31-1.47Z"/></svg>