<!-- by TradingView --><svg width="56" height="56" viewBox="0 0 56 56" xmlns="http://www.w3.org/2000/svg"><path fill="#2B3283" d="M0 0h56v56H0z"/><path fill-rule="evenodd" d="M21.36 39c1.97 0 3.52-.42 4.64-1.26V39h6v-8l6.52 8H47l-9-11 8.49-10h-8.07L32 26v-8h-6v1.54l-.18-.15C24.67 18.46 23.1 18 21.08 18H11v21h10.36ZM17 26h2.6c1.14 0 1.9-.53 1.9-1.5 0-1-.94-1.5-1.9-1.5H17v3Zm3.02 8c1.16 0 1.98-.51 1.98-1.5 0-1-.89-1.5-1.98-1.5H17v3h3.02Zm6.48-1a4.5 4.5 0 1 0 0-9 4.5 4.5 0 0 0 0 9Z" fill="#fff"/><circle cx="26.5" cy="28.5" r="3.5" fill="#EC6708"/></svg>