<!-- by TradingView --><svg width="56" height="56" viewBox="0 0 56 56" xmlns="http://www.w3.org/2000/svg"><path fill="#F0F3FA" d="M0 0h56v56H0z"/><path fill-rule="evenodd" d="M9 36V20h5.47A4.07 4.07 0 0 1 18 24.32c0 1.57-.96 2.7-1.5 3.06a4.2 4.2 0 0 1 2.5 3.91c0 2.95-2.94 4.71-4.83 4.71H9Zm2-14h2.22c1.54 0 2.78 1.12 2.78 2.5S14.76 27 13.22 27H11v-5Zm0 7h2.86C15.6 29 17 30.09 17 31.42v.16C17 32.9 15.6 34 13.86 34H11v-5Zm27 7V20h5.17c1.89 0 4.83 1.43 4.83 4.38C48 28.5 45.54 29 42.41 29H40v7h-2Zm5.72-9H40v-5h3.72c1.4 0 2.28 1.03 2.28 2.37v.15c0 1.34-.89 2.48-2.28 2.48Z" fill="#6F6460"/><path d="M36.97 28.76a9 9 0 1 0-17.94-.05h.11c.55 0 .95.21 1.3.4l.11.06c.38.2.77.38 1.4.38.62 0 .96-.18 1.33-.38l.04-.02c.38-.2.82-.44 1.53-.44.73 0 1.21.24 1.63.46.41.2.75.38 1.25.38s.86-.17 1.3-.38h.03c.46-.22.98-.46 1.74-.46s1.33.23 1.8.45l.12.06c.42.2.7.33 1.03.33.35 0 .66-.16 1.06-.38l.02-.01c.37-.2.83-.45 1.39-.45.23 0 .5.02.75.05Z" fill="#F26A20"/><path d="M36.88 29.45a6.12 6.12 0 0 0-.66-.04c-.36 0-.67.16-1.07.38l-.04.02c-.36.2-.82.44-1.36.44-.49 0-.93-.2-1.31-.39l-.14-.06c-.44-.2-.9-.39-1.5-.39s-1 .18-1.44.39l-.05.02c-.43.2-.91.43-1.58.43s-1.14-.24-1.54-.44l-.03-.02c-.4-.2-.76-.38-1.31-.38-.53 0-.83.16-1.2.37h-.03c-.4.23-.87.47-1.67.47-.8 0-1.3-.24-1.73-.46l-.1-.05c-.36-.2-.61-.33-.98-.33h-.03c.04.28.1.55.17.82.48.03.84.23 1.17.4l.1.06c.38.2.77.38 1.4.38.62 0 .96-.18 1.33-.38l.04-.02c.38-.2.82-.44 1.53-.44.73 0 1.21.24 1.63.45.41.22.75.39 1.25.39s.86-.17 1.3-.38l.03-.01c.46-.21.98-.45 1.74-.45s1.33.23 1.8.45l.12.06c.42.2.7.33 1.03.33.35 0 .66-.16 1.06-.38l.02-.01c.37-.2.83-.45 1.39-.45.15 0 .32 0 .5.02.06-.26.12-.53.16-.8Z" fill="#F26A20"/><path d="m36.51 30.94-.3-.01c-.35 0-.66.16-1.06.38l-.04.01c-.36.2-.82.45-1.36.45a3.1 3.1 0 0 1-1.45-.45c-.44-.2-.9-.4-1.5-.4s-1 .19-1.44.4l-.05.02c-.43.2-.91.43-1.58.43s-1.14-.24-1.54-.44l-.03-.02c-.4-.2-.76-.38-1.31-.38-.53 0-.83.16-1.2.36l-.03.02c-.4.22-.87.46-1.67.46-.8 0-1.3-.24-1.73-.46l-.1-.05a3.22 3.22 0 0 0-.62-.28c.11.3.24.6.38.9.2.08.4.18.57.27l.1.05c.38.2.77.39 1.4.39.62 0 .96-.18 1.33-.38l.04-.02a2.9 2.9 0 0 1 1.53-.45c.73 0 1.21.25 1.63.46.41.21.75.39 1.25.39s.86-.17 1.3-.38l.03-.01c.46-.22.98-.46 1.74-.46s1.33.24 1.8.46l.12.06c.42.2.7.33 1.03.33.35 0 .66-.16 1.06-.38l.02-.02c.37-.2.82-.44 1.36-.45.12-.26.22-.53.32-.8Z" fill="#F26A20"/><path d="M35.78 32.52c-.2.07-.4.18-.63.3l-.04.02c-.36.2-.82.45-1.36.45-.49 0-.93-.2-1.31-.4a3.38 3.38 0 0 0-1.63-.45c-.6 0-1 .19-1.45.4l-.05.02c-.43.2-.91.43-1.58.43s-1.14-.24-1.54-.45l-.03-.01c-.4-.2-.76-.38-1.31-.38-.53 0-.83.16-1.2.36l-.03.01a3.28 3.28 0 0 1-3.13.14c.31.48.67.92 1.07 1.33.12.02.25.02.39.02.62 0 .96-.17 1.33-.37l.04-.02a2.9 2.9 0 0 1 1.53-.45c.73 0 1.21.25 1.63.46.41.21.75.38 1.25.38s.86-.16 1.3-.37l.03-.01c.46-.22.98-.46 1.74-.46s1.33.24 1.8.46l.12.06c.42.19.7.32 1.03.32a2 2 0 0 0 .97-.33c.4-.45.76-.93 1.06-1.46Z" fill="#F26A20"/><path d="M33.64 35.01a3.08 3.08 0 0 1-1.2-.38l-.14-.07c-.44-.2-.9-.38-1.5-.38s-1 .18-1.44.38l-.05.03c-.43.2-.91.43-1.58.43s-1.14-.24-1.54-.45l-.03-.01c-.4-.2-.76-.38-1.31-.38-.53 0-.83.16-1.2.36l-.03.01c-.33.19-.71.38-1.28.45.24.2.5.38.76.55l.18-.1.04-.02c.38-.2.82-.44 1.53-.44.73 0 1.21.25 1.63.46.41.21.75.38 1.25.38s.86-.17 1.3-.37l.03-.01c.46-.22.98-.46 1.74-.46s1.33.24 1.8.45l.12.06.15.07c.27-.17.52-.36.77-.56Z" fill="#F26A20"/><path d="M32.12 36c-.39-.17-.8-.3-1.32-.3-.6 0-1 .17-1.44.38l-.05.03c-.43.2-.91.43-1.58.43s-1.14-.24-1.54-.45l-.03-.01a2.6 2.6 0 0 0-1.31-.39c-.45 0-.74.12-1.04.28.41.21.84.4 1.28.55.43.03.78.16 1.08.3a9.04 9.04 0 0 0 2.96.1 3.72 3.72 0 0 1 1.8-.4c.41-.15.81-.32 1.2-.52Z" fill="#F26A20"/></svg>