<!-- by TradingView --><svg width="56" height="56" viewBox="0 0 56 56" xmlns="http://www.w3.org/2000/svg"><path fill="#F0F3FA" d="M0 0h56v56H0z"/><path d="M5 24h5.93a2.5 2.5 0 0 1 1.74 4.29A2.5 2.5 0 0 1 11.5 33H9v-2.02h1a1 1 0 0 0 .24-1.98H8v4H5v-9Zm3 4h1a1 1 0 1 0 0-2H8v2Zm21.09-4H25l3.46 4.5L25 33h4.09l1.41-1.84L31.91 33H36l-3.46-4.5L36 24h-4.09l-1.41 1.84L29.09 24ZM15 24h3v5.87c0 .53.14 1.13.77 1.13.61 0 1.01-.58 1.23-1.06V24h3v6.11c0 .52 0 1.09.62 1.09.13 0 .26-.02.38-.07v1.76l-.22.11h-2.94a1.7 1.7 0 0 1-.78-1.12A4.38 4.38 0 0 1 17.5 33c-2.03 0-2.51-1.45-2.5-2.18V24Zm22-4h3v13h-3zm13 3h-3v6.5c0 .64-.5 1.06-1 1.06-.65 0-1-.65-1-1.23V23h-3v7.56c0 .94.48 2.44 2.56 2.44.97 0 1.9-.7 2.44-1.16V36h3V23Z" fill="#C51A21"/></svg>