<!-- by TradingView --><svg width="56" height="56" viewBox="0 0 56 56" xmlns="http://www.w3.org/2000/svg"><path fill="#F0F3FA" d="M0 0h56v56H0z"/><path fill-rule="evenodd" d="M28 45a17 17 0 1 0 0-34 17 17 0 0 0 0 34Zm-2.07-24.73a8.01 8.01 0 0 1 4.14 0 .53.53 0 1 1-.27 1.03 6.94 6.94 0 0 0-3.6 0 .53.53 0 0 1-.27-1.03Zm-1.2 1c.15.25.06.58-.2.72A6.97 6.97 0 0 0 22 24.53a.53.53 0 0 1-.92-.53A8.04 8.04 0 0 1 24 21.07a.53.53 0 0 1 .73.2Zm6.54 0a.53.53 0 0 1 .73-.2A8.04 8.04 0 0 1 34.93 24a.53.53 0 1 1-.92.53A6.97 6.97 0 0 0 31.47 22a.53.53 0 0 1-.2-.72Zm-10.35 4.28c.29.08.46.37.38.65a6.94 6.94 0 0 0 0 3.6.53.53 0 0 1-1.03.27 8.01 8.01 0 0 1 0-4.14.53.53 0 0 1 .65-.38Zm14.16 0c.28-.07.57.1.65.38a8.01 8.01 0 0 1 0 4.14.53.53 0 1 1-1.03-.27 6.94 6.94 0 0 0 0-3.6.53.53 0 0 1 .38-.65Zm-13.81 5.72a.53.53 0 0 1 .72.2A6.97 6.97 0 0 0 24.53 34a.53.53 0 0 1-.53.92A8.04 8.04 0 0 1 21.07 32a.53.53 0 0 1 .2-.73Zm13.46 0c.26.15.35.48.2.73A8.04 8.04 0 0 1 32 34.93a.53.53 0 1 1-.53-.92A6.97 6.97 0 0 0 34 31.47a.53.53 0 0 1 .72-.2Zm-9.18 3.8a.53.53 0 0 1 .65-.37 6.94 6.94 0 0 0 3.6 0 .53.53 0 0 1 .27 1.03 8.01 8.01 0 0 1-4.14 0 .53.53 0 0 1-.38-.65ZM28 31a3 3 0 1 0 0-6 3 3 0 0 0 0 6Zm0 2a5 5 0 1 0 0-10 5 5 0 0 0 0 10ZM15 19.55l.6-.76c.2-.24.36-.41.5-.5.14-.1.3-.14.48-.13.18.01.4.12.66.31.18.13.28.25.3.36.03.1 0 .25-.09.44.19-.15.35-.22.5-.2.14 0 .31.08.51.23l.28.2c.2.16.34.3.4.42.07.12.08.24.03.37-.04.12-.18.34-.43.65l-.7.88L15 19.55Zm1.13-.37.67.5h.01l.05-.08c.06-.07.08-.13.06-.18a1.17 1.17 0 0 0-.3-.28.69.69 0 0 0-.22-.12h-.13a.73.73 0 0 0-.14.16Zm1.15.85.85.64c.08-.11.12-.2.1-.25 0-.05-.06-.12-.19-.21l-.28-.22c-.13-.1-.22-.14-.27-.13-.05 0-.12.06-.21.17Zm4.07-1.54L18.44 16l-1.1.9 2.08 3.17.79-.65-.4-.55.27-.22.49.48.78-.64Zm-2.88-1.43c.45.45.84.81 1.16 1.1l-.27.22c-.2-.27-.5-.7-.89-1.32Zm1.88-2.25 1.53 2.58.52-.29.38.65-1.39.77-1.9-3.23.86-.48Zm4.23 1-.84-2.35-.94.32.92 2.59c.07.17.1.29.1.34 0 .05-.03.09-.1.1-.05.02-.09.02-.12-.02a1.1 1.1 0 0 1-.13-.29l-.94-2.63-.94.31.74 2.08c.14.4.24.66.3.77a.8.8 0 0 0 .27.3c.12.1.28.14.47.16.19 0 .39-.02.6-.1.2-.06.36-.14.49-.25.12-.1.2-.23.25-.38a.78.78 0 0 0 .04-.38c-.02-.11-.07-.3-.17-.57Zm2.7-1.2-1 .1-.07-.65c-.02-.18-.04-.3-.07-.34-.03-.05-.08-.07-.15-.06-.08.01-.13.04-.14.1-.02.06-.02.18 0 .37l.2 1.72c.02.18.04.3.07.35.03.05.08.07.16.06.07 0 .11-.04.13-.1a1.3 1.3 0 0 0 0-.38l-.06-.47 1-.1v.14c.05.38.05.66.02.82a.84.84 0 0 1-.33.46c-.17.14-.4.23-.68.26-.3.03-.54 0-.74-.08a.76.76 0 0 1-.42-.38 2.73 2.73 0 0 1-.18-.8l-.12-1.09a4.73 4.73 0 0 1-.04-.6c0-.13.04-.27.12-.4.08-.14.2-.25.36-.33.16-.1.34-.15.56-.17.3-.03.54 0 .74.09.2.09.34.21.42.37.08.16.14.4.18.75l.03.35Zm2.68 2.34.44-3.7-1-.1-.15 1.31-.3-.03.16-1.32-.99-.11-.44 3.7 1 .1.18-1.55.3.04-.19 1.55 1 .1Zm2.28-3.2-1.08 3.57-.96-.27 1.08-3.57.96.28Zm1.41 1.79.84.39.06-.13c.14-.27.2-.47.2-.6 0-.14-.05-.29-.18-.43-.13-.15-.31-.28-.54-.4-.22-.1-.42-.15-.6-.15a.77.77 0 0 0-.47.13c-.12.08-.25.25-.38.51-.09.18-.14.34-.15.47 0 .14.01.26.05.36.04.1.14.27.29.52.15.24.24.4.27.5.02.08-.01.22-.11.42a.43.43 0 0 1-.15.18.17.17 0 0 1-.16.01c-.06-.03-.1-.07-.1-.11 0-.05.02-.14.08-.26l.2-.4-.83-.4-.1.22c-.13.25-.2.46-.22.62a.7.7 0 0 0 .17.5c.12.16.3.3.55.41.22.1.43.16.63.16s.36-.04.48-.13c.11-.09.23-.25.34-.49.17-.33.24-.59.2-.78-.03-.2-.18-.5-.47-.92-.1-.15-.15-.26-.15-.33a.6.6 0 0 1 .08-.27.42.42 0 0 1 .14-.18c.05-.03.1-.03.15 0 .05.02.08.05.09.1 0 .04-.03.11-.08.23l-.13.25Zm3.78 1.06-.46.6-.47-.35-1.86 2.37-.8-.58 1.86-2.37-.47-.35.46-.6 1.74 1.28Zm1.59 1.61-2.44 2.92 3.3-1.88.41.7-1.2 1.32 1.49-.85.42.7L37.7 23l-.45-.73 1.24-1.29-1.5.86-.43-.7h.02l-.7-.73.48-.5-.24-.25-.55.41-.7-.74 3.17-2.15.98 1.03Zm-1.1.08c-.43.45-.8.84-1.08 1.16l-.23-.24c.27-.2.7-.52 1.32-.92ZM16.64 38.02l2.76-1.47-1.97 2.27.7.6.98-1.12.21.18-.98 1.12.7.6 2.34-2.68-.7-.6-.84.96-.2-.18.83-.96-.7-.6-.05.06-.42-.6c-.75.37-1.5.78-2.24 1.23l1.06-.85.91-.75-.55-.79c-.9.46-1.63.85-2.16 1.18l.94-.76.96-.78-.51-.74L15 35.7l.66.94 1.69-.85c-.53.46-1 .9-1.38 1.29l.66.94Zm6.18.32-1.33-.78-1.82 3.05 1.39.81.36-.6-.59-.35.4-.67.5.3.35-.59-.5-.3.35-.57.53.31.36-.6Zm.1.05 1.44.56-.27.66-.58-.23-.25.63.54.21-.25.63-.54-.22-.29.73.63.25-.26.65-1.5-.59 1.33-3.28Zm1.79 3.55.66-2.75-.9-.21-.83 3.44 1.46.34.16-.69-.55-.13Zm3.05-1.42-.86-.05.02-.27c0-.12 0-.2-.02-.23-.02-.04-.06-.06-.1-.06-.06 0-.1.02-.14.06a.4.4 0 0 0-.06.2c0 .12 0 .21.03.27.03.06.11.14.25.24.4.27.64.48.74.64.1.17.13.42.1.77 0 .25-.05.43-.12.55a.7.7 0 0 1-.36.27c-.18.07-.38.1-.6.09a1.35 1.35 0 0 1-.63-.19.69.69 0 0 1-.32-.38 1.8 1.8 0 0 1-.04-.61l.01-.24.86.06-.03.43c0 .14 0 .22.02.26.02.04.07.06.13.07.06 0 .1-.02.14-.07a.4.4 0 0 0 .06-.2c.02-.22 0-.35-.06-.42-.05-.07-.19-.19-.4-.35a4.32 4.32 0 0 1-.44-.36.77.77 0 0 1-.17-.3 1.24 1.24 0 0 1-.04-.47c.02-.27.06-.46.14-.58a.7.7 0 0 1 .36-.27c.16-.06.35-.08.57-.07.24.02.45.07.61.16.17.09.27.2.32.31.04.12.06.32.04.6l-.01.14Zm2.27 1.51-.45-2.8-.92.15.57 3.5 1.48-.24-.12-.7-.56.1Zm1.03-3.17 1 3.4-.89.26-1-3.4.9-.26Zm4.3 1.92-1.62-3.16-1.07.55.56 1.56-.53-.74-.44-.62-1.07.54 1.62 3.15.72-.36-1.07-2.08 1.38 1.93.51-.26-.8-2.28 1.1 2.13.72-.36Zm-.84-3.85 2.18 2.8-.74.57-2.18-2.8.74-.57Zm1.97-.91-.4-.4 2.77 1.96.93-1.3-.58-.41-.4.55-.64-.45.34-.47-.55-.4-.34.48-.55-.4.35-.5-.58-.4-.9 1.25.02.01-1.41 1.42.51.5.39-.4 2.03 2 .66-.66-2.04-2 .39-.38Zm.7-2.4-.3.61 3.24 1.5.5-1.04c.1-.2.15-.36.18-.47a.64.64 0 0 0 0-.3.48.48 0 0 0-.16-.25 2.89 2.89 0 0 0-.57-.3l-1.13-.53c-.3-.15-.52-.23-.63-.26a.65.65 0 0 0-.35 0 .7.7 0 0 0-.34.24c-.1.13-.25.39-.44.8Zm2.78 1.03-2.13-1c.05-.08.08-.14.12-.16a.15.15 0 0 1 .12-.02c.05 0 .14.04.29.11l1.26.59c.21.1.34.17.37.22.04.05.03.14-.03.26Z" fill="#730003"/><path fill-rule="evenodd" d="M28 37a9 9 0 1 0 0-18 9 9 0 0 0 0 18Zm0 1a10 10 0 1 0 0-20 10 10 0 0 0 0 20Z" fill="#A96466"/><path d="M27.78 24a4.07 4.07 0 0 1 .44 0 .4.4 0 0 1-.04.8 3.25 3.25 0 0 0-.36 0 .4.4 0 0 1-.04-.8Zm2.32 1.05a.4.4 0 0 1 .57-.03l.31.31a.4.4 0 1 1-.6.54 3.24 3.24 0 0 0-.25-.26.4.4 0 0 1-.03-.56Zm-4.2 0a.4.4 0 0 1-.03.56c-.1.08-.18.17-.26.26a.4.4 0 1 1-.6-.54l.32-.31a.4.4 0 0 1 .57.03Zm-1.47 2.35c.22.01.39.2.38.42a3.25 3.25 0 0 0 0 .36.4.4 0 0 1-.8.04 4.07 4.07 0 0 1 0-.44.4.4 0 0 1 .42-.38Zm7.14 0a.4.4 0 0 1 .42.38 4.07 4.07 0 0 1 0 .44.4.4 0 0 1-.8-.04 3.25 3.25 0 0 0 0-.36.4.4 0 0 1 .38-.42Zm-.62 2.7c.17.15.18.4.03.57l-.31.31a.4.4 0 1 1-.54-.6c.1-.07.18-.16.26-.25a.4.4 0 0 1 .56-.03Zm-5.9 0a.4.4 0 0 1 .56.03c.08.1.17.18.26.26a.4.4 0 1 1-.54.6l-.31-.32a.4.4 0 0 1 .03-.57Zm2.35 1.47a.4.4 0 0 1 .42-.38 3.25 3.25 0 0 0 .36 0 .4.4 0 0 1 .04.8 4.07 4.07 0 0 1-.44 0 .4.4 0 0 1-.38-.42Z" fill="#730003"/></svg>