<!-- by TradingView --><svg width="56" height="56" viewBox="0 0 56 56" xmlns="http://www.w3.org/2000/svg"><path fill="#F0F3FA" d="M0 0h56v56H0z"/><path d="M22 21h12v8.33c0 1.97-.78 3.83-2.14 5.09L28 38l-3.86-3.58A6.94 6.94 0 0 1 22 29.33V21Zm6 15.5 3.43-3.36A5.5 5.5 0 0 0 33 29.69V22H23v7.69a5.2 5.2 0 0 0 1.26 3.45L28 36.5Z" fill="#5247B4"/><path d="M24 23h8v6.22c0 1.3-.52 2.55-1.43 3.39L28 35l-2.57-2.39a4.64 4.64 0 0 1-1.43-3.4V23Zm4 11 2.29-2.25c.53-.52.71-1.5.71-2.3V24h-6v5.45c0 .8.18 1.78.71 2.3L28 34Zm1-20.2c0 .18-.15.34-.27.48.1-.05.23-.07.36-.07.52 0 .91.36.91.8 0 .44-.39.8-.9.8-.25 0-.46-.08-.63-.21-.04.52.2 1.55 1.43 1.55.8 0 1.24-.38 1.36-.57.1.13.45.42 1 .42.7 0 1.03-.43 1.21-.74-.28-.08-.49-.3-.49-.57 0-.34.32-.6.72-.6.22 0 .43.08.56.22.26-.22.58-.3.91-.3.41 0 .73.12.83.19-.68.29-2 1.18-2 2.8H22c0-1.62-1.32-2.51-2-2.8.1-.07.42-.2.83-.2.33 0 .65.18.91.4a.77.77 0 0 1 .56-.22c.4 0 .72.27.72.6 0 .27-.2.5-.5.58.19.3.52.64 1.21.64.56 0 .9-.29 1-.42.13.19.57.57 1.37.57 1.23 0 1.47-1.03 1.43-1.55a1 1 0 0 1-.63.2c-.51 0-.9-.35-.9-.8 0-.43.39-.79.9-.79a1 1 0 0 1 .31.05c-.1-.13-.21-.3-.21-.46 0-.44.48-.8 1-.8s1 .36 1 .8ZM22 19h12v1H22z" fill="#5247B4"/><path d="M26 27.57c0-.78.06-2.04.1-2.57h.9v2h2v-2h.9c.04.53.1 1.79.1 2.57 0 .98-.1 3-.51 3.43h-1.16c.18-.26.66-1.4.67-3h-2c0 1.6.49 2.74.67 3h-1.16c-.42-.43-.51-2.45-.51-3.43Z" fill="#5247B4"/><path fill-rule="evenodd" d="M14.24 19.18a9.5 9.5 0 0 1-1.92.26c.1 0 .42.37.56.56-.03.06-.12.34-.25.94-.15.76-.4.83-.5.83h-.04c-.07.01-.13.03-.3-.14.05.71.36.8.52.86h.03c.14.05.25.1.25.34 0 .23-.2.4-.36.4-.18 0-.2-.03-.41-.24-.16.85.65 1.16.88 1.25a.7.7 0 0 1 .05.02c.04.26-.12.52-.4.52s-.36-.13-.49-.35l-.04-.07c-.16.94.38 1.43.68 1.55-.2.99-1.06 1.75-1.8 2.4l-.06.05a5.23 5.23 0 0 1-2.33 1.16c-.38 0-.65-.17-.65-.62 0-.35.3-.74.45-.9.05.15.3.43.86.43s1.1-.48 1.31-.73a7.49 7.49 0 0 1-1.03-.22c.89-.09 2.48-.54 2.48-1.78 0-.82-.52-1.17-.94-1.45-.29-.19-.53-.35-.53-.62 0-.32.11-.57.23-.83.13-.29.51-.59.51-1 0-1.29-1.24-1.78-1.74-1.8.2.13.75.56.75.73 0 .21-.27.43-.75.75-.54.38-.7.93-.7 1.16a.92.92 0 0 0-.59-.19c-.65 0-.65.7-.56 1.04.04-.1.14-.29.25-.29.13 0 .18.1.29.43.24.88 1.14 1.07 1.68 1.18l.18.04.13.03c.47.1 1 .23 1 .9 0 .7-.4.79-.93.9l-.05.01a233.04 233.04 0 0 0-1.53.33c-.23-.45-.1-.87.2-1.3-1.11.1-1.34.88-1.34 1.09 0 .21.2.59.41.68-.11.07-.7.68-.7 1.53s.88 1.13 1.2 1.13c.25 0 .76-.1.94-.16-.05.07-.14.32-.14.78 0 1.15 1.35 1.05 1.5 1.05-.21.27-.87.22-1.43.17l-.53-.02c-.59 0-.97.56-.97.84 0 .29.1.48.2.62.04-.59.53-.66.77-.62-.17.15-.5.53-.5.85 0 .39.17.5.33.58l.01.01c.04-.48.28-.52.49-.55l.1-.01c-.57.63.02 1.22.16 1.31.02-.59.18-.59.36-.58h.04c-.39.7.06 1.03.38 1.27l.03.02c-.18-.4-.02-.8.18-.8.2 0 .43.14.43.33 0 .26-.28.27-.43.24.08.12.3.37.57.37.17 0 .36-.05.55-.1.2-.06.39-.1.56-.1.27 0 .19.45.11.67l.4.5c-.4.26-.65.64-.65 1.1 0 1.8 2.24 1.2 2.92.95-1.33.19-1.92-.47-1.92-.94 0-.48.4-1.09 1.45-1.09.92 0 1.76.5 2.22.78l.15.1c-1.06.28-1.22.98-1.22 1.29 0 .24.08.52.11.63.12-.22.46-.68.84-.68.48 0 1.36.14 2.15 1.32.8 1.18 1.72 1.72 2.3 1.72.6 0 .94-.47 1.05-.66.84.47 2.56-.19 2.56-1.6 0-.88-.38-1.3-.87-1.5h.28c1.8-.08 3.96-.16 3.96 1.69 0 .47-.5 1.55-1.38 1.55-.89 0-1.13-.56-1.13-.99 0-.42.34-.85.77-.85s.76.29.88.66c.06-.4-.1-1.2-1.25-1.2-.97 0-1.15.85-1.15 1.4 0 .53.63 1.5 1.79 1.5 1.15 0 1.83-1.18 1.83-2.17s-.75-1.95-2.72-1.95l-.75.01c-1.85.05-4 .1-4-2.13 0-.52.32-1.58 1.31-1.58.41 0 .68.35.68.64 0 .28-.22.54-.5.54-.27 0-.4-.07-.45-.14 0 .26.25 1.17 1.11 1.17.33 0 .53-.04.59-.07.14.32.58.95 1.2.95s.95-.24 1.04-.36c-.2.02-.62-.2-.9-1.3-.37-1.38-1.38-1.95-2.36-1.95-.66 0-1.38.37-1.77 1l-.26-.7a.45.45 0 0 1 .33-.13c.19 0 .23.2.23.3.06-.04.18-.19.18-.5 0-.2-.2-.33-.37-.45-.14-.09-.26-.17-.26-.27 0-.43.42-.28.63-.14-.04-.22-.25-.77-.81-.77s-.72.61-.73.86c-.13.1-.6.3-1.38.3-.97 0-1.42-.4-1.42-1.05 0-.37.21-.6.43-.83.16-.18.32-.35.38-.59.12-.47.08-.57.03-.7l-.03-.07c.3-.2.5-.03.73.26.07-1.34-1.07-1.36-1.66-1.2-.12-.14-.6-.4-1.44-.4-1.07 0-2.81.37-3.35.51.29-.3 1.05-.45 1.64-.57.29-.06.53-.1.67-.16 1.24-.54 1.33-.56 2-.61.69-.05 1-.26 1.07-.52.26 1.1 1.04.96 1.4.76-.08-.04-.27-.15-.27-.33 0-.24.12-.36.37-.36s.7.21.83.5c.05.4.39.4.55.4.14 0 .14.15.13.34v.08c.64-.36.36-.93.14-1.18l.42-.28.3.28c.03-.13.04-.25.04-.35-.01-.47-.47-.65-.76-.73 0-.64.38-.42.59-.26-.12-.61-.5-.61-.86-.54-.39-.05-.6.35-.6.68a2.6 2.6 0 0 1-1.86.1l-.17-.05c.22-.3.24-.88.23-1.13l.18.35c.04-.07.14-.29.18-.61.14.19.14.47 0 .75.72-.42.69-1.04.66-1.46v-.18c0-.4.27-.71.47-.71a.8.8 0 0 1 .23.03 2 2 0 0 0 .43.04c.36 0 .56-.3.7-.52-.11.1-.39-.05-.39-.28 0-.24.23-.26.34-.26.14.75.8.52.89.45.09.11.06.42.04.56.13-.08.39-.32.39-.59 0-.28-.22-.5-.4-.67a4.43 4.43 0 0 1-.08-.08.86.86 0 0 0 .27-.64c.14-.02.34.07.52.17-.28-.72-.54-.62-.75-.57a.47.47 0 0 1-.1.03c-.17 0-.26-.07-.26-.26 0-.2.32-.3.46-.3-.25-.4-.55-.3-.79-.2a.87.87 0 0 1-.19.05c-.22.02-.38.3-.38.54 0 .18.05.26.1.35l.06.1a4.07 4.07 0 0 1-2.88 1.46c-.95 0-1.58-.38-1.58-.73s.52-.54.66-.54c.06 0 .14.05.22.1.08.06.16.11.23.11.13 0 .43-.14.43-.47 0-.27-.33-.23-.56-.2l-.14.02c-.18 0-.32-.15-.32-.46 0-.23.45-.15.71-.1l.17.03c.14 0 .18-.21.18-.54 0-.5-.44-.58-.72-.63a.73.73 0 0 1-.2-.05c-.62-.36-1.4-.29-2.1-.07Zm6 16.05-.18.1c.02-.18 0-.56-.23-.63a.7.7 0 0 1-.45-.21l-.1-.36c-.29-.22-.95-.54-1.24-.1 0 .1.05.3.43.22a.74.74 0 0 1-.56.28c-.29 0-.52-.25-.72-.46-.15-.15-.28-.29-.4-.29-.1 0-.35.12-.13.54-.18.05-.72-.1-.79-.59l-.06.13c-.06.13-.13.27-.14.46-.2-.19-.5-.54-.39-.96l-.06.05c-.08.07-.13.12-.19.42-.13-.1-.36-.26-.36-.62 0-.28.12-.49.18-.56-.15-.08-.5-.12-.7.33l-.07-.16c-.06-.14-.09-.2-.09-.45 0-.33.34-.92 1.04-.8.05-.2.14-.28.23-.35.1-.07.18-.14.18-.34 0-.37-.4-1.39-3.98-1.27 0 .38.27.75.72 1.16.45.4.7 1 .52 1.55l.1.18c.08.17.1.22.1.4 0 .24-.27 1.07-1.44.79.2-.08.44-.35.54-.48a5.2 5.2 0 0 1-1.99-.44c0 .4.18 2.23 2.1 2.23.31 0 .52-.06.6-.09-.02-.2.08-.59.51-.59.55 0 1.07.66.77 1.09a2.28 2.28 0 0 1-.1-.2c-.06-.11-.08-.16-.2-.16-.15 0-.24.14-.24.3 0 .08.06.14.12.2.08.07.17.16.17.3 0 .15-.06.4-.12.58l.37-.01c1.34 0 2.88.94 3.99 1.98 1.1 1.03 3.16 2.63 4.48 2.63 1.3 0 1.42-.98 1.42-1.36 0-.38-.38-1.27-1.2-1.27a.66.66 0 0 0-.63.66c0 .42.61.73.97.49 0 .26-.25.85-.93.85-.54 0-.77-.35-.81-.52-.4.1-1.26-.02-1.6-1.32.13.12.5.35.92.35.23 0 .45-.16.7-.33.22-.16.46-.32.73-.42a2.36 2.36 0 0 1-1.86-2.4c0-.19.02-.37.07-.53Z" fill="#5247B4"/><path d="M17.94 20.45c-.5.05-.7.13-.74.16.37-.05.73.12 1.08.12.27 0 .72-.19.72-.53s-.43-.5-.67-.5c.29.49.24.7-.4.75Z" fill="#5247B4"/><path fill-rule="evenodd" d="M41.76 19.18a9.5 9.5 0 0 0 1.92.26c-.1 0-.42.37-.56.56.03.06.12.34.25.94.15.76.4.83.5.83h.04c.07.01.13.03.3-.14-.05.71-.36.8-.52.86h-.03c-.14.05-.25.1-.25.34 0 .23.2.4.36.4.18 0 .2-.03.41-.24.16.85-.65 1.16-.88 1.25a.7.7 0 0 0-.05.02c-.04.26.12.52.41.52.27 0 .35-.13.48-.35l.04-.07c.16.94-.38 1.43-.68 1.55.2.99 1.06 1.75 1.8 2.4l.06.05a5.23 5.23 0 0 0 2.33 1.16c.38 0 .65-.17.65-.62 0-.35-.3-.74-.45-.9-.05.15-.3.43-.86.43s-1.1-.48-1.31-.73c.26-.04.66-.11 1.03-.22-.89-.09-2.48-.54-2.48-1.78 0-.82.52-1.17.94-1.45.29-.19.53-.35.53-.62 0-.32-.11-.57-.23-.83-.13-.29-.51-.59-.51-1 0-1.29 1.24-1.78 1.74-1.8-.2.13-.75.56-.75.73 0 .21.27.43.75.75.54.38.7.93.7 1.16a.92.92 0 0 1 .59-.19c.65 0 .65.7.56 1.04-.04-.1-.14-.29-.25-.29-.13 0-.18.1-.29.43-.24.88-1.14 1.07-1.68 1.18l-.18.04-.13.03c-.47.1-1 .23-1 .9 0 .7.4.79.93.9l.05.01 1.53.34v-.01c.23-.45.1-.87-.2-1.3 1.11.1 1.34.88 1.34 1.09 0 .21-.2.59-.41.68.11.07.7.68.7 1.53s-.88 1.13-1.2 1.13c-.25 0-.76-.1-.94-.16.05.07.14.32.14.78 0 1.15-1.35 1.05-1.5 1.05.21.27.87.22 1.43.17l.53-.02c.59 0 .97.56.97.84 0 .29-.1.48-.2.62-.04-.59-.53-.66-.77-.62.17.15.5.53.5.85 0 .39-.17.5-.33.58l-.01.01c-.04-.48-.28-.52-.49-.55l-.1-.01c.57.63-.02 1.22-.16 1.31-.02-.59-.18-.59-.36-.58h-.04c.39.7-.06 1.03-.38 1.27l-.03.02c.18-.4.02-.8-.18-.8-.2 0-.43.14-.43.33 0 .26.28.27.43.24-.08.12-.3.37-.57.37-.17 0-.36-.05-.55-.1-.2-.06-.39-.1-.56-.1-.27 0-.19.45-.11.67l-.4.5c.4.26.65.64.65 1.1 0 1.8-2.24 1.2-2.92.95 1.33.19 1.92-.47 1.92-.94 0-.48-.4-1.09-1.45-1.09-.92 0-1.76.5-2.22.78l-.15.1c1.06.28 1.22.98 1.22 1.29 0 .24-.08.52-.11.63-.12-.22-.46-.68-.84-.68-.48 0-1.36.14-2.15 1.32-.8 1.18-1.72 1.72-2.3 1.72-.6 0-.94-.47-1.05-.66-.84.47-2.56-.19-2.56-1.6 0-.88.38-1.3.87-1.5h-.28c-1.8-.08-3.96-.16-3.96 1.69 0 .47.5 1.55 1.38 1.55.89 0 1.13-.56 1.13-.99 0-.42-.34-.85-.77-.85a.91.91 0 0 0-.88.66c-.06-.4.1-1.2 1.25-1.2.97 0 1.15.85 1.15 1.4 0 .53-.63 1.5-1.79 1.5-1.15 0-1.83-1.18-1.83-2.17s.75-1.95 2.72-1.95l.75.01c1.85.05 4 .1 4-2.13 0-.52-.32-1.58-1.31-1.58a.68.68 0 0 0-.68.64c0 .28.22.54.5.54.27 0 .4-.07.45-.14 0 .26-.25 1.17-1.11 1.17a1.9 1.9 0 0 1-.59-.07c-.14.32-.58.95-1.2.95s-.95-.24-1.04-.36c.2.02.62-.2.9-1.3.37-1.38 1.38-1.95 2.36-1.95.66 0 1.38.37 1.77 1l.26-.7a.45.45 0 0 0-.33-.13c-.19 0-.23.2-.23.3-.06-.04-.18-.19-.18-.5 0-.2.2-.33.37-.45.14-.09.26-.17.26-.27 0-.43-.42-.28-.63-.14.04-.22.25-.77.81-.77s.72.61.73.86c.13.1.6.3 1.38.3.97 0 1.42-.4 1.42-1.05 0-.37-.21-.6-.43-.83-.16-.18-.32-.35-.38-.59-.12-.47-.08-.57-.03-.7l.03-.07c-.3-.2-.5-.03-.73.26-.07-1.34 1.07-1.36 1.66-1.2.12-.14.6-.4 1.44-.4 1.07 0 2.81.37 3.35.51-.29-.3-1.05-.45-1.64-.57-.29-.06-.53-.1-.67-.16-1.24-.54-1.33-.56-2-.61-.69-.05-1-.26-1.07-.52-.26 1.1-1.04.96-1.4.76.08-.04.27-.15.27-.33 0-.24-.12-.36-.37-.36s-.7.21-.83.5c-.05.4-.39.4-.55.4-.14 0-.14.15-.13.34v.08c-.64-.36-.36-.93-.14-1.18l-.42-.28-.3.28a1.18 1.18 0 0 1-.04-.35c.01-.47.47-.65.76-.73 0-.64-.38-.42-.59-.26.12-.61.5-.61.86-.54.39-.05.6.35.6.68a2.6 2.6 0 0 0 1.86.1l.17-.05c-.22-.3-.24-.88-.23-1.13l-.18.35a1.6 1.6 0 0 1-.18-.61c-.14.19-.14.47 0 .75-.72-.42-.69-1.04-.66-1.46v-.18c0-.4-.27-.71-.47-.71a.8.8 0 0 0-.23.03 2 2 0 0 1-.43.04c-.36 0-.56-.3-.7-.52.11.1.39-.05.39-.28 0-.24-.23-.26-.34-.26-.14.75-.8.52-.89.45-.09.11-.06.42-.04.56-.13-.08-.39-.32-.39-.59 0-.28.22-.5.4-.67l.08-.08a.86.86 0 0 1-.27-.64c-.14-.02-.34.07-.52.17.28-.72.54-.62.75-.57l.1.03c.17 0 .26-.07.26-.26 0-.2-.32-.3-.46-.3.25-.4.55-.3.79-.2l.19.05c.22.02.38.3.38.54 0 .18-.05.26-.1.35a1.2 1.2 0 0 0-.06.1 4.07 4.07 0 0 0 2.88 1.46c.95 0 1.58-.38 1.58-.73s-.52-.54-.66-.54c-.06 0-.14.05-.22.1-.08.06-.16.11-.23.11a.47.47 0 0 1-.43-.47c0-.27.33-.23.56-.2l.14.02c.18 0 .32-.15.32-.46 0-.23-.45-.15-.71-.1l-.17.03c-.14 0-.18-.21-.18-.54 0-.5.44-.58.72-.63a.73.73 0 0 0 .2-.05c.62-.36 1.4-.29 2.1-.07Zm-6 16.05.18.1c-.02-.18 0-.56.23-.63a.7.7 0 0 0 .45-.21l.1-.36c.29-.22.95-.54 1.24-.1 0 .1-.05.3-.43.22.11.14.31.28.56.28.29 0 .52-.25.72-.46.15-.15.28-.29.4-.29.1 0 .35.12.13.54.18.05.72-.1.79-.59l.06.13c.06.13.13.27.14.46.2-.19.5-.54.39-.96l.06.05c.08.07.13.12.19.42.13-.1.36-.26.36-.62a.92.92 0 0 0-.18-.56c.15-.08.5-.12.7.33l.07-.16c.06-.14.09-.2.09-.45a.87.87 0 0 0-1.04-.8.55.55 0 0 0-.23-.35c-.1-.07-.18-.14-.18-.34 0-.37.4-1.39 3.98-1.27 0 .38-.27.75-.72 1.16-.45.4-.7 1-.52 1.55l-.1.18a.72.72 0 0 0-.1.4c0 .24.27 1.07 1.44.79a1.7 1.7 0 0 1-.54-.48 5.2 5.2 0 0 0 1.99-.44c0 .4-.18 2.23-2.1 2.23a1.8 1.8 0 0 1-.6-.09c.02-.2-.08-.59-.51-.59-.55 0-1.07.66-.77 1.09l.1-.2c.06-.11.08-.16.2-.16.15 0 .24.14.24.3 0 .08-.06.14-.12.2-.08.07-.17.16-.17.3 0 .15.06.4.12.58a4.45 4.45 0 0 0-.37-.01c-1.34 0-2.88.94-3.99 1.98-1.1 1.03-3.16 2.63-4.48 2.63-1.3 0-1.42-.98-1.42-1.36 0-.38.38-1.27 1.2-1.27.27 0 .63.23.63.66 0 .42-.61.73-.97.49 0 .26.25.85.93.85.54 0 .77-.35.81-.52.4.1 1.26-.02 1.6-1.32-.13.12-.5.35-.92.35-.23 0-.45-.16-.7-.33a2.85 2.85 0 0 0-.73-.42 2.36 2.36 0 0 0 1.86-2.4c0-.19-.02-.37-.07-.53Z" fill="#5247B4"/><path d="M38.06 20.45c.5.05.7.13.74.16-.37-.05-.73.12-1.08.12-.27 0-.72-.19-.72-.53s.43-.5.67-.5c-.29.49-.24.7.4.75Z" fill="#5247B4"/></svg>