<!-- by TradingView --><svg width="56" height="56" viewBox="0 0 56 56" xmlns="http://www.w3.org/2000/svg"><path fill="#F0F3FA" d="M0 0h56v56H0z"/><path fill-rule="evenodd" d="M8.05 23C6.92 23 6 23.9 6 25.03v7.94C6 34.09 6.92 35 8.05 35h21.98l-3.77-9h2.52l1.36 4.45L31.67 26h2.3l-3.72 9h17.7c1.13 0 2.05-.9 2.05-2.03v-7.94c0-1.12-.92-2.03-2.05-2.03H8.05ZM16 24h2.5v10H16V24Zm-1.1.55v1.77a3.72 3.72 0 0 0-1.79-.44c-.54 0-2.5.24-2.5 3.1 0 2.86 1.32 3.5 2.5 3.5a3 3 0 0 0 1.79-.5v1.84a7.9 7.9 0 0 1-2.26.35c-1.31 0-4.64-.49-4.64-4.92 0-4.44 3.2-5.08 4.4-5.08.98 0 2.07.25 2.5.38Zm4.1 5.23A3.9 3.9 0 0 1 23 26c2.2 0 4 1.7 4 3.78v.44A3.9 3.9 0 0 1 23 34c-2.2 0-4-1.7-4-3.78v-.44Zm2.48.1c0-1.19.68-2.15 1.52-2.15s1.52.96 1.52 2.14v.26c0 1.18-.68 2.14-1.52 2.14s-1.52-.96-1.52-2.14v-.26Zm19.52.58h-4.8c0 .76.46 1.86 1.95 1.86 1.2 0 2.11-.6 2.42-.9h.35v1.91c-.45.22-1.68.67-3.03.67-3.16 0-3.91-2.61-3.89-3.92 0-3.27 2.49-4.08 3.73-4.08h.35A2.96 2.96 0 0 1 41 29v1.46Zm-4.8-1.62c0-.74.59-1.34 1.31-1.34h.05c.73 0 1.32.6 1.32 1.34v.26H36.2v-.26ZM44.5 26H42v8h2.5v-5.69c.24-.29.53-.39.7-.4.29 0 .53.23.53.52V29H48v-1.47c0-.84-.7-1.53-1.58-1.53h-.2c-.82 0-1.4.37-1.72.73V26Z" fill="#003076"/><path d="M26.79 16h.4c1.06.39 1.53 1.37 1.42 2.94-.04.59-.07 1.03.07 1.48.07.22.13.22.2 0 .35-1.25-.05-2.44.74-3.64.66-.97 1.94-.75 2.6.04.52.61 1.55 1.41 1.79 2.14.41 1.27-.52 1.94-1.67 2.12-.92.15-1.92-.08-2.82.18-.06.02-.06.04 0 .07.22.1.42.14.6.13 1.3-.1 3.92-.45 4.1 1.49-.07 1.12-1.01 1.76-1.66 2.55-1.86 2.25-3.4.02-3.39-1.89 0-.22-.03-.43-.08-.63a.7.7 0 0 0-.02-.44c-.02-.06-.04-.06-.04 0l-.05.4c-.06.95-.15 1.97.13 2.9.39 1.28.83 2.58 1.32 3.88l-.28.94c-.04.16-.1.16-.14 0l-1.44-4.3a5.52 5.52 0 0 1-.2-3.09.52.52 0 0 0-.04-.27c-.03-.09-.05-.09-.07 0-.15.74-.16 1.33-.5 2.14-.37.89-1.3 1.37-2.22.96-.3-.14-.51-.29-.61-.45-.57-.91-1.47-1.67-1.75-2.7-.02-2.68 3.29-1.46 4.76-1.64a.06.06 0 0 0 .05-.05v-.04a.06.06 0 0 0-.04-.03c-1.22-.41-3.53.14-4.28-1.3-.38-.73-.02-1.58.6-2.09.74-.6 1.54-1.68 2.52-1.8Z" fill="#1B9A55"/></svg>