<!-- by TradingView --><svg width="56" height="56" viewBox="0 0 56 56" xmlns="http://www.w3.org/2000/svg"><path fill="#F0F3FA" d="M0 0h56v56H0z"/><path d="m24.55 22.78 2.3-2.55A11.3 11.3 0 0 0 18.87 17C13.71 17 8 20.7 8 28.32 8 35.92 13.8 39 19.14 39c4.27 0 6.92-1.48 7.72-2.22l14.58-14.16c.86.42 2.59 2.17 2.59 5.82 0 5.67-4.79 6.8-6.2 6.8-1.4 0-1.83-.17-2.65-.17-.65 0-1.47.57-1.8.86L30.34 39h6.87C41.91 39 48 36.54 48 28.44c0-8.55-6.82-10.4-7-10.4-.16 0-.45.23-.58.34-4.2 4.07-12.49 12.03-14.05 13.53-1.95 1.87-4.3 3.58-7.23 3.58C16.2 35.5 12 33.65 12 28s4.03-7.1 6.86-7.1c2.27 0 4.74 1.25 5.69 1.88Z" fill="url(#acgvdlzov)"/><path d="M29 18v6l6-6h-6Z" fill="url(#bcgvdlzov)"/><defs><linearGradient id="acgvdlzov" x1="9.09" y1="27" x2="48" y2="27" gradientUnits="userSpaceOnUse"><stop stop-color="#272264"/><stop offset="1" stop-color="#0EB1D2"/></linearGradient><linearGradient id="bcgvdlzov" x1="29.96" y1="19.1" x2="33.87" y2="20.31" gradientUnits="userSpaceOnUse"><stop stop-color="#235382"/><stop offset="1" stop-color="#2B678C"/></linearGradient></defs></svg>