<!-- by TradingView --><svg width="56" height="56" viewBox="0 0 56 56" xmlns="http://www.w3.org/2000/svg"><path fill="#181B1E" d="M0 0h56v56H0z"/><path d="M12 28.4c0-14.15 11.16-16.77 16.74-16.36-4.72.8-14.17 4.94-14.17 15.52 0 13.22 11.08 15.63 13.43 16.41-8.28 0-16-5.72-16-15.58Z" fill="#fff"/><path d="M40.5 24.26c-1.43-7.52-7.27-10.97-10.02-11.76 4.5.43 13.27 4.64 13.27 14.52 0 7.91-4.3 12.76-6.43 14.2-.5.22-1.34.47-.76-.38 7.45-7.34 4.15-14.87 3.94-16.58Z" fill="#888788"/><path fill-rule="evenodd" d="M29.17 43.96C37.36 43.96 44 36.82 44 28s-6.64-15.97-14.83-15.97c-8.2 0-14.84 7.15-14.84 15.97s6.64 15.96 14.84 15.96Zm0-.53c7.91 0 14.33-6.9 14.33-15.43 0-8.52-6.42-15.43-14.33-15.43-7.92 0-14.34 6.9-14.34 15.43 0 8.52 6.42 15.43 14.34 15.43Z" fill="#EDECED"/><path d="M38.78 27.44c-1.28-7.33-6.46-10.32-8.89-10.9 4.49-.52 11.52 5.16 11.52 13.05 0 7.89-5.02 11.34-5.7 11.34 5.1-5 3.35-11.15 3.07-13.5Z" fill="#888788"/><path d="M15.38 24.17a12.85 12.85 0 0 1 12.66-8.13c-2.86.25-11.41 4.07-11.41 12.96 0 7.11 3.34 11.13 5.02 12.25-.09.33-1.03.03-4.15-3.82-3.9-4.8-2.7-11.69-2.12-13.26Z" fill="#fff"/><path fill-rule="evenodd" d="M29 43.96c6.99 0 12.66-6.25 12.66-13.97 0-7.72-5.67-13.98-12.67-13.98-6.99 0-12.66 6.26-12.66 13.98C16.33 37.7 22 43.96 29 43.96Zm0-.54c6.71 0 12.16-6.02 12.16-13.43 0-7.42-5.45-13.43-12.17-13.43-6.71 0-12.16 6.01-12.16 13.43 0 7.41 5.45 13.43 12.16 13.43Z" fill="#EDECED"/><path d="M37.3 31.02a12.07 12.07 0 0 0-6.97-10.36c1.89 0 8.96 2.48 8.96 10.66 0 8.17-4.32 10.39-5.06 10.39 4.55-4.99 3.08-8.83 3.08-10.69Z" fill="#888788"/><path d="M16.89 28.1c2.5-6.92 7.96-8.17 10.38-7.93-7.82 2.74-8.92 8.8-8.92 12.12 0 3.33 2.19 6.9 2.33 7.85-4.44-4.25-4.06-10.8-3.8-12.04Z" fill="#fff"/><path fill-rule="evenodd" d="M28.84 44c5.95 0 10.77-5.4 10.77-12.02C39.61 25.36 34.8 20 28.84 20c-5.95 0-10.77 5.36-10.77 11.98S22.89 44 28.84 44Zm.01-.5c5.63 0 10.2-5.12 10.2-11.43 0-6.3-4.57-11.42-10.2-11.42-5.63 0-10.2 5.11-10.2 11.42s4.57 11.42 10.2 11.42Z" fill="#EDECED"/><path d="M35.6 35.03c.55-6.34-3.63-9.62-5.79-10.46 1.73-.52 7.56 2.53 7.56 9.12 0 6.6-4.83 9.12-4.83 8.7 2.2-1.65 2.56-3.91 3.07-7.36Z" fill="#888788"/><path d="M18.62 31.39c1.72-6.08 6.37-7.34 8.48-7.22-3.78 1.06-7.13 5.46-7.13 9 0 3.56 1.14 5.73 2 7.31a10.18 10.18 0 0 1-3.35-9.1Z" fill="#fff"/><path fill-rule="evenodd" d="M28.69 43.96c4.93 0 8.94-4.46 8.94-9.98 0-5.51-4-9.98-8.94-9.98-4.94 0-8.94 4.47-8.94 9.98 0 5.52 4 9.98 8.94 9.98Zm0-.39c4.68 0 8.46-4.26 8.46-9.51 0-5.26-3.78-9.52-8.45-9.52s-8.46 4.26-8.46 9.52c0 5.25 3.79 9.51 8.46 9.51Z" fill="#EDECED"/><path d="M34.06 36.22c0-3.84-3.03-6.06-4.55-6.68 1.59-.29 5.82 2.22 5.82 6.68a8.25 8.25 0 0 1-3.73 7.15c-.76.38-2.82.5-2.3.08 1.54-.25 4.76-2.43 4.76-7.23Z" fill="#888788"/><path d="M20.34 35.9a7.16 7.16 0 0 1 6.84-6.75c-2.56 1.01-5.49 3.46-5.49 6.74 0 3.29.92 4.37 1.7 5.83a7.65 7.65 0 0 1-3.05-5.83Z" fill="#fff"/><path fill-rule="evenodd" d="M28.56 44c3.96 0 7.16-3.39 7.16-7.52 0-4.13-3.2-7.48-7.16-7.48-3.95 0-7.15 3.35-7.15 7.48 0 4.13 3.2 7.52 7.15 7.52Zm-.06-.43c3.67 0 6.65-3.15 6.65-7.03 0-3.88-2.98-7.03-6.65-7.03-3.68 0-6.66 3.15-6.66 7.03 0 3.88 2.98 7.03 6.66 7.03Z" fill="#EDECED"/></svg>