<!-- by TradingView --><svg width="56" height="56" viewBox="0 0 56 56" xmlns="http://www.w3.org/2000/svg"><path fill="#F0F3FA" d="M0 0h56v56H0z"/><path d="M28 19.5c-2.5 0-5 .5-5 .5l2 3h6l2-3c-.72-.15-2-.5-5-.5ZM40.97 27.55 39.5 26v-4c1.73 1.08 3.64 3.1 4.5 4l-3.03 1.55ZM41 13H15v4h11v2h4v-2h11v-4ZM30 23.5h-4v1l2 2.5 2-2.5v-1ZM28 34.19 26 32v7h4v-7l-2 2.19ZM21 42h-4v-5c1.2 1.2 2.5 1.5 4 2v3ZM35 39v3h4v-5a8.27 8.27 0 0 1-4 2Z" fill="#083A6F"/><path d="m21 33-4-2V18h4l7 10 7-10h4v13l-4 2v-9l-7 9-7-9v9Z" fill="#083A6F"/><path d="M41 30c-2 3-8.34 5-10.5 5v4c6.23 0 11.77-4.9 13.5-7l-3-2ZM25.5 39v-4c-6.92-.45-9.5-4.2-9.5-6 0-1.45.07-2.35.5-2.5V22c-3.8 1.08-4.5 5.2-4.5 7 0 6.14 7.45 9.55 13.5 10Z" fill="#083A6F"/></svg>