<!-- by TradingView --><svg width="56" height="56" viewBox="0 0 56 56" xmlns="http://www.w3.org/2000/svg"><path fill="#F0F3FA" d="M0 0h56v56H0z"/><path d="M16.77 24.26c-3.6 0-5.65-.65-6.23-.97l-.54.46c.56.32 2.62.97 6.42.97C24 24.72 32.3 22 39.26 22c4.67 0 9.18 2.3 10.81 3.43l1.93-.36c-.74-.96-5.74-4.07-12.12-4.07-6.39 0-16.38 3.26-23.11 3.26Z" fill="#D9453B"/><path d="M16.96 25.5c-4.03 0-6.66-.95-7.47-1.34-1.78.97-4.4 1.18-5.49 1.17a35.4 35.4 0 0 0 6.73 3.1c9.53 1.34 28.9 3.53 30.14 1.53 1.22-2 5.87-3.78 8.13-4.43-.84-.76-5.63-3.03-10.04-3.03-4.4 0-16.95 3-22 3Z" fill="#2684C4"/><path d="m21.4 35 1.31-3.66h-.77L20.62 35h-8.04c-2.84 0-4.55-3.38-2.99-5.92l.67-1.08a4.1 4.1 0 0 1 3.47-2h23.98v.47l.37-.47H43v9h-5v-1.07L36.86 35h-4.24v-.68l-.64.68H21.4Z" fill="#2684C4"/><path d="M12.58 34.48h7.7L21.62 31h1.81l-1.3 3.48h4.73L28.12 31H30l-2.85 3.48h4.63l1.22-1.4v1.4h3.67l1.73-1.77v1.77h4.11v-7.96h-4.2L37 28v-1.48H13.73c-1.23 0-2.38.67-3.06 1.77L10 29.37c-1.35 2.19.12 5.1 2.58 5.1Z" fill="#fff"/><path d="m33.85 27.52-4.7 5.96h2.25l2.6-2.77v2.77h2.3l3.03-3.09v3.1h2.25v-5.97h-2.84L36 30.62v-3.1h-2.15ZM32.62 27.52h-9.74L22.1 30h2.67l-1.3 3.48h2.74L27.5 30h3.1l2.01-2.48ZM13.73 27.52c-.92 0-1.78.5-2.29 1.32l-.66 1.07c-.94 1.54.09 3.57 1.8 3.57h7.07l.9-2.48h-6.79a.38.38 0 0 1-.36-.53l.03-.08c.09-.23.3-.39.55-.39h6.95l.87-2.48h-8.07Z" fill="#243F8C"/></svg>