<!-- by TradingView --><svg width="56" height="56" viewBox="0 0 56 56" xmlns="http://www.w3.org/2000/svg"><path fill="#08114A" d="M0 0h56v56H0z"/><path d="M8.69 27c-1.85 0-2.56.5-2.69.75 1.86-.32 4.86-.09 4.86.12 0 .16-1.12.2-1.69.2.35.02 1.04.13 1.04.44 0 .3-.8.87-1.21 1.12 1-.4 3-1.28 3-1.65 0-.45-1-.98-3.31-.98Z" fill="#FEFEFE"/><path fill-rule="evenodd" d="M14 25H4v6h10v-6Zm-5 5c2.2 0 4-.9 4-2s-1.8-2-4-2-4 .9-4 2 1.8 2 4 2Zm12-5h-5v6h5a3 3 0 1 0 0-6Zm-1 2h-1v2h1a1 1 0 1 0 0-2Z" fill="#FEFEFE"/><path d="M30 27v-2h-7v6h7v-2h-3.79v-.5H30v-1h-3.79V27H30Z" fill="#FEFEFE"/><path fill-rule="evenodd" d="M32.8 25H30l1.45 6h2.8l.82-3.4.82 3.4h2.93l.24-1h1.9l.25 1H44l-1.8-6h-4.36l-.96 3.18L36.1 25h-2.08l-.62 2.55-.6-2.55Zm7.92 4-.7-2.92L39.3 29h1.41Z" fill="#FEFEFE"/><path d="M44 25h3.37L49 27.69V25h3v6h-3.37L47 28.31V31h-3v-6Z" fill="#FEFEFE"/></svg>