<!-- by TradingView --><svg width="56" height="56" viewBox="0 0 56 56" xmlns="http://www.w3.org/2000/svg"><path fill="#F0F3FA" d="M0 0h56v56H0z"/><path d="M24 32h21v4H24v-4Z" fill="url(#aa2f31xy4)"/><path d="M25.44 21.16h4.65L24.65 36H20l5.44-14.84Z" fill="url(#ba2f31xy4)"/><path d="M34.35 13H39l-6.35 18H28l6.35-18Z" fill="#FFE13A"/><path fill-rule="evenodd" d="m26 28.77-.92-2.15C24.37 27.19 22 28 19.42 28c-3.22 0-4.52-1.22-4.52-2.45 0-1.23 4.73-8.33 14.93-8.33s13.62 5.33 13.62 9.12C43.45 30.13 39.69 38 27.2 38c-.58 0-1.66-.16-2.66-.32-.7-.1-1.38-.2-1.83-.25L24.5 36H22l-.83.85c-1.3-.64-4.38-1.85-6.27-1.85-1.64 0-3.9.97-3.9 3.08C11 40.2 13.88 41 15.25 41s3.6-.22 6.09-2.5c2.23.88 4.9 1.77 8.18 1.77 3.3 0 14.48-1.54 14.48-14.24C44 18.35 34.97 15 30.17 15 25.38 15 14 17.9 14 25.04c0 3.24 3.81 4.96 6.96 4.96 2.52 0 4.52-.82 5.04-1.23Zm-6 9.27c-.83-.72-2.65-2.04-4.61-2.04-2.46 0-3.39 1.24-3.39 2.27 0 .84 1.43 1.73 3.59 1.73 1.72 0 3.66-1.3 4.41-1.96Z" fill="url(#ca2f31xy4)"/><path d="M31 27h14v4H31v-4Z" fill="url(#da2f31xy4)"/><path d="M28.35 13H33l-2.91 8.2h-4.65l2.91-8.2Z" fill="url(#ea2f31xy4)"/><defs><linearGradient id="aa2f31xy4" x1="42.16" y1="36.51" x2="31.96" y2="33.55" gradientUnits="userSpaceOnUse"><stop stop-color="#FCE837"/><stop offset=".29" stop-color="#FFC53F"/><stop offset=".63" stop-color="#FFCA3F"/><stop offset="1" stop-color="#FEEC36"/></linearGradient><linearGradient id="ba2f31xy4" x1="24.09" y1="25.04" x2="28.23" y2="26.46" gradientUnits="userSpaceOnUse"><stop stop-color="#E4B73B"/><stop offset="1" stop-color="#FFF035"/></linearGradient><linearGradient id="ca2f31xy4" x1="42.28" y1="33.85" x2="13.67" y2="22.5" gradientUnits="userSpaceOnUse"><stop stop-color="#D11B48"/><stop offset=".17" stop-color="#6F142C"/><stop offset=".56" stop-color="#D11B48"/><stop offset=".77" stop-color="#6A132A"/><stop offset="1" stop-color="#C21944"/></linearGradient><linearGradient id="da2f31xy4" x1="43.59" y1="31" x2="33.31" y2="28.75" gradientUnits="userSpaceOnUse"><stop stop-color="#FFE13A"/><stop offset=".29" stop-color="#FFC53F"/><stop offset=".63" stop-color="#FFCA3F"/><stop offset="1" stop-color="#FFE13A"/></linearGradient><linearGradient id="ea2f31xy4" x1="28.51" y1="15.14" x2="31.35" y2="16.47" gradientUnits="userSpaceOnUse"><stop stop-color="#E4B73B"/><stop offset="1" stop-color="#FFF035"/></linearGradient></defs></svg>