<!-- by TradingView --><svg width="56" height="56" viewBox="0 0 56 56" xmlns="http://www.w3.org/2000/svg"><path fill="#F0F3FA" d="M0 0h56v56H0z"/><path fill="#1F1A17" d="M4 23h9v1H4zM18 23h34v1H18zM21 33h31v1H21zM4 33h9v1H4z"/><path fill-rule="evenodd" d="M16.5 31.5a2 2 0 1 0 0-4 2 2 0 0 0 0 4Zm0 .5a2.5 2.5 0 1 0 0-5 2.5 2.5 0 0 0 0 5Z" fill="#27A059"/><path fill-rule="evenodd" d="M15 33a5.1 5.1 0 0 1 2-.5h2c0-.83.1-2.7.5-3.5.5-1 .5-1.5-.5-2s-3-1.5-3-3c-.27.08-.47.1-1 0 .17.17.5.7.5 1.5 0 1-.5 1.5-1 2-.2.2-.38.24-.55.27-.26.07-.45.11-.45.73 0 .8.67 3 1 4v.5c-.5-1.17-1.5-3.7-1.5-4.5 0-.59.69-1.17 1.25-1.66.4-.34.75-.63.75-.84 0-.25-.25-.63-.5-1-.25-.38-.5-.75-.5-1 0-.5 0-2 1-2s2 1 2 1.5c0 .06 0 .13-.02.22-.06.63-.18 1.9 2.02 2.78.64.17 1.74.9 1 2.5-.17.83-.5 2.6-.5 3 0 .4.67.5 1 .5v.5H15Zm-.5-9.5c-.5-.5.6-1 1-1s1 .5 1 1-1.5.5-2 0Z" fill="#CADB2B"/><path d="M6 26v2h2v1H6v2h2v1H5v-7h3v1H6ZM8.5 29.5c0-1.24.7-2.5 2.06-2.5 1.02 0 1.7.58 1.94 1.6h-.94c-.15-.47-.49-.76-1-.76-.88 0-1.06.92-1.06 1.66 0 .73.18 1.66 1.06 1.66.5 0 .84-.26 1-.77h.94c-.23.94-.95 1.61-1.94 1.61-1.37 0-2.06-1.27-2.06-2.5ZM31 29.5c0-1.24.7-2.5 2.06-2.5 1.02 0 1.7.58 1.94 1.6h-.94c-.15-.47-.49-.76-1-.76-.88 0-1.06.92-1.06 1.66 0 .73.18 1.66 1.06 1.66.5 0 .84-.26 1-.77H35c-.23.94-.95 1.61-1.94 1.61C31.7 32 31 30.73 31 29.5ZM25 27c0 1.2-.8 2-2.02 2H22v3h-1v-7h1.98c1.2 0 2.02.8 2.02 2Zm-2.02 1c.72 0 1.02-.28 1.02-1 0-.77-.32-1-1.02-1H22v2h.98ZM37.85 29.4 40 32h-1.3L37 29.76V32h-1v-7h1v4.07L38.66 27H40l-2.15 2.4ZM43 31h2v1h-3v-7h1v6ZM48 29.5c0-1.1.51-2.5 1.84-2.5.54 0 .89.35 1.16.8V25h1v7h-1v-.5s-.58.5-1.16.5C48.5 32 48 30.6 48 29.5Zm3 0c0-.7-.25-1.5-1-1.5-.5 0-1 .44-1 1.5 0 1 .5 1.5 1 1.5.87 0 1-.8 1-1.5ZM26 29.48c0-1.09.56-2.48 1.84-2.48.55 0 .87.31 1.16.78V27h1v5h-1v-.8c-.29.48-.61.8-1.18.8-1.28 0-1.82-1.45-1.82-2.52Zm3 0c0-.7-.17-1.48-1-1.48-.82 0-1 .8-1 1.5s.17 1.5 1 1.5c.84 0 1-.82 1-1.52ZM47 25h-1v2h-1v1h1v4h1v-4h1v-1h-1v-2Z"/></svg>