<!-- by TradingView --><svg width="56" height="56" viewBox="0 0 56 56" xmlns="http://www.w3.org/2000/svg"><path fill="#F0F3FA" d="M0 0h56v56H0z"/><path d="M30.47 14.06c.17-.02.34-.1.5-.03 4.8 3.2 9.55 6.48 14.19 9.9l3.36 2.47c.17.12.32.26.48.38-.49-.07-.99-.03-1.48-.05-1.06-.09-2.13-.04-3.2-.04-.24.05-.53-.02-.75.1l-.15-.1c-1.05-.8-2.14-1.54-3.2-2.3a629.21 629.21 0 0 0-10.14-6.94c-.18-.14-.4-.1-.61-.06a54.46 54.46 0 0 0-17.3 6.21c-.66-.5-1.4-.91-2.11-1.34l.01-.08a37.87 37.87 0 0 1 3.88-2.34 59.62 59.62 0 0 1 16.52-5.78Z" fill="#B2D78C"/><path d="M15.53 21.86a54.45 54.45 0 0 1 13.94-4.48c.2-.02.43-.07.61.07a629 629 0 0 1 10.14 6.94c1.06.76 2.15 1.5 3.2 2.3-.42.09-.85.02-1.26.1-.73.02-1.46.07-2.18.14-.6 0-1.2.11-1.8.16-.27-.19-.52-.4-.8-.58-1.1-.7-2.14-1.5-3.24-2.23-.28-.19-.57-.38-.84-.59-.68-.52-1.43-.95-2.13-1.45-.64-.47-1.3-.92-1.95-1.37-.17-.1-.36-.26-.58-.22-1.68.22-3.32.63-4.96 1.06a59.33 59.33 0 0 0-6 2.13c-.4.2-.83.34-1.24.53-.6.32-1.27.53-1.88.87-.65-.45-1.27-.95-1.94-1.38a2.03 2.03 0 0 1-.37-.3 52.04 52.04 0 0 1 3.28-1.7Z" fill="#7BC143"/><path d="M23.68 21.7a41.6 41.6 0 0 1 4.96-1.05c.22-.04.4.11.58.22.65.45 1.3.9 1.95 1.37.7.5 1.45.93 2.13 1.45.27.21.56.4.84.59 1.1.72 2.13 1.53 3.25 2.23.27.18.52.4.78.58-2.15.24-4.3.57-6.41 1.08a31.27 31.27 0 0 0-6.81 2.42 17.87 17.87 0 0 0-3.35 2.2c-.07.06-.16.08-.25.1-.25-.6-.6-1.15-.97-1.7-.4-.66-.92-1.24-1.4-1.84-.4-.42-.75-.87-1.18-1.26-.81-.85-1.72-1.6-2.6-2.37a6.8 6.8 0 0 0-.68-.47l.04-.01c.6-.34 1.27-.55 1.88-.87.4-.2.83-.33 1.24-.53a59.54 59.54 0 0 1 6-2.13Z" fill="#6FB444"/><path d="m12.17 23.6.08-.04c.1.11.23.22.37.3.67.43 1.28.93 1.94 1.38l-.04.02c-.83.42-1.67.81-2.48 1.26-.34.2-.7.35-1.01.58a3.1 3.1 0 0 1-.59.3c.11-.15.32-.2.48-.3-.04-.16-.2-.25-.32-.34L9.19 25.7a.55.55 0 0 1-.18-.19 37.27 37.27 0 0 1 3.16-1.92Z" fill="#68C296"/><path d="M12.04 26.52c.81-.45 1.65-.85 2.48-1.26.23.14.46.29.67.46.88.78 1.8 1.52 2.61 2.37.43.39.79.84 1.18 1.26.48.6 1 1.18 1.4 1.84.36.55.72 1.1.97 1.7.09-.02.18-.04.25-.1a17.89 17.89 0 0 1 3.35-2.2 31.19 31.19 0 0 1 6.81-2.42c2.1-.51 4.26-.84 6.41-1.08 1.04.75 2.1 1.46 3.13 2.2.36.28.75.5 1.07.8a55.7 55.7 0 0 0-8.1.86c-1.8.34-3.6.76-5.35 1.35-2.23.74-4.4 1.73-6.3 3.11a14.93 14.93 0 0 0-2.78 2.62 8.56 8.56 0 0 0-1.38-3.38 22.23 22.23 0 0 0-2.92-3.57 40.63 40.63 0 0 0-4.51-3.97c.3-.24.67-.4 1-.59Z" fill="#1CB474"/><path d="m43.42 26.68.15.1c1.23.88 2.44 1.77 3.62 2.69.25.2.54.37.75.62-.3.03-.6-.02-.9-.04a118.1 118.1 0 0 0-3.18 0c-.43 0-.87-.03-1.3.04l.03.14-.22-.14c-.32-.3-.71-.52-1.07-.8-1.03-.74-2.1-1.45-3.13-2.2.6-.05 1.2-.17 1.81-.16.72-.07 1.45-.12 2.17-.14.42-.08.85-.01 1.27-.1Z" fill="#68C296"/><path d="M10.44 27.4c.2-.08.4-.18.59-.3a40.69 40.69 0 0 1 4.51 3.98 22.2 22.2 0 0 1 2.92 3.57 8.57 8.57 0 0 1 1.38 3.37c.8-.98 1.74-1.86 2.77-2.61a22.9 22.9 0 0 1 6.31-3.11c1.75-.6 3.55-1.02 5.36-1.35 2.67-.48 5.38-.78 8.1-.86l.2.14c1.5 1.02 2.93 2.11 4.38 3.18-1.95.03-3.9.13-5.83.29-.26.08-.55 0-.8.1-.2.03-.42-.02-.61.06-.2.02-.42 0-.62.07-.18.02-.37 0-.54.06-.18.02-.37 0-.54.07a52.45 52.45 0 0 0-5.31.92l-.66.16a4.55 4.55 0 0 0-.55.13l-.48.13-.27.06-.74.22-.63.18-.05.02-.97.3-.66.24a13.6 13.6 0 0 0-.89.34c-2.4.94-4.72 2.17-6.6 3.95-.7.64-1.3 1.38-1.85 2.16l-.05.13c-.01-.17-.03-.35-.07-.52a11.08 11.08 0 0 0-.92-2.65 24.09 24.09 0 0 0-3.33-5.05A45 45 0 0 0 8 28.93l.04-.13c.81-.45 1.58-.97 2.4-1.4Z" fill="#08723D"/></svg>