<!-- by TradingView --><svg width="56" height="56" viewBox="0 0 56 56" xmlns="http://www.w3.org/2000/svg"><path fill="#F0F3FA" d="M0 0h56v56H0z"/><path fill-rule="evenodd" d="M28 44.5a16.5 16.5 0 1 0 0-33 16.5 16.5 0 0 0 0 33Zm0 .5a17 17 0 1 0 0-34 17 17 0 0 0 0 34Z" fill="#017D8C"/><path fill-rule="evenodd" d="M28 44a16 16 0 1 0 0-32 16 16 0 0 0 0 32Zm-3-19 1-.5V20c0-1 .6-3 3-3a5 5 0 0 1 2 .5l-1 2c-.17-.17-.6-.5-1-.5-.5 0-1 .5-1 1v3.5l2-1V25l-2 1v12l-2 1.5V27l-1 .5V25Zm-8-2v11c0 1 .7 3 3.5 3s3.5-2.67 3.5-4v-2l-2 1v1c0 .67-.3 2-1.5 2S19 33.67 19 33v-3l5-2.5V23c0-1-.7-3-3.5-3S17 22 17 23Zm2 4.5v-4c0-.33.3-1.5 1.5-1.5s1.5 1 1.5 1.5V26l-3 1.5Zm14-6-2 1V32c0 1 .5 4 4 4 2.8 0 4-2.5 4-4V19l-2 1v12c0 1-.4 2-2 2s-2-1-2-2V21.5Z" fill="#017D8C"/></svg>