<!-- by TradingView --><svg width="56" height="56" viewBox="0 0 56 56" xmlns="http://www.w3.org/2000/svg"><path fill="#F0F3FA" d="M0 0h56v56H0z"/><path d="M33 28.8c0 2.21-.69 4.38-1.97 6.22a11.62 11.62 0 0 1-5.26 4.13c-2.14.85-4.5 1.07-6.77.63a11.9 11.9 0 0 1-6-3.06l8.13-7.92H33Z" fill="#FF6370"/><path d="M13.28 37a11.89 11.89 0 0 1-3.06-6 12.2 12.2 0 0 1 .63-6.77 11.62 11.62 0 0 1 4.13-5.26A10.87 10.87 0 0 1 21.21 17v11.72L13.28 37Z" fill="#BC9F5D"/><path d="m13.28 37-.14-.15A11.9 11.9 0 0 1 10.22 31a12.2 12.2 0 0 1 .63-6.77 11.62 11.62 0 0 1 4.13-5.26A10.88 10.88 0 0 1 21.21 17v11.8L13.28 37Zm7.73-8.3V17.23c-2.1.04-4.16.7-5.91 1.93a11.4 11.4 0 0 0-4.06 5.16 11.98 11.98 0 0 0-.62 6.65c.4 2.16 1.4 4.15 2.87 5.74l7.72-8Z"/><path fill-rule="evenodd" d="M32.78 17.22H21.22v11.56h11.56V17.22ZM21 17v12h12V17H21Z"/><path d="M23.85 19.51h-.1a.75.75 0 0 0-.16-.23.4.4 0 0 0-.2-.14 3.7 3.7 0 0 0-.25-.01h-.31v.77h.21c.06 0 .1 0 .15-.02a.28.28 0 0 0 .12-.07.64.64 0 0 0 .11-.26h.12v.84h-.11a.66.66 0 0 0-.05-.15.4.4 0 0 0-.07-.12.25.25 0 0 0-.11-.07.54.54 0 0 0-.16-.02h-.21v.57l.01.15c.01.03.03.06.06.08.02.02.05.03.1.03a1.43 1.43 0 0 0 .3.01 1.17 1.17 0 0 0 .24-.03c.03 0 .06-.02.08-.04l.16-.21.11-.21H24l-.04.62H22v-.11a2.42 2.42 0 0 0 .21-.03c.04-.02.06-.03.08-.06a.18.18 0 0 0 .02-.09v-1.4c0-.04 0-.07-.02-.09l-.08-.06a1.47 1.47 0 0 0-.21-.05V19h1.85v.51ZM26 21h-.93v-.1l.15-.03c.06-.02.1-.04.1-.06l-.01-.02-.01-.04-.15-.41h-.58a5.72 5.72 0 0 0-.12.43c0 .03.02.06.05.08.04.02.1.03.2.04V21H24v-.1a.6.6 0 0 0 .09-.02l.08-.04a.31.31 0 0 0 .08-.08A761.65 761.65 0 0 0 24.9 19h.24a147.92 147.92 0 0 1 .63 1.78l.07.06.08.04a.5.5 0 0 0 .08.01V21Zm-.9-.8-.24-.71-.25.71h.5Zm1.9.8a1.86 1.86 0 0 1-.72-.14l-.12.09h-.14l-.02-.69h.14l.13.2a1.05 1.05 0 0 0 .4.35c.09.04.19.05.3.05.15 0 .27-.02.35-.08a.27.27 0 0 0 .12-.23c0-.07-.03-.13-.1-.18a.93.93 0 0 0-.32-.14 169.74 169.74 0 0 1-.48-.13.74.74 0 0 1-.36-.21.49.49 0 0 1-.12-.32c0-.07.02-.14.06-.21a.6.6 0 0 1 .18-.19.9.9 0 0 1 .28-.12 1.5 1.5 0 0 1 .75 0c.12.02.2.05.27.08l.1-.08h.15l.02.65h-.15a2.12 2.12 0 0 0-.26-.4.64.64 0 0 0-.44-.17.5.5 0 0 0-.3.09.22.22 0 0 0-.11.2c0 .07.03.14.1.18.06.05.17.1.3.13a25.8 25.8 0 0 0 .5.13c.15.05.28.12.36.2.09.1.13.2.13.34 0 .08-.02.16-.07.23a.6.6 0 0 1-.2.2c-.09.05-.2.1-.3.12a1.8 1.8 0 0 1-.42.05Zm3-1.43h-.11a1.2 1.2 0 0 0-.15-.27c-.06-.1-.12-.15-.18-.16a2.07 2.07 0 0 0-.23-.01h-.07v1.56c0 .04 0 .07.02.1.01.02.03.04.07.05l.1.03.13.02V21h-1.16v-.11a13.55 13.55 0 0 1 .23-.03c.04-.02.06-.04.07-.06a.2.2 0 0 0 .02-.1v-1.57h-.07a1.89 1.89 0 0 0-.23.01c-.06 0-.12.06-.18.16-.07.1-.12.19-.15.27H28V19h2v.57Z"/><path d="M26 22.11a.46.46 0 0 0-.15.06.24.24 0 0 0-.09.08A52.65 52.65 0 0 0 25.2 24h-.25l-.47-1.47-.42 1.47h-.26a393.1 393.1 0 0 1-.56-1.77.46.46 0 0 0-.08-.07.23.23 0 0 0-.07-.03.5.5 0 0 0-.09-.02V22h.95v.1a1.08 1.08 0 0 0-.19.05l-.03.02v.06l.01.04a23.14 23.14 0 0 0 .35 1.17l.4-1.44h.27l.47 1.49a33.82 33.82 0 0 0 .33-1.26c0-.02 0-.04-.02-.05a.2.2 0 0 0-.07-.04 2.12 2.12 0 0 0-.19-.03V22H26v.11Zm1.85.4h-.1a.75.75 0 0 0-.16-.23.4.4 0 0 0-.2-.14 3.7 3.7 0 0 0-.25-.01h-.31v.77h.21c.06 0 .1 0 .15-.02a.28.28 0 0 0 .12-.07.64.64 0 0 0 .11-.26h.12v.84h-.11a.66.66 0 0 0-.05-.15.4.4 0 0 0-.07-.12.25.25 0 0 0-.11-.07.54.54 0 0 0-.16-.02h-.21v.57l.01.15c.01.03.03.06.06.08.02.02.05.03.1.03a1.43 1.43 0 0 0 .3.01 1.17 1.17 0 0 0 .24-.03c.03 0 .06-.02.08-.04l.16-.21.11-.21H28l-.04.62H26v-.11a2.42 2.42 0 0 0 .21-.03c.04-.02.06-.03.08-.06a.18.18 0 0 0 .02-.09v-1.4c0-.04 0-.07-.02-.09l-.08-.06a1.47 1.47 0 0 0-.21-.05V22h1.85v.51ZM29 24a1.86 1.86 0 0 1-.72-.14l-.12.09h-.14l-.02-.69h.14l.13.2a1.05 1.05 0 0 0 .4.35c.09.04.19.05.3.05.15 0 .27-.02.35-.08a.27.27 0 0 0 .12-.23c0-.07-.03-.13-.1-.18a.93.93 0 0 0-.32-.14 169.74 169.74 0 0 1-.48-.13.74.74 0 0 1-.36-.21.49.49 0 0 1-.12-.32c0-.07.02-.14.06-.21a.6.6 0 0 1 .18-.19.9.9 0 0 1 .28-.12 1.5 1.5 0 0 1 .75 0c.12.02.2.05.27.08l.1-.08h.15l.02.65h-.15a2.12 2.12 0 0 0-.26-.4.64.64 0 0 0-.44-.17.5.5 0 0 0-.3.09.22.22 0 0 0-.11.2c0 .07.03.14.1.18.06.05.17.1.3.13a25.8 25.8 0 0 0 .5.13c.15.05.28.12.36.2.09.1.13.2.13.34 0 .08-.02.16-.07.23a.6.6 0 0 1-.2.2c-.09.05-.2.1-.3.12a1.8 1.8 0 0 1-.42.05Zm3-1.43h-.11a1.2 1.2 0 0 0-.15-.27c-.06-.1-.12-.15-.18-.16a2.07 2.07 0 0 0-.23-.01h-.07v1.56c0 .04 0 .07.02.1.01.02.03.04.07.05l.1.03.13.02V24h-1.16v-.11a13.55 13.55 0 0 1 .23-.03c.04-.02.06-.04.07-.06a.2.2 0 0 0 .02-.1v-1.57h-.07a1.89 1.89 0 0 0-.23.01c-.06 0-.12.06-.18.16-.07.1-.12.19-.15.27H30V22h2v.57Z" fill="#FF6370"/><path d="M22 25h10v1H22v-1Z" fill="#D9D9D9"/><path fill-rule="evenodd" d="M49.8 27.04H33.2v1.73h16.6v-1.73ZM33 26.8V29h17v-2.19H33Z"/><path d="M32.79 25H50v2H32.79v-2Z" fill="#FF6370"/><path d="M32.79 23H50v2.2H32.79V23Z" fill="#BC9F5D"/><path fill-rule="evenodd" d="M49.8 23.23H33v1.74h16.8v-1.74ZM32.79 23v2.2H50V23H32.79Z"/></svg>