<!-- by TradingView --><svg width="56" height="56" viewBox="0 0 56 56" xmlns="http://www.w3.org/2000/svg"><path fill="#F0F3FA" d="M0 0h56v56H0z"/><path d="M4 26h1.04v8h6.97c.44-1.08 1.32-3 1.32-3H9v-1h3.4l.57-3H9v-1h3.18c.46-1.4 1.36-4 1.36-4h-3.33l-.2.5H5.05L4 26Zm38 0h1v8h7.4a101 101 0 0 1 1.38-3H47v-1h3.8l.6-3H47v-1h3.57c.48-1.4 1.43-4 1.43-4h-3.5l-.2.5h-5.2L42 26Zm-24.08 8 1.68-2.68L21.18 34h4.25l-3.68-6.11L25.43 22h-4.06l-1.64 2.55L18.2 22h-4.06l3.45 5.89L13.67 34h4.25ZM26 26h-1.21l1.2-4H30v12h-4v-8Zm6.1-4-1.08 4H32v8h4.59c3.04 0 5.5-2.62 5.5-5.85v-.3c0-3.23-2.46-5.85-5.5-5.85H32.1Zm3.9 4h.31c.93 0 1.69.9 1.69 2s-.76 2-1.69 2H36v-4Z" fill="#E61B23"/></svg>