<!-- by TradingView --><svg width="56" height="56" viewBox="0 0 56 56" fill="none" xmlns="http://www.w3.org/2000/svg">
<rect width="56" height="56" fill="#F0F3FA"/>
<path fill-rule="evenodd" clip-rule="evenodd" d="M25.1305 34.2144C26.2169 34.2082 27.0043 34.1052 27.6744 33.3019C27.6813 33.2937 27.6898 33.2871 27.6994 33.2825C27.709 33.2779 27.7194 33.2753 27.73 33.2751C27.7406 33.2748 27.7511 33.2769 27.7608 33.281C27.7705 33.2852 27.7792 33.2914 27.7862 33.2993C28.5984 34.1877 29.9209 34.5224 30.7828 33.4519C30.8029 33.4271 30.8257 33.4238 30.8511 33.4422C31.6659 34.0315 32.5056 33.7235 33.0417 32.9486C33.0601 32.9214 33.0819 32.9182 33.1074 32.9389C34.3234 33.9357 35.4098 33.1643 35.7072 31.8374C36.0045 30.5122 35.9637 29.0184 34.5018 28.4121C34.4687 28.3985 34.4571 28.4086 34.4672 28.4423C34.7308 29.3272 35.4427 32.9336 33.4367 32.3238C33.4071 32.3149 33.3962 32.2957 33.4038 32.2661C33.7305 30.9879 33.5982 29.9326 33.2814 28.5941C33.1358 27.9772 32.6938 27.5902 32.108 27.3914C32.0748 27.3801 32.0618 27.3917 32.0689 27.426L32.0836 27.4943C32.3677 28.8131 32.6862 30.2922 32.5083 31.635C32.423 32.2794 31.9322 33.001 31.2035 32.709C31.178 32.6989 31.168 32.6803 31.1733 32.6531C31.4733 31.1903 31.2461 29.7675 30.9745 28.1361C30.8461 27.3651 30.3961 26.8556 29.6244 26.6076C29.6168 26.6052 29.6087 26.6048 29.6009 26.6064C29.5931 26.608 29.5858 26.6117 29.5799 26.6169C29.5739 26.6222 29.5693 26.629 29.5667 26.6365C29.5641 26.6441 29.5635 26.6522 29.565 26.66C29.8082 27.9447 30.0123 29.2485 30.1774 30.5717C30.2653 31.2729 30.2697 32.456 29.7097 32.9433C29.2441 33.3492 28.6773 33.0691 28.1623 32.8147L28.1226 32.7951C28.0966 32.7821 28.091 32.7631 28.1058 32.7383C29.0165 31.1782 28.7213 29.5713 28.4238 27.9519C28.3435 27.5149 28.263 27.0769 28.2061 26.6387C27.9102 24.3676 27.7984 22.0853 27.8705 19.7918C27.8717 19.761 27.8602 19.7551 27.8359 19.774C27.1844 20.2915 26.7424 20.793 26.7406 21.6513C26.7389 22.7194 26.7732 23.7863 26.8436 24.852C26.9099 25.8544 27.0258 26.657 27.1915 27.26C27.2386 27.4321 27.2929 27.6168 27.3497 27.8103L27.3498 27.8104C27.6657 28.8859 28.062 30.235 27.7596 31.2098C27.3833 32.4232 26.2844 32.9629 25.1234 33.1741C23.9577 33.3871 22.8204 33.5339 21.7115 33.6143C21.5647 33.625 21.5615 33.6525 21.7017 33.6969C22.8118 34.049 23.9548 34.2215 25.1305 34.2144ZM30.3887 23.0238C30.1993 22.8101 30.2218 22.785 30.4562 22.9483C31.084 23.3862 31.7194 23.7516 32.3307 24.1032C34.1876 25.1712 35.8221 26.1112 36.3463 28.5659C36.6294 29.892 36.6525 31.3432 36.0267 32.5965C36.0084 32.6332 36.0146 32.6379 36.0454 32.6107C37.5525 31.2598 37.596 29.1216 37.083 27.3091C36.3274 24.6422 34.1479 23.5046 31.9066 22.3348C30.8516 21.7842 29.7828 21.2264 28.8425 20.4985C28.8176 20.479 28.8037 20.4849 28.8008 20.5163C28.736 21.1731 28.7271 21.8867 29.0449 22.4832C29.755 23.8173 31.2133 24.8061 32.7089 24.9152C32.7171 24.9159 32.7252 24.9135 32.7318 24.9087C32.7384 24.9038 32.743 24.8967 32.7448 24.8886C32.7466 24.8805 32.7455 24.872 32.7417 24.8645C32.7379 24.857 32.7316 24.8511 32.724 24.8478C31.7911 24.475 31.05 23.7676 30.3887 23.0238ZM24.1462 22.294C25.0675 21.3239 26.4451 21.7171 26.1317 23.2278C25.869 24.49 25.1154 25.327 23.9278 25.7512C23.1775 26.0187 22.5038 26.3385 21.9068 26.7107C21.6588 26.8652 21.6363 27.0652 21.8393 27.3108C22.1979 27.7439 22.6565 28.0114 23.2151 28.1131C23.3531 28.1384 23.5014 28.1563 23.6504 28.1742L23.6504 28.1742C23.9353 28.2086 24.2226 28.2432 24.4453 28.3306C25.1595 28.6099 25.379 29.1647 25.1039 29.9949C23.9243 33.5541 18.762 34.4417 18.4673 29.6585C18.317 27.2282 19.217 25.3284 21.1674 23.9592C21.6976 23.5876 22.2411 23.2452 22.7979 22.9322C22.8028 22.9294 22.8084 22.928 22.814 22.9285C22.8197 22.9289 22.825 22.9311 22.8294 22.9347C22.8337 22.9382 22.8369 22.9431 22.8384 22.9485C22.8399 22.954 22.8397 22.9597 22.8378 22.9651C22.8036 23.0662 22.7714 23.1682 22.7392 23.2702C22.5399 23.901 22.3422 24.5268 21.692 24.892L21.6174 24.9339L21.6174 24.9339C21.1387 25.2024 20.613 25.4973 20.2283 25.8178C19.1712 26.6974 18.4646 28.2205 18.9253 29.5715C19.4641 31.155 21.384 32.0781 22.9506 31.4532C23.5683 31.2064 24.2323 30.6348 24.392 29.9416C24.3984 29.9134 24.3949 29.884 24.3823 29.8582C24.2657 29.6197 24.0831 29.4872 23.8346 29.4605C23.737 29.45 23.6361 29.4404 23.5333 29.4306L23.5332 29.4306C22.3735 29.3198 20.965 29.1853 21.2153 27.5433C21.3911 26.3912 21.8695 25.5009 22.9532 24.9817C22.981 24.9687 22.9961 24.9471 22.9985 24.9169C23.0766 23.8908 23.4592 23.0165 24.1462 22.294ZM25.2921 23.6867C25.4012 22.9313 24.2207 23.0663 23.8044 23.234C23.7922 23.239 23.7813 23.2466 23.7724 23.2563C23.7635 23.2659 23.7569 23.2774 23.753 23.2899C23.6139 23.7213 23.6379 24.1447 23.8249 24.5601C23.8379 24.5891 23.8595 24.5982 23.8897 24.5876C23.9627 24.5625 24.0448 24.5375 24.1319 24.5111C24.6044 24.3676 25.2201 24.1806 25.2921 23.6867ZM24.8815 27.8335C24.9429 27.9177 25.0033 28.0005 25.0595 28.0813C25.5841 28.8339 26.24 30.0517 26.1877 30.9677C26.1495 31.629 25.7909 32.1908 25.3338 32.6568C25.3304 32.6599 25.3282 32.6641 25.3275 32.6687C25.3268 32.6732 25.3276 32.6779 25.3299 32.6819C25.3321 32.6859 25.3357 32.689 25.3399 32.6907C25.3442 32.6925 25.3489 32.6927 25.3533 32.6914C26.8232 32.2698 27.6948 31.1674 27.0886 29.6124C26.5383 28.1984 25.743 27.183 24.748 25.9253C24.7308 25.904 24.7107 25.901 24.6876 25.9164C23.8791 26.4596 24.4112 27.1889 24.8815 27.8335Z" fill="#313676"/>
<path fill-rule="evenodd" clip-rule="evenodd" d="M33.304 15L28 10L22.696 15H15V23L10 28L15 33.304V41H23L28 46L33 41H41V33L46 28L41 22.696V15H33.304ZM24.6063 34.95C21.4501 34.7491 18.3872 33.3056 18.0343 29.7934C17.9166 28.6304 18.1091 27.3997 18.5015 26.3071C19.4187 23.7509 21.7378 22.5446 23.9568 21.3904C24.5228 21.096 25.0824 20.8049 25.6105 20.4957C26.8785 19.7531 27.8516 18.5659 27.9483 17.0228C27.9488 17.0128 27.9539 17.0058 27.9634 17.0019C27.978 16.9969 27.9858 17.0019 27.9869 17.017C28.123 18.9125 29.4138 20.0252 30.9877 20.8566C31.2835 21.0128 31.5864 21.1673 31.8923 21.3234C33.7765 22.2846 35.7713 23.3023 36.8984 25.1132C37.8051 26.5691 38.1723 28.5266 37.9244 30.1886C37.4051 33.6657 33.8867 34.9157 30.8188 34.9751C29.3079 35.0041 27.797 35.0078 26.2861 34.986C25.3243 34.9721 24.7643 34.9601 24.6063 34.95Z" fill="url(#paint0_linear_229_28265)"/>
<defs>
<linearGradient id="paint0_linear_229_28265" x1="46" y1="27.165" x2="10.6506" y2="27.165" gradientUnits="userSpaceOnUse">
<stop stop-color="#303975"/>
<stop offset="1" stop-color="#5C9994"/>
</linearGradient>
</defs>
</svg>
