<!-- by TradingView --><svg width="56" height="56" viewBox="0 0 56 56" xmlns="http://www.w3.org/2000/svg"><path fill="#F0F3FA" d="M0 0h56v56H0z"/><path fill-rule="evenodd" d="M31.74 14.05a4.43 4.43 0 0 0-7.48 0L11.54 34.5a3.62 3.62 0 0 0 3.17 5.5H41.3a3.62 3.62 0 0 0 3.17-5.5L31.74 14.05ZM28 28a3 3 0 1 0 0-6 3 3 0 0 0 0 6Z" fill="url(#afqjshohw)"/><path d="M17.95 21H10c10.2 3.75 13.58 16.23 14 22V26.73c0-3.17-2.7-5.73-6.05-5.73ZM25 34.67V46c6.56-12.63 12.73-15.98 15-16.07-.63-.31-2.97-.93-7.33-.93-6.42 0-7.78 3.78-7.66 5.67Z" fill="#21A140"/><defs><linearGradient id="afqjshohw" x1="28" y1="12" x2="28" y2="40.1" gradientUnits="userSpaceOnUse"><stop stop-color="#F5CF00"/><stop offset="1" stop-color="#EBA62F"/></linearGradient></defs></svg>