<!-- by TradingView --><svg width="56" height="56" viewBox="0 0 56 56" xmlns="http://www.w3.org/2000/svg"><path fill="#F0F3FA" d="M0 0h56v56H0z"/><path fill="#00612E" d="M15 12h26v32H15z"/><path fill-rule="evenodd" d="M41 12H15v32h26V12Zm-1 1H16v30h24V13Z" fill="#1F1A17"/><path fill="url(#abki3wi3f)" d="M17 14h6v23h-6z"/><path transform="rotate(-90 23 19)" fill="url(#bbki3wi3f)" d="M23 19h5v16h-5z"/><path transform="rotate(-90 23 28)" fill="url(#cbki3wi3f)" d="M23 28h5v12h-5z"/><path d="m23 37 1.39-4h1.2L27 37h-1.24l-.16-.6h-1.27l-.17.6H23Zm1.57-1.5h.8l-.4-1.46-.4 1.47Zm3.43-.2V33h1.29v2.46c0 .35.32.63.72.63.4 0 .72-.28.72-.63V33H32v2.3c0 .94-.87 1.7-1.95 1.7h-.1c-1.08 0-1.95-.76-1.95-1.7Zm6.24.12-1.28.2c.14.78.8 1.38 1.61 1.38h.1c.9 0 1.64-.76 1.64-1.7V33H35v2.46c0 .35-.04.63-.37.63-.34 0-.4-.28-.4-.63v-.04ZM37.7 33H39v4h-1.3v-4Zm-17.28 7.71A1.6 1.6 0 0 1 18.75 42C17.7 42 17 41.1 17 40s.6-2 1.75-2c.83 0 1.37.46 1.6 1.12l-.95.27c-.11-.34-.33-.57-.65-.57-.49 0-.74.53-.74 1.18 0 .65.3 1.18.74 1.18.43 0 .66-.37.72-.87l.95.4ZM21 38h2.7v1H22v.47h1.5v.77H22V41h1.7v1H21v-4Zm10.43 0H28.5v4h2.93v-1h-1.84v-.72h1.75v-.8H29.6V39h1.84v-1ZM24 42h1v-2.93l.63 2.93h.75l.62-2.93V42h1v-4h-1.43L26 40.44 25.4 38H24v4Zm9 0h-1v-4h.85L34 40.2V38h1v4h-.91L33 39.85V42Zm3-4v1h1v3h1v-3h1v-1h-3Z" fill="#1F1919"/><defs><linearGradient id="abki3wi3f" x1="17" y1="25.21" x2="22.68" y2="25.21" gradientUnits="userSpaceOnUse"><stop stop-color="#E0DBD8"/><stop offset=".6" stop-color="#AEADAB"/><stop offset="1" stop-color="#676161"/></linearGradient><linearGradient id="bbki3wi3f" x1="23" y1="26.8" x2="27.74" y2="26.8" gradientUnits="userSpaceOnUse"><stop stop-color="#E0DBD8"/><stop offset=".6" stop-color="#AEADAB"/><stop offset="1" stop-color="#676161"/></linearGradient><linearGradient id="cbki3wi3f" x1="23" y1="33.85" x2="27.74" y2="33.85" gradientUnits="userSpaceOnUse"><stop stop-color="#E0DBD8"/><stop offset=".6" stop-color="#AEADAB"/><stop offset="1" stop-color="#676161"/></linearGradient></defs></svg>