<!-- by TradingView --><svg width="56" height="56" viewBox="0 0 56 56" xmlns="http://www.w3.org/2000/svg"><path fill="#F0F3FA" d="M0 0h56v56H0z"/><path fill-rule="evenodd" d="M44.6 30.94 24.97 11.51c-1.1-1.08-4.12-.32-5.63 1.18-1.52 1.5-3.24 5.43-1.8 6.86 1.44 1.43 5.53-.8 6.16-1.43.22-.22.3-.46.3-.67 0-.28-.12-.52-.23-.65a38.79 38.79 0 0 1-3.1-3.2c.46-.46.83-.6 1.15-.6.22 0 .38.1.47.18L42.42 33.1c1.07 1.06-.5 3.04-1.41 3.9.68-.26 2.2-.92 2.81-1.53a3.9 3.9 0 0 0 .78-4.53ZM19.5 16c-.27.35-.79 1.3-.3 1.8.5.49 1.45-.03 1.8-.3L19.5 16Z" fill="#000193"/><path fill-rule="evenodd" d="m25.06 44.6 19.43-19.63c1.08-1.1.32-4.12-1.18-5.63-1.5-1.52-5.43-3.24-6.86-1.8-.33.33-.44.8-.45 1.34 0 2.12 1.4 4.33 1.88 4.82.22.22.45.3.67.3.28 0 .52-.12.65-.23a38.6 38.6 0 0 1 3.2-3.1c.44.45.6.84.6 1.13 0 .23-.1.4-.18.5L22.9 42.41c-1.06 1.07-3.04-.5-3.9-1.41.26.68.92 2.2 1.53 2.81a3.9 3.9 0 0 0 4.53.78ZM40 19.5c-.35-.27-1.3-.79-1.8-.3-.49.5.03 1.45.3 1.8l1.5-1.5Zm-9.06-8.1L11.51 31.03c-1.08 1.1-.32 4.12 1.18 5.63 1.5 1.52 5.43 3.24 6.86 1.8.33-.34.45-.82.45-1.36 0-1.8-1.4-4.31-1.88-4.8a.93.93 0 0 0-.7-.3c-.26 0-.5.13-.62.23a38.6 38.6 0 0 1-3.2 3.1c-.46-.46-.6-.86-.6-1.15 0-.22.1-.38.18-.47L33.1 13.58c1.06-1.07 3.04.5 3.9 1.41-.26-.68-.92-2.2-1.53-2.81a3.9 3.9 0 0 0-4.53-.78ZM16 36.5c.35.27 1.3.79 1.8.3.49-.5-.03-1.45-.3-1.8L16 36.5Z" fill="#000193"/><path fill-rule="evenodd" d="m11.4 25.06 19.63 19.43c1.1 1.08 4.12.32 5.63-1.18 1.52-1.5 3.24-5.43 1.8-6.86-1.44-1.43-5.53.8-6.16 1.43-.2.2-.29.42-.3.62-.02.3.12.56.23.7a38.8 38.8 0 0 1 3.1 3.2c-.8.78-1.41.6-1.62.42L13.58 22.9c-1.07-1.06.5-3.04 1.41-3.9-.68.26-2.2.92-2.81 1.53a3.9 3.9 0 0 0-.78 4.53ZM36.5 40c.27-.35.79-1.3.3-1.8-.5-.49-1.45.03-1.8.3l1.5 1.5Z" fill="#000193"/><path d="m28.5 26 2.5 2.5-2.5 2.5-2.5-2.5 2.5-2.5ZM35 15v3h-3v-3zm-17 6v3h-3v-3zm23 12v3h-3v-3zm-17 5v3h-3v-3z" fill="#000193"/></svg>