<!-- by TradingView --><svg width="56" height="56" viewBox="0 0 56 56" fill="none" xmlns="http://www.w3.org/2000/svg">
<rect width="56" height="56" fill="#F0F3FA"/>
<path fill-rule="evenodd" clip-rule="evenodd" d="M25.8286 15.1096C26.1287 15.1096 26.372 14.8612 26.372 14.5548C26.372 14.2484 26.1287 14 25.8286 14C25.5285 14 25.2852 14.2484 25.2852 14.5548C25.2852 14.8612 25.5285 15.1096 25.8286 15.1096ZM28.0396 15.1094C28.3373 15.1094 28.5786 14.863 28.5786 14.5591C28.5786 14.2552 28.3373 14.0088 28.0396 14.0088C27.7419 14.0088 27.5006 14.2552 27.5006 14.5591C27.5006 14.863 27.7419 15.1094 28.0396 15.1094ZM30.5762 14.6044C30.5762 14.9096 30.3339 15.1569 30.035 15.1569C29.7361 15.1569 29.4938 14.9096 29.4938 14.6044C29.4938 14.2993 29.7361 14.0519 30.035 14.0519C30.3339 14.0519 30.5762 14.2993 30.5762 14.6044ZM32.0722 15.2331C32.3699 15.2331 32.6112 14.9868 32.6112 14.6829C32.6112 14.3789 32.3699 14.1326 32.0722 14.1326C31.7745 14.1326 31.5332 14.3789 31.5332 14.6829C31.5332 14.9868 31.7745 15.2331 32.0722 15.2331ZM24.4778 14.8379C24.4778 15.1442 24.2345 15.3926 23.9344 15.3926C23.6343 15.3926 23.391 15.1442 23.391 14.8379C23.391 14.5315 23.6343 14.2831 23.9344 14.2831C24.2345 14.2831 24.4778 14.5315 24.4778 14.8379ZM34.138 15.4442C34.4393 15.4442 34.6836 15.1949 34.6836 14.8872C34.6836 14.5796 34.4393 14.3302 34.138 14.3302C33.8367 14.3302 33.5924 14.5796 33.5924 14.8872C33.5924 15.1949 33.8367 15.4442 34.138 15.4442ZM22.3086 15.1432C22.3086 15.4471 22.0673 15.6935 21.7696 15.6935C21.4719 15.6935 21.2306 15.4471 21.2306 15.1432C21.2306 14.8393 21.4719 14.5929 21.7696 14.5929C22.0673 14.5929 22.3086 14.8393 22.3086 15.1432ZM36.7142 15.9699C37.0094 15.9699 37.2488 15.7255 37.2488 15.4241C37.2488 15.1227 37.0094 14.8783 36.7142 14.8783C36.4189 14.8783 36.1796 15.1227 36.1796 15.4241C36.1796 15.7255 36.4189 15.9699 36.7142 15.9699ZM19.6862 15.8734C19.6862 16.1798 19.4429 16.4282 19.1428 16.4282C18.8427 16.4282 18.5994 16.1798 18.5994 15.8734C18.5994 15.567 18.8427 15.3186 19.1428 15.3186C19.4429 15.3186 19.6862 15.567 19.6862 15.8734ZM25.1774 17.9151L26.1366 16.3765C26.1909 16.2882 26.2407 16.2904 26.2862 16.3833L26.9154 17.6725C26.9241 17.6895 26.9369 17.7039 26.9525 17.7146C26.9681 17.7252 26.986 17.7316 27.0045 17.7331C27.0231 17.7347 27.0416 17.7314 27.0583 17.7236C27.0751 17.7157 27.0895 17.7035 27.1002 17.6882L27.8218 16.6618C27.8731 16.5884 27.9296 16.5839 27.9912 16.6483L29.111 17.7893C29.1222 17.8009 29.136 17.8095 29.1513 17.8144C29.1666 17.8192 29.1828 17.8201 29.1985 17.817C29.2141 17.8139 29.2288 17.8068 29.2412 17.7965C29.2536 17.7862 29.2633 17.7729 29.2694 17.7579L29.7974 16.4417C29.8399 16.3354 29.8964 16.3279 29.9668 16.4192L31.0316 17.8073C31.0415 17.8206 31.0546 17.8311 31.0698 17.8377C31.0849 17.8443 31.1014 17.8468 31.1179 17.845C31.1344 17.8432 31.1503 17.8372 31.1641 17.8274C31.1778 17.8177 31.189 17.8046 31.1966 17.7893L31.8896 16.3855C31.8975 16.3689 31.9096 16.3547 31.9245 16.3444C31.9395 16.334 31.9569 16.3279 31.9749 16.3265C31.9929 16.3251 32.011 16.3286 32.0273 16.3366C32.0436 16.3446 32.0576 16.3568 32.0678 16.372L32.9742 17.668C33.0299 17.7474 33.082 17.7444 33.1304 17.659L33.8322 16.4147C33.8398 16.4017 33.8506 16.3909 33.8635 16.3834C33.8764 16.3759 33.891 16.372 33.9059 16.372C33.9207 16.372 33.9353 16.3759 33.9483 16.3834C33.9612 16.3909 33.972 16.4017 33.9796 16.4147L34.6836 17.6298C34.7305 17.7122 34.7906 17.7242 34.864 17.6658L35.9112 16.8415C35.937 16.8213 35.967 16.8074 35.9988 16.801C36.0307 16.7946 36.0635 16.7958 36.0947 16.8045C36.1259 16.8132 36.1545 16.8292 36.1784 16.8512C36.2024 16.8732 36.2208 16.9007 36.2324 16.9313C36.2764 17.0466 36.2771 17.1597 36.2346 17.2705C35.3267 19.7052 34.7269 21.2295 34.435 21.8434C34.2788 22.1714 33.6848 22.3488 33.2888 22.3713C29.6133 22.5659 25.9415 22.5038 22.2734 22.1848C22.1986 22.1788 22.1436 22.1422 22.1084 22.0748C22.0825 22.0249 22.0397 21.9433 21.9833 21.8359L21.9827 21.8348C21.416 20.7546 19.4872 17.0781 19.6312 16.8841C19.648 16.8615 19.6691 16.8425 19.6932 16.8282C19.7172 16.8139 19.7438 16.8046 19.7714 16.8008C19.799 16.7971 19.8271 16.7989 19.854 16.8063C19.8809 16.8137 19.9061 16.8264 19.9282 16.8437L21.2988 17.9218C21.3133 17.9331 21.3301 17.941 21.3479 17.945C21.3657 17.9489 21.3842 17.9489 21.402 17.9448C21.4198 17.9407 21.4365 17.9328 21.451 17.9214C21.4655 17.9101 21.4773 17.8957 21.4858 17.8791L22.1788 16.5293C22.1861 16.5154 22.1967 16.5035 22.2097 16.4949C22.2226 16.4863 22.2374 16.4812 22.2526 16.48C22.2679 16.4789 22.2831 16.4818 22.2967 16.4885C22.3104 16.4951 22.322 16.5053 22.3306 16.518L23.226 17.8073C23.2817 17.8881 23.3323 17.8844 23.3778 17.796L24.1236 16.3384C24.1676 16.25 24.2116 16.25 24.2556 16.3384L25.0234 17.9061C25.0703 18.0019 25.1217 18.0049 25.1774 17.9151ZM33.1634 18.4182C33.1568 18.4302 33.1474 18.4403 33.136 18.4475C33.1246 18.4547 33.1115 18.4589 33.0981 18.4596C33.0847 18.4602 33.0713 18.4574 33.0593 18.4513C33.0472 18.4453 33.0369 18.4362 33.0292 18.4249L32.1052 17.1065C32.0973 17.0949 32.0865 17.0856 32.074 17.0796C32.0615 17.0736 32.0476 17.071 32.0338 17.0721C32.02 17.0733 32.0068 17.0781 31.9953 17.0861C31.9839 17.0941 31.9748 17.105 31.9688 17.1177L31.2472 18.5844C31.2413 18.5968 31.2323 18.6075 31.2212 18.6153C31.2101 18.6232 31.1972 18.628 31.1838 18.6294C31.1703 18.6307 31.1567 18.6286 31.1444 18.623C31.132 18.6175 31.1212 18.6089 31.113 18.5979L30.0592 17.1627C30.0509 17.1512 30.0399 17.1422 30.0271 17.1365C30.0144 17.1308 30.0004 17.1287 29.9865 17.1303C29.9727 17.1319 29.9595 17.1371 29.9483 17.1456C29.9371 17.154 29.9283 17.1653 29.9228 17.1784L29.3772 18.5238C29.3721 18.5361 29.3641 18.5469 29.3539 18.5552C29.3437 18.5636 29.3316 18.5692 29.3188 18.5717C29.3059 18.5741 29.2927 18.5733 29.2802 18.5692C29.2678 18.5652 29.2565 18.5581 29.2474 18.5485L28.022 17.2211C28.0141 17.2121 28.0043 17.205 27.9934 17.2004C27.9824 17.1957 27.9706 17.1937 27.9588 17.1943C27.947 17.195 27.9355 17.1983 27.9251 17.2041C27.9147 17.2099 27.9057 17.218 27.8988 17.2278L27.0078 18.4788C26.9999 18.4904 26.9891 18.4997 26.9766 18.5058C26.9641 18.5118 26.9502 18.5144 26.9364 18.5132C26.9226 18.5121 26.9094 18.5073 26.8979 18.4993C26.8865 18.4913 26.8774 18.4804 26.8714 18.4676L26.24 17.1963C26.2338 17.1837 26.2245 17.173 26.2129 17.1652C26.2014 17.1574 26.1881 17.1528 26.1743 17.1519C26.1605 17.151 26.1467 17.1538 26.1343 17.16C26.1219 17.1663 26.1113 17.1757 26.1036 17.1874L25.1378 18.7057C25.13 18.7174 25.1194 18.7268 25.107 18.733C25.0946 18.7392 25.0809 18.742 25.0671 18.7411C25.0533 18.7402 25.04 18.7356 25.0284 18.7278C25.0169 18.72 25.0076 18.7093 25.0014 18.6967L24.2578 17.2121C24.2511 17.1993 24.2413 17.1886 24.2292 17.1811C24.2171 17.1735 24.2033 17.1695 24.1891 17.1692C24.175 17.169 24.161 17.1726 24.1487 17.1798C24.1364 17.1869 24.1262 17.1973 24.1192 17.2098L23.4152 18.5664C23.409 18.579 23.3997 18.5898 23.3881 18.5976C23.3766 18.6054 23.3633 18.6099 23.3495 18.6108C23.3357 18.6117 23.3219 18.609 23.3095 18.6027C23.2971 18.5965 23.2865 18.5871 23.2788 18.5754L22.3812 17.266C22.3733 17.2548 22.3628 17.2459 22.3507 17.24C22.3385 17.2341 22.3251 17.2315 22.3116 17.2324C22.2982 17.2333 22.2852 17.2377 22.2739 17.2451C22.2626 17.2526 22.2533 17.2628 22.247 17.275L21.5672 18.5372C21.5616 18.5473 21.554 18.5559 21.5449 18.5627C21.5358 18.5695 21.5254 18.5742 21.5144 18.5766C21.5033 18.5789 21.4919 18.5788 21.4809 18.5763C21.4699 18.5738 21.4596 18.5689 21.4506 18.5619L20.5464 17.8432C20.5323 17.8305 20.5142 17.8233 20.4954 17.823C20.4767 17.8226 20.4583 17.8291 20.4438 17.8412C20.4292 17.8534 20.4194 17.8704 20.416 17.8893C20.4127 17.9082 20.416 17.9277 20.4254 17.9443L21.5914 20.224C21.5982 20.2376 21.6087 20.249 21.6216 20.2567C21.6345 20.2645 21.6493 20.2684 21.6643 20.2679C21.6792 20.2674 21.6938 20.2626 21.7062 20.2541C21.7186 20.2455 21.7284 20.2335 21.7344 20.2195L22.2932 18.8741C22.2987 18.8611 22.3075 18.8498 22.3187 18.8414C22.3299 18.8329 22.3431 18.8276 22.3569 18.826C22.3708 18.8244 22.3848 18.8266 22.3975 18.8323C22.4103 18.838 22.4213 18.847 22.4296 18.8584L23.4196 20.1993C23.4274 20.2105 23.4379 20.2194 23.4501 20.2253C23.4623 20.2312 23.4757 20.2338 23.4891 20.2329C23.5026 20.232 23.5155 20.2276 23.5269 20.2202C23.5382 20.2127 23.5474 20.2025 23.5538 20.1903L24.3436 18.7102C24.3506 18.6972 24.3611 18.6864 24.3737 18.6791C24.3864 18.6717 24.4008 18.6681 24.4153 18.6686C24.4299 18.669 24.444 18.6736 24.4562 18.6817C24.4684 18.6899 24.4781 18.7013 24.4844 18.7147L25.1334 20.1319C25.1392 20.1452 25.1484 20.1566 25.16 20.165C25.1716 20.1734 25.1852 20.1784 25.1994 20.1795C25.2136 20.1807 25.2278 20.1779 25.2406 20.1715C25.2534 20.1651 25.2642 20.1553 25.272 20.1432L26.2752 18.6293C26.2829 18.6176 26.2935 18.6082 26.3059 18.602C26.3183 18.5958 26.3321 18.593 26.3459 18.5939C26.3597 18.5948 26.373 18.5994 26.3845 18.6072C26.3961 18.615 26.4054 18.6257 26.4116 18.6383L27.1244 20.0039C27.1308 20.0168 27.1405 20.0277 27.1525 20.0354C27.1645 20.0431 27.1782 20.0475 27.1924 20.0479C27.2065 20.0484 27.2206 20.0449 27.233 20.038C27.2454 20.0311 27.2558 20.0208 27.263 20.0084L27.9604 18.827C27.9666 18.8159 27.9754 18.8065 27.9859 18.7996C27.9964 18.7926 28.0084 18.7883 28.0208 18.787C28.0333 18.7857 28.0458 18.7874 28.0575 18.792C28.0692 18.7966 28.0796 18.804 28.088 18.8135L29.2936 20.1252C29.3027 20.1348 29.314 20.1419 29.3264 20.146C29.3389 20.15 29.3521 20.1509 29.365 20.1484C29.3778 20.146 29.3899 20.1403 29.4001 20.132C29.4103 20.1236 29.4183 20.1128 29.4234 20.1005L29.9932 18.6653C29.9985 18.6521 30.0071 18.6406 30.0182 18.6319C30.0293 18.6232 30.0424 18.6177 30.0563 18.6159C30.0701 18.614 30.0842 18.616 30.0971 18.6215C30.1099 18.627 30.1212 18.6359 30.1296 18.6473L31.1592 20.0106C31.167 20.0209 31.1771 20.0292 31.1887 20.0346C31.2003 20.04 31.2131 20.0425 31.2258 20.0419C31.2386 20.0412 31.251 20.0374 31.262 20.0308C31.273 20.0242 31.2822 20.015 31.289 20.0039L32.0854 18.6653C32.0922 18.6539 32.1017 18.6444 32.1131 18.6377C32.1244 18.631 32.1371 18.6273 32.1502 18.6268C32.1633 18.6264 32.1763 18.6292 32.188 18.6352C32.1997 18.6411 32.2098 18.6499 32.2174 18.6608L33.1832 20.0511C33.191 20.0622 33.2015 20.0712 33.2137 20.0771C33.2259 20.0829 33.2393 20.0855 33.2527 20.0846C33.2662 20.0837 33.2791 20.0794 33.2905 20.0719C33.3018 20.0645 33.311 20.0542 33.3174 20.0421L33.9048 18.937C33.9106 18.9257 33.9191 18.9159 33.9294 18.9085C33.9397 18.9011 33.9516 18.8963 33.9641 18.8946C33.9765 18.8928 33.9892 18.8941 34.0011 18.8984C34.013 18.9026 34.0237 18.9097 34.0324 18.9191L34.7452 19.7187C34.7542 19.7288 34.7657 19.7363 34.7784 19.7407C34.7911 19.7451 34.8047 19.7461 34.8179 19.7436C34.8311 19.7411 34.8434 19.7353 34.8538 19.7266C34.8642 19.7179 34.8722 19.7067 34.8772 19.694L35.6032 17.7938C35.6093 17.7773 35.61 17.7591 35.6051 17.7421C35.6001 17.7252 35.5899 17.7103 35.5759 17.6999C35.5619 17.6894 35.545 17.6839 35.5276 17.6843C35.5103 17.6846 35.4936 17.6907 35.48 17.7017L34.7496 18.3104C34.7408 18.3179 34.7306 18.3234 34.7195 18.3265C34.7085 18.3296 34.6969 18.3302 34.6856 18.3282C34.6743 18.3263 34.6636 18.3219 34.6541 18.3153C34.6446 18.3088 34.6367 18.3002 34.6308 18.2902L33.9752 17.2008C33.968 17.1888 33.9579 17.179 33.9458 17.1722C33.9337 17.1654 33.9201 17.162 33.9064 17.1622C33.8926 17.1624 33.8791 17.1663 33.8673 17.1735C33.8554 17.1807 33.8456 17.1909 33.8388 17.2031L33.1634 18.4182ZM27.0914 20.8013L26.416 19.4716C26.4059 19.4513 26.3908 19.434 26.3722 19.4215C26.3535 19.409 26.332 19.4017 26.3098 19.4004C26.2875 19.399 26.2653 19.4036 26.2453 19.4138C26.2254 19.4239 26.2084 19.4392 26.196 19.4581L25.2434 20.8956C25.2337 20.9099 25.2205 20.9215 25.2051 20.9291C25.1897 20.9367 25.1726 20.9401 25.1556 20.9389C25.1385 20.9378 25.122 20.9322 25.1077 20.9226C25.0934 20.9131 25.0818 20.8999 25.074 20.8844L24.4712 19.6086C24.4644 19.5932 24.4535 19.5801 24.4397 19.5707C24.426 19.5613 24.4099 19.5561 24.3934 19.5556C24.3768 19.5552 24.3605 19.5595 24.3462 19.568C24.332 19.5766 24.3204 19.5891 24.3128 19.6041L23.6242 20.8889C23.5758 20.9772 23.5215 20.9817 23.4614 20.9023L22.5308 19.676C22.4619 19.5846 22.4054 19.5929 22.3614 19.7007L21.9412 20.7249C21.9261 20.7612 21.9192 20.8005 21.9211 20.8398C21.923 20.8791 21.9336 20.9174 21.9522 20.9517L22.3284 21.648C22.3474 21.6832 22.3746 21.7131 22.4076 21.7351C22.4406 21.757 22.4784 21.7703 22.5176 21.7738C26.196 22.0778 29.7812 22.1279 33.2734 21.9243C34.1006 21.8757 34.2853 21.3375 34.5001 20.7118L34.5001 20.7118L34.5001 20.7118C34.5435 20.5854 34.5882 20.4554 34.6396 20.3251C34.6674 20.2547 34.655 20.1933 34.6022 20.1409L34.138 19.667C34.0661 19.5936 34.0052 19.6026 33.9554 19.694L33.3592 20.7968C33.3523 20.8099 33.3421 20.8209 33.3297 20.8288C33.3173 20.8367 33.3031 20.8412 33.2884 20.8419C33.2736 20.8425 33.2588 20.8394 33.2454 20.8327C33.232 20.826 33.2205 20.8159 33.2118 20.8035L32.279 19.4424C32.2678 19.426 32.2528 19.4126 32.2353 19.4035C32.2178 19.3945 32.1984 19.3899 32.1788 19.3904C32.1592 19.3908 32.14 19.3962 32.1229 19.4061C32.1059 19.4159 32.0915 19.43 32.081 19.4469L31.3374 20.6867C31.289 20.7691 31.2362 20.7721 31.179 20.6957L30.2616 19.4716C30.2499 19.4564 30.2345 19.4446 30.2169 19.4374C30.1994 19.4302 30.1803 19.4279 30.1616 19.4306C30.1428 19.4334 30.1251 19.4411 30.1103 19.453C30.0954 19.4649 30.0838 19.4806 30.0768 19.4985L29.5554 20.8484C29.5496 20.8633 29.5403 20.8764 29.5282 20.8866C29.5161 20.8968 29.5017 20.9036 29.4863 20.9066C29.4709 20.9095 29.455 20.9084 29.4402 20.9033C29.4253 20.8982 29.412 20.8894 29.4014 20.8776L28.1738 19.5143C28.1628 19.5021 28.1492 19.4926 28.134 19.4866C28.1189 19.4807 28.1026 19.4784 28.0864 19.4799C28.0702 19.4814 28.0546 19.4867 28.0407 19.4954C28.0269 19.5041 28.0152 19.5159 28.0066 19.53L27.2476 20.8058C27.1919 20.8986 27.1398 20.8971 27.0914 20.8013ZM50 26.5264V26.4028C49.1068 26.4388 48.5429 26.3968 48.3082 26.2771C45.4863 24.8381 43.5599 23.882 42.5288 23.4088C42.014 23.173 41.629 23.3639 41.4332 23.912L41.4315 23.9167C41.362 24.1139 40.6824 26.043 40.3574 24.9496C40.3421 24.8995 40.3376 24.8466 40.344 24.7943C40.3505 24.742 40.3678 24.6916 40.3948 24.6464C42.5024 21.1336 38.0298 20.0802 36.877 23.3684C36.8491 23.4478 36.877 23.4845 36.9606 23.4785C37.4197 23.447 37.8435 23.5533 38.2322 23.7974C38.3129 23.8468 38.3143 23.8977 38.2366 23.9501C37.0178 24.7677 36.1598 24.8598 34.897 24.0355C34.8461 24.0023 34.7891 23.9799 34.7295 23.9697C34.6698 23.9595 34.6088 23.9617 34.5501 23.9762C34.4913 23.9906 34.436 24.0171 34.3875 24.0539C34.339 24.0907 34.2983 24.1372 34.2678 24.1905C33.7464 25.0934 33.3812 27.3911 35.051 27.3125C35.0911 27.3106 35.13 27.2979 35.1637 27.2757C35.1974 27.2534 35.2247 27.2224 35.2428 27.1859C35.2609 27.1493 35.2692 27.1085 35.2668 27.0676C35.2644 27.0267 35.2514 26.9872 35.2292 26.9531C35.2128 26.9278 35.1886 26.8926 35.1594 26.8501L35.1593 26.85C34.9605 26.5611 34.5282 25.9329 34.7276 25.7313C34.7505 25.7083 34.7784 25.6911 34.809 25.6812C34.8396 25.6712 34.8721 25.6688 34.9038 25.674C34.9355 25.6793 34.9655 25.6921 34.9915 25.7114C35.0174 25.7307 35.0386 25.756 35.0532 25.7852C35.81 27.281 36.9012 28.0447 38.2322 28.9454C38.251 28.9579 38.2657 28.9756 38.2747 28.9966C38.2836 29.0175 38.2864 29.0407 38.2827 29.0634C38.279 29.0862 38.2689 29.1074 38.2537 29.1247C38.2385 29.142 38.2188 29.1546 38.197 29.161C38.0911 29.1897 37.9714 29.2162 37.8456 29.244C37.0962 29.4097 36.1294 29.6235 36.5514 30.6524C36.9195 31.5508 37.2745 32.4544 37.6162 33.3633C37.7806 33.8006 37.4551 34.081 37.1312 34.3601C36.6533 34.7718 36.1789 35.1805 37.2884 36.0856C37.3764 36.1574 37.3654 36.2061 37.2554 36.2316C34.4658 36.8724 31.8588 37.9573 29.4344 39.4861C28.792 39.8904 28.0176 40.0948 27.4016 39.7084C24.5592 37.9191 21.7087 36.7249 18.8502 36.126C18.7739 36.1095 18.7644 36.0743 18.8216 36.0204C19.4156 35.4589 19.64 34.4931 18.6698 34.2326C18.5966 34.213 18.5283 34.1777 18.4695 34.1291C18.4106 34.0804 18.3627 34.0195 18.3287 33.9504C18.2948 33.8813 18.2757 33.8057 18.2726 33.7284C18.2696 33.6512 18.2828 33.5742 18.3112 33.5026C18.7057 32.5188 19.1032 31.5291 19.5036 30.5333C19.904 29.5316 18.4828 29.2957 17.8492 29.2014C17.8134 29.1963 17.7803 29.1797 17.7546 29.1539C17.729 29.1281 17.7121 29.0945 17.7065 29.0579C17.7008 29.0214 17.7067 28.9838 17.7233 28.9506C17.7398 28.9175 17.7662 28.8904 17.7986 28.8735C19.1846 28.1592 20.2487 27.1066 20.9908 25.7155C21.0041 25.6913 21.0235 25.6711 21.047 25.6572C21.0706 25.6432 21.0973 25.636 21.1246 25.6362C21.1518 25.6364 21.1784 25.6441 21.2017 25.6585C21.225 25.6728 21.2441 25.6933 21.257 25.7178L21.3164 25.8323C21.3545 25.9042 21.3531 25.9761 21.312 26.048L20.7928 26.9509C20.775 26.9814 20.7647 27.016 20.7628 27.0515C20.7609 27.087 20.7674 27.1226 20.7819 27.1552C20.7963 27.1877 20.8182 27.2163 20.8458 27.2386C20.8733 27.2609 20.9057 27.2762 20.9402 27.2833C22.6012 27.6157 22.1898 25.0305 21.7454 24.195C21.7128 24.1347 21.668 24.0823 21.6139 24.0413C21.5598 24.0003 21.4977 23.9716 21.4319 23.9573C21.3662 23.9431 21.2982 23.9435 21.2327 23.9585C21.1672 23.9735 21.1057 24.0029 21.0524 24.0445C19.8553 24.9841 19.0595 24.6139 17.8461 24.0494L17.8404 24.0467C17.8159 24.0354 17.7949 24.0176 17.7795 23.9952C17.7641 23.9727 17.7549 23.9464 17.7529 23.9191C17.7508 23.8917 17.7561 23.8643 17.768 23.8398C17.7799 23.8152 17.7981 23.7944 17.8206 23.7794C18.1858 23.5354 18.5877 23.4373 19.0262 23.4852C19.0499 23.4874 19.0738 23.4833 19.0954 23.4732C19.117 23.4631 19.1356 23.4474 19.1493 23.4277C19.1629 23.4081 19.1711 23.3852 19.1731 23.3613C19.1751 23.3375 19.1707 23.3136 19.1604 23.2921C18.606 22.1196 16.9208 20.5856 15.6734 21.6614C14.6328 22.5576 15.1806 23.7952 15.658 24.8575C15.6737 24.8926 15.6817 24.9308 15.6814 24.9693C15.6812 25.0079 15.6727 25.0459 15.6565 25.0807C15.6404 25.1156 15.617 25.1464 15.588 25.1711C15.559 25.1958 15.5251 25.2137 15.4886 25.2237C15.0313 25.3454 14.6495 24.207 14.4844 23.7148L14.4844 23.7147C14.4668 23.6623 14.4517 23.6172 14.4392 23.5818C14.4128 23.5054 14.3622 23.4538 14.2874 23.4268C13.5551 23.1526 10.4284 24.8169 8.821 25.6726C8.50644 25.84 8.25007 25.9765 8.0812 26.0614C7.4001 26.4047 6.78156 26.4138 6.05911 26.4244H6.0591L6 26.4253V26.5106C6.40333 26.8505 6.88147 27.0796 7.4344 27.1979C7.50773 27.2129 7.57667 27.2024 7.6412 27.1665C9.30293 26.2426 10.9977 25.3944 12.7254 24.6217C13.4636 24.2921 14.1095 25.4794 14.5156 26.2259L14.5156 26.2259L14.5156 26.2259L14.5156 26.226C14.5827 26.3493 14.6433 26.4606 14.6966 26.5511C14.7067 26.5678 14.7107 26.5877 14.7078 26.6072C14.7049 26.6266 14.6954 26.6444 14.6809 26.6573C14.6663 26.6703 14.6478 26.6775 14.6285 26.6778C14.6092 26.6781 14.5905 26.6714 14.5756 26.6589C14.4173 26.5326 14.2564 26.3864 14.0913 26.2364C13.4285 25.6341 12.6997 24.9718 11.8102 25.3045C10.521 25.7882 9.33447 26.3669 8.2506 27.0407C8.20329 27.0716 8.16849 27.1189 8.15258 27.1738C8.13668 27.2288 8.14073 27.2878 8.16401 27.34C8.18729 27.3921 8.22822 27.434 8.27928 27.4578C8.33035 27.4817 8.38813 27.4859 8.442 27.4697C9.388 27.1642 10.2863 26.7809 11.137 26.3197C12.2605 25.7103 13.1089 25.9619 13.6824 27.0744C13.986 27.6651 15.537 27.2137 15.955 26.9441C16.2136 26.7769 16.3875 26.4844 16.5653 26.1852C16.7051 25.9499 16.8473 25.7105 17.0352 25.5246C17.0939 25.4647 17.1643 25.434 17.2464 25.4325C17.7744 25.4168 17.9548 26.0502 17.7876 26.4567C17.4576 27.2676 14.9078 28.3165 14.1048 28.5635C13.6032 28.7163 13.1236 29.1834 13.2512 29.7023C13.4272 30.4278 13.623 31.7597 12.3404 31.142C11.764 30.865 11.1553 30.7445 10.5144 30.7804C10.4796 30.7823 10.4463 30.7957 10.4197 30.8184C10.3931 30.8411 10.3746 30.8719 10.367 30.9062C10.2758 31.3174 10.2945 31.6943 10.3132 32.0721C10.3333 32.4784 10.3535 32.8859 10.2372 33.3386C10.2098 33.4485 10.1493 33.5606 10.0862 33.6777C10.0073 33.8239 9.9243 33.9778 9.8962 34.145C9.87713 34.2468 9.9182 34.2895 10.0194 34.273L11.4714 34.0417C11.505 34.0363 11.5365 34.0212 11.5621 33.9981C11.5878 33.9751 11.6067 33.945 11.6166 33.9114L12.0126 32.5974C12.0361 32.5211 12.0867 32.4769 12.1644 32.4649C12.2181 32.4574 12.2839 32.4469 12.3584 32.4349L12.3586 32.4349C13.0209 32.3285 14.3756 32.111 14.085 32.9366C13.8254 33.6763 13.6619 34.4362 13.5944 35.2163C13.5438 35.8003 13.8848 35.9486 14.3974 36.0272C15.3669 36.1724 16.3393 36.2989 17.3146 36.4067C17.385 36.4157 17.407 36.4532 17.3806 36.5191C17.0169 37.4684 17.2765 38.2111 18.1594 38.7471C20.9079 40.4152 23.8545 41.4708 26.999 41.9141C30.4992 42.406 35.0224 40.7057 38.0342 38.956C39.0528 38.3653 39.649 37.6556 39.1056 36.4809C39.0748 36.4135 39.0961 36.3746 39.1694 36.3641C40.3853 36.1844 41.2044 36.0751 41.6268 36.0362C42.9729 35.9083 42.2481 33.9674 41.9204 33.0896L41.9203 33.0894C41.9026 33.0419 41.886 32.9976 41.871 32.9568C41.5768 32.1533 43.018 32.3448 43.6269 32.4258L43.6269 32.4258C43.7056 32.4362 43.7705 32.4448 43.8158 32.4492C43.9023 32.4567 43.9588 32.5031 43.9852 32.5885L44.3812 33.9069C44.4032 33.9818 44.4516 34.0252 44.5264 34.0372L45.9256 34.273C45.9597 34.2784 45.9947 34.2733 46.026 34.2585C46.0574 34.2438 46.0838 34.2199 46.1017 34.19C46.1197 34.1601 46.1284 34.1255 46.1268 34.0907C46.1252 34.0559 46.1134 34.0224 46.0928 33.9945C45.6132 33.3336 45.6397 32.6685 45.6677 31.9656C45.6812 31.627 45.695 31.2796 45.6528 30.9196C45.6486 30.8805 45.6307 30.8442 45.6024 30.8174C45.5742 30.7906 45.5374 30.775 45.4988 30.7737C44.7347 30.7467 44.0189 30.9241 43.3516 31.306C43.2806 31.3467 43.1974 31.3609 43.1162 31.3464C42.5413 31.237 42.6039 30.7509 42.674 30.2059C42.758 29.5539 42.8529 28.8176 41.8798 28.5411C40.5451 28.1607 39.3425 27.5199 38.2718 26.6185C38.2175 26.572 38.1831 26.5136 38.1684 26.4433C37.9836 25.5651 38.747 24.9609 39.2948 25.9357C39.9922 27.18 40.5796 27.3888 41.9612 27.3507C42.0389 27.3492 42.1027 27.3177 42.1526 27.2563C42.2534 27.1333 42.3413 26.9989 42.4283 26.8659C42.6034 26.5983 42.7747 26.3365 43.0392 26.185C43.883 25.7049 44.8012 26.2229 45.6924 26.7257C46.444 27.1498 47.1764 27.5629 47.8286 27.3574C47.8552 27.3494 47.8789 27.3336 47.8968 27.3119C47.9146 27.2903 47.9259 27.2637 47.9291 27.2353C47.9324 27.207 47.9275 27.1782 47.9152 27.1524C47.9028 27.1267 47.8834 27.105 47.8594 27.0901C46.5717 26.3175 45.2275 25.6789 43.8268 25.1742C43.2892 24.9813 42.1996 25.977 41.6333 26.4946C41.56 26.5615 41.4954 26.6205 41.442 26.6679C41.4239 26.6832 41.401 26.6915 41.3773 26.6914C41.3537 26.6913 41.3308 26.6827 41.313 26.6672C41.2952 26.6518 41.2835 26.6304 41.2802 26.607C41.2768 26.5837 41.2819 26.5598 41.2946 26.5398C41.3307 26.4813 41.3784 26.3979 41.4355 26.2982L41.4356 26.298C41.8032 25.656 42.5596 24.3347 43.1118 24.5543C44.5271 25.1143 46.2747 25.9851 48.3544 27.1665C48.4198 27.2028 48.4951 27.2155 48.5678 27.2024C49.1017 27.0976 49.5791 26.8723 50 26.5264ZM15.9792 24.1074C15.8714 23.7121 15.79 22.1758 16.5468 22.2476C16.6007 22.2529 16.6524 22.272 16.697 22.3032C16.7417 22.3345 16.7778 22.3768 16.802 22.4262C16.8262 22.4756 16.8377 22.5305 16.8354 22.5857C16.8331 22.6409 16.817 22.6946 16.7888 22.7418C16.6861 22.911 16.5336 23.0233 16.3312 23.0787C16.2927 23.0893 16.2582 23.1112 16.232 23.1416C16.2058 23.1719 16.189 23.2094 16.1838 23.2494L16.0804 24.1006C16.0599 24.2758 16.0261 24.2781 15.9792 24.1074ZM39.3927 22.2819C39.4497 22.2607 39.5121 22.2597 39.5698 22.2791C40.188 22.479 40.1594 23.4178 40.012 24.049C40.0017 24.0954 39.9768 24.1066 39.9372 24.0827C39.8941 24.0569 39.8861 23.9594 39.8755 23.8295C39.8547 23.5746 39.8236 23.1949 39.4972 22.9866C39.2508 22.8271 39.0748 22.6856 39.2552 22.3959C39.2872 22.3432 39.3356 22.303 39.3927 22.2819ZM17.5645 34.1336C17.5886 34.2067 17.6372 34.2688 17.7018 34.3089C17.9768 34.4774 18.3464 34.7447 18.3574 35.1018C18.3882 36.1462 15.4996 35.6566 14.459 35.4522C14.3681 35.4342 14.3277 35.3788 14.338 35.286L14.4282 34.4594C14.4325 34.4192 14.4501 34.3817 14.4781 34.3531C14.5061 34.3245 14.5428 34.3066 14.5822 34.3022C14.8057 34.2767 15.093 34.2828 15.3924 34.2893C15.9095 34.3004 16.4626 34.3123 16.7844 34.1629C17.2466 33.9498 17.4619 33.2341 17.6585 32.5805C17.8017 32.1048 17.9349 31.662 18.1462 31.4699C18.1765 31.4421 18.2152 31.4254 18.256 31.4226C18.2968 31.4198 18.3372 31.4311 18.3707 31.4546C18.4042 31.4781 18.4288 31.5124 18.4403 31.5519C18.4519 31.5914 18.4498 31.6338 18.4344 31.6721L17.5698 33.9091C17.5422 33.981 17.5403 34.0605 17.5645 34.1336ZM37.6382 34.9558C37.7658 34.6878 37.9638 34.4864 38.2322 34.3516C38.3169 34.3102 38.3831 34.2374 38.4173 34.1478C38.4516 34.0582 38.4515 33.9585 38.417 33.8687L37.5612 31.6788C37.5467 31.6419 37.5441 31.6012 37.5539 31.5627C37.5637 31.5242 37.5853 31.4899 37.6155 31.4648C37.6457 31.4397 37.683 31.4251 37.7219 31.4232C37.7609 31.4213 37.7994 31.4322 37.8318 31.4542C37.9066 31.5066 37.9616 31.6002 37.9968 31.735C38.2256 32.593 38.5842 33.3881 39.0726 34.1203C39.1151 34.1847 39.1745 34.2183 39.2508 34.2213L41.3056 34.2775C41.3466 34.2788 41.3865 34.2916 41.4211 34.3145C41.4556 34.3375 41.4834 34.3697 41.5014 34.4078C41.6393 34.7042 41.6825 35.0209 41.6312 35.3578C41.6209 35.4267 41.5821 35.4671 41.5146 35.4791L41.4993 35.482C40.6583 35.6381 37.942 36.1424 37.625 35.1669C37.6015 35.0951 37.6059 35.0247 37.6382 34.9558ZM17.1504 32.7952C17.0273 32.9373 16.8621 33.0156 16.6912 33.0129C16.5202 33.0101 16.3576 32.9266 16.2389 32.7806C16.1203 32.6346 16.0554 32.4382 16.0585 32.2345C16.0616 32.0308 16.1325 31.8365 16.2556 31.6944C16.3787 31.5523 16.5439 31.474 16.7148 31.4768C16.8858 31.4795 17.0484 31.563 17.1671 31.709C17.2857 31.855 17.3506 32.0514 17.3475 32.2551C17.3444 32.4588 17.2735 32.6531 17.1504 32.7952ZM39.54 32.9558C39.4616 32.994 39.3777 33.0134 39.2931 33.013C39.2084 33.0125 39.1247 32.9922 39.0467 32.9532C38.9687 32.9142 38.8979 32.8572 38.8384 32.7855C38.7789 32.7139 38.7319 32.629 38.7 32.5356C38.668 32.4422 38.6519 32.3423 38.6524 32.2414C38.6529 32.1405 38.6701 32.0407 38.703 31.9477C38.7358 31.8547 38.7838 31.7702 38.844 31.6992C38.9042 31.6282 38.9756 31.572 39.054 31.5338C39.1324 31.4956 39.2163 31.4762 39.3009 31.4767C39.3856 31.4771 39.4693 31.4974 39.5473 31.5365C39.6253 31.5755 39.6961 31.6324 39.7556 31.7041C39.8151 31.7757 39.8621 31.8607 39.894 31.954C39.926 32.0474 39.9421 32.1474 39.9416 32.2483C39.9411 32.3491 39.9239 32.4489 39.891 32.542C39.8582 32.635 39.8102 32.7194 39.75 32.7904C39.6898 32.8614 39.6185 32.9176 39.54 32.9558ZM27.0914 40.0184C27.4236 40.2116 27.813 40.3239 28.1738 40.4047C28.2442 40.4212 28.3139 40.4189 28.3828 40.398C28.4599 40.3735 28.5437 40.3503 28.6297 40.3264L28.6297 40.3264C28.8432 40.2673 29.0705 40.2043 29.243 40.1082C32.0766 38.5158 34.4768 37.3007 37.3632 36.6336C38.9956 36.2563 39.3498 37.4938 38.076 38.2979C35.4492 39.954 32.6171 40.9969 29.5796 41.4267C28.6747 41.554 27.7697 41.551 26.8648 41.4177C23.8889 40.9775 21.1008 39.951 18.5004 38.3384C17.506 37.7229 17.2574 36.2585 18.8128 36.5864C21.8488 37.2266 24.3986 38.4596 27.0914 40.0184ZM33.1172 23.1314C33.4223 23.3155 33.5814 23.6105 33.5946 24.0163C33.6081 24.4026 33.624 24.8079 33.6403 25.2255L33.6403 25.2262L33.6405 25.2297L33.6405 25.2312C33.7391 27.7455 33.8551 30.7054 33.5704 32.6591C33.1744 35.3566 31.5112 37.7689 28.9284 38.7122C28.7201 38.7871 28.5038 38.7968 28.2794 38.7414C25.5096 38.0451 22.467 35.6419 22.3966 32.4502C22.3365 29.707 22.324 26.9646 22.3592 24.2229C22.3724 23.2526 22.7618 23.028 23.6418 23.0213C26.6866 22.9973 29.7028 22.9936 32.6904 23.0101C32.8429 23.0101 32.9852 23.0505 33.1172 23.1314ZM32.6596 23.4907C29.6031 23.4383 26.5465 23.4301 23.49 23.466C22.8806 23.4728 22.7244 23.6277 22.7222 24.2656C22.7163 26.9669 22.7178 29.6674 22.7266 32.3671C22.7266 32.8568 22.8476 33.434 23.0456 33.8787C24.0723 36.1742 25.8059 37.6409 28.2464 38.2787C28.484 38.3416 28.6138 38.3708 28.8602 38.281C31.025 37.4971 32.4748 35.5835 33.0556 33.3689C33.2169 32.7504 33.2859 31.8228 33.2624 30.586C33.2213 28.4358 33.2316 26.2878 33.2932 24.1421C33.3042 23.7378 33.071 23.4975 32.6596 23.4907ZM32.4695 24.146C32.3904 24.0665 32.2844 24.0212 32.1734 24.0195C29.4307 23.9821 26.6697 23.9985 23.8904 24.0689C23.5252 24.0794 23.3389 24.2508 23.3316 24.5833C23.3125 25.6569 23.3118 27.9636 23.3294 31.5033C23.3382 33.0352 23.5054 33.7898 24.3018 34.969C25.3461 36.5143 26.7086 37.4846 28.3894 37.8799C28.4642 37.8979 28.5375 37.8934 28.6094 37.8664C31.2604 36.8669 32.6266 34.239 32.664 31.4225C32.6963 29.0791 32.6743 26.7537 32.598 24.4462C32.5946 24.333 32.5486 24.2254 32.4695 24.146ZM23.897 24.5585L32.0678 24.5518C32.1382 24.5518 32.1734 24.5877 32.1734 24.6596C32.1866 26.7335 32.1888 28.8006 32.18 30.861C32.1741 32.1248 32.0649 33.0793 31.8522 33.7247C31.3271 35.3149 30.2946 36.4948 28.7546 37.2645C28.6199 37.3324 28.4657 37.3476 28.3212 37.3071C25.8594 36.6176 23.8376 34.5715 23.809 31.8717C23.7826 29.4774 23.7665 27.0861 23.7606 24.6978C23.7591 24.605 23.8046 24.5585 23.897 24.5585ZM29.3662 26.7353H27.109C27.0547 26.7351 27.0011 26.7483 26.9529 26.7739C26.9046 26.7995 26.8632 26.8365 26.8321 26.882C26.8009 26.9275 26.7811 26.98 26.7741 27.035C26.7672 27.09 26.7734 27.1459 26.7922 27.1979L27.4082 28.9184C27.4487 29.0309 27.5289 29.124 27.6331 29.1792C27.7373 29.2345 27.8579 29.248 27.9714 29.2171L29.9822 28.6713C30.0468 28.654 30.1145 28.6519 30.18 28.6651C30.2456 28.6783 30.3074 28.7065 30.3607 28.7475C30.4141 28.7886 30.4576 28.8415 30.4881 28.9022C30.5185 28.9629 30.5351 29.0299 30.5366 29.0981C30.5454 29.5219 30.442 29.9089 30.2264 30.2593C30.1824 30.3312 30.1193 30.3716 30.0372 30.3806C29.8832 30.3971 29.7468 30.3596 29.628 30.2683C29.089 29.8528 28.5566 29.8303 28.0022 30.2503C27.9421 30.2967 27.9267 30.3559 27.956 30.4278L29.7336 34.7514C29.7558 34.8055 29.7654 34.864 29.7616 34.9225C29.7578 34.981 29.7407 35.0378 29.7117 35.0884C29.6827 35.1389 29.6425 35.1819 29.5943 35.2139C29.5462 35.2458 29.4914 35.2659 29.4344 35.2725L27.8372 35.4589C27.7986 35.4634 27.7596 35.4557 27.7257 35.4368C27.6918 35.4179 27.6646 35.3887 27.648 35.3534C27.5344 35.1065 27.4978 34.8461 27.4623 34.5938V34.5937V34.5937C27.4333 34.3868 27.405 34.1854 27.3356 34.0012L24.6428 26.7375C24.5211 26.4081 24.5702 26.158 24.7902 25.9873C25.1653 25.6987 28.1397 25.7783 29.7223 25.8206C30.098 25.8307 30.3953 25.8386 30.5608 25.8391C30.6273 25.8391 30.6982 25.8292 30.7722 25.8189C30.9552 25.7934 31.1573 25.7653 31.3594 25.8773C31.3902 25.8936 31.4163 25.9179 31.4352 25.9478C31.4541 25.9777 31.4651 26.0122 31.4672 26.048C31.5464 27.4585 29.7512 28.4737 29.4784 26.8296C29.4667 26.7667 29.4293 26.7353 29.3662 26.7353ZM9.62121 27.6248C10.2064 27.8224 10.7667 27.788 11.302 27.5214C11.3161 27.5149 11.3319 27.5131 11.347 27.5163C11.3622 27.5196 11.376 27.5277 11.3863 27.5395C11.3966 27.5513 11.403 27.5661 11.4044 27.5819C11.4059 27.5976 11.4024 27.6134 11.3944 27.627L11.1172 28.0605C11.1015 28.0847 11.0922 28.1126 11.0902 28.1415C11.0882 28.1704 11.0936 28.1994 11.1057 28.2256C11.1179 28.2518 11.1365 28.2744 11.1597 28.2911C11.1829 28.3078 11.2099 28.3181 11.2382 28.321C11.2699 28.3244 11.3126 28.3293 11.364 28.3352C11.9012 28.3969 13.3982 28.5688 13.4404 28.2245C13.4439 28.198 13.4411 28.1709 13.4323 28.1452C13.4235 28.1195 13.409 28.0959 13.3898 28.0762C13.3045 27.9882 13.2231 27.9036 13.1452 27.8226L13.145 27.8224L13.1449 27.8223L13.1447 27.8221C11.8472 26.4732 11.5036 26.116 9.58821 27.3575C9.56496 27.3724 9.54642 27.3937 9.53472 27.419C9.52303 27.4443 9.51865 27.4725 9.5221 27.5005C9.52555 27.5284 9.53669 27.5549 9.55422 27.5769C9.57176 27.5989 9.59498 27.6155 9.62121 27.6248ZM44.7618 27.5459C44.7394 27.533 44.7124 27.529 44.6863 27.5345C44.6601 27.5401 44.637 27.5548 44.6217 27.5757C44.6063 27.5966 44.6 27.622 44.604 27.6465C44.6079 27.6711 44.6219 27.693 44.643 27.7076C44.7809 27.8244 44.8615 27.9719 44.885 28.1501C44.8997 28.2714 44.8469 28.335 44.7266 28.341L42.707 28.4421C42.6708 28.444 42.6349 28.4347 42.604 28.4154C42.573 28.3962 42.5485 28.3679 42.5336 28.3342C42.5186 28.3005 42.5139 28.263 42.5201 28.2265C42.5264 28.1901 42.5432 28.1564 42.5684 28.1299C42.6532 28.0402 42.734 27.954 42.8114 27.8715C44.119 26.4773 44.4442 26.1307 46.4382 27.3797C46.4593 27.3926 46.4762 27.4113 46.4871 27.4338C46.498 27.4562 46.5023 27.4814 46.4995 27.5063C46.4967 27.5312 46.487 27.5547 46.4714 27.5741C46.4559 27.5935 46.4352 27.6079 46.4118 27.6155C45.8427 27.8132 45.2927 27.79 44.7618 27.5459ZM19.6488 37.6016L19.2836 37.368C19.2646 37.3565 19.2504 37.3385 19.2433 37.3171C19.2362 37.2958 19.2369 37.2726 19.2451 37.2517C19.2534 37.2309 19.2686 37.2137 19.2882 37.2033C19.3078 37.1929 19.3303 37.19 19.3518 37.1951C19.4926 37.2235 19.6327 37.2595 19.772 37.3029C19.7901 37.3083 19.8094 37.3077 19.8272 37.301C19.8449 37.2944 19.86 37.2821 19.8704 37.266C19.8808 37.2499 19.8858 37.2308 19.8847 37.2116C19.8836 37.1923 19.8765 37.1739 19.8644 37.1591C19.7016 36.957 19.4889 36.835 19.2264 36.793C19.1355 36.7796 19.0768 36.8177 19.0504 36.9076L18.7424 37.9587C18.7329 37.9911 18.7348 38.026 18.7476 38.0574C18.7604 38.0889 18.7834 38.1151 18.8128 38.1317L18.8678 38.1609C18.9646 38.2133 19.0277 38.1863 19.057 38.08L19.1494 37.7633C19.154 37.747 19.1626 37.7321 19.1742 37.7199C19.1859 37.7078 19.2003 37.6988 19.2162 37.6936C19.232 37.6885 19.2489 37.6875 19.2653 37.6907C19.2817 37.6938 19.297 37.701 19.31 37.7117C19.4039 37.7865 19.5065 37.8113 19.618 37.7858C19.6371 37.7814 19.6545 37.7713 19.668 37.7568C19.6815 37.7422 19.6904 37.7239 19.6937 37.7042C19.697 37.6845 19.6945 37.6642 19.6865 37.646C19.6785 37.6277 19.6654 37.6123 19.6488 37.6016ZM36.5316 37.1546C36.9364 36.7975 37.7416 36.8289 37.4644 37.5881C37.4365 37.6645 37.3852 37.7146 37.3104 37.7386C37.0156 37.8299 36.9408 38.0298 37.086 38.3383C37.0945 38.3567 37.0977 38.3773 37.0952 38.3975C37.0927 38.4177 37.0847 38.4368 37.072 38.4525C37.0594 38.4683 37.0426 38.4801 37.0236 38.4865C37.0047 38.4929 36.9844 38.4937 36.965 38.4888C36.7095 38.422 36.5527 37.7076 36.4859 37.4031L36.4722 37.341C36.4561 37.2662 36.4759 37.204 36.5316 37.1546ZM36.8484 37.3343C36.7692 37.5612 37.053 37.6735 37.1344 37.4578C37.1399 37.4429 37.1422 37.427 37.1412 37.4111C37.1402 37.3953 37.1359 37.3799 37.1285 37.366C37.1212 37.3521 37.1111 37.3401 37.0988 37.3307C37.0865 37.3214 37.0724 37.3149 37.0574 37.3118L36.9276 37.2871C36.9113 37.2836 36.8943 37.2865 36.8797 37.2952C36.8652 37.3039 36.854 37.3178 36.8484 37.3343ZM20.6542 38.5854L20.3418 38.4304C20.2773 38.3989 20.2553 38.348 20.2758 38.2777L20.5222 37.4286C20.532 37.3876 20.5261 37.3442 20.5058 37.3074C20.4854 37.2707 20.4521 37.2432 20.4125 37.2306C20.373 37.218 20.3303 37.2212 20.293 37.2397C20.2558 37.2581 20.2268 37.2903 20.212 37.3298L19.8644 38.4416C19.838 38.5255 19.8651 38.5839 19.9458 38.6168L20.597 38.8863C20.7011 38.9283 20.7488 38.8923 20.74 38.7785L20.7356 38.7089C20.7337 38.6829 20.7252 38.6578 20.7109 38.6361C20.6966 38.6145 20.6771 38.597 20.6542 38.5854ZM35.6824 38.5697C35.6974 38.611 35.7274 38.6449 35.7661 38.6645C35.8049 38.684 35.8494 38.6877 35.8907 38.6748C35.9321 38.6619 35.967 38.6333 35.9884 38.595C36.0097 38.5567 36.016 38.5115 36.0058 38.4686L35.7814 37.5432C35.7746 37.5125 35.7779 37.4803 35.7907 37.4516C35.8036 37.423 35.8253 37.3995 35.8526 37.3846C35.8798 37.3698 35.9111 37.3646 35.9416 37.3697C35.972 37.3748 36 37.39 36.0212 37.413C36.36 37.7925 36.547 38.7471 35.8496 38.9403C35.7365 38.9713 35.6159 38.9554 35.5139 38.8962C35.4118 38.837 35.3364 38.7391 35.304 38.6236L35.1038 37.9138C35.0818 37.8345 35.1001 37.7648 35.1588 37.7049L35.2248 37.6376C35.2351 37.627 35.2479 37.6193 35.2619 37.6151C35.2759 37.6108 35.2907 37.6103 35.3048 37.6134C35.3189 37.6166 35.3319 37.6233 35.3425 37.6331C35.3532 37.6428 35.3611 37.6552 35.3656 37.669L35.6824 38.5697ZM22.049 37.9631C21.8862 37.9751 21.749 38.0477 21.6376 38.181C21.6241 38.1964 21.6063 38.2075 21.5866 38.2128C21.5669 38.218 21.5462 38.2172 21.5272 38.2104C21.5082 38.2036 21.4918 38.1912 21.48 38.1747C21.4683 38.1582 21.4619 38.1385 21.4616 38.1181L21.4506 37.8216C21.4491 37.7542 21.4176 37.7086 21.356 37.6846L21.1998 37.624C21.0736 37.576 21.037 37.615 21.0898 37.7407C21.2628 38.1525 21.2841 38.5665 21.1536 38.9828C21.148 38.9983 21.1459 39.015 21.1474 39.0317C21.149 39.0484 21.1541 39.0647 21.1624 39.0794C21.2592 39.2613 21.4198 39.2007 21.4748 39.0367C21.5921 38.6789 21.8084 38.4003 22.1238 38.2012C22.1484 38.1865 22.1675 38.1637 22.1777 38.1364C22.1879 38.1092 22.1888 38.0792 22.18 38.0515C22.1713 38.0237 22.1536 37.9998 22.1297 37.9837C22.1059 37.9677 22.0774 37.9604 22.049 37.9631ZM34.4355 39.5286C34.3548 39.5351 34.2735 39.5222 34.1961 39.4906C34.1187 39.459 34.0467 39.4093 33.9843 39.3445C33.9219 39.2796 33.8704 39.2008 33.8325 39.1125C33.7946 39.0243 33.7713 38.9283 33.7637 38.8301C33.7484 38.6317 33.7984 38.4363 33.9028 38.2868C34.0071 38.1373 34.1573 38.046 34.3201 38.0329C34.4008 38.0264 34.4821 38.0393 34.5595 38.0709C34.6369 38.1025 34.7089 38.1522 34.7713 38.217C34.8336 38.2819 34.8852 38.3607 34.9231 38.449C34.961 38.5372 34.9843 38.6332 34.9919 38.7314C35.0072 38.9297 34.9572 39.1252 34.8528 39.2747C34.7485 39.4242 34.5983 39.5155 34.4355 39.5286ZM34.4537 39.1812C34.4884 39.1731 34.5203 39.1546 34.5477 39.1266C34.5752 39.0987 34.5975 39.0619 34.6135 39.0184C34.6295 38.9748 34.6389 38.9254 34.6411 38.8729C34.6432 38.8204 34.6382 38.7658 34.6262 38.7123C34.6142 38.6589 34.5955 38.6075 34.5711 38.5612C34.5468 38.5149 34.5173 38.4745 34.4843 38.4424C34.4513 38.4104 34.4155 38.3872 34.379 38.3742C34.3424 38.3612 34.3057 38.3587 34.2711 38.3668C34.2364 38.3749 34.2045 38.3934 34.1771 38.4214C34.1496 38.4493 34.1273 38.4861 34.1113 38.5297C34.0953 38.5732 34.0859 38.6226 34.0837 38.6751C34.0816 38.7277 34.0866 38.7822 34.0986 38.8357C34.1106 38.8892 34.1293 38.9405 34.1537 38.9868C34.178 39.0331 34.2075 39.0735 34.2405 39.1056C34.2734 39.1377 34.3093 39.1609 34.3458 39.1738C34.3824 39.1868 34.4191 39.1893 34.4537 39.1812ZM22.6417 38.2157L22.6668 38.224C22.7466 38.2503 22.7904 38.3377 22.7646 38.4191L22.4306 39.475C22.4048 39.5564 22.3193 39.6011 22.2395 39.5748L22.2144 39.5665C22.1346 39.5402 22.0908 39.4529 22.1166 39.3714L22.4506 38.3156C22.4764 38.2341 22.5619 38.1894 22.6417 38.2157ZM23.7364 39.275C23.7364 39.0608 23.8119 38.8826 23.963 38.7404C23.9784 38.7265 23.9977 38.7179 24.0181 38.716C24.0386 38.714 24.0591 38.7188 24.0768 38.7295C24.0944 38.7403 24.1082 38.7565 24.1163 38.7758C24.1243 38.7951 24.1261 38.8166 24.1214 38.837L23.8332 40.0251C23.8212 40.0723 23.7936 40.1138 23.7551 40.1426C23.7165 40.1713 23.6694 40.1856 23.6218 40.1829C23.5741 40.1803 23.5288 40.1609 23.4936 40.128C23.4583 40.0952 23.4353 40.0509 23.4284 40.0027L23.3536 39.4749C23.351 39.4573 23.3428 39.4411 23.3303 39.4288C23.3178 39.4165 23.3017 39.4087 23.2844 39.4067C23.2671 39.4046 23.2497 39.4085 23.2348 39.4175C23.2198 39.4266 23.2083 39.4404 23.2018 39.4569L23.0632 39.8073C23.0578 39.8214 23.0495 39.8342 23.0389 39.8448C23.0283 39.8554 23.0157 39.8637 23.0018 39.869C22.9879 39.8743 22.973 39.8765 22.9582 39.8756C22.9434 39.8746 22.9289 39.8705 22.9158 39.8634L22.8476 39.8275C22.7918 39.796 22.7728 39.7489 22.7904 39.686L23.0852 38.6191C23.0972 38.5717 23.1256 38.5303 23.165 38.5024C23.2044 38.4745 23.2524 38.462 23.3001 38.4672C23.3478 38.4724 23.3921 38.4949 23.4249 38.5306C23.4578 38.5663 23.4769 38.6129 23.479 38.6618C23.4892 38.834 23.5171 39.0084 23.5626 39.1851C23.5685 39.2106 23.5819 39.2382 23.6003 39.2628C23.6187 39.2873 23.6407 39.307 23.6622 39.3181C23.6837 39.3292 23.7031 39.3309 23.7168 39.323C23.7305 39.315 23.7375 39.2979 23.7364 39.275ZM32.961 40.1643C33.0138 39.9996 33.0087 39.8364 32.9456 39.6747C32.9382 39.6566 32.9365 39.6367 32.9407 39.6176C32.9449 39.5985 32.9548 39.5812 32.9691 39.5681C32.9834 39.555 33.0012 39.5468 33.0203 39.5446C33.0393 39.5423 33.0586 39.5462 33.0754 39.5557C33.1209 39.5804 33.1733 39.6273 33.2298 39.6778C33.3836 39.8153 33.5671 39.9794 33.72 39.7937C33.7699 39.7308 33.7669 39.6702 33.7112 39.6118L33.4384 39.3355C33.3915 39.2861 33.3834 39.2315 33.4142 39.1716C33.5007 39.0069 33.4949 38.8354 33.3966 38.6572C33.3743 38.6159 33.3387 38.5836 33.2958 38.566C33.2529 38.5484 33.2053 38.5465 33.1612 38.5606L32.4968 38.7718C32.4574 38.7841 32.4245 38.812 32.4051 38.8494C32.3857 38.8869 32.3815 38.9308 32.3934 38.9717L32.752 40.1621C32.759 40.1846 32.7728 40.2043 32.7914 40.2184C32.81 40.2325 32.8325 40.2402 32.8557 40.2405C32.8789 40.2407 32.9015 40.2335 32.9204 40.2198C32.9393 40.2061 32.9535 40.1867 32.961 40.1643ZM32.8715 38.9074C32.9001 38.8985 32.9309 38.8998 32.9588 38.911L33.1304 38.9784C33.1435 38.9834 33.1551 38.9917 33.1641 39.0026C33.1731 39.0135 33.1792 39.0265 33.1818 39.0405C33.1845 39.0545 33.1836 39.0689 33.1792 39.0824C33.1748 39.0959 33.1671 39.1081 33.1568 39.1177C33.0233 39.242 32.9075 39.2464 32.8092 39.1311C32.7896 39.1076 32.7782 39.0779 32.7767 39.047C32.7752 39.016 32.7837 38.9854 32.8009 38.9601C32.8181 38.9349 32.8429 38.9163 32.8715 38.9074ZM31.4694 40.1734C31.6058 40.3351 31.7378 40.3703 31.8654 40.2789C31.9387 40.2265 31.9431 40.1674 31.8786 40.1015L31.7532 39.9735C31.7368 39.9567 31.7246 39.9351 31.7183 39.9117C31.712 39.8883 31.7118 39.8642 31.7178 39.8427C31.7238 39.8211 31.7357 39.8031 31.7518 39.7912C31.768 39.7792 31.7877 39.7739 31.8082 39.7758C31.8654 39.7818 31.8962 39.7489 31.9006 39.677C31.9028 39.6492 31.9131 39.6228 31.9301 39.6011C31.9472 39.5794 31.9702 39.5634 31.9963 39.5552C32.0223 39.5469 32.0502 39.5469 32.0763 39.555C32.1023 39.5631 32.1254 39.579 32.1426 39.6006C32.7542 40.3553 31.7026 40.9505 31.2538 40.3935C30.9165 39.9742 31.0367 39.5153 31.6146 39.0166C31.657 38.9798 31.7099 38.9579 31.7654 38.9541C31.821 38.9503 31.8762 38.9648 31.9231 38.9955C31.9699 39.0262 32.0058 39.0715 32.0256 39.1246C32.0453 39.1778 32.0477 39.236 32.0326 39.2907C32.0267 39.3116 32.0223 39.3303 32.0194 39.3468C32.0018 39.4367 31.9483 39.4816 31.8588 39.4816H31.7818C31.7034 39.4818 31.6267 39.5049 31.5607 39.5482C31.4948 39.5915 31.4423 39.6531 31.4095 39.7257C31.3766 39.7984 31.3648 39.8792 31.3755 39.9585C31.3861 40.0378 31.4187 40.1123 31.4694 40.1734ZM24.9002 40.0093L24.9178 40.2586C24.9197 40.3027 24.9057 40.346 24.8784 40.3802C24.851 40.4144 24.8123 40.4371 24.7696 40.4441C24.7269 40.451 24.6832 40.4417 24.6469 40.4178C24.6105 40.394 24.584 40.3573 24.5724 40.3147C24.4712 39.8925 24.5577 39.6207 24.832 39.4994C24.92 39.4605 24.9904 39.4814 25.0432 39.5623L25.1752 39.7644C25.1985 39.7971 25.2327 39.8198 25.2714 39.8283C25.31 39.8368 25.3504 39.8304 25.3847 39.8103C25.4191 39.7903 25.445 39.7581 25.4574 39.7197C25.4699 39.6814 25.4681 39.6398 25.4524 39.6027C24.8386 38.318 23.49 40.2002 24.634 40.6224C25.4216 40.9122 25.5866 39.9351 25.0036 39.9015C24.9896 39.9008 24.9757 39.9031 24.9627 39.9084C24.9498 39.9136 24.938 39.9215 24.9282 39.9317C24.9185 39.9419 24.9109 39.9541 24.9061 39.9674C24.9013 39.9808 24.8992 39.9951 24.9002 40.0093Z" fill="#101923"/>
</svg>
