<!-- by TradingView --><svg width="56" height="56" viewBox="0 0 56 56" xmlns="http://www.w3.org/2000/svg"><path fill="#F0F3FA" d="M0 0h56v56H0z"/><path d="M52 26.07 40.41 21c-1.3 6.39-7.14 8.93-11.91 8.93-3.81 0-5.89-.7-6.5-1.1C23.73 30.8 28.5 34 37.16 34c10.05 0 14.08-5.29 14.84-7.93ZM19.34 21C10.75 21 5.54 26.4 4 29l2.63 1.32c1.1-7.04 9.97-8.88 12.5-8.88 2.01 0 4.66.45 5.87.56-1.1-.26-3.55-1-5.66-1Z" fill="#C29E6F"/><path d="M9.68 32 7 30.68C12.25 23.44 20.18 23 23.3 23c2.5 0 4.84.7 5.7 1-1.34-.18-4.36-.67-5.7-.67-9.47 0-13.02 5.78-13.62 8.67Z" fill="#C29E6F"/><path d="M26.03 24.45c-8.5 0-13.77 5.1-15.35 7.73.48.22 1.67.8 2.63 1.32.66-6.7 9.76-8.5 12.72-8.5 2.36 0 4.41.39 5.47.5-1.24-.3-3.54-1.05-5.47-1.05Z" fill="#C29E6F"/><path d="M29.15 26C21.1 26 15.7 31.2 14 33.8c.43.22 1.54.77 2.49 1.2.65-6.83 10.17-8.46 12.66-8.46 2 0 4.73.3 5.85.44-.9-.33-3.33-.98-5.85-.98Z" fill="#C29E6F"/></svg>