<!-- by TradingView --><svg width="56" height="56" viewBox="0 0 56 56" xmlns="http://www.w3.org/2000/svg"><path fill="#F0F3FA" d="M0 0h56v56H0z"/><path d="M25.1 39.7a12.87 12.87 0 0 1-9.77-15.51A13.1 13.1 0 0 1 30.9 14.3a12.87 12.87 0 0 1 9.76 15.5 13.1 13.1 0 0 1-15.56 9.9Zm.97-21.14c.2.68 1.14 4.49 1.61 4.69a.09.09 0 0 0 .08 0 .08.08 0 0 0 .04-.07l-.02-8.58c0-.07-.04-.1-.1-.1-.76.05-1.5.13-2.25.25a12.37 12.37 0 0 0-4.2 1.9.17.17 0 0 0-.02.13l.03.06c1.6 2.12 3.2 4.28 4.81 6.47.17.24.38.34.61.3.04 0 .07-.02.09-.04a.14.14 0 0 0 .03-.08c.02-.22 0-.44-.08-.65a23.88 23.88 0 0 1-1.07-4.17c-.01-.08.02-.13.1-.15l.2-.05c.07-.02.12.01.14.09Zm4.9.16a.16.16 0 0 1 .12.07.16.16 0 0 1 .02.14l-1.43 4.3a.31.31 0 0 0 .11.37c.48.38 1.02-.63 1.24-.95a118.1 118.1 0 0 1 4.3-5.72c.03-.05.02-.09-.02-.12a11.4 11.4 0 0 0-6.6-2.31c-.14 0-.2.05-.21.18a103.07 103.07 0 0 0-.05 8.44l.05.06c.76.57.93-1.1 1.05-1.43a97 97 0 0 0 1.07-2.97.14.14 0 0 1 .15-.09l.2.03Zm-6.17 6.12a1999.47 1999.47 0 0 1-3.9-2.8.16.16 0 0 1 .06-.2c.16-.11.33-.1.51 0 1.3.82 2.56 1.66 3.8 2.52a.31.31 0 0 0 .4-.04.3.3 0 0 0 .07-.13c.1-.38-4.38-6.1-4.99-6.9a.28.28 0 0 0-.3-.1 12.44 12.44 0 0 0-4.16 5.72c-.04.13 0 .2.12.24 2.13.66 4.32 1.27 6.55 1.84.47.11.95.28 1.45.48a.43.43 0 0 0 .44-.06c.23-.2.22-.38-.05-.57Zm10.33-2.81a.15.15 0 0 1 .12.1.15.15 0 0 1-.03.15c-.14.15-.31.3-.52.44-1.04.72-2.09 1.43-3.14 2.12-.21.14-.3.32-.24.55a.27.27 0 0 0 .13.18.28.28 0 0 0 .21.03l8.1-2.39c.07-.02.1-.06.07-.13-.68-2.22-1.9-4.1-3.65-5.66-.14-.13-.28-.12-.42.01-.12.12-.24.26-.36.42-1.6 2.1-3.16 4.19-4.7 6.27a.27.27 0 0 0 .03.35.28.28 0 0 0 .35.03c.58-.4 3.5-2.54 4.05-2.47Zm-10.66 4a10.6 10.6 0 0 1-1.66-.34c-2.19-.65-4.4-1.22-6.6-1.83a.25.25 0 0 0-.31.17c-.35 1.29-.46 2.6-.31 3.92 0 .07.04.09.1.05 2.36-1.53 4.73-1.97 7.56-1.83a7.41 7.41 0 0 0 1.25-.07.04.04 0 0 0 0-.06h-.03Zm10 .14c.54.03 1.1-.01 1.61.1 1.46.34 2.84.92 4.12 1.75.13.08.2.04.2-.1a18.94 18.94 0 0 0-.24-3.92.22.22 0 0 0-.15-.1l-.1.01-7.63 2.14a.05.05 0 0 0 .01.1c.74 0 1.41-.03 2.18.02Zm-3.9.13a2.48 2.48 0 0 0-3.04-1.98c-.83.19-1.93 1.17-1.82 2.05 0 .05.03.1.06.13.04.03.09.05.13.06 1.31.16 3.27.46 4.53-.02.11-.04.16-.13.14-.24Zm9.28 3.25c-2.45-1.83-5.17-2.27-8.13-1.74-2.28.4-4.44.38-6.73.06a28.01 28.01 0 0 0-2.6-.28c-2.3-.03-4.58.44-6.4 1.9a.12.12 0 0 0-.04.13l.08.53c.02.1.06.11.14.06 2.85-1.92 5.83-2.28 9.19-1.48 1.16.28 2.98.42 4.33.16 3.36-.65 5.77-1.09 8.56.52a60.09 60.09 0 0 0 1.58.85.25.25 0 0 0 .26-.17c.1-.34-.03-.39-.24-.54Zm-12.25.77c-.84-.02-1.82-.13-2.94-.34a10.3 10.3 0 0 0-7.84 1.43c-.14.1-.25.21-.35.35a.12.12 0 0 0 0 .15l.2.27a.33.33 0 0 0 .45.08 9 9 0 0 1 6.8-1.57c2.17.36 4 .67 6.37.33.76-.11 1.6-.37 2.42-.52 2.37-.42 4.51.62 6.29 1.97a.14.14 0 0 0 .16 0 .13.13 0 0 0 .03-.03l.27-.45a.1.1 0 0 0 .02-.08.1.1 0 0 0-.04-.06c-2.8-2.3-5.34-2.67-8.84-1.71-.54.14-1.54.2-3 .18Zm4.56 1.52c-2.36.65-4.93.73-7.33.21-.23-.05-.48-.02-.7-.08-2.33-.62-4.71.3-6.58 1.67a.12.12 0 0 0-.03.14c.14.27.35.44.62.53a.2.2 0 0 0 .19-.02c2.02-1.32 3.73-2.02 6.29-1.48.38.09.8.04 1.23.17 1.11.33 3 .34 3.62.24 1.4-.23 3.05-.7 4.3-.62 1.54.09 2.55.74 3.95 1.66.05.03.1.05.16.04.3-.05.48-.2.53-.49.01-.06 0-.1-.06-.15-1.55-1.25-4.16-2.37-6.19-1.82Zm-1.2 2.41a9.86 9.86 0 0 1-5.2.14c-2.25-.55-5-.66-6.68 1.1a.1.1 0 0 0-.02.13c.14.25.35.41.62.5.06.02.12 0 .17-.04 1.59-1.36 3.52-1.35 5.46-.9 1.82.42 3.58.45 5.29.1 1.2-.26 2.21-.64 3.3-.4.82.2 1.55.57 2.2 1.11.34.28.68-.1.83-.36.03-.05.03-.1-.02-.14a5.22 5.22 0 0 0-4.46-1.46c-.75.08-1.25.15-1.5.22Zm-3.36 2.7c-2.01-.06-5.06-1.31-6.7.03-.04.03-.04.07-.01.12.12.16.25.29.4.38 4.13 2.45 8.35 2.59 12.67.4a6.2 6.2 0 0 0 1.24-.84.1.1 0 0 0-.04-.13c-.96-.62-2.1-1.04-3.27-.59-1.25.48-2.68.69-4.3.64Z" fill="#004401"/><path d="M15.23 35.56a.2.2 0 0 1-.1-.1l-.28-.82a.06.06 0 0 1 0-.06.06.06 0 0 1 .06-.02c.47.05.8-.03 1-.26a.56.56 0 0 0-.2-.89.19.19 0 0 0-.16 0l-.75.41c-.07.04-.12.03-.17-.03l-.2-.2c-.04-.07-.04-.13.01-.2.08-.07.17-.1.27-.07.06.01.1 0 .16-.04l.2-.15c.47-.37.93-.72.43-1.47-.23-.35-.75-.53-1.21-.69a7.7 7.7 0 0 1-.5-.16c-.03 0-.05 0-.08.02a1.6 1.6 0 0 0-.72.69.31.31 0 0 1-.12.12c-.97.55-.43 1.88.55 1.98.05.01.1.04.14.08a.25.25 0 0 1-.1.4 3.4 3.4 0 0 0-.98.5c-.05.03-.06.07-.03.12.46.8 1.01.45 1.57.1l.19-.12c.07-.04.13-.03.17.05l.47.87c.05.08.03.15-.04.2l-1.36 1.04a.1.1 0 0 0-.03.11.1.1 0 0 0 .1.07c1.77-.12 2.79.34 4.11 1.58l.3.3a19.08 19.08 0 0 0 4 3.14c.04.03.05.06 0 .1-.55.46-1.08.49-1.59.08-.34-.27-.5-.7-.65-1.13l-.16-.43a.24.24 0 0 0-.12-.12l-.5-.23a.26.26 0 0 1-.12-.1 2.57 2.57 0 0 0-.72-.64l-.27-.2c-.45-.38-.91-.74-1.38-1.1-.04-.03-.08-.02-.11.01l-.06.06a.08.08 0 0 0-.02.06.09.09 0 0 0 .03.07l.34.3a.2.2 0 0 1 .04.25.2.2 0 0 1-.24.07.9.9 0 0 1-.48-.44.1.1 0 0 0-.14-.05l-.08.04a.12.12 0 0 0-.07.12c0 .03.01.05.03.07l.06.04c.14.03.22.12.23.26a.15.15 0 0 0 .11.14l.45.1c.08.02.08.05.02.1-.36.25-.67.23-.94-.08a.42.42 0 0 0-.13-.1l-.12-.05a.09.09 0 0 0-.1.03.1.1 0 0 0 0 .12l.66.6c.06.06.1.13.1.2.03.28.18.45.45.49.06 0 .1.04.13.1.15.35.4.6.74.75.06.02.1 0 .14-.05.05-.07.04-.14-.03-.2a.09.09 0 0 1-.03-.09c0-.02.02-.03.03-.04a.08.08 0 0 1 .04-.02h.14c.02 0 .05 0 .08.02.02.01.04.04.04.07.03.13 0 .24-.08.33-.05.05-.05.1-.02.15.42.64 1.12.58 1.78.53l.35-.03c.05 0 .1.02.13.06.1.13.22.24.36.32l.02.02v.06l-.03.01c-.06.02-.12 0-.18-.05a.08.08 0 0 0-.08-.02.08.08 0 0 0-.05.05l-.14.32c-.02.07 0 .12.06.15.28.15.48.34.67.52.28.26.55.5 1.04.62.91.21 2.1-.43 2.91-.9a.64.64 0 0 1 .35-.1.4.4 0 0 1 .32.17.15.15 0 0 1 0 .17l-.64.88a.13.13 0 0 0 .03.18.12.12 0 0 0 .17-.02l.78-1.03a.16.16 0 0 1 .13-.07c.4 0 .8.03 1.2.07l.72.05c.56.02 1.16.06 1.72.18a.2.2 0 0 1 .12.07l.76 1.02a.12.12 0 0 0 .2-.04c.02-.03.01-.06 0-.1l-.1-.15c-.26-.38-.8-1.17-.4-1.3a.27.27 0 0 1 .22.04l.5.33c.64.44 1.47 1 2 1.01 1.15.04 1.63-.25 2.27-1.18a.23.23 0 0 0-.08-.34l-.11-.05c-.06-.03-.06-.07-.02-.11.2-.2.51-.14.83-.08.27.06.55.11.78.01.38-.16 1.16-.7 2.34-1.65.13-.11.2-.26.2-.45 0-.07.02-.11.08-.14a5.91 5.91 0 0 0 .9-.53.08.08 0 0 0-.02-.1.07.07 0 0 0-.04 0l-.27-.03c-.05 0-.1.02-.11.08-.4 1.05-1.55-.96-.72-.79a.1.1 0 0 0 .12-.05l.01-.05a.47.47 0 0 0-.12-.37c-.06-.07-.1-.06-.14.03a1 1 0 0 1-.6.66c-.81.3-1.5.73-2.04 1.27a.16.16 0 0 0-.05.16.4.4 0 0 1-.08.35.1.1 0 0 1-.06.04.1.1 0 0 1-.08-.02l-.16-.12a.11.11 0 0 0-.1-.02.12.12 0 0 0-.07.05c-.2.31-.33.65-.4 1.03 0 .05-.03.09-.07.12-.5.3-1.22.62-1.77.24-.05-.03-.05-.07 0-.1a95.3 95.3 0 0 1 1.6-1.12c.44-.3.91-.7 1.42-1.12 1.63-1.37 3.59-3 5.5-2.33a.16.16 0 0 0 .18-.07.16.16 0 0 0-.03-.2l-1.24-1.07a.14.14 0 0 1-.05-.08c0-.04 0-.07.02-.1l.42-.72c.04-.05.09-.1.15-.1a.22.22 0 0 1 .18.02l.95.57a.15.15 0 0 0 .15 0l.6-.36a.14.14 0 0 0 .07-.12.14.14 0 0 0-.07-.12 2.8 2.8 0 0 1-.87-.73.25.25 0 0 0-.16-.1c-.71-.1-1.4-.3-2.08-.56a.14.14 0 0 0-.16.04l-.33.43a.1.1 0 0 0-.01.12c.25.5.65.7 1.19.63a.14.14 0 0 1 .13.05.15.15 0 0 1 .03.14c-.19.57-.55.78-1.1.63-1.57-.43-3.15 1.15-4.43 2.44-.41.4-.8.79-1.14 1.07-.76.61-1.58 1.13-2.45 1.55a.5.5 0 0 1-.44 0c-1-.49-1.7-.44-2.63-.38l-.63.04c-.44.02-.83-.05-1.22-.11-.55-.1-1.1-.2-1.77-.04-.68.17-1.09.2-1.64-.19a26.36 26.36 0 0 1-4.25-3.66l-.01-.02c-1.15-1.22-1.87-1.99-3.47-1.45a.2.2 0 0 1-.15-.02ZM12.6 32.4c0-.04 0-.08.02-.11.1-.26.3-.4.57-.41a.1.1 0 0 0 .1-.1c.1-.9.72-.63 1.2-.3.04.03.1.05.15.05.29 0 .53.11.73.34.03.04.05.1.05.15a.64.64 0 0 1-.3.5.15.15 0 0 1-.14 0c-.33-.14-.69-.2-1.05-.14a.25.25 0 0 0-.15.06.97.97 0 0 1-.99.21.26.26 0 0 1-.17-.14.27.27 0 0 1-.02-.11Zm1.1.34.58-.07.05.01.02.05v.02a.4.4 0 0 1-.07.27.34.34 0 0 1-.51.06.38.38 0 0 1-.13-.25v-.07a.07.07 0 0 1 .05-.02Zm2.07 1.2a.1.1 0 0 1-.02.04.7.7 0 0 1-.71.3c-.07 0-.08-.03-.04-.09a.77.77 0 0 1 .67-.36.1.1 0 0 1 .09.05v.05Zm-2.81.7c.32-.08.6-.23.82-.47.03-.11.14-.13.32-.06.05.02.07.06.03.1-.15.23-.96.99-1.22.56-.04-.07-.02-.1.05-.12Zm27.86.43.03.09c-.01.05-.09.1-.21.11a1.8 1.8 0 0 1-.89-.18.46.46 0 0 1-.13-.1l-.03-.09c.01-.05.09-.09.21-.1.13-.02.3-.01.46.02a1.82 1.82 0 0 1 .43.15l.13.1Zm1.44 1.02-.98-.65h-.01v-.06c.06-.09.17-.14.31-.15.14 0 .29.05.42.14l.03.02c.07.04.13.1.18.15l.12.18c.02.07.04.13.03.19a.3.3 0 0 1-.04.16.03.03 0 0 1-.06.02Zm-24.34 1.26c-.12-.12-.27-.2-.45-.26-.1-.03-.12 0-.08.08.1.21.21.39.36.52l.86.78a31.32 31.32 0 0 0 3.92 3.2c.05.03.05.06 0 .1-.72.44-4.38-3.06-5.21-3.86a4.4 4.4 0 0 0-2.93-1.23c-.08 0-.09-.03-.02-.07 1.18-.8 2.49-1.13 3.62 0l.7.72c1.5 1.53 3.1 3.15 4.91 4.01.1.05.1.08-.01.1l-.55.1a.23.23 0 0 1-.16-.04 31.66 31.66 0 0 1-4.96-4.15Zm19.58.38a.13.13 0 0 0-.07.02l-.67.56c-1.45 1.2-4.46 3.72-5 3.44-.05-.03-.05-.06 0-.09l.03-.01c.65-.38 1.3-.75 1.87-1.25.8-.68 1.69-1.5 2.67-2.45.98-.95 3.08-2.07 4.25-.67a.1.1 0 0 1-.01.13 4.76 4.76 0 0 0-3 1.31c-.6.5-4.53 3.64-5 3.49-.14-.05-.15-.11-.03-.19.7-.45 5.16-3.65 5.1-4.17a.14.14 0 0 0-.07-.12.13.13 0 0 0-.07 0Zm-20.8 1.95.33-.24a.17.17 0 0 0 .08-.15v-.12l.02-.01a.04.04 0 0 1 .05.02c.06.12.15.2.27.23.1.04.11.1.03.16l-.94.8c-.07.07-.13.06-.18-.01l-.11-.15c-.04-.05-.03-.09.03-.1a.4.4 0 0 0 .34-.3.2.2 0 0 1 .08-.13Zm1.78 1.45c-.36.1-.65.01-.86-.25-.04-.05-.07-.04-.08.02-.04.2-.3.34-.46.22A.15.15 0 0 1 17 41a.16.16 0 0 1 .05-.13c.15-.13.3-.27.48-.4l.2-.2c.17-.2.33-.4.73-.1.07.05.07.1-.02.14a.51.51 0 0 1-.49-.02c-.06-.03-.09 0-.09.06v.33a.08.08 0 0 0 .05.07h.05l.04-.02c.08-.1.2-.14.34-.09.03 0 .05.03.06.06l.1.35c.02.04 0 .07-.03.08Zm19.56-.52-.88-.3v-.02a.39.39 0 0 1 .2-.24.45.45 0 0 1 .35-.01l.06.02a.48.48 0 0 1 .26.22c.03.05.05.1.05.16a.4.4 0 0 1-.02.16v.01h-.02Zm-1.33-.25.33.06c.05 0 .06.04.05.08-.12.28-.55.18-.5-.06.02-.07.06-.1.12-.08Zm-.4.23c.17 0 .28.1.34.26.02.06.07.11.13.14l.1.05a.2.2 0 0 1 .1.11l.1.22a.16.16 0 0 0 .12.1c.17.02.33.07.48.13.07.03.08.07.04.13a.34.34 0 0 1-.34.15c-.03 0-.06 0-.08.02a.16.16 0 0 0-.06.06l-.07.13a.16.16 0 0 1-.17.08.16.16 0 0 1-.12-.15l-.02-.43c0-.05-.03-.08-.08-.1-.4-.09-.6-.35-.59-.8a.12.12 0 0 1 .04-.07.11.11 0 0 1 .08-.03ZM18.78 41.6l.34-.29c.06-.05.05-.08-.03-.1-.21-.06-.32-.2-.32-.43 0-.08.03-.1.1-.09.27.06.4.24.37.53a.14.14 0 0 0 .05.13c.17.13.28.3.34.5a.09.09 0 0 1-.05.1l-.04.01-1.35-.08a.18.18 0 0 1-.16-.12.19.19 0 0 1 .04-.2.4.4 0 0 1 .37-.11c.05 0 .09.02.12.06l.08.08a.1.1 0 0 0 .14 0Zm9.24.12-.01-.06a.08.08 0 0 0-.07-.05h-.27a.1.1 0 0 0-.06.03.11.11 0 0 0 .02.18l.3.12c.04.01.05.03.03.07-.13.18-.36.07-.6-.06-.29-.14-.6-.3-.8 0a.19.19 0 0 1-.13.07c-.47.03-.78.25-1.08.45-.12.08-.23.16-.35.22l-.25.13c-1.2.63-3.7 1.95-4.25.25a.06.06 0 0 1 .01-.06l.02-.01h.03c.29.04.5.07.78-.02.62-.2 1.21-.53 1.79-.84 1.1-.6 2.17-1.17 3.36-.89.58.14.91.21 1 .22.37.02.73 0 1.09-.04.56-.05 1.11-.1 1.7.07.6.17 1.1.55 1.6.93.45.34.9.69 1.43.88a5.12 5.12 0 0 0 .94.27.11.11 0 0 1 .03.13.1.1 0 0 1-.05.05c-1.58.91-3.05-.07-4.37-.95a2.2 2.2 0 0 0-.92-.35.28.28 0 0 1-.15-.08l-.06-.06c-.06-.07-.05-.1.04-.1l.26.02c.4.01.76.03 1.12.23.41.24 1.05.62 1.91 1.17.13.08.23.05.29-.08.02-.06.01-.1-.04-.14-1.2-.89-2.5-1.85-4.15-1.62-.07.01-.11-.01-.14-.08Zm8 .86-.23-.35a.1.1 0 0 0-.18 0 .53.53 0 0 1-.4.22c-.07 0-.1-.02-.07-.09l.1-.29c.02-.06.06-.1.12-.1a.4.4 0 0 0 .3-.25l.04-.04a.08.08 0 0 1 .12.05l.13.38a.11.11 0 0 0 .06.06.11.11 0 0 0 .09 0l.25-.08c.06-.02.11 0 .14.05l.12.2a.1.1 0 0 1-.02.13.1.1 0 0 1-.03.02l-.42.14a.1.1 0 0 1-.13-.05Zm-7.89.12.01.05-.01.28a.15.15 0 0 1-.05.1.15.15 0 0 1-.1.04l-.98-.05a.14.14 0 0 1-.13-.1l-.01-.05.01-.27a.15.15 0 0 1 .05-.1.14.14 0 0 1 .1-.04l.98.04a.14.14 0 0 1 .1.05c.02.01.03.03.03.05Zm-1.9.5c-.2.03-.39 0-.57-.06a.28.28 0 0 0-.15-.01.25.25 0 0 1-.2-.05c-.05-.03-.06-.07-.02-.12a.74.74 0 0 1 .73-.31.15.15 0 0 1 .13.1l.13.36c.02.06 0 .09-.06.1Zm2.39 0 .05-.32a.1.1 0 0 1 .04-.06.1.1 0 0 1 .07-.02l.16.03a1.57 1.57 0 0 1 .41.14c.05.03.1.06.12.1.02.02.03.05.03.08l-.02.08c0 .05-.08.1-.2.12a1.3 1.3 0 0 1-.43-.02l-.16-.03a.1.1 0 0 1-.06-.04.1.1 0 0 1-.01-.07ZM40.2 32.32c-.33.4-.36.81-.09 1.25a.1.1 0 0 1 .02.06l-.03.06-.17.17a.08.08 0 0 0-.02.08.08.08 0 0 0 .06.06l.44.1c.05.02.09.04.12.08.22.2.47.35.76.43.05.01.1 0 .16-.02a1.1 1.1 0 0 1 1.2.16.14.14 0 0 0 .2-.07c.02-.03.01-.07 0-.1l-.05-.13a.17.17 0 0 1 .02-.16l.55-.78a.42.42 0 0 0-.18-.62.97.97 0 0 1-.62-.73.29.29 0 0 0-.1-.17c-.33-.28-.65-.29-.97-.02a.34.34 0 0 1-.16.08c-.33.05-.66.1-.99.18a.26.26 0 0 0-.15.09Zm2.1 0c.1.38.3.63.65.77a.22.22 0 0 1 .13.15.23.23 0 0 1-.03.2.86.86 0 0 1-.7.37.15.15 0 0 1-.11-.05l-.49-.5a.19.19 0 0 0-.18-.05l-.24.07c-.47.13-1.23.34-1.13-.35a.4.4 0 0 1 .13-.24.4.4 0 0 1 .26-.1c.46 0 .89-.15 1.26-.43a.29.29 0 0 1 .45.17Zm-1.69 1.55c.45-.2.9-.23 1.36-.1a.14.14 0 0 1 .1.12.15.15 0 0 1-.06.14c-.36.23-.74.12-1.11 0l-.28-.07c-.08-.03-.09-.05-.01-.09Zm-1.59 5.99c.16-.14.25-.3.2-.36-.05-.06-.22 0-.38.13-.16.14-.25.3-.2.36.05.06.22 0 .38-.13Zm-16.54 3.38c.04.02.08.02.12 0l.99-.44c.92-.43 1.86-.87 2.93-1l.03-.02a.07.07 0 0 0 .02-.07l-.01-.03-.1-.12a.23.23 0 0 0-.19-.08c-1.05 0-2.5.78-3.57 1.35l-.23.13a.16.16 0 0 0-.07.2c.02.04.05.07.08.08Z" fill="#979797"/><path opacity=".7" d="M16.74 19.2a18.27 18.27 0 0 0-2.72 10.61l-1.97.18c-.28-3.28.57-7.98 3.03-11.89C17.58 14.15 21.74 11 28 11a14.7 14.7 0 0 1 12.93 7.07 20.01 20.01 0 0 1 3 11.93l-1.96-.2a18 18 0 0 0-2.7-10.63A12.73 12.73 0 0 0 28 13.02a12.7 12.7 0 0 0-11.26 6.18Z" fill="#979797"/></svg>