<!-- by TradingView --><svg width="56" height="56" viewBox="0 0 56 56" xmlns="http://www.w3.org/2000/svg"><path fill="#F0F3FA" d="M0 0h56v56H0z"/><path d="M26.76 16.9a.35.35 0 0 1-.3-.22 49.1 49.1 0 0 1-1.44-4.97c-.05-.2 0-.35.13-.48.36-.36 2.9-.2 3.41-.15.1 0 .19.04.25.1.07.07.11.16.12.25l.4 4.26c.02.34.15.5.39.72.04.04.06.09.08.14.08.4.38 3.3.05 3.44-.11.05-.25-.18-.27-.24a41.38 41.38 0 0 0-1.1-2.7c-.23-.45-1.27-.1-1.72-.14Zm7.46-1.13c-.06.62.16.98.8.8.74-.2 1.6-2.13 1.96-2.78a.6.6 0 0 1 .51-.33c.59-.04 2.56 1.44 2.5 2.12a.96.96 0 0 1-.2.5 71.6 71.6 0 0 1-1.84 2.4c-1.12 1.31-1.87-1.86-2.93-.27-.37.55-1.41 2.77-2.12 2.79-.7 0-1.14-.27-1.34-.8-.46-1.23 1.1-3.1-.2-3.97-.24-.15-.37-.35-.36-.62.03-1.21.15-2.56.37-4.05.07-.49.3-.6.74-.55.82.07 1.59.27 2.29.6.37.18.53.5.45.98-.18 1.08-.54 2.05-.63 3.18Zm-10.1 1.66c1.25.38 1.62 1.37 1.88 2.4.02.09-.07.18-.17.17-.81-.05-1.29-1.34-2.32-1.4-.05 0-.1.01-.15.04-.35.23-.74.32-1.17.26-1.07-.13-3.24-3.32-4-4.1-.3-.28-.22-.48.09-.73.72-.58 1.44-1.2 2.52-1.04.06 0 .11.04.15.08a49.37 49.37 0 0 1 3.01 4.21.3.3 0 0 0 .16.11Zm-9.08-.3c1.38 1.06 2.75 2.13 4.1 3.22.62.52 1.32.33 1.9.78.38.28.7.65.95 1.08.04.08-.03.18-.12.16-.46-.14-1.67-.74-2.09-.54-.6.3-.6 1.6-1.54 1.03a155.4 155.4 0 0 1-4.93-3.08c-.96-.64.59-2 1.03-2.5.23-.27.38-.4.7-.15Zm24.65 3.52c.4 1.26 2.26-.78 3.08-.64.1.02.2.1.26.21.2.49 1.07 2.46.96 2.9a.18.18 0 0 1-.1.13c-.88.47-1.8.83-2.76 1.1-.05 0-.1 0-.14-.03a1.19 1.19 0 0 0-1.29-.03c-.56.3-1.46.28-2.09.54-.53.22-1 .3-1.33-.25-.5-.83-.3-1.62.47-2.06a5.7 5.7 0 0 0 1.6-1.33c.26-.31.83-.86 1.25-.64.04.02.07.05.09.1Zm-19.91 4.48c.1.03.17.1.2.2.2.56-1.43.44-1.67.44-.15 0-.29.12-.33.29-.16.56-.2 1-.88.93a841.7 841.7 0 0 0-5.5-.52c-.96-.08-.52-2.13-.34-3.18a.2.2 0 0 1 .07-.13.6.6 0 0 1 .57-.14c2.63.6 5.25 1.3 7.88 2.1Zm-4.89 8.92c-.18.1-.27.37-.2.6.13.43.56 1.53.37 1.91-.25.47-.85.56-1.19.29-.6-.5-1.54-4.45-1.8-5.46-.26-.97.23-1.23.9-1.35l4.53-.8c.46-.08.68-.37.67-.88 0-.2.13-.36.28-.36.5.02 2.11-.08 2.48.18a.2.2 0 0 1 .07.15.2.2 0 0 1-.06.16l-1.24 1.06a.2.2 0 0 1-.15.06c-.82-.04-.49 1.06-.28 1.55.04.1.05.21.02.32-.03.1-.1.19-.17.23l-4.23 2.34Zm1.92 6.75c-.1-.1-.41-.33-.41-.52 0-.03 0-.06.02-.08 1.2-1.68-.39-1.31-.42-2.45-.01-.44.35-.77.67-1.07l4.73-4.42a.9.9 0 0 1 .5-.26c.4-.05-.59 1.96-.66 2.1-.36.69.64 1.18.62 1.79 0 .08-.02.17-.07.23l-2.6 3.89c-.55.82.77 1.2.98 1.7l.01.08c0 1.06-.6 1.6-1.36.9a81.3 81.3 0 0 1-2-1.89Zm26.91-5.36c.41.2.3.55.08.86a63.4 63.4 0 0 0-2.15 3.13c-1 1.55-2.08-.53-3.13-.58-.77-.04-1.29.62-1.97-.25-.52-.67-1-1.22-1.42-1.66-.76-.8-1.31-1.65-2.07-2.42a.2.2 0 0 1-.06-.17c.04-.8.79-1.64 1.7-1.25l4.77 2c.21.1.43.13.65.1.27-.04.5-.45.66-.62a.2.2 0 0 1 .14-.07c.92-.04 1.99.54 2.8.93ZM26.3 42.12c-.12 1.16 1.7.33 1.7 1.41 0 .72-.09 1.6-1.02 1.45a381.1 381.1 0 0 0-3.68-.6c-.77-.33.63-2.13-.62-2.36-.62-.12-.87-.38-.53-1.05a19.1 19.1 0 0 0 1.52-4.14c.17-.73-.13-1.21.43-1.88.24-.29.3-.52.43-.84a.18.18 0 0 1 .19-.1c.08 0 .14.07.14.15.04.5-.1 1.63.22 2.02.45.58 1.9-.07 1.75 1.18-.2 1.59-.39 3.17-.54 4.76Zm9.02-1.3c.42.52.65 1.13.68 1.84a.3.3 0 0 1-.17.28c-1.12.49-2.36 1.12-3.58 1.06a.3.3 0 0 1-.26-.21 3.09 3.09 0 0 0-.75-1.2.16.16 0 0 0-.15-.04c-.78.18-.88-.33-.91-1.02-.07-1.49-.13-2.97-.18-4.46-.04-1.36 1.42-1.36 1.84-.37.42 1 .82 2 1.19 3.03.74 2.04 1.42.04 2.29 1.1ZM45 26.84c0 1.2-.1 2.41-.15 3.61-.04 1.1-2.54-.75-2.62 1.07 0 .06-.02.12-.05.17-.13.26-.34.36-.62.29-1.6-.4-3.2-.81-4.8-1.24a.94.94 0 0 1-.49-.25c-.38-.45-.43-2.37.32-2.44 1.57-.14 3.15-.25 4.73-.32.05 0 .1-.04.14-.1.14-.23.18-.5.13-.8-.02-.17.07-.33.2-.37.64-.15 1.26-.29 1.88-.4.63-.12 1.26-.13 1.33.78Z" fill="#FE0020"/><path d="M29 25v5h1v-2.5l.58 1.56h.84L32 27.5V30h1v-5h-1.12L31 27.97 30.12 25H29Zm-5 1v-1h-3v5h1v-2h1v-1h-1v-1h2Zm11-1h-1v5h2v-1h-1v-4Zm-10 1.5a1.5 1.5 0 0 1 3 0v.46h-1v-.46a.5.5 0 0 0-1 0v2a.5.5 0 0 0 1 0v-.57h1v.46a1.5 1.5 0 0 1-3 0V26.5Z" fill="#060606"/></svg>