<!-- by TradingView --><svg width="56" height="56" viewBox="0 0 56 56" xmlns="http://www.w3.org/2000/svg"><path fill="#F0F3FA" d="M0 0h56v56H0z"/><path d="M14.75 39h4.45v-5h-1.58C15.96 34 15 32.6 15 30.94v-5.9c0-1.66.96-3.04 2.62-3.04h1.58v-5h-4.45A6.76 6.76 0 0 0 8 23.76v8.48A6.76 6.76 0 0 0 14.75 39Zm28.47 0H24.41v-5h14.58c1.4 0 2.01-.9 2.01-2.3V31h-5v-5h12v8.15A4.84 4.84 0 0 1 43.22 39Zm-7.06-17h3.06C40.5 22 41 23.17 41 24.55V25h7v-2.2c0-3.2-2.56-5.8-5.56-5.8H30.85l5.31 5Z" fill="#FB6B15"/><path d="M19 39V17h12.23A5.8 5.8 0 0 1 37 22.85v3.75c0 3.23-2.59 6.4-5.77 6.4H25v6h-6Zm9.24-17H25v6h3.24A2.78 2.78 0 0 0 31 25.2v-.4c0-1.54-1.24-2.8-2.76-2.8Z" fill="#686765"/></svg>