<!-- by TradingView --><svg width="56" height="56" viewBox="0 0 56 56" xmlns="http://www.w3.org/2000/svg"><path fill="#F0F3FA" d="M0 0h56v56H0z"/><path d="M23.44 18C14.59 19.1 8 23.32 8 28.36 8 34.24 16.95 39 28 39s20-4.76 20-10.64c0-5.04-6.59-9.26-15.44-10.36v1.3C40.3 20.38 46 24.1 46 28.5c0 5.25-8.06 9.5-18 9.5s-18-4.25-18-9.5c0-4.41 5.7-8.13 13.44-9.2V18Z" fill="#184E99"/><circle cx="28" cy="15" r="1" fill="#184E99"/><circle cx="26" cy="20" r="1" fill="#184E99"/><circle cx="25" cy="17" r="1" fill="#184E99"/><circle cx="31" cy="17" r="1" fill="#184E99"/><path d="M28.5 18a.5.5 0 1 1-1 0 .5.5 0 0 1 1 0Z" fill="#184E99"/><circle cx="30" cy="20" r="1" fill="#184E99"/><path d="M16 31v-.6c-.27.4-.63.6-1 .6-1.16 0-2-.8-2-1.99 0-1.2.93-2.01 2.1-2.01.84 0 1.68.39 1.85 1.28h-.86c-.1-.38-.44-.63-.97-.63-.79 0-1.12.62-1.12 1.36 0 .72.34 1.36 1.1 1.36.43 0 .9-.26.9-.77h-1V29h2v2h-1Zm3 0 1.53-4h.92L23 31h-1l-.34-1h-1.34L20 31h-1Zm1.53-1.62h.91L21 28c-.2.63-.32.92-.47 1.38Zm3.47-1.7V27h3v.68h-1V31h-1v-3.32h-1ZM29 31v-4h1.74c.65 0 1.26.43 1.26 1.11 0 .51-.28.84-.74.97v.02c.36.1.53.32.58.8.02.32 0 .69.1.99a.1.1 0 0 0 .06.07V31h-1c-.03-.02-.05-.06-.06-.13-.05-.26-.06-.53-.08-.8-.03-.45-.28-.68-.74-.68H30V31h-1Zm1-3.35v1.12h.38c.4 0 .62-.23.62-.55 0-.34-.2-.57-.6-.57H30ZM36 31c-1.15 0-2-.84-2-2 0-1.15.85-2 2-2 1.16 0 2 .85 2 2 0 1.16-.84 2-2 2Zm0-.64c.78 0 1-.66 1-1.36 0-.7-.22-1.36-1-1.36-.76 0-1 .66-1 1.36 0 .7.24 1.36 1 1.36Zm4 .64v-4h.77c.16.3.35.7 1.23 2.26V27h1v4h-.73c-.17-.3-.33-.52-1.27-2.22V31h-1Z" fill="#184E99"/></svg>