<!-- by TradingView --><svg width="56" height="56" viewBox="0 0 56 56" xmlns="http://www.w3.org/2000/svg"><path fill="#F0F3FA" d="M0 0h56v56H0z"/><path fill-rule="evenodd" d="M37.65 34.55c-1.82 2.24-3.95 4-6.1 5.77l-1.2 1c-.2.17-.51.47-.92.9-1.58 1.52-2.71 3.48-2.36 5.6.04.22 0 .24-.13.05a5.75 5.75 0 0 1-1.19-3.1c0-.26-.02-.65-.05-1.17 0-.06.01-.13.04-.19.09-.18.14-.36.16-.55.03-.24.07-.42.13-.54l.48-1.12c.34-.78.76-1.45 1.2-2.14l.4-.66c.15-.24.37-.45.65-.62l.8-.47a6.81 6.81 0 0 0 2.92-5.19c.17-2.34-.82-3.84-2.44-5.37a.37.37 0 0 1-.1-.43l.23-.64c.06-.16.16-.19.3-.08l.14.11c.57.45 1.1.86 1.79.6.85-.32.7-1.88.45-2.45a6.42 6.42 0 0 0-1.77-2.3c.2-.83.37-1.82.52-2.95.09-.66.07-1.24-.05-1.73.3.18.54.38.7.61a13.72 13.72 0 0 1 1.9 12.23c-.04.1.06.2.1.28H40a13.78 13.78 0 0 1-2.35 4.55Zm-3.63-7.06a.05.05 0 0 1 .03.02.06.06 0 0 1 .01.04l-.07.77a.4.4 0 0 1-.16.28c-.1.07-.21.1-.33.09l-.56-.06a.48.48 0 0 1-.3-.15.39.39 0 0 1-.11-.3l.08-.77a.06.06 0 0 1 0-.02l.02-.02a.05.05 0 0 1 .02-.01h.01l1.36.13Z" fill="url(#a)"/><path d="m31 23.1-.35 1.33a.1.1 0 0 0 .02.1c.53.59 1.14.78 1.83.59a.2.2 0 0 0 .14-.14.2.2 0 0 0-.04-.2l-1.53-1.7a.1.1 0 0 0-.02-.02h-.03l-.02.03Z" fill="url(#b)"/><path d="M29.95 35.01c.1-.17.14-.34.14-.5 0-.07-.04-.1-.1-.11l-1.74-.12c.71-1.82.74-3.71.76-5.66v-.25c0-.06.03-.11.08-.15a.87.87 0 0 0 .4-.59.17.17 0 0 1 .03-.07.17.17 0 0 1 .24-.03c1.16.94 2.14 2.26 2.2 3.75.05 1.15-.79 3.31-2.01 3.73Z" fill="url(#c)"/><path d="M27.3 34.37c-.15-.02-.23-.05-.26-.1.32-.36.14-.93-.03-1.5l-.09-.3a.21.21 0 0 1 .03-.16l1.31-2.25c.13-.23.2-.21.2.05-.01 1.6-.4 3.02-1.16 4.26Z" fill="url(#d)"/><path d="M31.6 18.6c.09-.65.07-1.23-.05-1.73A14.28 14.28 0 0 0 28.45 8a.06.06 0 0 0-.07.02l-.02.03a12.15 12.15 0 0 1-1.97 4.69l-.8 1.39-4.96 6.7a29.95 29.95 0 0 0-3.65 6.3c-1.48 3.51-1.28 6.9.6 10.2.63 1.1 1.58 2.28 2.87 3.56.83.86 1.82 1.69 2.95 2.48l2.02 1.41a.09.09 0 0 0 .13-.07c-.02-1.16.21-2.29.7-3.4a20 20 0 0 1 1.77-3.16c.06-.1.04-.12-.07-.08a8.66 8.66 0 0 1-4.06.51h-1.94a4.36 4.36 0 0 1-1.15-.19 5.9 5.9 0 0 1-2.57-1.98c-.2-.29-.17-.32.1-.1.66.54 1.44 1.01 2.35 1.41h.03l.04-.06v-.03c-.92-.64-1.6-1.24-2.05-1.78a6.06 6.06 0 0 1-.98-6.34 9.44 9.44 0 0 1 1.7-2.7v-.1a2.6 2.6 0 0 0-.08-.35c-.6-2.05.11-3.75 1.6-5.2.76-.61 1.57-1.15 2.39-1.69l1.05-.71c.48-.33.9-.86 1.3-1.61.17-.33.29-.57.33-.72.13-.41.29-.42.46-.02.3.69.42 1.4.35 2.14-.09 1.06-1.01 2.32-1.72 3.28l-.01.02c-1 1.36-2.04 2.68-3.15 3.95l-1.5 1.7a.37.37 0 0 0-.04.43l.54.93a.07.07 0 0 1 .01.04.07.07 0 0 1-.1.05c-.18-.12-.4-.36-.68-.72a.2.2 0 0 0-.23-.07 7.75 7.75 0 0 0-1.8 5.06c0 .27.08.5.26.7a9.07 9.07 0 0 0 5.2 2.85l1.25.14a.5.5 0 0 0 .44-.17l2.01-2.37c-.15-.02-.23-.05-.26-.1l-.08.05-.03.02h-.02c-.34.2-.64.36-1.03.4-.61.04-1.2-.04-1.8-.25a4.2 4.2 0 0 1-2.1-2.32 5.89 5.89 0 0 1 .57-5.7 4.43 4.43 0 0 1 4.62-1.3l1.18.43c.08.03.13 0 .16-.06.37-.8.7-1.33 1.02-1.58a.3.3 0 0 1 .4.03 1.23 1.23 0 0 0 .47.32h.02c.02 0 .03-.02.04-.05l.33-1.27a.2.2 0 0 0-.03-.17c-.71-.9-1.63-2.42-1.42-3.52.07-.34.15-.35.25 0 .23.83.73 1.59 1.49 2.27.2-.84.37-1.83.52-2.96Z" fill="url(#e)"/><path d="M26.02 17.97a6.15 6.15 0 0 1-2.24 2.47l-.15.1-.25.17c-1.48.96-3 1.95-3.42 3.8-.1.49-.14 1-.1 1.56.02.14.1.16.24.08l.03-.03a96.7 96.7 0 0 0 3.98-4.36c1-1.17 1.74-2.18 2.02-3.65.01-.07 0-.12-.06-.14h-.05Z" fill="url(#f)"/><path d="m29.7 26.35.32-.83a.13.13 0 0 0-.02-.13c-.08-.11-.2-.13-.34-.05a5.86 5.86 0 0 0-.6.47.14.14 0 0 0 0 .11v.01l.04.05.49.4c.05.05.1.04.12-.03Z" fill="#5CAE64"/><path fill-rule="evenodd" d="M25.65 28.69c.03.92.17 1.86.4 2.8.08.3.02.7-.17 1.24-.2.57-.65.8-1.34.7-.53-.09-1.64-.47-1.97-1a3.07 3.07 0 0 1-.36-1.5 4.38 4.38 0 0 1 2.7-4.43 4.6 4.6 0 0 1 3.35.13c.14.06.2.16.2.3a44.5 44.5 0 0 0-.1 2.07c0 .27-.09.55-.26.84a207.18 207.18 0 0 0-1.34 2.33.1.1 0 0 1-.1 0 8.84 8.84 0 0 1-.57-2.97l-.04-1.58c-.02-.46-.09-.47-.21-.02-.08.27-.14.63-.2 1.09Zm-.92 1.92c.06.01.11.04.15.08.03.04.05.1.05.15v.88c0 .07-.03.11-.1.13-.28.11-.64.12-1.07.02-.2-.05-.31-.18-.31-.4v-.77c0-.16.08-.23.24-.21l1.04.12Z" fill="url(#g)"/><path d="M28.89 27.92a1.25 1.25 0 0 1-.03-.75c.04-.14.1-.17.23-.08l.06.05a.26.26 0 0 1 .09.12c.02.05.02.1 0 .16l-.12.48a.12.12 0 0 1-.04.06.12.12 0 0 1-.14.01.12.12 0 0 1-.05-.05Z" fill="#5CAE64"/><path d="m28.25 34.28 1.73.12c.07 0 .1.04.1.11 0 .16-.04.33-.13.5a8.22 8.22 0 0 1-2.46 1.59c-.24.1-.44.16-.59.17-.27.03-.31-.06-.13-.25a8.35 8.35 0 0 0 1.48-2.24Z" fill="url(#h)"/><defs><linearGradient id="a" x1="38.5" y1="30" x2="27.5" y2="33" gradientUnits="userSpaceOnUse"><stop stop-color="#FD624E"/><stop offset="1" stop-color="#FBC433"/></linearGradient><linearGradient id="b" x1="38.5" y1="30" x2="27.5" y2="33" gradientUnits="userSpaceOnUse"><stop stop-color="#FD624E"/><stop offset="1" stop-color="#FBC433"/></linearGradient><linearGradient id="c" x1="38.5" y1="30" x2="27.5" y2="33" gradientUnits="userSpaceOnUse"><stop stop-color="#FD624E"/><stop offset="1" stop-color="#FBC433"/></linearGradient><linearGradient id="d" x1="38.5" y1="30" x2="27.5" y2="33" gradientUnits="userSpaceOnUse"><stop stop-color="#FD624E"/><stop offset="1" stop-color="#FBC433"/></linearGradient><linearGradient id="e" x1="29" y1="27.5" x2="16" y2="32" gradientUnits="userSpaceOnUse"><stop stop-color="#5CAE64"/><stop offset="1" stop-color="#0E4C26"/></linearGradient><linearGradient id="f" x1="29" y1="27.5" x2="16" y2="32" gradientUnits="userSpaceOnUse"><stop stop-color="#5CAE64"/><stop offset="1" stop-color="#0E4C26"/></linearGradient><linearGradient id="g" x1="29" y1="27.5" x2="16" y2="32" gradientUnits="userSpaceOnUse"><stop stop-color="#5CAE64"/><stop offset="1" stop-color="#0E4C26"/></linearGradient><linearGradient id="h" x1="29" y1="27.5" x2="16" y2="32" gradientUnits="userSpaceOnUse"><stop stop-color="#5CAE64"/><stop offset="1" stop-color="#0E4C26"/></linearGradient></defs></svg>