<!-- by TradingView --><svg width="56" height="56" viewBox="0 0 56 56" xmlns="http://www.w3.org/2000/svg"><path fill="#F0F3FA" d="M0 0h56v56H0z"/><path d="M27 22.8a13.41 13.41 0 0 1 2 3.98 17.5 17.5 0 0 0-3.63-2.75l.78-.55.18.15.57.56a10.25 10.25 0 0 1 .67.72 10.33 10.33 0 0 1 .69.83 6.44 6.44 0 0 1 .14.15l-.25-.33a12.85 12.85 0 0 0-1.2-1.42l-.56-.57a2.87 2.87 0 0 0-.16-.16l.75-.61H27Zm-5.18-2.23a40.54 40.54 0 0 1 1.63.9 18.42 18.42 0 0 1 2.14 1.52l.25.22v.01l-.84.6h-.02a21.21 21.21 0 0 0-4.31-1.76 18.39 18.39 0 0 0 .7-1.7l.45.2Zm.09-2.21a16.5 16.5 0 0 1 4.84 4.12 16.24 16.24 0 0 1-.82.66l-.13-.1a8.08 8.08 0 0 0-.64-.55 12.4 12.4 0 0 0-1.45-1.05 20.21 20.21 0 0 0-2.09-1.2l-.19-.1a17.96 17.96 0 0 0 .48-1.78Zm-7.31.23a24.78 24.78 0 0 1 2.33.34l.22.04a14.82 14.82 0 0 1 2.08.56 27.88 27.88 0 0 0 .76.26l.9.36.1.04v.01c-.2.6-.44 1.19-.7 1.76h-.01a23.95 23.95 0 0 0-6-.8c.05-.29.09-.5.1-.63a17.14 17.14 0 0 0 .22-1.94Zm-1.96-.03a12.72 12.72 0 0 1 1.55.01 16.9 16.9 0 0 1-.33 2.6 24.14 24.14 0 0 0-5.84.75V19.43c.52-.17 1.11-.32 1.77-.47a17 17 0 0 1 2.85-.4Zm1.87-2.47a19.06 19.06 0 0 1 7.03 2.07 15.84 15.84 0 0 1-.47 1.81 56.02 56.02 0 0 0-1.74-.69 12.65 12.65 0 0 0-1.18-.37 16.7 16.7 0 0 0-.99-.25l-.15-.04-.53-.11a25.21 25.21 0 0 0-1.88-.3 18.06 18.06 0 0 0-.09-2.12ZM12.6 16a20.28 20.28 0 0 1 1.5.06 17.52 17.52 0 0 1 .1 2.12 15.33 15.33 0 0 0-4.18.25 23.95 23.95 0 0 0-2.01.45L8 16.57l.01-.01A19.5 19.5 0 0 1 12.6 16Z" fill="url(#a)"/><path d="M29.22 27v-1H31s0 .01 0 0v-1.99l.02-.01H32v2c0 .01 0 0 0 0h5.16v1H32.1l-.1.05v3.58c0 1.02.18 2.07 1.38 2.25a5.26 5.26 0 0 0 1.47.02 2.4 2.4 0 0 0 1-.3c.17-.11.3-.3.39-.57.07-.22.1-.46.1-.73a47.53 47.53 0 0 0 .02-1.13h.98l.01.01c0 .68-.03 1.3-.1 1.86-.07.47-.18.84-.34 1.13a1.1 1.1 0 0 1-.33.36c-.12.1-.27.17-.43.22-.31.11-.65.18-1.01.21a9.58 9.58 0 0 1-2.15-.05c-.4-.06-.75-.17-1.06-.32-.3-.14-.52-.38-.67-.7-.09-.2-.15-.42-.19-.65a4.95 4.95 0 0 1-.07-.83 1515.73 1515.73 0 0 1-.01-4.41h-1.77ZM20.06 30.21c0 .36.02.72.07 1.06.05.3.13.56.24.77.12.23.31.43.58.57.23.13.48.2.77.25.46.06.92.1 1.36.1.5.02 1 .02 1.5.01.27 0 .53-.02.8-.05.24-.02.48-.09.72-.19.14-.06.27-.14.39-.23.1-.1.2-.23.27-.38a1.58 1.58 0 0 0 .13-.55v-.01H28c0 .4-.06.76-.18 1.04-.19.48-.54.8-1.05 1-.68.23-1.47.37-2.36.4-.6 0-1.25 0-1.96-.04-.42-.02-.82-.06-1.22-.13a2.42 2.42 0 0 1-1.57-.95c-.24-.3-.4-.7-.5-1.18a7.12 7.12 0 0 1-.15-1.08 12.17 12.17 0 0 1 .12-2.24c.1-.55.27-1 .5-1.34.23-.31.56-.55 1-.71.3-.11.6-.2.93-.24.4-.06.8-.09 1.22-.09h1c.35 0 .73.01 1.15.04.4.03.77.08 1.1.14.71.15 1.23.56 1.57 1.24.1.19.17.4.23.67.08.31.12.66.15 1.05.01.26.02.42.02.86h-7.94v.21Zm0-1.21h6.82c0-.3-.02-.39-.08-.67-.06-.27-.17-.5-.35-.68a1.63 1.63 0 0 0-.64-.39c-.26-.09-.56-.16-.89-.2a8.73 8.73 0 0 0-1.05-.04l-1.16.01c-.4.02-.76.05-1.1.1-.2.03-.38.08-.56.15a1.46 1.46 0 0 0-.88.96c-.08.31-.12.43-.11.76ZM9 27.51c.1-.3.38-.54.56-.75.41-.45 1-.58 1.58-.66.32-.05.65-.08.99-.09a20.1 20.1 0 0 1 1.81.02c.47.03.85.08 1.15.15.4.1.78.27 1.1.51.67.5.8 1.23.8 2.03A1049.59 1049.59 0 0 1 17 33h-1v-4.13c0-1.17-.77-1.72-1.9-1.88l-.56-.06c-.6-.03-1.21-.03-1.84.02-1.36.1-2.69.59-2.7 2.11V33H8v-7h1v1.51ZM47.72 28.28h-1.06c-.02-.28-.07-.5-.15-.69a.62.62 0 0 0-.18-.23.85.85 0 0 0-.26-.14 2.68 2.68 0 0 0-.79-.13 2386 2386 0 0 0-1.88-.06l-.95.01c-.4.01-.8.05-1.18.12-.25.04-.46.12-.64.22a.77.77 0 0 0-.26.23 1.2 1.2 0 0 0-.15.77c.02.18.05.32.09.43.06.15.14.27.26.34.2.12.46.19.8.2a1379.6 1379.6 0 0 0 2.76.06 252.67 252.67 0 0 1 1.86.02c.5.04.92.16 1.26.35.26.16.45.38.56.69.09.22.14.45.17.7.03.33.03.65 0 .97-.03.32-.1.6-.2.83-.12.28-.3.48-.52.6-.1.05-.19.1-.3.13-.3.11-.66.19-1.07.23-.24.02-.61.03-1.1.04h-.1a425.71 425.71 0 0 0-1.74.03h-1.02a7.08 7.08 0 0 1-1.93-.33c-.47-.2-.76-.56-.9-1.1a4.15 4.15 0 0 1-.08-1.31h1.06l.01.16c.01.27.03.48.07.63.05.23.15.4.3.52.1.09.22.16.37.2a2.7 2.7 0 0 0 .86.15l1.66.05a27.42 27.42 0 0 0 2.07-.06l.55-.08c.2-.04.38-.1.53-.17.1-.06.19-.14.25-.26.05-.1.09-.22.1-.36v-.54c-.03-.2-.08-.38-.15-.52a.9.9 0 0 0-.55-.45c-.2-.07-.43-.1-.7-.11a187.55 187.55 0 0 0-4.2-.03 3.06 3.06 0 0 1-1.52-.38c-.39-.24-.6-.7-.65-1.39-.03-.54.02-1 .18-1.37.13-.33.35-.6.65-.78.34-.22.74-.34 1.2-.36A231.58 231.58 0 0 1 43.8 26l.9.01a14.52 14.52 0 0 1 1.14.08c.4 0 .73.07 1 .2.3.14.52.35.65.65a3.1 3.1 0 0 1 .23 1.34Z" fill="#4E4E4E"/><path d="m28.99 37.38.01 1.3a11.5 11.5 0 0 1-3.49.28 9.58 9.58 0 0 1-.05-1.18l.41.02h.03c.27 0 .54 0 .8-.02h.02c.73-.05 1.48-.18 2.27-.4Z" fill="url(#b)"/><path d="m21.54 36.78.66.27a12.6 12.6 0 0 0 3.03.71 9.9 9.9 0 0 0 .05 1.19 10.89 10.89 0 0 1-4.02-1.17 8.68 8.68 0 0 1 .28-1Z" fill="url(#c)"/><path d="M18.74 35h.02a5.93 5.93 0 0 1 .27.24 21.36 21.36 0 0 1 .56.43 18.14 18.14 0 0 1 .44.3 11.8 11.8 0 0 0 1.3.7v.01a9.81 9.81 0 0 0-.29 1 9.08 9.08 0 0 1-2.75-2.32l.45-.35Z" fill="url(#d)"/><path d="M28.98 35.69H29v1.39c-.54.17-1.08.3-1.62.38a8.83 8.83 0 0 1-1.9.1 9.38 9.38 0 0 1 .18-1.45l.59-.02h.02c.92-.05 1.83-.18 2.72-.4Z" fill="url(#e)"/><path d="M21.98 35.66a14.02 14.02 0 0 0 3.43.46 9.45 9.45 0 0 0-.18 1.43 11.9 11.9 0 0 1-3.66-.9 10.22 10.22 0 0 1 .41-.99Z" fill="url(#f)"/><path d="M19.28 34.62h.02a12.64 12.64 0 0 0 2.46 1 10.04 10.04 0 0 0-.4.94 12.26 12.26 0 0 1-2.55-1.59v-.02l.47-.33Z" fill="url(#g)"/><path d="M17 32.97a9.98 9.98 0 0 0 2.07 1.54l-.44.3h-.01a19.39 19.39 0 0 0-.04.05l-.42.33h-.02a7.45 7.45 0 0 1-1.13-2.22Zm.19.26v.02-.01Zm-.02-.02v.01c0 .01 0 .01 0 0v-.01Zm-.02-.03v.01Z" fill="url(#h)"/><defs><linearGradient id="a" x1="8" y1="19.89" x2="29" y2="19.89" gradientUnits="userSpaceOnUse"><stop stop-color="#7BBC43"/><stop offset="1" stop-color="#1B9747"/></linearGradient><linearGradient id="b" x1="17.9" y1="36.35" x2="28.4" y2="36.35" gradientUnits="userSpaceOnUse"><stop stop-color="#239A47"/><stop offset="1" stop-color="#77BA43"/></linearGradient><linearGradient id="c" x1="17.9" y1="36.35" x2="28.4" y2="36.35" gradientUnits="userSpaceOnUse"><stop stop-color="#239A47"/><stop offset="1" stop-color="#77BA43"/></linearGradient><linearGradient id="d" x1="17.9" y1="36.35" x2="28.4" y2="36.35" gradientUnits="userSpaceOnUse"><stop stop-color="#239A47"/><stop offset="1" stop-color="#77BA43"/></linearGradient><linearGradient id="e" x1="17.9" y1="36.35" x2="28.4" y2="36.35" gradientUnits="userSpaceOnUse"><stop stop-color="#239A47"/><stop offset="1" stop-color="#77BA43"/></linearGradient><linearGradient id="f" x1="17.9" y1="36.35" x2="28.4" y2="36.35" gradientUnits="userSpaceOnUse"><stop stop-color="#239A47"/><stop offset="1" stop-color="#77BA43"/></linearGradient><linearGradient id="g" x1="17.9" y1="36.35" x2="28.4" y2="36.35" gradientUnits="userSpaceOnUse"><stop stop-color="#239A47"/><stop offset="1" stop-color="#77BA43"/></linearGradient><linearGradient id="h" x1="17.9" y1="36.35" x2="28.4" y2="36.35" gradientUnits="userSpaceOnUse"><stop stop-color="#239A47"/><stop offset="1" stop-color="#77BA43"/></linearGradient></defs></svg>