<!-- by TradingView --><svg width="56" height="56" viewBox="0 0 56 56" xmlns="http://www.w3.org/2000/svg"><path fill="#F0F3FA" d="M0 0h56v56H0z"/><path d="M18 24v-3h-7.86A3.23 3.23 0 0 0 7 24.3v7.35C7 33.47 8.4 35 10.14 35h5.96c.87 0 1.9-.79 1.9-1.7V32h.57c1.09 0 1.93-1 1.93-2.25V26H15v.77c0 1.25 1 2.23 2.09 2.23H18v3h-7.22a.75.75 0 0 1-.78-.77V24.8c0-.45.34-.79.78-.79H18Zm16 0h-8.9c-.35 0-.64.15-.64.53v1.3c0 .45.34.67.77.67h6.43c1.84 0 3.34 1.76 3.34 3.75v1.15c0 1.99-1.5 3.6-3.34 3.6h-9.1v-3h8.52c.5 0 .92-.34.92-.88v-.85c0-.54-.42-.77-.92-.77h-6.77c-1.27 0-2.31-1.32-2.31-2.7v-.69c0-1.23.93-2.23 2.07-2.23.22 0 .39-.19.39-.42v-.66c0-1 .75-1.8 1.67-1.8H34v3Zm3-3v4.1a2.94 2.94 0 0 0 2.64 2.88v.04A2.93 2.93 0 0 0 37 30.89V35h3v-6.6h.07l6.27 6.6H50l-6.7-7 6.7-7h-3.66l-6.27 6.66H40V21h-3Z" fill="url(#a5ht53fr3)"/><defs><linearGradient id="a5ht53fr3" x1="29" y1="21" x2="29" y2="35" gradientUnits="userSpaceOnUse"><stop stop-color="#F3682C"/><stop offset=".43" stop-color="#F6981A"/><stop offset="1" stop-color="#FB6409"/></linearGradient></defs></svg>