<!-- by TradingView --><svg width="56" height="56" viewBox="0 0 56 56" xmlns="http://www.w3.org/2000/svg"><path fill="#F0F3FA" d="M0 0h56v56H0z"/><path fill-rule="evenodd" d="M28 39a11 11 0 1 0 0-22 11 11 0 0 0 0 22Zm0-3a8 8 0 1 0 0-16 8 8 0 0 0 0 16Z"/><path d="M33 28a5 5 0 1 1-10 0 5 5 0 0 1 10 0Zm14-9.62A11.4 11.4 0 0 0 40 16c-3.34 0-6.36 1.36-8.54 3.57l2.43 1.82A8.97 8.97 0 0 1 40 19c1.85 0 3.41.56 4.84 1.52L47 18.38Zm-2.16 17.1A8.42 8.42 0 0 1 40 37a8.96 8.96 0 0 1-5.68-2.02l-3.23 1.06A11.97 11.97 0 0 0 40 40c2.69 0 5-.88 7-2.38l-2.16-2.14ZM9 18.43A11.72 11.72 0 0 1 16 16c3.36 0 6.4 1.38 8.58 3.61l-2.42 1.83a8.97 8.97 0 0 0-11.1-.96L9 18.43Zm2.06 17.09a8.96 8.96 0 0 0 10.66-.57l3.21 1.06A11.97 11.97 0 0 1 16 40a11.6 11.6 0 0 1-7-2.33l2.06-2.15Z"/><path d="M9 29v8.68l3-.68v-5h4v-3H9Z"/></svg>