<!-- by TradingView --><svg width="56" height="56" viewBox="0 0 56 56" xmlns="http://www.w3.org/2000/svg"><path fill="#F0F3FA" d="M0 0h56v56H0z"/><path d="M34 21.21 31.43 19 25 33.79 27.65 36 34 21.21Zm-8.55 1.67L21 19l4.66 12L27 27.05l-1.55-4.17Z" fill="#403D3A"/><path d="M7.65 26.97a2.23 2.23 0 0 0 0 3.16l6.22 6.22c.87.87 2.28.87 3.16 0l6.32-6.32c.87-.88.87-2.29 0-3.16l-3.9-3.9L15 27.42l1.05 1.05L18 26.5l2 2.05L15.55 33 11 28.55l7-7.16-.87-.74a2.23 2.23 0 0 0-3.16 0l-6.32 6.32Zm25 0a2.23 2.23 0 0 0 0 3.16l6.22 6.22c.87.87 2.28.87 3.16 0l6.32-6.32c.87-.88.87-2.29 0-3.16l-3.9-3.9L40 27.42l1.05 1.05L43 26.5l2 2.05L40.55 33 36 28.55l7-7.16-.87-.74a2.23 2.23 0 0 0-3.16 0l-6.32 6.32Z" fill="#7E1C1C"/></svg>