<!-- by TradingView --><svg width="56" height="56" viewBox="0 0 56 56" xmlns="http://www.w3.org/2000/svg"><path fill="#F0F3FA" d="M0 0h56v56H0z"/><path d="M30.4 19 28 15l-2.4 4h4.8Zm.31.53h-5.42L23.22 23h9.56l-2.07-3.47Zm2.4 4H22.9L20.82 27h14.36l-2.08-3.47Zm2.38 4H20.51l-2.36 3.94h19.7l-2.36-3.94ZM38.17 32H17.84l-.6 1h21.52l-.6-1Z" fill="#005D02"/><path fill-rule="evenodd" d="m46 39-4.15-4.85L28 11 14.15 34.15 10 39h36ZM28 13.5l-12 20h24l-12-20Zm5.65 23.37a6 6 0 0 0 2.35.03l-.08-1.23-.23-.12c-.47-.04-.36.3-.26.6a.9.9 0 0 1 .06.25h-1.57l-.27-2-.14-.4c-.22.05-.27.02-.3 0l-.02.03-.18.25c-.07.38.3 2.35.64 2.59Zm4.1-.34-.07.27c-.14.9-1 1.59-1.68.96.2-.2.27-.22.4-.23a1.18 1.18 0 0 0 .76-.41l.2-.18.03-.48c-.3-.07-.25-.3.01-.46h1.29l-.02-1 .3.07.03 1.46h-1.26Zm2.83-.86.12.78h-.53c-.1 0-.2.07-.16.29.05.24 1.28.71.93-.85a2.9 2.9 0 0 0-.08-.3 3.13 3.13 0 0 1-.13-.53l-.37-.06v.2c0 .16 0 .23.02.28.03.05.07.09.16.15l.04.04Zm-6.54 1.6-.04-.23c.56 0 .78-.01 1.22-.03h.15c1.14-.06.45.71.1.99l-.42-.1.26-.51-.23-.02a10.8 10.8 0 0 1-1.04-.1Zm-2.04-1c-.13-.31-.66-.28-1.04-.26l-.15.01-.2.01c-.3.01-.43.02-.5.09-.06.06-.07.16-.09.36l-.02.22s0 .3 1 .3c.73 0 .97-.03 1-.73ZM38.25 38c-.3-.07-.28-.24-.2-.77.2-.07.25-.06.32-.06.06 0 .12 0 .25-.03s.16-.1.17-.12V37l.04.04c.02.04.07.13.17.27l-.14.6c-.17-.09-.28-.03-.39.03-.07.04-.14.07-.22.05ZM21 37.71c.79.4.8.37.86.01.02-.13.05-.31.14-.54-.85-.3-.86-.2-.87.06 0 .13-.01.3-.13.47Zm3.92-2.81c-.06.06-.18.07-.43.1h-.12c-.42-.3-.5-.61-.15-1l.78.36-.01.2c-.02.18-.02.28-.07.34Zm.37 1.14c-.17.27-.68.2-1.03.15h-.1c.1-.42.82-.58 1.13-.15Zm-2.51-.32v-.02l-.02-.01a.65.65 0 0 1-.18-.1l-.16-.09-.08.18c-.06.14-.12.28-.22.4l-.7-.03-.1-.69-.12-.36c-.63.09-.53.26-.33.62l.02.02.1.42c-1.1.08-1.15-.07-1.22-.23-.04-.11-.08-.23-.42-.3-.45.33-.68.94.06 1.13-.03.73-.61.84-1.03.92a1 1 0 0 0-.38.11c.62.54 1.03.3 1.48-.17.15-.22.2-.36.26-.53l.14-.33c.65.08 1.57.06 2.44.04a36.37 36.37 0 0 1 1.58-.01c1.2.01 2.13.02 3.26-.22l.22.07c.21.07.29.1.62-.03l-.01-.66-.3-.55c-.5.07-.6.24-.7.4-.14.2-.27.38-1.1.37a2.2 2.2 0 0 0-.2-.48 7.13 7.13 0 0 1-.12-.22c-.74-.1-1.15.17-1.51.41-.37.25-.69.46-1.25.2-.04-.17-.03-.23-.03-.26Zm4.6.28c-.23-.16-.03-.19.02-.2a.2.2 0 0 0 .1-.03h.02l.02.03.12.24c-.13 0-.15.03-.16.04l-.04-.02-.09-.06Zm-10.7.48v.02c.14.06.34.07.52.05.17 0 .24-.01.28-.05.05-.03.06-.1.12-.26-.87-.26-.9.15-.92.24Zm-.07-2.36.04 1.75.53-.16c.84.04.84.13.81 1.04V37H16c0-.58.07-.6.16-.64.06-.03.13-.05.19-.32a5.97 5.97 0 0 0-.14-1.07c-.06-.31-.12-.6-.1-.97l.5.12Z"/></svg>