<!-- by TradingView --><svg width="56" height="56" viewBox="0 0 56 56" xmlns="http://www.w3.org/2000/svg"><path fill="#F0F3FA" d="M0 0h56v56H0z"/><path d="M39 28h-9.02a7 7 0 0 0 13.36 3h2.94c.95 0 1.72-.67 1.72-1.5s-.77-1.5-1.72-1.5H39Zm-2-7a7.01 7.01 0 0 0-6.95 6h13.9A7 7 0 0 0 37 21Z" fill="#1A3057"/><path d="M13 17.87c0-1.03.78-1.87 1.75-1.87h6.5c.97 0 1.75.84 1.75 1.87V26h4v-8.13c0-1.03.78-1.87 1.75-1.87h6.5c.97 0 1.75.84 1.75 1.87 0 .73-.56 1.32-1.23 1.43-3.98.66-7.02 4.33-7.02 8.75 0 4.47 3.1 8.17 7.12 8.78.62.1 1.13.63 1.13 1.3 0 1.03-.78 1.87-1.75 1.87h-6.5c-.97 0-1.75-.84-1.75-1.87V30h-4v8.13c0 1.03-.78 1.87-1.75 1.87h-6.5c-.97 0-1.75-.84-1.75-1.87V17.87Z" fill="#1A3057"/></svg>