<!-- by TradingView --><svg width="56" height="56" viewBox="0 0 56 56" fill="none" xmlns="http://www.w3.org/2000/svg">
<rect width="56" height="56" fill="#00A897"/>
<path fill-rule="evenodd" clip-rule="evenodd" d="M7 21H10V35H7V21ZM18 21H21V35H18V29H10.9994L13.6772 26H18V21ZM24 21V27.0291V28.5879V35.0001H34.0939C36.2512 35.0001 38 33.2157 38 31.0146C38 29.5664 37.243 28.2986 36.1106 27.6007C36.858 26.9068 37.3272 25.9062 37.3272 24.7939C37.3272 22.6986 35.6624 21 33.6088 21H24ZM27 32V24H32.9588C33.7589 24 34.4074 24.5628 34.4074 25.2571C34.4074 25.9514 33.7589 26.5143 32.9588 26.5143H30.8519L27.9218 29.0571H33.3045C34.2409 29.0571 35 29.7159 35 30.5286C35 31.3412 34.2409 32 33.3045 32H27ZM40 21V35H49.272L52 32H43V21H40Z" fill="white"/>
</svg>
