<!-- by TradingView --><svg width="56" height="56" viewBox="0 0 56 56" xmlns="http://www.w3.org/2000/svg"><path fill="#F0F3FA" d="M0 0h56v56H0z"/><path d="M26 33.07V17H11.54c-.36.14-.54.45-.54.94v20.24c0 .54.26.82.77.82h9.3c.16 0 .16-.04.01-.1l-5.17-2.33a.5.5 0 0 1-.25-.26.55.55 0 0 1-.02-.37c0-.04.02-.07.03-.11.14-.51.44-1.57 1.12-1.27 1.31.57 3.41 1.5 6.3 2.8.1.04.12.02.04-.07l-8.05-8.66c-.48-.51.06-1.03.51-1.48l.17-.16c.26-.26.51-.26.77.01l8.03 8.62c.1.11.13.1.07-.05l-2.5-6.44c-.18-.47-.18-.82.28-1.04l.15-.08c.5-.25 1.19-.6 1.47.14l1.9 4.93c.05.13.07.12.07-.01Zm19-15.13c0-.5-.2-.81-.58-.94H30.04L30 33.03c0 .22.04.23.12.03l1.87-4.9c.19-.5.55-.56 1-.37.03 0 .06.02.1.04.4.15 1.1.44.88 1.03l-2.59 6.77c-.06.15-.03.17.08.05l7.95-8.58c.33-.34.64-.3.96.05l.62.69a.58.58 0 0 1-.02.76l-8.1 8.74c-.03.04-.03.05.02.03L39 34.63c.4-.19.74-.15.92.3l.1.23c.15.35.33.77.29 1.04a.49.49 0 0 1-.3.4L35 38.87c-.2.09-.2.13.02.13a1779.92 1779.92 0 0 1 8.77 0c.7 0 1.2.01 1.2-.96v-20.1Z" fill="#005CB9"/></svg>