<!-- by TradingView --><svg width="56" height="56" viewBox="0 0 56 56" fill="none" xmlns="http://www.w3.org/2000/svg">
<rect width="56" height="56" fill="#F0F3FA"/>
<path fill-rule="evenodd" clip-rule="evenodd" d="M32.5242 14.0903C24.65 16.0616 8.80413 22.6599 8.41403 33.2828C8.46821 36.0538 10.9063 41.6739 20.2253 41.9863C29.5443 42.2988 39.0259 37.1696 42.6017 34.566C39.7483 36.0352 32.8276 39.0963 27.9731 39.5873C32.2533 37.9507 41.3339 34.2536 43.4145 32.5575C43.7576 32.0182 44.6389 30.7833 45.4191 30.1584C46.1993 29.5335 47.2251 28.5962 47.6405 28.2057C47.8933 27.499 48.5182 25.9182 48.995 25.2487C49.0311 24.3188 48.8867 22.2582 48.0198 21.4548C48.1281 22.2731 48.204 23.8539 47.6405 23.6307C47.077 23.4076 47.4057 21.864 47.6405 21.1201L46.1235 17.7726C45.5455 17.7911 44.2922 17.594 43.9021 16.6567C43.4145 15.4851 41.2472 14.8714 38.7008 16.0988C38.0526 16.4112 37.1413 16.7742 36.1444 17.1713C33.2247 18.3342 29.5719 19.7891 29.6527 21.1201C31.242 21.5106 35.2766 21.9235 38.7008 20.4506C38.9536 20.6365 39.1776 21.0978 38.0506 21.4548C36.9237 21.8119 36.4974 22.1615 36.4252 22.2917C37.6713 22.3475 40.5646 22.3252 42.1683 21.7896L43.4145 22.2917C42.5295 23.4262 39.8927 26.3199 36.4252 28.8194C32.0908 31.9438 24.2888 35.3471 17.9498 35.6818C12.8785 35.9496 12.8026 32.7806 13.3986 31.1627C13.7779 29.4889 16.5736 25.1371 24.7223 21.1201C26.2393 19.8555 29.8369 17.0026 32.0908 15.7082C34.9082 14.0903 33.5379 13.8227 32.5242 14.0903ZM43.1435 23.4634C43.2519 24.2259 43.1002 25.9517 41.6265 26.7551C40.1528 27.5585 38.6647 28.7264 38.1048 29.21C38.3035 28.559 39.0692 27.101 40.5429 26.4761C41.6685 25.9989 42.0052 25.3133 42.3316 24.6485C42.5395 24.2253 42.7431 23.8106 43.1435 23.4634Z" fill="#E0DFCC"/>
<path d="M14 21.9999L8 22V22.4269L10 23.3517V32.7193L8 33.5257V34L14 33.9999V33.5256L12 32.7193V28.6165L18 28.6166V32.7194L16 33.5257V34H22V33.5257L20 32.7194V23.3518L22 22.4269V22L16 21.9999V22.4268L18 23.3518V27.2411L12 27.241V23.3517L14 22.4268V21.9999Z" fill="black"/>
<path d="M12.1989 22.5457H9.73749L10.5333 23.1623V33.1605L9.98759 33.5681H11.9086L11.3302 33.1605V28.3121H18.1737L18.6976 27.883L18.1737 27.5497H11.3302V23.1623L12.1989 22.5457Z" fill="#F0F3FA"/>
<path d="M20.2632 22.4982H17.7964L18.7133 23.2062V33.1176L18.0802 33.5895H20.1322L19.39 33.1176V23.2062L20.2632 22.4982Z" fill="#F0F3FA"/>
<path fill-rule="evenodd" clip-rule="evenodd" d="M22.2789 22H28.3709C29.3279 22.0853 31.2605 22.9628 31.3352 25.7907C31.4099 28.6186 28.6743 29.3566 27.2972 29.3721L26 28.3256V32.7442L27.8574 33.6047V34.0001H22.2789V33.6047L24 32.7442V23.2093L22.2789 22.4884V22ZM26 27.8838V23.2791H27.8341C28.3709 23.3799 29.4586 23.9954 29.5146 25.6512C29.5846 27.721 27.5872 28.4419 26 27.8838Z" fill="black"/>
<path d="M23.6906 33.2713V33.5681H26.4448V33.2713L25.3945 32.8603V23H26.8649C28.013 23 29.8499 22.9281 30.2494 25.4397C30.5899 27.5807 27.9775 28.3546 26.7249 28.3394C29.0476 28.7994 30.7862 27.6773 30.7629 25.4397C30.7442 23.6496 29.1109 22.4943 28.2874 22.4943H23.6906L24.7176 23.1792V32.8603L23.6906 33.2713Z" fill="#F0F3FA"/>
<path d="M36 22H30.2184V22.479L32 23.2605V32.6387L30 33.5714V34H39V31H38.1175L37.3366 32.6387H34V23.2605L36 22.479V22Z" fill="black"/>
<path d="M34.0906 22.511H31.6628L32.6238 23.2305V32.799L31.6628 33.1464V33.5682H38V32.0547L37.5272 33H33.3319V23.2305L34.0906 22.511Z" fill="#F0F3FA"/>
</svg>
