<!-- by TradingView --><svg width="56" height="56" viewBox="0 0 56 56" xmlns="http://www.w3.org/2000/svg"><path fill="#F0F3FA" d="M0 0h56v56H0z"/><path d="M18 25H8l5 5 5-5Z" fill="#93BF4A"/><path d="M28 25H18l5 5 5-5Z" fill="#2CC1E1"/><path d="M38 25H28l5 5 5-5ZM48 25H38l5 5 5-5Z" fill="#FCBF42"/><path d="M18 35H8l5-5 5 5Z" fill="#F7DF3D"/><path d="M28 35H18l5-5 5 5Z" fill="#006BA9"/><path d="M38 35H28l5-5 5 5Z" fill="#F15642"/><path d="M48 35H38l5-5 5 5Z" fill="#FCE451"/><path d="m13 30-5-5v10l5-5Z" fill="#ECDC3B"/><path d="m23 30-5-5v10l5-5Z" fill="#0097D1"/><path d="m33 30-5-5v10l5-5Z" fill="#F37257"/><path d="m43 30-5-5v10l5-5Z" fill="#F78F48"/><path d="m13 30 5-5v10l-5-5Z" fill="#5DB24E"/><path d="m23 30 5-5v10l-5-5Z" fill="#2A3B79"/><path d="m33 30 5-5v10l-5-5Z" fill="#EF3E34"/><path d="m43 30 5-5v10l-5-5Z" fill="#FFD841"/><path d="M48 14H8v11h40V14ZM9 15h3v4h5v-4h3v9h-3v-3h-5v3H9v-9Zm12 0h3v6c0 .33.2 1 1 1h3c.33 0 1-.2 1-1v-6h3v6c0 1-.6 3-3 3h-5c-1 0-3-.6-3-3v-6Zm12 9v-9h4l3 6 3-6h4v9h-3v-6l-2.5 6h-3L36 18v6h-3Z" fill="#222E6A"/><path fill-rule="evenodd" d="M48 35H8v6h40v-6ZM9 40h1v-2.67L12 40h1v-4h-1v2.67L10 36H9v4Zm5-4h4v1h-3v.5h3v1h-3v.5h3v1h-4v-4Zm5 1v-1h4v1h-1.5v3h-1v-3H19Zm16.5 0c.28 0 .5.22.5.5v1a.5.5 0 0 1-.5.5h-2a.5.5 0 0 1-.5-.5v-1c0-.28.22-.5.5-.5h2ZM32 37a1 1 0 0 1 1-1h3a1 1 0 0 1 1 1v2a1 1 0 0 1-1 1h-3a1 1 0 0 1-1-1v-2Zm-6.9-1H24l1.75 4h.88l.87-2 .88 2h.87L31 36h-1.1l-1.09 2.5L28 36h-1l-.81 2.5-1.1-2.5ZM43 36h1v1.5h.5l1.25-1.5H47l-1.5 2 1.5 2h-1.25l-1.25-1.5H44V40h-1v-4Zm-5 0h2.5c.25 0 .6.07.92.3.33.24.58.64.58 1.2 0 .5-.19.86-.46 1.11.24.23.46.54.46.89v.5h-1v-.48c0-.52-.5-.52-.62-.52H39v1h-1v-4Zm1 2h1.5c.09 0 .23-.03.33-.1.08-.06.17-.16.17-.4 0-.24-.09-.34-.17-.4a.62.62 0 0 0-.33-.1H39v1Z" fill="#222E6A"/></svg>