<!-- by TradingView --><svg width="56" height="56" viewBox="0 0 56 56" fill="none" xmlns="http://www.w3.org/2000/svg">
<rect width="56" height="56" fill="#F0F3FA"/>
<rect x="17" y="12" width="22" height="5.87104" fill="url(#paint0_linear_229_27691)"/>
<path fill-rule="evenodd" clip-rule="evenodd" d="M27 19H17V44H27V19ZM39 19H29V44H39V19Z" fill="url(#paint1_linear_229_27691)"/>
<ellipse cx="27.468" cy="14.9355" rx="2.51784" ry="2.62259" fill="#F0F3FA"/>
<path fill-rule="evenodd" clip-rule="evenodd" d="M30.2 12.1447H37V14.8717H30.2V12.1447ZM30 12H30.2H37H37.2H39V18L37.2 18H37H30.2H30L25 18H24.8L19 18H18.8L17 18V12H18.8H19H24.8H25H30ZM30 17.8553H25V15.8298C25.3417 16.8969 26.3086 17.6662 27.4479 17.6662C28.7434 17.6662 29.8159 16.6716 30 15.3755V17.8553ZM27.4479 12.2915C26.3086 12.2915 25.3417 13.0608 25 14.1278V12.1447H30V14.5821C29.8159 13.2861 28.7434 12.2915 27.4479 12.2915ZM24.8 14.8717V12.1447H19V14.8717H24.8ZM24.8 17.8553V15.0134H19V17.8553H24.8ZM30.2 17.8553H37V15.0134H30.2V17.8553ZM38.8632 17.8553H37.2V15.0134H38.8632V17.8553ZM38.8632 14.8717H37.2V12.1447H38.8632V14.8717ZM18.8 17.8553H17.1368V12.1447H18.8V14.8717H17.1439V15.0134H18.8V17.8553ZM27.5159 12.4341C28.8 12.4706 29.8369 13.5389 29.8898 14.8717H27.5159V12.4341ZM27.3799 14.8717H25.0061C25.059 13.5389 26.0958 12.4707 27.3799 12.4341V14.8717ZM27.3799 15.0134V17.5235C26.0726 17.4863 25.0216 16.3798 25.0041 15.0134H27.3799ZM27.5159 15.0134V17.5236C28.8233 17.4864 29.8743 16.3798 29.8917 15.0134H27.5159ZM37 19.1394H30.6235V20H31.5H37V19.1394ZM33.8615 22.5C33.8615 21.3808 33.083 20.4435 32.0379 20.2H30.9621C30.8457 20.2271 30.7326 20.2628 30.6235 20.3065V24.6935C30.8945 24.8019 31.1903 24.8615 31.5 24.8615C32.8042 24.8615 33.8615 23.8042 33.8615 22.5ZM30.4875 20.2V20.2135C29.9105 20.4694 29.4483 20.9374 29.2 21.5186V20.2H30.4875ZM30.4875 20.3659C29.8466 20.6705 29.3646 21.2554 29.2 21.9621V23.0379C29.3646 23.7446 29.8466 24.3295 30.4875 24.6341V20.3659ZM29 20.2V22.5V40V41.8263H27.2V20.2H29ZM30.4875 24.7865C29.9105 24.5306 29.4483 24.0626 29.2 23.4814V38.7475C29.4433 38.009 29.8959 37.3655 30.4875 36.8873V24.7865ZM31.5 25C31.1916 25 30.8963 24.9442 30.6235 24.842V36.7822C31.288 36.2906 32.1101 36 33 36C35.2091 36 37 37.7909 37 40C37 40.658 36.8411 41.2788 36.5597 41.8263H37V40V20.2H32.4814C33.3743 20.5815 34 21.4677 34 22.5C34 23.8807 32.8807 25 31.5 25ZM30.4875 19.1394V20H29.2V19.1394H30.4875ZM30.4875 37.0618C29.831 37.6238 29.3651 38.4019 29.2 39.2859V40.7141C29.2738 41.1093 29.4077 41.4833 29.5919 41.8263H30.4875V37.0618ZM29.4403 41.8263C29.346 41.6428 29.2654 41.4511 29.2 41.2525V41.8263H29.4403ZM29.5168 41.968C29.7661 42.4082 30.0964 42.7966 30.4875 43.1127V43.8606H29.2V41.968H29.5168ZM30.4875 42.9382C30.1654 42.6625 29.8892 42.3347 29.6719 41.968H30.4875V42.9382ZM30.6235 43.2178V43.8606H31.9495C31.4648 43.729 31.0166 43.5086 30.6235 43.2178ZM32.7978 43.8606C31.9801 43.8185 31.2295 43.5223 30.6235 43.0493V41.968H36.3281C35.6871 43.0497 34.5337 43.792 33.2022 43.8606H32.7978ZM33.0039 44H37H37.2L39 44V19H37.2H37H30.6235H30.4875H29.2H29H27.2H27H25.2H25H19H18.8H17V44L18.8 44H19H22.9961L23 44L23.0039 44H25H25.2H27H27.2H29H29.2H30.4875H30.6235H32.9961L33 44L33.0039 44ZM34.0505 43.8606C35.0913 43.5781 35.9634 42.886 36.4832 41.968H37V43.8606H34.0505ZM36.4081 41.8263H30.6235V36.9507C31.2791 36.439 32.104 36.1342 33 36.1342C35.135 36.1342 36.8658 37.865 36.8658 40C36.8658 40.6606 36.7001 41.2824 36.4081 41.8263ZM27.2 41.968H29V43.8606H27.2V41.968ZM27 41.8263V40V22.5V20.2H25.4814C26.3743 20.5815 27 21.4677 27 22.5C27 23.6377 26.24 24.5979 25.2 24.9007V36.6588C26.2844 37.3743 27 38.6036 27 40C27 40.658 26.8411 41.2788 26.5597 41.8263H27ZM25 36.5351V24.95C24.8384 24.9828 24.6712 25 24.5 25C23.1193 25 22 23.8807 22 22.5C22 21.4677 22.6257 20.5815 23.5186 20.2H19V41.8263H19.4403C19.1589 41.2788 19 40.658 19 40C19 37.7909 20.7909 36 23 36C23.7286 36 24.4117 36.1948 25 36.5351ZM24.5 24.8615C24.6716 24.8615 24.8388 24.8432 25 24.8085V20.2H23.9621C22.917 20.4435 22.1385 21.3808 22.1385 22.5C22.1385 23.8042 23.1958 24.8615 24.5 24.8615ZM25.2 20.2439V24.7561C26.1625 24.4578 26.8615 23.5605 26.8615 22.5C26.8615 21.4395 26.1625 20.5422 25.2 20.2439ZM19 20H24.5H25V19.1394H19V20ZM26.8658 40C26.8658 38.6824 26.2066 37.5187 25.2 36.8208V41.8263H26.4081C26.7001 41.2824 26.8658 40.6606 26.8658 40ZM25 41.8263V36.6911C24.4165 36.3376 23.732 36.1342 23 36.1342C20.865 36.1342 19.1342 37.865 19.1342 40C19.1342 40.6606 19.2999 41.2824 19.5919 41.8263H25ZM19 41.968H19.5168C20.0366 42.886 20.9087 43.5781 21.9495 43.8606H19V41.968ZM19.6719 41.968C20.3129 43.0497 21.4663 43.792 22.7978 43.8606H23.2022C23.858 43.8268 24.4705 43.6296 25 43.3089V41.968H19.6719ZM25 43.4649C24.7052 43.6354 24.3866 43.7694 24.0505 43.8606H25V43.4649ZM25.2 43.8606V43.3412C25.7289 42.9923 26.17 42.5211 26.4832 41.968H27V43.8606H25.2ZM25.2 41.968H26.3281C26.0434 42.4484 25.6576 42.862 25.2 43.1792V41.968ZM18.8 41.8263V20.2H17.136V41.8263H18.8ZM17.136 41.968H18.8V43.8606H17.136V41.968ZM37.2 41.968V43.8606H38.864V41.968H37.2ZM38.864 41.8263H37.2V20.2H38.864V41.8263ZM29 19.1394V20H27.2V19.1394H29ZM27 19.1394V20H25.2V19.1394H27ZM18.8 19.1394V20H17.136V19.1394H18.8ZM38.864 19.1394V20H37.2V19.1394H38.864Z" fill="black"/>
<defs>
<linearGradient id="paint0_linear_229_27691" x1="28" y1="12" x2="28" y2="17.871" gradientUnits="userSpaceOnUse">
<stop stop-color="#0773BC"/>
<stop offset="0.756329" stop-color="#0773BC" stop-opacity="0"/>
</linearGradient>
<linearGradient id="paint1_linear_229_27691" x1="34.1206" y1="18.5671" x2="34.1206" y2="44" gradientUnits="userSpaceOnUse">
<stop stop-color="#0773BC"/>
<stop offset="0.756329" stop-color="#0773BC" stop-opacity="0"/>
</linearGradient>
</defs>
</svg>
