<!-- by TradingView --><svg width="56" height="56" viewBox="0 0 56 56" xmlns="http://www.w3.org/2000/svg"><path fill="#F0F3FA" d="M0 0h56v56H0z"/><path d="M22 20v-3h5l-5 3Z" fill="#EC7D2B"/><path d="M22 38v-3h5l-5 3Z" fill="#2D4C8D"/><path d="M27 26h-5l5 3v-3Z" fill="#43B8E4"/><path d="m27 29-5-3v3h5Z" fill="#0495C9"/><path d="m27 17-5 3h5v-3Z" fill="#FE593B"/><path d="m27 35-5 3h5v-3Z" fill="#2A3680"/><path d="m14 17-5 3 5 3v-6Z" fill="#FFB326"/><path d="m14 23-5 3 5 3v-6Z" fill="#FE593B"/><path d="m14 29-5 3 5 3v-6Z" fill="#24C1EA"/><path d="M14 38H9l5-3v3Z" fill="#016EB9"/><path d="M9 26v-6l5 3-5 3Z" fill="#F28028"/><path d="M9 32v-6l5 3-5 3Z" fill="#BB2E34"/><path d="M9 38v-6l5 3-5 3Z" fill="#0396D2"/><path d="m42 20-5-3v6l5-3Z" fill="#0C9DD4"/><path d="m42 26-5-3v6l5-3Z" fill="#24508D"/><path d="m42 20-5 3 5 3v-6Z" fill="#0071AE"/><path d="m42 26-5 3 5 3v-6Z" fill="#2E3872"/><path d="m42 32-5-3v9h12v-5h-7v-1Z" fill="#33355C"/><path d="M22 17h-5l5 3v-3Z" fill="#F3A624"/><path d="m22 20-5-3v6l5-3Z" fill="#EF8128"/><path d="m22 26-5-3v6l5-3Z" fill="#AE3A31"/><path d="m22 32-5-3v6l5-3Z" fill="#0396D2"/><path d="m22 20-5 3 5 3v-6Z" fill="#FE593B"/><path d="m22 26-5 3 5 3v-6Z" fill="#24C1EA"/><path d="m22 32-5 3 5 3v-6Z" fill="#016EAD"/><path d="m22 38-5-3v3h5Z" fill="#295697"/><path d="M28.9 21.93C28.56 20.4 27.54 20 27 20v-3c1.63 0 4.38.53 5.9 2.35l-4 2.58Z" fill="#B23C38"/><path d="M34.89 32.02 32 34.5l-2.17-1.35C29.53 34.1 28.77 35 27 35v3c2 0 8 0 8-5 0-.35-.04-.67-.11-.98Z" fill="#33355C"/><path d="M32 28.79v5.71l2.92-2.34c-.33-1.65-1.63-2.7-2.92-3.37Z" fill="#253F7B"/><path d="m31.7 28.64-2.6 1.15c.6.57.9 1.4.9 2.21 0 .35-.04.75-.17 1.15L32 34.5v-5.71l-.3-.15Z" fill="#0670AA"/><path d="m31.99 27.33-3.46-2.3c-.45.74-1.12.97-1.53.97v3c.97 0 1.71.36 2.21.9l2.5-1.25c-.63-.3-1.24-.5-1.71-.65.53 0 1.28-.18 1.99-.67Z" fill="#0595C9"/><path d="M33 19.46c.61.77 1 1.77 1 3.04 0 1.74-.42 2.96-1 3.8v-6.84Z" fill="#019DCC"/><path d="M33 26.3v-6.84l-.25-.3-3.9 2.6c.1.35.15.76.15 1.24 0 .91-.2 1.56-.47 2.02l3.46 2.3c.36-.25.7-.58 1.01-1.02Z" fill="#43B8E4"/></svg>