<!-- by TradingView --><svg width="56" height="56" viewBox="0 0 56 56" fill="none" xmlns="http://www.w3.org/2000/svg">
<rect width="56" height="56" fill="#F0F3FA"/>
<path fill-rule="evenodd" clip-rule="evenodd" d="M46 17.0392L48.0026 17.0504L47.997 18.0503L46 18.0392V38H48.0026V39H39V38H41V18.0112L38.9972 18L39.0028 17L41 17.0112V17H46V17.0392ZM8 17H17V18H15V38H17V39H8V38H10V18H8V17ZM28.0694 17C19.9825 17 17 23.8787 17 28.3458C17.0231 31.8972 19.1865 39 27.6552 39C35.8273 39 37.713 33.203 37.6555 30H39V29H29V30H31V34.5767C30.9201 35.7361 30.1478 38 27.6552 38C24.5393 38 24 35.5597 24 33.4804V22.8192C24.1065 21.1683 25.3383 18 28.534 18C32.5287 18 34.6458 21.1097 34.6458 23H36V17.4508H34.6458L33.8868 18.8118C33.0578 18.2078 30.7336 17 28.0694 17Z" fill="#017AB3"/>
</svg>
