<!-- by TradingView --><svg width="56" height="56" viewBox="0 0 56 56" fill="none" xmlns="http://www.w3.org/2000/svg">
<rect width="56" height="56" fill="#F0F3FA"/>
<path fill-rule="evenodd" clip-rule="evenodd" d="M4 24H6V32H4V24ZM7 24V32H9V27.8457L11.8685 32H14V24H12V28.178L9.15571 24H7ZM14.5 26V24H20.5V26H18.5V32H16.5V26H14.5ZM21 32V24H26V26H23V27H25V29H23V30H26V32H21ZM27 32V24H30.1972C31.5887 24 32.7167 25.1782 32.7167 26.6315V26.7329C32.7167 27.6783 32.2394 28.5647 31.5227 29.0687L33 32L33 32H30.6866L29.5475 29.5H29V32H27ZM33 32V24H35V30H36.0805C36.3037 30.468 37.0058 31.6125 38.028 32H33ZM29.832 26H29.0001V27.5H29.832C30.2958 27.5 30.6718 27.1878 30.6718 26.8027V26.6973C30.6718 26.3122 30.2958 26 29.832 26ZM48.5899 28.0002C48.5899 29.6819 47.6835 31.1451 46.3476 31.8976V32H48.3786V29.5H49.284C50.784 29.5 52 28.3524 52 26.8039C52 25.2553 50.784 24 49.284 24H46.1536C47.0064 24.4237 47.7028 25.1294 48.1294 26H49.1313C49.5969 26 49.9744 26.3023 49.9744 26.6752V26.8247C49.9744 27.1977 49.5969 27.5 49.1313 27.5H48.5629C48.5807 27.6642 48.5899 27.8311 48.5899 28.0002Z" fill="#323E4C"/>
<path fill-rule="evenodd" clip-rule="evenodd" d="M40 24C40.592 24 41.154 24.1286 41.6595 24.3594C41.1714 24.6739 40.7506 25.0838 40.4235 25.5629C40.2859 25.5391 40.1444 25.5267 40 25.5267C38.6339 25.5267 37.5266 26.6341 37.5266 28.0001C37.5266 29.3661 38.6339 30.4735 40 30.4735C41.366 30.4735 42.4734 29.3661 42.4734 28.0001C42.4734 27.5582 42.3574 27.1433 42.1544 26.7843C42.4412 26.3497 42.8774 26.0224 43.3898 25.8755C43.7764 26.4911 44 27.2194 44 28C44 30.2091 42.2091 32 40 32C37.7909 32 36 30.2091 36 28C36 25.7909 37.7909 24 40 24ZM44 32C46.2091 32 48 30.2091 48 28C48 25.7909 46.2091 24 44 24C41.7908 24 40 25.7909 40 28C40 28.7549 40.2091 29.4609 40.5725 30.0633C40.9334 29.9478 41.4771 29.671 41.8138 29.1581C41.6304 28.8127 41.5265 28.4185 41.5265 28.0001C41.5265 26.6341 42.6339 25.5267 43.9999 25.5267C45.366 25.5267 46.4733 26.6341 46.4733 28.0001C46.4733 29.3661 45.366 30.4735 43.9999 30.4735C43.8333 30.4735 43.6704 30.457 43.513 30.4256C43.2816 30.7592 42.8237 31.2573 42.1795 31.5627C42.7256 31.8423 43.3443 32 44 32Z" fill="#04A7EA"/>
</svg>
