<!-- by TradingView --><svg width="56" height="56" viewBox="0 0 56 56" fill="none" xmlns="http://www.w3.org/2000/svg">
<rect width="56" height="56" fill="#F0F3FA"/>
<path d="M31.7849 18.3584L35.0989 15.0158C35.1015 15.0132 35.1046 15.0111 35.1079 15.0097C35.1113 15.0083 35.1149 15.0076 35.1186 15.0076C35.1222 15.0076 35.1258 15.0083 35.1292 15.0097C35.1326 15.0111 35.1356 15.0132 35.1382 15.0158L47.9918 27.9805C47.9944 27.9831 47.9965 27.9862 47.9979 27.9896C47.9993 27.993 48 27.9966 48 28.0003C48 28.004 47.9993 28.0076 47.9979 28.011C47.9965 28.0144 47.9944 28.0175 47.9918 28.0201L35.1313 40.9918C35.1287 40.9944 35.1256 40.9964 35.1223 40.9979C35.1189 40.9993 35.1153 41 35.1116 41C35.108 41 35.1044 40.9993 35.101 40.9979C35.0976 40.9964 35.0945 40.9944 35.092 40.9918L31.778 37.6491C31.7754 37.6465 31.7723 37.6445 31.769 37.643C31.7656 37.6416 31.762 37.6409 31.7583 37.6409C31.7547 37.6409 31.751 37.6416 31.7477 37.643C31.7443 37.6445 31.7412 37.6465 31.7387 37.6491L28.4241 40.9918C28.4215 40.9944 28.4184 40.9964 28.4151 40.9979C28.4117 40.9993 28.4081 41 28.4044 41C28.4008 41 28.3972 40.9993 28.3938 40.9979C28.3904 40.9964 28.3873 40.9944 28.3848 40.9918L24.6666 37.2409C24.664 37.2383 24.661 37.2362 24.6576 37.2348C24.6542 37.2334 24.6506 37.2327 24.647 37.2327C24.6433 37.2327 24.6397 37.2334 24.6363 37.2348C24.633 37.2362 24.6299 37.2383 24.6273 37.2409L20.908 40.9918C20.9054 40.9944 20.9024 40.9964 20.899 40.9979C20.8956 40.9993 20.892 41 20.8884 41C20.8847 41 20.8811 40.9993 20.8777 40.9979C20.8743 40.9964 20.8713 40.9944 20.8687 40.9918L8.00816 28.0201C8.00557 28.0175 8.00352 28.0144 8.00212 28.011C8.00072 28.0076 8 28.004 8 28.0003C8 27.9966 8.00072 27.993 8.00212 27.9896C8.00352 27.9862 8.00557 27.9831 8.00816 27.9805L20.8687 15.0082C20.8713 15.0056 20.8743 15.0036 20.8777 15.0021C20.8811 15.0007 20.8847 15 20.8884 15C20.892 15 20.8956 15.0007 20.899 15.0021C20.9024 15.0036 20.9054 15.0056 20.908 15.0082L24.6267 18.7591C24.6293 18.7617 24.6324 18.7638 24.6357 18.7652C24.6391 18.7666 24.6427 18.7673 24.6464 18.7673C24.65 18.7673 24.6537 18.7666 24.657 18.7652C24.6604 18.7638 24.6635 18.7617 24.666 18.7591L28.3853 15.0082C28.3879 15.0056 28.391 15.0036 28.3944 15.0021C28.3977 15.0007 28.4013 15 28.405 15C28.4086 15 28.4123 15.0007 28.4156 15.0021C28.419 15.0036 28.4221 15.0056 28.4247 15.0082L31.7456 18.3584C31.7482 18.3611 31.7512 18.3631 31.7546 18.3645C31.758 18.366 31.7616 18.3667 31.7653 18.3667C31.7689 18.3667 31.7725 18.366 31.7759 18.3645C31.7793 18.3631 31.7823 18.3611 31.7849 18.3584ZM41.2829 27.9775C41.2887 27.9834 41.2919 27.9914 41.2919 27.9997C41.2919 28.008 41.2887 28.016 41.2829 28.0219L32.821 36.5575C32.8152 36.5634 32.8119 36.5713 32.8119 36.5796C32.8119 36.5879 32.8152 36.5959 32.821 36.6018L35.0966 38.8977C35.1024 38.9035 35.1103 38.9068 35.1186 38.9068C35.1268 38.9068 35.1347 38.9035 35.1405 38.8977L45.9226 28.0219C45.9284 28.016 45.9316 28.008 45.9316 27.9997C45.9316 27.9914 45.9284 27.9834 45.9226 27.9775L35.1405 17.1023C35.1347 17.0965 35.1268 17.0932 35.1186 17.0932C35.1103 17.0932 35.1024 17.0965 35.0966 17.1023L32.821 19.3982C32.8152 19.4041 32.8119 19.4121 32.8119 19.4204C32.8119 19.4287 32.8152 19.4366 32.821 19.4425L41.2829 27.9775ZM15.5196 28.0149C15.5156 28.0108 15.5134 28.0054 15.5134 27.9997C15.5134 27.994 15.5156 27.9886 15.5196 27.9845L23.5907 19.8437C23.5946 19.8397 23.5968 19.8342 23.5968 19.8286C23.5968 19.8229 23.5946 19.8174 23.5907 19.8134L20.904 17.1029C20.9 17.0989 20.8946 17.0967 20.8889 17.0967C20.8833 17.0967 20.8779 17.0989 20.8739 17.1029L10.0774 27.9921C10.0734 27.9962 10.0712 28.0016 10.0712 28.0073C10.0712 28.013 10.0734 28.0184 10.0774 28.0225L20.8733 38.9117C20.8773 38.9156 20.8827 38.9179 20.8884 38.9179C20.894 38.9179 20.8994 38.9156 20.9034 38.9117L23.5982 36.1942C23.6021 36.1901 23.6044 36.1847 23.6044 36.179C23.6044 36.1733 23.6021 36.1679 23.5982 36.1638L15.5196 28.0149ZM28.4443 17.128C28.4432 17.1093 28.4322 17.0996 28.4114 17.0988C28.4059 17.0986 28.4004 17.0996 28.3954 17.1016C28.3903 17.1036 28.3857 17.1066 28.3819 17.1105L25.7125 19.8029C25.6959 19.82 25.6959 19.8371 25.7125 19.8542L27.9928 22.1542C27.9947 22.1561 27.9969 22.1577 27.9994 22.1587C28.0019 22.1598 28.0045 22.1603 28.0072 22.1603C28.0099 22.1603 28.0126 22.1598 28.0151 22.1587C28.0175 22.1577 28.0198 22.1561 28.0217 22.1542L30.7118 19.4402C30.7135 19.4385 30.7149 19.4365 30.7158 19.4343C30.7167 19.4321 30.7171 19.4297 30.7171 19.4274C30.7171 19.425 30.7167 19.4226 30.7158 19.4204C30.7149 19.4182 30.7135 19.4162 30.7118 19.4145C29.9537 18.6502 29.1978 17.888 28.4443 17.128ZM33.7738 27.9845C33.7777 27.9886 33.7799 27.994 33.7799 27.9997C33.7799 28.0054 33.7777 28.0108 33.7738 28.0149L29.0554 32.774C29.0515 32.778 29.0493 32.7835 29.0493 32.7891C29.0493 32.7948 29.0515 32.8003 29.0554 32.8043L31.7502 35.5224C31.7542 35.5264 31.7596 35.5286 31.7653 35.5286C31.7709 35.5286 31.7763 35.5264 31.7803 35.5224L39.2154 28.0225C39.2193 28.0184 39.2216 28.013 39.2216 28.0073C39.2216 28.0016 39.2193 27.9962 39.2154 27.9921L31.7733 20.4852C31.7693 20.4812 31.7639 20.479 31.7583 20.479C31.7527 20.479 31.7473 20.4812 31.7433 20.4852L29.056 23.1957C29.052 23.1997 29.0498 23.2052 29.0498 23.2109C29.0498 23.2165 29.052 23.222 29.056 23.226L33.7738 27.9845ZM22.2366 28.026C22.2342 28.0235 22.2322 28.0206 22.2309 28.0174C22.2296 28.0142 22.2289 28.0108 22.2289 28.0073C22.2289 28.0038 22.2296 28.0004 22.2309 27.9972C22.2322 27.994 22.2342 27.9911 22.2366 27.9886L26.948 23.2371C26.9505 23.2347 26.9524 23.2318 26.9538 23.2285C26.9551 23.2253 26.9558 23.2219 26.9558 23.2184C26.9558 23.215 26.9551 23.2115 26.9538 23.2083C26.9524 23.2051 26.9505 23.2022 26.948 23.1998L24.6655 20.8969C24.6631 20.8944 24.6602 20.8925 24.657 20.8911C24.6538 20.8898 24.6504 20.8891 24.647 20.8891C24.6435 20.8891 24.6401 20.8898 24.6369 20.8911C24.6338 20.8925 24.6309 20.8944 24.6285 20.8969L17.5969 27.9886C17.5945 27.9911 17.5925 27.994 17.5912 27.9972C17.5899 28.0004 17.5892 28.0038 17.5892 28.0073C17.5892 28.0108 17.5899 28.0142 17.5912 28.0174C17.5925 28.0206 17.5945 28.0235 17.5969 28.026L24.6285 35.1177C24.6309 35.1201 24.6338 35.1221 24.6369 35.1234C24.6401 35.1248 24.6435 35.1255 24.647 35.1255C24.6504 35.1255 24.6538 35.1248 24.657 35.1234C24.6602 35.1221 24.6631 35.1201 24.6655 35.1177L26.948 32.8154C26.9505 32.8129 26.9524 32.81 26.9538 32.8068C26.9551 32.8036 26.9558 32.8002 26.9558 32.7967C26.9558 32.7933 26.9551 32.7898 26.9538 32.7866C26.9524 32.7834 26.9505 32.7805 26.948 32.7781L22.2366 28.026ZM28.0111 24.272C28.0097 24.2705 28.0079 24.2694 28.0061 24.2686C28.0042 24.2678 28.0021 24.2674 28.0001 24.2674C27.998 24.2674 27.996 24.2678 27.9941 24.2686C27.9922 24.2694 27.9905 24.2705 27.989 24.272L24.3039 27.9889C24.3025 27.9904 24.3013 27.9921 24.3006 27.9941C24.2998 27.996 24.2994 27.998 24.2994 28.0001C24.2994 28.0021 24.2998 28.0042 24.3006 28.0061C24.3013 28.008 24.3025 28.0098 24.3039 28.0112L27.9964 31.7356C27.9978 31.737 27.9996 31.7382 28.0015 31.739C28.0034 31.7398 28.0054 31.7402 28.0074 31.7402C28.0095 31.7402 28.0115 31.7398 28.0134 31.739C28.0153 31.7382 28.017 31.737 28.0185 31.7356L31.7036 28.0186C31.705 28.0172 31.7062 28.0154 31.707 28.0135C31.7077 28.0116 31.7081 28.0096 31.7081 28.0075C31.7081 28.0054 31.7077 28.0034 31.707 28.0015C31.7062 27.9996 31.705 27.9978 31.7036 27.9964L28.0111 24.272ZM30.7018 36.6103C30.7048 36.6073 30.7071 36.6037 30.7088 36.5997C30.7104 36.5958 30.7112 36.5915 30.7112 36.5872C30.7112 36.5829 30.7104 36.5787 30.7088 36.5747C30.7071 36.5708 30.7048 36.5672 30.7018 36.5641L28.0232 33.8624C28.0202 33.8594 28.0166 33.857 28.0127 33.8553C28.0087 33.8537 28.0045 33.8528 28.0003 33.8528C27.996 33.8528 27.9918 33.8537 27.9879 33.8553C27.984 33.857 27.9804 33.8594 27.9774 33.8624L25.7035 36.1559C25.7005 36.1589 25.6981 36.1625 25.6965 36.1665C25.6949 36.1705 25.694 36.1747 25.694 36.179C25.694 36.1833 25.6949 36.1875 25.6965 36.1915C25.6981 36.1955 25.7005 36.1991 25.7035 36.2021L28.3821 38.9038C28.3851 38.9068 28.3887 38.9093 28.3926 38.9109C28.3965 38.9125 28.4008 38.9134 28.405 38.9134C28.4093 38.9134 28.4135 38.9125 28.4174 38.9109C28.4213 38.9093 28.4249 38.9068 28.4279 38.9038L30.7018 36.6103Z" fill="#23A69E"/>
</svg>
