<!-- by TradingView --><svg width="56" height="56" viewBox="0 0 56 56" xmlns="http://www.w3.org/2000/svg"><path fill="#F0F3FA" d="M0 0h56v56H0z"/><path d="M11 23.5a2.5 2.5 0 1 1-5 0 2.5 2.5 0 0 1 5 0Zm-.78 0a1.73 1.73 0 1 0-3.45 0 1.73 1.73 0 0 0 3.45 0ZM15.7 23.95c2.57-2.57 7.35-2.64 9.94.03a.16.16 0 0 0 .23 0A6.59 6.59 0 0 1 32 22.14c1.36.24 2.5.83 3.46 1.78 1.3 1.3 1.56 2.78 1.55 4.77v6.15c0 .05-.02.09-.05.11a.16.16 0 0 1-.11.05h-2.68a.17.17 0 0 1-.11-.05.16.16 0 0 1-.05-.1v-6.3c0-.98-.22-1.8-.66-2.43-1.84-2.64-5.63-1.57-6.28 1.35-.05.23-.06 2.58-.06 2.58v4.78c0 .04-.03.1-.06.13a.15.15 0 0 1-.1.04h-2.7a.12.12 0 0 1-.1-.04c-.02-.02-.04-.05-.04-.08v-6.71c-.01-1.93-1.28-3.62-3.31-3.54a3.96 3.96 0 0 0-3.69 3.8v6.47c0 .03-.03.05-.05.07a.1.1 0 0 1-.07.03h-2.72a.17.17 0 0 1-.12-.05c-.03-.03-.04-.07-.04-.12v-6.4c0-1.72-.27-2.9-1.85-3.5a.23.23 0 0 1-.1-.1.22.22 0 0 1-.05-.12v-2.47a.14.14 0 0 1 .16-.13c1.43.22 2.24.83 3.26 1.84a.2.2 0 0 0 .27 0ZM49.82 28h-2.45a.16.16 0 0 1-.1-.04.17.17 0 0 1-.06-.1c-.12-1.64-.9-2.59-2.35-3.01a3.1 3.1 0 0 0-2.77.34c-1.14.8-1.93 3.52.12 4.42 2.66 1.18 7.24 1.18 7.7 5.22a.16.16 0 0 1-.03.12.13.13 0 0 1-.1.05H47.3a.2.2 0 0 1-.1-.03.21.21 0 0 1-.08-.09c-.82-1.63-3.17-2.07-4.92-2.5-2.32-.59-4.24-2.16-4.21-4.86.06-4.33 4.43-6.46 8.01-5.12 2.48.92 3.81 2.67 3.99 5.41a.19.19 0 0 1-.05.14.18.18 0 0 1-.13.05ZM9.93 27H7.08a.08.08 0 0 0-.08.08v7.84c0 .05.03.08.08.08h2.85c.04 0 .07-.03.07-.08v-7.84a.08.08 0 0 0-.07-.08Z" fill="#B00060"/></svg>