<!-- by TradingView --><svg width="56" height="56" viewBox="0 0 56 56" xmlns="http://www.w3.org/2000/svg"><path fill="#F0F3FA" d="M0 0h56v56H0z"/><path d="M45 26.28v-.07a14.92 14.92 0 0 0-.77-3.09c-.02-.04-.05-.06-.1-.05-2.22.4-3.07-2.18-1.19-3.16.05-.03.06-.06.04-.11-.5-.94-1.12-1.79-1.86-2.55a.1.1 0 0 0-.12-.01c-1.92 1.19-3.7-.83-2.3-2.48.04-.04.04-.08 0-.11a14.89 14.89 0 0 0-2.68-1.69c-.05-.02-.1-.01-.12.04-1.19 1.87-3.72.73-3.09-1.34.02-.05 0-.08-.04-.1-1.04-.3-2.1-.48-3.17-.53-.05 0-.08.02-.08.07-.12 2.11-3.2 2.17-3.33-.03 0-.05-.03-.07-.08-.07-1.05.1-2.05.34-3.03.72a.1.1 0 0 0-.06.12c.52 2.08-2.07 3.1-3.14 1.2-.03-.05-.06-.06-.1-.04a12.85 12.85 0 0 0-2.67 1.97.06.06 0 0 0 .02.04c1.4 1.54-.54 3.74-2.37 2.36-.04-.04-.09-.03-.13.01-.66.82-1.2 1.7-1.64 2.66-.02.05-.01.09.04.12 1.9 1.09.76 3.68-1.34 3.1-.05-.01-.08 0-.09.05a25.7 25.7 0 0 0-.6 3.1v.09c2.27.19 2.45 3.1.13 3.4-.04 0-.06.03-.06.07a15 15 0 0 0 .71 3.1c.02.06.06.08.11.06 2.1-.56 3.2 2.03 1.3 3.12-.06.03-.07.06-.04.11a11.3 11.3 0 0 0 1.9 2.55c.03.04.07.04.12 0 .9-.73 2.15-.53 2.63.54.26.55.17 1.17-.25 1.86a.12.12 0 0 0-.02.09 14.17 14.17 0 0 0 2.63 1.65.12.12 0 0 0 .17-.05c1-1.84 3.55-.8 3.08 1.33-.01.05.01.08.06.09l2.65.45a.08.08 0 0 0 .07-.01l.02-.02.01-.04c.32-2.19 3.18-2.12 3.36.2h.14c1.05-.12 2.06-.36 3.03-.7.05-.02.07-.05.06-.1-.49-2.15 2.13-3.14 3.13-1.2.02.05.06.06.11.03a10.92 10.92 0 0 0 2.6-1.91.1.1 0 0 0-.01-.07c-1.28-1.84.85-3.71 2.48-2.27.04.04.07.03.1 0 .67-.82 1.21-1.7 1.64-2.66.02-.05 0-.09-.04-.12-1.83-1.09-.75-3.66 1.42-3.06h.06a12.06 12.06 0 0 0 .56-3.16c0-.07-.03-.1-.09-.11-2.18-.32-2.07-3.18.23-3.4Zm-8.01-7.34a12.81 12.81 0 0 1-4.12 20.84A12.65 12.65 0 0 1 19.02 37a12.81 12.81 0 0 1 0-18.07 12.67 12.67 0 0 1 17.97 0ZM28 20h-3v16h3V20Zm-5 0h-3v16h3V20Zm10 0h-3v16h6v-3h-3V20Z" fill="#504A4A"/></svg>