<!-- by TradingView --><svg width="56" height="56" viewBox="0 0 56 56" xmlns="http://www.w3.org/2000/svg"><path fill="url(#a)" d="M0 0h56v56H0z"/><path d="M25.51 21c.1.02.18.05.26.1a.6.6 0 0 1 .19.22.6.6 0 0 1 .04.28v1.58c0 .03.03.06.04.08l.05.07.08.03c.03 0 .05 0 .08-.02l5.96-2.27a.54.54 0 0 1 .52.06c.08.06.14.13.18.21.04.09.09.18.09.27v3.53c.02.03.04.05.07.06h.08c.03 0 .05-.02.07-.04.08-.1.43-.73 1.25-1.95 1.01-1.5 2.63-2.77 4.3-1.73 2.31 1.43 1.05 5.03-1.25 4-.49-.22-1.16-.63-2.02-1.23a.76.76 0 0 0-.96.08c0 .01-.95 1.87-1.44 2.99-.08.16-.1.34-.1.52v10.12c.02 2.15.62 3.22 2.63 3.2.1 0 .2.04.27.12.06.07.1.17.1.27v.17c0 .08-.02.15-.07.2a.26.26 0 0 1-.2.08H19.5a.33.33 0 0 1-.23-.1.34.34 0 0 1-.1-.24v-.25a.27.27 0 0 1 .08-.2.24.24 0 0 1 .19-.07c1.73.13 2.55-.57 2.57-2.09V25.24c0-.28-.13-.55-.32-.74-.2-.2-.45-.3-.72-.3h-1.73a.22.22 0 0 1-.16-.07.23.23 0 0 1-.07-.17v-.18c0-.09.03-.18.08-.26a.44.44 0 0 1 .2-.16l5.96-2.32a.55.55 0 0 1 .27-.04ZM29 25.86c0-2.5-2.9-1.9-3-.64V39.5c.01 1.87 3 1.8 3-.04v-13.6ZM23.93 12a2.23 2.23 0 1 1 0 4.47 2.23 2.23 0 0 1 0-4.47Z" fill="#fff"/><defs><linearGradient id="a" x1="10.42" y1="9.71" x2="68.15" y2="76.02" gradientUnits="userSpaceOnUse"><stop stop-color="#1A1E21"/><stop offset="1" stop-color="#06060A"/></linearGradient></defs></svg>