<!-- by TradingView --><svg width="56" height="56" viewBox="0 0 56 56" xmlns="http://www.w3.org/2000/svg"><path fill="#F0F3FA" d="M0 0h56v56H0z"/><path fill-rule="evenodd" d="M28 38c13.25 0 24-4.48 24-10S41.25 18 28 18 4 22.48 4 28s10.75 10 24 10ZM16 22h-3v8.14c0 1.13-.55 1.86-1.53 1.86H11v2h1.88C14.6 34 16 32.38 16 30.38V22Zm8.5 0H19v12h5.5c3.04 0 5.5-2.69 5.5-6s-2.46-6-5.5-6Zm-1.4 1H22v10h1.1c2.15 0 3.9-1.91 3.9-4.27v-1.46C27 24.9 25.25 23 23.1 23Zm11.46-1H31l4.89 12 2.5-5.7 2.32 5.7L46 22h-1.6l-2.58 5.74L39.39 22h-3.56l1.81 4.45-.64 1.32L34.56 22Z" fill="#28458F"/></svg>