<!-- by TradingView --><svg width="56" height="56" viewBox="0 0 56 56" xmlns="http://www.w3.org/2000/svg"><path fill="#CE153E" d="M0 0h56v56H0z"/><path d="m6 27-2 2v3c0 .67.8 2 4 2s4-1.33 4-2V18l-2 2v11c0 1-.8 1.5-2 1.5S6 32 6 31v-4ZM15 27l-2 2v3c0 1.5 1.5 2 3 2 1.2 0 1.83-.67 2-1v1h2v-7l-2 2v2c0 .5-.3 1.5-1.5 1.5S15 31.5 15 31v-4ZM21 21l2 2v4.34a3.5 3.5 0 1 1 0 6.33V34h-2V21Zm2 9.5c0 .83 0 2 1.5 2s1.5-1.17 1.5-2c0-.83 0-2-1.5-2s-1.5 1.17-1.5 2ZM34 21l-2 2v11h2V21ZM31 27l-2 2v5h2v-7ZM39 32.5a2.5 2.5 0 0 0 1.69-.66l1.4.7a4 4 0 1 1 .88-2.04H37.5L39 29h2.3a2.5 2.5 0 1 0-2.3 3.5ZM48 32.5a2.5 2.5 0 0 0 1.69-.66l1.4.7a4 4 0 1 1 .88-2.04H46.5L48 29h2.3a2.5 2.5 0 1 0-2.3 3.5Z" fill="#fff"/></svg>