<!-- by TradingView --><svg width="56" height="56" viewBox="0 0 56 56" xmlns="http://www.w3.org/2000/svg"><path fill="#F0F3FA" d="M0 0h56v56H0z"/><path d="M34.53 20h-6c-.26 0-.5.19-.5.5s.24.5.5.5h1.06c.38 0 .41.31.41.5V35c0 .9-.42 2-.97 2-1.41 0-1.02-2-1.5-2-.46 0-.76 1.87-.3 2.43.38.46 1.89.57 2.36.57 2.83 0 3.41-2.73 3.41-5V21.5c0-.45.35-.5.5-.5h1.03c.26 0 .47-.19.47-.5s-.21-.5-.47-.5ZM46.28 20c-.46 0-.57.82-.57 1.23C44.56 20.82 43.29 20 41 20c-3.44 0-5.5 1.23-5.5 3.7 0 3.07 1.2 4.35 5.62 5.53 3.67.99 4.88 1.44 4.88 2.5 0 2.46-3.47 3.2-5 3.2-4.87-.1-4.46-5.08-5.6-5.08-1.15 0 .57 4.3.57 4.92 0 .61 2.86 1.23 5.73 1.23 2.86 0 6.3-1.23 6.3-4.92 0-3.7-2.87-4.31-5.16-4.93-2.29-.61-5.34-.82-5.34-2.46 0-1.23.63-2.62 3.5-2.62s5.85 3.85 6.43 3.85c.57 0-.58-4.92-1.15-4.92Z" fill="#004890"/><path d="M9.41 28H7l6.02-6.32c.41-.43.98-.68 1.57-.68H17l-6.02 6.32c-.41.43-.98.68-1.57.68Z" fill="#FDB514"/><path d="M19.41 36H17l6.02-6.32c.41-.43.98-.68 1.57-.68H27l-6.02 6.32c-.41.43-.98.68-1.57.68Z" fill="#F47A20"/><path d="M12.32 31H10l12.18-12.37c.4-.4.94-.63 1.5-.63H26L13.82 30.37c-.4.4-.94.63-1.5.63Z" fill="#FDB514"/><path d="M11.33 38H9l11.16-11.36c.4-.41.95-.64 1.51-.64H24L12.84 37.36c-.4.41-.95.64-1.51.64Z" fill="#F47A20"/></svg>