<!-- by TradingView --><svg width="56" height="56" viewBox="0 0 56 56" xmlns="http://www.w3.org/2000/svg"><path fill="#F0F3FA" d="M0 0h56v56H0z"/><path d="M8 26v5c0 1.17-.83 2-2 2-1.18 0-2-.83-2-2h1c.01.61.43 1 1 1 .58 0 1-.41 1-1v-5h1ZM45 33h-1.2l-.92-2h-2.76l-.92 2H38l3.5-7 3.5 7Zm-4.42-3h1.84l-.92-2-.92 2ZM17 33h-1.2l-.92-2h-2.76l-.92 2H10l3.5-7 3.5 7Zm-4.42-3h1.84l-.92-2-.92 2ZM24 26l-3.5 7-3.5-7h1.3l2.2 4.5 2.22-4.5H24ZM26 27v2h3v1h-3v2h3v1h-4v-7h4v1h-3ZM33.29 26c2.08 0 3.71 1.38 3.71 3.53S35.36 33 33.29 33H31v-7h2.29Zm0 6c1.54 0 2.71-.96 2.71-2.5 0-1.55-1.15-2.5-2.71-2.5H32v5h1.29ZM52 33l-5-4.5V33h-1v-7l5 4.5V26h1v7ZM37.54 19 5 24l32.54-3.5L51 24l-13.46-5Z" fill="#8D5513"/></svg>