<!-- by TradingView --><svg width="56" height="56" viewBox="0 0 56 56" xmlns="http://www.w3.org/2000/svg"><path fill="#F0F3FA" d="M0 0h56v56H0z"/><path d="m35.96 26.55 2.64-5c-1.93.11-5.87.44-6.25.91-.48.6-.09 2.67 0 2.84.07.13 2.43.89 3.61 1.25Z" fill="#FCCE84"/><path d="M27.34 14.36c-.65.5-.8.95-.44 1.35.05.06.11.08.19.08.54 0 .6-.54 1.12-.45.03 0 .07 0 .1-.02a.15.15 0 0 0 .07-.07l.3-.63c.13.25.14.6.02 1.03-.07-.05-.17.01-.28.19-.37-.3-.64.14-.62.47-.17-.32-.45-.44-.85-.34-.06.01-.1.05-.1.11l-.01.63a.1.1 0 0 1-.03.07.11.11 0 0 1-.06.04c-.41.06-.8.02-1.18-.12a.19.19 0 0 0-.19.03.18.18 0 0 0-.05.19l.14.43c.03.07.08.11.15.12l.47.05c.04 0 .07.02.1.04.02.03.04.06.04.09l.17.89c0 .06.05.1.11.12.41.1.83.13 1.26.08a.3.3 0 0 1 .17.03c.14.07.26.07.36.02.05-.03.1-.07.11-.12a.23.23 0 0 0 0-.17.24.24 0 0 0-.1-.13.25.25 0 0 0-.18-.02c-1.15.28-.92-.4-.64-1.1.03-.07.08-.08.15-.03.13.09.21.2.25.36.02.06.05.1.1.14.22.13.46.13.73 0 .02.2.11.28.28.24-.13.26-.19.56-.15.9-.06.8-.93.34-.9 1.04 0 .06.03.1.1.1l.57.12a.2.2 0 0 1 .17.16l.07.32-.06 1.45-.2.39c-.02.05-.07.07-.12.06L27 22.3c-.07 0-.1.02-.1.09l-.02.32c0 .08.03.12.11.12l1.29.05c.1 0 .14.06.12.15l-.1.43c-.01.05 0 .1.02.14.08.11.2.14.37.08.06-.02.1-.06.12-.11l.23-.62c.11-.04.2-.06.28-.04.03 0 .06.03.08.05.02.03.04.06.04.1v.9a.3.3 0 0 0 .2.28.3.3 0 0 0 .34-.1c.33-.44-.19-1.54-.58-1.92l.24-.55c.21.04.4-.93.44-1.11a.25.25 0 0 1 .1-.15c.64-.45.55-.9.86-1.5a.28.28 0 0 0 .03-.17c-.02-.23.08-.36.32-.4-.12.24-.03.49.26.74a.1.1 0 0 0 .13.01c.45-.29.54-1-.16-.98l-.05.05c-.03.03-.05.02-.06 0a.3.3 0 0 1-.01-.06c.07-.24.2-.44.38-.6a.26.26 0 0 0 .08-.13c.14-.6.38-1.14.73-1.65.04-.06.03-.1-.02-.15-.19-.16-.96.82-1.05.9a1.6 1.6 0 0 1-1.35.5c.73-.58 1.47-1.08 2.22-1.5.77-.42 2.08-.01 2.84.3l-.2.3-.56.24a.18.18 0 0 0-.1.13c-.15.54.06.8.62.79-.07.5.1.75.53.78.08.48.6.52.92.74-.61-.07-.7.4-.2.65l-.5.03c-.08 0-.12.04-.12.11l-.05.82h-.07c.04-.19.03-.34-.04-.46a.16.16 0 0 0-.08-.06.16.16 0 0 0-.1-.01c-.42.1-.7-.05-.8-.46-.02-.07-.06-.1-.13-.1-.22 0-.4.1-.53.27-.05.06-.05.12 0 .19.09.12.2.17.37.16.05 0 .1 0 .14.05.31.32.69.5 1.13.55l.03.6c0 .07.04.1.1.11l.35.05c-.14.17-.29.24-.5.13-1.23-.58-2.05-.78-3.25-.41a.12.12 0 0 0-.1.1l-.06.45c0 .06-.04.1-.1.13l-.48.24a.25.25 0 0 0-.14.18c-.17.8 1.01.47.73 1.18a.15.15 0 0 1-.13.1c-1 .16-1.51-.43-1.4-1.34 0-.08-.03-.14-.1-.17a.95.95 0 0 0-.71.02.3.3 0 0 0-.14.1.29.29 0 0 0 .11.43c.39.2.59.52.6 1 .03.84.95.49 1.43.82l-.94.2a.25.25 0 0 0-.17.12l-.29.5a.19.19 0 0 1-.13.09.7.7 0 0 0-.45.32l-1.17.13c-.1.02-.12.06-.06.14l.08.1c.04.04.09.06.15.04.41-.14.67-.03.77.33l-.06.3c-.43-.01-.85.05-1.26.18-.08.02-.08.05 0 .08l1.14.4c.27 0 1.06-.33.75-.7a.21.21 0 0 1-.05-.15c0-.16.09-.26.25-.32a.14.14 0 0 0 .1-.1.51.51 0 0 1 .26-.32c.06-.02.1-.06.14-.1.22-.3.5-.55.84-.74a.34.34 0 0 1 .2-.04c.36.03 1.42-.07 1.28.55a.16.16 0 0 1-.13.13c-.47.12-1.08-.07-1.4.36a.15.15 0 0 0 .04.22l.08.02h1c-.54.13-.65.33-.34.6-.2.04-.38 0-.56-.1a.56.56 0 0 0-.73.2c-.25.4-.75 1.02-.08 1.36a.13.13 0 0 0 .13-.02.11.11 0 0 0 .03-.03c.23-.5.01-1.27.97-.98a3.94 3.94 0 0 0 .9.08.1.1 0 0 1 .07.1l-.13.8c-.28.19-.2.49.27.9h1.22c.06 0 .13.02.18.05.2.15.38.12.55-.06.04-.05.05-.1.01-.14l-.35-.53a.19.19 0 0 0-.2-.08l-.4.1c-.06 0-.1 0-.15-.04a.86.86 0 0 0-.53-.2c-.04-.04-.05-.09-.04-.13l.11-.91c.01-.09.06-.14.14-.15l.5-.1c.02 0 .05-.02.07-.05a.16.16 0 0 0-.02-.24c-.11-.06-.27-.05-.47.05a4.3 4.3 0 0 1 1.16-.84c-.01-.04.02-.04.11.01a.2.2 0 0 0-.02.15c.02.07.07.1.13.1l1.2.11c-.39.75-.9 1.55-1.04 2.38a4.85 4.85 0 0 1-.23.89.09.09 0 0 0 .1.07c.3-.06.5-.03.6.09-1.4.1-2.79.12-4.16.03-.48-.03-1.06.16-1.63-.08a.14.14 0 0 1-.07-.06.14.14 0 0 1-.01-.1c.04-.29 0-.56-.12-.8a.23.23 0 0 0-.1-.1.24.24 0 0 0-.29.05.22.22 0 0 0-.05.13l-.03.3c0-.3-.19-.45-.6-.44.57-.26.4-.45-.51-.58a.2.2 0 0 1-.14-.09c-.08-.12-.2-.16-.38-.14-.82.12-1.2.55-1.15 1.3a.3.3 0 0 1-.04.16c-.41.67-1.02-.27-1.49.24a.3.3 0 0 1-.2.1h-.7c-.12 0-.17-.04-.14-.15.09-.4.07-.79-.06-1.17a.2.2 0 0 0-.13-.14c-.65-.23-2.73-.36-2.17.97l.03.03a.08.08 0 0 0 .1 0s.02-.01.02-.03c.29-.59.77-.77 1.46-.55.07.03.12.07.15.14.13.28.1.54-.1.76a.28.28 0 0 1-.18.1l-1.45.18a.14.14 0 0 0-.1.05.13.13 0 0 0-.02.1l.03.62a.09.09 0 0 0 .04.07.1.1 0 0 0 .1.01.1.1 0 0 0 .05-.05v-.03c-.01-.56.38-.49.78-.37.28.07.58.07.89 0 .49-.12 1.11-.2 1.87-.27.07 0 .13.02.18.08l.3.33c.03.05.07.05.12.01.3-.26.65-.45 1.04-.55h.1l.1.06.54.68a.25.25 0 0 1 .04.23.25.25 0 0 1-.17.16 2.7 2.7 0 0 1-1.64-.03c-.06-.03-.11 0-.14.05l-.06.1c-.03.06-.01.1.05.14.81.4 2.19.1 3.04.2-.26.43-.15.7.34.83l-.82-.05c-.06 0-.12 0-.17.02-.4.15-.78.14-1.15-.03a.28.28 0 0 0-.17-.02l-1.03.2c-.07 0-.12-.02-.14-.09l-.14-.38c-.03-.09-.08-.1-.15-.04l-.25.21c-.86.81-1.65-.28-1.11-.69a.21.21 0 0 0 .06-.27.22.22 0 0 0-.27-.1c-.46.15-.73.47-.83.95-.2.3-.86 1.13-1.11.28a.07.07 0 0 0-.03-.03.08.08 0 0 0-.07-.01.08.08 0 0 0-.03.02.74.74 0 0 0-.18.43c-.01.1.03.16.13.2l.28.1c.05.03.09.07.1.12.2.97-.91 1.04-1.53 1.16-.8.06-.78.81-.87 1.35a.2.2 0 0 1-.08.12.21.21 0 0 1-.28-.02.2.2 0 0 1-.05-.14.65.65 0 0 0-.15-.44 42 42 0 0 0-.2-2.9c-.04-.36.16-.97.18-1.42.07-2.03.08-4.06.03-6.09.08.02.13-.02.13-.11 0-.03.01-.05.03-.08a.13.13 0 0 1 .07-.04l1.44-.39c.22-.32.26-.68.13-1.08-.02-.07 0-.1.07-.11l1.24-.13h.42a.24.24 0 0 0 .2-.11.23.23 0 0 0 .01-.23c-.4-.7.36-2 .89-2.5.04-.04.1-.05.15-.02l1.25.6a.44.44 0 0 0 .43-.03.4.4 0 0 0 .14-.17.4.4 0 0 0 .04-.21l-.1-1.17c-.01-.1-.06-.14-.16-.16l-.73-.09a.11.11 0 0 0-.1.04.1.1 0 0 0-.03.1c.14.41.78.3.61.84a.15.15 0 0 1-.05.08.16.16 0 0 1-.1.03c-.45 0-.8-.2-1.05-.55a.22.22 0 0 1-.03-.2l.6-1.87a.33.33 0 0 0-.1-.35.35.35 0 0 0-.37-.06c-.52.22-.96.15-1.34-.21a.13.13 0 0 1-.01-.18l.22-.27a.2.2 0 0 0 .04-.15l-.19-1.1c0-.05-.04-.09-.1-.1a.2.2 0 0 0-.17.06h-.33c-.08 0-.12.04-.13.11l-.11.53-.12 1a.36.36 0 0 1-.45.3.36.36 0 0 1-.18-.11c-.6-.65-.76-1.2-1.68-1.51a.16.16 0 0 1-.07-.05.16.16 0 0 1 0-.22c.21-.18.3-.4.24-.68a.19.19 0 0 0-.1-.13.75.75 0 0 0-.5-.06c.35-.55 2.79.07 3.15.33a.2.2 0 0 0 .2.03l.64-.23a.34.34 0 0 1 .22 0c1.19.36 2.46.59 3.83.66Zm-.99 1.29c.05-.21-.02-.51-.2-.92-1.13-.35-1.06 1.64.2.92ZM33.22 18l.09.11c.04.05.09.07.15.09.38.06 1.1.29 1.45.12.05-.02.1-.07.13-.13a.26.26 0 0 0-.1-.32.28.28 0 0 0-.17-.05c-.58.04-1.05-.63-1.44-1.08-.36.25-.4.67-.11 1.26Zm-8.34 3.3-.77.41a.16.16 0 0 0-.07.1.15.15 0 0 0 .01.11l.01.02c.05.1.12.17.19.24a.6.6 0 0 0 .24.15c.08.04.17.06.25.06a.6.6 0 0 0 .23-.06.52.52 0 0 0 .26-.4.88.88 0 0 0-.12-.56l-.01-.02a.15.15 0 0 0-.1-.07.16.16 0 0 0-.12.01Zm3.5.2a.15.15 0 0 0-.05-.08.34.34 0 0 0-.12-.06.68.68 0 0 0-.17-.02.96.96 0 0 0-.52.15c-.09.06-.13.13-.11.2 0 .02.02.05.05.08l.12.06.17.02a.96.96 0 0 0 .52-.15c.09-.06.13-.13.12-.2Zm-.64 2.66.18-.54a.04.04 0 0 0-.03-.05l-.04-.02a3.01 3.01 0 0 0-.72-.13c-.1 0-.18.01-.24.04-.06.02-.1.05-.11.1-.02.03 0 .08.03.13.04.06.1.11.18.17a3 3 0 0 0 .66.31l.03.01a.05.05 0 0 0 .03 0 .05.05 0 0 0 .03-.02Zm-5.36.25a.09.09 0 0 0 .08.04.09.09 0 0 0 .07-.04l.48-.7a.09.09 0 0 0 0-.1.09.09 0 0 0-.07-.05l-.94-.09a.1.1 0 0 0-.08.04.08.08 0 0 0 0 .1l.46.8Zm4.32 2.13c-.05-.17-1.96-.1-2.32-.17a.14.14 0 0 1-.12-.12c-.07-.37-.01-.72.16-1.04.04-.06.03-.12-.02-.18l-.28-.29c-.06-.05-.12-.05-.18-.01-.2.13-.4.2-.65.22a.32.32 0 0 0-.18.07.3.3 0 0 0 .02.5c.17.1.23.27.18.5a.25.25 0 0 1-.1.15c-.31.22-2.02.05-2.28-.04-.36-.11-.62-.07-.77.12-.05.07-.04.13.05.17a5 5 0 0 0 2.22.45c.47-.02.88-.3 1.39-.37.05 0 .1 0 .16.03l1.1.56c.06.02.1.06.11.11l.16.36a.1.1 0 0 0 .08.06.1.1 0 0 0 .09-.04l.27-.37c.05-.06.1-.1.17-.12l.84-.29c.02 0 .03 0 .05-.02a.1.1 0 0 0 .02-.04v-.03l-.02-.02a.1.1 0 0 1-.04-.01.25.25 0 0 1-.1-.14Zm8.22 1.3-.03-.75a.15.15 0 0 0-.05-.11.16.16 0 0 0-.12-.04h-.32a.6.6 0 0 0-.37.14c-.1.09-.15.2-.14.3v.22c0 .05.02.11.05.16.03.05.07.1.12.13.05.04.1.07.17.09a.7.7 0 0 0 .2.03l.33-.02a.16.16 0 0 0 .15-.1v-.06ZM20.68 28a.43.43 0 0 0-.36-.09c-.06.01-.1.05-.1.1-.18.77.47 1.12.21 1.77a.08.08 0 0 0 .02.08l.04.02h.05l.38-.1c.06-.02.1-.06.1-.13a4.7 4.7 0 0 0-.23-1.58l-.04-.01-.07-.06Zm10.06 1.35.6-.32a.14.14 0 0 0 .07-.08.13.13 0 0 0-.01-.1l-.02-.03a.69.69 0 0 0-.31-.3.42.42 0 0 0-.37 0l-.04.03a.36.36 0 0 0-.13.12.45.45 0 0 0-.07.17.6.6 0 0 0 0 .22.7.7 0 0 0 .08.2l.02.03c.01.03.04.06.08.07l.1-.01Zm-9.9 2.76c.16-.3.15-.7-.06-1.2-.02-.06-.04-.06-.05 0-.17.92-.19 1.56-.94 2.35a.08.08 0 0 0-.02.07.09.09 0 0 0 .05.07c.3.11.77-.86 1.01-1.29Z" fill="#F4C17A"/><path d="m22.16 15.03.13.25c.03.06.09.08.16.05l.24-.1a.17.17 0 0 0 .1-.13 1.7 1.7 0 0 0-.06-.71.2.2 0 0 1 .16-.06c.07.01.1.05.11.1l.19 1.1c0 .06 0 .1-.04.15l-.22.27a.13.13 0 0 0 .01.18c.38.36.82.43 1.34.2a.36.36 0 0 1 .37.07.34.34 0 0 1 .1.35l-.6 1.87a.22.22 0 0 0 .03.2c.25.36.6.54 1.05.55a.2.2 0 0 0 .1-.03.16.16 0 0 0 .05-.08c.17-.54-.47-.43-.6-.84a.1.1 0 0 1 .01-.1.11.11 0 0 1 .1-.04l.74.1c.1 0 .15.06.15.15l.11 1.17a.4.4 0 0 1-.18.38.44.44 0 0 1-.43.03l-1.25-.6a.12.12 0 0 0-.15.02c-.53.5-1.28 1.8-.89 2.5a.23.23 0 0 1-.09.31.24.24 0 0 1-.12.03h-.42c.1-.02.16-.06.2-.12.04-.07.03-.12-.05-.14a3.57 3.57 0 0 0-1.72-.12.39.39 0 0 1-.17-.01 3.53 3.53 0 0 0-1.34-.15v-2.88c0-.35.2-.6.2-.97l-.07-1.08c0-.07.01-.13.06-.19.25-.32.24-.65-.06-1a.35.35 0 0 0-.29-.13.35.35 0 0 0-.27.16l-.46.72c-.04.06-.09.07-.15.03l-.34-.25 1.4-2.67c.2-.04.36-.02.5.06.05.03.09.07.1.13a.7.7 0 0 1-.23.68.16.16 0 0 0-.05.15.16.16 0 0 0 .1.12c.93.3 1.08.86 1.7 1.5a.36.36 0 0 0 .37.1.36.36 0 0 0 .17-.1.35.35 0 0 0 .08-.19l.12-1Zm-.48 3.87-.1.28a.26.26 0 0 0 0 .2c.06.16.17.22.35.17a.53.53 0 0 0 .39-.46c0-.12-.1-.2-.35-.25l.4-.08a.15.15 0 0 1 .16.08c.08.18.2.34.35.48.05.04.1.07.18.06.35-.02.65-.41.53-.75a.2.2 0 0 1 0-.16l.54-1.05a.1.1 0 0 0-.09-.15 3.73 3.73 0 0 1-1.49-.47.14.14 0 0 0-.16 0c-.46.31-.76.73-.87 1.25-.05.21-.18.27-.39.15a.11.11 0 0 1-.05-.06v-.08l.46-.92a.34.34 0 0 0-.03-.34.36.36 0 0 0-.32-.16c-.37.02-.62-.14-.76-.49a.2.2 0 0 0-.09-.1.2.2 0 0 0-.25.05.19.19 0 0 0-.04.12v.4a.2.2 0 0 1-.09.17l-.3.26a.24.24 0 0 0-.1.15c-.05.32.07.55.35.7.03.01.06.03.07.06a.16.16 0 0 1-.03.19.17.17 0 0 1-.09.04c-.3.06-.45.24-.44.55 0 .07.04.12.12.14a1.07 1.07 0 0 0 .38.01v-.03h-.02a.15.15 0 0 1-.05-.04c-.03-.03-.03-.04.01-.04l.67-.03a.48.48 0 0 1 .35.14.46.46 0 0 1 .14.34c-.02.6.61 1.9-.09 2.17a.27.27 0 0 0-.13.1.26.26 0 0 0 .04.32c.04.04.1.07.15.08.37.04.71 0 1.04-.13.06-.02.1-.07.08-.14-.1-.59.05-1.1.44-1.53a.27.27 0 0 0 .02-.35.28.28 0 0 0-.35-.08c-.2.1-.4.11-.6.02a.19.19 0 0 1-.1-.13c-.08-.35-.03-.57.16-.66Z" fill="#BA7F36"/><path d="m27.34 14.36 1.34.26-.3.63a.15.15 0 0 1-.07.07.15.15 0 0 1-.1.02c-.51-.1-.58.45-1.12.45a.24.24 0 0 1-.19-.08c-.36-.4-.21-.85.44-1.35Z" fill="#FCCE84"/><path d="M22.73 14.39c.07.24.09.48.06.71a.16.16 0 0 1-.1.13l-.24.1c-.07.03-.13.01-.16-.05l-.13-.25.1-.53c.02-.07.06-.1.14-.1l.33-.01Z" fill="#0E0601"/><path d="M26.16 14.73c-.4.19-.6.48-.57.87 0 .07.04.1.1.1l.66-.05c-1.26.72-1.33-1.27-.2-.92Z" fill="#BA7F36"/><path d="M26.16 14.73c.17.4.24.71.19.92l-.65.04c-.07.01-.1-.02-.11-.09-.02-.39.17-.68.57-.87Zm5.34 3.37a.47.47 0 0 1-.1.24c-.24.04-.34.17-.32.4.01.06 0 .12-.03.17-.3.6-.22 1.05-.86 1.5a.25.25 0 0 0-.1.15c-.04.18-.23 1.15-.44 1.11.17-.33.25-.55.25-.66a8.6 8.6 0 0 1 .17-2.53c.04-.2.02-.48-.07-.87-.02-.06-.06-.08-.12-.06l-.58.22c.32-.36.65-.63.98-.8.5.07 1-.13 1.35-.5.09-.08.86-1.06 1.05-.9.05.04.06.1.02.15a5.03 5.03 0 0 0-.73 1.65.25.25 0 0 1-.08.13c-.18.16-.31.36-.38.6Z" fill="#88540B"/><path d="M38.2 16.22c-.44.34-1.02.48-.83 1.18.02.07.07.1.14.09.13-.02.21.04.24.17.01.06.05.1.12.12.14.03.26.1.33.21.05.07.04.12-.02.17-.37.32-.98.39-1.14-.17-.03-.08-.06-.08-.1 0a.62.62 0 0 1-.63.39.18.18 0 0 1-.16-.11c-.14-.37.17-.87-.27-1.06-.06-.02-.1 0-.1.06l-.15.74c-.43-.03-.6-.29-.53-.78.69-.75.7-1.14.04-1.16l.2-.3.54-.14c.6-.16 1.76.33 2.31.59Z" fill="#FCCE84"/><path d="M19.28 21.83a.7.7 0 0 0 .03.58c.05.65.03 1.28-.06 1.9.05 2.03.04 4.06-.03 6.09-.02.45-.22 1.06-.18 1.43.1.98.17 1.94.2 2.89l.06 1.74c0 .06.04.1.1.11l.3.05h.26c.65.28.97.78.97 1.49a.2.2 0 0 1-.07.16.99.99 0 0 1-.52.23c-.12.02-.14-.02-.07-.11.16-.23.2-.38.09-.47 0-.35-.06-.6-.2-.74l-.9-.02a.3.3 0 0 0-.21.09.28.28 0 0 0-.09.2l.06 3.03-.06.43c-.05.28.08.4.36.37l.7-.09c.91-.11 1.84-.2 2.78-.23.45-.01 1.2.1.55-.74a.17.17 0 0 0-.07-.05l-.71-.38a.08.08 0 0 1-.03-.03v-.05a.07.07 0 0 1 .05-.05l1.03-.11a.32.32 0 0 1 .23.07.3.3 0 0 1 .11.2l.05.74a.36.36 0 0 0 .14.26.37.37 0 0 0 .27.08l2.1-.18c.05 0 .1 0 .14.03.2.14 1.44-.13 1.8-.1h.01l.05-.04a.05.05 0 0 1 .07 0l.14.14c-.2.06-.43.08-.68.05-.07-.01-.13 0-.18.04-.3.19-.62.27-.98.26-1-.04-2.05.08-2.95.09-1.6.01-3.2.12-4.79.33a.4.4 0 0 1-.36-.13c-.5-.54-1.9-1.7-1.88-2.46.04-1.12.19-2.27.2-3.35 0-2.34.15-5.1.2-7l.24-11.1c.01-.52-.08-.82.35-1.24l.34.25c.06.04.11.03.15-.03l.46-.72a.34.34 0 0 1 .27-.16.35.35 0 0 1 .3.13c.29.35.3.68.05 1a.25.25 0 0 0-.06.19l.06 1.08c.02.37-.19.62-.19.97v2.88Z" fill="#88540B"/><path d="M28.7 15.65c.1.7.11 1.39.02 2.07-.27.13-.51.13-.73 0a.24.24 0 0 1-.1-.14.66.66 0 0 0-.25-.36c-.07-.05-.12-.04-.15.04-.28.7-.51 1.37.64 1.1a.25.25 0 0 1 .17.01c.05.03.1.07.11.13.02.05.02.11 0 .17a.24.24 0 0 1-.1.12c-.11.05-.23.05-.37-.02a.3.3 0 0 0-.17-.03c-.43.05-.85.03-1.26-.08a.15.15 0 0 1-.11-.12l-.17-.9a.15.15 0 0 0-.05-.08.17.17 0 0 0-.09-.04l-.47-.05a.16.16 0 0 1-.15-.12l-.14-.43a.17.17 0 0 1 .05-.19.19.19 0 0 1 .2-.03c.37.14.76.18 1.17.12.02 0 .04-.02.06-.04a.11.11 0 0 0 .03-.07l.02-.63c0-.06.03-.1.1-.11.4-.1.67.02.84.34.04.29.17.5.4.65.05.04.1.03.12-.04.14-.34.17-.7.1-1.08.11-.18.2-.24.28-.2Z" fill="#BA7F36"/><path d="M28.42 15.84c.07.38.04.74-.1 1.08-.02.07-.07.08-.13.04a.87.87 0 0 1-.4-.65c0-.33.26-.77.63-.47Z" fill="#FCCE84"/><path d="M39.56 16.06c.02.08-.1.13-.4.15-.65.14-.55 1.02.02 1.2.15.09.19.25.1.46a.18.18 0 0 0 .02.17c.08.14.2.22.35.25a.13.13 0 0 0 .14-.08l.89-1.9c.06-.02.1-.01.12 0a.2.2 0 0 1 .05.26c-.6 1.14-.98 2.44-1.71 3.47a.37.37 0 0 1-.35-.17.34.34 0 0 1 .07-.47c.05-.03.1-.06.16-.07.22-.04.32-.17.31-.38a.13.13 0 0 0-.04-.09.14.14 0 0 0-.09-.04l-1.57-.07a.13.13 0 0 0-.1.03.12.12 0 0 0-.03.1c.01.28.15.49.41.61.05.03.1.06.12.11a1 1 0 0 0 .2.25c.06.04.1.1.1.16.05.24.25.41.6.53l-.54 1.68a.5.5 0 0 1-.1.19.44.44 0 0 1-.18.12.35.35 0 0 1-.18.02.29.29 0 0 1-.16-.09c-.16-.17-.43-.18-.82-.03l-.86-.13a.19.19 0 0 1-.1-.05.18.18 0 0 1-.06-.1c0-.05 0-.08.03-.12a.18.18 0 0 1 .08-.07l.63-.26c.06-.03.08-.07.06-.13a1.3 1.3 0 0 1-.04-.65l.15.48c.01.05.05.1.1.12a.24.24 0 0 0 .28-.03.22.22 0 0 0 .07-.14c.02-.34-.14-.56-.47-.66.04-.32.2-.32.5 0 .03.04.08.05.13.02.3-.12.44-.32.43-.61a.21.21 0 0 0-.08-.16c-.46-.4-.88-.42-1.26-.07a.34.34 0 0 0-.1.16l-.35 1.17a2.5 2.5 0 0 0-.03-1.22.13.13 0 0 0-.06-.07.14.14 0 0 0-.18.02.13.13 0 0 0-.03.1.5.5 0 0 1-.1.33l.04-.82c0-.07.04-.11.12-.11l.5-.03c.5-.17.57-.39.2-.65-.32-.22-.84-.26-.92-.74l.14-.74c.01-.06.05-.08.11-.06.44.19.13.7.27 1.06a.18.18 0 0 0 .16.1.6.6 0 0 0 .63-.38c.04-.08.07-.08.1 0 .16.56.77.49 1.14.17.06-.05.07-.1.02-.17a.51.51 0 0 0-.33-.21c-.07-.02-.1-.06-.12-.12-.03-.13-.1-.19-.24-.17-.07 0-.12-.02-.14-.09-.2-.7.4-.84.82-1.18.09.1.2.15.33.14.07 0 .12-.04.15-.1.23-.42.53-.5.89-.2Zm-1.4.5c-.2-.26-.57.28-.58.36a.44.44 0 0 0 .2.46c.08.04.16.06.24.04a.32.32 0 0 0 .2-.12l.45-.62a.09.09 0 0 0 0-.1.1.1 0 0 0-.1-.04l-.3.05a.11.11 0 0 1-.1-.04Zm-.03 5.22c.1 0 .19-.03.26-.07a.3.3 0 0 0 .14-.13c0-.05-.02-.1-.07-.12a.47.47 0 0 0-.24-.03l-.24.02c-.1 0-.13.05-.1.14.04.14.13.2.25.19Z" fill="#CC9954"/><path d="m39.56 16.06 1.12.24-.89 1.91a.13.13 0 0 1-.14.08.5.5 0 0 1-.35-.25.18.18 0 0 1-.01-.17c.08-.21.04-.37-.11-.47.55-.16.1-.81-.01-1.2.28 0 .41-.06.39-.14Zm-17.59 2.78-.29.06c-.19.09-.24.3-.16.66.01.05.05.1.1.13.2.09.4.09.6-.01a.28.28 0 0 1 .35.07.27.27 0 0 1-.02.35c-.4.43-.54.94-.44 1.53.01.07-.02.12-.08.14-.33.13-.67.17-1.04.13a.27.27 0 0 1-.15-.08.26.26 0 0 1-.04-.31.27.27 0 0 1 .13-.11c.7-.28.07-1.56.1-2.17a.45.45 0 0 0-.15-.34.47.47 0 0 0-.35-.14l-.67.03c-.04 0-.04.01-.01.04l.05.03.02.01v.03h-.01a.92.92 0 0 1-.37-.01c-.08-.02-.12-.07-.12-.14 0-.31.14-.5.44-.55.03 0 .07-.02.09-.04a.16.16 0 0 0-.04-.26c-.28-.14-.4-.37-.35-.69a.24.24 0 0 1 .1-.15l.3-.26a.2.2 0 0 0 .09-.17v-.4c0-.04.01-.09.04-.12a.2.2 0 0 1 .25-.05.2.2 0 0 1 .1.1c.13.35.38.5.75.5a.37.37 0 0 1 .32.15.34.34 0 0 1 .03.34l-.45.92a.11.11 0 0 0 0 .08c0 .03.02.05.04.07.2.1.34.05.39-.16.11-.52.4-.94.87-1.25.05-.03.1-.03.16 0a3.73 3.73 0 0 0 1.54.49.1.1 0 0 1 .05.08.1.1 0 0 1-.01.05l-.53 1.05a.2.2 0 0 0-.01.16c.12.34-.18.73-.53.75a.23.23 0 0 1-.18-.06c-.15-.14-.27-.3-.35-.48a.15.15 0 0 0-.17-.08l-.39.08Zm.77-.82a.2.2 0 0 0-.1-.15.33.33 0 0 0-.2-.05.32.32 0 0 0-.2.09.2.2 0 0 0-.07.17c.01.06.05.11.1.15.06.04.14.05.21.05a.3.3 0 0 0 .2-.1.2.2 0 0 0 .06-.16Z" fill="#F4C17A"/><path d="M35.14 16.07c.66.02.65.4-.04 1.16-.56.01-.77-.25-.62-.8.01-.05.05-.1.1-.12l.56-.24Z" fill="#88540B"/><path d="M39.17 16.2c.1.39.56 1.04 0 1.2-.56-.17-.66-1.05 0-1.2Z" fill="#FCE6A9"/><path d="m38.27 16.6.3-.07a.1.1 0 0 1 .1.04.09.09 0 0 1 0 .1l-.45.63a.32.32 0 0 1-.2.12.35.35 0 0 1-.24-.04.44.44 0 0 1-.2-.46c.01-.08.39-.62.58-.37a.11.11 0 0 0 .1.04Zm-4.94.15c.35.66.31 1.08-.11 1.26-.29-.59-.25-1.01.1-1.26Z" fill="#88540B"/><path d="M33.33 16.75c.4.45.86 1.12 1.44 1.08.06 0 .12.01.17.05.06.03.1.08.11.14.02.06.01.13-.01.18a.27.27 0 0 1-.13.13c-.34.17-1.07-.06-1.45-.12a.26.26 0 0 1-.15-.09l-.1-.1c.43-.2.47-.61.12-1.27Z" fill="#BA7F36"/><path d="m29.65 21.67-.24.55-.01.34c0 .06-.03.12-.08.15-.12.09-.27.08-.44 0l-.08-.66.06-1.45-.01-1.75c-.04-.33.02-.63.15-.89l.3-.19.58-.22c.06-.02.1 0 .12.06.09.39.11.68.07.87A8.77 8.77 0 0 0 29.9 21c0 .11-.08.33-.25.66Z" fill="#0E0601"/><path d="M22.48 18.28c.16-.02.27-.14.26-.26-.01-.13-.15-.21-.3-.2-.16.02-.28.13-.27.26.02.12.16.21.31.2Z" fill="#BA7F36"/><path d="m31.5 18.1.02.05c.01.03.03.04.06.01l.05-.05c.7-.03.6.7.16.98a.1.1 0 0 1-.13 0c-.29-.26-.38-.5-.26-.75a.47.47 0 0 0 .1-.24Zm5.05.65c.37.26.3.48-.2.65-.5-.25-.41-.72.2-.65Z" fill="#FCE6A9"/><path d="m39.14 20.04-.2.5c-.36-.12-.56-.3-.6-.53a.27.27 0 0 0-.1-.16.92.92 0 0 1-.2-.25.26.26 0 0 0-.13-.1.67.67 0 0 1-.4-.62.12.12 0 0 1 .03-.1.13.13 0 0 1 .1-.03l1.56.07c.03 0 .07.02.1.04.02.03.03.06.03.1 0 .2-.1.33-.31.37a.36.36 0 0 0-.26.2.34.34 0 0 0 .03.34c.09.12.2.17.35.17Z" fill="#FCCE84"/><path d="M21.97 18.84c.24.05.36.13.35.25a.52.52 0 0 1-.4.46c-.17.05-.28-.01-.35-.18a.26.26 0 0 1 0-.2l.11-.27.3-.06Z" fill="#A86F2D"/><path d="m28.85 18.85.01 1.75-.07-.32a.2.2 0 0 0-.17-.16l-.57-.11c-.07-.01-.1-.05-.1-.11-.03-.7.84-.25.9-1.05Z" fill="#BA7F36"/><path d="M35.6 20.36c.03.01.02.05-.03.13a1.83 1.83 0 0 1-1.13-.55.17.17 0 0 0-.14-.05.38.38 0 0 1-.37-.16c-.05-.07-.05-.13 0-.19a.68.68 0 0 1 .53-.27c.07 0 .11.03.13.1.1.41.38.56.8.46h.1l.08.07c.07.12.08.27.04.46Z" fill="#FCE6A9"/><path d="m36.82 20.69-.13.23c-.04.2-.03.4.04.65.02.06 0 .1-.06.13l-.63.26a.18.18 0 0 0-.08.07.17.17 0 0 0-.03.11c0 .04.03.08.05.1.03.03.07.05.1.06l.87.13-1.85-.06c.55-.37.3-.5-.76-.4-.07 0-.11.04-.11.12l-.01.19c0 .08.03.11.12.1.08-.01.16 0 .22.05a.8.8 0 0 0-.5.05.14.14 0 0 0-.08.15c0 .07.04.16.1.26-.16.04-.3.01-.4-.08a.17.17 0 0 1-.06-.16c.1-.54-.1-.9-.59-1.07-.08-.03-.13 0-.15.08-.05.3 0 .6.14.85.04.06.05.12.04.19l-.06.42a.2.2 0 0 0 .09.2c.22.14.5.18.84.1.32-.06 1.1-.1 2.33-.12-.17.32-.15.57.05.73l-.41.41a.2.2 0 0 0-.06.17c.03.31.2.45.5.4 0 .15.04.3.13.45-.47-.15-.89-.1-1.27.14-.09-.05-.12-.05-.1-.01.17-.2.95-.7.04-.78.33-1.05-.81-1.42-1.25-.68a.33.33 0 0 1-.42.13l-.84-.39a.2.2 0 0 0-.2 0l-.62.34c-.48-.33-1.4.02-1.43-.82-.02-.48-.21-.8-.6-1a.3.3 0 0 1-.12-.11.29.29 0 0 1 .01-.32.3.3 0 0 1 .14-.1c.24-.1.47-.1.7-.02.08.03.12.09.1.17-.1.9.41 1.5 1.41 1.34.06 0 .1-.04.13-.1.28-.71-.9-.38-.73-1.18a.25.25 0 0 1 .14-.18l.49-.24a.16.16 0 0 0 .09-.13l.06-.44c.01-.06.04-.1.1-.11 1.2-.37 2.02-.17 3.24.41.22.1.37.04.5-.13.01-.03.03-.05.05-.05l.35-1.17a.34.34 0 0 1 .1-.16c.38-.35.8-.33 1.26.07.05.04.08.1.08.16 0 .29-.13.5-.43.61a.12.12 0 0 1-.14-.03c-.28-.3-.45-.3-.5 0Z" fill="#FCCE84"/><path d="M36.1 21.2c-.03 0-.05.02-.05.05l-.34-.05c-.07 0-.1-.04-.1-.1l-.04-.61c.05-.08.06-.12.04-.13h.07a.5.5 0 0 0 .11-.34l.03-.09a.14.14 0 0 1 .24.05c.1.37.12.78.03 1.22Zm.72-.51c.33.1.49.32.47.66 0 .06-.03.1-.07.14a.23.23 0 0 1-.38-.09l-.15-.48.13-.23Z" fill="#A86F2D"/><path d="M24.88 21.3a.16.16 0 0 1 .12-.01.16.16 0 0 1 .1.07l.01.02c.1.18.14.38.12.56a.52.52 0 0 1-.26.4.49.49 0 0 1-.23.06.63.63 0 0 1-.25-.06.84.84 0 0 1-.24-.15.98.98 0 0 1-.19-.24v-.02a.15.15 0 0 1 .05-.2l.77-.43Z" fill="#FCE6A9"/><path d="M27.94 21.85c.27-.05.47-.2.45-.33-.03-.14-.27-.2-.54-.16-.27.05-.47.2-.44.33.02.14.26.2.53.16Zm6.14 1.04 2.13-.04c.08 0 .12.04.13.1.02.1-.01.21-.08.35-1.23.02-2 .06-2.33.13a1.1 1.1 0 0 1-.84-.11.2.2 0 0 1-.09-.2l.06-.42a.3.3 0 0 0-.04-.2c-.14-.25-.2-.53-.14-.84.02-.08.07-.11.15-.08.5.17.7.53.59 1.07a.17.17 0 0 0 .06.16c.1.1.24.12.4.08Z" fill="#BA7F36"/><path d="M19.28 21.83c.47-.03.92.02 1.34.15.05.02.11.02.17.01.59-.1 1.16-.06 1.72.12.08.02.1.07.05.14-.04.06-.1.1-.2.12l-1.23.13c-.08 0-.1.04-.08.1.13.4.09.77-.13 1.1l-.42-.1a.12.12 0 0 1-.1-.11l.01-.05c.07-.2.05-.37-.08-.5a.18.18 0 0 1-.04-.19c.22-.59-.71-.45-.98-.34a.7.7 0 0 1-.03-.58Z" fill="#A86F2D"/><path d="m35.1 22.37-.54.06a.32.32 0 0 0-.22-.05c-.09.01-.12-.02-.12-.1v-.2c0-.07.05-.1.12-.11 1.05-.1 1.3.03.76.4Z" fill="#CC9954"/><path d="m28.8 22.05.08.65c-.05.15 0 .26.17.25l-.23.62a.18.18 0 0 1-.12.1c-.17.07-.29.04-.37-.07a.17.17 0 0 1-.02-.14l.1-.43c.02-.1-.02-.14-.12-.15L27 22.83c-.08 0-.11-.04-.11-.12l.02-.32c0-.07.03-.1.1-.09l1.47.2c.05.01.1-.01.12-.06l.2-.4Z" fill="#BA7F36"/><path d="M29.4 22.22c.4.38.92 1.48.6 1.91a.3.3 0 0 1-.49 0 .29.29 0 0 1-.06-.17v-.9a.14.14 0 0 0-.04-.1.15.15 0 0 0-.08-.05c-.07-.02-.17 0-.28.04-.16 0-.22-.1-.17-.25.17.1.32.1.44.01a.18.18 0 0 0 .08-.15v-.34Z" fill="#A86F2D"/><path d="m20.92 23.7-1.44.38a.13.13 0 0 0-.07.04.12.12 0 0 0-.03.08c0 .1-.05.13-.13.11.09-.62.1-1.25.06-1.9.27-.1 1.2-.25.98.34a.18.18 0 0 0 .04.19c.13.13.15.3.08.5a.12.12 0 0 0 0 .1.12.12 0 0 0 .09.06l.42.1Z" fill="#E4AE5E"/><path d="M36.34 25.01c-.3.05-.47-.09-.5-.4a.2.2 0 0 1 .06-.17l.4-.4c.33-.05.55-.2.68-.44a.12.12 0 0 0-.04-.16.43.43 0 0 1-.23-.38c0-.07.03-.11.1-.13l.87-.14a.21.21 0 0 1 .2.07.2.2 0 0 1 .02.22l-.91 1.73a.18.18 0 0 1-.17.1 1 1 0 0 0-.48.1Z" fill="#CC9954"/><path d="M27.74 24.17a.04.04 0 0 1-.03.02.05.05 0 0 1-.03 0h-.04a2.99 2.99 0 0 1-.65-.32.72.72 0 0 1-.18-.17c-.04-.05-.05-.1-.03-.14 0-.04.05-.07.1-.1a.74.74 0 0 1 .25-.03 3.03 3.03 0 0 1 .72.13l.04.02h.01a.05.05 0 0 1 .02.04v.01l-.18.54Zm-5.36.25-.47-.8a.09.09 0 0 1 .04-.13.1.1 0 0 1 .05 0l.94.09a.09.09 0 0 1 .07.05.09.09 0 0 1 0 .08l-.48.71c0 .02-.02.03-.03.03a.09.09 0 0 1-.12-.03Z" fill="#BA7F36"/><path d="m35.14 24.81-1.18.16a.32.32 0 0 0-.25.18.3.3 0 0 0 .04.3c.35.46-.78.49-.97.5h-1c-.03 0-.06 0-.08-.02a.15.15 0 0 1-.04-.21c.32-.44.93-.25 1.4-.37a.17.17 0 0 0 .13-.13c.14-.62-.92-.52-1.29-.55a.48.48 0 0 0-.2.04c-.33.19-.61.43-.83.73a.35.35 0 0 1-.14.11.51.51 0 0 0-.27.33.14.14 0 0 1-.1.1.32.32 0 0 0-.24.31c0 .06.02.11.05.16.31.36-.48.7-.75.69.25-.12.85-.75.12-.65l.06-.3c.35-.06.6-.2.78-.44a.14.14 0 0 0 0-.17c-.09-.14-.27-.19-.55-.14a.7.7 0 0 1 .45-.32c.06-.01.1-.04.13-.1l.29-.49a.3.3 0 0 1 .17-.12l.94-.2.62-.33a.2.2 0 0 1 .2 0l.84.38a.33.33 0 0 0 .42-.13c.44-.74 1.58-.37 1.25.68Z" fill="#CC9954"/><path d="M26.81 26.69a.1.1 0 0 0 .04.01c.01 0 .02 0 .02.02v.03a.1.1 0 0 1-.02.04.12.12 0 0 1-.05.02l-.84.29a.34.34 0 0 0-.17.12l-.27.37a.1.1 0 0 1-.1.04.1.1 0 0 1-.07-.06l-.16-.36a.22.22 0 0 0-.1-.11l-1.11-.56a.27.27 0 0 0-.16-.03c-.51.07-.92.35-1.39.37a4.98 4.98 0 0 1-2.22-.45c-.1-.04-.1-.1-.05-.17.15-.2.41-.23.77-.12.26.09 1.97.26 2.28.04a.25.25 0 0 0 .1-.15c.05-.23 0-.4-.18-.5a.3.3 0 0 1-.02-.5.32.32 0 0 1 .18-.07c.24-.01.46-.09.65-.22.06-.04.12-.04.18.01l.28.3c.05.05.06.1.02.17-.17.32-.23.67-.16 1.04 0 .06.05.1.12.12.36.07 2.27 0 2.32.17.02.05.06.1.11.14Z" fill="#BA7F36"/><path d="M35.14 24.81c.9.08.13.58-.05.78-.43.21-.81.5-1.16.84l-1.49.13c-.31-.28-.2-.48.34-.6.2-.02 1.32-.05.97-.5a.3.3 0 0 1 .06-.43c.05-.04.1-.06.15-.06l1.18-.16Z" fill="#FCE6A9"/><path d="M36.47 25.46c.14.2.15.37.03.5l-1.19-.1a.14.14 0 0 1-.13-.1.2.2 0 0 1 .02-.16c.38-.24.8-.29 1.27-.14Zm-6.64-.02c.28-.05.46 0 .55.14.04.06.04.11 0 .17a1.1 1.1 0 0 1-.78.43c-.1-.36-.36-.47-.77-.33-.06.02-.1 0-.15-.05l-.08-.09c-.06-.08-.04-.12.06-.14l1.17-.13Z" fill="#88540B"/><path d="M33.6 27.84c-.16-.1-.35-.07-.56.12l.13-.8a.1.1 0 0 0-.06-.1 3.94 3.94 0 0 1-.91-.08c-.96-.29-.74.48-.97.98l-.03.03a.12.12 0 0 1-.09.03l-.04-.01c-.67-.34-.17-.96.08-1.36.07-.12.19-.2.32-.24a.56.56 0 0 1 .4.05c.19.1.38.13.57.1l1.5-.13c.2-.1.35-.11.46-.05l.06.07a.15.15 0 0 1-.04.17.16.16 0 0 1-.08.05l-.49.1c-.08.02-.13.06-.14.15l-.11.91Z" fill="#CC9954"/><path d="M29.54 26.49c.73-.1.13.53-.12.65l-1.14-.4c-.08-.03-.08-.06 0-.08.4-.13.83-.19 1.26-.17Z" fill="#88540B"/><path d="M34.92 27.84a.15.15 0 0 1-.05.11.16.16 0 0 1-.1.05l-.34.02a.7.7 0 0 1-.2-.03.55.55 0 0 1-.17-.09.43.43 0 0 1-.12-.13.35.35 0 0 1-.05-.16v-.21c0-.11.04-.22.14-.3a.6.6 0 0 1 .37-.14l.32-.01a.17.17 0 0 1 .12.04.16.16 0 0 1 .05.11l.03.74Z" fill="#FCE6A9"/><path d="M28.88 28.32c-.13.47-.07.93.18 1.39.04.06.02.1-.06.11l-.56.1c-.1.01-.15.07-.15.17v.29c0 .03.02.05.04.07a.1.1 0 0 0 .07.03c.7 0 1.33.2 2.04.13.62-.06 1.3 0 1.82 0 1.01-.04 2.02-.03 3 0 .3.02.54 0 .7-.07l.32-.17c.24.22.39.51.44.86-.56.06-.92.07-1.1.03a3.2 3.2 0 0 0-1.07-.12c-.59-.07-2.22-.25-2.2.41.02.46.55.57.93.5.19.12.3.27.32.43 0 .06-.02.11-.08.14-.4.18-.62-.09-.93-.1a2.6 2.6 0 0 0-.97.1c-.05.02-.08.06-.07.12.06.91.92.93 1.79.94.1 0 .13.05.13.14l-.03.23a.12.12 0 0 1-.04.08.13.13 0 0 1-.1.03c-1.1-.11-2.52-.32-3.34-.05a.14.14 0 0 0-.1.13c-.01.54.29.8.47 1.16.28.56.6.93.56 1.59 0 .06.02.11.07.15a5.01 5.01 0 0 1 1.47 3c-.08-.03-.13-.05-.13-.08-.09-.5-.28-.96-.58-1.37a1.56 1.56 0 0 1-.3-.77.21.21 0 0 0-.09-.15c-.4-.33-.71-.55-.68-1.12a.24.24 0 0 0-.05-.16c-.28-.4-.52-.81-.7-1.26-.22-.52-.58-.88-.38-1.58.07-.25-.04-.41-.34-.49a.32.32 0 0 0-.24.03.3.3 0 0 0-.14.2c-.07.28-.04.6.1.98l-.13.47-.3-.02c.27-.25.3-.59.1-1a.17.17 0 0 0-.1-.09.84.84 0 0 1-.46-.33c-.05-.07-.03-.11.05-.13.31-.09.62-.15.93-.2.53-.09 1.02.14 1.59.05a.2.2 0 0 0 .11-.06.2.2 0 0 0 .03-.23.2.2 0 0 0-.09-.08c-.96-.45-3.64-.28-4.72-.13a7 7 0 0 1-1.02.07c-.52 0-1.68-.51-1.96.18a.27.27 0 0 1-.12.14c-.16.09-.21.21-.17.38a.4.4 0 0 0 .1.15c.06.04.12.05.19.05.2 0 3.28-.33 2.75.39-.03.05-.07.06-.13.03-.8-.37-1.15.02-1.87.02-.85 0-1.69.06-2.51.19a.68.68 0 0 0-.48.27.21.21 0 0 0-.04.17.69.69 0 0 1-.37.76.25.25 0 0 1-.27-.02.23.23 0 0 1-.08-.26c.15-.51.4-.94.74-1.29.62-.12 1.73-.19 1.53-1.16a.16.16 0 0 0-.1-.11l-.28-.11c-.1-.04-.14-.1-.13-.2 0-.16.07-.3.18-.43a.08.08 0 0 1 .13.02c.25.85.92.01 1.11-.28.73-.45 1.35 1.42 2.15.11l.25-.2c.07-.07.12-.06.15.03l.14.38c.02.07.07.1.14.08l1.03-.2c.06 0 .12 0 .17.03.37.17.75.18 1.15.03a.44.44 0 0 1 .17-.02l.82.05.24-.74c.02-.07 0-.1-.07-.1h-.5c-.86-.1-2.24.22-3.05-.19-.06-.03-.08-.08-.05-.14l.06-.1c.03-.06.08-.08.14-.05.55.18 1.1.2 1.64.03a.26.26 0 0 0 .17-.16.25.25 0 0 0-.04-.23l-.55-.68a.18.18 0 0 0-.08-.05.19.19 0 0 0-.1 0c-.4.1-.75.28-1.05.54-.05.04-.09.04-.12 0l-.3-.34a.21.21 0 0 0-.18-.08c-.76.06-1.38.15-1.87.27-.31.07-.6.07-.89 0-.4-.12-.8-.19-.78.37a.09.09 0 0 1-.02.06.1.1 0 0 1-.07.03.1.1 0 0 1-.06-.02.1.1 0 0 1-.04-.07l-.03-.63c0-.03 0-.07.03-.1a.14.14 0 0 1 .09-.04l1.45-.18a.28.28 0 0 0 .18-.1c.2-.22.23-.48.1-.76a.24.24 0 0 0-.15-.14c-.68-.22-1.17-.04-1.46.55 0 .02-.01.03-.03.04a.08.08 0 0 1-.09 0 .08.08 0 0 1-.03-.04c-.56-1.33 1.52-1.2 2.17-.97a.2.2 0 0 1 .13.14c.13.38.15.77.06 1.17-.03.1.02.16.13.16l.7-.01a.3.3 0 0 0 .21-.1c.47-.51 1.08.43 1.49-.24a.3.3 0 0 0 .04-.16c-.05-.75.33-1.18 1.15-1.3.17-.02.3.02.38.14a.2.2 0 0 0 .14.1c.9.12 1.08.3.51.57Zm-.5.84.05-.72a.05.05 0 0 0-.01-.03.05.05 0 0 0-.04-.02h-.12a3.12 3.12 0 0 0-.68.03.72.72 0 0 0-.2.08c-.06.03-.08.06-.09.1l-.01.27c0 .07.09.14.26.2.18.06.41.1.66.12l.13.01.04-.01.01-.03Zm3.28 2.3a.12.12 0 0 0 .01-.1c0-.06-.04-.1-.1-.1l-.75-.18a.3.3 0 0 0-.18.02.3.3 0 0 0-.14.12.28.28 0 0 0 .05.34.6.6 0 0 0 .07.06c.05.04.1.05.16.06l.7.04c.05 0 .08-.02.08-.07l.01-.06c0-.02.03-.06.09-.14Zm1.94-3.63c-.01.04 0 .09.04.14.17.4.06.7-.33.88-.46-.4-.55-.7-.27-.9.21-.18.4-.22.56-.12Zm-12.85.24h.04v.01h.01c.16.52.24 1.04.22 1.58 0 .07-.04.1-.1.13l-.38.1a.09.09 0 0 1-.1-.02.08.08 0 0 1 0-.09c.25-.64-.4-1-.23-1.76.02-.05.05-.09.11-.1.14-.02.26 0 .36.1l.07.05Z" fill="#BA7F36"/><path d="M33.64 27.97c.2 0 .37.07.53.2.04.03.1.04.14.03l.41-.1a.19.19 0 0 1 .2.08l.35.53c.04.05.03.1 0 .14-.18.18-.36.2-.56.06a.32.32 0 0 0-.18-.06H33.3c.4-.18.5-.47.33-.88Z" fill="#CC9954"/><path d="M35.93 29.39c.18.14.26.37.25.7-.1.04-.2.02-.28-.07a.25.25 0 0 0-.17-.08 6.23 6.23 0 0 0-1.41.06c-.71.1-1.36-.05-2.07 0-.06 0-.12 0-.18-.03-.35-.15-.66.03-.95.01a2.97 2.97 0 0 1-1.56-.54.17.17 0 0 1-.08-.14v-.53l.03-.31c0-.05.02-.1.05-.13a.23.23 0 0 1 .28-.06c.05.03.08.06.1.1.13.25.17.52.13.82l.01.09.07.06c.57.24 1.15.05 1.63.08 1.37.09 2.75.08 4.15-.03Z" fill="#A86F2D"/><path d="M28.88 28.32c.41 0 .6.14.6.45v.53c0 .05.03.1.08.14.46.32.98.5 1.56.54.29.02.6-.16.95 0 .06.02.12.03.18.02.71-.05 1.36.1 2.07 0 .46-.07.93-.1 1.4-.06.07 0 .13.03.18.08.08.09.18.11.28.07.07.08.1.18.1.28l-.32.17a1 1 0 0 0-.7.08c-.98-.04-1.99-.05-3-.02-.52.01-1.2-.05-1.82 0-.7.08-1.33-.12-2.04-.12a.1.1 0 0 1-.07-.03.1.1 0 0 1-.03-.07l-.01-.29c0-.1.05-.16.15-.17l.56-.1c.08-.01.1-.05.06-.11a1.75 1.75 0 0 1-.18-1.4Z" fill="#FCE6A9"/><path d="m28.38 29.16-.01.03-.04.01h-.13a2.56 2.56 0 0 1-.66-.13c-.17-.06-.27-.13-.26-.2l.01-.27c0-.04.03-.07.08-.1a.72.72 0 0 1 .21-.08 3.1 3.1 0 0 1 .67-.04l.13.01a.05.05 0 0 1 .04.02v.03l-.04.72Z" fill="#FCCE84"/><path d="M30.74 29.36a.14.14 0 0 1-.1 0 .14.14 0 0 1-.08-.06l-.02-.02a.72.72 0 0 1-.08-.21.6.6 0 0 1 0-.22.45.45 0 0 1 .07-.17c.03-.06.07-.1.13-.12l.04-.03c.1-.05.24-.05.37 0 .12.06.24.16.31.3l.02.02a.13.13 0 0 1 .01.1.13.13 0 0 1-.07.09l-.6.32Z" fill="#FCE6A9"/><path d="M25.26 31.7c-.8 1.3-1.42-.57-2.15-.12.1-.48.37-.8.83-.95a.22.22 0 0 1 .27.1.21.21 0 0 1-.06.27c-.54.41.25 1.5 1.1.7Z" fill="#E4AE5E"/><path d="M20.83 32.12c-.24.43-.72 1.4-1 1.29a.1.1 0 0 1-.06-.07.08.08 0 0 1 .02-.07c.75-.79.77-1.43.94-2.35.01-.06.03-.06.05 0 .2.5.22.9.05 1.2Z" fill="#A86F2D"/><path d="M28.95 31.03h.5c.07 0 .1.03.07.1l-.24.74c-.5-.13-.6-.4-.34-.84Z" fill="#FCE6A9"/><path d="M31.57 31.6v.05c-.01.05-.04.07-.09.07l-.7-.04a.3.3 0 0 1-.16-.06.59.59 0 0 1-.07-.06.28.28 0 0 1-.05-.34.3.3 0 0 1 .14-.12.3.3 0 0 1 .18-.02l.75.18c.06 0 .1.04.1.1l-.01.1a.48.48 0 0 0-.09.13Z" fill="#FCCE84"/><path d="M34.55 31.14c-.23.32-.33.57-.3.77.01.07-.01.1-.07.13a1.7 1.7 0 0 1-.9 0c-.38.08-.9-.03-.92-.49-.03-.66 1.6-.48 2.19-.4Z" fill="#FCE6A9"/><path d="m36.72 31.23.84 1.83-1.7.16c-.08 0-.12.05-.1.14l.02.1c.01.07.06.1.13.08.3-.07.6-.06.87.04-.83-.17-1.3.1-1.37.82a.3.3 0 0 0 .08.25.32.32 0 0 0 .24.1l.94-.01c-.12.29.15.34.8.17a.17.17 0 0 0 .11-.07l.21-.32a.16.16 0 0 1 .24-.03c.02.03.04.05.04.08.15.77.49 1.3 1 1.59.19.06.23.21.13.45-.03.07-.08.1-.15.05-.15-.08-.21-.22-.2-.4a.09.09 0 0 0-.02-.07.1.1 0 0 0-.08-.03c-.44.02-.9.26-.69.76l.05.06.07.02c.34.03 1.48-.07 1.49.41 0 .06-.02.1-.07.14l-.34.26c-.06.05-.07.1-.03.16.1.18.32.24.63.19-.14.38-.05.8.27 1.27.06.08.04.13-.06.15-.25.03-.49 0-.7-.11a.31.31 0 0 0-.2-.03c-.4.05-.73.25-1.1.28l-2.99.25c-.74.07-1.68.38-2.65.16 0-.84-.78-2.46-1.47-3a.16.16 0 0 1-.07-.14c.05-.66-.28-1.03-.56-1.59-.18-.37-.48-.62-.47-1.16 0-.06.04-.1.1-.13.82-.27 2.25-.06 3.34.05a.13.13 0 0 0 .14-.11l.03-.23c0-.1-.04-.14-.13-.14-.87 0-1.73-.02-1.8-.94 0-.06.03-.1.08-.11.32-.1.64-.14.97-.12.3.02.53.3.93.1.06-.02.08-.07.08-.13-.02-.16-.13-.3-.32-.43.35.07.65.07.9-.01.06-.02.08-.06.07-.13-.03-.2.07-.45.3-.77.16-.04.52 0 1.07.12.18.04.54.03 1.1-.03Zm-1.51.3v.63c0 .02 0 .04.02.05l.06.03h.03a.4.4 0 0 0 .27-.11.37.37 0 0 0 .11-.27v-.04c0-.1-.04-.2-.1-.27a.4.4 0 0 0-.28-.1h-.03c-.02 0-.04 0-.06.02a.08.08 0 0 0-.02.05ZM35 32.97a.17.17 0 0 0-.01-.12.38.38 0 0 0-.1-.12.77.77 0 0 0-.16-.11 1.12 1.12 0 0 0-.63-.1.39.39 0 0 0-.14.05.17.17 0 0 0-.08.1c0 .03 0 .07.02.11.02.04.05.08.1.12.04.04.1.08.16.11a1.11 1.11 0 0 0 .62.1c.06 0 .11-.03.15-.05a.17.17 0 0 0 .07-.1Zm-3.74 2.53 2.15-.18a.2.2 0 0 0 .14-.07.2.2 0 0 0 .05-.14V35a.55.55 0 0 0-.2-.38.56.56 0 0 0-.41-.13l-1.45.12a.56.56 0 0 0-.38.2.55.55 0 0 0-.13.4l.01.11a.2.2 0 0 0 .07.14.2.2 0 0 0 .15.05Zm2.23.56c-.41-.17-.8-.14-1.16.1a.2.2 0 0 1-.16.03.28.28 0 0 0-.24.04.2.2 0 0 0-.08.2.2.2 0 0 0 .14.16c.52.17 1.02.15 1.5-.08a.25.25 0 0 0 .11-.1.24.24 0 0 0 0-.26.25.25 0 0 0-.11-.09Zm2.71 1.54a.25.25 0 0 1 .24.19.3.3 0 0 1-.02.16.24.24 0 0 1-.12.1c-.58.26-1.45.28-1.09 1.21.03.08.07.08.11.01.25-.39.62-.53 1.11-.4a.24.24 0 0 0 .2-.05.22.22 0 0 0 .09-.18v-1.12a.19.19 0 0 0-.09-.15 1.78 1.78 0 0 0-1.24-.3.27.27 0 0 0-.17.1.26.26 0 0 0 .01.36c.05.04.12.07.19.07h.78Zm-2.6-.25c-.04-.23-1.13-.31-1.28.15-.03.07 0 .11.08.1l1.2-.02c.07 0 .1-.04.1-.11 0-.1-.04-.13-.1-.12Zm5.1 1.1a.15.15 0 0 0-.05-.1.36.36 0 0 0-.12-.07.77.77 0 0 0-.18-.04 1.1 1.1 0 0 0-.59.1.36.36 0 0 0-.1.1.15.15 0 0 0-.04.1c0 .03.02.06.05.1.03.02.07.05.13.06.05.02.1.04.18.04a1.1 1.1 0 0 0 .58-.1.36.36 0 0 0 .1-.1.15.15 0 0 0 .04-.1Zm-4.76.27-.85-.1c-.06 0-.1.02-.1.08-.07.62.7.55 1.03.31a.16.16 0 0 0 .06-.08.16.16 0 0 0-.05-.17.17.17 0 0 0-.1-.04Z" fill="#F4C17A"/><path d="M35.2 31.52c0-.02.02-.04.03-.05a.09.09 0 0 1 .06-.03h.03c.1 0 .2.04.27.11s.11.17.11.27v.04a.36.36 0 0 1-.1.27.39.39 0 0 1-.28.1h-.03c-.02 0-.04 0-.06-.02a.08.08 0 0 1-.02-.05v-.64Z" fill="#FCE6A9"/><path d="M28.46 34.82c-.35.05-.68.03-.97-.05a.14.14 0 0 1-.1-.1l-.25-.81a.3.3 0 0 0-.13-.16.3.3 0 0 0-.38.05.29.29 0 0 0-.08.18l-.03 1.13c0 .07.03.12.1.14.71.24 1.45.32 2.2.24l.03 1.31c0 .39-.03.68-.12.86.04-.32.01-.52-.34-.62-.5-.15-.92-.1-1.25.17.16-.26.15-.54-.04-.85a.25.25 0 0 0-.14-.11c-.15-.05-.3-.08-.46-.1a.23.23 0 0 1-.15-.1 1.05 1.05 0 0 0-.64-.44.13.13 0 0 1-.1-.1l-.07-.3a.11.11 0 0 0-.09-.09 7.11 7.11 0 0 0-1.87-.16c-.9.04-1.53-.3-2.48-.05a.13.13 0 0 1-.15-.07c-.1-.2-.02-.38.22-.57a17.1 17.1 0 0 1 2.51-.2c.72 0 1.07-.38 1.87 0 .06.02.1 0 .13-.04.53-.72-2.55-.4-2.75-.39a.28.28 0 0 1-.18-.05.27.27 0 0 1-.1-.15c-.05-.17 0-.3.16-.38.05-.03.1-.08.12-.14.28-.7 1.44-.18 1.96-.18a7 7 0 0 0 1.02-.07c1.08-.15 3.76-.32 4.72.13a.2.2 0 0 1 .1.08.2.2 0 0 1-.04.23.2.2 0 0 1-.11.06c-.57.1-1.06-.14-1.59-.05-.31.05-.62.11-.93.2-.08.02-.1.06-.05.13.11.16.26.27.45.33a.2.2 0 0 1 .11.09c.2.41.17.75-.1 1Z" fill="#FCCE84"/><path d="M34.36 33.1c.31.08.6.03.64-.12.04-.16-.17-.35-.48-.43-.3-.08-.6-.03-.64.13-.04.15.18.34.48.42Z" fill="#FCE6A9"/><path d="M37.56 33.06c.21.14.3.34.25.6h-.27l-.76-.08a1.5 1.5 0 0 0-.87-.04c-.07.01-.12-.01-.13-.08l-.02-.1c-.02-.09.02-.13.1-.14l1.7-.16Zm-5.13 7.07c.97.22 1.91-.1 2.65-.16l2.99-.25c.37-.03.7-.23 1.1-.28.07-.01.13 0 .2.03.21.1.45.14.7.1.1 0 .12-.06.06-.14-.32-.46-.41-.89-.27-1.27.46.47.7 1.03.7 1.66 0 .04-.02.07-.05.1a.14.14 0 0 1-.1.04c-.48 0-.95-.04-1.42.01-1.35.14-2.7.25-4.04.34a.27.27 0 0 0-.12.03l-.08.05h-.02c-.76.06-1.72.29-2.43.04-.94-.32-1.86-.7-2.77-1.11l.2-.01a.41.41 0 0 0 .3-.15.39.39 0 0 0 .07-.32l-.37-1.73a.23.23 0 0 0-.07-.13c-.16-.14.07-3.36-.77-2.61-.13-.37-.16-.7-.09-.99a.3.3 0 0 1 .14-.19.31.31 0 0 1 .24-.03c.3.08.41.24.34.49-.2.7.16 1.06.38 1.58.18.45.42.87.7 1.26.04.04.06.1.05.16-.03.57.27.8.68 1.12.05.03.08.08.08.15.04.28.14.54.3.77.3.41.5.87.59 1.37 0 .03.05.05.13.07Z" fill="#88540B"/><path d="m36.78 33.58.76.08c.1.1.13.2.09.33a.19.19 0 0 1-.14.12c-.32.1-.6.3-.82.63h-.94a.33.33 0 0 1-.24-.1.31.31 0 0 1-.08-.24c.08-.71.54-.99 1.37-.82Z" fill="#FCE6A9"/><path d="M37.54 33.66h.27c.03.16.04.28.14.42.45.62.83 1.31 1.12 2.08-.51-.3-.85-.82-1-1.59a.15.15 0 0 0-.04-.08.16.16 0 0 0-.17-.03.15.15 0 0 0-.07.06l-.2.32a.17.17 0 0 1-.11.07c-.66.17-.93.12-.8-.17.21-.33.49-.54.81-.63a.19.19 0 0 0 .14-.12c.04-.12.01-.23-.09-.33Z" fill="#CC9954"/><path d="m28.46 34.82.3.02.05.6c-.74.08-1.48 0-2.2-.24a.14.14 0 0 1-.1-.14l.04-1.13c0-.07.03-.13.08-.18a.3.3 0 0 1 .38-.05c.06.04.1.1.13.16l.24.81c.02.06.05.09.1.1.3.08.63.1.98.05Z" fill="#88540B"/><path d="M20.67 33.85c-.34.35-.59.78-.75 1.3a.23.23 0 0 0 .08.25.25.25 0 0 0 .28.02c.3-.17.42-.42.37-.76a.21.21 0 0 1 .04-.17.68.68 0 0 1 .48-.27c-.24.19-.32.38-.22.57a.13.13 0 0 0 .15.07c.95-.25 1.58.09 2.48.05a7.1 7.1 0 0 1 1.87.16c.05.02.08.05.1.1l.06.28c0 .06.04.1.1.11.27.07.49.21.64.44a.22.22 0 0 0 .15.1c.16.02.31.05.46.1.06.02.11.05.14.11.19.3.2.6.04.85-.14.24 0 .43.45.57-.14.08-.09.2.03.25.66.3 1.05.64 1.16 1.05-.07.51-.04 1.03.1 1.55a.11.11 0 0 1-.06.13l-.09.04-.14-.14a.05.05 0 0 0-.07 0l-.05.04c-.37-.03-1.6.24-1.81.1a.22.22 0 0 0-.14-.03l-2.1.18a.38.38 0 0 1-.27-.08.37.37 0 0 1-.13-.26l-.06-.73a.3.3 0 0 0-.1-.21.31.31 0 0 0-.24-.07l-1.03.1-.04.03a.07.07 0 0 0-.02.08l.04.03.71.38c.03 0 .05.03.07.05.64.85-.1.73-.55.74a31 31 0 0 0-2.78.23c.14-.2.24-.43.29-.7a.22.22 0 0 0-.04-.16c-.31-.45-1-.24-1.25.15l-.06-3.03a.28.28 0 0 1 .09-.2.29.29 0 0 1 .2-.09l.91.02-.94.03c-.08 0-.12.05-.1.13l.08.57c.01.06.05.1.1.13.46.2.81.17 1.06-.12.1.09.07.24-.1.47-.07.1-.04.13.08.11.2-.03.37-.1.52-.23a.2.2 0 0 0 .07-.16c0-.71-.32-1.2-.97-1.49l.74-.16a.1.1 0 0 0 .08-.07.1.1 0 0 0-.01-.1l-.33-.45a.19.19 0 0 0-.2-.07c-.76.18-.94.47-.53.85l-.31-.05c-.06-.01-.1-.05-.1-.1l-.06-1.75c.1.12.15.27.15.44 0 .05.02.1.05.14.04.03.09.06.14.06.05 0 .1 0 .14-.04a.2.2 0 0 0 .08-.12c.1-.54.07-1.3.87-1.35Zm4.14 3.99c-.04.19.07.31.32.38.07.02.1.06.12.13a.9.9 0 0 1-.07.52.3.3 0 0 1-.13.14c-.16.09-.3.09-.4 0a.08.08 0 0 0-.14.05v.06l.44.87c.02.04.04.06.07.08a.18.18 0 0 0 .2-.02.17.17 0 0 0 .05-.08l.57-1.92c.02-.08 0-.14-.08-.18a1.9 1.9 0 0 0-.81-.17c.5-.14.89-.01 1.15.37.04.05.04.1 0 .15-.11.16-.2.32-.25.5a.25.25 0 0 0 .1.28.27.27 0 0 0 .3 0c.39-.24.8-.34 1.25-.3a.25.25 0 0 0 .24-.13.23.23 0 0 0-.03-.26c-.27-.34-.61-.6-1.01-.75.33.05.4-.28.24-1a.16.16 0 0 0-.1-.1l-.76-.4a.18.18 0 0 0-.18 0l-.6.36c-.05-.29-.16-.48-.34-.6a.17.17 0 0 1-.09-.13c-.06-.65-1.5-.27-1.98-.15-.32.07-.39.29-.21.64a.17.17 0 0 0 .15.1l1 .02c.05 0 .09.02.12.05.03.02.05.06.06.1l.23 1.32c.02.09.07.12.16.11l.4-.04Zm-.85.46c.1-.35.06-1.37-.28-1.73a.24.24 0 0 0-.17-.08l-2.15-.08c-.05 0-.1.01-.14.04a.2.2 0 0 0-.05.26.2.2 0 0 0 .11.1c.6.2 1.22.28 1.86.27.06 0 .13.02.18.05.05.03.1.08.12.14a.3.3 0 0 1-.08.34.58.58 0 0 1-.5.15.14.14 0 0 0-.12.04.13.13 0 0 0-.04.1l.06.4c0 .01 0 .03.02.04a.1.1 0 0 0 .08.05h.05c.17-.07.28-.04.34.09a.3.3 0 0 0 .15.15c.07.03.15.03.22.01a.5.5 0 0 0 .34-.34Zm3.69.92c-.01-.08-.09-.15-.21-.2a1.11 1.11 0 0 0-.67.02.79.79 0 0 0-.18.1.4.4 0 0 0-.12.12.2.2 0 0 0-.03.13c.01.08.09.15.21.2a1.1 1.1 0 0 0 .67-.02.78.78 0 0 0 .18-.1.4.4 0 0 0 .12-.12.2.2 0 0 0 .03-.13ZM21 39.7a1.21 1.21 0 0 0-.68.06c-.1.04-.11.1-.02.17l.35.28a.1.1 0 0 0 .13 0l.46-.42c.06-.05.05-.09-.03-.1h-.1a.25.25 0 0 1-.11 0Z" fill="#E4AE5E"/><path d="M29.53 39.32c.01-.11-.06-.19-.2-.22a.27.27 0 0 1-.14-.1c-.55-.7-.26-1.44-.34-2.25l-.04-1.31-.04-.6.12-.47c.84-.75.6 2.47.77 2.61.03.04.06.08.07.13l.37 1.73a.38.38 0 0 1-.07.32.4.4 0 0 1-.3.15h-.2Z" fill="#0E0601"/><path d="M31.26 35.5a.21.21 0 0 1-.2-.1.2.2 0 0 1-.02-.08v-.12a.55.55 0 0 1 .12-.4c.1-.11.23-.18.38-.2l1.45-.1a.5.5 0 0 1 .4.12c.12.1.19.23.2.38l.01.12a.2.2 0 0 1-.05.14.2.2 0 0 1-.14.07l-2.15.18Z" fill="#CC9954"/><path d="m25.3 36.42-.04.27c0 .03 0 .06.02.09 0 .03.03.05.06.07a.17.17 0 0 0 .18 0c.19-.1.39-.14.6-.13.07 0 .13.04.16.1l.42.74c.4.16.74.4 1.01.75a.24.24 0 0 1-.07.36.25.25 0 0 1-.14.02c-.45-.03-.86.07-1.24.32a.27.27 0 0 1-.4-.13.25.25 0 0 1 0-.16c.05-.18.13-.35.24-.5.04-.05.04-.1 0-.15-.26-.38-.65-.5-1.15-.37l-.14.14-.4.04c-.1.01-.15-.02-.17-.11l-.23-1.32a.18.18 0 0 0-.06-.1.18.18 0 0 0-.11-.05l-1.01-.03a.18.18 0 0 1-.15-.1c-.18-.34-.1-.56.21-.63.48-.12 1.92-.5 1.98.15 0 .06.04.1.09.14.18.1.29.3.34.6Z" fill="#FCCE84"/><path d="M19.96 36.62h-.25c-.4-.38-.23-.67.54-.85a.19.19 0 0 1 .2.07l.32.46a.1.1 0 0 1 0 .1.1.1 0 0 1-.07.06l-.74.16Z" fill="#F4C17A"/><path d="M33.49 36.07c.04.02.08.05.1.09a.24.24 0 0 1-.1.36c-.48.23-.98.25-1.5.08a.2.2 0 0 1-.1-.07.2.2 0 0 1 .04-.29.28.28 0 0 1 .24-.04c.06.01.1 0 .16-.03.36-.24.75-.27 1.16-.1Zm-6.79 1.49-.42-.74a.18.18 0 0 0-.16-.1c-.21-.01-.41.03-.6.14a.18.18 0 0 1-.18-.01.16.16 0 0 1-.07-.16l.03-.27.6-.36a.18.18 0 0 1 .18 0l.77.4c.02 0 .04.02.05.04l.04.06c.17.72.09 1.05-.24 1Zm-3.02-.99c.34.36.38 1.38.28 1.73a.5.5 0 0 1-.34.34.34.34 0 0 1-.22-.01.3.3 0 0 1-.15-.15c-.06-.13-.17-.16-.34-.1a.11.11 0 0 1-.15-.08l-.06-.4a.12.12 0 0 1 .04-.1.13.13 0 0 1 .11-.04c.2.03.37-.02.51-.15a.3.3 0 0 0 .08-.34.31.31 0 0 0-.12-.14.32.32 0 0 0-.18-.05 5.42 5.42 0 0 1-1.86-.28.2.2 0 0 1-.11-.09.2.2 0 0 1 .05-.26.21.21 0 0 1 .14-.04l2.15.08c.06 0 .12.03.17.08Zm5.17.18c.08.8-.21 1.56.34 2.25.03.05.08.08.14.1.14.03.21.1.2.22l-.75-.3c-.11-.4-.5-.75-1.16-1.04-.12-.05-.17-.17-.03-.25.32.05.7 0 1.14-.12.1-.18.13-.47.12-.86Z" fill="#A86F2D"/><path d="M28.73 37.61c-.44.12-.82.17-1.14.12-.44-.14-.59-.33-.45-.57.33-.27.74-.32 1.25-.17.35.1.38.3.34.62Z" fill="#FCE6A9"/><path d="M36.2 37.61h-.78a.27.27 0 0 1-.19-.07.26.26 0 0 1 .16-.46c.48-.04.9.05 1.24.3a.19.19 0 0 1 .08.15l.02 1.12a.22.22 0 0 1-.1.18.24.24 0 0 1-.2.05c-.5-.13-.86 0-1.1.4-.05.07-.09.07-.12 0-.36-.94.51-.96 1.1-1.21a.22.22 0 0 0 .1-.11.24.24 0 0 0-.06-.3.25.25 0 0 0-.15-.05Z" fill="#BA7F36"/><path d="M20.16 37.18c.14.15.2.4.2.74-.25.29-.6.33-1.05.12a.17.17 0 0 1-.1-.13l-.1-.57c0-.08.03-.12.11-.13l.94-.03Z" fill="#FCCE84"/><path d="M33.6 37.36c.06-.01.1.03.1.12 0 .07-.03.1-.1.1l-1.2.04c-.08 0-.1-.04-.08-.11.15-.46 1.24-.38 1.28-.15Z" fill="#A86F2D"/><path d="M24.95 37.7c.32 0 .59.06.8.17.08.04.11.1.09.18l-.57 1.92a.18.18 0 0 1-.32.03l-.43-.88a.08.08 0 0 1 0-.06.09.09 0 0 1 .07-.06c.02 0 .04 0 .06.02.1.08.24.08.4-.02a.3.3 0 0 0 .13-.13.9.9 0 0 0 .07-.52.15.15 0 0 0-.12-.13c-.25-.07-.36-.2-.32-.38l.14-.14Z" fill="#88540B"/><path d="M38.18 38.76c.3-.03.53-.16.52-.3-.01-.14-.26-.24-.56-.21-.3.03-.53.16-.52.3.01.14.27.23.56.2Zm-4.24-.03c.03 0 .06.01.09.04a.16.16 0 0 1 .05.17.16.16 0 0 1-.06.08c-.33.24-1.1.31-1.03-.31 0-.06.04-.08.1-.08l.85.1Z" fill="#BA7F36"/><path d="M27.1 39.62c.32-.05.57-.22.55-.4-.03-.17-.32-.27-.65-.23-.33.05-.58.22-.56.4.03.17.32.28.65.23Z" fill="#A86F2D"/><path d="M21.12 39.68h.09c.08.01.09.05.03.1l-.46.41c-.04.04-.09.04-.13 0l-.35-.27c-.09-.07-.08-.13.02-.17.21-.08.44-.1.68-.06h.12Z" fill="#88540B"/><path d="m20.02 41.2-.7.08c-.28.03-.4-.1-.36-.37l.06-.43c.24-.39.94-.6 1.25-.15.03.05.05.1.04.17-.05.26-.15.49-.29.7Z" fill="#F4C17A"/><path fill-rule="evenodd" d="M15.66 11A3.62 3.62 0 0 0 12 14.57v26.86A3.62 3.62 0 0 0 15.66 45h24.68c2.02 0 3.66-1.6 3.66-3.57V14.57A3.62 3.62 0 0 0 40.34 11H15.66Zm.93 1A3.55 3.55 0 0 0 13 15.52v24.96c0 1.95 1.6 3.52 3.6 3.52h22.8c2 0 3.6-1.57 3.6-3.52V15.52c0-1.95-1.6-3.52-3.6-3.52H16.6Z" fill="#B99C4C"/></svg>