<!-- by TradingView --><svg width="56" height="56" viewBox="0 0 56 56" fill="none" xmlns="http://www.w3.org/2000/svg">
<rect width="56" height="56" fill="#C20116"/>
<path fill-rule="evenodd" clip-rule="evenodd" d="M13.0501 38.9494C13.0822 38.9818 13.1258 39 13.1712 39H42.8288C42.8742 39 42.9178 38.9818 42.9499 38.9494C42.982 38.917 43 38.8731 43 38.8273V28.0091C43 24.0284 41.4332 20.2108 38.6444 17.3961C35.8556 14.5813 32.0731 13 28.1291 13H27.8709C23.9269 13 20.1444 14.5813 17.3556 17.3961C14.5667 20.2108 13 24.0284 13 28.0091V38.8273C13 38.8731 13.018 38.917 13.0501 38.9494ZM34.2643 33.7727H29.7598C29.6597 33.7727 29.6096 33.8232 29.6096 33.9242V36.4242C29.6096 36.5253 29.5596 36.5758 29.4595 36.5758H26.3664C26.2522 36.5758 26.1902 36.5192 26.1802 36.4061L25.6577 31.097C25.6436 30.9596 25.5756 30.9212 25.4535 30.9818L24.967 31.2273C24.8609 31.2798 24.8058 31.2465 24.8018 31.1273L24.7177 28.6424C24.7137 28.5091 24.6506 28.4172 24.5285 28.3667C23.6957 28.0325 23.5066 29.0831 23.3864 29.751C23.3584 29.9067 23.3341 30.0416 23.3063 30.1333C22.042 34.2667 16.8198 33.1 16.6817 28.9788C16.6817 28.9606 16.6879 28.9429 16.6994 28.9288C16.7108 28.9148 16.7267 28.9051 16.7444 28.9015C16.7621 28.898 16.7805 28.9007 16.7965 28.9092C16.8124 28.9178 16.8249 28.9317 16.8318 28.9485C18.024 32.2303 21.958 33.1303 22.6126 28.897C22.6193 28.8571 22.6111 28.816 22.5895 28.7814C22.568 28.7468 22.5345 28.7211 22.4955 28.7091C21.996 28.5488 21.8221 29.4931 21.7277 30.0056C21.7114 30.0939 21.6975 30.1694 21.6847 30.2242C21.6746 30.2659 21.6539 30.3041 21.6247 30.3352C21.5954 30.3663 21.5586 30.3891 21.5179 30.4013C21.4772 30.4136 21.4341 30.4149 21.3927 30.4051C21.3514 30.3953 21.3133 30.3747 21.2823 30.3455C21.0769 30.1455 21.1048 29.3591 21.122 28.8747C21.1262 28.757 21.1297 28.6572 21.1291 28.5879C21.1215 27.9893 21.0401 27.3132 20.9557 26.6122C20.7725 25.0916 20.5753 23.4539 21.0871 22.2364C21.1251 22.1475 21.1411 22.0535 21.1351 21.9545C20.958 19.7303 21.6156 18.197 24.1201 18.4152C24.2362 18.4253 24.3323 18.3859 24.4084 18.297L24.9459 17.6636C24.98 17.6234 25.0269 17.5963 25.0789 17.5869C25.1308 17.5775 25.1846 17.5864 25.2312 17.6121L28.7087 19.5606C28.9049 19.6717 28.993 19.8404 28.973 20.0667C28.8394 21.6464 28.1743 22.39 27.343 23.3195C27.0342 23.6648 26.7024 24.0358 26.3664 24.4848C26.3264 24.5409 26.3075 24.6095 26.313 24.6783C26.3185 24.7471 26.3481 24.8117 26.3965 24.8605C26.4449 24.9094 26.5089 24.9392 26.5771 24.9448C26.6453 24.9504 26.7132 24.9313 26.7688 24.8909C28.032 23.9273 28.9029 22.6849 29.3814 21.1636C29.4059 21.0863 29.4461 21.015 29.4996 20.9544C29.553 20.8938 29.6183 20.8452 29.6914 20.8118C29.7645 20.7783 29.8436 20.7608 29.9237 20.7604C30.0037 20.7599 30.0829 20.7765 30.1562 20.8091C31.8378 21.5465 33.5425 22.3131 35.2703 23.1091C35.4143 23.1753 35.5545 23.239 35.6909 23.3009C37.6531 24.1922 38.8175 24.7211 39 27.0303C39.0821 28.0444 39.1572 29.0414 39.2252 30.0212C39.2279 30.0559 39.219 30.0905 39.2001 30.1196C39.1813 30.1487 39.1533 30.1707 39.1208 30.1821C39.0882 30.1936 39.0528 30.1938 39.0201 30.1828C38.9874 30.1717 38.9592 30.1501 38.9399 30.1212L38.2192 29.0849C38.203 29.0619 38.1799 29.0448 38.1533 29.0362C38.1267 29.0276 38.0981 29.028 38.0717 29.0372C38.0453 29.0464 38.0226 29.064 38.007 29.0874C37.9913 29.1107 37.9836 29.1385 37.985 29.1667L38.3093 36.6879C38.3153 36.8152 38.2563 36.8788 38.1321 36.8788H35.5946C35.3644 36.8788 35.2322 36.7636 35.1982 36.5333L34.8468 34.2758C34.8253 34.1355 34.7547 34.0077 34.6479 33.9154C34.541 33.8231 34.4049 33.7725 34.2643 33.7727ZM22.0263 33.535C22.0789 34.5435 22.155 36.0004 20.8018 36.1C20.7574 36.103 20.7131 36.0916 20.6755 36.0676C20.6378 36.0436 20.6087 36.0081 20.5923 35.9663C20.576 35.9245 20.5732 35.8785 20.5844 35.835C20.5956 35.7915 20.6202 35.7527 20.6547 35.7242C21.3954 35.1283 21.6366 34.3404 21.3784 33.3606C21.3523 33.2616 21.3844 33.1889 21.4745 33.1424C21.7898 32.9788 22 33.0727 22.021 33.4333C22.0227 33.4666 22.0245 33.5006 22.0263 33.535ZM22.393 24.5717C22.1613 24.5566 21.9872 24.3304 22.0041 24.0665C22.021 23.8027 22.2225 23.601 22.4542 23.6161C22.6859 23.6313 22.8601 23.8574 22.8432 24.1213C22.8263 24.3852 22.6247 24.5868 22.393 24.5717Z" fill="white"/>
</svg>
