<!-- by TradingView --><svg width="56" height="56" viewBox="0 0 56 56" fill="none" xmlns="http://www.w3.org/2000/svg">
<rect width="56" height="56" fill="#F0F3FA"/>
<path fill-rule="evenodd" clip-rule="evenodd" d="M42.8678 30C42.955 29.3457 43 28.6781 43 28C43 19.7157 36.2843 13 28 13C19.7157 13 13 19.7157 13 28C13 28.6781 13.045 29.3457 13.1322 30H42.8678ZM42.6999 31H13.3001C13.3686 31.3376 13.4484 31.671 13.5392 32H42.4608C42.5516 31.671 42.6314 31.3376 42.6999 31ZM42.1465 33H13.8535C13.9734 33.3391 14.1051 33.6726 14.2481 34H41.7519C41.8949 33.6726 42.0266 33.3391 42.1465 33ZM41.2699 35H14.7301C14.9105 35.3413 15.1037 35.6749 15.3091 36H40.6909C40.8963 35.6749 41.0895 35.3413 41.2699 35ZM40.0011 37H15.9989C16.2582 37.3452 16.532 37.6788 16.8195 38H39.1805C39.468 37.6788 39.7418 37.3452 40.0011 37ZM38.1981 39H17.8019C20.4781 41.4823 24.0618 43 28 43C31.9382 43 35.5219 41.4823 38.1981 39Z" fill="#9D9FA2"/>
<path d="M23.5694 34.0183L14 48.0001L30.0093 32.9848L27.1204 30.8572L34.4028 24.0487L31.1528 20.8876L40 8L23.8704 21.6778L27.6018 24.6566L20.9213 31.5867L23.5694 34.0183Z" fill="#EA212B"/>
</svg>
