<!-- by TradingView --><svg width="56" height="56" viewBox="0 0 56 56" xmlns="http://www.w3.org/2000/svg"><path fill="#F0F3FA" d="M0 0h56v56H0z"/><path d="M20 44.2V37l12 9H22c-1.6 0-2-1.2-2-1.8Z" fill="url(#aobjpymoh)"/><path d="M20 11.8V19l12-9H22c-1.6 0-2 1.2-2 1.8Z" fill="#205E2D"/><path d="M38 14.82V10c-5.33 3.79-16.4 11.75-18 13.26-2 1.9-2 2.85-2 3.8l4 1.89 15.32-12.7c.43-.36.68-.88.68-1.43Z" fill="#76C037"/><path d="M38 41.18V46c-5.33-3.79-16.4-11.75-18-13.26-1.6-1.52-2-4.74-2-5.69 0-.94.4-1.9.4-1.9l18.92 14.6c.43.36.68.88.68 1.43Z" fill="url(#bobjpymoh)"/><defs><linearGradient id="aobjpymoh" x1="20" y1="38.8" x2="28.16" y2="46.85" gradientUnits="userSpaceOnUse"><stop stop-color="#5EA32F"/><stop offset="1" stop-color="#7ABD35"/></linearGradient><linearGradient id="bobjpymoh" x1="20" y1="28.95" x2="37.14" y2="45.03" gradientUnits="userSpaceOnUse"><stop stop-color="#427B2B"/><stop offset="1" stop-color="#77BA46"/></linearGradient></defs></svg>