<!-- by TradingView --><svg width="56" height="56" viewBox="0 0 56 56" fill="none" xmlns="http://www.w3.org/2000/svg">
<rect width="56" height="56" fill="#2A2D30"/>
<path fill-rule="evenodd" clip-rule="evenodd" d="M7.05291 21H13.191C13.2145 21.1012 13.2262 21.1707 13.2262 21.2087C13.2262 21.2529 13.2145 21.332 13.191 21.4458C12.9205 21.4711 12.7 21.4995 12.5295 21.5312C12.3649 21.5565 12.1591 21.6007 11.9122 21.664C11.6711 21.7272 11.4859 21.8189 11.3566 21.939C11.3311 21.9615 11.302 21.9849 11.2717 22.0093L11.2717 22.0093C11.1483 22.1087 11.0047 22.2244 11 22.3564V28.3604V34.3645H13.8612C14.7255 34.3013 15.4986 34.1653 16.1806 33.9566C16.8626 33.748 17.43 33.4824 17.8827 33.1599C18.3413 32.8311 18.7175 32.4928 19.0115 32.145C19.3113 31.7909 19.57 31.3957 19.7876 30.9593C19.9181 31.0133 19.9463 31.0834 19.981 31.1697C19.9845 31.1784 19.9881 31.1874 19.9919 31.1965C19.9945 31.2027 19.9972 31.2091 20 31.2154C19.8528 31.509 19.7579 31.7683 19.6755 31.9934L19.6755 31.9934C19.623 32.1369 19.5756 32.2664 19.523 32.3821C19.3937 32.6793 19.2496 33.0714 19.0909 33.5583C18.938 34.0388 18.8381 34.5574 18.791 35H7.03528C7.01176 34.9241 7 34.8609 7 34.8103C7 34.766 7.01176 34.6807 7.03528 34.5542C7.30573 34.5289 7.52326 34.5036 7.68788 34.4783C7.85838 34.4467 8.06416 34.3993 8.30521 34.336C8.55215 34.2728 8.74029 34.1843 8.86963 34.0705C8.99002 33.9586 8.99415 33.8276 8.99888 33.6775L9 33.6436V27.6585V22.3564C8.99908 22.3307 8.99886 22.3056 8.99864 22.2812C8.99744 22.1491 8.99641 22.0351 8.88727 21.939C8.75792 21.8189 8.56979 21.7272 8.32285 21.664C8.0818 21.6007 7.87602 21.5565 7.70552 21.5312C7.5409 21.4995 7.32336 21.4711 7.05291 21.4458C7.0294 21.332 7.01764 21.2529 7.01764 21.2087C7.01764 21.1454 7.0294 21.0759 7.05291 21ZM27.737 22.5596C28.3266 23.1701 28.7312 24.0285 28.9509 25.1347C29.0376 25.1649 29.1098 25.1801 29.1676 25.1801C29.2197 25.1801 29.2832 25.1649 29.3584 25.1347C29.2197 24.5846 29.1503 23.8562 29.1503 22.9495C29.1503 22.5626 29.1676 22.1908 29.2023 21.8342C27.9653 21.2781 26.7746 21 25.6301 21C25.2486 21 24.8728 21.0363 24.5029 21.1088C24.1387 21.1753 23.7688 21.2992 23.3931 21.4806C23.0173 21.6559 22.6879 21.8795 22.4046 22.1516C22.1272 22.4175 21.8988 22.7742 21.7197 23.2215C21.5462 23.6628 21.4595 24.1645 21.4595 24.7267C21.4595 25.7966 21.815 26.658 22.526 27.3109C23.2428 27.9577 24.237 28.4473 25.5087 28.7798C26.526 29.0397 27.2139 29.3782 27.5723 29.7953C27.9364 30.2064 28.1185 30.8199 28.1185 31.636C28.1185 32.446 27.8728 33.0989 27.3815 33.5946C26.896 34.0842 26.1994 34.329 25.2919 34.329C24.8931 34.329 24.4971 34.2444 24.104 34.0751C23.7168 33.8998 23.341 33.6399 22.9769 33.2953C22.6127 32.9447 22.289 32.4702 22.0058 31.8718C21.7283 31.2733 21.5289 30.5842 21.4075 29.8044C21.3439 29.7621 21.2717 29.7409 21.1908 29.7409C21.1272 29.7409 21.0636 29.7621 21 29.8044C21.1561 30.7837 21.2341 31.766 21.2341 32.7513C21.2341 32.9024 21.2197 33.3044 21.1908 33.9573C22.6416 34.6524 24.0087 35 25.2919 35C25.7139 35 26.1387 34.9486 26.5665 34.8459C26.9942 34.7431 27.4162 34.5799 27.8324 34.3562C28.2486 34.1326 28.6156 33.8605 28.9335 33.5402C29.2514 33.2198 29.5087 32.8269 29.7052 32.3614C29.9017 31.8899 30 31.3761 30 30.8199C30 30.4029 29.9566 30.019 29.8699 29.6684C29.789 29.3117 29.6792 29.0035 29.5405 28.7435C29.4075 28.4836 29.2312 28.2478 29.0116 28.0363C28.7977 27.8187 28.5809 27.6373 28.3613 27.4922C28.1474 27.3472 27.8902 27.2111 27.5896 27.0842C27.2948 26.9573 27.0231 26.8575 26.7746 26.785C26.5318 26.7124 26.2457 26.6339 25.9162 26.5492C25.3092 26.3921 24.8179 26.2288 24.4422 26.0596C24.0665 25.8843 23.7803 25.6848 23.5838 25.4611C23.3873 25.2314 23.2572 24.9957 23.1936 24.7539C23.1301 24.5121 23.0983 24.2068 23.0983 23.8381C23.0983 23.1731 23.3179 22.6412 23.7572 22.2422C24.2023 21.8433 24.8266 21.6438 25.6301 21.6438C26.4509 21.6438 27.1532 21.9491 27.737 22.5596ZM37.191 21H31.0529C31.0294 21.0759 31.0176 21.1454 31.0176 21.2087C31.0176 21.2529 31.0294 21.332 31.0529 21.4458C31.3234 21.4711 31.5409 21.4995 31.7055 21.5312C32.1778 21.6012 32.9776 21.7302 33 22.3564V33.6436C33 34.1908 32.3106 34.3698 31.8907 34.4404C31.7085 34.472 31.5644 34.4941 31.4586 34.5068C31.3528 34.5194 31.2117 34.5352 31.0353 34.5542C31.0118 34.6174 31 34.7028 31 34.8103C31 34.8609 31.0118 34.9241 31.0353 35H37.1733C37.1968 34.9241 37.2086 34.8609 37.2086 34.8103C37.2086 34.7154 37.1968 34.6301 37.1733 34.5542C36.9029 34.5289 36.6824 34.5036 36.5119 34.4783C36.4648 34.4693 36.4124 34.4601 36.3562 34.4502C35.8462 34.3605 35.0204 34.2153 35 33.6436V22.3564C35.0214 21.7587 35.9687 21.6158 36.4637 21.5412L36.5295 21.5312C36.7 21.4995 36.9205 21.4711 37.191 21.4458C37.2145 21.3573 37.2262 21.2782 37.2262 21.2087C37.2262 21.1707 37.2145 21.1012 37.191 21ZM45.191 21H39.0529C39.0294 21.0759 39.0176 21.1454 39.0176 21.2087C39.0176 21.2529 39.0294 21.332 39.0529 21.4458C39.3234 21.4711 39.5409 21.4995 39.7055 21.5312C39.876 21.5565 40.0818 21.6007 40.3229 21.664C40.5698 21.7272 40.7579 21.8189 40.8873 21.939C40.9964 22.0351 40.9974 22.1491 40.9986 22.2812C40.9989 22.3056 40.9991 22.3307 41 22.3564V27.6585V33.6436C40.9996 33.655 40.9992 33.6663 40.9989 33.6775C40.9941 33.8276 40.99 33.9586 40.8696 34.0705C40.7403 34.1843 40.5521 34.2728 40.3052 34.336C40.0642 34.3993 39.8584 34.4467 39.6879 34.4783C39.5233 34.5036 39.3057 34.5289 39.0353 34.5542C39.0118 34.6807 39 34.766 39 34.8103C39 34.8609 39.0118 34.9241 39.0353 35H50.791C50.804 34.878 50.8125 34.7502 50.8213 34.6191C50.8443 34.2744 50.8688 33.9064 50.9796 33.5583C51.1383 33.0714 51.2824 32.6793 51.4117 32.3821C51.4951 32.1987 51.6078 31.9805 51.7385 31.7273C51.8196 31.5701 51.9077 31.3995 52 31.2154C51.953 31.1079 51.8291 31.0226 51.6763 30.9593C51.4587 31.3957 51.2 31.7909 50.9002 32.145C50.6062 32.4928 50.23 32.8311 49.7714 33.1599C49.3187 33.4824 48.8626 33.748 48.1806 33.9566C47.4986 34.1653 46.7255 34.3013 45.8612 34.3645H43V28.3604V22.3564C43.0047 22.2244 43.1483 22.1087 43.2717 22.0093C43.302 21.9849 43.3311 21.9615 43.3566 21.939C43.4859 21.8189 43.6711 21.7272 43.9122 21.664C44.1591 21.6007 44.3649 21.5565 44.5295 21.5312C44.7 21.4995 44.9205 21.4711 45.191 21.4458C45.2145 21.332 45.2262 21.2529 45.2262 21.2087C45.2262 21.1707 45.2145 21.1012 45.191 21Z" fill="white"/>
</svg>
