<!-- by TradingView --><svg width="56" height="56" viewBox="0 0 56 56" xmlns="http://www.w3.org/2000/svg"><path fill="#F0F3FA" d="M0 0h56v56H0z"/><path d="M25.23 10.68c-.9.52-1.69 1.3-2.37 2.17l.13.36c.47 1.29 1.2 2.63 1.96 3.6.38.47 1.32 1.43 2.65 2.7 1.3 1.25 2.96 2.79 4.73 4.4a771.4 771.4 0 0 0 7.47 6.73 42.88 42.88 0 0 0-1.05-5.87 643.08 643.08 0 0 1-10.53-10.33 19.6 19.6 0 0 1-2.96-3.72l-.03-.04Zm12.95 12.14c-2.01-6.18-5.88-12.37-10.11-12.8a4.44 4.44 0 0 0-1.92.23c.6 1.02 1.56 2.24 2.78 3.47 1.57 1.6 5.72 5.7 9.25 9.1Zm1.75 9.28c-2.44-2.16-5.5-4.9-8.27-7.43a289.3 289.3 0 0 1-4.75-4.43 36.95 36.95 0 0 1-2.74-2.8c-.78-.99-1.5-2.3-2.01-3.58-1.37 2.14-2.11 4.54-2.11 5.3 0 1.52 8.02 10.65 19.56 18.76.3-.94.5-3.02.32-5.82Z" fill="#2C3491"/><path d="M27.4 46c3.47-.92 8.28-3.03 11.87-7.07.5-1.61.66-3.3.68-4.83a24.46 24.46 0 0 1-3 3.67c-2.09 2.11-5.6 3.84-9.08 5.13a62.83 62.83 0 0 1-5.62 1.78c1.41.7 3.1 1.19 5.15 1.32Zm-6.37-2.05a62.67 62.67 0 0 0 6.5-2c3.45-1.29 6.79-2.95 8.71-4.9a22.77 22.77 0 0 0 3.67-4.8c-.07-1.1-.19-2.04-.27-2.67l-.03-.28c-.26-2.1-.55-4.09-1.32-6.5-1.04 4.32-3.03 8.3-6.4 10.96-1.87 1.47-5.24 2.97-8.64 4.24-1.95.74-3.93 1.4-5.68 1.95.77 1.5 1.9 2.91 3.46 4Zm-3.9-4.93c-1-2.38-1.23-4.88-1.1-6.68C30.88 26.66 34.67 18.22 34.5 14.5a50.16 50.16 0 0 1 3.15 6.5c-.88 4.77-2.85 9.18-6.38 11.96-1.73 1.36-4.97 2.82-8.36 4.1-2 .74-4.01 1.41-5.78 1.96Zm21.04 2.43c-1.32 2.19-3.55 3.93-7.26 4.44 2.37-.97 4.95-2.4 7.26-4.44Z" fill="url(#atkx02tlk)"/><defs><linearGradient id="atkx02tlk" x1="35.11" y1="15.5" x2="27.12" y2="46.55" gradientUnits="userSpaceOnUse"><stop stop-color="#00A4E7"/><stop offset="1" stop-color="#2C318F"/></linearGradient></defs></svg>