<!-- by TradingView --><svg width="56" height="56" viewBox="0 0 56 56" fill="none" xmlns="http://www.w3.org/2000/svg">
<rect width="56" height="56" fill="#F0F3FA"/>
<path fill-rule="evenodd" clip-rule="evenodd" d="M44.2609 32.9737C44.7414 31.4005 45 29.7305 45 28C45 18.6112 37.3888 11 28 11C18.6112 11 11 18.6112 11 28C11 37.3888 18.6112 45 28 45C34.8934 45 40.8285 40.8971 43.4965 35H36.7859C36.3063 34.958 35.2742 34.6781 34.9832 33.894C34.6922 33.1099 31.5547 25.5087 30.0223 21.8061L26.6025 34.756C26.5645 34.8996 26.432 35 26.2802 35C26.1336 35 26.0044 34.9064 25.9617 34.7694L21.9276 21.8061L18.7549 33.2293C18.7077 33.4548 18.7561 33.9636 19.3273 34.1945C19.8985 34.4255 20.4462 34.6502 20.6486 34.7337V35H13.6545V34.7337L14.8344 34.2599C15.0683 34.1366 15.6139 33.6571 15.9257 32.7257C16.2375 31.7943 18.8682 22.979 20.1445 18.5546C20.2379 18.0603 20.1979 16.9019 19.2911 16.2231V16H25.4171L27.0532 21.6141L28.0044 18.1316C28.0636 17.7516 27.9562 16.8229 27.0532 16.1487V16H33.6177L39.7765 31.7261C39.8881 32.1419 40.5111 32.9737 42.1103 32.9737H44.2609Z" fill="#ED1B24"/>
</svg>
