<!-- by TradingView --><svg width="56" height="56" viewBox="0 0 56 56" fill="none" xmlns="http://www.w3.org/2000/svg">
<rect width="56" height="56" fill="#F0F3FA"/>
<path d="M14.7464 22.031C17.7086 19.0782 20.7072 16.161 23.6904 13.2301C25.1263 11.8194 26.5573 10.4048 28.0042 9.00601C28.0063 9.00401 28.0088 9.00245 28.0115 9.00142C28.0142 9.0004 28.0171 8.99992 28.02 9.00001C28.0229 9.00011 28.0257 9.00078 28.0283 9.00199C28.0309 9.00319 28.0333 9.00491 28.0352 9.00704C28.1719 9.15808 28.315 9.30704 28.4646 9.45393C33.0121 13.9204 37.5537 18.3934 42.1006 22.8604C44.2557 24.9775 46.1712 28.7225 44.1325 31.6151C43.6377 32.317 43.0638 32.9697 42.4844 33.6011C41.4455 34.7333 40.4295 35.7923 39.4364 36.7781C36.6786 39.5152 34.312 42.2549 31.3192 44.9971C30.5869 45.668 29.7474 46.3499 29 47V44.6123V39.5842C29 38.4872 29.9061 37.2979 30.6217 36.5347C32.4793 34.5549 34.0533 32.7737 35.9325 30.8064C36.4962 30.2163 37.0517 29.6285 36.9636 28.7288C36.8911 27.9891 36.3858 27.406 35.8887 26.9023C34.3958 25.3893 32.903 23.8761 31.4104 22.3626C31.3011 22.2517 31.1785 22.1313 31.0425 22.0014C30.0133 21.0184 29.0235 19.9878 28.0275 18.9698C28.0212 18.9634 28.0145 18.963 28.0073 18.9687C27.8095 19.1319 27.6436 19.2813 27.5097 19.4169C24.9866 21.9717 22.4636 24.5267 19.9408 27.0819C19.4676 27.5609 19.0894 28.1443 19.0054 28.8271C19.0003 28.8685 19.0014 28.9314 19.009 29.016C19.061 29.6033 19.4315 30.1428 19.8212 30.5547C21.8662 32.7158 23.8121 34.6214 25.7126 36.9021C26.2792 37.5818 26.6647 38.3998 26.8628 39.2648C26.9359 39.5842 27.0005 40.2018 27 40.6256V46.9834C21.756 42.3555 16.605 37.6142 12.2359 32.1196C12.0409 31.8742 11.8607 31.6182 11.6956 31.3514C10.0306 28.6628 11.6372 25.238 13.5478 23.2276C13.9024 22.8544 14.3411 22.4348 14.7464 22.031ZM30.5964 15.1513C29.7341 14.3182 28.8702 13.4919 28.0045 12.6721C27.9951 12.6633 27.9858 12.6634 27.9765 12.6724C25.1209 15.4253 22.2643 18.1741 19.4486 20.9675C18.3948 22.0128 17.3012 23.1298 16.0934 24.3593C15.6047 24.8567 15.1443 25.3606 14.7123 25.871C13.1724 27.6904 13.482 30.0629 15.0608 31.7269C17.969 34.7922 20.3459 37.9115 23.3526 40.8825C23.5985 41.1254 23.8747 41.356 24.1809 41.5741C24.3458 41.6916 24.5243 41.7568 24.7165 41.7698C24.9314 41.7843 25.0439 41.5131 25.057 41.3369C25.1477 40.11 24.7111 38.9001 23.875 38.0147C21.5745 35.5705 19.369 33.5472 17.3604 30.8261C16.6404 29.8504 16.5182 28.5772 16.9761 27.4548C17.3543 26.5276 17.9882 25.728 18.7056 25.0457C18.9765 24.7881 19.2459 24.529 19.5137 24.2682C22.3402 21.5172 25.1624 18.7593 27.9804 15.9944L27.9858 15.9922L27.9911 15.9944C30.9915 18.8955 33.974 21.8164 36.962 24.731C36.962 24.731 37.0614 24.826 37.2564 25.0125C38.1817 25.8967 39.0966 27.0635 39.2706 28.3805C39.41 29.4341 39.03 30.412 38.3492 31.1972C36.3361 33.5202 34.5556 35.6953 32.3328 37.8133C31.6775 38.4377 31.2491 39.1991 31.0476 40.0975C30.9576 40.4985 30.9323 40.9303 30.9717 41.3927C30.9925 41.6336 31.1767 41.85 31.4288 41.762C31.9075 41.5949 32.2785 41.2531 32.6298 40.8973C35.4218 38.0702 37.0369 35.8228 40.7311 31.9488C40.9303 31.74 41.0482 31.6148 41.0849 31.5733C42.0514 30.4828 42.568 28.9553 42.1588 27.5101C41.9666 26.8317 41.6327 26.2294 41.1569 25.7031C40.35 24.8107 39.5223 23.9384 38.6739 23.0862C36.0284 20.428 33.4026 17.8627 30.5964 15.1513Z" fill="#020202"/>
<path d="M26.7025 34.4728L26.8608 34.6098C25.8708 34.4879 24.9276 33.877 24.3542 33.0608C23.5378 31.8995 23.2729 30.4177 23.5038 29.0223C23.5991 28.4454 23.927 27.8288 24.2647 27.3609C24.7693 26.6622 25.4008 26.0251 25.9909 25.3756C26.1172 25.2365 26.2255 25.1033 26.3161 24.9759C27.1495 23.8017 27.7157 22.5045 28.0148 21.0843C28.0149 21.0828 28.0155 21.0813 28.0166 21.0803C28.0177 21.0792 28.0191 21.0787 28.0206 21.0787C28.0221 21.0787 28.0235 21.0794 28.0246 21.0805C28.0256 21.0815 28.0261 21.083 28.0261 21.0845C28.2178 22.3262 28.6195 23.4889 29.2314 24.5726C29.5975 25.2209 30.1143 25.7285 30.6188 26.2621C31.3747 27.0609 32.159 28.0543 32.3212 29.1762C32.3419 29.3191 32.3567 29.4912 32.3658 29.6926C32.456 31.7072 31.5602 33.7771 29.5535 34.4661C29.5515 34.4669 29.5493 34.467 29.5473 34.4663C29.5452 34.4656 29.5435 34.4642 29.5424 34.4624C29.5413 34.4606 29.5409 34.4584 29.5412 34.4562C29.5415 34.4541 29.5426 34.4522 29.5442 34.4508C29.7074 34.2907 29.8649 34.1225 30.017 33.946C30.7436 33.1026 30.7636 31.6613 29.9975 30.8293C29.3198 30.0935 28.4297 29.5698 27.9505 28.6553C27.6154 28.0156 27.5001 27.2249 27.5849 26.5296C27.6203 26.2398 27.6537 25.9464 27.6853 25.6494C27.6856 25.6476 27.6853 25.6458 27.6845 25.6442C27.6836 25.6427 27.6823 25.6414 27.6807 25.6407C27.6791 25.64 27.6773 25.6399 27.6755 25.6403C27.6738 25.6407 27.6723 25.6417 27.6712 25.6431C26.5421 26.9981 25.7467 28.5712 25.3035 30.2876C25.2658 30.4338 25.2384 30.617 25.2271 30.7794C25.151 31.8725 25.3896 33.4088 26.2905 34.1425C26.4237 34.2509 26.561 34.3611 26.7025 34.4728Z" fill="#0C9447"/>
<path d="M27.9494 32.4699C27.8457 32.5497 27.7425 32.6305 27.6397 32.7123C27.336 32.9539 27.0847 33.1548 26.9161 33.4651C26.8295 33.6245 26.7321 33.8607 26.624 34.1739C26.2635 33.4008 26.3844 32.6843 26.727 31.9441C26.9333 31.4983 27.1891 31.0741 27.4944 30.6715C27.5022 30.6609 27.506 30.6623 27.5057 30.6756C27.4985 30.9279 27.4793 31.1941 27.4887 31.4321C27.4998 31.7087 27.5423 31.8517 27.6968 32.0959C27.7711 32.2134 27.8553 32.3381 27.9494 32.4699Z" fill="#F5B819"/>
<path d="M27.9495 32.4699C28.1913 32.6574 28.4375 32.8728 28.6879 33.1161C28.4729 33.1711 28.2149 33.2212 28.0399 33.3089C27.4913 33.5837 27.4152 34.1858 27.273 34.7162L26.861 34.6098L26.7027 34.4728L26.624 34.1739C26.7321 33.8607 26.8295 33.6245 26.9161 33.4651C27.0847 33.1548 27.3361 32.9539 27.6397 32.7123C27.7425 32.6304 27.8458 32.5497 27.9495 32.4699Z" fill="#E27A27"/>
<path d="M28.6873 33.1161C28.764 33.318 28.799 33.5315 28.7924 33.7566C28.777 34.2795 28.4485 34.7188 27.9094 34.7515C27.7002 34.7643 27.4879 34.7526 27.2725 34.7162C27.4147 34.1858 27.4908 33.5837 28.0393 33.3089C28.2143 33.2212 28.4724 33.1711 28.6873 33.1161Z" fill="#CC3529"/>
</svg>
