<!-- by TradingView --><svg width="56" height="56" viewBox="0 0 56 56" xmlns="http://www.w3.org/2000/svg"><path fill="#F0F3FA" d="M0 0h56v56H0z"/><path d="M28.85 21H13l-1.5 3h12.85c.47 0 .79.46.59.87l-5 10.13h3.72l6.23-12.48c.36-.7-.2-1.52-1.04-1.52ZM10 27h4l-4 8H6l4-8Zm7 0h4l-4 8h-4l4-8Zm24.83 3H46l-2.83 5H32l1.74-3h6.96l1.13-2ZM31.6 21.97c.3-.6.95-.97 1.66-.97H50l-1.52 3h-13.5a1.4 1.4 0 0 0-1.26.74L28.52 35H25l6.6-13.03Z" fill="url(#a120hl2q5)"/><defs><linearGradient id="a120hl2q5" x1="28" y1="21" x2="28" y2="35" gradientUnits="userSpaceOnUse"><stop stop-color="#025431"/><stop offset="1" stop-color="#6DB842"/></linearGradient></defs></svg>