<!-- by TradingView --><svg width="56" height="56" viewBox="0 0 56 56" xmlns="http://www.w3.org/2000/svg"><path fill="#67939E" d="M0 0h56v56H0z"/><path d="M12 29 28.11 8 44 29l-3.22 3.85-.64-.53-1.16-8.76h-1.94L35.5 28.3l-.9-4.74.58-.56h-3.54l.44.8-.44 8.7-.58.5h2.09l-.55-.5v-5.68L34.8 33h1.13l1.46-4.7 1.04 4.2-.64.5h2.86L28.11 48 12 29Zm13.18 8.22h-1.07v5.34h1.07v-.52h.4c2.6 3.2 6.66 1.07 6.66-3 0-3.16-3-10.84-4.73-15.26-.5-1.28-.9-2.28-1.08-2.83-.8-2.42-1.13-6.31 1.18-6.31a2.7 2.7 0 0 1 2.7 2.22v2.2h.87c.03-2.1.08-6.32 0-6.4a3.56 3.56 0 0 0-1.1 0V14c-.1-.2-.68-.59-2.17-.59-1.87 0-4.2 1.21-4.2 4.47 0 2.93 3.23 11.55 5.05 16.42l.55 1.46c1.62 4.37.1 6.3-1.42 6.3-1.22 0-2.32-1.3-2.71-1.94v-2.9ZM16.44 33h2.09l-.55-.5v-5.68l2.2 6.18h1.13l1.45-4.7 1.05 4.2-.64.5h3.16l-.81-.68-1.16-8.76h-1.94l-1.54 4.74-.9-4.74.58-.56h-3.54l.43.8-.43 8.7-.58.5Z" fill="#fff"/></svg>