<!-- by TradingView --><svg width="56" height="56" viewBox="0 0 56 56" xmlns="http://www.w3.org/2000/svg"><path fill="#F0F3FA" d="M0 0h56v56H0z"/><path fill-rule="evenodd" d="m29.44 25.1-.23-.1v1.1h-.19v1.57h-1.44l.86 1.1h2.75v.26c-.27.06-.5.19-.7.36h-3.03c-.03-.22-.1-.43-.2-.62h.3L25.84 27h-2.15v.8h.44a2.25 2.25 0 1 0 3.22 2.76H30A1.5 1.5 0 1 0 31.43 29v-1.12c0-.12-.08-.21-.2-.21h-1.6V26.1h-.19v-1Zm-4.2 5.97a1.32 1.32 0 1 0 0-2.63 1.32 1.32 0 0 0 0 2.63Zm0-.52a.8.8 0 1 0 0-1.6.8.8 0 0 0 0 1.6Zm6.26.83a.88.88 0 1 0 0-1.76.88.88 0 0 0 0 1.76Zm0-.35a.53.53 0 1 0 0-1.06.53.53 0 0 0 0 1.06Z" fill="#201B17"/><path fill-rule="evenodd" d="M15.65 35H10l15-24.22L36.56 31h1.04l-9.25-15.95L31.28 10 46 35H28a6 6 0 1 0 0-12 6 6 0 0 0 0 12h-5.63l-.51 1H40.7l2.66 5H13.33l11.94-20.64-.51-.73L15.66 35Zm8.96 4.95v-2.67h1.23l.7 1.58.68-1.58h1.23v2.66H27.3V38.2l-.7 1.74h-.75l-.81-1.74v1.74h-.42Zm4.17-2.34v-.3h3.17v.3H31v2.35h-1.28V37.6h-.94Zm6.44 2.35h-2.91V37.3h1.28v2.35h1.63v.3Z" fill="#DA251C"/></svg>