<!-- by TradingView --><svg width="56" height="56" viewBox="0 0 56 56" xmlns="http://www.w3.org/2000/svg"><path fill="#F0F3FA" d="M0 0h56v56H0z"/><path d="M39.3 31.5c3.1 3.94 1.45 8.04-.94 11.73a.15.15 0 0 1-.1.07.16.16 0 0 1-.14-.04L19.88 26.9c-.08-.07-.15-.07-.23 0-.3.26-.5.6-.56 1-.02.1 0 .19.09.26 4.97 4.22 10 9.35 4.08 15.74a.32.32 0 0 1-.24.1l-7.72-.03a.3.3 0 0 1-.26-.14.29.29 0 0 1 0-.3c1.2-2.1 1.32-3.84.84-6.36-.63-3.28-1.45-6.45.31-9.15a38.4 38.4 0 0 1 1.68-2.34c.06-.07.06-.15 0-.23-.55-.8-1.31-1.67-1.7-2.48-2.1-4.37-1.15-8.02 2.83-10.94.07-.05.13-.04.18.04.33.66.8 1.36 1.4 2.1a48.72 48.72 0 0 0 11.5 10.36l.15.03c.05-.01.1-.04.12-.08l.55-.77a.27.27 0 0 0-.02-.34c-.54-.55-1.1-1.07-1.69-1.55-1.18-.99-1.37-2.76-1.26-4.15.2-2.63 2.1-4.55 4.5-5.54a.2.2 0 0 1 .24.06c1.97 2.1 4.32 3.95 5.7 6.6 1.36 2.64-1.21 6.3-2.7 8.48a.26.26 0 0 1-.2.11.27.27 0 0 1-.23-.1l-1.77-2.08a.37.37 0 0 0-.28-.13.38.38 0 0 0-.28.12l-.83.93c-.06.06-.06.13 0 .2 1.72 1.64 4.15 3.8 5.23 5.18Z" fill="#D62321"/></svg>