<!-- by TradingView --><svg width="56" height="56" viewBox="0 0 56 56" xmlns="http://www.w3.org/2000/svg"><path fill="#F0F3FA" d="M0 0h56v56H0z"/><path d="M26.19 29.5v.5h1.54v-.5L32 26.9V25h2v-1H20v1h2v1.9l4.19 2.6Z" fill="#201A1A"/><path d="M14 30h19.35L38 34.45V30h4v12H22.88L18 37.7V42h-4V30Zm6 9h4.26l2.48-2.72H30v-.85h-2v-.78h2V34h-2v-.64h2v-.74h-2V32h2v-1h-5.61L20 39Z" fill="#363BB3"/><path fill-rule="evenodd" d="M27.8 23.98c-1.53.15-4.75-.57-4.6-4.6.1-2.58 1.29-4.62 2.46-6.64A22 22 0 0 0 27.53 9c.7 1.6 2.28 5.1 3.09 6.33A8.3 8.3 0 0 1 32 19.38c0 4.7-3.71 4.61-4.17 4.6h-.03Zm2.26-5.08a.14.14 0 0 1-.13-.14 5.34 5.34 0 0 0-.3-1.79.15.15 0 0 1 .07-.18l.25-.11c.06-.03.14 0 .17.07.15.4.36 1.18.35 2.03 0 .08-.07.14-.14.13h-.27Zm-.68-.09a.14.14 0 0 1-.13-.14 4.3 4.3 0 0 0-.21-1.29.15.15 0 0 1 .08-.18l.24-.1c.07-.04.15 0 .17.07.11.31.25.9.25 1.52 0 .08-.06.14-.14.13h-.26Zm-.1.78a9.47 9.47 0 0 1-.11.83c-.02.08.02.16.09.18l.25.09c.07.02.14-.01.16-.09a4.74 4.74 0 0 0 .13-.98.13.13 0 0 0-.12-.14l-.27-.02a.14.14 0 0 0-.14.13Zm.63.47.06-.52c0-.08.07-.14.14-.13l.27.02c.07 0 .13.07.12.14a10.02 10.02 0 0 1-.19 1.2c-.02.08-.1.11-.16.08l-.25-.1c-.07-.03-.1-.1-.08-.18l.1-.51Z" fill="#201A1A"/><path fill-rule="evenodd" d="M27.6 23.98c-1.53.15-4.75-.57-4.6-4.6.1-2.58 1.3-4.62 2.47-6.64.7-1.22 1.4-2.43 1.87-3.74.69 1.6 2.27 5.1 3.08 6.33a8.3 8.3 0 0 1 1.38 4.05c0 4.7-3.7 4.61-4.16 4.6h-.04Zm2.27-5.08a.14.14 0 0 1-.13-.14 5.9 5.9 0 0 0-.3-1.79.15.15 0 0 1 .07-.18l.24-.11c.07-.03.15 0 .17.07.15.4.36 1.18.35 2.03 0 .08-.06.14-.14.13h-.26Zm-.69-.09a.14.14 0 0 1-.13-.14 4.7 4.7 0 0 0-.2-1.29.15.15 0 0 1 .07-.18l.25-.1c.06-.04.14 0 .17.07.1.31.25.9.24 1.52 0 .08-.06.14-.13.13h-.27Zm-.1.78a9.18 9.18 0 0 1-.11.83c-.02.08.02.16.1.18l.24.09c.07.02.15-.01.17-.09a4.74 4.74 0 0 0 .13-.98.13.13 0 0 0-.13-.14l-.26-.02a.14.14 0 0 0-.14.13Zm.64.47.06-.52c0-.08.06-.14.14-.13l.26.02c.08 0 .13.07.13.14a10.12 10.12 0 0 1-.2 1.2c-.01.08-.09.11-.16.08l-.25-.1a.16.16 0 0 1-.08-.18c.04-.14.07-.32.1-.51Z" fill="#FA0200"/></svg>