<!-- by TradingView --><svg width="56" height="56" viewBox="0 0 56 56" xmlns="http://www.w3.org/2000/svg"><path fill="#F0F3FA" d="M0 0h56v56H0z"/><path fill-rule="evenodd" d="M28 45a17 17 0 1 0 0-34 17 17 0 0 0 0 34Zm0-2a15 15 0 1 0 0-30 15 15 0 0 0 0 30Z" fill="#0C3F21"/><path d="M24.86 19.56c-.5-.14-.6-.56-.14-.96l.61-.36c.78-.33 1.43-.27 2.28-.03.6.17.9.02 1.64.32.37.09 1.15-.15 2.47.67 1.3.8-.31 1.97-2.38 1.48-.67-.16-1.45-.32-2.12-.5-.28-.09-.2-.1-.52-.15-.47-.07-1.23-.1-1.53-.42 1.08-.1.93.4 2.4.4l-.32-.16c-.87-.44-.75-.03-2.16-.6.01-.66.1-.37.31-.82a.98.98 0 0 0-.7.39c-.33.4 0 .4.16.74Zm8.17.25c0-1.54-3.18-2.28-4.37-2.3-1.56-.03-4.55.16-5.44 1.7-.1.2-.24.51-.24.8-.01 1.2 3.4 1.7 4.29 1.72 1.06.03 5.77-.52 5.76-1.92ZM24 37c-.04-2.3-.23-4.55-.27-6.85-.03-1.62-.17-3.68-.18-5.1 0-.66-.06-.56-.32-.81L23 24c0 2.49.29 9.09.68 11.6.06.4.05.96.11 1.14.1.3.09.18.21.26Zm4.06-13.4c-3 0-3.73-.5-6.06-1.46.27 1.33 3.8 1.86 6.06 1.86 2.27 0 5.4-.68 5.94-2-1.91.32-2.92 1.6-5.94 1.6Z" fill="#0C3F21"/><path d="M29 19.8c.42.12.79.18 1.08.2.58.02.9-.11.92-.32 0-.15-.14-.32-.47-.5-.2-.1-.39-.13-.62-.18-.33.7-.43.48-.91.8Z" fill="#0C3F21"/><path d="M27.23 19.1c.38-.72 1.5-.38 1.5-.37.3.17.09.39-.2.57l-.52.34c-.4-.06-.62-.2-.78-.55Zm-.76.32c.23.13 1.36.37 1.7.34.3-.03.5-.12.78-.22 1.5-.56-.19-1.31-1.82-1.2.5.61-.54.67-.66 1.08Z" fill="#0C3F21"/><path d="M25.93 19.04c.26.06.45.08.7-.02.41-.19.37-.37.38-.5-.38-.25-1.03.13-1.08.52Z" fill="#0C3F21"/><path d="M27.72 23.09c4.02 0 4.84-1.3 6.44-2 .24.96-.15 4.44-.15 5.77 0 2.43-.22 4.92-.35 7.36-.16 3.14-1.46 5.04-5.14 5.04-2.2 0-5.12-.73-5.56-4.57-.48-4.22-.8-8.46-1.26-12.69 0-.54.09-.71.26-.61 1.9 1.1 2.7 1.7 5.76 1.7Zm-5.2-3.36c.82-2.14 3.67-2.41 5.67-2.37 1.92.04 3.8.48 4.6 1.23.29.28.63.81.6 1.32-.03.52-.55.69-.97.95-.46.28-.9.36-1.35.53-.87.33-2.13.5-3.42.5-1.71-.02-3.49-.35-4.53-1.04-.75-.5-.59-.6-.6-1.12Zm-.36-.38-.02-.24c-.11-1.94 4.42-2.67 5.87-2.68 1.94 0 5.94.49 5.82 2.76-.39-.24-.22-.15-.5-.49-1.06-1.23-3.66-1.59-5.16-1.59-2.15 0-4.76.3-6 2.24ZM32 21.48c-.61.56-3.5.95-4.31.95-.84 0-3.6-.38-4.18-.93 2 .36 2.96.62 4.15.62 1.02 0 2.2-.18 4.34-.64Zm-10.52-1.66c.05.18.2.06.08.42-.14.46-.5.77-.53 1.27-.12 1.85.27 3.76.45 5.6l.58 5.3c.35 2.71-.16 4.05 1.4 5.74 1.17 1.28 3.54 1.87 5.21 1.85 2.31-.02 5.42-1.48 5.64-3.84.25-4.56.47-9.11.68-13.67.14-2.84-.65-1.88-.6-2.99.01-.38-.01-.68-.1-.98-.7-2.14-4.4-2.55-6.28-2.52-1.95.03-3.98.46-5.43 1.46-.61.42-1.31 1.55-1.1 2.36Z" fill="#0C3F21"/><path d="M25.4 19.17c.29.2.28.18.66.14l-.27-.11-.05-.5c-.29.07-.32.24-.35.47Z" fill="#0C3F21"/></svg>