<!-- by TradingView --><svg width="56" height="56" viewBox="0 0 56 56" xmlns="http://www.w3.org/2000/svg"><path fill="#F0F3FA" d="M0 0h56v56H0z"/><path d="M31.31 34c-.11.35-.24.68-.37.99-.42 1-.9 1.76-1.42 2.27-.5.5-1 .73-1.47.73V34h3.26Zm-3.26 0v3.99c-.47 0-.97-.22-1.48-.73a7.4 7.4 0 0 1-1.42-2.27c-.13-.31-.25-.64-.37-.99h3.27Zm0-1v1-1h3.56c.38-1.46.63-3.16.7-5h-4.26v-1h4.27c-.01-1.81-.2-3.5-.53-5h-3.74v-1h3.5a15.7 15.7 0 0 0-.6-1.76c-.43-1-.92-1.76-1.43-2.27-.5-.5-1-.73-1.47-.73V16v.24c-.47 0-.97.22-1.48.73-.5.51-1 1.28-1.42 2.27a15.7 15.7 0 0 0-.6 1.76h3.5v1H24.3c-.32 1.5-.51 3.19-.52 5h4.27v1h-4.26c.06 1.84.31 3.54.7 5h3.56Zm0-5v5-5Zm0-1v-5 5Zm0-6v-4.76V21Zm-3.17-4.76c-3.95.61-7.32 2.36-9.45 4.76h4.02a10.48 10.48 0 0 1 5.43-4.76ZM14.64 22A8.69 8.69 0 0 0 13 27h4.88c.01-1.8.4-3.5 1.06-5h-4.3Zm-1.58 6a9.23 9.23 0 0 0 2.37 5h3.9a12.4 12.4 0 0 1-1.43-5h-4.84Zm3.37 6h3.5a10.5 10.5 0 0 0 4.03 3.6c-3-.61-5.6-1.9-7.53-3.6Zm11.62 4v-.01.01Zm4.15-.44A16.2 16.2 0 0 0 39.57 34h-3.4a10.52 10.52 0 0 1-3.97 3.56ZM40.57 33a9.23 9.23 0 0 0 2.37-5h-4.75a12.4 12.4 0 0 1-1.42 5h3.8ZM43 27c0-1.8-.59-3.5-1.64-5h-4.2a12.6 12.6 0 0 1 1.06 5H43Zm-2.43-6c-2.1-2.36-5.4-4.1-9.28-4.73A10.5 10.5 0 0 1 36.65 21h3.92Zm-22.11 6c.01-1.82.42-3.51 1.12-5h4.13c-.32 1.5-.5 3.2-.51 5h-4.74Zm1.52 6a11.76 11.76 0 0 1-1.5-5h4.73c.06 1.82.3 3.52.68 5h-3.91Zm4.2 1h-3.56a9.48 9.48 0 0 0 5.7 3.81A8.75 8.75 0 0 1 24.17 34Zm5.6-17.58a9.63 9.63 0 0 1 6.2 4.58h-3.83c-.56-2.07-1.4-3.7-2.38-4.58ZM23.94 21c.56-2.07 1.39-3.7 2.37-4.58a9.63 9.63 0 0 0-6.2 4.58h3.83Zm8.44 1h4.13c.7 1.49 1.1 3.18 1.12 5H32.9c-.01-1.8-.2-3.5-.51-5Zm.5 6h4.72a11.76 11.76 0 0 1-1.5 5h-3.9c.37-1.48.61-3.18.67-5Zm-.97 6h3.55a9.48 9.48 0 0 1-5.7 3.81c.86-.77 1.6-2.1 2.15-3.81Z" fill="#8A7D74"/><path d="M15.41 14.5v8.27c3.16-.15 4.85 1.36 5.3 2.13.67-1.58-1.23-5.3-4.34-4.72v-2.56c0-.11.12-.19.22-.14.69.26 2.3.5 4.86-.12 2.71-.66 3.57-3.2 3.69-4.63a.3.3 0 0 1 .3-.28h5.12a.3.3 0 0 1 .3.28c.11 1.42.97 3.97 3.68 4.63 2.56.63 4.17.38 4.86.12.1-.05.23.03.23.14v2.56c-3.12-.59-5.02 3.14-4.35 4.72.45-.77 2.14-2.28 5.3-2.13V14.5c0-.2-.2-.34-.4-.28-.75.24-2.12.55-3.67.55-2.26 0-4.19-1.23-4.84-2.6a.3.3 0 0 0-.27-.17h-6.8a.3.3 0 0 0-.28.18c-.65 1.36-2.58 2.6-4.84 2.6a12.6 12.6 0 0 1-3.67-.56c-.2-.06-.4.08-.4.28Zm.1 27.74L15 33.72c1.8.13 3.32-1.11 3.94-1.83a.15.15 0 0 1 .18-.03l.78.43c.05.03.08.1.07.15a4.78 4.78 0 0 1-3.48 3.4v2.36c0 .42.38.38.49.38H17a7.18 7.18 0 0 1 4.21-1.77c3.42 0 6.07 4.79 6.3 5.2.17.32.4.42.49.42.1 0 .32-.1.5-.42.22-.41 2.87-5.2 6.29-5.2a7.18 7.18 0 0 1 4.23 1.77c.1 0 .49.04.49-.38v-2.37a4.8 4.8 0 0 1-3.48-3.39.14.14 0 0 1 .07-.15l.78-.43a.15.15 0 0 1 .18.03c.62.72 2.14 1.96 3.94 1.83l-.51 8.52c-.01.1-.15.32-.61.32-.58 0-.96-.54-1.26-.96l-.01-.01a4.69 4.69 0 0 0-4.01-2.07c-2.57 0-4.5 1.64-5.8 4.48h-1.6c-1.3-2.84-3.23-4.48-5.8-4.48a4.69 4.69 0 0 0-4 2.07l-.02.01c-.3.42-.68.96-1.26.96-.46 0-.6-.22-.6-.32ZM20 31v-3.87c0-1.17 1.04-2.13 2.32-2.13h.1c1.25 0 2.27.94 2.27 2.1 0 1.15-1.02 2.09-2.28 2.09H22V28h.28c.48 0 .87-.41.87-.86v-.06c0-.41-.36-.74-.8-.74-.45 0-.82.33-.82.74V31H20Zm5-6v4.36c0 .9.78 1.64 1.74 1.64h1.71v-1.38h-1.33a.56.56 0 0 1-.58-.54V25H25Zm8.47 4.36V25H35v4.08c0 .3.27.54.59.54h1.33V31h-1.71a1.7 1.7 0 0 1-1.74-1.64Zm-1.41.34c.25 0 .49-.05.7-.13l-.23 1.35c-.24.05-.48.08-.73.08-1.79 0-3.23-1.34-3.23-3s1.44-3 3.23-3c.3 0 .57.04.84.1l.12 1.33a1.95 1.95 0 0 0-.7-.13c-1.02 0-1.84.76-1.84 1.7s.82 1.7 1.84 1.7Z" fill="#594F45"/></svg>