<!-- by TradingView --><svg width="56" height="56" viewBox="0 0 56 56" fill="none" xmlns="http://www.w3.org/2000/svg">
<rect width="56" height="56" fill="#F0F3FA"/>
<path d="M28.6813 41.0993C28.6813 44.5344 31.1643 47.1311 32.4058 48.0001C30.8395 47.6237 28.8057 46.4896 27.9845 45.9696C27.6087 45.0788 26.8469 43.2667 26.8064 43.144C26.7659 43.0213 27.1949 40.4348 27.4145 39.1569L30.4268 36.4123C30.4722 36.368 30.5156 36.3287 30.5563 36.2943L30.4268 36.4123C29.7739 37.0476 28.6813 38.6907 28.6813 41.0993Z" fill="#6F170D"/>
<path d="M25.5521 32.0305C24.9157 32.2444 21.9186 32.8525 20.3023 33.1455L18.2598 32.4126L18.4871 30.5019C19.0174 30.5592 20.2221 30.6395 20.7979 30.5019C21.3737 30.3643 29.6119 28.4829 33.659 27.5594L30.2874 31.1707C28.9742 31.3681 26.1886 31.8165 25.5521 32.0305Z" fill="url(#paint0_linear_229_27952)"/>
<path d="M25.2443 30.0786C22.2867 31.0645 19.1491 30.8828 18.9434 30.9088L20.435 27.0951C21.1466 27.1211 23.372 27.064 26.5817 26.6282C30.5937 26.0833 33.1195 24.7736 34.5598 24.7736C35.712 24.7736 36.4146 25.5385 36.5861 25.8239L32.1626 28.2626C30.8424 28.5393 27.6104 29.2899 25.2443 30.0786Z" fill="url(#paint1_linear_229_27952)"/>
<path d="M15.3632 31.5472C16.793 33.4995 19.5334 33.372 20.7249 33.0642C17.1722 33.0642 20.3543 28.755 23.0787 26.3145C25.8032 23.8741 28.5929 21.6975 30.7507 20.2244C32.9084 18.7514 35.9597 14.9918 35.9597 12.2436C35.9597 10.045 35.0879 8.55728 34.652 8.08826L30.9032 13.7166C27.5104 16.3989 20.5025 22.0185 19.6133 23.0387C18.5017 24.3138 13.576 29.1068 15.3632 31.5472Z" fill="url(#paint2_linear_229_27952)"/>
<path d="M16.0172 28.6888C15.2849 30.2542 15.5377 31.5543 15.7557 32.0087C15.1705 31.5286 14 30.1146 14 28.2996C14 25.0457 15.7557 23.4038 17.6104 21.9112C19.4651 20.4186 23.3515 17.3139 26.7548 14.8063C29.4774 12.8003 33.1568 9.43291 34.6562 8C34.2419 13.5525 25.5199 19.3888 22.7737 21.3895C20.0275 23.3902 16.9326 26.7321 16.0172 28.6888Z" fill="url(#paint3_linear_229_27952)"/>
<path d="M38.9994 28.4544C38.9994 27.2057 37.8691 26.1408 37.3039 25.7644C35.0889 27.3686 30.6142 30.5951 30.4354 30.6673C30.2566 30.7394 26.7252 34.966 24.9819 37.0703C24.7584 38.1375 24.4767 40.7498 25.1383 42.6617C25.7999 44.5737 27.798 45.9535 28.7144 46.4044C28.2674 45.9309 27.3734 44.5827 27.3734 42.9774C27.3734 38.3104 32.5363 34.8608 34.1456 33.6884C35.7548 32.516 38.9994 30.0153 38.9994 28.4544Z" fill="url(#paint4_linear_229_27952)"/>
<path d="M34.9924 26.1619C35.7849 25.5506 35.3226 25.0059 34.9924 24.8099C40.6108 26.149 36.6267 28.5522 34.9125 29.8026C33.1982 31.053 24.996 35.7886 24.996 39.9612C24.996 43.2993 27.483 45.6659 28.7265 46.4319C26.9798 45.5168 23.4863 42.9416 23.4863 39.9612C23.4863 31.5894 34.0018 26.9261 34.9924 26.1619Z" fill="url(#paint5_linear_229_27952)"/>
<defs>
<linearGradient id="paint0_linear_229_27952" x1="19.9834" y1="32.0687" x2="31.812" y2="29.513" gradientUnits="userSpaceOnUse">
<stop stop-color="#39743A"/>
<stop offset="0.743708" stop-color="#6EB356"/>
<stop offset="1" stop-color="#39743A"/>
</linearGradient>
<linearGradient id="paint1_linear_229_27952" x1="20.7436" y1="29.43" x2="35.3102" y2="26.496" gradientUnits="userSpaceOnUse">
<stop stop-color="#398142"/>
<stop offset="0.606911" stop-color="#4AA83A"/>
<stop offset="1" stop-color="#1A4E28"/>
</linearGradient>
<linearGradient id="paint2_linear_229_27952" x1="35.3048" y1="13.4916" x2="17.994" y2="33.0926" gradientUnits="userSpaceOnUse">
<stop stop-color="#30ADE5"/>
<stop offset="0.435549" stop-color="#28B8EC"/>
<stop offset="1" stop-color="#0C4395"/>
</linearGradient>
<linearGradient id="paint3_linear_229_27952" x1="14.699" y1="28.1136" x2="35.9873" y2="11.5879" gradientUnits="userSpaceOnUse">
<stop stop-color="#183C90"/>
<stop offset="0.487531" stop-color="#009DE1"/>
<stop offset="1" stop-color="#0291D5"/>
</linearGradient>
<linearGradient id="paint4_linear_229_27952" x1="38.9994" y1="29.2495" x2="26.2282" y2="42.9918" gradientUnits="userSpaceOnUse">
<stop stop-color="#A11C17"/>
<stop offset="0.537353" stop-color="#E6302D"/>
<stop offset="1" stop-color="#AB1D19"/>
</linearGradient>
<linearGradient id="paint5_linear_229_27952" x1="36.616" y1="26.5215" x2="23.373" y2="39.5347" gradientUnits="userSpaceOnUse">
<stop stop-color="#9F1A15"/>
<stop offset="0.662402" stop-color="#BA1F1D"/>
<stop offset="1" stop-color="#9F1A15"/>
</linearGradient>
</defs>
</svg>
