<!-- by TradingView --><svg width="56" height="56" viewBox="0 0 56 56" xmlns="http://www.w3.org/2000/svg"><path fill="#F0F3FA" d="M0 0h56v56H0z"/><path d="M7 22h11v11h-6.3l-.24-.23.7-.18-.58-.42.67-.29-.65-.33.62-.38-.69-.23.56-.47-.72-.13.49-.54-.73-.02.4-.61-.73.08.3-.66-.7.2.2-.7-.67.3.09-.73-.61.4-.02-.73-.55.48-.12-.72-.47.56-.23-.7-.38.63-.34-.65-.28.67-.02-.02V22Zm0 8v3h1.67A1.76 1.76 0 0 0 7 30Z" fill="#15438E"/><path d="m18 28.4-.43-.15.15.71-.64-.34.03.72-.58-.44-.07.73-.5-.52-.19.7-.42-.59-.29.67-.33-.64-.38.61-.23-.68-.47.55-.13-.71-.55.48-.01-.73-.62.4.1-.73-.67.3.2-.7-.7.2.3-.67-.73.09.4-.61-.73-.02.48-.55-.71-.13.55-.46-.69-.24.62-.38-.64-.33.67-.28-.6-.43.71-.18-.52-.5.73-.08-.44-.58.73.04-.35-.64.71.14-.15-.43H18v6.41Z" fill="#27A8E0"/><path d="M14.89 27.54a2.42 2.42 0 1 0 0-4.84 2.42 2.42 0 0 0 0 4.84Z" fill="#F0F3FA"/><path fill="#224191" d="M29 22h2v11h-2zM42 24v-2h8v2h-3v9h-2v-9h-3Z"/><path fill-rule="evenodd" d="M20 22v11h2v-4h3c1.5 0 3-1 3-4 0-2.4-2-3-3-3h-5Zm2 2v3h3c.33 0 1-.3 1-1.5s-.67-1.5-1-1.5h-3Z" fill="#224191"/><path d="M33 22h5c1 0 3 .5 3 2.5s-.67 2.5-1 2.5c.67.17 2 .9 2 2.5 0 2-1.5 3.5-4 3.5h-5V22Zm2 9h3.5c.67 0 1.5-.3 1.5-1.5s-.83-1.5-1.5-1.5H35v3Zm0-5h3c.33 0 1-.2 1-1s-.67-1-1-1h-3v2Z" fill="#224191"/></svg>