<!-- by TradingView --><svg width="56" height="56" viewBox="0 0 56 56" xmlns="http://www.w3.org/2000/svg"><path fill="#F0F3FA" d="M0 0h56v56H0z"/><path d="M45 28h-7.65a6.3 6.3 0 0 1-3.4 1H29v-1h4.36c3.67 0 6.64-2.69 6.64-6 0-1.1-.32-2.12-.89-3h3.32c.2.33.4.66.58 1h-3.32c.15.32.27.65.37 1h3.44c.15.33.29.66.41 1h-3.67a6.4 6.4 0 0 1 .03 1h3.99c.1.33.19.66.27 1h-4.4c-.07.34-.17.68-.3 1h4.91c.06.33.1.66.15 1h-5.56c-.22.36-.48.7-.77 1h6.42l.02 1Zm-6.7-10h3.45a19.1 19.1 0 0 0-.78-1h-3.94c.47.28.9.62 1.28 1ZM26 17h2v1h-1v1h1v1h-1v1h1v1h-1v1h1v1h-1v1h1v1h-1v1h1v1h-1v1h17.98c-.02.34-.05.67-.1 1H27v1h17.74l-.2 1H27v1h17.26c-.1.34-.22.67-.34 1H27v1h16.5c-.15.34-.32.67-.5 1H27v1h15.43c-.21.34-.44.68-.67 1H27v1h13.97c-.3.35-.6.68-.92 1H22v1h16.96c-.42.35-.85.69-1.3 1H22v1h14.02A17 17 0 1 1 22 12.09V13h14.01c.57.3 1.11.64 1.64 1H22v1h16.96c.37.32.74.65 1.08 1H18v23h8V17Zm7.76-5a16.97 16.97 0 0 0-11.52 0h11.52Z" fill="#72323E"/></svg>