<!-- by TradingView --><svg width="56" height="56" viewBox="0 0 56 56" xmlns="http://www.w3.org/2000/svg"><path fill="#F0F3FA" d="M0 0h56v56H0z"/><path d="M21 34h2.5c.25 0 .6.07.92.3.33.24.58.64.58 1.2 0 .56-.25.96-.58 1.2-.31.23-.67.3-.92.3h-2.25L21 38h-1l1-4Zm.5 2h2c.09 0 .23-.03.33-.1.08-.06.17-.16.17-.4 0-.24-.09-.34-.17-.4a.62.62 0 0 0-.33-.1h-1.75l-.25 1ZM27 34h2.5c.25 0 .6.07.92.3.33.24.58.64.58 1.2 0 .56-.25.96-.58 1.2-.31.23-.67.3-.92.3h-2.25L27 38h-1l1-4Zm.5 2h2c.09 0 .23-.03.33-.1.08-.06.17-.16.17-.4 0-.24-.09-.34-.17-.4a.62.62 0 0 0-.33-.1h-1.75l-.25 1ZM33 34h1l-.75 3H36l-.5 1H32l1-4Z"/><path d="M43.3 33c.45-1.58.7-3.26.7-5 0-9.39-7.16-17-16-17s-16 7.61-16 17c0 1.74.25 3.42.7 5h30.6Zm-3.1 6H15.8A15.6 15.6 0 0 0 28 45a15.6 15.6 0 0 0 12.2-6Z" fill="#025732"/><path d="M34 25a6 6 0 0 1-12 0c0-5 4.5-9.5 6-13 1.5 3.5 6 8 6 13Z" fill="#DD8229"/><ellipse cx="25.5" cy="26" rx="1.5" ry="2" fill="#F0F3FA"/></svg>