<!-- by TradingView --><svg width="56" height="56" viewBox="0 0 56 56" xmlns="http://www.w3.org/2000/svg"><path fill="#F0F3FA" d="M0 0h56v56H0z"/><path d="M29.36 10.06a14.62 14.62 0 0 1 9.99 5.27 14.9 14.9 0 0 1 3.36 10.86 14.97 14.97 0 0 1-5.22 10.08 14.68 14.68 0 0 1-10.75 3.4 14.62 14.62 0 0 1-9.99-5.27 14.9 14.9 0 0 1-3.37-10.85 14.97 14.97 0 0 1 5.22-10.09 14.69 14.69 0 0 1 10.76-3.4Zm-.78.13a14.43 14.43 0 0 0-10.44 3.92 14.69 14.69 0 0 0-4.64 10.22 14.82 14.82 0 0 0 3.89 10.54 14.56 14.56 0 0 0 10.12 4.68 14.43 14.43 0 0 0 10.44-3.92A14.69 14.69 0 0 0 42.6 25.4a14.82 14.82 0 0 0-3.88-10.53 14.56 14.56 0 0 0-10.13-4.68Z" fill="#040404"/><path d="M27.2 10.63a.07.07 0 0 1-.02-.08.07.07 0 0 1 .07-.04l.38.03a.16.16 0 0 1 .14.11c.03.1.1.17.2.24a.1.1 0 0 0 .12-.02c.16-.2.37-.34.63-.4a.1.1 0 0 1 .12.1.1.1 0 0 1-.02.07l-.16.24a.26.26 0 0 1-.07.06c-.14.1-.3.1-.5.02a.17.17 0 0 0-.12 0l-.26.07a.17.17 0 0 1-.17-.05l-.35-.35ZM24.96 10.89a.88.88 0 0 1 .33-.15.12.12 0 0 1 .1.02l.39.26a.1.1 0 0 0 .06.02.1.1 0 0 0 .06-.04c.16-.2.46-.44.74-.46h.02a.04.04 0 0 1 .02.03v.02c-.09.38-.3.56-.63.53-.21-.02-.39.1-.59.09-.23-.01-.25-.18-.46-.2a.06.06 0 0 1-.06-.05.07.07 0 0 1 .02-.07ZM29.4 10.65a.06.06 0 0 1 .02-.08l.03-.01c.3-.02.41.13.6.38a.24.24 0 0 0 .3.08.24.24 0 0 0 .08-.07c.14-.18.33-.23.57-.16a.1.1 0 0 1 .04.16c-.3.37-.6.25-1.08.18-.33-.06-.39-.2-.56-.48ZM31.6 11.03a.06.06 0 0 1 0-.06l.02-.02h.03c.3.03.4.19.54.47a.24.24 0 0 0 .17.12.24.24 0 0 0 .2-.06c.17-.15.36-.17.59-.07a.1.1 0 0 1 .05.13.1.1 0 0 1-.03.04c-.36.31-.63.15-1.1 0-.31-.1-.35-.24-.48-.55ZM23.79 11.6a1 1 0 0 0 .27-.46.16.16 0 0 1 .13-.12l.16-.03a.08.08 0 0 1 .07.02.08.08 0 0 1 .02.07c-.08.4-.3.58-.66.58-.05 0-.1.01-.14.03-.24.14-.48.11-.7-.08a.1.1 0 0 1-.04-.08.13.13 0 0 1 .04-.1c.18-.2.6.03.74.17a.07.07 0 0 0 .05.02.07.07 0 0 0 .06-.02Z" fill="#040404"/><path d="M27.74 11.26a13.41 13.41 0 0 1 9.62 3.77 13.67 13.67 0 0 1-3.87 22.3 13.37 13.37 0 0 1-14.75-2.62 13.67 13.67 0 0 1 3.87-22.3 13.37 13.37 0 0 1 5.13-1.15Zm13.63 13.6c0-3.55-1.4-6.97-3.9-9.49a13.26 13.26 0 0 0-18.83 0 13.49 13.49 0 0 0 0 19 13.26 13.26 0 0 0 18.83 0c2.5-2.52 3.9-5.94 3.9-9.5Z" fill="#040404"/><path d="m35.27 12.56-.51.13c-.05.02-.1.01-.14-.01-.49-.27-.8-.3-.95-.9a.06.06 0 0 1 .02-.06.06.06 0 0 1 .06-.02c.28.09.43.26.45.5a.22.22 0 0 0 .12.19.22.22 0 0 0 .2 0c.25-.14.5-.12.77.08a.05.05 0 0 1-.02.09ZM22.37 11.81c-.08.33-.1.48-.4.63-.44.22-.68.42-1.1.16a.1.1 0 0 1-.04-.08.1.1 0 0 1 .04-.09c.2-.14.4-.14.6-.02a.24.24 0 0 0 .36-.12c.1-.3.17-.48.47-.55a.06.06 0 0 1 .05.01.06.06 0 0 1 .02.06ZM29.27 13.68a1.8 1.8 0 0 1-.64-.31.26.26 0 0 1-.02-.39l.11-.12c.12-.12.33-.09.42.06.1.18.28.31.54.4a.05.05 0 0 0 .06-.01.05.05 0 0 0 0-.07l-.43-.39a.24.24 0 0 1 0-.36c.08-.06.18-.1.3-.1.15-.02.25 0 .3.08.06.08.05.19-.02.32a.18.18 0 0 0-.02.08c0 .1.07.17.16.18.29.03.36-.34.24-.53-.34-.55-.95-.4-1.4-.06-.58.42-.95 1.06-1.6 1.47-.62.4-1.47.39-1.87-.3-.3-.5-.16-1.17.38-1.49.81-.47 1.6-.02 2.42-.25a.1.1 0 0 1 .1.02.1.1 0 0 1 .02.1c-.1.37-.3.57-.61.58h-.02l-1-.42h-.01l-.04.11v.01l.74.36a.17.17 0 0 1 .09.2c-.05.2-.18.33-.4.38a.13.13 0 0 1-.15-.05c-.13-.2-.32-.36-.54-.46a.04.04 0 0 0-.05.04v.03l.26.28c.4.41-.19.71-.49.47a.13.13 0 0 1-.04-.15c.06-.16.08-.27.05-.33-.07-.16-.27-.14-.36-.02a.33.33 0 0 0-.01.38c.5.84 1.41.2 1.9-.31.35-.37.62-.64.8-.8.61-.56 1.56-.8 2.1-.03a1.1 1.1 0 0 1-.32 1.58c-.3.18-.66.28-1.02.25a5.05 5.05 0 0 0-1.4.02.11.11 0 0 1-.07-.14c.08-.27.23-.44.45-.52.28-.1.58.18.84.25.14.03.23.05.26.03l.02-.01a.04.04 0 0 0 0-.05h-.03ZM23.56 14.66h-.67a.26.26 0 0 1-.26-.28c.02-.17.2-.55.44-.44.32.13.55.18.69.13a.05.05 0 0 0 .03-.05v-.03l-.03-.02-.54-.13a.27.27 0 0 1-.12-.46.99.99 0 0 1 .35-.18.1.1 0 0 1 .12.04c.08.1.07.3.15.35.1.07.3.04.36-.06a.13.13 0 0 0 .02-.06c.02-.2-.03-.32-.17-.39-.79-.37-1.26.27-1.42.96-.24 1-.5 2.31-1.45 2.54-1.02.25-1.78-.73-1.23-1.67.19-.32.37-.48.7-.61a4 4 0 0 0 1.22-.74.1.1 0 0 1 .15.04c.11.38.02.65-.27.82a.23.23 0 0 1-.14.04c-.31-.03-.64.04-1 .21l-.02.02v.03a.04.04 0 0 0 .04.03l.9-.15a.13.13 0 0 1 .13.04c.08.09.1.21.07.38-.06.34-.26.31-.54.22-.2-.07-.4-.1-.61-.06a.06.06 0 0 0-.05.05.06.06 0 0 0 .05.06l.58.1c.12.01.2.14.17.26a.62.62 0 0 1-.3.41c-.1.05-.21 0-.24-.1l-.07-.23a.22.22 0 0 0-.35-.09c-.09.08-.09.2 0 .36.08.13.23.21.47.24.9.13 1.21-1.51 1.37-2.23a3.7 3.7 0 0 1 .49-1c.4-.37.85-.48 1.37-.32.28.09.44.3.57.57.5 1.07-.79 1.8-1.66 2.15a.14.14 0 0 0-.06.04l-.18.22a.13.13 0 0 1-.22-.07c-.03-.2-.01-.4.05-.59a.25.25 0 0 1 .2-.17l.9-.11h.01v-.02l.01-.03v-.01l-.01-.01ZM34.6 15.87a.03.03 0 0 0 .04-.02.04.04 0 0 0 0-.04 1.84 1.84 0 0 1-.4-.6.26.26 0 0 1 .17-.35l.16-.05c.16-.04.33.1.33.27 0 .2.1.41.27.63a.05.05 0 0 0 .06 0c.01 0 .02 0 .02-.02v-.03l-.17-.55a.24.24 0 0 1 .2-.31c.09-.02.19 0 .3.05.14.06.2.14.22.23 0 .1-.05.18-.18.26a.17.17 0 0 0-.06.06.19.19 0 0 0 .05.24c.23.17.48-.1.47-.33-.02-.66-.62-.84-1.19-.78-.7.08-1.35.44-2.11.47-.75.02-1.48-.41-1.48-1.2-.01-.61.45-1.11 1.08-1.11.94 0 1.39.79 2.22 1.01.07.02.1.1.05.16-.27.29-.55.35-.82.2l-.01-.01-.67-.87-.1.06v.02l.46.68c.04.07.03.17-.02.22-.14.15-.33.2-.54.13a.14.14 0 0 1-.1-.12c-.02-.25-.1-.47-.24-.67l-.03-.01a.04.04 0 0 0-.04.01v.03c0 .07.03.2.07.38.14.55-.51.52-.65.15a.13.13 0 0 1 .04-.15c.13-.1.2-.2.2-.26.02-.17-.16-.26-.3-.2a.32.32 0 0 0-.2.33c.02.98 1.13.89 1.8.7.5-.15.86-.24 1.1-.3.81-.17 1.76.11 1.84 1.06a1.1 1.1 0 0 1-1.07 1.2c-.35 0-.71-.1-1-.3a5.11 5.11 0 0 0-1.23-.7.11.11 0 0 1 0-.15c.2-.2.42-.27.66-.23.28.06.4.45.6.64.1.11.17.16.2.17ZM20.45 12.82c-.02.34-.01.5-.28.7-.4.29-.6.53-1.05.34a.1.1 0 0 1-.07-.07.1.1 0 0 1 .03-.1c.18-.17.38-.2.59-.12a.24.24 0 0 0 .33-.18c.05-.32.08-.5.37-.63h.03a.06.06 0 0 1 .05.06ZM35.63 12.82a.07.07 0 0 1 .07-.09l.04.02.31.26a.17.17 0 0 1 .05.18c-.03.1-.03.2.01.32l.05.05a.1.1 0 0 0 .07.01c.27-.08.52-.06.77.05a.1.1 0 0 1 .06.1.1.1 0 0 1-.07.1l-.28.1a.26.26 0 0 1-.1.02c-.17 0-.32-.1-.43-.3a.18.18 0 0 0-.1-.08l-.26-.1a.18.18 0 0 1-.11-.13l-.08-.51ZM38.6 15.4c-.33.02-.48.05-.7-.19-.35-.35-.61-.52-.5-.99a.1.1 0 0 1 .12-.07.1.1 0 0 1 .04.02c.2.15.26.34.2.56a.24.24 0 0 0 .12.27l.1.03c.32.01.5.02.66.28l.01.03v.02a.06.06 0 0 1-.05.04ZM17.49 15.4a.06.06 0 0 1-.05-.02.06.06 0 0 1 0-.06c.16-.26.35-.27.66-.28a.24.24 0 0 0 .23-.2v-.1c-.07-.22 0-.41.2-.57a.1.1 0 0 1 .09-.01.1.1 0 0 1 .06.07c.12.47-.14.63-.48 1-.23.23-.38.2-.71.18Z" fill="#040404"/><path d="M28.93 14.47a10.26 10.26 0 0 1 7.02 3.67 10.46 10.46 0 0 1 1.27 11.53 10.42 10.42 0 0 1-6.05 5.15 10.24 10.24 0 0 1-11.03-3.23 10.46 10.46 0 0 1-1.27-11.52 10.43 10.43 0 0 1 6.05-5.15c1.3-.42 2.66-.57 4.01-.45Zm-.88.13c-2.7 0-5.28 1.08-7.19 3a10.32 10.32 0 0 0 0 14.53 10.12 10.12 0 0 0 16.58-3.33 10.36 10.36 0 0 0-2.2-11.2 10.16 10.16 0 0 0-7.19-3Z" fill="#040404"/><path d="M28.17 15.4c.13-.12.16-.3.06-.41-.1-.12-.27-.13-.4-.02-.13.1-.16.29-.07.4.1.12.28.13.4.02ZM31.41 15.52c-.14-.09-.32-.05-.4.07-.07.13 0 .3.13.39.15.08.32.05.4-.08.07-.13.02-.3-.13-.38ZM16.12 17.19a.06.06 0 0 1-.06-.03.06.06 0 0 1 0-.05c.12-.3.31-.33.63-.38a.25.25 0 0 0 .2-.24c.01-.03 0-.07-.01-.1-.1-.23-.05-.43.12-.61a.1.1 0 0 1 .1-.03.1.1 0 0 1 .07.06c.2.46-.05.67-.35 1.09-.2.28-.36.27-.7.29ZM38.96 15.76a.06.06 0 0 1 .04-.04.06.06 0 0 1 .06.02c.23.2.2.39.14.7a.24.24 0 0 0 .06.2.24.24 0 0 0 .2.08c.22-.01.4.09.5.3a.1.1 0 0 1 0 .1.1.1 0 0 1-.07.05c-.49.03-.6-.26-.88-.67-.2-.27-.14-.41-.05-.74ZM23.2 16.8c.15 0 .28-.13.28-.3a.29.29 0 0 0-.29-.28.29.29 0 0 0-.28.29c0 .16.13.29.28.29ZM24.7 16.09c.16 0 .3-.13.3-.3a.29.29 0 0 0-.3-.28.29.29 0 0 0-.28.29c0 .16.13.29.28.29ZM26.3 15.65c.15 0 .28-.13.28-.3a.29.29 0 0 0-.29-.28.29.29 0 0 0-.29.29c0 .16.13.29.3.29ZM29.68 15.63c.16 0 .29-.13.29-.3a.29.29 0 0 0-.29-.28.29.29 0 0 0-.29.29c0 .16.13.29.29.29ZM36.32 20.28c.16 0 .29-.13.29-.3a.29.29 0 0 0-.29-.28.29.29 0 0 0-.29.29c0 .16.13.29.3.29ZM37.03 28.48c.16 0 .3-.13.3-.3 0-.15-.14-.28-.3-.28a.29.29 0 0 0-.28.29c0 .16.12.29.28.29ZM31.36 34.27c.16 0 .3-.13.3-.3 0-.15-.14-.28-.3-.28a.29.29 0 0 0-.28.29c0 .16.13.29.28.29ZM32.8 16.2a.28.28 0 0 0-.3.27c-.01.15.11.28.27.3.16 0 .3-.11.3-.27a.29.29 0 0 0-.26-.3ZM38.73 20.53a.04.04 0 0 0 .02.03.04.04 0 0 0 .04 0l.1-.07c0-.27.03-.45.07-.56.08-.2.34-.2.48-.07.07.06.12.19.16.38a.1.1 0 0 1-.06.12 4.68 4.68 0 0 1-.37.15c-.06.06-.08.16-.01.21.15.12.37.2.51 0 .35-.53.03-.97-.44-1.28-.36-.25-1.1-.25-1.42-.44l-.53-.18c-.76-.23-1.2-.87-1.03-1.68.08-.37.32-.61.72-.72.85-.23 1.52.52 1.8 1.3.1.29.24.56.45.8a.1.1 0 0 1-.06.16c-.32.07-.57-.01-.76-.24a.24.24 0 0 1-.05-.16c.01-.3 0-.66-.23-.86h-.05l-.02.02v.03c.1.25.13.5.11.74 0 .09-.1.16-.18.14l-.38-.05a.15.15 0 0 1-.11-.2c.1-.25.15-.49.13-.73l-.01-.03-.03-.01a.05.05 0 0 0-.05.03c-.05.12-.1.25-.12.39-.05.22-.19.27-.41.16-.2-.1-.27-.26-.24-.5l.03-.04a.08.08 0 0 1 .06-.02H37a.2.2 0 0 0 .22-.25.2.2 0 0 0-.07-.1c-.12-.1-.31-.1-.42.05-.39.57 0 1.06.5 1.33.65.35 2.5.42 2.84 1.41.24.69.05 1.2-.57 1.53a.42.42 0 0 1-.13.05c-1.17.2-1.5-.76-1.94-1.73a.18.18 0 0 0-.04-.06l-.25-.26a.1.1 0 0 1 .04-.17c.3-.09.54-.04.74.14a.1.1 0 0 1 .03.06l.18 1.1a.04.04 0 0 0 .02.03.05.05 0 0 0 .04.01h.04a.04.04 0 0 0 .03-.03.04.04 0 0 0 0-.03c-.09-.3-.12-.58-.1-.84a.23.23 0 0 1 .3-.2l.23.1c.11.05.17.19.11.3-.07.16-.1.4-.07.74ZM19.14 18.23a.03.03 0 0 0-.02-.03h-.04c-.18.19-.38.33-.6.42a.26.26 0 0 1-.34-.18l-.04-.16a.27.27 0 0 1 .25-.34c.2 0 .41-.09.63-.27a.05.05 0 0 0-.02-.09h-.03l-.55.18a.24.24 0 0 1-.3-.19c-.02-.1 0-.2.05-.31.05-.14.13-.2.22-.22.1 0 .18.05.26.17.07.11.23.11.3.01.17-.23-.12-.48-.34-.47-.65.03-.82.63-.75 1.2.08.72.44 1.36.47 2.14.04.75-.4 1.48-1.18 1.5-.6.01-1.1-.45-1.1-1.09-.01-.94.77-1.4.99-2.25a.1.1 0 0 1 .06-.06.1.1 0 0 1 .1.02c.28.27.34.54.19.83l-.86.68v.01l.06.1a.01.01 0 0 0 .02 0l.67-.47a.17.17 0 0 1 .22.01c.15.15.2.33.13.55a.13.13 0 0 1-.12.1c-.25.02-.47.1-.66.25a.04.04 0 0 0-.01.05l.01.02h.03c.07 0 .2-.04.38-.08.54-.14.52.52.15.66a.13.13 0 0 1-.14-.04c-.11-.13-.2-.2-.27-.2-.16-.03-.25.16-.2.3.07.14.18.2.33.2.97-.02.88-1.14.68-1.83-.15-.49-.25-.86-.3-1.1-.18-.81.1-1.77 1.03-1.86a1.1 1.1 0 0 1 1.2 1.07c.01.35-.08.72-.3 1.02-.3.44-.51.84-.64 1.19a.11.11 0 0 1-.18.04c-.2-.2-.27-.41-.23-.65.05-.29.44-.42.63-.61.1-.11.16-.18.16-.22ZM34.17 17.72c.16 0 .29-.13.29-.29a.29.29 0 0 0-.29-.29.29.29 0 0 0-.29.3c0 .15.13.28.3.28ZM21.84 17.78c.16 0 .3-.13.3-.29a.29.29 0 0 0-.3-.3.29.29 0 0 0-.29.3c0 .16.13.29.3.29ZM40.98 19.14c-.32-.08-.47-.1-.62-.4-.22-.45-.42-.7-.15-1.1a.1.1 0 0 1 .08-.05.1.1 0 0 1 .08.04c.14.21.14.41.02.6a.24.24 0 0 0 .12.36c.3.11.47.18.54.48a.06.06 0 0 1-.01.05.06.06 0 0 1-.06.02ZM15.86 17.63c.14.3.21.44.06.73-.22.45-.28.75-.76.8a.1.1 0 0 1-.09-.05.1.1 0 0 1-.01-.09c.08-.23.23-.36.46-.37a.23.23 0 0 0 .17-.1.24.24 0 0 0 .03-.21c-.1-.3-.15-.48.04-.72a.06.06 0 0 1 .06-.02.06.06 0 0 1 .04.03ZM35.37 18.92c.16 0 .28-.13.28-.29a.29.29 0 0 0-.28-.29.29.29 0 0 0-.29.3c0 .15.13.28.29.28ZM20.66 18.96c.16 0 .28-.12.28-.28a.28.28 0 0 0-.28-.28.28.28 0 0 0-.28.28c0 .16.13.28.28.28Z" fill="#040404"/><path d="M24.84 24.6c.8-.69 2.33-1.66 3.09-.26.16.29.1.62.05.93a.1.1 0 0 0 .03.08.1.1 0 0 0 .07.04l2.17-.02a.13.13 0 0 0 .13-.15.18.18 0 0 0-.07-.1.17.17 0 0 0-.11-.04l-1.39.03a.17.17 0 0 1-.16-.1 2.77 2.77 0 0 1 .22-1.21c.24-.55.64-.71 1.1-.32.54.48.81 1.1.81 1.87l-.01.82a.26.26 0 0 1-.26.25h-8a.13.13 0 0 0-.14.12c-.1.82-.53 1.68-1.4 1.8-.06 0-.12 0-.18-.02l-.93-.36a.12.12 0 0 1-.06-.17.12.12 0 0 1 .05-.05l1.78-.8a.26.26 0 0 0 .14-.14.27.27 0 0 0 0-.21l-.4-.9a.5.5 0 0 1 .02-.46l.13-.23a.13.13 0 0 1 .13-.06.13.13 0 0 1 .11.1c.06.2.24.31.56.32a118.83 118.83 0 0 1 1.37.03.13.13 0 0 0 .09-.13v-4.58c0-.3-.05-.5-.13-.6a.12.12 0 0 1-.02-.13l.17-.32a.27.27 0 0 1 .1-.06.29.29 0 0 1 .13 0c.04 0 .08.02.12.04l.1.08a3.13 3.13 0 0 0 .8.72.07.07 0 0 1 0 .1c-.2.18-.3.43-.3.72a44.53 44.53 0 0 0 .05 3.38h.04Zm4.25-.54-.01.18a.04.04 0 0 0 .03.04h.02c.2.02.38.03.52.02.14 0 .22-.02.23-.05v-.04c0-.01-.02-.03-.05-.04a3.05 3.05 0 0 0-.68-.13h-.04l-.02.02Zm-4.22 1.33h2.35a.18.18 0 0 0 .15-.09.18.18 0 0 0 0-.18c-.27-.46-.67-.62-1.2-.48a3.63 3.63 0 0 0-1.35.68.06.06 0 0 0 .02.06l.03.01Z" fill="#168914"/><path d="M31.27 27a.05.05 0 0 0 .03-.01.05.05 0 0 0 .02-.04c-.03-2.22-.04-4.37-.01-6.24 0-.42-.12-.71.13-1.06a.21.21 0 0 1 .17-.1.21.21 0 0 1 .18.1c.15.22.38.4.67.55a.15.15 0 0 1 .08.12.15.15 0 0 1-.06.13c-.54.42-.31.86-.3 1.4 0 1.5 0 3.33-.02 5.5 0 .25-.03.44-.07.58a.1.1 0 0 1-.03.05.08.08 0 0 1-.05.02h-9.14a.25.25 0 0 1-.17-.08.26.26 0 0 1-.08-.18v-.5a.25.25 0 0 1 .07-.17.24.24 0 0 1 .17-.07h8.4Z" fill="#168914"/><path d="M41.73 21.24c-.32-.12-.47-.16-.57-.48-.16-.49-.32-.76 0-1.14a.1.1 0 0 1 .08-.03.1.1 0 0 1 .08.06c.11.22.09.43-.06.6a.25.25 0 0 0-.02.3c.02.04.05.06.09.08.28.15.45.24.48.55v.03a.06.06 0 0 1-.05.04h-.03ZM14.35 21.3a.06.06 0 0 1-.06-.02.06.06 0 0 1-.02-.05c.03-.3.2-.4.48-.53a.24.24 0 0 0 .12-.28.24.24 0 0 0-.04-.1c-.15-.17-.17-.37-.06-.6a.1.1 0 0 1 .13-.04.1.1 0 0 1 .04.03c.3.37.14.64-.03 1.11-.1.32-.25.35-.56.47Z" fill="#040404"/><path d="M35.38 27a.09.09 0 0 0 .08-.05.1.1 0 0 0 0-.1l-.29-.52a.3.3 0 0 1-.03-.29l.25-.6a.15.15 0 0 1 .12-.08.14.14 0 0 1 .13.05c.13.16.3.41.49.77.24.45.18 1.12.12 1.55 0 .07-.04.14-.09.18a.27.27 0 0 1-.18.07c-1.16 0-2.2 0-3.12.02-.2 0-.31-.13-.32-.37 0-.17 0-2.18.03-6.02a.2.2 0 0 0-.03-.12l-.1-.13a.3.3 0 0 1 .07-.42l.41-.3c.16-.13.18-.37.32-.48a.12.12 0 0 1 .19.02l.02.07v6.63c0 .03.01.06.03.08.03.03.06.04.09.04h1.8ZM27.36 22.04l.04-.01a.05.05 0 0 0-.04-.1l-1.32-.08a.13.13 0 0 1-.12-.11v-.06c.23-.6.64-1.14 1.28-1.25a.06.06 0 0 1 .05.01.05.05 0 0 1 .02.05c-.05.22-.08.34-.1.37a.66.66 0 0 1-.09.07l-.44.3a.06.06 0 0 0-.02.06.06.06 0 0 0 .06.04c.36-.04 1.28-.08 1.35.39.17 1.2-.68 1-1.56.98a2.21 2.21 0 0 1-1.39-.47.1.1 0 0 1-.03-.11.1.1 0 0 1 .1-.06c.66.06 1.4.06 2.21-.02Z" fill="#168914"/><path d="M37.04 21.83c.15 0 .28-.13.28-.3a.29.29 0 0 0-.28-.28.29.29 0 0 0-.3.29c0 .16.14.29.3.29ZM19.17 21.4c-.13-.1-.3-.08-.39.04-.08.11-.05.29.08.38.12.1.3.08.38-.04.1-.12.06-.3-.07-.39Z" fill="#040404"/><path d="M29.27 22.55a.19.19 0 0 1-.1.1.18.18 0 0 1-.16 0l-.45-.27a.22.22 0 0 1-.08-.3l.17-.3a.16.16 0 0 1 .1-.08c.23-.03.39.02.48.17.03.03.06.06.1.07.16.03.28-.02.35-.13.03-.06.09-.1.15-.11.06-.02.12-.01.18.02a9.8 9.8 0 0 1 .53.37v.08c-.04.14-.14.3-.28.46a.16.16 0 0 1-.13.05c-.24-.01-.38-.3-.61-.32-.1-.01-.18.05-.25.2Z" fill="#168914"/><path d="M14.51 22.14a.9.9 0 0 1 0 .44.05.05 0 0 1-.05.04h-.03a.6.6 0 0 1-.3-.38.6.6 0 0 1 .08-.47.05.05 0 0 1 .04-.03h.03l.02.02c.1.11.18.24.21.38ZM42.12 23.48c-.29-.17-.43-.23-.48-.56-.08-.5-.2-.78.17-1.1a.1.1 0 0 1 .13.01.1.1 0 0 1 .02.04c.08.24.02.43-.15.58a.24.24 0 0 0-.06.29l.07.08c.25.2.4.3.39.61a.06.06 0 0 1-.03.05.06.06 0 0 1-.06 0ZM39.04 26.1a.03.03 0 0 0 .03.03l.02-.01.01-.02c.07-.25.18-.47.32-.65.1-.12.27-.13.38-.02l.12.12c.12.12.09.33-.06.42a.98.98 0 0 0-.4.54.05.05 0 0 0 .02.06.05.05 0 0 0 .06 0l.39-.43c.1-.1.26-.1.36 0 .06.08.1.18.1.31.02.14-.01.24-.08.3-.08.05-.19.05-.32-.02-.1-.07-.24.01-.26.14-.03.28.34.36.52.24.55-.35.4-.96.07-1.42-.42-.58-1.05-.96-1.45-1.61-.4-.63-.39-1.48.29-1.89.51-.3 1.17-.15 1.48.4.47.81.02 1.6.25 2.43.01.07-.05.14-.12.12-.38-.1-.57-.3-.57-.62v-.01l.4-1.01h.01v-.01l-.1-.04a.01.01 0 0 0-.03 0l-.35.74a.17.17 0 0 1-.2.1c-.2-.06-.32-.2-.37-.42a.13.13 0 0 1 .05-.14c.2-.14.36-.32.45-.54v-.03a.04.04 0 0 0-.03-.03H40a3.7 3.7 0 0 0-.28.27c-.41.39-.7-.2-.46-.5a.13.13 0 0 1 .15-.04c.15.06.26.08.33.05.1-.04.13-.17.08-.27a.23.23 0 0 0-.07-.09.32.32 0 0 0-.38-.01c-.82.5-.2 1.42.31 1.91l.8.8c.55.63.78 1.6.01 2.14-.51.36-1.23.22-1.57-.34a1.7 1.7 0 0 1-.23-1.02c.05-.54.04-1-.03-1.36-.01-.08.06-.15.14-.13.27.08.44.23.52.46.1.28-.18.58-.25.84-.04.15-.05.23-.03.27ZM17.07 23.63a.03.03 0 0 0-.06-.01v.01c-.08.26-.18.47-.32.66a.25.25 0 0 1-.38.02l-.12-.12a.27.27 0 0 1 .05-.42c.18-.1.32-.29.41-.55a.05.05 0 0 0-.02-.06.05.05 0 0 0-.06 0l-.4.43c-.09.11-.26.1-.35 0a.54.54 0 0 1-.11-.3c-.01-.15.01-.25.09-.3.08-.06.18-.05.31.02.11.06.25-.02.26-.15.03-.28-.33-.36-.52-.24-.55.35-.4.96-.07 1.43.42.57 1.05.96 1.46 1.61.4.63.39 1.49-.3 1.9-.5.3-1.16.15-1.48-.4-.47-.82-.02-1.6-.24-2.45-.02-.06.04-.13.11-.11.38.09.57.3.58.62v.01l-.42 1.01v.01l.11.05h.02l.35-.75a.17.17 0 0 1 .2-.1c.2.06.33.2.38.42a.13.13 0 0 1-.05.14c-.21.14-.36.32-.46.55a.04.04 0 0 0 .04.05h.02l.29-.26c.4-.4.7.19.46.5a.13.13 0 0 1-.15.03c-.15-.06-.26-.08-.33-.05a.18.18 0 0 0-.08.07c-.06.1-.03.23.06.3.13.08.25.09.39 0 .82-.5.2-1.42-.31-1.91a17.5 17.5 0 0 1-.8-.81c-.55-.62-.79-1.59-.02-2.14a1.09 1.09 0 0 1 1.57.34c.18.3.28.66.24 1.03-.05.54-.04 1 .03 1.35a.11.11 0 0 1-.14.13c-.27-.07-.44-.22-.52-.45-.1-.28.18-.59.24-.84.04-.15.05-.24.04-.27ZM14.51 22.82a.9.9 0 0 1-.51.7.06.06 0 0 1-.08-.04c-.02-.11 0-.26.04-.45a.1.1 0 0 1 .06-.07l.43-.19h.05a.04.04 0 0 1 .01.05ZM37.73 23.06a.28.28 0 0 0-.38-.15.29.29 0 0 0-.13.4c.07.14.24.2.38.14.14-.07.2-.24.13-.39ZM18.73 23.47c.14-.1.18-.26.1-.38-.08-.12-.25-.14-.39-.05-.13.1-.18.27-.1.38.08.12.25.14.39.05ZM42.14 24.02a.06.06 0 0 1 .1.03c.07.3-.06.44-.28.68a.24.24 0 0 0 .06.37c.2.12.28.3.25.54a.1.1 0 0 1-.05.08.1.1 0 0 1-.1 0c-.41-.25-.35-.55-.36-1.06 0-.33.12-.42.38-.64ZM13.94 25.75a.06.06 0 0 1-.08 0l-.02-.04c-.06-.3.07-.43.3-.66a.24.24 0 0 0 .02-.3.24.24 0 0 0-.07-.07c-.2-.12-.28-.3-.24-.55a.1.1 0 0 1 .05-.07.1.1 0 0 1 .1 0c.4.26.33.56.33 1.06 0 .34-.13.42-.4.63ZM37.62 25.15c.16 0 .29-.13.29-.29a.29.29 0 0 0-.29-.29.29.29 0 0 0-.29.29c0 .16.13.3.3.3ZM41.84 27.97l-.28-.45a.18.18 0 0 1-.02-.13c.1-.54.05-.85.57-1.16l.03-.01a.06.06 0 0 1 .06.06c0 .3-.12.49-.35.58a.22.22 0 0 0-.12.27c0 .03.03.06.05.09.2.19.25.44.15.74l-.02.02a.05.05 0 0 1-.07-.01ZM37.48 26.83c.16 0 .28-.12.28-.28a.28.28 0 0 0-.28-.29.28.28 0 0 0-.28.29c0 .16.12.28.28.28ZM14.34 26.52c-.14-.18-.32-.27-.4-.21-.09.07-.04.26.1.44.15.18.33.28.4.21.1-.06.04-.26-.1-.44ZM18.6 26.9c.16 0 .29-.12.29-.28a.29.29 0 0 0-.29-.3.29.29 0 0 0-.28.3c0 .16.13.28.28.28ZM14.51 27.66c.09-.2.07-.4-.04-.45-.1-.05-.26.09-.34.3-.08.2-.06.4.04.44.1.05.26-.08.34-.3ZM19.04 28.51c.15 0 .28-.12.28-.28a.28.28 0 0 0-.28-.28.28.28 0 0 0-.28.28c0 .16.13.28.28.28Z" fill="#040404"/><path d="M35.16 29.21a1.19 1.19 0 0 1-.56-.43.17.17 0 0 0-.23-.06.17.17 0 0 0-.06.06c-.12.2-.28.3-.47.34a.14.14 0 0 1-.12-.03l-.38-.35a.17.17 0 0 1-.06-.16c.06-.24.52-.56.77-.41a.17.17 0 0 1 .08.1c.05.17.15.27.32.3a.1.1 0 0 0 .11-.07.84.84 0 0 1 .24-.33.28.28 0 0 1 .38.02l.39.39a.14.14 0 0 1 0 .18.14.14 0 0 1-.05.04.41.41 0 0 0-.25.35.08.08 0 0 1-.04.06.08.08 0 0 1-.07 0Z" fill="#168914"/><path d="M36.88 31.5v.04h.03l.7-.43a.2.2 0 0 1 .28.06c.07.11.09.28.06.5a.1.1 0 0 1-.1.1c-.28 0-.52.1-.74.28a.05.05 0 0 0-.02.06.05.05 0 0 0 .06.02l.6-.16c.14-.04.28.07.27.22 0 .1-.04.21-.1.36-.05.13-.12.17-.22.13a.7.7 0 0 1-.24-.18.18.18 0 0 0-.06-.05c-.13-.06-.27.06-.28.19 0 .05 0 .11.04.16.08.12.2.18.36.17.86-.06.84-.94.67-1.58-.22-.88-.61-1.8-.18-2.64.3-.6 1.24-.85 1.75-.3.43.48.34 1.27.05 1.78-.2.35-.62.76-.72 1.27a.08.08 0 0 1-.04.06.07.07 0 0 1-.07-.01.72.72 0 0 1-.29-.72c.01-.06.05-.12.1-.16.38-.3.65-.45.72-.71v-.03s0-.02-.02-.02l-.02-.01h-.03l-.38.35c-.4.38-.6-.04-.53-.4 0-.06.06-.11.12-.12.2 0 .4-.08.59-.24.05-.05-.04-.15-.1-.11-.05.03-.13.07-.25.1-.15.05-.36 0-.4-.18-.03-.2.04-.36.23-.48a.12.12 0 0 1 .14.02l.18.18c.03.03.07.05.11.05.1 0 .2-.12.22-.21a.2.2 0 0 0-.03-.13c-.08-.12-.2-.17-.38-.15-.73.07-.74.6-.75 1.2 0 .08.01.15.03.22.07.24.2.77.4 1.61.1.39.04.77-.18 1.16-.4.71-1.29.78-1.82.16-.41-.47-.3-1.23.07-1.72.28-.38.5-.77.64-1.16.03-.08.14-.1.2-.03.26.33.34.86-.13 1.05-.2.08-.38.23-.54.44ZM18.01 32.3c0-.1-.03-.29-.07-.54-.04-.25.05-.39.26-.4.11-.01.24.05.38.2a.12.12 0 0 1 .02.13c-.08.18-.12.4-.12.65 0 .05.07.06.09.02l.23-.54a.12.12 0 0 1 .1-.08c.19 0 .32.1.4.33.04.1.02.27-.12.27a.38.38 0 0 0-.24.11c-.11.1-.06.28.08.33.14.05.33-.04.39-.17.48-1-.84-1.47-1.52-1.56a7.22 7.22 0 0 1-1.1-.37 1.28 1.28 0 0 1-.84-1.06c-.16-1.02.9-1.6 1.7-1.07.29.18.56.47.72.86.14.36.34.7.6 1.01.05.07.01.16-.06.17-.96.16-.92-.6-.93-1.27a.03.03 0 0 0-.03-.03h-.02a.03.03 0 0 0-.02.03l-.03.93c0 .07-.08.13-.15.11a1 1 0 0 1-.48-.26.1.1 0 0 1-.02-.12c.13-.24.18-.49.15-.76 0-.02 0-.03-.02-.04l-.03-.01H17.27a.03.03 0 0 0-.01.03c0 .2-.06.44-.17.7-.03.07-.1.1-.17.09a.58.58 0 0 1-.42-.4.19.19 0 0 1 .14-.24l.2-.05c.17-.08.12-.32-.04-.37-.16-.05-.29-.02-.38.1-.41.44.04 1.03.46 1.25.32.17.83.33 1.55.48.45.1.84.3 1.15.64.44.46.44 1.27-.02 1.7-.33.29-.75.35-1.26.16a2.32 2.32 0 0 1-.65-.65c-.2-.43-.42-1.01-.79-1.36a.1.1 0 0 1 .03-.16c.32-.13.58-.08.76.15.05.05.07.12.08.19.02.35.08.65.17.9.01.08.13.05.11-.02ZM14.85 30.18c-.15-.3-.14-.55.03-.77a.22.22 0 0 0-.03-.3.22.22 0 0 0-.1-.05c-.24-.05-.38-.22-.43-.52v-.03l.02-.03a.06.06 0 0 1 .06 0c.57.23.56.54.75 1.07v.13l-.21.5a.05.05 0 0 1-.05.02.05.05 0 0 1-.04-.02ZM41.7 28.47a.06.06 0 0 1 .05 0 .06.06 0 0 1 .02.06c-.02.3-.18.39-.45.54a.24.24 0 0 0-.11.28c0 .03.03.06.05.09.15.17.18.36.08.58a.1.1 0 0 1-.08.06.1.1 0 0 1-.08-.03c-.32-.36-.17-.62-.03-1.1.1-.3.24-.35.54-.48Z" fill="#040404"/><path d="M33.9 29.65a.16.16 0 0 1-.04-.16l.02-.06.09-.1a1 1 0 0 1 .12-.13.68.68 0 0 1 .13-.1.3.3 0 0 1 .11-.03c.04 0 .07 0 .09.02l.44.36c.04.03.05.1.03.2-.03.09-.08.2-.16.3l-.08.1a.16.16 0 0 1-.1.06.16.16 0 0 1-.12-.04l-.52-.42Z" fill="#168914"/><path d="M36.35 29.98c.16 0 .28-.12.28-.28a.28.28 0 0 0-.28-.28.28.28 0 0 0-.27.28c0 .16.12.28.27.28ZM15.08 30.55l.5.2c.03.01.07.05.09.09.23.5.46.72.23 1.28a.06.06 0 0 1-.05.04.06.06 0 0 1-.06-.03c-.17-.24-.2-.46-.06-.67a.22.22 0 0 0-.16-.33c-.27-.04-.46-.21-.55-.52a.05.05 0 0 1 .01-.05.05.05 0 0 1 .05-.01ZM41 30.58a.06.06 0 0 1 .07.07c-.07.31-.25.37-.56.48a.24.24 0 0 0-.15.15.25.25 0 0 0 .03.22c.13.2.12.4-.02.61a.1.1 0 0 1-.09.04.1.1 0 0 1-.08-.04c-.26-.42-.06-.67.17-1.13.15-.3.3-.32.63-.4ZM35.41 31.38c.16 0 .28-.13.28-.29a.28.28 0 0 0-.28-.28.28.28 0 0 0-.28.28c0 .16.12.29.28.29ZM20.71 31.43a.28.28 0 0 0 0-.56.28.28 0 0 0-.28.28c0 .15.13.28.28.28ZM34.23 32.59c.16 0 .28-.14.28-.3a.29.29 0 0 0-.28-.29.29.29 0 0 0-.3.3c0 .16.14.29.3.29ZM21.88 32.61c.16 0 .28-.13.28-.28a.28.28 0 0 0-.28-.28.28.28 0 0 0-.28.28c0 .15.13.28.28.28ZM16.18 32.57c.33.03.48.02.67.3.28.4.51.61.32 1.05a.1.1 0 0 1-.08.06.1.1 0 0 1-.09-.03c-.16-.18-.2-.38-.1-.59a.24.24 0 0 0-.17-.33c-.31-.06-.5-.1-.61-.38a.06.06 0 0 1 0-.05.06.06 0 0 1 .06-.03ZM38.98 33.9c-.08-.32-.13-.46.06-.72.29-.4.4-.68.87-.64a.1.1 0 0 1 .08.05.1.1 0 0 1 0 .1c-.11.21-.28.3-.5.28a.23.23 0 0 0-.26.27c.04.3.07.49-.15.69a.05.05 0 0 1-.06.01s-.02 0-.02-.02l-.02-.02ZM32.85 33.55c.16 0 .28-.13.28-.28a.28.28 0 0 0-.28-.28.28.28 0 0 0-.27.28c0 .15.12.28.27.28ZM23.28 33.6c.16 0 .29-.13.29-.29a.29.29 0 0 0-.29-.28.29.29 0 0 0-.28.28c0 .16.13.29.28.29ZM35.44 35l-.73.12a.19.19 0 0 1-.21-.15c-.03-.23.02-.4.17-.53a.13.13 0 0 1 .16-.01c.14.1.36.14.65.12a.06.06 0 0 0 .02-.11c-.1-.06-.24-.1-.4-.1a.17.17 0 0 1-.12-.07c-.23-.29.04-.68.4-.52.05.02.08.07.08.12.01.22.12.31.32.28.08-.01.14-.09.14-.18.01-.18-.06-.3-.21-.38-.93-.46-1.36.69-1.53 1.39-.18.8-.37 1.75-1.19 2.07a1.06 1.06 0 0 1-1.45-.7c-.27-.83.36-1.34 1.06-1.71a7.58 7.58 0 0 0 .99-.6c.06 0 .11.04.13.1.1.44-.06.72-.5.82a155.44 155.44 0 0 1-.79.16v.05l.87-.05c.1 0 .17.08.16.17-.01.21-.1.37-.23.46a.13.13 0 0 1-.13.02c-.25-.1-.53-.14-.84-.09a.05.05 0 0 0-.05.05c0 .01 0 .03.02.04l.03.01.67.1c.12.02.19.14.15.25-.13.34-.31.46-.54.38a.1.1 0 0 1-.07-.1v-.12a.2.2 0 0 0-.26-.18c-.2.07-.27.17-.19.3.35.57 1 .45 1.31-.1.2-.33.31-.64.36-.92.2-1.1.59-2.5 2.01-2.21.53.1.81.61.71 1.16-.2 1.19-1.33 1.14-2.05 1.8a.12.12 0 0 1-.2-.07c-.09-.4.05-.66.42-.78h.09c.34.02.61-.05.81-.21a.05.05 0 0 0 .01-.06l-.02-.02h-.03ZM21.5 33.87a.03.03 0 0 0-.04.02v.04c.19.18.32.38.4.6.06.14-.02.3-.16.34l-.16.05a.26.26 0 0 1-.13 0 .27.27 0 0 1-.2-.26 1 1 0 0 0-.27-.63c-.04-.04-.1 0-.09.05l.17.55a.24.24 0 0 1-.19.3c-.09.02-.2 0-.31-.05-.13-.06-.2-.13-.21-.22-.01-.1.05-.19.17-.27.11-.06.11-.23.01-.3-.23-.17-.48.11-.47.34.02.65.63.83 1.2.77.7-.08 1.34-.44 2.1-.47.74-.02 1.47.41 1.48 1.2 0 .6-.45 1.1-1.08 1.1-.94 0-1.39-.78-2.22-1-.07-.02-.1-.1-.04-.16.26-.29.54-.35.82-.2v.01l.67.87h.01l.09-.07a.01.01 0 0 0 0-.02l-.46-.68a.17.17 0 0 1 .02-.21c.15-.15.33-.2.55-.13.05.02.09.06.09.12.02.25.1.47.24.67l.03.01a.04.04 0 0 0 .04-.01v-.03c0-.07-.03-.2-.07-.38-.14-.55.51-.52.65-.15.02.05 0 .11-.04.14-.13.11-.2.2-.2.27-.03.16.16.26.3.2.13-.07.2-.18.2-.33-.02-.98-1.13-.89-1.8-.7-.5.15-.86.25-1.1.3-.8.17-1.75-.1-1.84-1.05a1.1 1.1 0 0 1 1.08-1.2c.34-.01.7.09 1 .3.44.31.83.53 1.18.66.07.02.1.13.04.18-.2.2-.42.27-.65.23-.29-.06-.42-.45-.6-.64-.11-.1-.18-.16-.22-.16ZM29.8 34.18h-.15a.2.2 0 0 0-.2.2v.1c0 .11.09.2.2.2h.15a.2.2 0 0 0 .2-.2v-.1a.2.2 0 0 0-.2-.2ZM26.4 34.72c.14 0 .26-.12.26-.27a.27.27 0 0 0-.27-.28.27.27 0 0 0-.27.28c0 .15.12.27.27.27ZM24.8 34.28a.27.27 0 0 0 0-.55.27.27 0 0 0-.27.28c0 .15.12.27.27.27ZM19.75 30.05a.27.27 0 0 0 0-.55.27.27 0 0 0-.27.28c0 .15.13.27.27.27ZM18.47 25.22a.27.27 0 0 0 0-.55.27.27 0 0 0-.27.28c0 .15.12.27.27.27ZM19.7 20.35c.16 0 .28-.12.28-.28a.27.27 0 0 0-.27-.27.27.27 0 0 0-.27.27c0 .16.12.28.27.28ZM28.17 34.34c-.14-.07-.3-.01-.36.12s0 .29.15.36c.14.06.3 0 .36-.12.06-.13 0-.3-.15-.36ZM37.6 35.54a.11.11 0 0 1-.12.02.11.11 0 0 1-.07-.1c-.02-.17-.01-.3.01-.37a.32.32 0 0 1 .07-.12l.54-.58a.22.22 0 0 1 .2-.07l.4.06a.08.08 0 0 1 .07.06.08.08 0 0 1-.02.08c-.27.25-.5.04-.7.14-.12.05-.17.14-.16.27.02.22-.1.49-.23.6ZM18.37 34.67c.25.25.42.5.35.84a.11.11 0 0 1-.08.09.11.11 0 0 1-.11-.03l-.06-.06a.44.44 0 0 1-.13-.32l.01-.4-.04-.06-.06-.04-.4.01a.43.43 0 0 1-.32-.12l-.06-.06a.11.11 0 0 1-.03-.1.11.11 0 0 1 .09-.09c.34-.07.58.1.84.34ZM26.82 35.98l-.02.02v.04l.03.01c.25.07.46.17.64.32.12.09.13.27.03.38l-.12.12a.27.27 0 0 1-.42-.06.98.98 0 0 0-.54-.4h-.04a.05.05 0 0 0-.02.08l.43.39c.03.02.05.05.06.08.04.1.01.22-.07.28a.52.52 0 0 1-.3.11c-.14.02-.24-.01-.29-.08-.06-.09-.05-.2.02-.32.06-.11-.02-.25-.15-.26-.28-.03-.35.33-.23.52.34.56.95.4 1.4.07.58-.42.96-1.06 1.6-1.48.63-.4 1.48-.39 1.88.3.3.51.15 1.17-.39 1.5-.8.47-1.59.01-2.42.24a.1.1 0 0 1-.12-.1c.1-.39.3-.58.62-.6v.01l1.01.41h.01l.05-.1v-.02h-.01l-.74-.36a.17.17 0 0 1-.08-.08.18.18 0 0 1 0-.12c.04-.2.18-.33.4-.38.05-.01.1.01.14.06.14.2.32.35.54.45a.04.04 0 0 0 .05-.01v-.05a3.6 3.6 0 0 0-.26-.29c-.39-.41.19-.71.5-.46a.13.13 0 0 1 .03.14c-.06.16-.07.27-.05.34.05.1.18.14.28.09a.23.23 0 0 0 .08-.08c.09-.12.1-.25.02-.38-.5-.83-1.42-.2-1.9.32l-.8.8c-.62.56-1.57.8-2.12.03a1.1 1.1 0 0 1 .33-1.59c.3-.18.66-.28 1.02-.24.53.05.98.04 1.34-.03.08-.02.15.06.13.14-.07.27-.22.44-.45.52-.27.1-.58-.18-.84-.24-.14-.04-.23-.05-.26-.04ZM36.16 36.14l-.05.05-.05.39a.43.43 0 0 1-.17.3l-.06.04a.1.1 0 0 1-.11.02.1.1 0 0 1-.07-.1c-.02-.35.18-.56.46-.76.28-.2.54-.33.86-.2a.1.1 0 0 1 .07.08.11.11 0 0 1-.04.1l-.07.05a.42.42 0 0 1-.33.07 15.1 15.1 0 0 0-.38-.07c-.01 0-.03 0-.06.03ZM20.35 37.02l-.31-.31a.07.07 0 0 1-.02-.06l.03-.19a.28.28 0 0 0-.19-.3.27.27 0 0 0-.12 0c-.2.02-.38.02-.53 0a.13.13 0 0 1-.11-.13.13.13 0 0 1 .1-.13c.32-.1.6-.03.8.23l.1.07c.3.13.42.4.35.79a.06.06 0 0 1-.07.05c-.02 0-.03-.01-.03-.02ZM22.37 38.07c-.3-.08-.36-.27-.46-.58a.25.25 0 0 0-.15-.15.24.24 0 0 0-.21.02c-.2.13-.4.12-.61-.03a.1.1 0 0 1 0-.17c.43-.26.67-.05 1.12.19.3.15.31.31.39.65a.06.06 0 0 1-.05.07h-.03ZM34.83 37.04c-.21-.02-.4.04-.4.14-.02.1.15.2.36.23.22.03.4-.04.41-.14.01-.1-.15-.2-.37-.23ZM34.14 37.73c.1-.2.13-.4.05-.44-.08-.04-.23.08-.34.27-.1.2-.13.4-.05.44.08.04.23-.08.34-.27ZM22.91 38.3a.06.06 0 0 1-.04-.05.06.06 0 0 1 .02-.05c.25-.3.51-.37.78-.2.37.24.7.05.85.66a.11.11 0 0 1-.1.13h-.05a.75.75 0 0 1-.46-.45.25.25 0 0 0-.06-.09.23.23 0 0 0-.1-.05.2.2 0 0 0-.1 0 .18.18 0 0 0-.07.04c-.17.15-.39.17-.67.06ZM32.33 38.12l-.06.03-.16.35a.43.43 0 0 1-.25.23l-.08.03a.1.1 0 0 1-.14-.08v-.06c.09-.33.35-.47.67-.57.33-.11.62-.15.88.07a.11.11 0 0 1-.03.19l-.08.02a.42.42 0 0 1-.33-.03l-.34-.2-.08.02ZM25.08 38.95a.06.06 0 0 1-.03-.08c.19-.33.42-.44.7-.33.4.16.68-.07.92.47a.11.11 0 0 1-.01.12.1.1 0 0 1-.1.04.73.73 0 0 1-.52-.35.24.24 0 0 0-.07-.07.22.22 0 0 0-.1-.03h-.1a.17.17 0 0 0-.06.06c-.13.18-.34.24-.63.17ZM31.15 38.83l.01.02a.06.06 0 0 1-.03.08c-.29.1-.44 0-.7-.2a.24.24 0 0 0-.36.1c-.08.22-.25.33-.5.33a.1.1 0 0 1-.1-.09.1.1 0 0 1 0-.05c.2-.45.5-.41 1-.49.33-.04.43.07.68.3ZM28.93 39.14a.06.06 0 0 1 .01.06.06.06 0 0 1-.04.04c-.3.06-.44-.07-.67-.3a.24.24 0 0 0-.37.05c-.12.2-.3.28-.55.24a.1.1 0 0 1-.09-.1l.01-.05c.26-.42.57-.34 1.07-.34.33 0 .42.14.63.4Z" fill="#040404"/><path d="M28.88 41.92a92.57 92.57 0 0 0 2.01-.11c.02 0 .02.02.03.03v.05l-.04.03a14.2 14.2 0 0 1-3.75 1.02c-1.08.1-2.17.08-3.29-.05-4.17-.97-7.1-1.69-11.07-1.57a26.91 26.91 0 0 0-2.75.24l-.02-.02v-.03l.02-.02c.24-.16.5-.3.77-.41 1.81-.76 3.58-.94 5.64-.91 1.95.03 3.65.39 5.51.98 2.44.76 4 .77 6.94.77Z" fill="#168914"/><path d="M25.07 41.82c-.17 0-.23-.07-.2-.2 1.05-.43 2.22-.87 2.9-1 2.48-.43 4.98-.3 7.5.38.82.22 1.82.4 3.01.53a27.02 27.02 0 0 0 7.68-.32c.01.01.03.03.03.05v.05a11.63 11.63 0 0 1-6.27 1.5c-2.58-.05-5-.7-7.53-1.12-.79-.13-1.75-.2-2.9-.2-1.31 0-2.92.23-4.22.33Z" fill="#670E3F"/></svg>