<!-- by TradingView --><svg width="56" height="56" viewBox="0 0 56 56" fill="none" xmlns="http://www.w3.org/2000/svg">
<rect width="56" height="56" fill="#F0F3FA"/>
<path fill-rule="evenodd" clip-rule="evenodd" d="M25.154 30.9309C25.1139 30.9011 25.0857 30.8586 25.0742 30.8107C23.7789 26.0256 18.8722 22.1792 13.8097 24.0445C10.5304 25.2507 9.03833 29.3128 10.6575 32.3365C11.9733 34.7929 15.1338 35.7515 17.8146 35.7395C17.8572 35.7399 17.899 35.751 17.9358 35.7719C17.9727 35.7927 18.0033 35.8225 18.0248 35.8583C18.0463 35.8941 18.0579 35.9348 18.0584 35.9763C18.0589 36.0178 18.0484 36.0587 18.0278 36.095C17.0358 37.8179 15.627 39.092 13.8015 39.9175C13.7828 39.9277 13.7682 39.9439 13.7602 39.9633C13.7521 39.9827 13.7512 40.0042 13.7574 40.0242C13.7636 40.0443 13.7766 40.0616 13.7944 40.0735C13.8121 40.0853 13.8334 40.0909 13.8548 40.0892C16.2815 39.7165 18.0537 38.4902 19.1714 36.4106C19.5649 35.6812 20.7225 35.2559 21.8526 34.8408C22.5358 34.5898 23.2089 34.3425 23.6969 34.034C23.7303 34.0122 23.7696 34.0008 23.8097 34.0014C23.8498 34.002 23.8889 34.0144 23.9219 34.0372C23.955 34.06 23.9805 34.092 23.9952 34.1292C24.0099 34.1663 24.0131 34.2069 24.0043 34.2457C23.3867 36.8925 21.993 39.0641 19.8232 40.7603C19.7977 40.7813 19.7806 40.8107 19.775 40.8431C19.7694 40.8755 19.7756 40.9086 19.7927 40.9364C19.8097 40.9642 19.8363 40.9847 19.8675 40.9942C19.8987 41.0037 19.9325 41.0015 19.9626 40.9879C23.149 39.6619 24.9062 37.3346 25.2341 34.006C25.3306 33.0431 25.7161 32.3512 26.1363 31.5971C26.2338 31.4222 26.3331 31.244 26.431 31.0583C26.451 31.0189 26.4823 30.986 26.521 30.9635C26.5598 30.941 26.6044 30.93 26.6495 30.9316C26.6946 30.9333 26.7382 30.9477 26.7751 30.973C26.812 30.9983 26.8405 31.0335 26.8574 31.0743L30.2842 39.0108C30.6258 39.8017 30.7707 39.7697 30.7188 38.9149L30.3498 32.7599C30.3489 32.7362 30.3551 32.7127 30.3675 32.6923C30.3799 32.6719 30.398 32.6555 30.4196 32.6452C30.4411 32.6349 30.465 32.6312 30.4884 32.6346C30.5118 32.6379 30.5334 32.6482 30.5507 32.664C32.1548 34.078 34.0254 34.994 36.1624 35.412C36.3211 35.4434 36.4658 35.5227 36.576 35.6387C36.6863 35.7548 36.7567 35.9018 36.7773 36.0591L37.3225 40.233C37.3286 40.2832 37.3532 40.3292 37.3918 40.3624C37.4303 40.3957 37.4802 40.414 37.5321 40.414C37.5841 40.414 37.6346 40.3957 37.6745 40.3624C37.7143 40.3292 37.7407 40.2832 37.7488 40.233L38.3268 35.9672C38.3432 35.858 38.4074 35.7955 38.5194 35.7795C38.6346 35.7632 38.749 35.7472 38.8626 35.7313C41.4491 35.3693 43.6127 35.0666 45.0617 32.7479C45.917 31.3792 46.1876 29.8587 45.8733 28.1865C45.0125 23.6211 40.0156 22.6265 36.2362 24.4399C36.2067 24.454 36.1744 24.4616 36.1415 24.4623C36.1086 24.4629 36.076 24.4565 36.046 24.4436C36.0159 24.4306 35.9891 24.4115 35.9674 24.3874C35.9458 24.3633 35.9298 24.3348 35.9206 24.3041L33.043 14.4743C33.0371 14.4525 33.024 14.4331 33.0058 14.4192C32.9876 14.4052 32.9652 14.3974 32.942 14.397C32.9189 14.3965 32.8962 14.4034 32.8774 14.4167C32.8586 14.4299 32.8448 14.4487 32.838 14.4703L31.8255 17.5139C31.7882 17.6257 31.7868 17.7443 31.8214 17.8534L34.1129 25.3266C34.1538 25.4598 34.1279 25.5809 34.035 25.6901L31.8214 28.3023C31.7203 28.4221 31.6575 28.4062 31.6329 28.2544C30.7199 22.4354 28.7361 17.1177 26.7177 11.707C26.6427 11.5059 26.5676 11.3046 26.4925 11.1032C26.481 11.0736 26.4607 11.0479 26.4342 11.0296C26.4077 11.0112 26.3761 11.0009 26.3436 11.0001C26.3111 10.9992 26.279 11.0078 26.2515 11.0247C26.224 11.0417 26.2023 11.0662 26.1892 11.0952L25.1193 13.5636C25.0701 13.6781 25.0701 13.7926 25.1193 13.9072C27.3875 19.2115 29.1693 24.6662 30.4646 30.2715C30.5001 30.4206 30.4386 30.4978 30.2801 30.5031C30.2433 30.5031 29.9727 30.2155 29.9522 30.1476C29.5642 28.96 28.952 27.8949 28.1158 26.9523C27.9464 26.7605 27.8821 26.7898 27.9231 27.0401C28.2593 29.0798 28.784 31.6348 29.4972 34.705C29.5245 34.8142 29.4753 34.8768 29.3496 34.8928C29.2294 34.9114 29.1461 34.8648 29.0996 34.753C28.8852 34.2331 28.663 33.5101 28.4211 32.7227C27.858 30.8903 27.1878 28.7091 26.2589 27.9269C26.1441 27.831 26.073 27.8563 26.0457 28.0027L25.5005 30.7947C25.4929 30.8433 25.4681 30.8878 25.4304 30.9205C25.3928 30.9533 25.3446 30.9722 25.2941 30.9741C25.2437 30.976 25.1942 30.9607 25.154 30.9309ZM17.7524 26.3728C17.7419 26.5071 17.7815 26.6405 17.8638 26.7486C19.4461 28.8735 19.8861 31.302 19.1837 34.034C18.7861 35.5958 15.6421 34.4973 14.8263 33.9821C10.0098 30.9585 13.0924 23.7689 18.5935 25.075C22.1597 25.9218 24.2913 28.6378 24.1847 32.3764C24.182 32.4426 24.1641 32.5074 24.1322 32.5662C24.1002 32.6249 24.0552 32.6761 24.0002 32.7159C22.9235 33.4988 21.7279 34.0327 20.4135 34.3176C20.2277 34.3575 20.1525 34.287 20.188 34.1059C20.5856 32.0649 20.6102 27.3637 18.6713 25.9697C18.5613 25.8884 18.4248 25.8485 18.2869 25.8573C18.149 25.8662 18.0191 25.9232 17.9209 26.0179C17.8227 26.1126 17.7629 26.2386 17.7524 26.3728ZM38.2694 34.5293L36.4494 25.6541C36.4289 25.5503 36.4515 25.4429 36.5122 25.3553C36.5729 25.2677 36.6668 25.2071 36.7732 25.1868L37.716 25.0031C39.0155 24.7498 40.3657 25.0131 41.4696 25.7352C42.5735 26.4573 43.3407 27.579 43.6024 28.8535L43.6106 28.9014C43.8719 30.176 43.6062 31.4989 42.8721 32.579C42.138 33.6592 40.9954 34.4081 39.6959 34.6611L38.7531 34.8448C38.7001 34.8553 38.6454 34.8554 38.5923 34.8452C38.5392 34.835 38.4888 34.8146 38.4438 34.7852C38.3988 34.7559 38.3603 34.7182 38.3303 34.6743C38.3004 34.6303 38.2797 34.5811 38.2694 34.5293ZM35.9247 34.4135C34.4408 33.9022 33.0676 33.2005 31.805 32.3085C31.4935 32.0875 31.3883 31.7972 31.4894 31.4378C31.9895 29.6484 32.905 28.0959 34.2358 26.7805C34.2589 26.7575 34.2879 26.7409 34.3197 26.7325C34.3516 26.7241 34.3852 26.7242 34.417 26.7327C34.4489 26.7413 34.4778 26.758 34.5007 26.7812C34.5236 26.8044 34.5397 26.8331 34.5474 26.8644L36.3592 34.03C36.4576 34.4188 36.3127 34.5466 35.9247 34.4135ZM22.66 18.9479C18.5936 17.5699 18.4706 25.123 23.9676 22.7864C24.1616 22.7012 24.2395 22.7611 24.2012 22.9661C24.1517 23.2473 23.8872 23.6267 23.6532 23.9622C23.4418 24.2653 23.2554 24.5327 23.2748 24.6597C23.3022 24.8168 23.38 24.8461 23.5085 24.7475C25.7138 23.1059 25.4105 19.8826 22.66 18.9479ZM20.8727 22.0794C19.0035 19.1117 24.6357 18.5845 24.3857 21.9676C24.3748 22.122 24.2955 22.2259 24.148 22.2791C23.1396 22.6466 22.1448 22.6572 21.1638 22.3111C21.0381 22.2658 20.941 22.1886 20.8727 22.0794Z" fill="#2D8213"/>
</svg>
