<!-- by TradingView --><svg width="56" height="56" viewBox="0 0 56 56" fill="none" xmlns="http://www.w3.org/2000/svg">
<rect width="56" height="56" fill="#F0F3FA"/>
<path fill-rule="evenodd" clip-rule="evenodd" d="M42 13L27.4686 13L28.3126 15L40 15V41H31.5734L28.5538 34H26.1334L30.0314 43L42 43L42 13ZM14 43H28.4772L27.5659 41H16V15H24.2559L27.4987 22H29.8666L25.9686 13H14V43ZM17.3 26V30H18V27.3221L20.1111 30H20.7V26H20V28.6294L18.0556 26H17.3ZM31.3 26V30H32V27.3221L34.1111 30H34.6999V26H34V28.6294L32.0555 26H31.3ZM22.1657 30H21.3592L22.8983 26H23.7241L25.2966 30H24.4029L24.0598 29H22.5368L22.1657 30ZM23.3282 26.8674L23.7956 28.2297H22.8226L23.3282 26.8674ZM35 30H35.8193L36.1963 29H37.7435L38.092 30H39L37.4025 26H36.5635L35 30ZM37.4751 28.2297L37.0003 26.8674L36.4867 28.2297H37.4751ZM29.1818 27.3881H28.3743C28.3743 27.1606 28.2184 26.7868 27.3904 26.7868C26.5625 26.7868 26.2179 27.4719 26.2179 27.9992C26.2179 28.5264 26.533 29.2294 27.3904 29.2294C27.9283 29.2294 28.396 28.9136 28.6694 28.6208H27.6273V28H29.4255V30H28.7178V29.4048C28.4854 29.6684 28.0327 30 27.3904 30C25.7906 30 25.4146 28.4453 25.4146 27.9992C25.4146 27.553 25.7864 26 27.3904 26C28.6737 26 29.1818 26.9032 29.1818 27.3881ZM30 26H30.7V30H30V26Z" fill="#29156E"/>
</svg>
