<!-- by TradingView --><svg width="56" height="56" viewBox="0 0 56 56" xmlns="http://www.w3.org/2000/svg"><path fill="#F0F3FA" d="M0 0h56v56H0z"/><path d="M12.62 15.03h9.35c.47 0 .85.27 1.18.5.25.18.48.17.7.17.2 0 .47-.2.82-.47A4.92 4.92 0 0 1 27.79 14c1.5 0 2.1.37 2.52.62.22.13.39.4.6.4h8.93c.14 0 .42.09.42.43v.25c0 .14-.08.3-.42.3h-.83c-.27 0-1.01.3-1.01.97v21.64c0 .89.5 1.39 1.5 1.39 1.25 0 2.5-1.6 2.5-2.67v-3.9c0-.15.08-.43.42-.43h1.16c.14 0 .42.08.42.42v7.16c0 .14-.08.42-.42.42H29.45c-.48.28-1.7 1-3.53 1-1.6 0-2.39-.63-2.86-1-.2-.16-.34-.27-.46-.27-.17 0-.24-.08-.32 0-.1.12-.23.27-.72.27h-9.14c-.14 0-.42.07-.42-.27v-.43c0-.14.08-.42.42-.42h.41c.28 0 1.17-.17 1.17-.85V17.39c0-.2-.55-.67-1.38-.84-.2 0-.62-.17-.62-.85 0-.68.42-.67.62-.67ZM35 16.97c0-.97-.5-.97-.99-.97-.5 0-1 .03-1 1v4.5c0 .42-.67.5-1 .5-.33 0-1-.08-1-.5v-3.47c0-.78-.34-2.5-3-2.5-.83 0-2.29.68-2.29 2.71 0 1.05 1.23 3.34 2.66 6.02C30.42 28.1 33 32.33 33 35.5c0 .7-.64 2.68-1.47 3.53-.3.32.47.97.97.97 1.3 0 2.48-2 2.49-3.1.03-3.88.12-14.4 0-19.93ZM18.65 16c-1 0-1.65 1.4-1.65 1.82v9.68c0 1.02 1.23 1.5 1.65 1.5 2.66 0 3.32-3.16 3.32-5v-4c.03-2.5-2.07-4-3.32-4Zm0 14.5c-1 0-1.65.9-1.65 1.32v6.79c0 .84.25 1.39 1.5 1.39 1 0 1.5-.55 1.5-1.4v-5.18c0-.34.28-.42.42-.42h1.14c.33 0 .44.28.44.42v3.91c0 2.34 2.68 3.25 3.71 3.25a3.8 3.8 0 0 0 3.79-4.08c0-2.72-3.67-7.5-4.5-7.5-.62 0-.9 1.5-2.82 1.5h-3.53Z" fill="#293A92"/></svg>