<!-- by TradingView --><svg width="56" height="56" viewBox="0 0 56 56" xmlns="http://www.w3.org/2000/svg"><path fill="#F0F3FA" d="M0 0h56v56H0z"/><path d="M13.66 32.07c-.34.56-.2.47.01 1.05.14.47.38.85-.1 1.22-.48.39-.72.02-1.22-.1-.48-.12-.85.02-.9.48-.07.6.14.67-.52.96-1.6.7-3.07-.2-3.38-.27-.23-.05-.4-.04-.51.13-.36.76 1.81 1.55 2.57 1.62 1.1.11 2.62-.34 3.59-.62a11.96 11.96 0 0 1 3.56-.23c.76.04 1.53.1 2.37.1h.21l.24.38c1.3 2.41 3.35 5.82 6.9 5.12.4-.08.54-.2.85-.28.31-.08.5.01.86.03 3.96.22 5.94-5.05 6.36-8.43.08-.63.15-1.29.18-1.96.02-.56-.09-1.5.17-1.84l-.18-.1c-.15-2.2-.51-5.36.36-7.32-.14-.32-.2-.19-.28-.57.29.07.4.09.62-.13h-.07c-3.6 1.18-2.61-2.1-5.65-4.33a4.98 4.98 0 0 0-3.1-1.12c-.88 0-1.08.26-1.7.37-.87.14-3.82-.9-6 4.22-1.26 2.94-.95 4.56-1.3 6.94-1.53.54-1.6-.6-2.32-.43-.1.14-.78 3.35-1.62 5.1Zm9.88 6.57c-.7-.42-1.62-2.05-1.93-3.08.55-.07.17-.15 1 1.44.27.5.77 1.22.93 1.64Zm3.14-4.22.4-.28c-.05.97-.4 2.17-.75 3.06-.15.38-.21.6-.51.78-.2-.41-1.65-2.34-1.45-2.93.4-.48 1.96.31 2.31-.63Zm-3.76-7.8a19 19 0 0 1 .18-3.12c.13-1.14.41-1.65.68-2.55.88.44 2.36 3.44 2.63 4.78-.47.29-.82.61-1.53.76-.5.1-.66.04-1.1 0-.62-.07-.44.07-.86.13Zm-2.76-.35c0-1.35.22-4.13 1.05-5.2.03-.03-.71 3.66-.76 4.65-.05.99-.29 2.6-.29.55Z" fill="#3F3C3D"/><path d="M23.06 31.91c0-.28.05-.45.27-.64-.17-.17-.26-.2-.22-.5.76 0 .5.5.65.75.04.07.04-.1.2.23 0 .03-.21.87-.48 1.04-.1.07-.23.1-.34.15.14.69-.15 1-.48.42-.15-.27-.11-.35-.32-.52-.18-.16-.31-.16-.54-.24-.19-.73.2-1.74-.96-1.14.12.38.13.01.53.28-.07.49-.08.45-.55.57-.82-.77-.55-1.8.6-1.2.15-.34.52-.61.9-.64.32-.02.34.26.44.46.13.27.06.01.2.34.02.41-.6.55-.65.78-.07.33.09.33.1.36l.25-.44c0-.04.02-.05.04-.08l.36.02Zm.08-1.36c-.07-.44-.29-1.18.11-1.47.35.25.13.37.15.85.21-.15.17-.1.42.05-.02.47-.2.54-.68.57Zm-2.06-1.99c-.23.32-.07.24-.36.39-.42-.88.77-1.08 1.47-1.35.14.8-.02 1.09-.74.82l-.37.14Zm-2.3-.81c-.4.03-.25-.05-.47.03-.32.13-.04.15-.61.15-.23.02-.05-.04-.13.18l.38.1c0 .28.05.13-.06.34l.06-.03c.24-.2.34-.17.6.01.48.32.52.41-.01 1.08l-.54-.1c.13.28-.3.14.13.2 1.43.13 1.53.11 2.48-.1l.23-.04c.26-.04.12-.15.38.03.24.17.33.61.2.97H20.3l-.21.44c-.48.02-.44-.07-.72-.3l-.31.1c-.57.43-.38-.32-.79.6l-.22.52c-.05.07-.26.24-.37.34-.46-.3-.04-.49-.9-.4-.57.67-.37.78.47.83.04.18.09.46.16.6.18-.02 2.12-.7 1.62-.98-.36-.2-.61-.32-.31-.58.34-.19.09.39.62-.1l-.07-.02-.47-.27.24-.36c.53-.01.63.13.67.55.08.65-.08.46-.42.85 1.03-.32.88-.43 1.82.05-.04.66-.14.25-.72.6.15.47.34.14.28.83-.04.41-.1.56-.48.62-.33-.61.07-.24-.54-.71.03-.34.02-.18.15-.44-.63.05-.17.22-.93.05.58 1.34-.5.94-.35 1.08-.03.65-.21.34.68 1.18l-.14.53-1.5-.5c-.12-.46.05-.2.07-.67.02-.4 0-.26.06-.65.38-.1.42-.1.75-.01-.12-.43-.24-.54-.71-.58l-.3.4c-.2.38-.24.68-.7.71-.32-.4-.05-.15-.02-.6a.98.98 0 0 0-.6.05c.07.18.15.34.13.61-.98.16.28-.21-1.09-.16-.31.4-.72 1.14-1.56.92.05-.27.09-.16.23-.41-.4.1-.5.28-1.09.22.18.35.12.1.39.4l-.08.41c.42.1.34.06.78-.07.6-.17.32-.05.63-.4.34-.36.22-.15.61-.33.31-.14.27-.32.75-.11.42.3.1.34.37.78 1.1 0 .94-1.77 1.4.06 1.12.08 2.08-.1 3.1-.41.36-.12.5-.5 1.83-.5.15-.32.02-.4.32-.8.21.08.6.27.8.52l.1.12c.3-.11.36-.1.55-.28h.32c.18-.36-.08-.35.37-.46.49-.11.3.14.6.3.75.4-.11-.6 1.11-.32.3-.56-.1-.7.25-1.44.11-.26.14-.48.27-.66.22-.34.27 0 .23-.67-.14.12 0 .04-.2.15-.15.08-.19.11-.35.12-.27.01-.8-.11-1-.2-.08.52-.19.78-.73.45.03-.2.08-.37.14-.55l.05-1.02c.08-.18-.27-.21.26-.12-.75-.3-1.21.4-1.42-.23l-.07-.22c-.2-.67-.28-.25-.41-.77-.14-.5.08-.77.5-.67.19.06.19-.1.16.09.01-.26-.06-.25-.29-.37-.16-.06-.2.06-.14-.1l-.3.21c-.18.08-.1-.03-.26.18-.19.23.06.39-.74.24-.04-.4.05-1.04-.03-1.26l.04-.14c-.64.1-.17.03-.6-.23-.21.26-.46.34-.83.18-.45.62-1.12.08-1.58-.03.06.4.07 1.4-.68 1.2-.42-.3-.36-.46-.17-.81Z" fill="#EC9D2B"/><path d="M24.99 40.28c.14-.53.7-.97.81-1.1l.52-.76c.25.4-.28.62-.53 1.06l-.12.2c-.35.48-.31.46-.68.6Zm3.97-17.35c.03.55.18.36.23.8-.35.06-.39.06-.52-.25-.15-.35-.11-.08.1-.46l-.76-1.13c.17-.11.14-.08.2-.3-.5-.32-.24.1-.38-.5-.06-.21.14-.03-.42-.38.14-.38.13-.02.16-.42l-.36-.01c-.04-.12-.12-.18 0-.47-.36-.1-.3-.06-.44-.28l.16-.26c.34.11.25.04.46.37l.65 1.23.02.04.03.04.23.47.09.27.55 1.24Zm-5.2-3.67c-.3-.02-.29.05-.33-.38l.33.38Zm3.83.27c-.13-.05-.25-.08-.42-.3-.1-.15-.15-.33-.2-.53.25.13.51.56.62.83Zm-1.45-1.08c.48.06.78.28.72.8l-.39.04-.06-.43-.39-.05.12-.36Zm-2.83-.18c.85-.17.37.36-.1.57l-.27-.24.38-.04v-.29Zm2.09-.45.46.02.3.22-.02.4c-.35.04-.32-.03-.5-.33-.16 0-.15 0-.34.1l.1-.4Zm-1.8.18c-.2 0-.17.04-.36-.02-.37-.11-.12-.08-.22-.2l.49-.03.09.25Zm1.8-.18c-.32.11-.26.2-.6.2.15-.3.13-.1.2-.33-.58-.07-.03.22-.39.16-.1-.02-.05-.25.02-.33.14-.19.8-.32.77.3Zm-1.45-.61c.33-.14.38-.13.71 0-.04.3-.29.48-.53.59-.03-.33-.02-.25.15-.4-.65-.02.18.09-.55.36.07-.24.13-.33.22-.55Zm0 0c-.78.37-.17-.25-.73.41-.04-.07-.04-.15-.05-.23-.22.14-.01-.01-.12.15-.17.25-.06.28-.57.34l.37-.49c-.25.27-.64.32-.94 1 .32-.29.32-.51.78-.5-.06.64-.1.06-.28.53l.31-.19c.26-.22-.16-.17.46-.21l.13.25c-.47.18-.3.33-.77.32-2.12-.09-2.68 1.09-3.4 2.56-.08.16-.05.08-.12.27-.53 1.57-.9 3.13-.97 4.84-.03.7.08.88-.15 1.2l.2-.04c.36-1.36-.01-3.55 1.34-5.87a4.8 4.8 0 0 1 1.68-1.93c1.3-.82 2.22-.02 2.78.22.07-.4 0-.38.14-.56.73.01.12.16.26.96.16-.2.2-.73.57-.36.26.27-.1.43-.06.86.25-.08 0-.18.32-.29l.38.22c-.06.5-.22.3-.17.83.26-.38-.01-.2.34-.26.62.64.07.43.1 1.17.2-.23.11-.22.29-.25.13-.02.25.07.31.26.17.57-.25.3-.19.92.14-.04.41-.5.6.05.18.57-.21.5-.23.88.47.33-.1-.1.37 0 .2.05.34.32.17.68-.16.36-.39.46.04.66.1 1.01.35 1.55.31 1.96-.06.55.02.25.16.72.05.18.08.45.04.57-.16.53-.07-.43-.16.34-.09.78 0 .89.2.1.1.34.17.76-.13.98.08 2.43-.19 6.24-1.6 8.26-.36.5-.72.55-.87 1.03-.15.5-.27.4-.33.9-.53.09-.11-.09-.5.27l.2.26c.62-.64 1.78-.52 2.42-2.12a24.1 24.1 0 0 0 1.45-6.52c.05-.43.26-.16.06-.7-.24-.67-.03-.23.06-.6.1-.4-.2-.27-.3-.62-.09-.36.14-.54.34-.7l-.28-.24a.56.56 0 0 1-.17-.39c-.05-.41.15-.52.32-.8-.38-.26-.84-.34-.21-1.34-.47-.3-1.04-2.17-.71-2.49.32-.31-.04.1.41-.2-.1-.25-.15-.07-.28-.44-.1-.27-.03-.2-.22-.5-.02.23.15.56.2.94-.37-.02-.67-.12-.65-.54.02-.36.33-.47.5-.61-.06-.24-.36-.66-.5-.87-.02.44.25.3.12.81-1.23-.01-.08-1.11-.07-1.12l-.5-.58c.2.34.25.22.11.64-.34.03-.53-.01-.52-.41 0-.4.17-.45.42-.64l-.32-.28c-.12-.15-.1-.17-.24-.3.08.22.2.33.3.56-.03.04.08.31-.57.07-.14-.4-.07-.4 0-.8l-.57.04-.01-.74-.49.09c-.15-.32-.1-.24-.07-.6-.34.08-.27.12-.59 0l.02-.5.55.22c-.37-.57-.6-.31-.87-.72.26-.07.3-.1.56.06l.94.53c.25.21.55.88.83 1.02l.23.03c.44.12.37.43-.02.52.32.12.17.13.38.25.27.15.2-.14.46.36.09.16.1.2.14.39l-.17.1c.3.31.4-.05.7.45.16.26.08.27.03.5l-.5-.29c.04.27.18.14.36.55.06-.01.25-.21.55.15.02.02.07-.03.16.37.09.38 0 .24.05.45.09.48.48.32.47 1.09-.01.5-.03.28.1.4.22.02.36-.22.42-.3l-.48-.2c.08-.23.07-.36.24-.6.2.02.3.17.4.32a1.98 1.98 0 0 0-.5-1.22c.1-1.1-.4-.83-.57-1.75-.1-.5-.11-.4-.42-.75-.24-.28-.22-.5-.37-.9l.13.13c.77.93 1.72 3.6 2 4.66.58 2.15.76 3.87.9 6.14.6-.86-.66-6.11-1-7.18-.48-1.47-1.63-4.45-3.22-5.3.1.2.23.44.4.5-.72-.14-.26-.51-.67-.72l-.4-.08c-.15-.08-.48-.72-1.78-.68-.06.13-.07 0 0 .2Z" fill="#988B87"/><path d="M34.7 29.5c.68-.25 1.15-.86 1.4-.97l1.29.35c.2.07.08 0 .19.1l.17-.07c-.15-.24-.27-.26-.22-.57.1-.67 1.14-.86 1.73-.22-.23 1.05-.95.43-1.01 1.2 1.38-.16.91.09 1.49.2.12-.17.1-.22.15-.42l.49-.07c0-.15-.03-.1.03-.24.08-.2.27-.32.53-.4-.32-.14-.36.08-.33-.25.02-.23.26-.2.43-.2-.07-.13-.05-.13-.04-.23l.73-.38c.33-.14.14.02.32-.17l-.26-.8c-.12-.11-.15-.09-.28-.49-.54.14 0 .16-.6.22-.25-.26-.21-.05-.34-.38.22-.35.33-.23.7-.1l-.2-.4c-.72.17-.62.65-1.35.07-.2.33-.18.36-.6.32l-.17-.63c.28-.43.47.1.24-.37-.33-.1-.13.43-.54.07-.2-.17-.16-.6-.15-.87-.49.14-.92.52-1.09-.13.39-.36.79-.1.65-.47-.6.05-.08.1-.7-.15-.26.82-.9.43-1.07-.4l.66-.27-.38-.33c-.27.3-.53.53-.84.8l-.31-.35c-.15-.48.04-.77.3-1.1l-.3-.09c-.22.22-.33.2-.62.13.08.38.14.25.28.57-.56 1.26-.2.22-.93 1.2-.15.2-.24.24-.38.37.16.89.71 2.44.7 2.56-.07 1.32.18 2.88.24 3.35Z" fill="#EC9D2B"/><path d="M31.6 21.77c.31.03.25.3.33.7.08.47.3.44.21.79-.53.13-.18-.17-.6-.4l.25-.4c-.14-.11-.17-.07-.27-.26-.25-.44-.06-.34.09-.43Zm-1.5-2.11c.17-.6-.15-.46-.39-.8.04-.09.18-.16.25-.22.28.17.45.42.6.73.18.36.35.55.44.74l.34.8c.1.3.08.22.2.45.1.14.2-.06.1.3-.17.1.19.09-.2.05-.35-.03-.04-.2-.43-.36l.22-.36c-.32-.12-.3 0-.39-.23-.08-.22 0-.3.07-.42-.85-.15-.37-.53-.32-.65l-.49-.03Zm-.98-1.92c.44.12.67.31.76.77l-.39.15c-.2-.38-.21-.35-.52-.55l.15-.37Zm-.36-.67c.29.34.29.2.36.67l-.66.1c.19-.21.16-.08.2-.38-.36-.01-.13-.06-.4.07 0-.41 0-.23-.07-.33-.27.13-.11.13-.44.13l.22-.36c-.57.1-.26.52-.43.16-.02-.05-.01-.18.03-.36.32-.15.29-.11.67-.06.15.2.14.3.23.38l.3-.02Zm-1.88-.43c.01-.07-.32-.34.67-.2-.03.45.07.17-.22.45-.26.24.07.13-.33.17.06-.39.03-.08.18-.44l-.3.02Zm0 0c.02.17 0 .15-.05.3l-.16.26c.41.11.38.2.73.4l.6.31c.1.23.15.31.44.44.22.1.04-.16.31.24.18.25.17.13-.08.23.18.09.33.21.42.23.26.04.3.38.31.6l.12.2c.08.03.48-.27.58.7l-.46-.2.32.37c.18.18.16.01.36.11.3.16.4.53.2.8-.22-.21-.1-.14-.37-.25.14.31.22.16.4.6.03-.02.3-.42.64.29.24.53-.14.5.63 1.56.18-.23.4-.8.54-.15l.25 1.25c-.19.04-.17.12-.57-.16l.14.76.2-.3c.15-.17 0-.12.28-.16l.14.72c-.5-.03-.46.02-.77-.28.08.16.24.4.35.57.5-.07.03-.23.4-.09l.22.72c-.5.15-.3.04-.6-.18l.12.7c.28-.44-.09-.25.42-.38.05.08.06.06.09.25l.02.37c-.19.12-.3.14-.44.28.16.13.24.06.4.22.12.1.13.2.17.37.07.33.04.6.11.83.22-.65.1-.69-.08-1.31-.2-.66.13-.73-.09-1.4-.05-.17-.22-.47-.25-.6-.13-.44.01-.37 0-.8-.02-.57-.35-.6-.38-1.3-.06-.98-.22-.72-.43-1.25-.2-.5.03-.7-.4-1.27-.46-.63-.15-.7-.5-1.17-.36-.5-.33-.37-.57-1.13.43.37 1.05 1.78 1.27 2.29a25.06 25.06 0 0 1 1.8 8.99l-.43-.8c-.24.07-.24 0-.45.18.23.17.18.06.42.17.07.48.28.77.1 1.22-.16-.12.46-.83.5-.92.07-2.42-.56-5.56-1.3-7.72-.42-1.22-1.31-3.41-2.3-4.38-.4-.39-.84-.97-1.44-.9-.39-.31-.15-.4-.78-.6a3.08 3.08 0 0 0-1.28-.16s.12.04.04.24c-.07.16-.14.08-.26.5.14-.12.27-.27.4-.41Z" fill="#988B87"/><path d="M44.58 14.5a.9.9 0 0 1 .4-.11c-.22.46-.08.41-.55.53l.15-.43Zm2.98-1.66c-.04-.08-.09.14-.08-.28 0-.2.1-.4.25-.47.25.41.3.61-.17.75Zm-3.08 1.74-.05.05c-.6.6-.8 1.39-2.25 2.11-.67.42-1.92.72-2.35 1.28l.55-.3c.23.5-.14.3.36.66-.07.06-.12.14-.16.2.5-.13 2.51-1.2 2.94-1.52a9.8 9.8 0 0 0 2.06-2.39c-.3-.05-.03.13-.3-.17.3-.29.33-.06.44-.41.25.11.18-.06.26.12.4-.32.57-.71 1.16-1.05.52-.3 1.19-.36.68-1.13-1.6-.3-2.61 1.94-3.34 2.55Z" fill="#3F3C3D"/><path d="M25.64 28.75c.25-.3.12-.22.4-.28.35.6.04.99-.55.96-.26-.3-.3-.63.15-.68Zm-3-1.3-.04.13c.32-.2.13-.16.47-.17.16.23.03.37-.06.68.37.23 0 .1.37.2l.22-.54c-.15-.1-.23-.12-.37-.37.23-.46.22-.44.85-.36.01.67.04.87-.14 1.43-.01 1.18.6.37 1.84 2.6-.24.23.34.14.03.26l-.13.06c.23.25-.12.19.96-.15.7-.22.73-.93.66-1.86l-.4.18c.12.18.16.24.06.54a.93.93 0 0 1-.78-.29c.12-.38 0-.17.37-.37-.16-.25-.34-.66-.04-.94.25.08.16.05.38.47l.36-.11c-.6-.4.1-.27-.22-1.33a1.63 1.63 0 0 1-.7-.14c-.05-.48.11-.52.5-.6l-.4-.22c.11-.26.18-.24.23-.52l-.63.21c.22.62-.1 1.45-.62 1.14-.5-.49-.34.25-.82-.11-.25-.19-.15-.45-.22-.62-.77-.06-.29.18-1.07.12-.77-.06-.18.1-.66.67Zm-8.05 2.14c.91 1.48.86.45 2.1 1.09.51.26.32-.06.69.2.03-.18.55-2.3.57-2.36l-.06.03c-.37.03-.39.22-.76.02-.3-.17-.3-.32-.3-.44-.01-.1 0-.08.03-.16.61-.19.38.05.71.14.08-.22-.1-.16.13-.18-.15-.22-.13-.05-.06-.41l.65-.07-.18-.07-.2.04c-.35.18-1.28.32-1.76.34 0 0-.58-1.02-.64-.68l-.23.4c.3.04.15-.32.34.21-.66.89-.2.36-.47 1.15 1.04-.59.95-.2 1.07.07.14.31.1-.03.15.46-1.13.84-.93.36-1.11.03l-.27-.44-.4.63Z" fill="#EC9D2B"/><path d="m35.35 21.3.07.01.3.1c-.43.53-.23-.12-.65 1.04.03 0 .05.01.06.04l.6.36.65-.58.2-.22.23.18c0 .02.03.04.04.05l.1.1-.66.27c.17.83.81 1.22 1.08.4.61.24.1.2.69.15-.15-.32.01-.07-.25-.3l-.31-.25c.04-.57.3-.8.37-1.29-.04.03-.12.05-.18.1-.59-.24-.1-.23-.56-.2-.46.01-.1.03-.29.1-.22.06.01.1-.19-.02 0-.04.09-.12.07-.33-.03-.39-.15-.1-.04-.4l-1.33.7Zm1.33-.69c.72 0 .56.16.94.45.28.23.12-.14.25.3l.18-.2c1.28-1.83 2.12-2.1 2.53-2.58l-.33.03c-.2-.47-.28-.2-.42-.6-.24.09-2.48 2.1-3.15 2.6ZM25.6 30.48c.54.13 1.37.58 1.5-.23l-.19-.03c-.38-.04-.61.15-.93-.54-.43.06-.3-.03-.48.22l-.03-.07c-.07-.13-.2-.55-.54-.48-.4.08-.25-.06-.21.32.03.32-.02.14.17.26-.58.13-.25.05-.4-.07l-.28-1.27c-.43-.1-.65.16-.51.67.13.52.22.1.42.77l.06.22c.2.62.67-.07 1.42.23Z" fill="#3F3C3D"/><path d="M41.8 26.36a2.43 2.43 0 0 0-.85-1.28c-.38.16-.46.47-.93.27-.37-.15-.45-.4-.67-.73a5.37 5.37 0 0 0-1.3-1.42c.15.36-.25.11-.64.47.17.65.6.27 1.1.13-.02.28-.06.7.14.87.4.36.2-.17.54-.07.23.47.04-.06-.24.37l.17.63c.1 0 .29.02.36-.01.17-.08 0 .04.11-.1l.13-.21c.73.58.63.1 1.35-.06l.2.39c-.37-.13-.48-.25-.7.1.13.33.09.12.34.38.6-.06.06-.08.6-.22.13.4.16.38.28.49Zm-.76 1.57c.2.08.2.1.4.15l-.21.27c-.07-.1-.05-.04-.13-.2-.03-.07-.04-.15-.06-.22Zm0 0c-.17.02-.4-.02-.43.21-.03.33 0 .11.33.24-.27.09-.45.22-.53.4-.06.14-.03.1-.03.25l-.49.07-.05.22c-.07.2-.02.08-.1.2-.58-.11-.11-.36-1.5-.2.18.23.49.4.77.45 1.2.17 1.31-.81 2-1.37.27.1.16.03.4.28l.29.28a2.7 2.7 0 0 0-.26-.42l.26-.05.1-.13c-.1-.3-.04-.1-.17-.27-.36-.46.01.31-.1-.1a.76.76 0 0 1 .56-.41c0 .38-.03.18-.12.56.34-.01.27-.03.47.08-.06-.28-.1-.26-.17-.5-.1-.35-.13-1-.48-1.36l.26.8c-.18.19 0 .03-.32.17l-.73.38c0 .1-.03.1.04.22Zm.66 1.03c.1.35.32.55.5.89.18.35.27.57.54.75.74.5 1.36-.03 1.25-.97-.39-.32-.48-.15-.88-.6l-.67-.81.03.36c.25.13.28.12.4.37-.25.18-.36.08-.58.4l.34.12c.28-.16.08-.1.37-.3.43.19.62.44.63.43.01-.02.04.05.06.07-.82 0-.74.03-1.33.31-.1-.2-.21-.35-.28-.58-.09-.3.02-.48-.38-.44Z" fill="#3F3C3D"/><path d="M20.87 27c.18-.27.15-.65.16-.97.01-.34.04-.66.09-1 .07-.66.16-1.32.33-1.9.76-2.49.48-1.36 1.4-3.08-.34-.07-.38-.1-.64.13-.21.18-.23.4-.3.6l-.03.08-.03.07-.22.63a16.7 16.7 0 0 0-.76 5.44Z" fill="#988B87"/><path d="m37.58 28.98.16.11a2.87 2.87 0 0 0 .5.24c.07-.78.79-.16 1.02-1.21-.6-.64-1.62-.45-1.73.22-.05.31.07.33.22.57l-.17.07Zm-1.64-3.18c-.37.23-.36 0-.36 0 .09-.1-.12-.14.15-.16.23 0 .18.13.2.17Zm.29.57c.12-.44.32-.4.2-.78-.05-.16-.2-.4-.38-.48a.45.45 0 0 0-.2-.03c-.35.02-.08 0-.39.18-.26.14-.84.43-.73.84.36.5.7.35 1.5.27Z" fill="#3F3C3D"/><path d="M42.25 28.73c.3.18.3.07.08.38-.06-.06-.15.1-.13-.26l.02-.06c0-.01.04-.04.03-.06Zm-.55-.24c.2-.14.25-.24.5-.09-.06.46.06.26-.32.32-.29-.13-.1.05-.18-.23Zm0 0-.26.05c.1.15.16.23.26.42.4-.04.29.13.38.44.07.23.18.38.28.58.59-.28.51-.3 1.33-.3-.02-.03-.05-.1-.06-.08 0 0-.2-.24-.63-.42-.3.19-.1.13-.37.29l-.34-.12c.22-.32.33-.22.59-.4-.13-.25-.16-.24-.41-.37l-.03-.36c-.2-.1-.13-.09-.47-.08.1-.38.11-.18.12-.56-.28.07-.4.15-.55.4.1.42-.27-.35.09.1.13.18.08-.02.17.28l-.1.13Zm-29.52 8.06c-.1-.57-.26-.05-.26-.53 0-.34.11-.22.22-.45-.29.03-.72.14-.88.34 0 .02-.05.15-.11.24-.19-.12-.08-.06-.16-.16-.17-.2.05-.19-.86.04.33.24.28.27.2.74l1.85-.22Z" fill="#EC9D2B"/><path d="M24.6 28.54c.06-.15.02-.1.09-.27.14-.39-.03-.18.24-.31.4.3.32.72-.34.58Zm-.53-.23c.23.12.3.1.3.37.09.39-.14.1.16.3.08.06.2.06.28.05.3-.07.65-.4.8-.72l-.4-.8c-.34-.19-.87.25-1.12.4l-.02.4ZM20.8 33.4c.1.28.54.83.78.93.43-.4.26-.09.21-.66-.05-.64.26-.4.12-.8-.21-.59-.73.08-.84.21l-.27.32Zm14.1-3.97c.55-.17.88-.63 1.2-.77.4-.18.72.35 1.48.32-.1-.1.02-.03-.19-.1l-1.3-.35-.08-.52c-.33.07-.25.16-.32.27l-.05.14c-.21-.3-.15-.37-.66-.41-.06.46-.12.91.18 1.2-.31.15-.2.13-.26.22Z" fill="#3F3C3D"/><path d="M36.59 28.47c.42 0 .2-.1.72-.06 0-.9-.29-1.7-1.13-1.03.02.19.3.94.4 1.09Zm.27-2.84-.11 1c.08.1.72.74.88.24.11-.34.04-.32.04-.41 0-.08.03-.33.01-.47-.05-.34-.04-.3-.82-.36Zm1.11 1.47c.24.19.72.51 1.05.53l.38-.48c.01-.03.03-.03.04-.05-.71-.9-1.4-.78-1.47 0Zm-14.55 7.43c.48-.17.18-.25.56-.43.33-.16.4-.01.81-.08.14-.34.14-.44.09-.84-.37-.05-.64.23-1 .38-.51.22-.59.44-.46.97Zm11.53-9.87c.02-.26.02-.77-.09-.95-.32-.57-1.25-.26-.7.8.15.28.51.18.79.15Z" fill="#3F3C3D"/><path d="M13.98 33.23c.16-.08.25-.1.44-.2l-.09-.64c-.33.11-.2.05-.31.44-.09.3-.11.17-.16.48.24.32.57.64 1.2.57.13-.16.16-.31.25-.41.23-.25.3-.07.35-.21 0-.03.04-.03.09-.07l-.51-.48-.43.26c.01.44.13.13.18.64-.56.13-.76 0-1.01-.38Z" fill="#EC9D2B"/><path d="M21.68 29.31c.01 1.08.94 1.53 1.02.48-.3-.17-.3-.14-.55 0 .1-.46.08-.23.2-.3.3-.17.25.04.36-.26-.21-.28-.35-.24-.75-.24l-.28.32Z" fill="#3F3C3D"/><path d="M18.92 25c.46-.76-.08-.9.55-1.9.08-.12.13-.23.18-.33.15-.3.21-.43.23-.77-.86.42-1.08 2-.96 3Zm14.4 9.7-.28.06c-.02.38 0 .3.12.59-.12.05-.18.03-.32.1-.04.21-.06.44-.09.66-.14.32-.25.22-.1.63-.16.13-.31.06-.41.33-.14.35-.04.39.23.5.14-.3.05-.34.25-.68.35-.57.5-1.28.73-1.91l-.13-.29ZM21.89 24c.06-.09.12-.18.16-.3.11-.3.04-.84.2-1.26.22-.58.54-.57.6-1.44-.91.7-1.06 1.9-.96 3Z" fill="#988B87"/><path d="M19.63 29.23c.05-.1.03-.13.13-.23.14-.14.06-.06.28-.13v.44l-.4-.08Zm-.24-.6c-.04.26 0 .26 0 .43-.04.34.02-.36-.04.17-.07.57.52.36.58.35.51-.07.42-.1.46-.52l.01-.16c.02-.62-.8-.4-1.01-.27Zm6.54 5.31c-.16-.14-.22-.14-.4-.32.15-.23.6-.23.4.32Zm-.74-.65c-.07.38.05.65.17.98.51-.02.33-.11.84-.07.23-.35.19-.58-.18-1.04l-.83.13Zm9.94-9.15.72.48c.37-.38.32-.78 0-1.24-.52-.1-.7.3-.73.76Zm1.15.76.39.06c.14-.2.52-.78.43-1-.17-.2-.62-.64-.76-.17-.07.23.07.25 0 .58-.09.37-.17.07-.06.53Zm-9.91 7.54c-.1.4.1.22-.33.36.06-.4-.1-.23.33-.36Zm-.62-.15c-.14.3-.61.53.26.68.51.09.8-.15.85-.59-.27-.24-.67-.14-1.1-.1Zm14.27-6.39c-.88.05-.98-.35-1 .1-.03.37-.02.03.04.2.23.62.52.56.92.46l.04-.76Zm-20.67 8.24-.08.16c-.34-.1-.2-.1-.53 0 .04 1.07 1.35.77 1.07-.15h-.46Zm19.36-8.24c.14-.33.09-.78-.04-1.07-.55-.08-.54.04-.67.51.13.36.28.59.71.56Zm-16.67 7.6c-.2.4.08.9.57.98.05 0 .78-.57 0-.82l-.22-.07c-.28-.11-.08-.17-.35-.1Z" fill="#3F3C3D"/><path d="M37.78 19.78c0 .02-.03.04-.04.05-.2.28-.16.1-.24.47.6-.05.71-.23 1.25-.2-.07-.5-.12-.46-.27-.78-.45.2-.32.25-.7.46Z" fill="#EC9D2B"/><path d="M29.87 28.03c.2.4.03-.01.43.28 0 0 .46 1.17-.03 1.49l-.12.08-.13.1c.62.26.42.2.6 1.06-.01-.02.01-.08.02-.07 0 0 .22-.29.1-.64-.1-.3-.28-.32-.21-.8.17-1.17.04-.68-.15-1.64l-.31.04c-.18.06-.1.03-.2.1Z" fill="#988B87"/><path d="m19.42 35.74.7.09c.11-.27.45-.88-.1-.85-.42.02-.77.3-.6.76Zm17.65-10.71c.3.16.42.15.72.05l.07-.12.09-.21c.07-.28.02-.31-.07-.47-.33-.06-.93.27-.8.75Z" fill="#3F3C3D"/><path d="M37.87 21.36c-.13-.44.03-.07-.25-.3-.38-.3-.21-.46-.94-.45-.11.3.01.01.04.4.02.2-.07.3-.07.33.2.12-.03.08.2.01.18-.06-.18-.08.28-.1.45-.02-.03-.03.56.22.06-.06.14-.08.18-.1Z" fill="#EC9D2B"/><path d="M17.9 28.55c.1-.21.05-.06.05-.34l-.38-.1c-.33-.09-.1-.33-.71-.14-.02.08-.04.06-.03.16.01.12 0 .27.3.44.37.2.4.01.76-.02Z" fill="#3F3C3D"/><path d="m33.21 21.98.27.76.5.02c-.19-.77-.04-.71-.17-1.03-.1-.04.02-.14-.28.02-.09.04-.26.19-.32.23Zm10.51-6.28c.29.21.2.28.77.27.14-.17.33-.39.44-.6l-.9-.06-.31.39ZM14.08 31.07c.47-.02.5-.05 1.2.32-.06-.7-.04-.3-.46-.63-.19-.15-.1-.18-.27-.25-.24-.1-.1.07-.34-.06l-.13.62Z" fill="#EC9D2B"/><path d="M25.58 27.95c.23.15.45.33.75.37l.26-.3c-.1-.3-.26-.48-.73-.47l-.28.4Zm-5.12 7.43.48.14c.11-.29.2-.4.14-.78-.6-.48-.6-.02-.62.64Zm3.94-3.88c-.14-.5-.11-.08-.34-.5.4.08.33.14.62-.05-.15-.35-.16-.34-.59-.33-.27.38-.61 1.18.3.87Z" fill="#3F3C3D"/><path d="M15.79 31.05c-.26.26-.25.28-.13.64l1.08-.32c.2-.06.1-.04.2-.1-.41-.3-.27-.1-.62-.06-.45.07-.17-.16-.53-.16Zm3.27-.23c.2-.44.52-.4.56-1.03l-.77.1c.07.32.07.7.21.93ZM38.8 18.95c.01.01.04 0 .05.04.05.13.05.02.13.06.43.2.1 0 .46.34l.35-.35c-.02-.02-.04-.08-.05-.06l-.19-.22c-.2-.17-.23-.14-.41-.21-.1.13-.18.22-.35.4Z" fill="#EC9D2B"/><path d="M33.32 34.7c.38.06.08.03.2-.1-.01-.56.11-.62.2-1.1l-.1-.19c-.16.03-.39 0-.35.24.03.13.18.25.23.41l-.33.05c.01.3.08.5.15.68Zm-3.46 2.4c-.2.1-.05.09-.34.02l.15.82.55-1.15c.08-.4-.08-.3-.31-.37l-.05.69Z" fill="#988B87"/><path d="M30.61 35.07c-.57-.1-.14-.05-.3.1.05.38.11.49-.22.64-.11.48-.17.37.15.68.18-.24.1-.35.24-.71.12-.3.2-.46.13-.71Z" fill="#988B87"/><path d="M17.65 29.33c-.31-.26-.38-.44-.73-.48-.07.18-.05.14-.08.38-.05.33.02.42.37.31.19-.05.17-.05.36-.03l.08-.18Z" fill="#3F3C3D"/><path d="M39.83 18.02c.14.38.21.12.42.59l.33-.03c.04-.06.09-.14.16-.2-.5-.35-.13-.16-.36-.65l-.55.29Z" fill="#EC9D2B"/><path d="M21.4 28.6c-.35.38-.43-.05-.39.54.3.2.23.14.6.11.1-.22.17-.27.15-.57l-.36-.09Z" fill="#3F3C3D"/><path d="M30.5 31.7c0 .01-.03.03-.02.06l.01.16c.19.31 0-.24.24.28-.15.31-.42.44.16.57.17-.25.1-.03.1-.35.02-.5-.02-.8-.49-.73Zm2.93 0c.05.55-.11-.03-.1.59l.34.19c.17-.46 0-.28.05-.6.05-.49-.07-.54-.52-.52.05.32.14.21.23.33Z" fill="#988B87"/><path d="m41.77 17-.47.26c.08.08.02.07.15.16.28.21.4.09.5-.03.03-.05.06-.1.1-.13.27-.22.22.03.3-.44l-.58.18Z" fill="#EC9D2B"/><path d="M29.16 37.86c-.45.4-.4.07-.33.55l.47.16c.03-.37.08-.12-.14-.44.07-.1.17.05.17-.47 0-.16-.05-.37-.11-.5-.12.19-.04.4-.06.7Z" fill="#988B87"/><path d="M37.63 27.14c-.18-.07-.04-.03-.26-.07-.1.6.1.76.7.52-.05-.24.09-.22-.44-.45Zm-19.71 5.71c.2-.09.24-.13.4-.29.2-.2.2-.14.12-.48-.43-.1-.64.31-.52.77Zm3.47 1.91c.02.38-.05.19.13.46.31-.02.54-.36.5-.68-.32.01-.37.1-.63.22Zm19.45-8.21c.1.82.75.14.6-.23-.3-.02-.42.03-.6.23Zm-.64.32c.38-.1.69-.61.43-.73-.1-.04-.7.19-.43.73ZM26.89 16.64l.3-.02c-.16.36-.13.05-.19.44.4-.03.07.07.33-.17.3-.28.2 0 .22-.45-.98-.14-.66.13-.66.2Zm13.24 11c.33-.04.66-.4.54-.72-.4 0-.6.25-.54.72Zm-15.57 3.92c.4-.02.58-.12.53-.54l-.25-.1c-.2.12-.22 0-.28.64Z" fill="#3F3C3D"/><path d="m21.94 31.54.43.07c.14-.31.17-.3.07-.61-.46 0-.15-.13-.34.13l-.16.41Z" fill="#EC9D2B"/><path d="M24 32.94c.67.05.5-.46.1-.65-.2.27-.17.36-.1.65Z" fill="#3F3C3D"/><path d="m30.61 35.07.17-.06.03-.7h-.35c-.1.33.04.53.15.76Z" fill="#988B87"/><path d="M47.56 12.84c.48-.14.42-.34.17-.75-.16.07-.25.27-.25.47 0 .42.04.2.08.28Z" fill="#EC9D2B"/><path d="M24.56 32.84c.4-.03.61-.1.53-.52-.4-.04-.55.09-.53.52Zm-4.47-4.94c.03.23 0 .43.35.36.28-.06.26-.18.2-.49l-.55.13Zm4.33 3.97-.03.4c.5 0 .46 0 .59-.26 0 0-.02-.35-.56-.14Zm-6.74-1.88c.18-.2 0-.49-.43-.34-.2.39.18.6.43.34Z" fill="#3F3C3D"/><path d="M29.56 26.45c.36-.05.28.04.41-.27-1.2-.47-.4-.4-.94-.73l.26.46c.13.22.16.32.27.54Z" fill="#988B87"/><path d="M45.58 14.67c.29-.17.25-.19.4-.46-.08-.18-.01 0-.26-.12-.11.35-.15.12-.44.41.27.3 0 .12.3.17Z" fill="#EC9D2B"/><path d="M30.9 33.62c.1-.13.16.27.12-.31-.03-.47-.06-.22-.22-.33-.14.2-.2-.32-.12.32.02.21.15.26.21.32Z" fill="#988B87"/><path d="M38.15 25.92c-.02-.1-.12-.23-.16-.29-.17.1-.2.06-.14.37.07.35.03.22.21.39.05-.06.2-.07.1-.47Z" fill="#3F3C3D"/><path d="M33.62 33.31c.35.08.07.05.18-.1-.06-.45.06-.43-.3-.56 0 0-.14 0-.07.35l.19.31Z" fill="#988B87"/><path d="M14.06 34.58c-.18-.13.03-.1-.3-.12l.01.42c.32.07.34.12.6-.09l-.31-.2Z" fill="#EC9D2B"/><path d="M31.74 24.43c.32.13.07 0 .18.17l.07-.11.04-.05.28-.3-.5-.2c-.01.26-.03.27-.07.5Zm-.94 9.81c.24-.34.3-.43-.1-.61-.13.13-.2.08-.16.3.02.12.19.25.26.31Z" fill="#988B87"/><path d="m17.86 30.73.36.1.32-.93c-.01.02-.04.03-.05.08l-.27.36c-.17.16-.24.14-.36.39Z" fill="#EC9D2B"/><path d="M34.86 23.24s.06.09.26.02c.43-.13.13.1.25-.27-.32-.15-.58-.15-.51.25Zm6.84 5.26c.08.27-.1.1.18.22.38-.06.26.14.32-.32-.25-.15-.3-.05-.5.1Zm-2.16.66c.25-.05.18 0 .33-.17.1-.12.09-.18.13-.32-.45-.04-.42.03-.46.49Z" fill="#3F3C3D"/><path d="M23.06 31.91c.15.31-.01.25.2.49.24-.28.21-.19.32-.52l-.52.03Z" fill="#EC9D2B"/><path d="M40.4 28.22c0-.19-.03-.13-.07-.23-.4.01-.43.33-.03.53.11-.18.08.26.1-.3Z" fill="#3F3C3D"/><path d="m44.58 14.5-.15.42c.47-.12.33-.07.54-.53a.9.9 0 0 0-.39.1Z" fill="#EC9D2B"/><path d="M36.69 26.27c-.6.06-.44.41-.02.54l.02-.54Zm.17-.64c0-.6-.05-.42-.1-.51-.54.15-.28.44.1.5Zm2.54 2.1c.23.04.05.06.33.02.17-.02.13-.05.22-.1-.2-.4-.43-.33-.56.08Z" fill="#3F3C3D"/><path d="M15.53 29.42c.55.07.27 0 .4-.1l.02-.36c-.33.05-.11-.1-.28.13l-.14.33Zm5.14.55c.17.2.24.2.42.36.2-.56-.24-.56-.42-.36Zm-1.04.47c.13.09-.04.06.2.09.08 0 .2-.02.28-.04-.05-.22.01-.29-.2-.31-.15-.02-.23.12-.28.26Zm-1.57-1.3c.34.23.38.1.45-.18-.04-.03-.06-.15-.3-.04-.34.16-.1 0-.15.22Zm-3.36 3c.29.2.27.22.56.06-.08-.11.1-.11-.21-.17-.49-.09-.33.09-.36.11Zm-2.25 4.09c.37-.49.02-.44 0-.47-.16.1-.16-.15-.17.23-.01.25.06.15.17.24Zm7.18-7 .41.08v-.44c-.22.07-.14-.01-.28.13-.1.1-.08.12-.13.23Z" fill="#EC9D2B"/><path d="m26.89 38.3.27-.53c-.31.02-.18-.1-.3.15-.11.23 0 .3.03.37Zm13.13-12.4.35-.02c-.07-.26-.06-.22-.36-.3v.32Zm-.28 2.34c-.13-.26.07-.15-.35-.28 0 .38.02.36.35.28Z" fill="#3F3C3D"/><path d="M41.04 27.93c.02.07.03.15.06.22.08.16.06.1.13.2l.21-.27c-.2-.06-.2-.07-.4-.15Zm-5.46-2.13s-.01.23.36 0c-.03-.03.02-.17-.2-.16-.28.02-.07.07-.16.17Z" fill="#EC9D2B"/><path d="m42.25 28.73-.03.06-.02.06c-.02.35.07.2.13.26.22-.31.21-.2-.08-.38Z" fill="#3F3C3D"/><path d="M38.04 28.4c.35.4.28.11.33.1-.11-.23.15-.05-.13-.16-.33-.13-.15.04-.2.06Zm-19.26-.65.67-.54c-.3.1-.52.34-.67.54Z" fill="#EC9D2B"/></svg>