<!-- by TradingView --><svg width="56" height="56" viewBox="0 0 56 56" xmlns="http://www.w3.org/2000/svg"><path fill="#F0F3FA" d="M0 0h56v56H0z"/><path fill-rule="evenodd" d="M4.02 25.32V25h3.6c.62.05 1.87.49 1.87 1.88 0 1.14-.67 1.69-1.54 1.93l1.6 2.58c.1.15.26.25.45.25V32H8.36l-1.7-3.02H5.63v2.23c0 .24.18.44.4.44V32H4v-.35h.02c.24 0 .44-.21.44-.48V25.8c0-.26-.2-.47-.44-.47Zm3.14.54H5.62v2.32h1.54c.59 0 1.07-.52 1.07-1.16 0-.64-.48-1.16-1.07-1.16Zm2.89 1.43v1.04h.37l.13-.22a1.8 1.8 0 0 1 1.09-.38.99.99 0 0 1 1.06.91c-1.48 0-3.03.57-3.03 1.75 0 1.17.72 1.61 1.63 1.61.72 0 1.23-.45 1.4-.68V32h3.07v-.36h-.17a.25.25 0 0 1-.25-.26v-3.49h.97v-.65h-.97v-1.08c0-.14.05-.41.39-.41.41 0 .58.59.58.59h.38v-.95a1.09 1.09 0 0 0-.07-.05h.13c.13 0 .23.1.23.23v5.82c0 .13-.1.24-.23.24h-.16V32h2.03v-.37h-.1a.23.23 0 0 1-.22-.24v-3.22c.18-.24.42-.4.71-.4.75 0 .96.66.98 1v2.51c0 .2-.17.36-.36.36V32h1.77v-.36a.3.3 0 0 1-.3-.3v-.3c.23.69.83.96 1.54.96.72 0 1.23-.45 1.4-.68V32h1.39v-.35c-.18 0-.24-.13-.24-.2v-2.47c0-1.93-1.23-1.98-2.02-1.98-.64 0-1.45.2-1.78.3v1.03h.37l.13-.22c.14-.13.57-.38 1.09-.38a.99.99 0 0 1 1.06.91c-1.27 0-2.58.42-2.94 1.27v-1.08c0-1.22-.58-1.83-1.54-1.83-.51 0-.96.22-1.26.44V25h-1.88v.2a1.48 1.48 0 0 0-2 .49c-.06.13-.19.5-.19.92v.63h-.51v.65h.51v3.49c0 .14-.11.26-.25.26a.21.21 0 0 1-.14-.18v-2.48c0-1.93-1.23-1.98-2.02-1.98-.64 0-1.45.2-1.78.3Zm2.64 2.7v-.72c-1.3 0-1.88.77-1.83 1.16 0 .32.04.73.74.73.9 0 1.1-.78 1.1-1.16Zm11.35-.72V30c.01.38-.2 1.16-1.1 1.16-.69 0-.74-.4-.74-.73-.04-.4.54-1.16 1.84-1.16Zm1.3-2.27v.35h.33c.12 0 .22.1.22.24v3.79c0 .13-.1.24-.22.24h-.16V32h1.82v-.38h-.1a.24.24 0 0 1-.23-.24v-2.81c.2-.42.53-.8.99-.8.77 0 1 .66 1 1v2.5c0 .2-.16.37-.37.37V32h1.85v-.36a.31.31 0 0 1-.31-.3v-2.51c0-1.22-.6-1.83-1.6-1.83-.7 0-1.27.37-1.56.64V27h-1.66Z"/><path fill-rule="evenodd" d="M32.12 32h-1.88v-.38h.06c.23 0 .43-.18.46-.41l.73-5.78h-.43V25h2.16l1.1 3.35 1-3.35h2.23v.43h-.42l.79 5.87c.02.18.18.32.36.32V32H36.2v-.38c.23 0 .4-.2.38-.44l-.63-5.06-1.4 4.3h-.82l-1.35-4.3-.68 5.05a.4.4 0 0 0 .38.45h.04V32Zm6.17-3.67v-1.04a7.7 7.7 0 0 1 1.83-.29c.81 0 2.07.05 2.07 1.98v2.48c0 .06.06.2.25.2V32H41v-.68c-.17.23-.69.68-1.43.68-.93 0-1.67-.44-1.67-1.61 0-1.18 1.58-1.75 3.1-1.75-.01-.3-.24-.9-1.08-.9-.53 0-.97.24-1.12.37l-.13.22h-.38Zm2.71.94V30c.01.38-.2 1.16-1.12 1.16-.72 0-.76-.4-.76-.73-.05-.4.55-1.16 1.88-1.16Zm3.49-.97V27h3.71v.68l-2.36 3.46H47c.25-.02.78-.18.83-.66h.36a3.17 3.17 0 0 1-.19-.9c0-.27.05-2.58 1.96-2.58 1.53 0 1.94 1.56 1.96 2.34H49.1c0 1.2.57 1.88 1.47 1.88.71 0 1.01-.5 1.07-.76H52v1.13a3.8 3.8 0 0 1-1.76.41c-1.2 0-1.78-.8-2.04-1.5V32h-3.9v-.74l2.32-3.45H45.6c-.25 0-.76.11-.74.5h-.37Zm4.64.39h1.66c-.02-.34-.2-1-.78-1-.7 0-.88.84-.88 1Zm-5.06-2.88c0 .45-.37.81-.82.81a.82.82 0 0 1-.83-.8c0-.46.37-.82.83-.82.45 0 .82.36.82.81ZM42.5 27v.38h.03c.2 0 .36.17.36.38v3.52c0 .2-.16.38-.36.38h-.03V32H44v-5h-1.5Z" fill="#1F1A17"/><path d="M42.84 24.55a1.34 1.34 0 0 0-.95 1.55c-3.26-1.84-3.77-4.78-3.62-6.02.29 1.47 4.57 4.39 4.57 4.47Zm1.59 1.11c0-.62-.52-.98-.77-1.08.18-.36 1.47-1.93 2.08-2.67.17-.2.56-.7.82-1.18.33-.59.5-2.85.52-3.03.03-.18.05-.35.13-.35.06 0 .06.06.06.08 0 1.23.32 3.14.32 3.9a3.3 3.3 0 0 1-.94 2.12c-.4.44-1.65 1.66-2.22 2.21Z" fill="#006938"/><path d="M42.23 22c.32.82.63 1 .74 1 .16 0 .52-.2.76-.95.75.07 2.26-.62 2.26-3.98.05-.7-.03-2.23-.7-2.8a7.57 7.57 0 0 0-2.32-.27c-1.3 0-2.11.18-2.35.27-.2.08-.62.75-.62 2.8 0 2.56.8 3.93 2.23 3.93Z" fill="#EC8E2E"/><path opacity=".5" d="M41.5 21.25c.26.49 1.05.4 1.41.29 2.12.65 2.37-1.5 2.46-2.4.08-.9-.26-1.28-.69-1.28-.42 0-.82.12-1.62.12-.8 0-.73-.3-1.57-.12-.83.17-.34 2.77 0 3.39Z" fill="#fff"/><path opacity=".5" d="M42.41 18.43c.27.14.53.18.63.18 1.03-.45 1.61-.34 1.76 0 .16.35-.39 1.09-.39 1.19-.29 1.64-1.1 1.82-1.76 1.66-.66-.17-.8-1.05-.89-1.65v-.01c-.1-.6-.4-.96-.36-1.19.05-.22.68-.35 1.01-.18Z" fill="#fff"/><path opacity=".5" d="M42.86 21.5a1.82 1.82 0 0 1-.26-.8 2.2 2.2 0 0 0-.25-.7c-.11-.24-.22-.46-.14-.57.1-.17.4 0 .63.13l.15.08c.14.07.34-.14.53-.33.15-.15.29-.3.38-.3.21 0 .3.29.07.63a3.7 3.7 0 0 0-.5 1.34c-.04.32-.13.45-.38.5-.02.14-.07.32-.14.32s-.08-.2-.07-.3h-.02Z" fill="#fff"/></svg>