<!-- by TradingView --><svg width="56" height="56" viewBox="0 0 56 56" fill="none" xmlns="http://www.w3.org/2000/svg">
<rect width="56" height="56" fill="#F0F3FA"/>
<path d="M12.301 28.3511C12.1006 28.1821 11.932 27.7553 11.8727 27.563C11.835 27.4033 11.7596 27.0008 11.7596 26.6693C11.7596 26.255 11.4444 26.1331 11.2586 25.4344C11.0727 24.7356 11.2586 24.3456 11.2586 23.8744C11.2586 23.4032 11 23.0457 11 22.3957C11 21.7457 11.0485 21.8026 11.1697 21.2014C11.2909 20.6001 11.1616 20.3483 11.1697 19.8202C11.1778 19.2921 11.4202 19.0077 11.6303 18.6177C11.8404 18.2277 11.8727 17.6671 11.9616 17.3259C12.0505 16.9846 12.2363 16.6678 12.5272 16.3997C12.8181 16.1315 12.9394 15.2703 13.5212 15.2703C14.103 15.2703 14.305 15.5141 14.507 15.6522C14.709 15.7903 14.8868 15.8147 15.2262 16.0747C15.5656 16.3347 15.4363 16.6515 15.5251 16.9196C15.614 17.1878 15.8645 17.4559 16.1716 17.7484C16.4787 18.0409 16.414 18.244 16.5271 18.6746C16.6403 19.1052 16.8908 19.1214 17.1413 19.682C17.3918 20.2427 17.2059 20.8845 17.1413 21.4532C17.0766 22.022 17.2706 22.1845 17.3837 22.8832C17.4968 23.5819 17.1413 24.3131 16.9797 24.5569C16.818 24.8006 17.1817 25.3937 17.1413 25.8893C17.1009 26.385 16.5837 26.7424 16.4383 27.0837C16.2928 27.4249 16.5352 27.7174 16.4383 28.0749C16.3413 28.4324 15.9857 28.6842 15.8322 28.8142C15.6787 28.9442 15.6383 29.3749 15.4847 29.578C15.3312 29.7811 15.0161 29.8867 14.806 29.8867C14.5959 29.8867 14.3858 30.1711 14.111 30.1711C13.8363 30.1711 13.804 30.0005 13.6828 29.9273C13.5616 29.8542 12.9798 29.6998 12.7858 29.3749C12.5919 29.0499 12.5515 28.5624 12.301 28.3511Z" fill="url(#paint0_linear_229_26770)"/>
<path d="M15.5829 16.2357C15.2598 15.6603 14.4868 15.3153 14.1406 15.2148C18.7213 14.1939 21.1691 16.9535 22.8156 20.5036C24.1328 23.3437 25.1997 27.0423 25.5685 28.5365L24.903 37.2353L21.3869 42.507C21.2644 40.9191 21.5367 38.2223 21.6729 37.7158C21.809 37.2093 21.5367 36.2511 21.2916 35.6761C21.0466 35.1012 21.4959 34.4441 21.5367 33.9787C21.5776 33.5132 21.2916 32.7877 21.1691 32.2675C21.0466 31.7473 21.5503 30.9123 21.2916 30.31C21.033 29.7077 20.7607 28.8589 20.8151 28.2292C20.8696 27.5995 20.6381 27.0657 20.3386 26.5592C20.0391 26.0527 20.2025 25.5735 20.2025 25.245C20.2025 24.9165 20.0663 24.7933 19.7259 24.0951C19.3856 23.397 19.44 23.3422 19.263 22.425C19.086 21.5079 18.5687 21.4257 18.3372 20.8097C18.1521 20.3169 17.9238 19.8288 17.8328 19.6464C17.2559 18.9735 17.302 19.1591 17.0136 18.9387C16.7251 18.7183 16.7482 18.0918 16.2636 17.5814C15.779 17.0709 15.9867 16.9549 15.5829 16.2357Z" fill="url(#paint1_linear_229_26770)"/>
<path d="M30.9997 16C25.6046 22.9298 22.2846 37.0121 21.2725 43H28.0326C28.8472 29.3984 31.4448 23.0139 32.6418 21.5218L30.9997 16Z" fill="#FFCC2B"/>
<path d="M42.2104 32C33.2561 29.7865 31.0176 20.384 31.0176 16H33.7458C33.7563 16.1257 33.7901 16.5485 33.8408 16.9093C33.9041 17.3603 34.2206 17.5214 34.3631 17.908C34.5055 18.2946 34.3789 18.955 34.7746 19.3577C35.1702 19.7604 35.0911 20.0181 35.1702 20.3564C35.2494 20.6946 35.3127 20.8074 35.9616 21.2423C36.6105 21.6772 36.4522 22.3698 37.0378 22.6114C37.6235 22.853 37.6235 23.1752 38.0666 23.5779C38.5098 23.9806 38.6364 23.9161 39.2695 23.9161C39.9026 23.9161 39.9342 24.19 40.5357 24.19C41.1371 24.19 40.963 23.9161 42.2104 23.9161C43.2082 23.9161 44.4857 22.6456 44.9997 22.0103L42.2104 32Z" fill="url(#paint2_linear_229_26770)"/>
<defs>
<linearGradient id="paint0_linear_229_26770" x1="14.2028" y1="15.2703" x2="14.2028" y2="30.1711" gradientUnits="userSpaceOnUse">
<stop stop-color="#578EC9"/>
<stop offset="1" stop-color="#3D5D96"/>
</linearGradient>
<linearGradient id="paint1_linear_229_26770" x1="19.8546" y1="15" x2="19.8546" y2="42.507" gradientUnits="userSpaceOnUse">
<stop stop-color="#578DC8"/>
<stop offset="1" stop-color="#325B7D"/>
</linearGradient>
<linearGradient id="paint2_linear_229_26770" x1="38.0086" y1="16" x2="38.0086" y2="32" gradientUnits="userSpaceOnUse">
<stop stop-color="#5994D8"/>
<stop offset="1" stop-color="#2F4E7C"/>
</linearGradient>
</defs>
</svg>
