<!-- by TradingView --><svg width="56" height="56" viewBox="0 0 56 56" xmlns="http://www.w3.org/2000/svg"><path fill="#F0F3FA" d="M0 0h56v56H0z"/><path d="m4.05 30.32.04-.19h2.27l-.03.17c-.06.38.01.66.24.86.22.19.57.28 1.03.28.45 0 .82-.08 1.09-.25.27-.17.43-.4.47-.67.06-.32 0-.56-.2-.7a5.2 5.2 0 0 0-1.59-.54 4.43 4.43 0 0 1-2.06-.95c-.45-.42-.61-1-.48-1.74.15-.8.6-1.42 1.32-1.89.72-.47 1.63-.7 2.72-.7 1.07 0 1.9.24 2.46.73.56.48.77 1.12.62 1.92l-.04.17H9.7l.03-.15c.05-.33-.02-.6-.2-.8-.2-.2-.51-.3-.96-.3-.43 0-.77.07-1 .22a.82.82 0 0 0-.4.58c-.05.28.02.49.21.6.2.13.7.29 1.52.48.92.23 1.61.56 2.1 1 .47.43.63 1.05.48 1.88a2.86 2.86 0 0 1-1.38 1.97c-.75.47-1.68.7-2.8.7-1.1 0-1.95-.23-2.57-.68-.61-.46-.83-1.13-.67-2ZM12 33l1.59-9H20l-.31 1.5H15.5l-.3 2h3.61l-.14 1.5h-3.6l-.52 2.5h4.24l-.31 1.5H12Z" fill="#5E97B4"/><path fill-rule="evenodd" d="M21.95 31h3.28l.34 2H28l-1.75-9h-2.5L20 31h1.95Zm.73-1.41h2.3l-.46-2.73a3.9 3.9 0 0 1-.06-.8h-.05a4.75 4.75 0 0 1-.34.8l-1.4 2.73Z" fill="#5E97B4"/><path d="m29 33 1.54-9h3.41c1.82 0 3.35.94 2.99 2.93-.35 2-2.11 3.07-4.02 3.07H31.7l-.5 3H29Zm3-4.5h1.14c.9 0 1.45-.68 1.6-1.55.15-.86-.3-1.45-1.15-1.45h-1.15l-.44 3Zm1.78 4.5-1.3-4.15 2.39-.02L36.24 33h-2.46ZM37 33l1.47-9h2.08l-1.18 7.5H43l-.29 1.5H37ZM44 33l1.59-9H52l-.31 1.5H47.5l-.3 2h3.61l-.3 1.5H46.9l-.35 2.5h4.24l-.31 1.5H44Z" fill="#5E97B4"/></svg>