<!-- by TradingView --><svg width="56" height="56" viewBox="0 0 56 56" xmlns="http://www.w3.org/2000/svg"><path fill="#F0F3FA" d="M0 0h56v56H0z"/><path fill-rule="evenodd" d="M28 45a17 17 0 1 0 0-34 17 17 0 0 0 0 34Zm0-.52a16.48 16.48 0 1 0 0-32.96 16.48 16.48 0 0 0 0 32.96Z" fill="#006C43"/><path fill-rule="evenodd" d="M28 40a12 12 0 1 0 0-24 12 12 0 0 0 0 24Zm0-.64a11.36 11.36 0 1 0 0-22.72 11.36 11.36 0 0 0 0 22.72Z" fill="#006C43"/><path d="M18.04 25.58c.5.73.44 1.25.35 1.42.57-.8 1.1-.74 1.32-.68.19.05.23-.13.23-.23-.3-.05-.9-.2-.86-.34.75-.1.92-.45.92-.79-.46.29-.8.46-.92.29.37-.28.5-.95.52-1.25-.04.11-.16.37-.35.5-.18.15-.3.48-.34.63l-.4-.79a1.4 1.4 0 0 0-.3.4c-.05.17.47.5.58.68.1.13-.04.47-.11.62-.06-.15-.2-.5-.3-.68-.1-.23-.51-.17-.34.22Zm.86 6.16c-.26-.04-.8-.13-.9-.18l.9-.6-.52-.42h1.09l.64-.54v.54l.89.6-1.02.24.13.84-.45-.42v.72h.57c-.3.18-.92.52-1.02.48.26-.24.24-.7.2-.9l-.52.36v-.72ZM21.34 33l-.07.76.73.3-.76.18-.07.76-.4-.65-.77.18.51-.59-.41-.65.73.3.5-.59Zm5.45-15 .45.62.76-.23-.49.61.45.62-.75-.24-.48.62.02-.76L26 19l.76-.24.03-.76Z" fill="#006C43"/><path d="M30.07 22.02c2.35-2.68-.3-4.46-1.92-5.02 2.53 1.67 2.46 3.41 1.3 4.55-.96.94-2.94.87-4.45-.87 0 .94 2.67 3.81 5.07 1.34ZM19.34 27l-.07.76.73.3-.76.18-.07.76-.4-.65-.77.18.51-.59-.41-.65.73.3.5-.59Zm17.68 0 .22.76.76.01-.63.47.21.76-.6-.48-.63.47.26-.76-.61-.48h.76l.26-.75Zm-2.69 7-.06.76.73.3-.76.18-.06.76-.42-.65-.76.18.5-.59-.4-.65.72.3.51-.59Zm0 2-.06.76.73.3-.76.18-.06.76-.42-.65-.76.18.5-.59-.4-.65.72.3.51-.59Zm1.89-4 .02.76.76.22-.75.26.02.76-.49-.6-.75.25.45-.63-.48-.6.76.21.46-.63Zm.98-5.54c.22-.05.37.34.42.54.21 0 .07-.54-.14-.72.14-.36.64-1.02.5-1.44a4.9 4.9 0 0 0-.64 1.02c-.12-.1-.36-.34-.36-.48 0-.14.38-.78.57-1.08-.05-.06-.16-.18-.21-.18-.07 0-.5.66-.71.96-.21-.54-1-1.02-1.28-1.08.15.78 1 1.2 1.35 1.44-.7.06-1.13-.36-1.7-.3.45.72 1.37.66 1.77.54l.43.42a1 1 0 0 1-.71.06c-.29-.1-.73-.2-.92-.24.2.22.7.66.92.66.28 0 .42-.06.7-.12Z" fill="#006C43"/><path fill-rule="evenodd" d="M33.26 24H22l.08.18c.3.69.89 2.4.89 3.75a14.4 14.4 0 0 1-.3 3.33l-.02.12a1.8 1.8 0 0 0-.07.48c0 .62.43 1 .65 1.12l.03.02h10.27l.04-.04c.09-.08.2-.23.3-.42.09-.2.15-.44.12-.7v-.02c-1.28-3.58-1.05-6.61-.77-7.66l.04-.16Zm-10.03 3.93c0-1.29-.53-2.89-.84-3.68h10.54a14.7 14.7 0 0 0 .57 6.91H22.97l.06-.27c.1-.5.2-1.3.2-2.96Zm-.33 3.49v.02c-.04.14-.06.26-.06.42 0 .47.31.78.49.89h10.1c.05-.07.14-.18.2-.32a.9.9 0 0 0 .1-.54l-.19-.58v.1H22.9Z" fill="#006C43"/><path d="M23.37 32.4c0-.2.04-.37.07-.48l.24.12c-.02.07-.06.2-.06.36 0 .14.03.29.1.4l-.2.2a1.07 1.07 0 0 1-.15-.6Zm.71 0c0-.2.04-.37.08-.48l.23.12c-.02.07-.05.2-.05.36 0 .14.02.29.1.4l-.2.2a1.07 1.07 0 0 1-.16-.6Zm.72 0c0-.2.03-.37.07-.48l.24.12a.98.98 0 0 0 .04.76l-.2.2a1.07 1.07 0 0 1-.16-.6Zm.7 0c0-.2.05-.37.08-.48l.24.12c-.02.07-.06.2-.06.36 0 .14.03.29.1.4l-.2.2a1.08 1.08 0 0 1-.16-.6Zm.72 0c0-.2.04-.37.08-.48l.23.12c-.02.07-.05.2-.05.36 0 .14.02.29.1.4l-.2.2a1.07 1.07 0 0 1-.16-.6Zm.71 0c0-.2.04-.37.08-.48l.24.12a.98.98 0 0 0 .04.76l-.2.2a1.07 1.07 0 0 1-.16-.6Zm.71 0c0-.2.05-.37.08-.48l.24.12a.98.98 0 0 0 .04.76l-.2.2a1.07 1.07 0 0 1-.16-.6Zm.72 0c0-.2.04-.37.08-.48l.23.12c-.02.07-.05.2-.06.36 0 .14.03.29.11.4l-.2.2a1.07 1.07 0 0 1-.16-.6Zm.71 0c0-.2.04-.37.08-.48l.24.12a.98.98 0 0 0 .04.76l-.2.2a1.07 1.07 0 0 1-.16-.6Zm.71 0c0-.2.05-.37.08-.48l.24.12a.98.98 0 0 0 .04.76l-.2.2a1.08 1.08 0 0 1-.16-.6Zm.72 0c0-.2.04-.37.08-.48l.23.12c-.02.07-.05.2-.06.36 0 .14.03.29.11.4l-.2.2a1.07 1.07 0 0 1-.16-.6Zm.71 0c0-.2.04-.37.08-.48l.24.12a.98.98 0 0 0 .04.76l-.2.2a1.07 1.07 0 0 1-.16-.6Zm.71 0c0-.2.05-.37.08-.48l.24.12a.98.98 0 0 0 .04.76l-.2.2a1.07 1.07 0 0 1-.16-.6Zm.72 0c0-.2.04-.37.08-.48l.23.12c-.02.07-.05.2-.06.36 0 .14.03.29.11.4l-.2.2a1.07 1.07 0 0 1-.16-.6ZM24 35.28l-.76-.03-.26.75-.22-.76-.76-.03.63-.45-.21-.76.6.49.64-.45-.26.75.6.49Zm0 2-.76-.03-.26.75-.22-.76-.76-.03.63-.45-.21-.76.6.49.64-.45-.26.75.6.49Zm11.53-7.3-.4-.8 1.14.69.66-.87-.06.58.26.29.87.17-.73.46.53.46-1.07-.17.4.58.14-.24.26.18-.6.69-.2-.12.2-.34-.53-.58-.67.52.27-.92-1 .4.53-.98ZM29 26.36V25h-1v.47h-1.65c-1.25 0-2.35.28-2.35 1.09s1.1.81 2.28.81c1.18 0 1.1.27 1.1.48 0 .38-.68.47-1.03.47H25V28h-1v1h1v-.34h1.5c.8 0 2.5-.07 2.5-.95 0-.71-1.29-.71-2.25-.71-.95 0-1.75-.1-1.75-.44 0-.61.84-.68 1.87-.68.82 0 1.15.14 1.13.2l1 .28Z" fill="#006C43"/><path fill="#006C43" d="M25.81 27.74h1.03V28h-1.03zm5.24.26H29v.5c.88 0 2 .13 2 .44 0 .6-2.61.62-4 .56v1.19h-1V31h3.35v-.31h-.82v-.88c2.4-.06 3.47-.31 3.47-1.06 0-.6-.63-.75-.95-.75Zm-4.76 9.86c.26-.15.58-.44.63-.9.6.4.88.26 1.01-.26.4.59.75.52 1.09.13 0 .6.18.97.51 1-.19.15-.4.31-.6.49-.32.28-.63.6-.8.89a4.4 4.4 0 0 0-1.04-.9c-.3-.2-.58-.34-.8-.45Zm-.26.03.07.06.03-.01c.23.1.55.26.88.47.4.26.8.58 1.08.96l.06.1.05-.11c.14-.29.46-.63.82-.94.27-.24.56-.45.79-.61l.16-.04c.67-.15 2.03-.44 2.03-1.27 0-.74-1.04-1.32-1.56-1.51a1.52 1.52 0 0 0-1.42-.99c-.87 0-1.18.53-1.22.79-.2-.13-.75-.4-1.3-.4-.53 0-1.35.88-1.69 1.32-.27.15-.81.57-.81.99 0 .34.35.43.73.53.2.05.4.1.56.2.3.16.57.34.72.45l.02.01ZM15.2 32.86l-.05-.13c.27-.13.45-.31.57-.54a.87.87 0 0 0 .07-.68.64.64 0 0 0-.3-.38.52.52 0 0 0-.43-.05c-.11.03-.2.1-.25.21a.73.73 0 0 0-.07.4c.03.32.04.55.03.69a.93.93 0 0 1-.12.46.7.7 0 0 1-.4.27.82.82 0 0 1-.63-.05.8.8 0 0 1-.4-.5.88.88 0 0 1-.04-.36c0-.1.04-.23.1-.36l-.29-.09-.04-.13.98-.31.03.12c-.53.32-.73.68-.6 1.1.05.15.13.27.26.34.13.08.26.1.4.05a.42.42 0 0 0 .27-.24c.04-.1.05-.3.03-.61-.03-.32-.02-.55.02-.7a.66.66 0 0 1 .48-.5.84.84 0 0 1 .67.06c.2.11.35.3.43.56.08.27.07.54-.04.8l.3.12.05.13-1.04.32Zm-2.49-3.33h-.14l-.02-2.2.93-.07v.13c-.27.05-.47.13-.6.23a.53.53 0 0 0-.18.44v.55c0 .09.05.13.14.13l1-.01v-.24a.4.4 0 0 0-.15-.32c-.1-.08-.23-.12-.42-.12v-.13l1.3-.01v.13c-.4 0-.6.16-.6.47v.22l1.1-.01c.1 0 .13-.06.13-.18v-.43c0-.47-.3-.74-.9-.8v-.14l1.03.04.02 2.3h-.14v-.2c0-.13-.05-.2-.15-.2l-2.21.03c-.1 0-.14.05-.14.16v.23Zm2.26-5.9.03-.13c.3.11.53.28.66.5.13.22.17.47.1.76a1.2 1.2 0 0 1-.58.8 1.4 1.4 0 0 1-1.05.14c-.42-.1-.74-.3-.98-.6-.23-.3-.3-.62-.23-.96a.93.93 0 0 1 .15-.33c.06-.1.16-.2.28-.3l-.24-.19.03-.12 1.1.2-.02.13c-.68.02-1.06.23-1.15.63-.12.52.27.87 1.16 1.08.4.08.7.08.95-.02.23-.1.38-.28.44-.54.11-.48-.1-.83-.65-1.04Zm-.89-2.26-.12-.07.64-1.13.12.08-.13.22c-.06.1-.05.18.02.23l1.38.78c.23.13.43.18.6.14.17-.04.31-.17.44-.38a.82.82 0 0 0 .11-.6.69.69 0 0 0-.35-.44l-1.12-.63c-.28-.16-.48-.15-.58.03l-.06.1-.12-.07.52-.92.12.07-.04.07c-.11.2-.06.37.15.49l1.2.68c.26.15.42.34.48.58.05.24 0 .5-.16.8-.35.6-.78.77-1.3.48l-1.46-.84c-.08-.04-.15 0-.2.1l-.14.23Zm4.27-3.7.72.81c.06.07.12.07.2 0l.22-.2.1.11-.98.86-.1-.1.21-.19c.1-.08.1-.15.05-.21l-1.48-1.67c-.03-.04-.07-.06-.1-.06s-.08.03-.12.07l-.21.19-.1-.11 1.08-.96c.2-.18.41-.28.61-.29a.6.6 0 0 1 .5.22c.12.13.17.27.16.44a.7.7 0 0 1-.1.34 2.3 2.3 0 0 1-.27.33c.16-.08.29-.13.38-.14a.6.6 0 0 1 .38.1c.4.28.64.39.7.33.04-.03.05-.08.03-.16a.73.73 0 0 0-.16-.24l.1-.09c.28.32.3.59.07.8a.4.4 0 0 1-.34.1.64.64 0 0 1-.37-.23 1.3 1.3 0 0 0-.5-.38c-.16-.04-.34.02-.52.18l-.16.15Zm-.76-.86.66.75.25-.22c.18-.16.29-.32.31-.46.03-.14-.03-.28-.16-.43-.16-.19-.32-.26-.47-.23a1 1 0 0 0-.44.28l-.14.13c-.06.06-.06.13-.01.18Zm2.7-2.18-.06-.13 1.13-.61.06.13-.19.1c-.09.05-.14.09-.15.12 0 .03 0 .08.05.15l1 1.86.08.1c.04.03.1.03.2-.02l.2-.12.07.13-1.13.61-.06-.13.21-.11c.08-.04.12-.08.13-.12.01-.03 0-.08-.04-.16l-1.01-1.85c-.04-.07-.07-.1-.1-.11-.04-.01-.1 0-.2.05l-.19.1Zm3-.46-.17-1.04 2.2-.5.29 1-.13.03c-.22-.58-.5-.84-.86-.76-.07.02-.11.04-.13.07-.03.03-.03.08-.02.14l.5 2.17c.02.08.09.11.2.09l.27-.07.03.14-1.26.3-.03-.14.31-.08c.08-.01.12-.06.1-.14l-.51-2.2c-.02-.1-.1-.13-.2-.1-.36.08-.5.43-.45 1.06l-.14.03Zm3.84-1.61v-.14l1.22.01v.14h-.2c-.14 0-.21.03-.21.1 0 .03 0 .06.03.08l.7 1.11.51-.93c.02-.05.04-.1.04-.14 0-.14-.08-.2-.25-.21h-.13v-.14h1.07v.15a.56.56 0 0 0-.3.06.62.62 0 0 0-.2.24l-.65 1.17v.88c-.01.09.06.14.19.14h.23v.14l-1.28-.01v-.14h.26c.13 0 .2-.04.2-.14v-.85l-.85-1.36a.33.33 0 0 0-.15-.13.68.68 0 0 0-.23-.03Zm6.58 1.05.06-.13 1.22.64c.26.14.44.31.52.51.09.2.07.4-.03.61a.7.7 0 0 1-.5.37c-.22.04-.47-.01-.74-.15l-.44-.24-.45.84c-.05.1-.02.17.09.23l.28.15-.07.13-1.18-.63.07-.12.24.12c.1.05.16.04.2-.03l1.04-1.96c.05-.1.02-.17-.09-.22l-.22-.12Zm.66.54-.5.95.33.17c.21.12.38.15.52.12.14-.04.26-.17.37-.37.11-.22.14-.4.08-.52-.05-.1-.2-.22-.43-.35a.93.93 0 0 0-.22-.1.15.15 0 0 0-.15.1Zm1.78 3.4 2.3-1.08.1.09-1.02 2.54c-.04.1-.02.2.07.28l.07.06-.1.1-.81-.76.1-.1.06.06c.15.13.24.17.3.12a.16.16 0 0 0 .03-.06l.24-.6-.8-.75-.33.16a.94.94 0 0 0-.1.06.46.46 0 0 0-.1.07c-.03.04-.04.1-.03.17.02.07.07.14.14.21l.07.07-.1.1-.73-.69.1-.1.02.02c.12.12.3.12.52.02Zm1.4.51.5-1.23-1.22.56.72.67Zm3.03 1.07.13-.07.67 1.2c.14.26.2.5.16.71a.68.68 0 0 1-.36.5.68.68 0 0 1-.62.03c-.2-.08-.39-.26-.54-.53l-.24-.44-.83.47c-.1.05-.11.13-.05.23l.15.28-.13.07-.64-1.17.12-.07.13.24c.06.1.12.13.19.09l1.94-1.08c.09-.05.1-.13.05-.24l-.13-.22Zm.26.81-.94.52.19.34c.12.2.24.33.37.37.14.04.3 0 .51-.1.22-.12.33-.25.35-.39.02-.12-.04-.3-.17-.53a.93.93 0 0 0-.13-.2c-.05-.04-.1-.05-.18 0Zm1.55 2.83.14-.04.62 2.11-.89.32-.03-.12c.25-.13.42-.26.52-.4.09-.12.1-.28.05-.46l-.15-.52c-.03-.1-.08-.12-.17-.1l-.95.28.06.24a.4.4 0 0 0 .23.27c.11.05.26.04.43 0l.04.12-1.24.36-.04-.12c.38-.12.53-.32.45-.61l-.07-.22-1.06.31c-.08.03-.1.1-.07.2l.13.43c.13.45.49.62 1.08.52l.04.13-1 .25-.65-2.2.13-.05.06.18c.03.13.1.19.2.16l2.12-.62c.09-.03.11-.1.08-.2l-.06-.22Zm-.44 5.02-1.09-.01c-.09 0-.13.05-.13.14v.3h-.15l.02-1.3h.14v.28c0 .12.04.18.13.18l2.22.02c.06 0 .1-.01.11-.04.02-.02.03-.07.03-.13v-.28h.15l-.02 1.44c0 .28-.06.5-.19.65a.6.6 0 0 1-.5.23.58.58 0 0 1-.43-.18.73.73 0 0 1-.18-.31 2.31 2.31 0 0 1-.06-.42 1 1 0 0 1-.16.37.54.54 0 0 1-.33.22c-.48.12-.72.22-.72.3 0 .05.04.1.1.12.08.04.17.05.3.05v.13c-.44 0-.65-.16-.65-.48a.4.4 0 0 1 .15-.32c.1-.08.24-.12.42-.12.3 0 .5-.04.62-.12.14-.09.22-.25.22-.5v-.22Zm1.14.01h-1v.32c0 .25.04.43.13.54.09.11.23.17.43.17.25 0 .4-.06.49-.19.05-.09.08-.26.08-.51v-.2c0-.08-.05-.13-.13-.13Zm-1.75 3.21-.04.13a1.2 1.2 0 0 0-.78.1.87.87 0 0 0-.46.5.64.64 0 0 0 .01.49c.06.14.17.24.32.3.11.03.23.03.33-.02a.9.9 0 0 0 .3-.29c.16-.27.29-.46.38-.57a.93.93 0 0 1 .37-.3.7.7 0 0 1 .47.02.8.8 0 0 1 .52 1.05.88.88 0 0 1-.18.31c-.08.09-.18.16-.3.23l.18.25-.05.13-.97-.33.04-.12c.62.06 1-.11 1.14-.52a.58.58 0 0 0 0-.44.48.48 0 0 0-.3-.27.42.42 0 0 0-.36.03 1.6 1.6 0 0 0-.38.48c-.17.27-.32.45-.43.55a.7.7 0 0 1-.68.12.84.84 0 0 1-.51-.45.9.9 0 0 1-.02-.7c.1-.27.26-.48.51-.62l-.18-.29.05-.12 1.02.35Zm-22.63 5.83.1-.11.98.84-.1.1-.23-.2c-.08-.06-.14-.06-.2.01l-1.46 1.7c-.05.07-.02.14.1.24l.29.26c.17.14.35.2.54.17.2-.03.42-.15.67-.36l.1.09-.74.77-1.77-1.51.1-.1.17.14c.06.05.1.07.15.08.04 0 .08-.03.13-.08l1.42-1.66c.06-.06.06-.13 0-.18l-.25-.2Zm2.7 2.15.08-.12 1.11.64-.07.12-.19-.1c-.08-.06-.14-.08-.18-.07-.03.01-.07.05-.1.12L21 41.4a.37.37 0 0 0-.05.12c-.01.05.03.1.12.15l.2.12-.06.12-1.12-.64.07-.12.22.12c.07.04.12.06.16.05.03 0 .07-.05.11-.12l1.05-1.83c.04-.07.06-.12.05-.14a.41.41 0 0 0-.15-.14l-.2-.1Zm1.9 1.07.04-.14.9.26.19 2.34 1.34-1.9.91.26-.04.14-.27-.08c-.1-.03-.16 0-.2.1l-.6 2.13c-.02.08.02.14.15.18l.24.07-.04.14-1.23-.35.04-.14.26.07a.2.2 0 0 0 .13 0 .12.12 0 0 0 .07-.08l.65-2.28-1.61 2.3-.13-.04-.23-2.8-.55 1.94c-.05.17-.05.3 0 .38.05.08.15.15.3.2l-.03.13-1.02-.29.04-.14c.16.05.28.05.36 0 .08-.04.15-.14.2-.3l.52-1.85c.03-.09-.02-.14-.12-.17l-.27-.08Zm4.24.88v-.15l1.29.03v.14h-.22c-.1 0-.17 0-.19.03-.02.02-.04.07-.04.15l-.05 2.11c0 .06 0 .1.02.13.02.05.08.07.18.08h.24v.15l-1.29-.03v-.15h.25c.09.01.14 0 .17-.02a.3.3 0 0 0 .04-.17l.05-2.1c0-.08-.01-.13-.03-.15-.03-.03-.1-.05-.2-.05h-.22Zm2.33.9-.17-1.04 2.2-.51.29 1.01-.13.03c-.22-.59-.51-.84-.87-.76a.32.32 0 0 0-.13.07c-.02.03-.02.07 0 .13l.5 2.17c.01.09.08.12.18.1l.28-.07.03.14-1.26.3-.03-.15.3-.07c.1-.02.12-.07.1-.14l-.5-2.2c-.02-.1-.1-.13-.21-.1-.35.08-.5.43-.44 1.05l-.14.04Zm2.93-1.66-.06-.13 1.95-1.01.49.8-.12.06a1.35 1.35 0 0 0-.48-.43.53.53 0 0 0-.47.03l-.49.25c-.08.04-.1.1-.05.19l.45.88.22-.11a.4.4 0 0 0 .22-.28c.03-.11 0-.26-.09-.42l.12-.06.6 1.15-.12.06c-.19-.36-.41-.46-.69-.32l-.2.1.51.98c.04.08.11.09.22.03l.38-.2c.42-.21.52-.6.3-1.16l.13-.06.44.94-2.04 1.05-.07-.12.17-.1c.12-.05.16-.13.11-.22l-1.01-1.96c-.05-.08-.12-.1-.22-.05l-.2.1Zm2.86-1.57-.1-.1 1.1-.95c.12-.12.24-.2.36-.25a.98.98 0 0 1 .42-.06c.38.01.73.2 1.04.55.26.3.4.6.42.9.02.3-.09.59-.31.84a1.95 1.95 0 0 1-.22.2l-.96.86-.1-.1.2-.18c.09-.08.1-.16.05-.22l-1.48-1.69c-.05-.06-.12-.06-.2.01l-.22.2Zm1-.88-.23.21c-.09.08-.1.15-.04.22l1.47 1.67c.06.07.14.06.24-.03l.18-.16c.24-.21.35-.44.33-.68-.02-.24-.17-.51-.44-.83-.3-.33-.56-.53-.8-.6a.73.73 0 0 0-.7.2Z"/></svg>