<!-- by TradingView --><svg width="56" height="56" viewBox="0 0 56 56" xmlns="http://www.w3.org/2000/svg"><path fill="#F0F3FA" d="M0 0h56v56H0z"/><path fill-rule="evenodd" d="M40.86 16.06a17.58 17.58 0 0 0-26.83 2.6c-.04.05-.04.1 0 .14l.58.63c.05.06.1.05.15-.01a16.53 16.53 0 0 1 24.57-3.34c.28.23.56.46.86.68.04.03.07.03.1 0l.57-.6c.04-.03.04-.07 0-.1ZM24.9 37.08a9 9 0 0 1-3.5-2.3c-.07-.1-.17-.18-.28-.26a.17.17 0 0 0-.21.02l-3.82 3.41c-.07.07-.07.14 0 .21a15.78 15.78 0 0 0 23.54-.63c.04-.05.04-.1 0-.15a208.8 208.8 0 0 1-8.75-9.76c-.04-.05-.05-.1-.01-.16a872 872 0 0 0 3.4-5.32c.3-.47.65-.9 1.05-1.3 1.14-1.15 2.28-2.3 3.4-3.46a.1.1 0 0 0 0-.13c-7.08-7-18.5-5.82-24.1 2.22-.04.06-.04.11.01.16l6.34 6.82a.1.1 0 0 1-.04.16l-4.88 1.93-.02.02v.03a.04.04 0 0 0 .03.04l7.41 1.8c.06.01.09.05.1.1L25 37c0 .08-.03.1-.1.08Zm-.42-18.25c3.96-1.52 8.18-.92 11.28 2.1.08.09.07.15-.04.2l-6.92 2.75a.15.15 0 0 1-.17-.04l-4.18-4.87c-.06-.07-.04-.11.03-.14Zm.6 7.4.02-.03-.4-5.49v-.03l.03-.03a.06.06 0 0 1 .07.02l3.62 4.2a.06.06 0 0 0 .07.02l5.2-2.04a.06.06 0 0 1 .07.01.06.06 0 0 1 0 .07L30.8 27.6v.07l3.63 4.22a.06.06 0 0 1-.02.09h-.04l-5.46-1.34a.06.06 0 0 0-.07.03l-2.99 4.68s-.01.02-.03.02a.06.06 0 0 1-.07-.02.06.06 0 0 1-.01-.03l-.4-5.49v-.03a.06.06 0 0 0-.04-.02l-5.47-1.33a.06.06 0 0 1-.04-.09l.03-.02 5.23-2.08.03-.02Zm6.74 11c-2.15.7-3.92.6-6.1.14a.09.09 0 0 1-.05-.05.08.08 0 0 1 0-.08l2.49-3.91c.03-.07.08-.07.13-.02l3.56 3.83c.04.04.03.08-.03.1Zm-15.41 1.4c6.97 7.38 18.08 6.97 24.8-.5.08-.07.15-.07.22 0l.55.54c.04.04.04.08 0 .13a17.6 17.6 0 0 1-26.27.61c-.04-.04-.04-.08 0-.13l.55-.64c.05-.06.1-.06.15 0Zm9.76-15.1c.77.82 2.1 2.28 2.1 2.28l3.5-1.4c.06-.02.12.05.08.1l-2 3.14a.07.07 0 0 0 0 .08l2.38 2.95-3.75-.88-2.13 3.12-.3-3.75-3.7-1.02 3.52-1.4-.19-3-.01-.25a66.6 66.6 0 0 0-.03-.5 3.91 3.91 0 0 1 .53.53Zm1.95 2.87 2.59-1.02-1.28 2c-.14.2-.12.47.03.66l1.47 1.82-2.67-.62-1.52 2.23-.22-2.69-2.6-.71 2.47-.98-.03-.36-.03-.53-.07-1.2-.04-.68a136.56 136.56 0 0 1 1.56 1.7l.11.12.23.26Z" fill="#55766F"/></svg>