<!-- by TradingView --><svg width="56" height="56" viewBox="0 0 56 56" xmlns="http://www.w3.org/2000/svg"><path fill="#F0F3FA" d="M0 0h56v56H0z"/><path fill-rule="evenodd" d="M38.19 16c-.6 0-1.04.46-1.13.98l-.36 2.55a1.9 1.9 0 0 0-.74-.17c-.47 0-.77.21-.93.63a1.55 1.55 0 0 0-.68-.17c-.45 0-.72.3-.85.66a1.3 1.3 0 0 0-.83-.25c-1.02 0-1.13 1.51-1.13 2.16 0 .37.06.81.34 1.1a3.73 3.73 0 0 0-.88 2.26c0 1.38 1.06 2.16 1.92 2.16.48 0 .95-.23 1.3-.53.45.36.73.62 1.36.62 2.01 0 2.76-2.85 2.76-4.32a2.74 2.74 0 0 0-.23-1.16l.86-5.11c.1-.54-.02-1.41-.78-1.41Zm-.25 7.68c0 1.24-.6 3.95-2.36 3.95-.56 0-.82-.3-1.22-.62a1.9 1.9 0 0 1-.16-.8c0-1.08 1.38-1.93 2.07-2.9-.33 0-.66 0-.99.03-.62.05-1.37.05-1.68-.56.48-.29 1.83-.8 2.47-.91 1.01-.17 1.87.98 1.87 1.8Zm-.17-1.49.81-4.84c.05-.28.08-.98-.4-.98-.39 0-.67.32-.73.67l-.63 4.65.95.5Zm-1.32-.7.2-1.58c-.2-.1-.44-.19-.68-.19-.41 0-.54.23-.64.6-.07.26-.08.84-.09 1.42.34-.12.88-.42 1.2-.25Zm-1.6.38c0-.56 0-1.21.07-1.52a1.2 1.2 0 0 0-.57-.17c-.41 0-.52.47-.58.77-.09.46-.1.92-.11 1.38.38-.18.78-.32 1.18-.46Zm-1.59.3v-.01c.02-.52.06-.92.12-1.23-.05-.1-.22-.33-.7-.33-.72 0-.74 1.4-.74 1.8 0 .28.04.96.49.96.71 0 .83-.63.83-1.2Zm.18 1.06c-.2.35-.6.5-1.01.5a.8.8 0 0 1-.22-.04c-.3.36-.82 1.16-.82 2.06 0 1.2.91 1.79 1.53 1.79.4 0 .77-.2 1.05-.45a2.3 2.3 0 0 1-.16-.88c0-.96.78-1.75 1.52-2.49-.06-.02-.5.04-.89 0a1.5 1.5 0 0 1-1-.5Z"/><path d="m21.85 24-.28 1.27-2.24-.48c.84.65 2.55 1.95 2.66 2.02.1.07-.48.82-.78 1.19H18l.64-1.63.37.8h2.2L18 25.26l.64-1.27h3.2Zm1.55 1L22 28h.6l.1-.2h.85l-.6-.36.35-.61L24.4 28h.6l-1.6-3Zm6 0L28 28h.6l.1-.2h.85l-.6-.36.35-.61L30.4 28h.6l-1.6-3ZM25 25v3h1v-2.18L27.25 28H28l-.75-3-.91.38-.32-.38H25Z" fill="#E60E7B"/><path d="M17.35 29h2.4l1.26 3.45.58-3.45H24l-1.35 8h-2.41l.02-.09-1.26-3.4-.59 3.49H16l1.35-8Z"/><path fill-rule="evenodd" d="M25.76 36.89c1.5.44 3.28-.49 3.97-2.08.69-1.6.02-3.25-1.49-3.7-1.5-.44-3.28.49-3.97 2.08-.69 1.6-.02 3.25 1.49 3.7Zm.93-1.9c.52.06 1.09-.34 1.26-.9.17-.54-.11-1.03-.64-1.09-.52-.05-1.09.35-1.26.9-.17.55.11 1.04.64 1.1Z"/><path d="M32.57 29.76c-.27.94-.5 1.93-.57 2.24h2.35l-.92 5h3.05L38 28h-2.24a3.64 3.64 0 0 1-3.19 1.76Z"/><path d="M30.5 35H33l-.5 2H30l.5-2Z"/><path fill-rule="evenodd" d="M17.1 12c-.88 0-1.61.65-1.69 1.49l-2.4 26.84c-.08.9.65 1.67 1.58 1.67h26.82c.93 0 1.66-.77 1.58-1.67l-2.4-26.84A1.66 1.66 0 0 0 38.9 12H17.09Zm0 .72c-.5 0-.9.36-.94.83l-2.4 26.84c-.05.48.34.89.83.89h26.82c.5 0 .88-.41.84-.89l-2.4-26.84a.92.92 0 0 0-.94-.83H17.09Z"/><path d="M22 42h13v2.57c0 .24-.2.43-.45.43h-12.1a.44.44 0 0 1-.45-.43V42Zm2-30h8v-.81c0-.1-.2-.19-.43-.19h-7.14c-.24 0-.43.08-.43.19V12Z"/></svg>