<!-- by TradingView --><svg width="56" height="56" viewBox="0 0 56 56" xmlns="http://www.w3.org/2000/svg"><path fill="#F0F3FA" d="M0 0h56v56H0z"/><path d="M31.24 13.35 30.76 10h-5.52l-.48 3.35a14.91 14.91 0 0 0-4.82 2l-2.71-2.03-3.91 3.9 2.03 2.72a14.91 14.91 0 0 0-2 4.82l-3.35.48v5.52l3.35.48a14.91 14.91 0 0 0 2 4.82l-2.03 2.71 3.9 3.91 2.72-2.03a14.8 14.8 0 0 0 4.82 2l.48 3.35h5.52l.48-3.35a14.91 14.91 0 0 0 4.82-2l2.71 2.03 3.91-3.9-2.03-2.72a14.8 14.8 0 0 0 2-4.82l3.35-.48v-5.52l-3.35-.48a14.91 14.91 0 0 0-2-4.82l2.03-2.71-3.9-3.91-2.72 2.03a14.91 14.91 0 0 0-4.82-2Zm4.54 22.43a11 11 0 1 1-15.56-15.56 11 11 0 0 1 15.56 15.56Z"/><path d="M24 33.03C24 30 26.67 22.41 28 19c1.33 3.41 4 11 4 14.03 0 3.03-2.67 3.91-4 3.97-1.33-.06-4-.94-4-3.97Z" fill="#7BD3F7"/><path d="M25 32.91c0-2.36 2-8.25 3-10.91 1 2.66 3 8.55 3 10.91 0 2.36-2 3.04-3 3.09-1-.05-3-.73-3-3.09Z" fill="#1B95D2"/><path d="M26 32.94c0-1.18 1.33-3.61 2-4.94.67 1.33 2 3.76 2 4.94 0 1.58-1.33 2.04-2 2.06-.67-.02-2-.48-2-2.06Z" fill="#FEFFFF"/><path d="M16.63 35.86c.07.1.13.18.2.23.12.1.24.11.36.04a.2.2 0 0 0 .12-.18c0-.09-.02-.2-.07-.35l-.09-.25a1.58 1.58 0 0 1-.11-.56c.01-.2.13-.36.35-.48.2-.1.4-.13.62-.07.22.07.4.23.57.5a1 1 0 0 1 .17.67c-.03.23-.16.41-.4.55l-.25-.42c.13-.09.19-.2.18-.33a.63.63 0 0 0-.1-.29.58.58 0 0 0-.24-.23.28.28 0 0 0-.27.01.21.21 0 0 0-.11.2c0 .06.02.17.07.33l.14.41c.05.19.08.34.06.46-.03.18-.14.33-.34.44a.77.77 0 0 1-.64.06 1.11 1.11 0 0 1-.59-.51 1.14 1.14 0 0 1-.2-.76.73.73 0 0 1 .4-.55l.26.43a.51.51 0 0 0-.18.2c-.05.13-.02.27.1.45Zm2.44 2.03 1.15-1.04.37.38-1.15 1.04c-.2.17-.38.28-.55.32-.31.08-.62-.04-.93-.35-.3-.31-.4-.61-.31-.9.05-.16.17-.33.37-.51l1.16-1.03.37.38-1.15 1.03a.86.86 0 0 0-.24.3c-.06.14-.02.28.13.43.15.15.3.2.45.16.09-.03.2-.1.33-.21Zm1.85-.42.43.31-1.57 1.94-.42-.3 1.56-1.95Zm2.28 4.07-.5-.2-.2-2-.75 1.58-.46-.19 1.05-2.24.51.22.2 1.96.74-1.56.45.19-1.04 2.24Zm1.9.57c-.35-.08-.6-.23-.75-.46-.2-.28-.25-.64-.14-1.07.1-.44.31-.74.62-.9.23-.15.53-.18.89-.1.35.08.6.23.75.46.2.27.25.63.14 1.07-.1.43-.3.73-.62.9-.23.15-.53.18-.89.1Zm.65-.53a1 1 0 0 0 .34-.59.96.96 0 0 0-.04-.66.61.61 0 0 0-.44-.33.64.64 0 0 0-.55.11.98.98 0 0 0-.33.58.95.95 0 0 0 .03.67c.1.17.24.28.45.33.2.04.39 0 .54-.11Zm2.4-.22-.55.02.03.96-.52.02-.1-2.45 1.27-.05c.18 0 .32.02.41.05a.75.75 0 0 1 .4.36c.03.08.05.17.06.26a.7.7 0 0 1-.08.35.5.5 0 0 1-.3.25c.12.04.2.1.26.18.05.08.08.21.09.38v.17c0 .11.02.19.03.23.01.06.05.1.1.13v.06l-.59.02-.04-.13a1.19 1.19 0 0 1-.03-.2l-.01-.23c-.01-.16-.04-.26-.1-.31-.06-.05-.17-.08-.33-.07Zm.31-.46c.1-.05.15-.14.15-.28 0-.15-.06-.25-.17-.3a.61.61 0 0 0-.26-.03l-.62.02.02.66.61-.02a.7.7 0 0 0 .27-.05Zm2.8-1.5.11.43-.75.16.48 1.97-.53.11-.48-1.96-.75.16-.1-.42 2.03-.45ZM33.9 41l-.48-1-.91.4.47 1-.49.2-1.06-2.23.49-.21.4.85.92-.4-.4-.84.48-.21 1.06 2.23-.48.2Zm2.02-2.5-1.01.7.39.5 1.15-.79.27.36-1.58 1.09-1.5-1.99 1.52-1.05.27.35-1.1.76.32.42 1.01-.7.26.35Zm.8-2.74.32.3-.53.53 1.53 1.4-.38.37-1.53-1.4-.53.54-.33-.3 1.44-1.44Zm3.3-.53-.27.44h-2.11l1.58.87-.25.41-2.23-1.23.29-.46 2.06.01-1.55-.86.25-.41 2.23 1.23Z" fill="#fff"/></svg>