<!-- by TradingView --><svg width="56" height="56" viewBox="0 0 56 56" fill="none" xmlns="http://www.w3.org/2000/svg">
<rect width="56" height="56" fill="#F0F3FA"/>
<path opacity="0.3" d="M13.9941 30.684L12 32.1545C12.2789 32.7697 13.3023 34 15.1647 34C17.4926 34 19 31.944 19 30.5404C19 27.9902 16.9359 26.8861 15.9461 26.7381C14.9563 26.59 14.5338 26.1705 14.5338 25.7263C14.5338 25.2821 14.9683 24.6898 15.5925 24.6898C16.0918 24.6898 16.4627 25.2821 16.5858 25.5782L19 24.8132C18.0464 22.1481 16.3565 22 15.5925 22C14.8284 22 12 22.6046 12 25.7263C12 28.848 14.9923 29.2879 15.5925 29.4184C16.1926 29.5489 16.3842 29.8948 16.3842 30.2473C16.3842 30.5997 16.0075 31.2719 15.1647 31.2719C14.4905 31.2719 14.1034 30.8799 13.9941 30.684Z" fill="black"/>
<rect opacity="0.3" x="20" y="22" width="3" height="12" fill="black"/>
<path opacity="0.3" d="M24.683 25H22.7002V22H25.1107C26.6311 22 27.8637 23.2786 27.8637 24.8558V26.1442C27.8637 27.7214 26.6311 29 25.1107 29H22.7002V26H24.683C25.0227 26 25.298 25.8341 25.298 25.4818C25.298 25.1294 25.0227 25 24.683 25Z" fill="black"/>
<rect opacity="0.3" x="29" y="22" width="3" height="12" fill="black"/>
<rect opacity="0.3" x="37" y="22" width="3" height="12" fill="black"/>
<path opacity="0.3" fill-rule="evenodd" clip-rule="evenodd" d="M31.7002 22H36.0002V25H31.7002V22ZM31.7002 26.5H35.0002V29.5H31.7002V26.5ZM36.0002 31H31.7002V34H36.0002V31Z" fill="black"/>
<path opacity="0.3" d="M39.7002 31H44.0002V34H39.7002V31Z" fill="black"/>
<path fill-rule="evenodd" clip-rule="evenodd" d="M48 18H8V38H48V18ZM47.7 18.3H8.3V37.7H47.7V18.3Z" fill="#1A1A1A"/>
<path fill-rule="evenodd" clip-rule="evenodd" d="M46 20H10V36H46V20ZM45.7017 20.3H10.2983V35.7H45.7017V20.3Z" fill="#1A1A1A"/>
</svg>
