<!-- by TradingView --><svg width="56" height="56" viewBox="0 0 56 56" fill="none" xmlns="http://www.w3.org/2000/svg">
<rect width="56" height="56" fill="url(#paint0_linear_229_27387)"/>
<path d="M7 33.4025C7 31.1377 9.58356 30.0908 10.8753 29.8504C9.58356 29.6077 7 28.4101 7 25.5621C7 22.1315 10.2099 21.0913 11.8148 21H20.1154C21.9567 21 22.8251 22.3203 23.0292 22.9805C23.5777 21.6252 25.3635 21.0954 26.1878 21H33.8028C35.0368 21 36.1061 22.3203 36.4864 22.9805C36.506 22.3203 36.932 21 38.4795 21C40.8105 21 41.8096 23.6064 42 24.9096V30H47.5879C50.0572 30 52 31.9466 52 33.3593C52 34.4894 50.7588 34.924 50.1382 35H41.4822C38.7231 35 36.4864 32.8204 36.4864 30.1317V29.3785C35.8556 31.2874 33.6367 31.9393 32.6061 32H27.0657L25.7169 33.6654C25.3434 34.1103 24.3225 35 23.2269 35C22.1312 35 22.0069 34.299 22 33.9485V32.7757H21.8379C21.5059 34.4904 19.5056 34.973 18.6825 35H7V33.4025Z" fill="#306398"/>
<path fill-rule="evenodd" clip-rule="evenodd" d="M38 22.3137V30.1238C38 32.2646 39.7148 34 41.8302 34H50.6948C50.8886 34 51.0333 33.8195 50.9933 33.6276C50.6664 32.0558 49.2962 31 47.709 31H41.7459C41.3934 31 41 30.6413 41 30.2845V25.2646C41 23.8088 39.7684 22.5098 38.4142 22.0186C38.2125 21.9455 38 22.0968 38 22.3137ZM9.00478 25H18.0955C18.125 25 18.1537 24.9976 18.1827 24.992C19.0644 24.821 20.6813 24.106 20.9625 22.498C21.0101 22.226 20.7809 22 20.5048 22H11.8261C11.8004 22 11.7754 22.0018 11.75 22.006C10.7422 22.1731 8.87594 22.8872 8.553 24.5027C8.49888 24.7735 8.72864 25 9.00478 25ZM8.52673 26.6794C8.83372 27.6164 9.70227 29 11.6582 29H17.0914C17.6019 29 18 29.2032 18 29.7442V30.2579C18 30.7988 17.6012 31 17.0907 31H11.6582C10.8283 31 9.55055 31.6947 8.75226 33.161C8.53981 33.5512 8.8368 34 9.26202 34H17.2245C19.3097 34 21 32.2091 21 30C21 27.7909 19.3097 26 17.2245 26H9.04861C8.6925 26 8.40996 26.3229 8.52673 26.6794ZM23 26.2276V33.6818C23 33.9222 23.2403 34.0783 23.4394 33.959C25.389 32.7906 25.9668 31.2134 26 30.5307V25.5611C26 25.2019 26.2661 25 26.6086 25H31.932C32.4456 25 33 25.3475 33 25.8863V26.8443C33 27.3831 32.4456 27.7149 31.932 27.7149H30.7444C29.2055 27.7149 27.8009 28.739 27.1244 30.1888L26.9541 30.5535C26.8533 30.7696 27.0033 31 27.2326 31H32.0402C34.2271 31 36 28.5946 36 26.3007C36 24.0068 34.2271 22 32.0402 22H27.0305C24.8045 22 23 23.8928 23 26.2276Z" fill="white"/>
<defs>
<linearGradient id="paint0_linear_229_27387" x1="10.4178" y1="9.71163" x2="68.1465" y2="76.0166" gradientUnits="userSpaceOnUse">
<stop stop-color="#1A1E21"/>
<stop offset="1" stop-color="#06060A"/>
</linearGradient>
</defs>
</svg>
