<!-- by TradingView --><svg width="56" height="56" viewBox="0 0 56 56" xmlns="http://www.w3.org/2000/svg"><path fill="#F0F3FA" d="M0 0h56v56H0z"/><path d="M16.14 28.32c-.4.2-1.22.44-1.82.5-1.56.2-2.4.57-2.76 1.26-.82 1.42-.17 2.8 2.05 4.58 1.83 1.4 2.1 1.7 2.1 2.19 0 1.2-5.22 1.74-6.4.65-.58-.53.04-.79 1.82-.75l1.58.04v-1.76H11.3c-2.19 0-3.3.71-3.3 2.1 0 1.75 2.04 2.98 4.7 2.8 2.6-.18 4.51-1.62 4.51-3.45 0-1.2-.4-1.84-1.97-2.99-1.9-1.4-2.65-2.17-2.38-2.42.11-.1.95-.22 1.85-.24 1.39-.04 1.69-.1 2.18-.53.47-.4.54-.64.5-1.37-.05-.47-.15-.9-.28-.92-.11-.04-.56.1-.97.31ZM40.14 30.5c-.79.07-1 .2-1.35.72l-.4.66h1.26c1.26 0 1.29 0 1.5-.7.13-.37.17-.7.1-.75-.08-.02-.57 0-1.1.06Z" fill="#F01922"/><path d="M24.52 31.72c-.68.65-.88 1.52-.53 2.3.27.64.25.72-.48 1.82-.9 1.39-1.9 2.16-2.78 2.16-1.16 0-1.54-.77-.62-1.15 1-.43 2.65-2.03 2.91-2.82.5-1.48-.77-1.84-2.42-.7-2.6 1.84-3.75 4.76-2.38 6.09 1.52 1.46 4.03.11 6.26-3.36.73-1.12 1.03-1.42 1.43-1.42.65 0 .65.12-.04 1.85-.81 2.1-.51 3.48.77 3.48.77 0 1.67-.87 2.6-2.47 1.26-2.25 1.73-2.9 1.92-2.72.11.1.03.65-.23 1.3-.97 2.55-.73 3.89.68 3.89.97 0 2.58-1.62 3.88-3.89.8-1.4 1.14-1.82 1.55-1.9.3-.03.57-.03.62.04.04.06-.2.87-.54 1.8-.7 2-.8 3.16-.23 3.61 1.05.9 2.65-.17 5.89-3.96l1.24-1.43.73.52c1.56 1.1 1.95 2.52.88 3.37-.82.65-2.34.6-2.44-.08-.07-.37.06-.45.79-.57.8-.12.88-.18.88-.73 0-.57-.02-.57-.8-.47-.94.14-1.99 1.08-1.99 1.8 0 .25.24.69.54.98 1.48 1.48 4.39 1.13 5.18-.61.52-1.17.11-2.07-1.65-3.63-1.41-1.27-1.45-1.35-1.35-2.1.2-1.36-.98-1.93-1.86-.9-.45.51-.45.75-.1 1.75.1.32-.24.85-1.5 2.31a13.23 13.23 0 0 1-1.85 1.92c-.47 0-.4-.71.23-2.63l.8-2.27c.08-.18-.22-.23-1.07-.23-.86 0-1.2.07-1.31.3-.07.15-.37.29-.67.29-.47 0-.53-.08-.53-.65 0-1.19-1.35-1.78-2.02-.9-.47.62-.42 1.39.09 2 .51.6.47.7-1 2.94-1.16 1.8-1.53 1.35-.71-.9.53-1.49.53-2.2 0-2.69-1.05-.97-2.19-.26-3.84 2.43-1.1 1.77-1.89 2.49-2.4 2.2-.3-.17-.24-1.1.15-2.12.3-.81.4-.93.96-.93.63 0 .99-.42 1.35-1.54.15-.41.11-.43-1.41-.43h-1.59l-.19-.66c-.28-.8-1.13-.96-1.8-.3Zm-2.8 2.78c0 .48-.6 1.1-1.46 1.52-.6.28-.77.18-.58-.37.4-1.23 2.03-2.14 2.03-1.15Z" fill="#F01922"/><path fill-rule="evenodd" d="M31.84 26.02a7.96 7.96 0 0 1-7.9-.13L28 23.22l3.84 2.8Zm.47-.28a8 8 0 0 0 3.48-8.57l-4.73 3.72 1.25 4.85ZM35.75 17h-5.86L28 11a8 8 0 0 1 7.75 6Zm-15.5 0A8 8 0 0 1 28 11l-1.89 6h-5.86Zm-.04.17a8.02 8.02 0 0 0 3.13 8.34l1.6-4.62-4.73-3.72Zm2.8 9.32a9 9 0 1 1 9.95-14.98 9 9 0 0 1-9.95 14.98l-.01.01v-.01Z" fill="#B69F41"/></svg>