<!-- by TradingView --><svg width="56" height="56" viewBox="0 0 56 56" xmlns="http://www.w3.org/2000/svg"><path fill="#F0F3FA" d="M0 0h56v56H0z"/><path d="M31.58 11.38a5.2 5.2 0 0 0-3.07 1.24.2.2 0 0 1-.26 0 7.34 7.34 0 0 0-2.8-1.43 17.13 17.13 0 0 1 6.13.19Z" fill="#01114D"/><path fill-rule="evenodd" d="M35.3 12.65c-3.1-.85-5.07.25-7.14 2.3-.06.07-.12.06-.17 0-1.9-2.33-3.85-3.2-6.76-2.55a17 17 0 0 0 2.16 31.97c.17-.04.4-.07.67-.1.38.1.8.04 1.26-.15a.19.19 0 0 0 .1-.11c2.08-5.45-3.8-9.16-8.25-10.15a.22.22 0 0 1-.17-.2c0-.09.06-.18.15-.21a.9.9 0 0 1 .48 0c4.1 1 8.78 3.9 8.73 8.62 0 .26-.07.52-.13.8l-.11.46c-.02.13 0 .14.08.03 3.15-4.48-4.92-9.98-8.52-10.65-.08-.02-.11-.07-.1-.15l.08-.31c.01-.07.05-.1.12-.07 3.33.98 7.73 3.6 9.19 6.89.81 1.85.6 4-.91 5.43l-.02.03c0 .04.04.24.08.24l.73.1c.36.07.72.12 1.07.13H28c.4 0 .8-.08 1.2-.15l.73-.12c.32-.03.3-.26 0-.36-1.3-.45-1.85-1.42-1.68-2.93l.02-.12c.08-.72.27-2.26-.13-2.51a.27.27 0 0 1-.1-.13c-1.76-4.29-5.4-7.54-10-8.37a.21.21 0 0 1-.16-.18.2.2 0 0 1 .13-.21.85.85 0 0 1 .49-.03 14 14 0 0 1 9.8 8c.08.15.11.4.12.7 0 .06.02.07.07.04.27-.16.36-.38.25-.65-1.62-4.3-5-7.74-9.62-8.73-.25-.05-.35-.2-.22-.44a.13.13 0 0 1 .13-.06c4.7.74 8.3 4.36 10 8.56.01.06.05.07.1.04.35-.2.43-.53.23-.98-1.83-4.13-5.09-7.42-9.7-8.39a.14.14 0 0 1-.13-.12l-.04-.3c-.02-.1.03-.14.13-.11l1.67.5c.07.02.13-.08.07-.13l-.04-.04c-.3-.27-1.21-1.14-1.04-1.44.08-.13.17-.14.28-.04.18.17.4.41.64.67.63.7 1.4 1.53 1.94 1.63.06.01.08 0 .05-.06a3.1 3.1 0 0 0-.35-.46l-.43-.45c-.64-.66-1.61-1.66-1.73-2.1a.18.18 0 0 1 .3-.18c.24.2.47.42.67.66.75.91 1.53 1.8 2.34 2.67.05.05.09.05.11-.02.08-.2.08-.4-.06-.58l-.52-.61c-.65-.76-1.5-1.75-1.66-2.38a.12.12 0 0 1 .18-.12c.42.3.71.7 1 1.06.08.11.16.23.25.33l1.04 1.29a.1.1 0 0 0 .07.04c.05 0 .09-.03.12-.07l.01-.01a.14.14 0 0 0 .05-.12c-.06-.75-1.21-2.01-1.87-2.74l-.22-.25c-.06-.06-.05-.11.03-.15l.34-.15c.07-.03.13-.01.18.05.47.67.97 1.32 1.5 1.94.24.27.32.23.24-.12-.07-.3-.33-.66-.6-1.02-.2-.29-.41-.58-.54-.86a.18.18 0 0 1 .07-.22.19.19 0 0 1 .23.03c.06.06.13.17.23.3.29.42.72 1.05 1 .83.06-.03.06-.08.02-.12a4.06 4.06 0 0 1-.7-1.27c-.04-.1.06-.18.15-.15.25.1.43.28.51.55.03.07.1.12.18.12.08 0 .15-.06.17-.13l.13-.56c.02-.06.08-.1.14-.1h.4c.05 0 .08.02.06.08-.56 1.74-1.09 3.49-1.59 5.25-.08.3-.05.6.1.88a.2.2 0 0 0 .22.1.2.2 0 0 0 .17-.17 29.4 29.4 0 0 1 1.95-6.53.12.12 0 0 1 .13-.08l.35.02c.05 0 .09.05.07.1-.4.85-2.8 7.05-1.68 7.4a.18.18 0 0 0 .15-.03.18.18 0 0 0 .08-.14c0-.36.04-.7.1-1.02.4-1.98 1.01-3.88 1.86-5.72.1-.22.28-.3.52-.29.08 0 .13.1.1.16a23.55 23.55 0 0 0-2.18 7.37c-.01.05 0 .11.03.16.16.31.37.59.64.83.06.05.08.04.08-.04a7.04 7.04 0 0 1-.04-1.03c.27-2.9.98-5.42 2.67-7.68a.22.22 0 0 1 .37.23c-.15.3-.34.6-.52.9-.18.27-.34.53-.46.77a15.47 15.47 0 0 0-1.54 6.44v.09c-.04.66-.06 1.08.3 1.54.04.06.14.04.15-.03.1-.58.18-1.38.22-2.38.08-2.24.92-5.07 2.44-7.06.03-.05.07-.05.11-.02.2.15.24.33.1.53-1.59 2.44-2.09 4.87-2.2 7.63-.01.06.06.11.12.07.43-.28.77-.58.82-1.14.1-1.42.39-2.8.86-4.16.19-.55.98-2.37 1.61-2.47.15-.03.26.14.17.27a12.96 12.96 0 0 0-2.15 6.12c0 .03.03.06.06.05a.87.87 0 0 0 .6-.68c.45-1.87 1.04-4.4 2.54-5.5.18-.15.43.1.28.28a9.73 9.73 0 0 0-2.14 4.8c-.02.14.14.24.25.16.34-.22.48-.55.6-.96.28-.92.86-2.67 1.58-3.31.2-.17.49.06.36.28l-.1.17a7.28 7.28 0 0 0-1.25 3c-.01.16.22.24.3.1.27-.41.49-.82.7-1.23.34-.65.68-1.29 1.2-1.9a.23.23 0 0 1 .1-.07c.2-.07.38.15.34.33 0 .03-.01.06-.03.08a7 7 0 0 0-1.36 2.2c-.05.13.11.25.22.15.3-.26.5-.59.71-.92.19-.3.37-.59.63-.84.2-.2.53.08.36.3l-.61.81c-.05.07-.01.16.07.17.42.08.82.03 1.2-.17.05-.02.1-.01.14.03.1.12.14.26.1.41a.14.14 0 0 1-.11.11c-3.4.44-6.11 2-8.14 4.68a2 2 0 0 0-.39.9l.01.08c.03.07.12.1.19.06a.74.74 0 0 0 .24-.23 11.81 11.81 0 0 1 8.33-4.92c.3-.04.48.06.55.29.02.07 0 .1-.08.12-3.62.47-6.65 2.18-8.59 5.26a.2.2 0 0 0 0 .2c.14.22.28.23.41.03 1.82-2.92 5.1-4.65 8.53-5 .06 0 .1.02.12.08l.07.15c.05.1-.02.23-.13.24a11.2 11.2 0 0 0-8.28 5c-.22.33-.24.62-.06.9.03.04.06.04.1 0a11.86 11.86 0 0 1 8.38-5.35c.18-.02.31.03.4.15l.04.1a.2.2 0 0 1-.17.2c-5.64.8-9.69 5.2-9.87 10.85-.01.35.03 1.08.5 1.09.09 0 .13-.04.12-.13-.25-4.96 2.58-8.88 7.14-10.68.7-.27 1.45-.44 2.26-.5.1 0 .2.06.22.16a.2.2 0 0 1-.13.23c-.14.05-.3.08-.47.1l-.38.07c-4.51 1.25-8.09 4.93-8.1 9.75l-.02.36c-.05.51-.11 1.23.26 1.42.77.39 1.74.34 2.64.11l.37.16a17 17 0 0 0 2.14-31.55Zm-1.14 4.4c1.39-1.03 3.61-1.33 4.82.2a.1.1 0 0 1-.05.15h-.06c-1.9-.9-3.58-.12-4.74 1.56-.03.05-.07.05-.1 0a7.95 7.95 0 0 1-.4-.5c-1.17-1.6-2.67-1.94-4.5-1.06a.1.1 0 0 1-.06 0 .1.1 0 0 1-.07-.1.1.1 0 0 1 .04-.07c1.74-1.58 3.1-1.64 4.97-.17.05.04.1.04.15 0Zm-6.18.14c-1.4-1.27-3.84-1.42-5.24-.04a.13.13 0 0 1-.08.04.13.13 0 0 1-.1-.03c-1.68-1.51-3.72-1.58-5.4 0-.25.24-.21.3.12.19 2.37-.8 3.64-.36 5.1 1.6.04.06.08.06.12.02 1.54-1.7 3-2.55 5.4-1.66h.05a.07.07 0 0 0 .05-.08.07.07 0 0 0-.02-.04Zm-8.86 3.57a3.15 3.15 0 0 1 3.54-.28c.49.25.45.34-.1.28-1.88-.2-2.34.07-3.51 1.21-.04.04-.08.04-.11 0-.94-1.25-2.08-1.87-3.87-1.36-.02.01-.05 0-.07-.02 0-.02 0-.04.03-.05 1.42-.79 2.75-.71 3.98.22.03.03.07.03.1 0Zm12.88 0c.01-.12-.06-.22-.23-.3-1.32-.63-2.5-.52-3.54.34a.2.2 0 0 1-.26 0c-1.1-1.02-2.68-1.03-3.92-.21-.08.05-.07.07.03.06.18-.02.33-.07.48-.11.22-.06.43-.12.69-.1a3.3 3.3 0 0 1 2.62 1.45c.05.06.13.1.22.11a.3.3 0 0 0 .23-.1c.85-1.08 2.02-1.43 3.5-1.04.1.03.17 0 .18-.1Zm4.96.05c.07-.04.14-.1.2-.15a3.26 3.26 0 0 1 3.8-.08c.08.05.01.13-.06.1l-.07-.02c-.38-.16-.7-.29-1.14-.24-.78.09-1.45.36-2 .83-.13.1-.23.23-.33.36-.09.12-.18.24-.28.34a.2.2 0 0 1-.28-.02c-.88-1.12-2.09-1.47-3.63-1.05-.06.01-.13-.01-.16-.06a.1.1 0 0 1 .04-.14c1.32-.87 2.58-.82 3.78.13a.11.11 0 0 0 .13 0Zm-9.34 17.6a16.06 16.06 0 0 0-3.39-4.27 14.03 14.03 0 0 0-5.9-3.11c-.28-.07-.42.01-.43.23 0 .1.06.18.15.2 3.26.64 6.27 2.96 8.14 5.62l.36.58c.28.48.61 1.05 1 1.44a.21.21 0 0 0 .37-.1c0-.06 0-.11-.03-.16-.1-.14-.18-.29-.27-.43Zm11.29-4.86c.03 0 .05-.03.06-.06l.03-.4c0-.06-.05-.1-.1-.09a12.35 12.35 0 0 0-7.57 5.2l-.08.1c-.12.15-.27.35-.25.53a.2.2 0 0 0 .16.17c.09.01.18-.02.22-.09 1.76-2.55 4.28-4.7 7.53-5.36Zm-6.78 6.44a.14.14 0 0 1-.07-.03.16.16 0 0 1-.04-.2c1.42-2.6 3.62-4.88 6.43-5.7a.98.98 0 0 1 .32-.06c.11 0 .21.1.23.22a.25.25 0 0 1-.17.27 10.9 10.9 0 0 0-6.26 5.33c-.08.15-.23.2-.44.17Zm-7.16.63a11.79 11.79 0 0 0-6.62-5.6.25.25 0 0 0-.15-.01c-.28.08-.24.32-.03.41 2.75 1.3 4.82 2.63 6.37 5.39.1.2.23.24.36.14.1-.08.13-.22.07-.33Zm8.04-.83c.8-1.92 3.74-4.39 5.78-4.79.11-.02.22.08.2.2 0 .16-.23.26-.35.32-1.63.72-3 1.75-4.16 3.1-.4.48-.81.93-1.22 1.33a.15.15 0 0 1-.1.05.15.15 0 0 1-.15-.21Zm-9.03.97a9.38 9.38 0 0 0-3.46-3.8c-.44-.27-2.3-1.33-2.5-.82-.04.07 0 .16.06.19.26.13.54.25.82.36.38.16.76.32 1.07.5a9.82 9.82 0 0 1 3.49 3.5c.06.1.25.26.33.3.1.04.2-.03.2-.14v-.1Zm10.1-.81a.12.12 0 0 1-.06-.18 9.77 9.77 0 0 1 4.84-3.76c.05-.02.09 0 .1.05.1.29.02.49-.23.6a9.74 9.74 0 0 0-4.02 3.1c-.19.25-.34.3-.63.19Zm.92-.4v.01c0 .07.17.23.3.34l.09.08c.1.12.67-.38.97-.63l.16-.14c.61-.45 1.22-.9 1.8-1.38h.02c.11-.1.72-.58.65-.63l-.17-.2c-.07-.06-.66.34-.82.44l-.02.02h-.01c-.65.42-1.27.86-1.88 1.3l-.34.22c-.29.17-.62.37-.74.57Zm-15.85-1.3c-.16-.07-.2-.14-.1-.2a.3.3 0 0 1 .3-.02 8 8 0 0 1 2.08 1.17c.27.21.46.43.56.64a.1.1 0 0 1 0 .08c-.02.05-.1.09-.17.08a.17.17 0 0 1-.09-.04 9.4 9.4 0 0 0-2.58-1.7Zm.42 1.6L20.76 41c.06.06.3-.28.23-.35l-1.2-1.13-.03-.04a1.93 1.93 0 0 0-.62-.46h-.08l-.05.1c-.03.03.02.13.13.27.1.14.26.3.43.47Z" fill="#01114D"/></svg>