<!-- by TradingView --><svg width="56" height="56" viewBox="0 0 56 56" xmlns="http://www.w3.org/2000/svg"><path fill="#F0F3FA" d="M0 0h56v56H0z"/><path d="M22.9 12.12c.8.48 1.68.68 2.63.58 2.8-.28 5.52.07 8.13.14 1.97.06 3.94.16 5.9.3 1.16.08 2.25.33 2.98 1.3.98 2.07 1.05 5.03 1.36 7.4.11 4.38.13 7.79.05 10.2 0 .26-.11.6-.32 1.02a32.2 32.2 0 0 0-.27 6.57c.15 3.33-4.2 3.45-6.42 3.64-2.07.18-4.28.1-6.43.16-2.17.06-4.03-.33-6.25.16-1.57.42-3.2.52-4.9.3-4-.9-6.33-3.15-6.25-7.39.11-5.4-.09-10.8-.6-16.18-.05-.51-.27-.84-.42-1.3-.1-.28-.11-.6-.06-.95a2 2 0 0 0 .58-.91c.25-1.32.93-3.2 2.18-3.89 1.32-.73 3.94-.82 5.42-1.04.8-.26 1.7-.3 2.69-.11Z" fill="#1B1618"/><path d="m28.53 14.18 3.08.13c2.33.02 4.66.1 7 .23.88.05 1.65.38 2.31.98.14.13.08.39-.11.42-.7.1-1.06-.74-1.89-.15-.94.67-1.62 2.95-2.2 4.12a.2.2 0 0 1-.33.06c-1.53-1.58-2.57-3.48-3.63-4.61-.3-.33-.7-.4-1.16-.19a.3.3 0 0 0-.14.14c-.83 1.57-1.15 4.01-1.56 5.79-.1.44-.33 1.04-.9.78a451.78 451.78 0 0 1-6.58-3.06c-2.06-.97-1.16 2-.9 2.71.88 2.45 1.8 4.85 2.76 7.2.07.18-.06.39-.26.38a133.3 133.3 0 0 0-5.27.02c-2.2.05-2.7 1.62-1.24 3.23a75.3 75.3 0 0 1 4.15 4.9c.97 1.28-3.47 4.42-4.55 3.6-.44-.32-.88-1.46-1.03-1.88a5.41 5.41 0 0 0-1.45-2.2c-.14-.13-.18-.45-.19-.63-.07-3.54.03-7.03-.22-10.6-.3-4.19-1.05-9.96 4.2-11.32.41-.1 1.24-.18 2.48-.2 2.56-.07 5.1-.01 7.63.15Z" fill="#D1EDF7"/><path d="M36.92 23.77c.73-1.24 2.38-4.65 3.71-5.05a.26.26 0 0 1 .23.04c2.5 1.61 2.27 3.65 1.94 6.32a.33.33 0 0 1-.32.29c-2.39 0-6.05-.43-8.22.58-1.83.86-4.55 2.28-5.68 3.73-.27.34-.54.99-.8 1.95-.95 3.43-.9 6.42-.7 9.93 0 .2-.15.37-.34.37l-3.57.07c-.25 0-.39-.12-.4-.38-.02-.6 1.24-1.32 1.69-1.63.06-.05.11-.1.14-.18.4-.99.25-1.9-.46-2.72-1.31-1.52-2.66-3-4.05-4.46a.36.36 0 0 1-.05-.41c.07-.13.22-.2.37-.18 2.15.38 4.3.2 6.42-.55.4-.14.62-.45.41-.86a179.23 179.23 0 0 0-3.64-6.96c-.21-.38-.41-.62-.39-1.09 0-.08.08-.15.16-.16l.08.01a110.8 110.8 0 0 1 7.68 3.5c.45.23 1.1.25 1.1-.4.02-2.41-.1-4.87.3-7.26.05-.29.19-.34.42-.18.05.04.13.14.24.3a152.4 152.4 0 0 1 3.12 5.1c.11.2.4.63.61.28Z" fill="#FED734"/><path d="M42.55 27.22c.22.02.4.2.4.41a33.5 33.5 0 0 1-.05 4.36c-.08 1.2-.57 2.48-.61 3.82-.03.89.58 2.06.03 2.94L40.7 41.4a.35.35 0 0 1-.18.14c-1.97.7-5.1.43-7.03.38-1.1-.02-1.73-.05-1.9-.1-1.49-.36-2.2-2.2-2.4-3.55-.43-2.62-.16-5.85 1.8-7.88C32.17 29.17 36.2 26.94 38 27c1.48.05 3 .12 4.55.22Z" fill="#FFFECA"/><path d="M17.87 22.96c-.03.04-.1.05-.14.03l-.46-.24c-.22-.11-.3-.4-.25-.82.05-.42.25-.91.54-1.38l1.98-3.15c.34-.52.86-1.21 1.55-1.38.16-.04.3-.03.4.03l.46.24c.05.02.06.08.04.12l-4.12 6.55Zm.9-6.86-.02-.02c-.25-.16-.59-.07-.76.2l-1.89 2.87c-.17.26-.12.6.13.76l.02.01c.25.16.59.07.76-.2l1.89-2.87c.17-.26.12-.6-.13-.76Zm7.73.92c1.15-.18 2.01.75 2.48 1.68.08.16-.08.35-.26.29l-2.05-.64c-.7-.23-1-1.2-.16-1.33ZM22.99 27.9l-.27.06c-.62.16-1.24-.18-1.59-.52-.14-.14-.26-.3-.35-.48l-.62-1.24a1.5 1.5 0 0 1-.15-.53c-.04-.42.14-.96.76-1.12.08-.02.33-.13.38-.03.17.36 2.01 3.8 1.84 3.85Zm-6.75 5.12c.6.3 1.58 1.03 1.76 1.77a.14.14 0 0 1-.1.16c-1.03.33-1.6-1.17-1.89-1.77-.06-.11.1-.23.23-.16Z" fill="#0788BE"/><path d="M31 37.64c-.03-4.44 2.62-7.28 6.2-8.57.24-.09.46-.1.64-.01.07.02.12.08.14.16.23.9-1.36 1.35-1.92 1.6-3.21 1.53-3.96 4.35-4.24 7.95 0 .1-.05.15-.14.17l-.37.06c-.1.01-.14-.03-.15-.14 0-.43-.16-.83-.16-1.22Z" fill="#FED734"/><path d="M33.85 37.97a.12.12 0 0 1-.16 0l-.28-.22c-.33-.27-.47-.72-.39-1.24.09-.52.39-1.08.84-1.56l.86-.9a3.47 3.47 0 0 1 1.57-.97c.56-.15 1.06-.08 1.4.19l.27.22c.05.04.05.1.01.14l-4.12 4.34Z" fill="#FED734"/></svg>