<!-- by TradingView --><svg width="56" height="56" viewBox="0 0 56 56" xmlns="http://www.w3.org/2000/svg"><path fill="#F0F3FA" d="M0 0h56v56H0z"/><path d="M19.99 21.58H18.5c0-1.48-.42-3.55-1.69-3.55S15 19.21 15 20.7c0 1.48.86 2.37 2.76 4.44 1.9 2.07 2.23 6.22 2.23 8.58 0 2.37 0 8.29-2.86 8.29-2.29 0-3.7-7.1-4.13-10.65h2C15 34 16.18 37 17.13 37s.87-.62.87-2.7c0-2.07-.24-2.95-1.5-5.02-1.28-2.08-2.55-4.44-2.55-7.7 0-3.25 1.27-8.58 3.18-8.58 2.54 0 2.96 5.72 2.86 8.58ZM26 35.59V11h-2v24.59c0 .91 0 3.41-.65 3.41-.88 0-.88-2.88-.88-5H21c0 3.04.3 11 2.35 11 2.36 0 2.65-6.38 2.65-9.41ZM27 11v34h2V23l1.6 21.7 1.8-.91L34 23v20l2-1.21V11.6l-2.7-.6-1.8 21-2.1-21H27Zm10 30V12l2 .92V36l4-4v3.5a243.32 243.32 0 0 1-6 5.5Z" fill="#FF797D"/></svg>