<!-- by TradingView --><svg width="56" height="56" viewBox="0 0 56 56" xmlns="http://www.w3.org/2000/svg"><path fill="#181B1E" d="M0 0h56v56H0z"/><path d="M8 23c1.7 0 3.16.85 3.69 1.27l-.72.81a1.2 1.2 0 0 1-1.3.3A6.3 6.3 0 0 0 7.9 25c-.7 0-1.41.24-1.41.84s1.1.9 2.2 1.19c2.36.6 3.3 1.42 3.3 3.06C12 31.73 10.43 33 8.24 33A8.1 8.1 0 0 1 4 31.5l.74-.77c.34-.37.92-.46 1.39-.24a6.6 6.6 0 0 0 2.3.51c1.02 0 1.57-.31 1.57-.76s-.35-.82-2.4-1.34c-2.03-.53-3.2-1.35-3.2-2.91C4.4 24.42 5.87 23 8 23Zm8 1.2c0-.67-.4-1.2-1.02-1.2H14v5.75C14 31.1 15.8 33 18 33s4-1.9 4-4.25V23h-.98c-.62 0-1.02.53-1.02 1.2v4.79c0 1.1-.95 2.01-2 2.01s-2-.9-2-2.01v-4.8Z" fill="#fff"/><path fill-rule="evenodd" d="M24 33V23h4.6c1.88 0 3.4 1.57 3.4 3.5a3.5 3.5 0 0 1-2.05 3.21L32 33h-1.42c-.63 0-1.22-.34-1.56-.9L27.7 30H26v1.64c0 .75-.54 1.36-1.2 1.36H24Zm2-5v-3h2.39c.89 0 1.61.58 1.61 1.5s-.72 1.5-1.61 1.5H26Z" fill="#fff"/><path d="m35 31 2.94-6.88c.3-.68.97-1.12 1.71-1.12h.93L44 31a6.17 6.17 0 0 0-3.04-1.79l-1.46-3.4-1.46 3.4c-1.16.3-2.27.93-3.04 1.79Z" fill="#fff"/><path d="M34.02 33a6.5 6.5 0 0 1 10.96 0h-3.03a3.49 3.49 0 0 0-4.9 0h-3.03Z" fill="#FFCD0E"/><path d="M52 30.1V23h-.82c-.68 0-1.18.61-1.18 1.37v5.2c0 .76-.25 1.43-1.14 1.43-.29 0-.57-.16-.83-.29-.48-.25-1.1-.25-1.48.19l-.55.65A4.07 4.07 0 0 0 48.93 33c2.4 0 3.05-1.93 3.07-2.9Z" fill="#fff"/></svg>