<!-- by TradingView --><svg width="56" height="56" viewBox="0 0 56 56" xmlns="http://www.w3.org/2000/svg"><path fill="#007B46" d="M0 0h56v56H0z"/><path fill-rule="evenodd" d="m28 13-18 9.53v10.29L19.7 38l8.3-4.23L36.3 38l9.7-5.18v-10.3L28 13Zm8.3 24.23 8.63-4.6L28 23.98l-16.93 8.63 8.63 4.6L28 33l8.3 4.23Zm-25.62-5.17v-9.12L28 13.77l17.32 9.17v9.12L28 23.22l-17.32 8.84Z" fill="#fff"/><path d="m28 35 6 3.5-6 3.5-6-3.5 6-3.5Zm0 7 4 2-4 2-4-2 4-2ZM12 23h1v7h-1zm7-4h1v7h-1.03L15 23.55V29h-1v-7h1.03L19 24.36V19Z" fill="#fff"/><path fill-rule="evenodd" d="M21 19.1v6.05l4.84-2.36A2.64 2.64 0 0 0 27 20.55v-1.9c-.04-.6-.4-1.8-1.58-1.8-.67 0-3.23 1.5-4.42 2.24Zm1 .4v4.05l3.23-1.57c.26-.15.77-.66.77-1.5V19.2c-.02-.4-.27-1.2-1.05-1.2-.45 0-2.15 1-2.95 1.5Z" fill="#fff"/><path d="M32 17.72 31 17v5.22c0 .95.52 1.82 1.34 2.23l2.77 1.41c.87.44 1.89-.21 1.89-1.22v-4.6l-1-.54v4.84c0 .35-.37.57-.66.4l-2.7-1.3c-.4-.24-.64-.68-.64-1.16v-4.56Zm8.68 3.75 3.06 1.86-.61.93c-.95-.59-2.9-1.78-3.07-1.86-.2-.1-.81-.52-1.12-.1a.55.55 0 0 0 0 .72l3.58 2.06c.71.42 2.04 1.14 1.22 2.9-.65 1.4-2.04 1.06-2.65.72L37 26.43l.61-1.04c1.1.62 3.35 1.9 3.68 2.07.41.2 1.12.72 1.53 0 .33-.58-.27-1.07-.61-1.24-.48-.28-1.6-.93-2.25-1.34-1.47-.93-2.86-1.55-2.04-3.1.65-1.24 2.11-.73 2.76-.31ZM19.16 33.46l-.3-.58 1.44-.74.7 1.36c-.07.21-.2.44-.42.68-.2.24-.45.44-.72.58-.34.17-.68.25-1.02.24a1.6 1.6 0 0 1-.9-.35c-.28-.2-.5-.48-.67-.8a2.35 2.35 0 0 1-.27-1.06 1.66 1.66 0 0 1 1-1.54c.42-.21.78-.29 1.1-.23.33.06.6.23.83.5l-.6.47a.8.8 0 0 0-.46-.26.86.86 0 0 0-.56.1 1 1 0 0 0-.55.65c-.07.28 0 .6.18.98.21.4.46.67.74.78.27.11.55.1.84-.05a1.6 1.6 0 0 0 .63-.7l-.23-.43-.76.4Zm2.69.54L20 30.17l1.49-.82c.37-.2.66-.32.86-.34.2-.03.4.02.59.14.18.12.33.3.44.52.14.29.18.57.12.84a1.3 1.3 0 0 1-.53.73c.2.02.38.05.54.12.15.06.39.2.7.4l.79.51-.84.46-.92-.55a5.4 5.4 0 0 0-.64-.36.56.56 0 0 0-.3-.04 1.2 1.2 0 0 0-.37.15l-.14.08.77 1.6-.7.39Zm-.36-2.6.52-.29c.34-.18.55-.32.62-.4.06-.07.1-.16.12-.26a.6.6 0 0 0-.07-.33.5.5 0 0 0-.25-.26.45.45 0 0 0-.34 0c-.06.02-.23.1-.52.26l-.55.3.47.98Zm2.81-1.53a2.38 2.38 0 0 1-.3-.95c0-.22.02-.43.08-.63.07-.21.16-.39.3-.54.16-.2.4-.37.68-.5a1.9 1.9 0 0 1 1.49-.16 2 2 0 0 1 1.15 1.06c.3.55.37 1.06.23 1.52a1.8 1.8 0 0 1-.99 1.08 1.9 1.9 0 0 1-1.5.16c-.46-.15-.84-.5-1.13-1.04Zm.73-.39c.2.39.45.63.74.74.29.1.57.09.86-.05a.97.97 0 0 0 .53-.64c.08-.3.01-.63-.2-1.03-.2-.39-.45-.63-.73-.74-.28-.1-.56-.08-.85.06a.99.99 0 0 0-.55.65c-.08.28-.01.62.2 1.01Zm5.1-1.48.72.25-.81 1.78c-.13.29-.2.47-.23.56a.5.5 0 0 0 .08.4c.08.13.22.22.42.3.21.06.38.08.52.04a.57.57 0 0 0 .32-.22c.07-.1.17-.29.29-.54l.83-1.82.73.25-.79 1.73c-.18.4-.33.66-.44.81a1.1 1.1 0 0 1-.41.34c-.16.07-.34.11-.55.12-.2 0-.45-.04-.73-.14a2.17 2.17 0 0 1-.74-.38 1.05 1.05 0 0 1-.29-.43.88.88 0 0 1-.04-.44c.04-.2.15-.49.31-.86l.8-1.75ZM32 32.73 33.6 29l1.17.43c.44.17.72.3.84.38.18.13.3.32.36.56.06.24.03.5-.1.8-.1.23-.22.4-.37.53a1.19 1.19 0 0 1-.92.3c-.19-.03-.44-.1-.77-.23l-.48-.18-.6 1.41-.73-.27Zm2.06-2.83-.46 1.06.4.15c.29.1.49.16.6.15.12 0 .22-.03.3-.1.1-.06.17-.15.22-.26a.52.52 0 0 0 .02-.37.5.5 0 0 0-.22-.28 3.51 3.51 0 0 0-.51-.22l-.35-.13Z" fill="#fff"/></svg>