<!-- by TradingView --><svg width="56" height="56" viewBox="0 0 56 56" xmlns="http://www.w3.org/2000/svg"><path fill="#F0F3FA" d="M0 0h56v56H0z"/><path d="M34.2 12.5A19.02 19.02 0 0 0 20 30.75c0 6.68 3.64 12.45 8.9 15.62h-1.96A19.07 19.07 0 0 1 19 30.75C19 21.63 25.08 14 33.17 11.7l1.03.79Z" fill="#16285A"/><path d="M38.1 15.8A18.3 18.3 0 0 0 25 33.3c0 5 2 9.59 5.24 12.96l-1.27.2A19.71 19.71 0 0 1 24 33.3c0-8.7 5.51-15.78 13.26-18.3l.84.8Z" fill="#16285A"/><path d="M40.2 19.23C34.22 22.41 30 28.65 30 35.72c0 3.61 1.1 6.95 2.99 9.77l-.9.57A18.67 18.67 0 0 1 29 35.72c0-7.56 4.39-14.1 10.7-17.41l.5.92Z" fill="#16285A"/><path d="M42.2 24.14c-4.3 3.26-7.17 8.18-7.17 13.86 0 1.93.31 3.82.9 5.6l-.89.61A19.52 19.52 0 0 1 34.03 38c0-6.26 3.16-11.59 7.9-15l.27 1.14Z" fill="#16285A"/><path d="M22 12.78c7.9 1.97 14 9.5 14 18.26 0 6.67-3.54 12.42-8.73 15.6v.02h1.92A19.12 19.12 0 0 0 37 31.04C37 21.93 31.07 14.3 23.03 12l-1.03.78Z" fill="#299D4C"/><path d="M18.12 16.08A18.2 18.2 0 0 1 31.1 33.59c0 5-1.96 9.58-5.15 12.96l1.26.2A19.87 19.87 0 0 0 32.1 33.6c0-8.72-5.42-15.82-13.14-18.33l-.84.82Z" fill="#299D4C"/><path d="M16 19.54c5.89 3.19 10 9.41 10 16.46 0 3.59-1.06 6.91-2.89 9.71l.9.58A18.95 18.95 0 0 0 27 36a19.7 19.7 0 0 0-10.5-17.39l-.5.93Z" fill="#299D4C"/><path d="M13.99 24.47C18.2 27.73 21 32.63 21 38.3c0 1.9-.3 3.75-.85 5.5l.88.62c.63-1.93.97-4 .97-6.12 0-6.24-3.08-11.55-7.75-14.96L14 24.47Z" fill="#299D4C"/><path fill-rule="evenodd" d="M28 46c7.35 0 14-7.84 14-17.8 0-9.58-7.47-16.3-13.98-17.9C21.32 12.16 14 18.63 14 28.2 14 38.15 20.65 46 28 46Zm0-37c-7.21 1.88-15 8.8-15 19.2C13 38.57 19.72 47 28 47c8.28 0 15-8.42 15-18.8C43 17.8 35.07 10.6 28 9Z" fill="#16285A"/></svg>