<!-- by TradingView --><svg width="56" height="56" viewBox="0 0 56 56" xmlns="http://www.w3.org/2000/svg"><path fill="#F0F3FA" d="M0 0h56v56H0z"/><path fill-rule="evenodd" d="M45 29a16 16 0 1 1-32 0 16 16 0 0 1 32 0ZM27.55 43.92c-1.58-2.11-4.05-6.3-4.05-9.92 0-4 2.33-7.67 3.5-9-1.83 1.5-5.4 5.6-5 10a16.07 16.07 0 0 0 3.58 8.55c.64.17 1.3.3 1.97.37Zm-5.73-2.08A12.99 12.99 0 0 1 29 18a13 13 0 0 1 3.89.6C22.32 25.86 20.48 29.7 20 34c-.32 2.88.83 5.96 1.82 7.84Zm11.5-23.1a13 13 0 0 1 .18 24.46C30.72 41.48 26 37.4 26 32.5c0-4.55 4.34-10.46 7.33-13.76Z" fill="#281B40"/></svg>