<!-- by TradingView --><svg width="56" height="56" viewBox="0 0 56 56" xmlns="http://www.w3.org/2000/svg"><path fill="#F0F3FA" d="M0 0h56v56H0z"/><path fill-rule="evenodd" d="M35 17.64 28 11l-7 6.64c-4 3.8-4 9.93 0 13.72L28 38l7-6.64c4-3.8 4-9.93 0-13.72ZM26.17 16 26 18h-2.3L21 29h4.15L25 31h6l-.15-2H35l-2.7-11H30l-.16-2h-3.68Zm-12.61 9.27c-.57-.57-1.56-.18-1.56.6v10.1A4.1 4.1 0 0 0 16.16 40h9.93c.8 0 1.2-.93.65-1.48L13.56 25.27ZM24 38 14 28v7.62c0 1.31 1.1 2.38 2.45 2.38H24Zm18.44-12.73c.57-.57 1.56-.18 1.56.6v10.1A4.1 4.1 0 0 1 39.84 40H29.9c-.8 0-1.2-.93-.65-1.48l13.18-13.25ZM32 38l10-10v7.62c0 1.31-1.1 2.38-2.45 2.38H32Z"/></svg>