<!-- by TradingView --><svg width="56" height="56" viewBox="0 0 56 56" fill="none" xmlns="http://www.w3.org/2000/svg">
<rect width="56" height="56" fill="#F0F3FA"/>
<path fill-rule="evenodd" clip-rule="evenodd" d="M25 17H31V11H25V17ZM18 31H24V25H18V31ZM11 31H17V25H11V31ZM32 31H38V25H32V31ZM39 31H45V25H39V31ZM32 38H38V32H32V38ZM18 38H24V32H18V38Z" fill="#939598"/>
<path fill-rule="evenodd" clip-rule="evenodd" d="M25 24H31V18H25V24ZM18 24H24V18H18V24ZM32 24H38V18H32V24ZM25 31H31V25H25V31ZM25 38H31V32H25V38ZM25 45H31V39H25V45Z" fill="#411E75"/>
</svg>
