<!-- by TradingView --><svg width="56" height="56" viewBox="0 0 56 56" xmlns="http://www.w3.org/2000/svg"><path fill="#F0F3FA" d="M0 0h56v56H0z"/><path d="M42.77 31.74 27.1 47 14 27.16 27.29 9.23a.6.6 0 0 1 .95.01L42.87 30.8c.2.3.16.69-.1.95Z" fill="url(#ak0ohgzy0)"/><path d="M14.13 27.35 26.5 10.9l14.7 21.67-1.36 1.32L16.8 31.4l-2.67-4.05Z" fill="#B7C1C0"/><path d="m18.9 34.58-3.67-5.56L26.5 14.46l13.8 19.68-1.12 1.1-20.28-.66Z" fill="#29333D"/><path d="m18.29 33.65-2.43-3.68L26.95 16 39.9 34.53l-3.9 3.8-17.71-4.68Z" fill="url(#bk0ohgzy0)"/><path d="m16.17 30.45 10.3-13 11.96 17.71-1.3 1.34-18.72-2.66-2.24-3.39Z" fill="#5E716F"/><path d="m18.55 34.04-1.28-1.93 9.23-11.33 11 16.08-.47.47-18.48-3.29Z" fill="#0D1013"/><path d="m18.32 33.7-.53-.8 9.32-11.06.54 1.02-9.33 10.83Z" fill="#fff"/><path d="m20 36.23-1.99-3 9.3-11 10 14.83-4.78 4.66L20 36.23Z" fill="url(#ck0ohgzy0)"/><path d="m21.11 37.92-2.75-4.16 8.32-10.12 9.72 14.3-1.97 1.92-13.32-1.94Z" fill="#303E3F"/><path d="m20.57 37.1-1.09-1.64 7.22-8.56 8.38 12.33-.79.77-13.72-2.9Z" fill="#0E0A08"/><path d="M35.04 39.27 27.1 47l-7.18-10.87 7.2-8.35 7.9 11.5Z" fill="url(#dk0ohgzy0)"/><path d="M33.96 40.33 26.67 29.4v-1.1l.47-.53 7.89 11.48-1.07 1.06Z" fill="url(#ek0ohgzy0)"/><defs><linearGradient id="ak0ohgzy0" x1="38.4" y1="21.82" x2="23.49" y2="30.49" gradientUnits="userSpaceOnUse"><stop stop-color="#A3B3AD"/><stop offset=".14" stop-color="#FDFDFD"/><stop offset="1" stop-color="#5A6E6C"/></linearGradient><linearGradient id="bk0ohgzy0" x1="32.71" y1="20.43" x2="24.14" y2="33.12" gradientUnits="userSpaceOnUse"><stop stop-color="#F3F4F3"/><stop offset=".25" stop-color="#677B79"/><stop offset=".88" stop-color="#101417"/></linearGradient><linearGradient id="ck0ohgzy0" x1="31.54" y1="26.09" x2="23.86" y2="36.58" gradientUnits="userSpaceOnUse"><stop stop-color="#F3F4F3"/><stop offset=".25" stop-color="#677B79"/><stop offset=".88" stop-color="#101417"/></linearGradient><linearGradient id="dk0ohgzy0" x1="27.48" y1="27.78" x2="27.48" y2="47" gradientUnits="userSpaceOnUse"><stop offset=".38" stop-color="#010C6D"/><stop offset="1" stop-color="#4C85D3"/></linearGradient><linearGradient id="ek0ohgzy0" x1="27.62" y1="28.34" x2="33.32" y2="40.47" gradientUnits="userSpaceOnUse"><stop stop-color="#0E02BC"/><stop offset="1" stop-color="#051197"/></linearGradient></defs></svg>