<!-- by TradingView --><svg width="56" height="56" viewBox="0 0 56 56" xmlns="http://www.w3.org/2000/svg"><path fill="#F0F3FA" d="M0 0h56v56H0z"/><path d="M19 13h-5v9h28v-9h-5v5H19v-5Z" fill="#3B3B3B"/><path d="M19 23h-5v14l5 4V23ZM37 23h5v14l-5 4V23Z" fill="#545454"/><path d="M24 30h-4v12l4 3v-3l3-2.5-3-2.5v-7ZM32 30h4v12l-4 3v-3l-3-2.5 3-2.5v-7ZM26 46v-3l2-2 2 2v3l-2 2-2-2Z" fill="#5F5F5F"/><path d="M36 23H20v4h5v9h6v-9h5v-4Z" fill="#3840BF"/><path d="M30.5 13h-5v5h5v-5Zm-4 2 1-1h2v2l-1 1v-1.5L27 17h-.5v-.5L28 15h-1.5Z" fill="#205036"/></svg>