<!-- by TradingView --><svg width="56" height="56" viewBox="0 0 56 56" xmlns="http://www.w3.org/2000/svg"><path fill="#F0F3FA" d="M0 0h56v56H0z"/><path fill-rule="evenodd" d="M18.53 12A6.53 6.53 0 0 0 12 18.53v18.94c0 3.6 2.92 6.53 6.53 6.53h18.94c3.6 0 6.53-2.92 6.53-6.53V18.53c0-3.6-2.92-6.53-6.53-6.53H18.53Zm.27 1a5.8 5.8 0 0 0-5.8 5.8v18.4c0 3.2 2.6 5.8 5.8 5.8h18.4c3.2 0 5.8-2.6 5.8-5.8V18.8c0-3.2-2.6-5.8-5.8-5.8H18.8Z" fill="#4E9445"/><path fill-rule="evenodd" d="M15 19.5a4.5 4.5 0 0 1 4.5-4.5h17c.37 0 .72.04 1.06.13-1.36 1.38-3.84 4.07-3.79 4.74.1.5.43.87.58.99a3.34 3.34 0 0 0-1.15-.43c-.39 0-2.19.8-2.63 1.23C30.12 22.1 28 25 28 26.3c0 1.3 1.35 1.9 1.73 1.9.31 0 .77-.24.96-.36-.08.39-.14 1.17.32 1.17.58 0 2.31-1.23 3.02-2.34.25-.4.64-.79 1.03-1.18.7-.68 1.4-1.39 1.4-2.22 0-.34-.5-1.04-.76-1.35.15.14.6.43 1.22.43.7 0 2.16-1.04 4.08-3.01v14.3a11.32 11.32 0 0 1-1.5-7.23l-.97-2.4h-1.22c-1.33 1.1-5.43 6.39-7.31 8.9a131 131 0 0 1 8.08-6.76c-.31 3.5 1.59 7.22 2.92 9.16v1.2a4.5 4.5 0 0 1-4.5 4.5H24.47l1.8-3.27-.64-.9c-.08-.04-.46-.19-1.28-.45a8.29 8.29 0 0 0-2.62-.38l-3.07 3.71c.76-1.92 3.96-7.74 4.8-9.15.3-.5.84-1.06 1.47-1.71 1.15-1.17 2.57-2.63 3.33-4.56.35-.92.4-2.48.38-3.14-.2-.15-.51-.31-.85-.48-.4-.2-.83-.42-1.13-.67-5.28 4.05-9.81 10.35-11.66 13.57V19.5Zm6.28 12.08c-.82 1.42-3.02 5.88-4.35 8.61A4.5 4.5 0 0 1 15 36.5v-.13c3.01-5.94 8.95-11.88 10.38-13.3l.06-.07c-.16 1.94-2.17 5.28-3.5 7.47l-.66 1.11ZM27.87 27c.2.8 1.1 2.42 3.13 2.56l-.17.43c-.54 1.35-1.79 4.48-4.2 6.01-1.6-.54-3.01-1.01-3.54-1.01-.18-.6-.6-4 4.78-7.99Z" fill="#4E9445"/></svg>