<!-- by TradingView --><svg width="56" height="56" viewBox="0 0 56 56" xmlns="http://www.w3.org/2000/svg"><path fill="#F0F3FA" d="M0 0h56v56H0z"/><path d="m9 17 5.02 3.3L9 23.48V17Z" fill="#F36F21"/><path d="M14 20.33 9 17h5v3.33Z" fill="#F47A20"/><path d="M14 26.51v-6.2l-5 3.16 5 3.04Z" fill="#F26222"/><path d="m9 29.5.02-6.02L14 26.5l-5 3Z" fill="#F04E23"/><path d="m14 32.8-5-3.3 5-3.02v6.33Z" fill="#ED1C24"/><path d="M9 32.37V29.5l5 3.28-4 2.36a4.67 4.67 0 0 1-1-2.77Z" fill="#B01F23"/><path d="M14 38.11v-5.37c-1.33.81-3.93 2.38-4 2.38a9.96 9.96 0 0 0 4 3Z" fill="#8E181B"/><path d="M14 30.54v.03c.03.5.62 1.52.74 1.83l-.74.4a393.86 393.86 0 0 0 0-2.26Z" fill="#D52E27"/><path d="m14.7 32.36-.7.4 1.33.87c-.12-.24-.58-1.13-.63-1.27Z" fill="#ED1C24"/><path d="M16.58 34.45c-.15-.53-.42-.62-.72-.45L14 32.74v5.37l.73.27L18.72 36l-2.14-1.54Z" fill="#B01F23"/><path d="M18.5 39c-2.02 0-3.4-.5-3.95-.68L18.5 36v3Z" fill="#333"/><path d="m18.5 36-2.46-2c.79.16 2.24.52 2.46.52v1.49Z" fill="#ED1C24"/><path d="M18.5 39v-3l3.6 2.44c-1.15.39-2.53.56-3.6.56Z" fill="#4A4B4B"/><path d="M20.87 33.99 18.47 36v-1.95c.6 0 2.16-.02 2.4-.06Z" fill="#F04E23"/><path d="M21.75 38.55 18.47 36l1.42-1.2a4.62 4.62 0 0 0 2.17-1.55l.94-.53v5.4c-.37.19-1.02.38-1.25.44Z" fill="#646565"/><path d="M23 32.74v5.36a8.8 8.8 0 0 0 4.07-3.05L23 32.74Z" fill="#4A4B4B"/><path d="m28 29.71-5 3.03 3.84 2.6c1.18-1.41 1.08-2.65 1.16-3.29v-2.34Z" fill="#646565"/><path d="m22.07 33.23.93-.5v-2.2a4.58 4.58 0 0 1-.93 2.7Z" fill="#F04E23"/><path d="M23 26.5v6.25l5-3.04-5-3.21Z" fill="#EE3923"/><path d="m28 23.5-5 3 5 3.22V23.5Z" fill="#F04E23"/><path d="M23 20.5v6l4.97-2.97L23 20.5Z" fill="#F26222"/><path d="M28 17.26s-3.45 2.17-5 3.24l5 3.06v-6.3Z" fill="#F6871F"/><path d="M23 17v3.5l5-3.24-.3-.26H23Z" fill="#FAA61A"/><path d="M28 17v.3l-.3-.3h.3Z" fill="#F04E23"/><path d="m39 29.5-4-3v4h3.24l.76-1Z" fill="#848585"/><path d="M30 23.5V17l5 3.5-5 3Z" fill="#F6871F"/><path d="M30 29.5v-6l5 3-5 3Z" fill="#F04E23"/><path d="M35 26.5v-6l-5 3 5 3Z" fill="#F26222"/><path d="M35 17h-5l5 3.5V17Z" fill="#FAA61A"/><path d="M36.03 21 35 20.5v.5h1.03Z" fill="#F6871F"/><path d="m39 17-4 3.5V17h4Z" fill="#F47221"/><path d="m35.98 21-.97-.5L39 17v4h-3.02Z" fill="#F26222"/><path d="M41.36 21.98c-.53-.79-1.88-.96-2.36-.98v-4l5 3.5-2.64 1.48Z" fill="#F04E23"/><path d="M40.16 17H39l5 3.5v-2.2a8.23 8.23 0 0 0-3.84-1.3Z" fill="#EE3923"/><path d="M44 20.5v-2.19c.44.32.9.88 1.02 1.08L44 20.5Z" fill="#B01F23"/><path d="M44 26.53V20.5l-2.62 1.47a2 2 0 0 1 .5 1.34c0 .67-.4 1.28-.6 1.5L44 26.52Z" fill="#989898"/><path d="M45.95 21.92 44 20.5v6.03l1.52-1.1a7.99 7.99 0 0 0 .43-3.51Z" fill="#848585"/><path d="M45.01 19.38 44 20.5l1.94 1.41a5.11 5.11 0 0 0-.93-2.54Z" fill="#989898"/><path d="M45.52 25.42 44 26.52c.02.03.35.25.5.34a4.7 4.7 0 0 0 1.02-1.44Z" fill="#737374"/><path d="M35 26.5v-.85h1.27L35 26.5Z" fill="#A7A7A7"/><path d="m39 29.5-4-3 1.08-.86H39v3.86Z" fill="#989898"/><path d="M41.3 24.82c-.76.73-1.92.84-2.3.81v3.87l5-3-2.7-1.68Z" fill="#848585"/><path d="M44 27.27v-.77l-5 3 1.54 1c.7.17 1.17.66 1.31.9L44 32.76v-4.35a6.11 6.11 0 0 0-2.02-.39 4.3 4.3 0 0 0 2.02-.76Z" fill="#737374"/><path d="M44 27.28v-.76l.51.32c-.19.21-.42.38-.51.44Z" fill="#4A4B4B"/><path d="M35 32.5s-3.33-1.98-5-3l5-3v6Z" fill="#989898"/><path d="M30 35.67V29.5l5 3-5 3.17Z" fill="#848585"/><path d="m35 32.5-5 3 5 3.5v-6.5Z" fill="#737374"/><path d="M30 39v-3.5l5 3.5h-5Z" fill="#4A4B4B"/><path d="M37.87 34.99H35V39l4-3.1-1.13-.91Z" fill="#646565"/><path d="M39 39h-4l4-3.16V39Z" fill="#4A4B4B"/><path d="M39 35.91 37.78 35H39v.92Z" fill="#737374"/><path d="M42.12 32.71c0 1.84-2.08 2.29-3.12 2.28V36l5-3.5-2.14-1.1c.12.18.26.7.26 1.31Z" fill="#4A4B4B"/><path d="m44 32.5-5 3.4 3.6 2.92c.4-.1 1.17-.41 1.4-.57V32.5Z" fill="#1A1B1B"/><path d="M42.62 38.83C42.2 39 40 39 39 39v-3.15l3.62 2.98Z" fill="#333"/><path d="M46.57 30.95 44 32.5l2.74 2.33a5 5 0 0 0 .26-1.79c0-.97-.29-1.8-.43-2.09Z" fill="#4A4B4B"/><path d="M44 28.42v4.08l2.58-1.53A5 5 0 0 0 44 28.42Z" fill="#646565"/><path d="M44 38.24V32.5l2.86 2.04a6.07 6.07 0 0 1-2.86 3.7Z" fill="#333"/><path d="M40.56 30.5h-2.4l.84-1 1.56 1Z" fill="#848585"/><path d="M14 17h9v13.5a4.5 4.5 0 1 1-9 0V17Z" fill="#F0F3FA"/></svg>