<!-- by TradingView --><svg width="56" height="56" viewBox="0 0 56 56" xmlns="http://www.w3.org/2000/svg"><path fill="#F0F3FA" d="M0 0h56v56H0z"/><path fill-rule="evenodd" d="M39 12H17v32h22V12Zm-23-1v34h24V11H16Z" fill="#7F0000"/><path d="m21 25-3 2v13c0 .5 1 1 2 1s1-.5 1.5-.5c.4 0 .5.33.5.5v1l3-2V25l-3 2v10c0 .17-.1.5-.5.5s-.5-.33-.5-.5V25Z" fill="#7F0000"/><path fill-rule="evenodd" d="m35 42 3-2V19.5L30 15v9.5c-1.33.17-4 1.1-4 3.5v12c0 .5.3 1.5 1.5 1.5.95 0 1.3-.4 1.55-.7.15-.17.27-.3.45-.3.4 0 .5 1 .5 1.5l3-2V20c0-.17.2-.5 1-.5s1 .33 1 .5v22Zm-5.5-14c-.28 0-.5.2-.5.45v9.1c0 .25.22.45.5.45s.5-.2.5-.45v-9.1c0-.25-.22-.45-.5-.45Z" fill="#7F0000"/></svg>