<!-- by TradingView --><svg width="56" height="56" viewBox="0 0 56 56" xmlns="http://www.w3.org/2000/svg"><path fill="#F0F3FA" d="M0 0h56v56H0z"/><path d="M17.61 42.5a6.55 6.55 0 0 1 3.09-.63 21 21 0 0 1-1-3.54 9.92 9.92 0 0 0-4.34.08c.4 1.32 1.14 2.76 2.25 4.08ZM21.54 45.62a12.7 12.7 0 0 1-3.56-2.7 6 6 0 0 1 2.94-.5c.4 1 .88 1.94 1.43 2.85-.28.1-.56.21-.81.35ZM22.98 46.26c-.28-.1-.56-.22-.83-.34.16-.07.32-.13.5-.17l.33.51ZM25.05 45.86c-.14.3-.23.6-.27.94-.32-.07-.63-.16-.93-.25-.22-.3-.43-.6-.64-.92a3.88 3.88 0 0 1 1.84.23ZM25.48 45.18a3.2 3.2 0 0 0-.16.22 4.37 4.37 0 0 0-2.42-.26c-.51-.84-.97-1.72-1.36-2.64a5.96 5.96 0 0 1 3.94 2.68ZM26.79 44.23c-.22.1-.43.2-.63.33-.27-.83-.5-1.69-.64-2.57.52.68.95 1.44 1.27 2.24ZM28.53 44.05a3.32 3.32 0 0 0-1.06 0c.04-1.16.22-2.28.53-3.34.3 1.06.5 2.18.53 3.34ZM29.4 44.31a3.27 3.27 0 0 0-.19-.08 9.63 9.63 0 0 1 2.52-3.6c-.06.67-.15 1.34-.29 1.99-.8.42-1.5 1-2.05 1.7ZM30.64 45.34c-.21-.3-.48-.55-.77-.76.4-.48.87-.9 1.41-1.25a16.8 16.8 0 0 1-.64 2ZM33.27 46.51c-.63.2-1.3.37-2.03.49a3.15 3.15 0 0 0-.26-1.07l.04-.1a3.83 3.83 0 0 1 2.7.03l-.45.65ZM38 43.53c-.83.9-1.87 1.7-3.15 2.34a4.35 4.35 0 0 0-.35-.22 21.2 21.2 0 0 0 1.59-3.04c.7.2 1.34.5 1.92.92ZM40.72 38.43a11.51 11.51 0 0 1-2.36 4.7 6.51 6.51 0 0 0-2.07-1.02 21 21 0 0 0 1.12-3.95 9.98 9.98 0 0 1 3.3.27ZM41 30.65v5.53c0 .52-.05 1.1-.17 1.72a10.44 10.44 0 0 0-3.33-.28 21.26 21.26 0 0 0 .01-6.4c1.11-.33 2.28-.52 3.49-.57ZM41 22.17v7.95c-1.24.04-2.43.24-3.57.57a21.05 21.05 0 0 0-2.48-6.83c1.85-.9 3.9-1.5 6.05-1.7ZM41 13v8.63c-2.26.2-4.4.82-6.33 1.77-1.46-2.4-3.86-5-6.13-6.67V13H41ZM15 13h13.54v3.73a25.22 25.22 0 0 0-6.13 6.67A17.98 17.98 0 0 0 15 21.57V13ZM15 22.1c2.56.08 4.98.7 7.14 1.76a21.05 21.05 0 0 0-2.54 7.17 14.74 14.74 0 0 0-4.6-.91V22.1ZM15 30.65c1.59.06 3.1.38 4.52.92a21.3 21.3 0 0 0 .08 6.2 10.5 10.5 0 0 0-4.38.12 7.35 7.35 0 0 1-.22-1.71v-5.53Z" fill="#0462B8"/><path d="M22.9 23.64a21.06 21.06 0 0 1 5.64-6.09c2.27 1.64 4.2 3.7 5.65 6.1a17.9 17.9 0 0 0-5.65 4.68 17.9 17.9 0 0 0-5.65-4.69ZM28.88 28.77c1.5-1.92 3.4-3.52 5.58-4.67a20.52 20.52 0 0 1 2.45 6.75A14.66 14.66 0 0 0 31.55 34c-.6-1.9-1.5-3.66-2.67-5.23ZM31.72 34.58a14.12 14.12 0 0 1 5.27-3.2 20.74 20.74 0 0 1-.04 6.3c-1.7.22-3.28.85-4.62 1.79v-.28c0-1.6-.21-3.14-.61-4.6ZM32.3 40.15c1.3-1 2.85-1.67 4.55-1.92-.25 1.3-.61 2.55-1.1 3.76a6.62 6.62 0 0 0-3.7.35c.13-.72.22-1.45.26-2.19ZM32.33 45.07c.6 0 1.17.12 1.69.34.58-.93 1.1-1.9 1.53-2.92a6.07 6.07 0 0 0-3.63.49c-.17.76-.39 1.5-.65 2.22.34-.08.7-.13 1.06-.13ZM21.3 41.93c1.7.22 3.19 1.1 4.2 2.36-.3-.99-.51-2.02-.63-3.08a9.77 9.77 0 0 0-4.6-2.75c.25 1.2.6 2.35 1.03 3.47ZM20.17 37.88c1.76.43 3.35 1.3 4.62 2.5a17.67 17.67 0 0 1 .36-4.9 14.11 14.11 0 0 0-5.11-3.7 20.78 20.78 0 0 0 .13 6.1ZM20.12 31.23c1.98.82 3.75 2.07 5.18 3.62a17.46 17.46 0 0 1 2.9-6.08 17.36 17.36 0 0 0-5.58-4.67 20.52 20.52 0 0 0-2.5 7.13ZM28.54 29.22a16.91 16.91 0 0 0-2.8 6.13c.93 1.11 1.7 2.37 2.26 3.73a14.43 14.43 0 0 1 3.1-4.65 16.94 16.94 0 0 0-2.56-5.2ZM27.71 39.83a13.82 13.82 0 0 0-2.12-3.8 16.97 16.97 0 0 0-.2 4.95c.63.7 1.16 1.48 1.58 2.33.1-1.2.36-2.37.74-3.48ZM31.27 35.03c-1.3 1.37-2.32 3-2.98 4.8.38 1.1.64 2.27.74 3.48.66-1.33 1.6-2.5 2.75-3.43a17.31 17.31 0 0 0-.5-4.85Z" fill="#0462B8"/></svg>