<!-- by TradingView --><svg width="56" height="56" viewBox="0 0 56 56" xmlns="http://www.w3.org/2000/svg"><path fill="#20527B" d="M0 0h56v56H0z"/><path d="M27 17h-4v12.24c.22-2.04 2.02-3.7 4-4.22V17Zm2 8.57v-.03c.52.15 1.25.39 1.68.7-.15.1-.31.21-.48.3-.27-.35-.84-.68-1.2-.97Zm0 1.37v-.55c.14.13.5.27.63.42-.13.05-.5.1-.63.13Zm0 1.41v-.88c.25-.07.72-.15.95-.24.2.3.38.6.52.93-.4.09-1.06.15-1.47.2Zm0 1.15v-.64c.47-.04 1.18-.12 1.63-.21.08.27.13.56.15.85H29Zm-.2 1.14c.12-.18.2-.4.2-.64h1.78c-.02.3-.08.59-.16.87-.52-.1-1.29-.19-1.82-.23Zm-.55.54.2-.07c.69.03 1.35.11 2 .24-.14.32-.3.63-.51.92a5.08 5.08 0 0 0-1.7-.38v-.71Zm-.77-.06.25.07v.7c-.59.02-1.15.15-1.66.36-.2-.28-.36-.59-.5-.9.63-.13 1.26-.2 1.91-.23ZM27 30c0 .24.08.46.2.65-.5.04-1.3.11-1.8.21a4.14 4.14 0 0 1-.14-.86H27Zm0-1.14v.64h-1.74c.01-.3.06-.57.13-.85.43.1 1.17.16 1.61.2Zm0-1.4v.88c-.38-.04-1.07-.1-1.44-.17.13-.32.3-.63.5-.92.2.08.72.15.94.2Zm0-1v.47c-.1-.03-.53-.07-.63-.1.1-.13.52-.25.63-.37Z" fill="#FCFCFD"/><path d="M27 25.55v.07c-.34.28-.95.6-1.21.93a4.5 4.5 0 0 1-.5-.3c.42-.31 1.2-.55 1.71-.7Zm2-.54V17h4v12.67c-.04-2.25-1.87-4.12-4-4.66Zm-4.11 1.57c.19.14.39.28.6.4a5.3 5.3 0 0 0-.52 1.05c-.33-.08-.66-.18-.98-.29.23-.44.54-.83.9-1.16Zm1.5 6.09c.42-.15.87-.25 1.34-.28v1.47c-.5-.33-.96-.73-1.34-1.19Zm1.86-.27v1.48c.5-.33.97-.73 1.36-1.2a4.55 4.55 0 0 0-1.36-.29Zm-4.47-4.2c.34.13.7.23 1.05.32-.08.32-.13.64-.15.98H23.5c.03-.46.12-.89.28-1.3ZM23.5 30c.03.46.13.9.29 1.31.34-.12.7-.22 1.05-.31a5.04 5.04 0 0 1-.16-1H23.5Zm7.82 0c-.02.34-.07.67-.16 1 .35.09.7.19 1.03.3.16-.4.26-.84.28-1.3h-1.15Z" fill="#FCFCFD"/><path d="M32.47 29.5h-1.15a5.05 5.05 0 0 0-.15-.98c.35-.09.7-.2 1.02-.3.16.4.26.83.28 1.28ZM24 31.78c.32-.11.65-.21.99-.3.13.37.3.71.52 1.04a5.5 5.5 0 0 0-.62.4 4.41 4.41 0 0 1-.89-1.14Zm1.3 1.48c.16-.12.33-.22.5-.32.3.4.67.75 1.08 1.06a4.52 4.52 0 0 1-1.58-.74Zm5.38 0a4.7 4.7 0 0 1-1.55.73c.4-.3.76-.65 1.06-1.04l.49.31Zm.4-.33a5.06 5.06 0 0 0-.6-.4c.22-.33.4-.68.53-1.05.33.09.65.18.96.3-.23.42-.53.81-.89 1.15Zm.9-5.18c-.31.1-.63.2-.95.28a5.3 5.3 0 0 0-.53-1.07c.2-.12.4-.24.58-.39.37.34.67.74.9 1.18Z" fill="#FCFCFD"/><path d="m37.88 15.03-.13 1.3-1.27-.83-.01.02.9 1.13-1.28.32a12.1 12.1 0 0 1 4.25 9.21c0 6.74-5.52 12.2-12.34 12.2a12.27 12.27 0 0 1-12.34-12.2 12.1 12.1 0 0 1 4.26-9.22l-1.25-.31.91-1.15v-.01l-1.3.84c-.03-.34-.09-.88-.12-1.33A14.7 14.7 0 0 0 13 26.18C13 34.37 19.72 41 28 41c8.28 0 15-6.63 15-14.82a14.7 14.7 0 0 0-5.12-11.15Z" fill="#FCFCFD"/><path d="m28 12 .47 1.53H30l-1.24.94.48 1.53-1.24-.94-1.24.94.48-1.53-1.24-.94h1.53L28 12Zm-7.1 9.69.18-.31.24.13-.52.9-.25-.13.18-.3-1.28-.7.16-.28 1.29.69Zm-.11.7-.14.3-.62-.25-.17.38.63.25-.13.3-1.62-.64.13-.3.73.29.17-.38-.73-.3.13-.3 1.62.65Zm-.47 1.1-.27.84-.27-.08.17-.52-.4-.12-.16.49-.27-.08.16-.49-.47-.14-.17.53-.27-.08.28-.84 1.67.5Zm-1.67 2.33c-.08 0-.16-.02-.23-.03a.5.5 0 0 1-.2-.1.4.4 0 0 1-.12-.17.64.64 0 0 1-.02-.3.65.65 0 0 1 .08-.28.4.4 0 0 1 .16-.14.5.5 0 0 1 .21-.05h.24l1.15.13-.04.33-1.15-.13h-.15c-.04 0-.08 0-.11.02a.17.17 0 0 0-.08.05.2.2 0 0 0-.04.1c0 .05 0 .08.02.11 0 .03.03.05.06.07l.1.04.15.03 1.15.12-.04.32-1.14-.12Zm1.14.28-.01.33-1.24.39 1.22.04v.3L18 27.1l.01-.33 1.24-.39-1.22-.04v-.3l1.76.06Zm.01 1.17.03.32-1.75.12-.03-.33 1.75-.11Zm.02.36.05.34-1.42.42 1.5.02.05.34-1.8-.1-.06-.42 1.68-.6Zm.2 1.1.22.85-.27.07-.14-.53-.4.1.13.5-.27.06-.14-.5-.47.13.14.53-.27.07-.23-.86 1.7-.41Zm-.32 1.41.06.15c.03.08.08.13.13.15.04.02.1.02.16 0a.56.56 0 0 0 .1-.05.13.13 0 0 0 .05-.06.16.16 0 0 0 0-.08.48.48 0 0 0-.03-.13l-.07-.14-.4.16Zm.53-.57.26.6c.06.13.06.24.02.33a.51.51 0 0 1-.27.22.64.64 0 0 1-.17.04h-.12a.26.26 0 0 1-.1-.04.62.62 0 0 1-.06-.06l-.01.13a.2.2 0 0 1-.06.1 3.52 3.52 0 0 1-.49.24.6.6 0 0 0-.09.05l-.04.05-.04.02-.14-.33a2.17 2.17 0 0 1 .31-.15 15.47 15.47 0 0 1 .22-.1.19.19 0 0 0 .07-.07.15.15 0 0 0 .02-.07.2.2 0 0 0-.01-.07l-.03-.07-.06-.15-.7.28-.13-.3 1.62-.65Zm.11 2c0 .07-.01.13-.03.18a.52.52 0 0 1-.05.14.42.42 0 0 1-.09.1.59.59 0 0 1-.13.1.51.51 0 0 1-.4.04.6.6 0 0 1-.31-.3.5.5 0 0 1-.07-.24.5.5 0 0 1 .05-.2l.16-.15.21-.12.15.27a7.1 7.1 0 0 0-.21.14.18.18 0 0 0-.06.08c0 .03 0 .07.03.11.03.06.06.1.11.1.05.02.1.01.15-.02a.23.23 0 0 0 .11-.11.31.31 0 0 0 .03-.07v-.08l.04-.26.02-.13a.44.44 0 0 1 .12-.24.51.51 0 0 1 .14-.1.5.5 0 0 1 .2-.05c.06 0 .12 0 .17.02l.16.1c.04.05.09.1.12.16.05.1.08.18.08.25s-.02.13-.05.19a.47.47 0 0 1-.13.14 1.2 1.2 0 0 1-.18.11l-.15-.27.08-.04a.36.36 0 0 0 .07-.06.19.19 0 0 0 .05-.09c0-.03 0-.07-.02-.1a.16.16 0 0 0-.1-.09.15.15 0 0 0-.11.01.17.17 0 0 0-.09.09.58.58 0 0 0-.04.15l-.03.25Zm.13.72.16.22.58-.55-.74.33Zm.82-.64.25.34-1.2 1.27-.2-.26.32-.32-.22-.3-.42.19-.2-.27 1.67-.65Zm.47.65.22.25-1.1.92.39.44-.21.17-.62-.68 1.32-1.1Zm1.06 1.08.26.21-1.15 1.26-.26-.21 1.15-1.26Zm.36.3.28.18-.35 1.2.72-.95.25.17-1.02 1.37-.28-.2.35-1.2-.72.96-.25-.17 1.02-1.37Zm1.2 1.57.08.16.04.14a.4.4 0 0 1 0 .13l-.06.15a.49.49 0 0 1-.3.26c-.12.04-.26.02-.43-.06a.53.53 0 0 1-.2-.16.37.37 0 0 1-.08-.18c0-.07 0-.14.03-.21l.1-.23.29.14a7.18 7.18 0 0 0-.1.23c0 .03 0 .07.02.1.01.03.04.05.08.07.06.03.11.04.16.02a.2.2 0 0 0 .11-.1.21.21 0 0 0 .02-.16.32.32 0 0 0-.03-.07 1.08 1.08 0 0 0-.04-.06l-.13-.23a1.5 1.5 0 0 1-.07-.12.5.5 0 0 1-.04-.13.42.42 0 0 1 .05-.3.47.47 0 0 1 .12-.14c.05-.04.1-.07.16-.08a.49.49 0 0 1 .19-.01c.06 0 .13.03.2.06.1.05.16.1.2.16.05.05.08.11.09.17 0 .07 0 .13-.02.2l-.08.18-.29-.13.04-.08a.33.33 0 0 0 .02-.09l-.01-.1a.19.19 0 0 0-.08-.07.17.17 0 0 0-.13-.01.14.14 0 0 0-.09.07.16.16 0 0 0-.02.12.6.6 0 0 0 .07.14l.12.22Zm1.31.9-.1.2a.42.42 0 0 1-.35.23.73.73 0 0 1-.3-.05.7.7 0 0 1-.26-.15.39.39 0 0 1-.1-.4l.06-.2.42-1.04.32.12-.42 1.03-.04.14a.3.3 0 0 0-.01.1c0 .04.01.07.04.1.02.02.05.04.1.05.03.02.07.02.1.02.04 0 .07-.02.1-.04a.32.32 0 0 0 .06-.09l.06-.13.41-1.03.32.12-.4 1.03Zm.62-.32.16.03c.09.02.16.02.2-.01a.2.2 0 0 0 .1-.14v-.1l-.01-.07a.17.17 0 0 0-.07-.05.53.53 0 0 0-.13-.04l-.16-.03-.09.41Zm-.2-.74.68.13c.14.03.23.08.29.17.05.09.06.2.03.33a.57.57 0 0 1-.05.16.34.34 0 0 1-.08.1.26.26 0 0 1-.08.05.65.65 0 0 1-.09.02c.05.03.09.05.11.08a.2.2 0 0 1 .05.1.4.4 0 0 1 0 .13 3.13 3.13 0 0 1-.06.28 1.04 1.04 0 0 0-.01.21l.02.07v.04l-.37-.08a1.95 1.95 0 0 1 .04-.33 14.01 14.01 0 0 1 .04-.22c0-.04 0-.07-.02-.1a.16.16 0 0 0-.05-.06.23.23 0 0 0-.07-.03l-.07-.01-.17-.03-.15.7-.33-.07.35-1.64Zm1.39 1.22h.29l-.11-.76-.18.76Zm-.04-1.01.44.01.33 1.69-.34-.01-.07-.44-.38-.01-.1.43-.34-.01.46-1.66Zm.8.01.35-.02.54 1.13-.1-1.17.32-.02.14 1.67-.34.02-.55-1.13.1 1.17-.31.02-.15-1.67Zm2.37.69.05.22c0 .08 0 .15-.02.22a.4.4 0 0 1-.1.18.56.56 0 0 1-.27.13.6.6 0 0 1-.3 0 .4.4 0 0 1-.2-.13.88.88 0 0 1-.15-.26 4.66 4.66 0 0 1-.18-.71.7.7 0 0 1 0-.27.38.38 0 0 1 .12-.2.6.6 0 0 1 .26-.13.69.69 0 0 1 .3-.01.39.39 0 0 1 .29.24c.02.06.05.13.06.2l-.3.07-.04-.08a.31.31 0 0 0-.04-.1.2.2 0 0 0-.08-.05.18.18 0 0 0-.12 0c-.05 0-.08.03-.1.06a.2.2 0 0 0-.03.11 7.2 7.2 0 0 0 .23.87.3.3 0 0 0 .09.11c.03.02.07.03.12.02a.23.23 0 0 0 .1-.05.13.13 0 0 0 .05-.08l-.01-.12-.04-.17.31-.07Zm-.23-1.06.86-.3.09.25-.53.19.14.37.5-.17.1.25-.5.18.16.44.55-.19.1.25-.88.3-.6-1.57Zm2.79-.18.11.2c.04.07.06.14.06.2.01.08 0 .15-.04.22a.54.54 0 0 1-.2.2.6.6 0 0 1-.3.1.42.42 0 0 1-.23-.07.92.92 0 0 1-.22-.21 4.73 4.73 0 0 1-.41-.62.71.71 0 0 1-.09-.26c0-.08 0-.15.05-.22a.58.58 0 0 1 .21-.2c.1-.06.2-.1.27-.1a.4.4 0 0 1 .36.14l.13.16-.28.17a1.6 1.6 0 0 1-.05-.07.32.32 0 0 0-.07-.07.2.2 0 0 0-.1-.03c-.03 0-.07 0-.1.03-.05.02-.08.05-.09.08l.01.12.08.16a7.48 7.48 0 0 0 .43.6c.04.04.08.07.12.08.04.01.08 0 .12-.02a.22.22 0 0 0 .09-.08.13.13 0 0 0 0-.1 3.43 3.43 0 0 0-.14-.25l.28-.16Zm.17-.41a6.54 6.54 0 0 0 .33.3.2.2 0 0 0 .13.06c.04 0 .08-.02.13-.05a.25.25 0 0 0 .07-.12.24.24 0 0 0-.04-.13 6.44 6.44 0 0 0-.61-.67.24.24 0 0 0-.13-.05.2.2 0 0 0-.13.05c-.04.04-.07.08-.07.12 0 .04 0 .08.03.13a9.05 9.05 0 0 0 .3.36Zm.77.5a.67.67 0 0 1-.26.15.41.41 0 0 1-.24-.01.8.8 0 0 1-.25-.15 3.42 3.42 0 0 1-.53-.58.76.76 0 0 1-.13-.26.36.36 0 0 1 .02-.23c.03-.07.1-.15.19-.23.1-.08.18-.12.26-.14a.41.41 0 0 1 .24.01.7.7 0 0 1 .25.16 3.44 3.44 0 0 1 .53.57l.13.26c.02.08 0 .15-.02.23a.64.64 0 0 1-.19.23Zm-.73-1.6.33-.36 1.01.54-.72-.87.33-.37 1.34 1.08-.2.22-1.16-.94.95 1.18-.14.15-1.37-.7 1.16.94-.2.22-1.33-1.08Zm1.8-1 .06-.08a.87.87 0 0 0 .05-.1.2.2 0 0 0 .03-.1.15.15 0 0 0-.03-.07.32.32 0 0 0-.1-.09.34.34 0 0 0-.1-.04h-.09a.18.18 0 0 0-.07.05.64.64 0 0 0-.06.08l-.08.12.39.23Zm-.81-.1.31-.47c.03-.05.07-.1.11-.13a.38.38 0 0 1 .34-.11c.07 0 .15.04.24.1.09.04.15.1.2.15.03.05.06.1.07.16.01.06 0 .12-.01.18a.89.89 0 0 1-.11.21l-.1.16.61.37-.18.28-1.48-.9Zm1.61-.6.14-.25-.77-.24.63.48Zm-.96-.42.2-.37 1.74.46-.16.29-.44-.14-.18.32.36.28-.16.29-1.36-1.13Zm.37-.6.11-.32 1.3-.02-1.15-.39.1-.28 1.66.55-.11.3-1.31.03 1.16.39-.1.28-1.66-.55Zm1.5-1.2-1.12.18.1-.35.76-.07-.63-.42.09-.34.88.68.7.17-.09.32-.7-.18Zm-.74-1.5.03-.33 1.47.1.04-.58.28.02-.07.9-1.75-.11Zm.07-.99v-.33l1.76.06-.01.33-1.75-.06Zm0-.43-.03-.49 1.13-.28-1.16-.14-.04-.5 1.75-.1.02.28-1.51.1v.01l1.54.2.01.2-1.5.4v.01l1.52-.1.03.3-1.75.11Zm-.14-1.43-.07-.32 1.71-.36.08.32-1.72.36Zm.09-.84.1.34-.28.07-.27-1 .27-.07.1.34 1.42-.35.09.32-1.43.35Zm-.47-.63-.35-.8.26-.11.21.5.39-.15-.2-.47.25-.1.2.46.46-.18-.22-.5.26-.11.35.81-1.61.65Zm.76-1.83-.06-.1a.35.35 0 0 0-.1-.13.22.22 0 0 0-.15-.03 5.04 5.04 0 0 0-.69.3.47.47 0 0 0-.13.1.18.18 0 0 0-.04.12c0 .04.02.1.04.15l.07.11 1.06-.52Zm-1.15.94-.2-.38a1.87 1.87 0 0 1-.14-.3.34.34 0 0 1 .02-.23.5.5 0 0 1 .19-.2 3.06 3.06 0 0 1 .73-.37c.1-.03.18-.05.25-.05s.13 0 .18.03c.06.02.1.05.14.09a5.5 5.5 0 0 1 .2.31l.18.33-1.55.77Zm-24.37.45a1 1 0 0 0-.36.13.55.55 0 0 0-.27.4.3.3 0 0 0 .06.26c.05.08.13.12.25.14.1 0 .2-.02.27-.07.06-.04.14-.13.26-.26l.2-.23a.95.95 0 0 1 .17-.16.54.54 0 0 1 .71.1c.1.11.13.25.11.41 0 .07-.04.15-.08.24a.99.99 0 0 0-.08.15c0 .04 0 .06.02.08a.2.2 0 0 0 .07.04v.06l-.68-.01.01-.07c.2-.03.36-.09.45-.18.1-.1.15-.2.16-.3a.32.32 0 0 0-.04-.22.26.26 0 0 0-.2-.11.32.32 0 0 0-.22.04.92.92 0 0 0-.2.2l-.2.23a1.6 1.6 0 0 1-.34.3c-.1.06-.21.08-.33.06a.53.53 0 0 1-.39-.22.62.62 0 0 1-.1-.46.6.6 0 0 1 .1-.28l.07-.16c0-.04 0-.06-.03-.08a.2.2 0 0 0-.06-.03v-.06l.68-.01-.01.07Zm-.81 2.17c0 .1.02.18.05.21.02.03.1.05.21.06l1.4.07c.1 0 .18 0 .22-.04.03-.03.06-.1.07-.2h.06l-.09 1.56-.45-.01v-.08c.15-.01.24-.05.28-.1.04-.04.07-.15.08-.32l.02-.4-.01-.09-.09-.02-.7-.03-.02.45c0 .13 0 .21.05.25.03.03.11.07.23.1v.06l-.73-.03v-.07c.13-.02.21-.04.25-.08.04-.03.07-.1.08-.23l.02-.46-.77-.03c-.07 0-.1 0-.12.05l-.03.33c-.01.2 0 .34.04.44.04.1.15.19.33.27v.1l-.53-.16.09-1.6h.06Zm2.2 3.41c0 .1 0 .22-.02.33l-.03.2.03.07a.2.2 0 0 0 .09.05v.06l-.7.1v-.07c.13-.06.24-.12.32-.2a.6.6 0 0 0 .19-.5.62.62 0 0 0-.32-.48 1.17 1.17 0 0 0-.73-.13 1 1 0 0 0-.65.27.64.64 0 0 0-.19.55.8.8 0 0 0 .17.4c.05.08.12.15.22.23l-.05.06a1.03 1.03 0 0 1-.49-.74.94.94 0 0 1 .24-.78c.18-.19.42-.3.72-.33.3-.03.56.04.79.2.24.17.37.4.4.71Zm.43 2.13-.06.01a.5.5 0 0 0-.12-.2c-.04-.02-.12-.01-.23.02l-.96.26a.91.91 0 0 0-.35.16c-.14.12-.17.29-.1.5.06.23.2.36.38.4.1.02.26 0 .45-.05l.78-.22c.17-.04.26-.09.3-.14.02-.04.03-.12 0-.23l.06-.01.2.65-.05.02a.49.49 0 0 0-.15-.2c-.06-.02-.16 0-.32.04l-.78.21c-.21.06-.38.07-.52.04-.24-.05-.42-.23-.51-.54-.1-.3-.05-.54.12-.71.1-.1.24-.16.43-.21l.94-.26c.1-.03.17-.07.2-.1a.63.63 0 0 0-.01-.23l.05-.02.25.8Zm-.07 2.57c.1.19.2.32.27.38.13.12.28.14.45.07.17-.08.25-.19.25-.34a.71.71 0 0 0-.09-.3.42.42 0 0 0-.08-.13l-.1.01-.7.3Zm-1.16-.1c.06.1.1.15.15.16.05 0 .13-.01.25-.06l1.23-.54c.1-.04.16-.08.18-.12a.42.42 0 0 0-.04-.22l.06-.02.36.74c.07.16.12.3.13.42a.45.45 0 0 1-.3.48.47.47 0 0 1-.39.01.82.82 0 0 1-.32-.29l-.45.86a.4.4 0 0 0-.05.15c0 .04 0 .1.02.15l-.05.02-.2-.43.56-1.02-.08-.15-.56.24c-.1.05-.17.1-.18.14-.02.04 0 .11.04.22l-.05.02-.37-.75.06-.02Zm1.3 2.44c.08.1.14.15.19.17.04.01.11-.01.21-.08l1.16-.73c.1-.06.15-.11.15-.16.01-.05-.02-.12-.09-.23l.05-.03.52.73-.05.03c-.07-.1-.14-.15-.19-.16-.04-.02-.12 0-.21.07l-1.16.73c-.1.06-.15.12-.15.16 0 .05.02.12.09.23l-.05.03-.52-.73.05-.03Zm3.09.87-.04.04a.46.46 0 0 0-.13-.1c-.03-.03-.06-.02-.1 0a.18.18 0 0 0-.03.04.31.31 0 0 0-.03.08l-.22.76.83-.12a.3.3 0 0 0 .08-.02l.04-.02c.03-.03.04-.06.02-.1a.53.53 0 0 0-.09-.12l.04-.03.46.48-.05.04a.32.32 0 0 0-.15-.09 1.2 1.2 0 0 0-.4 0l-.84.11-.46.38c-.09.08-.13.14-.13.19 0 .04.05.12.13.22l-.04.03-.63-.68.04-.03c.1.1.17.14.22.15.05 0 .13-.04.23-.13l.4-.33.2-.67.1-.46a.27.27 0 0 0-.07-.2l.04-.04.58.62Zm.88 2.87a1 1 0 0 0-.05.36c.01.18.1.32.24.42a.4.4 0 0 0 .27.08c.1-.01.18-.06.24-.14a.33.33 0 0 0 .07-.27 1.77 1.77 0 0 0-.11-.33l-.12-.28a.89.89 0 0 1-.06-.22.43.43 0 0 1 .09-.32c.1-.12.21-.2.36-.21a.6.6 0 0 1 .43.11c.06.04.11.1.17.18l.11.14.08.03a.2.2 0 0 0 .08-.04l.05.03-.34.55-.06-.05c.07-.18.1-.33.05-.45a.55.55 0 0 0-.2-.28.37.37 0 0 0-.22-.07.26.26 0 0 0-.2.1.28.28 0 0 0-.07.2c0 .08.03.16.08.27l.12.28c.07.18.11.32.11.43 0 .1-.03.2-.1.3a.5.5 0 0 1-.4.2.72.72 0 0 1-.48-.14.9.9 0 0 1-.2-.2l-.12-.15c-.03-.02-.06-.03-.08-.02a.2.2 0 0 0-.06.04l-.06-.04.32-.55.06.04Zm1.58 1.77c.1.05.18.07.22.06.05 0 .1-.06.16-.15l.72-1.13c.06-.09.08-.15.07-.2-.01-.04-.06-.1-.16-.16l.03-.04 1.43.8-.23.37-.07-.03c.05-.13.06-.22.04-.28-.02-.06-.11-.13-.27-.22l-.37-.2c-.03-.03-.06-.04-.08-.03-.02 0-.04.02-.06.06l-.36.56.41.24c.12.06.2.09.25.07a.52.52 0 0 0 .2-.15l.07.04-.38.58-.06-.04c.04-.1.06-.18.05-.23-.01-.05-.08-.11-.19-.17l-.41-.24-.4.63c-.04.05-.04.09 0 .11.02.03.12.1.28.19.18.1.33.16.44.17a.6.6 0 0 0 .4-.14l.08.04-.4.36-1.44-.82.03-.05Zm3.28.58c.22.07.37.1.48.1.18 0 .3-.08.37-.25.07-.15.05-.29-.07-.4a.8.8 0 0 0-.27-.16.42.42 0 0 0-.16-.04c-.02 0-.04.03-.06.07l-.29.68Zm-.92.68c.12.04.2.04.24.02.04-.02.08-.09.13-.2l.5-1.2c.04-.09.05-.16.04-.2-.02-.04-.08-.08-.18-.13l.02-.05.8.3c.17.06.3.13.4.22.18.15.22.33.14.54a.43.43 0 0 1-.28.26.9.9 0 0 1-.44 0l.3.92.08.13a.4.4 0 0 0 .12.1l-.02.04-.47-.17-.33-1.1-.17-.06-.23.54c-.04.1-.05.17-.03.21.02.04.09.09.2.14l-.03.05-.8-.3.01-.06Zm3.74-.8-.02.04a.67.67 0 0 0-.16-.01c-.05 0-.08.03-.1.07l.01.1.05.24.25 1.1.68-1a1.48 1.48 0 0 0 .1-.19c.02-.05 0-.1-.04-.13a.49.49 0 0 0-.15-.04l.02-.06.62.13v.05a.3.3 0 0 0-.16.02.6.6 0 0 0-.2.2l-1.04 1.48-.05-.01-.39-1.74a.86.86 0 0 0-.1-.28.28.28 0 0 0-.15-.1l.01-.04.82.16Zm1.77 2.23c.12 0 .2-.02.24-.05.04-.03.07-.1.07-.21l.05-1.31c0-.11-.01-.18-.05-.22-.04-.03-.12-.05-.24-.06V42l.92.03v.05c-.13 0-.2.02-.25.05-.04.03-.06.1-.06.2l-.05 1.32c0 .11 0 .19.05.21.03.03.11.05.24.07v.05l-.93-.03v-.05Zm2.8-1.93c.1 0 .22 0 .35.03l.2.03c.03 0 .06-.01.08-.03a.12.12 0 0 0 .05-.08h.07l.08.66h-.07a.95.95 0 0 0-.2-.3.65.65 0 0 0-.53-.2.67.67 0 0 0-.51.3 1 1 0 0 0-.16.68.9.9 0 0 0 .27.61c.16.15.35.21.58.2.16-.01.3-.06.44-.14l.24-.21.06.05a1.08 1.08 0 0 1-.8.44 1.1 1.1 0 0 1-.82-.25.97.97 0 0 1-.33-.68.98.98 0 0 1 .23-.74c.19-.22.44-.34.76-.37Zm1.91 1.76c.11-.04.18-.07.2-.1.03-.04.03-.11 0-.22l-.33-1.28c-.02-.1-.05-.16-.1-.19-.04-.02-.11-.02-.23 0l-.01-.06 1.61-.37.12.41-.08.02c-.06-.12-.12-.2-.18-.22-.06-.03-.18-.02-.36.02l-.4.1c-.05 0-.08.02-.09.04v.08l.17.64.47-.11c.13-.03.2-.07.23-.11.03-.05.04-.13.03-.24l.08-.02.17.66-.08.02a.6.6 0 0 0-.14-.2c-.04-.03-.13-.03-.26 0l-.47.11.18.71c.02.06.05.09.09.09l.34-.06c.2-.05.36-.1.44-.17.1-.07.15-.2.19-.37l.08-.02-.01.52-1.65.37-.01-.05Zm4.01-2.65a.4.4 0 0 0-.38-.25c-.1 0-.2.02-.33.07-.06.02-.1.04-.1.06v.08l.33.71.1-.03.05-.02a.78.78 0 0 0 .29-.18c.1-.12.12-.26.04-.44Zm-.63 1.73c.1-.05.16-.1.18-.14.01-.04 0-.12-.06-.23l-.53-1.18c-.04-.1-.09-.15-.13-.17a.54.54 0 0 0-.23.03l-.02-.05.76-.3c.24-.1.45-.14.62-.1.17.04.29.13.35.28.09.18.08.34-.03.48-.1.14-.27.26-.48.34a4.43 4.43 0 0 1-.23.1l.22.49c.05.1.1.16.14.17.04.01.13 0 .25-.04l.02.05-.8.32-.03-.05Zm2.23-2.13c.19-.12.31-.22.37-.3.1-.14.1-.29 0-.44-.1-.14-.22-.2-.38-.18a.81.81 0 0 0-.3.12.4.4 0 0 0-.13.1c0 .02 0 .05.03.08l.41.62Zm.05 1.1c.1-.07.15-.12.15-.17 0-.04-.02-.11-.1-.22l-.72-1.08c-.06-.08-.11-.13-.16-.14-.05-.01-.12 0-.22.06l-.03-.05.73-.44c.15-.1.3-.15.42-.17.24-.05.42.02.54.2.09.13.1.25.07.37a.8.8 0 0 1-.26.34l.97.3.16.03a.4.4 0 0 0 .15-.05l.03.05-.43.25-1.14-.38-.15.09.33.49c.07.1.12.14.17.15.04 0 .12-.02.22-.07l.04.05-.74.44-.03-.05Zm2.03-2.48c.22.23.43.35.63.38.2.03.38-.02.52-.14.13-.12.2-.27.19-.46-.01-.2-.13-.4-.36-.64-.23-.24-.44-.36-.64-.39a.63.63 0 0 0-.5.15.55.55 0 0 0-.2.47c.02.19.13.4.36.63Zm-.26.22a.97.97 0 0 1-.32-.75.91.91 0 0 1 .34-.65c.2-.18.44-.27.71-.26.3 0 .55.12.78.35.23.24.33.5.3.77a.92.92 0 0 1-.33.64c-.21.18-.46.27-.74.26a1.1 1.1 0 0 1-.74-.36Zm2.47-1.77c.15.05.27.07.38.07a.6.6 0 0 0 .47-.2c.06-.08.1-.16.09-.25 0-.09-.05-.17-.13-.24a.38.38 0 0 0-.28-.08c-.06 0-.18.04-.36.09l-.3.1-.24.04a.5.5 0 0 1-.34-.1.5.5 0 0 1-.2-.36.51.51 0 0 1 .15-.4.8.8 0 0 1 .2-.15c.1-.05.15-.08.16-.1a.1.1 0 0 0 .03-.07.19.19 0 0 0-.04-.07l.04-.04.56.35-.05.05a.74.74 0 0 0-.48-.07.59.59 0 0 0-.3.17.32.32 0 0 0-.1.2c0 .08.04.15.1.2.07.05.14.07.21.07a1 1 0 0 0 .29-.05l.3-.1c.2-.06.35-.09.46-.09a.5.5 0 0 1 .31.12c.13.1.2.23.2.39 0 .15-.05.3-.18.44a.91.91 0 0 1-.24.18l-.15.1c-.03.03-.03.05-.03.08l.04.06-.04.05-.57-.34.04-.05Zm1.24-3.14c-.17-.08-.32-.07-.46.04a.8.8 0 0 0-.2.26c-.03.05-.05.09-.04.1 0 .02.02.04.06.06l.73.35.06-.09.02-.04a.7.7 0 0 0 .1-.31c0-.16-.08-.28-.27-.37Zm.7 1.72c.04-.1.05-.18.03-.22-.01-.04-.08-.09-.2-.14l-1.2-.59c-.1-.04-.17-.06-.22-.05-.04.01-.1.07-.15.16l-.06-.03.38-.7a.99.99 0 0 1 .42-.44.5.5 0 0 1 .45 0c.2.1.3.23.3.4a.99.99 0 0 1-.13.55 4.08 4.08 0 0 1-.12.2l.51.25c.1.05.18.07.22.05.05-.02.1-.08.17-.18l.05.03-.4.73-.05-.02Zm1.2-2.1c.04-.11.05-.18.04-.22-.02-.04-.08-.09-.19-.13l-1.27-.52c-.1-.04-.18-.06-.23-.04-.04.02-.09.07-.14.17l-.06-.02.66-1.44.42.16-.03.07c-.14-.03-.24-.03-.3 0a.83.83 0 0 0-.2.28l-.16.37c-.02.04-.02.07-.01.08 0 .02.03.03.07.05l.64.26.19-.42c.05-.11.07-.2.05-.24a.6.6 0 0 0-.2-.17l.04-.06.66.27-.03.06a.55.55 0 0 0-.25 0c-.05 0-.1.07-.16.19l-.19.42.71.29c.06.02.1.02.13-.01.02-.03.08-.13.15-.3.09-.19.13-.33.13-.43 0-.1-.07-.23-.2-.37l.03-.07.43.32-.67 1.46-.06-.02Zm.18-3.17c.05-.2.07-.36.06-.45-.02-.17-.13-.28-.31-.33-.18-.04-.31 0-.42.12a.72.72 0 0 0-.13.27c-.02.09-.03.14-.02.16 0 .02.03.04.08.05l.74.18Zm.83.78c.02-.11.02-.18 0-.22-.03-.04-.11-.07-.24-.1l-1.3-.33c-.11-.02-.19-.03-.23 0-.04.02-.08.08-.12.18l-.05-.01.22-.8a1 1 0 0 1 .18-.39.5.5 0 0 1 .55-.2c.15.04.25.12.3.23a.7.7 0 0 1 .06.42l.93-.4c.06-.02.1-.05.14-.08a.37.37 0 0 0 .08-.13l.05.01-.13.46-1.12.45-.03.16.6.15c.1.03.18.03.22 0 .04-.02.08-.09.12-.19l.05.01-.22.8-.06-.02Zm.66-2.67c0-.12 0-.2-.03-.24-.02-.03-.1-.06-.22-.07l-1.38-.13c-.12-.01-.2 0-.23.03-.04.04-.07.11-.08.23h-.06l.09-.87h.06c-.01.12 0 .2.03.24.03.04.1.06.22.07l1.38.13c.12.01.2 0 .23-.03.04-.03.06-.1.08-.23h.06l-.1.88h-.05Zm-1.83-1.85.1-1.66h.53v.08c-.18.02-.29.06-.34.11-.06.05-.09.16-.1.34v.16l1.6.08c.12 0 .2-.01.22-.04a.44.44 0 0 0 .07-.23H46l-.05.86h-.05c0-.13-.03-.2-.06-.24-.03-.03-.11-.05-.25-.06l-1.56-.08-.01.17c-.01.16 0 .27.06.33.04.07.15.12.31.15v.08l-.53-.05Zm-.1-3.1h.05c0 .07.02.12.04.16.01.03.04.04.09.04a.2.2 0 0 0 .05-.01l.07-.05.65-.5-.75-.36a.3.3 0 0 0-.08-.02h-.04c-.05 0-.08.02-.09.07a.5.5 0 0 0 0 .14h-.05l-.07-.64h.05c.01.06.04.1.08.15.06.07.17.14.32.22l.76.36.6-.06c.12 0 .2-.03.22-.07.03-.04.04-.13.03-.26h.06l.1.9h-.06c-.02-.13-.05-.21-.1-.24-.03-.03-.12-.04-.25-.02l-.54.05-.56.44c-.19.15-.31.26-.36.32a.27.27 0 0 0-.08.2l-.05.01-.1-.82Z" fill="#FCFCFD"/></svg>