<!-- by TradingView --><svg width="56" height="56" viewBox="0 0 56 56" xmlns="http://www.w3.org/2000/svg"><path fill="#FEF200" d="M0 0h56v56H0z"/><path d="m30 35-1-6h1l.5 4 .5-4h1l.5 4 .5-4h1l-1 6h-1l-.5-4-.5 4h-1ZM36 35c-1.05 0-1.5-.72-1.5-1.7V30.6c0-.97.5-1.61 1.5-1.61s1.5.66 1.5 1.61v2.68c0 .98-.45 1.71-1.5 1.71Zm0-.77c.47 0 .5-.58.5-.93v-2.73c0-.51-.14-.8-.5-.8-.37 0-.5.27-.5.8v2.73c0 .37 0 .93.5.93ZM38.04 35v-6h1.7c1 0 1.21.74 1.21 1.62 0 .5-.06 1.06-.61 1.2.44.07.66.18.66.68V35h-1v-2c0-.41-.17-.8-.6-.82l-.4-.02V35h-.96Zm.96-3.53h.48c.49 0 .52-.54.52-.9v-.04c0-.43-.09-.77-.58-.77H39v1.71ZM42 35v-6h1v5.17h1.5V35H42ZM45 35v-6h1.58c.94 0 1.42.66 1.42 1.58v2.64c0 .98-.4 1.78-1.45 1.78H45Zm1-.76h.43c.45 0 .57-.36.57-.75v-2.9c0-.6-.18-.83-.6-.83H46v4.48Z" fill="#EC1D23"/><path fill-rule="evenodd" d="M27 28h-8.95c.1.9.33 2.12.74 3.42 2.3-.76 5.1-1.36 8.21-1.42v-2Zm0 3c-3 .06-5.7.64-7.9 1.37l.08.2a12.96 12.96 0 0 0 3.43 5.22 15.8 15.8 0 0 1 4.39-.78v-6Zm0 7a14.86 14.86 0 0 0-7.49 2.37l.16.1a15 15 0 0 0 7.33 2.5V38Zm-8.34 1.74c.67-.48 1.66-1.06 2.89-1.56a14.39 14.39 0 0 1-3.39-5.48 21.78 21.78 0 0 0-3.7 1.76 15 15 0 0 0 4.2 5.28Zm-5.45-5.64v.02A16 16 0 0 0 28 44V28h16a16 16 0 1 0-30.8 6.1Zm.85-.56c.92-.56 2.2-1.2 3.78-1.79a20.2 20.2 0 0 1-.8-3.75H13a15 15 0 0 0 1.06 5.54ZM13.03 27h3.98c.05-1.35.32-2.63.7-3.81a26.7 26.7 0 0 1-3.35-1.43A15 15 0 0 0 13.03 27Zm1.77-6.13c.79.4 1.9.9 3.26 1.38.97-2.39 2.4-4.28 3.5-5.41-.93-.35-1.7-.73-2.26-1.06a15 15 0 0 0-4.5 5.09Zm5.44-5.7a15 15 0 0 1 15.33-.12c-.62.38-1.54.84-2.72 1.21a16.02 16.02 0 0 1-5.34.73 17.62 17.62 0 0 1-7.27-1.83Zm16.25.47c-.57.4-1.44.89-2.58 1.31a15.18 15.18 0 0 1 3.2 5.57 26.97 26.97 0 0 0 4.09-1.65 14.98 14.98 0 0 0-4.7-5.23Zm5.15 6.13c-.99.5-2.45 1.14-4.24 1.71.37 1.37.54 2.6.59 3.52h4.98a15 15 0 0 0-1.33-5.23ZM37 27c-.05-.84-.21-1.98-.55-3.23C34.02 24.47 31.1 25 28 25v2h8.99Zm-17.97-4.44a16.05 16.05 0 0 1 3.6-5.37c1.26.39 2.74.7 4.38.78v6.01a30.85 30.85 0 0 1-7.98-1.42ZM28 24v-6c1.87 0 3.5-.3 4.86-.7a13.95 13.95 0 0 1 3.3 5.51A30.03 30.03 0 0 1 28 24Zm-9.33-.5c2.34.74 5.22 1.37 8.33 1.48V27h-8.99c.05-1.24.3-2.41.66-3.5Z" fill="#2E3192"/><path d="M31.5 43c-1.04 0-1.5-.67-1.5-1.69v-2.55c0-1.08.4-1.76 1.5-1.76.98 0 1.5.57 1.5 1.56V39h-1v-.38c0-.59-.13-.85-.5-.85-.41 0-.5.31-.5.85v2.74c0 .36.02.87.5.87.39 0 .5-.27.5-.89V41h1v.33c0 1.06-.43 1.67-1.5 1.67Zm1.78 0 1.07-6h1.51L37 43h-1.07l-.2-1.17h-1.17L34.38 43h-1.1Zm1.4-2h.9l-.47-2.78L34.7 41Zm2.82 2v-6h1v5.17h2V43h-3Zm3.5 0v-6h1v5.17h2V43h-3Z" fill="#EC1D23"/></svg>