<!-- by TradingView --><svg width="56" height="56" viewBox="0 0 56 56" xmlns="http://www.w3.org/2000/svg"><path fill="#F0F3FA" d="M0 0h56v56H0z"/><path d="M37.38 19.46v-.02c-.31-.56-.63-1.1-.98-1.6.3-.56.6-1.1.91-1.63.16-.27.34-.65.29-.96-.11-.7-.76.19-.89.36-.33.47-.63.97-.9 1.49a296.53 296.53 0 0 0-1.08 2.1c-.53 1.04-1.12 2.17-1.78 3.4-.35.64-.68 1.29-1.06 1.92-.1.17-.16.34-.18.5-.02.14.03.41.18.48.33.14.94-.92 1.07-1.15.82-1.51 1.61-3.04 2.4-4.57l.08.09a8.3 8.3 0 0 1 .89 1.33c-1.54 2.38-3.2 4.68-4.57 7.16-.72 1.32-1.44 2.64-2.14 3.96l-4.14 7.77a62.85 62.85 0 0 1-2.15 4.04c-.4.7-.94 1.52-1.7 1.87h-.03c-.1-.5.12-1.07.34-1.52l.84-1.78c.8-1.63 1.83-3.64 2.69-5.5a187.2 187.2 0 0 0 4.63-10.79c1.18-2.97 2.12-5.51 3.26-8.25l.01-.02c.35-.82.7-1.64 1.07-2.46l.01-.03c.24-.52.53-1.05.9-1.6a5.34 5.34 0 0 1 1.84-1.84c.95-.52 2.01-.03 2.2 1.06a6.26 6.26 0 0 1-.65 3.53c-.4.91-.85 1.8-1.36 2.66Z"/><path d="M34.45 15.65v.03a81.07 81.07 0 0 0-1.1 2.48 11.13 11.13 0 0 0-5.95-1.4c-2.15.1-4.3.65-6.33 1.34 0-.01 0-.03-.02-.04.04 0 .07-.02.1-.03v-.01h-.04l-1.9-5.27v-.03l.05-.04v-.05a26 26 0 0 1 8.36-.18c2.5.43 4.88 1.57 6.83 3.2Z" fill="#009FE4"/><path d="M19.27 12.63v.03l-.01.02-.04.04a.02.02 0 0 0 0 .03l1.89 5.27h.04a.27.27 0 0 1-.1.03v.01c.02.01.02.03.02.04l-.94.33c0-.03-.02-.04-.04-.03l-.2.07c-.02-.08-.05-.13-.05-.23l-.01-.01h-.01l-.02-.01-1.88-5.24v-.02a.1.1 0 0 1 .08-.07v-.04l1.27-.22Z" fill="#53BEED"/><path d="M18 12.85v.04a.1.1 0 0 0-.08.07v.02l1.88 5.24h.02l.02.02c0 .1.03.15.05.22l.2-.06c.02-.01.03 0 .04.03l-1.13.4v-.02c0-.01 0-.02-.01-.01l-.23.09h-.02a.03.03 0 0 1-.02-.01v-.01a209.21 209.21 0 0 0-.5-1.39c.01-.06-.01-.08-.03-.12a2821.2 2821.2 0 0 0-1.48-4.15v-.02h-.01v-.01l.12-.04v-.04l1.19-.25Z" fill="#91D6F3"/><path d="m16.81 13.1.02.02-.01.02-.12.04.01.02v.03l1.48 4.13c.02.04.04.06.03.12v.03a209.21 209.21 0 0 1 .52 1.38h.02l.23-.1.01.02v.03l-.8.3c0-.07-.07-.02-.1-.01h-.01a.1.1 0 0 0-.04-.09l-.01-.02-2.01-5.6v-.08a.08.08 0 0 1 .07-.01l.02-.01a.1.1 0 0 0 .01-.05l.68-.17Z" fill="#B4E3F7"/><path d="M16.13 13.27a.1.1 0 0 1-.01.05h-.02c-.03 0-.05 0-.07.02v.09a2493.64 2493.64 0 0 1 2.07 5.7c.03-.01.1-.06.1 0l-.83.35h-.02L15 13.61v-.03l1.13-.32Z" fill="#EAF7FD"/><path d="M35.81 17.1c.24.19.42.48.59.74.35.5.67 1.04.97 1.6l.02.02c2 3.85 2.53 8.18 2.6 12.46h-.04c-.03.03-.05.07-.1.1a211.68 211.68 0 0 0-.82.49.47.47 0 0 0-.11.07c0 .02-.01.03-.02.02 0-2.17-.25-4.34-.72-6.44-.4-1.74-.97-3.4-1.84-4.97a8.32 8.32 0 0 0-.97-1.41 7.26 7.26 0 0 0-.62-.63l1.06-2.05Z" fill="#009FE4"/><path d="m39.98 31.92.02.75v.19-.06c0-.02-.01-.02-.01 0v.06h-.04a6.22 6.22 0 0 1-.68.41c-.09.05-.22.14-.35.2a.04.04 0 0 1-.05-.03v-.02c.01-.03 0-.05-.01-.06l.04-.76.01-.02h.01a.46.46 0 0 1 .11-.06v-.01l.83-.5c.04-.02.06-.06.1-.1l.02.01Z" fill="#53BEED"/><path d="M40 32.86v.75l-.01.41c-.04.03-.06.08-.04.15a.02.02 0 0 1-.01.02c-.02.03-.03.05-.06.06l-.8.47a.36.36 0 0 1-.17.07.1.1 0 0 0-.07.03 10.31 10.31 0 0 1 .03-1.38.04.04 0 0 0 .03.02h.02c.13-.05.26-.14.35-.19a8.3 8.3 0 0 0 .69-.42l.02.01c0 .01 0 .01 0 0a1.75 1.75 0 0 1 .01-.06l.01.06Z" fill="#91D6F3"/><path d="m39.99 34.02-.04 1.12c-.01.01-.02.02-.04.01h-.01c0 .06 0 .11-.02.16h-.03l-.73.42a1.37 1.37 0 0 0-.07-.11v-.03s0-.02-.02-.03v-.01c0-.05-.02-.08-.06-.08-.06-.22-.1-.43-.13-.65a.1.1 0 0 1 .07-.03c.07-.01.1-.03.17-.07l.8-.47c.03-.01.03-.03.06-.05a.02.02 0 0 0 0-.03c0-.07 0-.12.05-.15Z" fill="#B4E3F7"/><path d="M39.95 35.14a8.1 8.1 0 0 1-.08.98c-.04.24-.1.48-.1.73a.37.37 0 0 0 0 .12h-.01a5.32 5.32 0 0 1-.8-1.5c.05 0 .07.03.06.08l.01.01c.01.01.02.02.01.03v.03l.07.11h.01l.73-.42h.02c.03-.05.03-.1.03-.15l.01-.01.04-.01Z" fill="#EAF7FD"/></svg>