<!-- by TradingView --><svg width="56" height="56" viewBox="0 0 56 56" xmlns="http://www.w3.org/2000/svg"><path fill="#F0F3FA" d="M0 0h56v56H0z"/><path d="M23.34 12H31v5h-5.6a2.37 2.37 0 0 0-2.4 2.35V22h8v4h-8v11.03h-5V17.24c0-2.9 2.39-5.24 5.34-5.24Z" fill="#695A78"/><path fill-rule="evenodd" d="M33 36V20h-5v21h16v-5H33Zm10 1H32V21h-3v19h14v-3Z" fill="#30273D"/><path fill-rule="evenodd" d="M13 22h9a5 5 0 0 1 3.34 8.72A5.54 5.54 0 0 1 22.46 41H17v-3h4a3 3 0 0 0 0-6h-4v5h-4V22Zm9 7h-5v-4h5a2 2 0 1 1 0 4Z" fill="#30273D"/></svg>