<!-- by TradingView --><svg width="56" height="56" viewBox="0 0 56 56" xmlns="http://www.w3.org/2000/svg"><path fill="#F0F3FA" d="M0 0h56v56H0z"/><path d="M14 16v20l2.95-3.53L27 16.6l8.27 13.53L41 32.47V16H14Z" fill="#F36523"/><path fill-rule="evenodd" d="M14 35.55V39h2.36l5.17-7.82c3.94.09 8.36.91 12.92 2.99L37.64 39H40v-1.68A40.7 40.7 0 0 1 42.27 39L47 35.33c-2-1.46-6.02-3.8-10.85-5.45L27.6 16h-1.18l-8.37 13.19A28.46 28.46 0 0 0 8 34.1c1.9-1.06 4.9-2.14 8.6-2.65L14 35.55Zm9.55-7.42c.85-.1 1.59-.13 2.18-.13 1.66 0 3.32.17 4.94.45L27 22.9l-3.45 5.23Z" fill="#093B82"/></svg>