<!-- by TradingView --><svg width="56" height="56" viewBox="0 0 56 56" xmlns="http://www.w3.org/2000/svg"><path fill="#F0F3FA" d="M0 0h56v56H0z"/><path d="m8.23 32.08-2.09.48-.08.97L4 34l.77-6.47 2.26-.52 3.8 5.42-2.06.47-.54-.82Zm-.84-1.3-.99-1.52-.14 1.79 1.13-.26ZM15.14 27.79a.79.79 0 0 0-.38-.24 1.28 1.28 0 0 0-.54-.03c-.38.06-.66.21-.84.48-.17.26-.23.6-.17 1.01.07.47.24.81.51 1.01.27.2.65.27 1.13.21.46-.06.81-.29 1.04-.68l-1.6.21-.2-1.34 3.26-.43.28 1.9a3.27 3.27 0 0 1-2.75 2.04 3.7 3.7 0 0 1-1.78-.16 2.8 2.8 0 0 1-1.29-.95 3.3 3.3 0 0 1-.63-1.54c-.08-.6-.03-1.15.16-1.65.2-.5.51-.92.96-1.24.45-.33 1-.53 1.66-.62a3.45 3.45 0 0 1 2.12.3c.58.32.97.8 1.16 1.44l-2.1.28ZM22.38 31.22l-1.34-2.13.13 2.2-2.02.1-.37-6.1 3-.16c.52-.03.97.03 1.35.19.38.15.67.38.87.67a1.93 1.93 0 0 1 .05 2.11c-.22.33-.55.57-1 .74l1.55 2.26-2.22.12Zm-1.42-3.4.8-.05c.19 0 .33-.06.42-.14.1-.1.14-.23.13-.4a.5.5 0 0 0-.18-.38c-.1-.08-.25-.12-.44-.11l-.8.04.07 1.04ZM29 25v6h-2v-6h2Z" fill="#009237"/><path d="m32.7 26.46-1.72-.1.06-.85 4.48.28-.06.84-1.71-.1-.33 4.79-1.05-.07.33-4.79ZM36.86 25.92l3.56.4-.1.84-2.51-.28-.18 1.43 2.12.24-.1.84-2.13-.24-.2 1.66 2.59.3-.1.83-3.65-.41.7-5.6ZM41.25 29.3c.34-1.82 1.74-2.7 3.22-2.45.73.12 1.26.55 1.56.98l-.67.55c-.25-.34-.57-.6-1.03-.67-.95-.16-1.78.5-2 1.74-.24 1.27.25 2.14 1.23 2.3.52.1.97-.07 1.36-.36l.44.71c-.57.45-1.23.63-2 .5-1.47-.24-2.45-1.46-2.1-3.3ZM47.6 27.52l1.03.23-.55 2.2 2.34.53.55-2.2 1.03.22-1.37 5.5-1.03-.24.61-2.43-2.34-.53-.6 2.44-1.03-.23 1.36-5.5Z" fill="#E75B1D"/><path d="M51.5 36c-12.82-1.71-38.61-1-47 0 5.38-1 12.82-3 24.21-3 9.2 0 18.83 2 22.79 3Z" fill="url(#at2r32c4x)"/><path d="M26.88 22.06V24h-.38v-1.94c0-2.9 1.37-4.36 2.84-5.82a157.1 157.1 0 0 0 4.93-5.33c-.82.65-2.86 2.23-4.43 3.4-1.58 1.16-2.96 4.03-3.45 5.33-1.48-4.37 1.48-7.28 4.92-8.73 2.76-1.16 4.1-2.43 4.44-2.91.98 5.33-.99 8.73-4.44 10.67-2.75 1.55-4.1 2.9-4.43 3.4Z" fill="url(#bt2r32c4x)"/><defs><linearGradient id="at2r32c4x" x1="9.25" y1="36" x2="49.13" y2="36.53" gradientUnits="userSpaceOnUse"><stop stop-color="#1A85C3"/><stop offset=".26" stop-color="#C6DFEF"/><stop offset=".44" stop-color="#1A85C3"/><stop offset=".58" stop-color="#C6DFEF"/><stop offset=".78" stop-color="#A6C7E3"/><stop offset="1" stop-color="#3082B3"/></linearGradient><linearGradient id="bt2r32c4x" x1="35.25" y1="8.97" x2="27.07" y2="23.14" gradientUnits="userSpaceOnUse"><stop stop-color="#97CE18"/><stop offset="1" stop-color="#00782B"/></linearGradient></defs></svg>