<!-- by TradingView --><svg width="56" height="56" viewBox="0 0 56 56" fill="none" xmlns="http://www.w3.org/2000/svg">
<rect width="56" height="56" fill="#F0F3FA"/>
<path d="M19.871 16.0001C19.871 16.0001 11.957 31.6667 8 39H13.5214L20 25.7334V34H17V39H25V33.4L29.3955 39H40.1622C44.248 36.4933 45.0854 30.4 44.9934 27.6667C44.9934 21.0667 40.8665 15.9752 35 16.0001V20.6001C36.7254 20.6001 40 22.4667 40 27.6667C40 31.8267 37.7926 33.4222 36.7803 34H31.9491L27.808 26.6667L33.3295 16.0001H31.1209H28.9123L24 23.6877V16.0001H19.871Z" fill="url(#paint0_linear_229_26679)"/>
<defs>
<linearGradient id="paint0_linear_229_26679" x1="9.58741" y1="38.3333" x2="44.1652" y2="38.3333" gradientUnits="userSpaceOnUse">
<stop stop-color="#092449"/>
<stop offset="0.378472" stop-color="#0C4288"/>
<stop offset="0.477046" stop-color="#0D4A98"/>
<stop offset="1" stop-color="#092244"/>
</linearGradient>
</defs>
</svg>
