<!-- by TradingView --><svg width="56" height="56" viewBox="0 0 56 56" xmlns="http://www.w3.org/2000/svg"><path fill="#F0F3FA" d="M0 0h56v56H0z"/><path d="m24.05 17 6.57 18.92a.05.05 0 0 1-.05.07h-6.81a.17.17 0 0 1-.16-.12L17.04 17h7.01Z" fill="#010101"/><path d="m32.14 17 6.55 18.86a.1.1 0 0 1 0 .1.1.1 0 0 1-.1.04h-6.96a.19.19 0 0 1-.1-.04.18.18 0 0 1-.07-.09L24.91 17h7.23Z" fill="#582311"/><path d="M40.44 17 47 35.9a.06.06 0 0 1-.04.09H39.9c-.03 0-.06 0-.09-.02a.14.14 0 0 1-.05-.07L33.21 17h7.23ZM14.2 36H9.1a.1.1 0 0 1-.1-.08.1.1 0 0 1 0-.05l7.31-18.43a.1.1 0 0 1 .1-.07.1.1 0 0 1 .08.07l2.03 5.52a.1.1 0 0 1 0 .06L14.3 35.93a.1.1 0 0 1-.1.07ZM16.67 33.84l1.98-4.77c0-.02.02-.04.03-.05a.1.1 0 0 1 .12 0c.02.01.04.03.04.05l1.96 4.77a.12.12 0 0 1-.01.1.11.11 0 0 1-.04.05.1.1 0 0 1-.05.01h-3.93a.1.1 0 0 1-.09-.05.12.12 0 0 1 0-.11Z" fill="#010101"/></svg>