<!-- by TradingView --><svg width="56" height="56" viewBox="0 0 56 56" xmlns="http://www.w3.org/2000/svg"><path fill="#F0F3FA" d="M0 0h56v56H0z"/><path d="m22.83 26.34-8.02-8.72c2.56-1.75 4.6-1.94 5.3-1.82l4.5 9.65-1.78.9Z" fill="url(#a1t1ok43i)"/><path d="M40.82 24.47c-2.35-2.26-6.87-4.83-8.84-5.82l-2.13 7.56 2.87 2.25 8.1-3.99Z" fill="url(#b1t1ok43i)"/><path d="M11 20.66c.4-.12.86.3 1.14.43l8.02 6.34-.26 1.13c-2.52-1.12-7.7-3.4-8.27-3.58-.72-.23-1.74-.72-1.62-1.39.11-.67.6-2.82 1-2.93Z" fill="#95CDEF"/><path d="m21.4 28.64-10.08-4.52c.16-2.57 1.3-4.06 1.84-4.48l8.92 7.7a2.06 2.06 0 0 0-.68 1.3Z" fill="url(#c1t1ok43i)"/><path d="m24.9 26.9-6.25-12.65c7.14-1.3 15.54 2.76 19.1 5.18l-7.65 9.08a7.33 7.33 0 0 0-5.2-1.62Z" fill="url(#d1t1ok43i)"/><path d="m36.3 21.14-5.15 6.11-1.3-1.02 2.13-7.56c1 .5 2.64 1.4 4.32 2.47Z" fill="url(#e1t1ok43i)"/><path d="m34.37 26.14-4.8 3.99 1.25 1.22 7.55-.55c-.61-1.9-1.55-2.77-2.13-3.57a3.5 3.5 0 0 0-1.87-1.1Z" fill="url(#f1t1ok43i)"/><path d="m32.52 32.99-.74-2.03 11.13-2.21c.22.35.72 1.49 1.02 3.2.29 1.7-.36 3.1-.72 3.6L32.5 33Z" fill="url(#g1t1ok43i)"/><path d="m37.95 29.74-6.17 1.22.11.3 6.48-.46c-.13-.4-.27-.75-.42-1.06Z" fill="#66A820"/><path d="M35.92 26.89a3.8 3.8 0 0 0-1.55-.75l-2.24 1.85.6.47 3.19-1.57Z" fill="#6FB8D4"/><path d="M30.25 40.49 28 34.69l2.02-.98 5.51 4.98c-1.29 1.47-4.06 1.8-5.28 1.8Z" fill="url(#h1t1ok43i)"/><path d="m31.65 33.96-1.03.82L37.49 41a6.85 6.85 0 0 0 4.3-3.42l-10.14-3.62Z" fill="url(#i1t1ok43i)"/><defs><linearGradient id="a1t1ok43i" x1="18.04" y1="20.69" x2="21.01" y2="19.26" gradientUnits="userSpaceOnUse"><stop offset=".4" stop-color="#02A4AB"/><stop offset="1" stop-color="#6CC66A"/></linearGradient><linearGradient id="b1t1ok43i" x1="31.98" y1="27.37" x2="39.76" y2="26.3" gradientUnits="userSpaceOnUse"><stop stop-color="#DFECB8"/><stop offset="1" stop-color="#079FD7"/></linearGradient><linearGradient id="c1t1ok43i" x1="14.27" y1="25.11" x2="15.8" y2="22.94" gradientUnits="userSpaceOnUse"><stop stop-color="#1A8FCE"/><stop offset="1" stop-color="#25B6D7"/></linearGradient><linearGradient id="d1t1ok43i" x1="19.62" y1="17" x2="35.78" y2="19.46" gradientUnits="userSpaceOnUse"><stop stop-color="#149E42"/><stop offset="1" stop-color="#D5E532"/></linearGradient><linearGradient id="e1t1ok43i" x1="30.63" y1="25.72" x2="36.3" y2="23.2" gradientUnits="userSpaceOnUse"><stop stop-color="#AFC363"/><stop offset="1" stop-color="#128758"/></linearGradient><linearGradient id="f1t1ok43i" x1="30.52" y1="29.97" x2="36.79" y2="29.78" gradientUnits="userSpaceOnUse"><stop stop-color="#85DBEC"/><stop offset="1" stop-color="#9DD6E6"/></linearGradient><linearGradient id="g1t1ok43i" x1="33.23" y1="31.98" x2="43.49" y2="32.15" gradientUnits="userSpaceOnUse"><stop stop-color="#DFDE14"/><stop offset="1" stop-color="#78A627"/></linearGradient><linearGradient id="h1t1ok43i" x1="29.32" y1="36.88" x2="35.32" y2="38.78" gradientUnits="userSpaceOnUse"><stop offset=".36" stop-color="#37A62C"/><stop offset=".92" stop-color="#37A62C" stop-opacity="0"/></linearGradient><linearGradient id="i1t1ok43i" x1="30.76" y1="34.95" x2="39.87" y2="34.86" gradientUnits="userSpaceOnUse"><stop stop-color="#BAD00E"/><stop offset="1" stop-color="#279D2F"/></linearGradient></defs></svg>