<!-- by TradingView --><svg width="56" height="56" viewBox="0 0 56 56" xmlns="http://www.w3.org/2000/svg"><path fill="#F0F3FA" d="M0 0h56v56H0z"/><path d="M16 21h3.56L23 33H13l2.27-8h1.88L16 21Zm.8 10h2.07l-1.04-3.63L16.8 31ZM22 21h8v3h-8zm5 4h-3v8h6v-3h-3v-5Zm12.75-4H31v12.05h3V24h4.51c.83 0 1.49.63 1.49 1.4v7.65h3v-8.93A3.19 3.19 0 0 0 39.75 21Z" fill="#1D1917"/><path d="M35 25h3v8h-3v-8Z" fill="#1D1917"/><path fill="#69804D" d="M23 11h10v3H23zm-3 30h16v3H20zm-.93-26-.21 1h18.3l-.2-1h-17.9Zm-.64 3 .21-1h18.73l.21 1H18.43Zm-.22 1L18 20h20l-.2-1H18.2ZM40.5 35l-.26-1H15.77l-.25 1h24.97Zm.25 1H15.27l-.24 1H41l-.25-1Zm-26.22 3 .25-1h26.47l.25 1H14.53Zm-.24 1-.25 1H42l-.25-1H14.29Z"/></svg>