<!-- by TradingView --><svg width="56" height="56" viewBox="0 0 56 56" xmlns="http://www.w3.org/2000/svg"><path fill="#F0F3FA" d="M0 0h56v56H0z"/><path d="M38 34.8V38h4v-3.2c-.12-.27-.67-.8-1.94-.8s-1.9.53-2.06.8Z" fill="#1B8D47"/><path d="M18 34.8V38h-4v-3.2c.12-.27.67-.8 1.94-.8s1.9.53 2.06.8Z" fill="#039A4E"/><path d="M42 20.77 28 11l-14 9.77L19.3 36h-3.8v4H40v-4h-3.3L42 20.77Z" fill="url(#aeajmfphz)"/><path d="M23.48 20.97c-1.7 0-2.32 1.96-2.42 2.94.99 1.1 2.95 3.3 2.94 3.24-.02-.06 1.85-2.13 2.14-3.48.3-1.36-.53-2.7-2.66-2.7Z" fill="#A45729"/><path d="M25.17 27.6c.47-.17.66-.43-.64-2.22-.02-.02-.16.06-.35.18-.43.26-1.13.69-1.34.49-.17-.16-.09-.05-.06.15 0 .05.03.13.06.22.12.35.3.9.06 1.02a.04.04 0 0 0-.02.02c-.11.26-.14.4.04.67.02.03.1.18.03.2h-.02c-.08-.02-.07 0-.03.03a.7.7 0 0 1 .08.07c.05.06.12 0 .17-.04a.24.24 0 0 1 .07-.05c.16-.08.28-.04.4 0 .16.05.3.1.46-.3.08-.21.3-.24.49-.25a4.1 4.1 0 0 0-.18.36.14.14 0 0 1-.13 0l-.35.48-.03.07a.3.3 0 0 1-.02.06c-.04.06.46.06.5.06.32-.03.48-.45.62-.8a2.4 2.4 0 0 1 .2-.42Z" fill="#C2732C"/><path d="M29.55 29.04c.02 0 .03.02.04.03-.08 0-.14 0-.21-.03a1.8 1.8 0 0 1-.44-.27.29.29 0 0 0-.28-.06c-.25.1-.5.16-.77.2-.1.02-.22.07-.34.08-.2.02-.39.07-.59.06-.5-.04-.92-.06-1.23-.07-.13 0-1.6.94-1.7 1.2-.14.34-.43.8-.93.72h-.03c-.1.04-.33.1-.42.04-.2-.15-1.53-.65-1.47-.84 3.42-2.24 5.22-.82 7.54-1.56.17-.06.33.22.46.28.12.07.26.19.37.22Z" fill="#0C4019"/><path d="M22.7 22.2c-.18-.05-.26-.17-.4-.25a2.57 2.57 0 0 0-.17-.1c.18-.04.21-.2.39-.21l.03-.01c.54-.46 1.42-.67 1.87-.4.09.05.08.2.11.3l.02.01c.08.05.46.24.5.34l-.01.03c-.05.09-.14.13-.2.2-.11.11-.14.09-.25.13h-.04a.87.87 0 0 1-.6-.72s-.56.4-.77.42c-.17 0-.3.21-.48.25Z" fill="#D4882D"/><path d="m22.13 21.85-.05-.04c.1-.15.23-.2.32-.32l.03-.02c.16-.07.26-.1.37-.22a.34.34 0 0 1 .2-.1c.13-.04.25-.08.38-.09.17 0 .34 0 .5.03.1.01.13.07.2.13v.02l-.01.02h-.02a.9.9 0 0 1-.47-.1h-.03c-.11 0-.2.04-.3.07-.1.02-.2.09-.29.12-.17.06-.29.17-.41.28h-.13l-.02.02a.44.44 0 0 1-.27.2Z" fill="#FCBB2D"/><path d="m22.08 21.81.05.04.18.1c.13.08.22.2.4.24.14.04.12-.06.2-.07l.3-.03c.1-.01.18-.07.28-.08h.02v.04a.27.27 0 0 0-.07.11l-.04.03c-.17.23-.32.38-.64.37l-.7-.12h-.01v-.01l-.01-.07v-.01l.02-.02a.58.58 0 0 1 .28-.08h.01l.01-.01v-.02l-.01-.01-.19-.1-.05-.04-.27-.07h-.02v-.02c-.01-.05 0-.08.05-.09.02 0 .02 0 .03-.02l.1-.17h.02l.06.11Z" fill="#6E361E"/><path d="M31.3 22.62c-.03.03-.04.07-.08.08-.33.1-.75.18-1.1.2-.12 0-.51.12-.63.12-.67-.06-1-.47-1.22-.4-.23.08-.5.05-.7.2-.08.2-.59 1.24 1.89 1.3.96.02 1.93-.02 2.9-.02.15 0 .54.2.65.17.27-.08.54.54.52.7a.86.86 0 0 1-.45.65h-.1c-.04-.04-.03-.08.02-.12.09-.06.26-.2.25-.3.21-.64-.51-1-1.13-1-.48 0-.91.06-1.39.08-.48.01-.98.03-1.46.02a7.4 7.4 0 0 1-1.24-.1c-.53-.13-.65-.16-.88-.43l-.12-.1c-.07-.2-.22-.4-.17-.63.28-.35.45-.75 1-.85.17-.03.28-.06.5-.08.15-.01.32-.08.46-.14.26-.1.57-.07.85-.07.64.02 1.13.4 1.62.72Z" fill="#85481E"/><path d="M25.37 23.11c.23.07.17.5.16.49l-.16-.1c-.14.4-.45 1-.44 1.18 0 .2-.29.89-.46 1-.05.05-.76.2-.78.24-.07.13-.16-.36.2-.87 1.2-1.62-.34-1.6-.68-2.42v-.04c0-.02.02-.05.05-.07.36-.27.04-.34.29-.37h.03c.3.3.37.59.9.4.31-.1.56.2.54.4 0 .03.3.17.35.16Z" fill="#C2732C"/><path d="M24.3 24.87c-.08.15-.42.19-.4.37 0 .12-.01.3-.17.33-.01 0-.02 0-.02-.02-.09-.84-.2.19-.47.2-.1.01-.17-.01-.21-.07.06-.15-.28-.48-.32-.63-.45-1.18-.8-2.43-1.03-1.71a.73.73 0 0 0-.14.17c-.04.07-.17.14-.11.23 0 .01.01.02.02 0l.3-.16a.04.04 0 0 1 .03 0h.01v.02l-.01.11-.02.03a.86.86 0 0 1-.38.18c-.06-.16-.03-.29.08-.39l.01-.02v-.02h-.04l-.07.02.14-.22a.1.1 0 0 0 .03-.07l-.01-.01h-.18l-.02-.02v-.04a.05.05 0 0 0 0-.06v-.03l.13-.44c.02-.08.4-.35.5-.29.15.11-.36.45-.32.62h.02c.15-.1.28-.24.38-.4a.1.1 0 0 1 .05-.03c.02-.01.04-.02.06-.01.14.02.32.06.46.05h.16c.32.01.47-.14.64-.37l.07-.02c.01 0 .02 0 .02.02.02.11-.12.25-.23.33-.03.02-.05.05-.05.07v.04l.03.03.03.01a.1.1 0 0 0 .04 0c.03 0 .06 0 .09.03l.03.02c.28.04 1.5.71 1.1.96 0 .37.1.63-.23 1.19Z" fill="#EB9E39"/><path d="M25.86 22.23c-.07 0-.11.28-.34.33-.35.06-1.05-.18-1.22-.43a.08.08 0 0 0-.03-.02c-.06-.03-.48.13-.44.26.03.12.27.23.4.23a.5.5 0 0 0 .18-.05c.1-.05.6.04.6.19l-.02.35c.14.04.63.29.6.48 0 .1-.2-.06-.22-.07a.68.68 0 0 0-.24-.11h-.01c-.16.06-.09.56-.1.69-.07.45-.35 1.2-.76 1.48-.01 0-.43.5-.26.47.05 0 .09-.05.12-.08.18-.18.39.08.5-.16.44.02.4.75.52 1.08 0 .03-.02.3.04.26.22-.12.4-.53.47-.72l.04-.2.04-.2c-.06-.3 0-.4.2-.62.08-.38.64-.7.22-1.07-.18-.16-.02-.78-.03-.94-.01-.19 0-.42.02-.69a.77.77 0 0 0-.1-.46c-.05-.07-.08.02-.18 0Z" fill="#0C4019"/><path d="M30.5 22.35c.06 0 .46.21.32.27-.6.23-1.94-.2-2.65-.15.14-.07.3-.07.41-.1.3-.05.62-.02.91-.02.53.02.58.12 1 0Z" fill="#B86724"/><path d="M31.3 22.62c.06.04.08.1.06.16 0 .01 0 .02-.02.02-.7.22-1.65.4-2.38.18-.5-.15-1.44-.64-1.47.36-.1-.23-.06-.33.07-.52.1-.08.27-.15.4-.18.07 0 .17-.04.3-.08.19-.07.78.3 1.02.36.44.1.88-.06 1.31-.1a3.19 3.19 0 0 0 .66-.13l.04-.07Z" fill="#0C4019"/><path d="M27.5 23.34c.19.26.54.41.9.46l.3.03c.03.03.03.06.02.08l-.03.01h-.09l-.42-.03a1.75 1.75 0 0 1-.48-.13c-.1-.04-.1-.06-.18-.12-.44-.38-.25-.9.29-1.07h.05c-.01.02.01.06-.02.07-.3.1-.5.37-.35.7Z" fill="#AF5726"/><path d="m25.98 23.29.02.43-.23.07c-.05.01-.07 0-.07-.05v-.04c-.01-.27-.02-.12-.13-.39a.8.8 0 0 0-.35-.32l-.01-.03c0-.05 0-.1.04-.14l.04-.02c.38 0 .61.16.7.49Z" fill="#D4882D"/><path d="M22.82 25.53c.1.08.7-.52.83-.32a.2.2 0 0 1 .04.12.55.55 0 0 0 0 .24c0 .11.02 1.18-.55.65-.24 0-.36-.35-.3.44.03.27-.2.83-.58.77 0-.07-.6-.09-.56-.15-.14-.93-.4-.36-.45-1.58l-.19-.98c-.04-.06.14-.58 0-.54.04-.54.22-.32.36-.96.04-.13.44-.22.57-.27.07-.04.24.84.26.92.16.6.17 1.18.57 1.66Z" fill="#6E361E"/><path d="M22.37 23.81c0-.02-.07-.13-.04-.15.06-.06.18.2.26.09.04-.04.02-.14.02-.2h.02c.08 0 .15 0 .22-.03.26-.04-.19-.4-.15-.39.06.02.16.01.21.05.3.19.3.3.35.58.02.07.03.34-.11.35l-.02-.01-.07-.17c-.01-.04-.3.04-.37.02-.08-.03-.16-.02-.23-.07a1.4 1.4 0 0 1-.09-.07Z" fill="#3A1810"/><path d="m21.5 23.29-.14.22a.8.8 0 0 0-.16.42s0 .02.02.02c.04.01.1 0 .16-.03.3-.06.71-.56.07-.17h-.02c-.25-.43.8-.44.19.15a12.8 12.8 0 0 0-.4 1.47c-.01-.13-.08-.21-.13-.33a.43.43 0 0 0-.04-.09c-.1-.38-.03-.73-.01-1.13 0-.19.08-.35.22-.48.05-.06.13-.08.24-.05Z" fill="#B86724"/><path d="m27.03 23.67.12.1c.42.48 1.54.5 2.12.53.95.03 1.9-.1 2.85-.1.33 0 .44.05.71.15.17.07.3.17.38.32-.15-.06-.3-.15-.44-.18a2.82 2.82 0 0 0-.99-.11c-.9.11-1.85.08-2.76.09a3.94 3.94 0 0 1-1.62-.4c-.03-.03-.04-.08-.1-.08l-.04-.01c-.04-.05-.28-.3-.26-.33 0 .02.02.03.02.02Z" fill="#0C4019"/><path d="M34.02 24.54c.1.18.14.35.14.55-.01.4-.19.63-.5.92-.05.1.03.16.05.24.14.46.08.42.02 1-.03.27-.08.47.04.75.06.13.15.34.29.42.06.04.23.12.3.13.17 0 .28 0 .39.14 0 .14 0 .27-.13.42.03.22-.22.69-.24.94l-.09.35c-.02.08-.1.14-.14.2-.22.21-1 .22-1.2.18-.59-.11-.27-.16-.53-.17l-.12-.06a.36.36 0 0 1-.1-.23c.02-.22.18-.48.45-.5.19 0 .64.14.56-.22-.22-.94-1.35-.69-2.25-1.58.8-.98 0-1.19-.39-.42-.11-.06-.24-.18-.37-.19-1.3-.12-1.11.46-2.46 1.13-1.1.55-1.85-.02-2.8.63-.5.36-.95.96-1.46 1.28-.58.35-.68.33-.8.24-.02-.03-.16-.13-.2-.22a.8.8 0 0 1-.02-.32c.03-.2.39-.21.55-.3l.1-.05c.1-.08 1.05-.75.4-.99-.05-.02-.02-.14 0-.17.03.04.06.06.1.06.23-.12.43-.42.55-.64h.03l.07.08-.35.49s-.09.15-.03.15c.47.06.72-.18.92-.5a.97.97 0 0 0 .15-.26c.04-.15.12-.26.2-.39.46-.71.43-1.4.83-2.04.03-.06.47-.77.36-.83.06-.01.08.03.13.04.8.13 1.59.53 2.37.7.86.18 1.47-.14 2.26-.2.25-.02.56.03.82-.02.21-.04 1.05.42 1.1.28.82-.5.24-1.4-.62-1.4-.38 0-.81-.06-1.2-.06-.9-.08-1.47.1-2.67-.06.03 0 .17-.1.19-.13.01-.02 0-.05-.02-.08.64.02 1.27.01 1.9-.03.08 0 .2 0 .3-.03.34-.09.8-.07 1.15-.04.14 0 .3-.03.47 0 .22.02.48.07.67.18.27.14.6.3.83.63Z" fill="#D4882D"/><path d="M25.56 24.19c0 .3.04.61.1.91 0 .06-.05.16-.14.14-.04-.02-.07-.1-.07-.14a4.06 4.06 0 0 0-.1-.77l-.1-.44c-.03-.11.3.14.3.3Z" fill="#EEA329"/><path d="M25.96 24.27v.52c.01.13-.01.29-.05.41-.01.01-.05.04-.06.01a.74.74 0 0 1-.03-.23c0-.22-.17-.5-.12-.78.04-.05.16-.14.24-.11.01 0 .02 0 .02.02v.16Z" fill="#F6B036"/><path d="M25.64 24.34c.01-.05.03-.1.06-.14-.05.28.11.56.12.78 0 .05-.01.3.09.22.3 1.55-.1.29-.47 1.25l-.1.07c-.09.4-.45-.86-.47-.98 0-.02-.05-.27.03-.24.03 0 .25.36.27.27.02-.08-.08-.2-.08-.3 0-.1-.04-.19-.04-.28 0-.04-.04-.9.12-.76 1.28 1.1-.33.8.47.11Z" fill="#C2732C"/><path d="m25.96 24.27.04.03.02.02c.05.28.02.55-.09.81-.02-.1.04-.22.03-.34v-.52Zm.37.18c.08.08.18.11.3.1.06.05.14.09.22.11 1.34.37 1.84.76 3.37.61.48-.05.93-.19 1.42-.17.36 0 .67-.05 1 .13h-.02c-.06.11.3.35.36.44-.11.02-.31-.15-.4-.2-.49-.3-1.45.18-2.16-.04-.1.08-.35.05-.47.07-1.04.2-2.13-.29-3.1-.56a.37.37 0 0 0-.21 0c-.11.03-.24-.29-.25-.32h-.01c-.02-.02-.02-.04-.01-.07v-.01l-.01-.01a.07.07 0 0 1-.03-.08Z" fill="#B86724"/><path d="M26.34 24.76c.02.01.02.03 0 .05-.01 0-.02.01-.01.02v.06a3.54 3.54 0 0 1-.51.9v.09c.06.13.02.34 0 .48v.03c-.03.02-.04.04-.02.07v.03c-.08.19-.19.43-.34.54h-.03c-.03 0-.04-.03-.04-.08l.13-.18.01-.03c0-.06.06-.1.08-.14.09-.2.13-.4.12-.6-.06-.29 0-.39.2-.61a1 1 0 0 0 .19-.3.17.17 0 0 1 .07-.1l.02-.02c.02-.05.03-.1.01-.16v-.02h.01a.1.1 0 0 1 .1-.03Z" fill="#E39432"/><path d="M21.71 26.88a.56.56 0 0 1-.3.5c-.13-.11-.09-.29-.1-.42 0-.38-.02-.8.1-1.19l.07-.12c.03-.18.1-.34.15-.52.02-.1.12-.12.2-.08.23.1.15.58.07.74-.05.1 0 .19-.02.28-.05.27-.15.53-.17.8Z" fill="#D4882D"/><path d="M30.96 28.02c-.4-.44-1.23-.54-1.5-.88-.83-.25-2.15.35-2.85.78-.3.18-.69.04-1.01.1-.24.05-.21-.13-.16-.26.36-.82.58-1.8 1.34-2.43a.96.96 0 0 1 .62-.13c.38.07.84.33 1.21.38 1.07.13 2.1-.41 3.07-.15.32.08 1.2.14 1.4.33.1.1.01.07.08.41.12.67.18 1.53.15 2.21 0 .05-.6.23-.67.28-.66.33-1.26-.3-1.68-.64Z" fill="#EEA329"/><path d="M24.77 25.43c.16.75.35.8.37 1.25 0 .07.01.13.03.19.05.16-.02.11-.2.2 0-.04.08-.24-.03-.2v-.06l-.09-.5c-.2-.42-.24-.45-.08-.88Z" fill="#85481E"/><path d="M22.78 26.2c.06.28.23.62.32.85.34.8-.28 2.68-.55-.36-.01-.2.01-.47-.09-.64-.02-.04-.02-.1-.05-.13a.44.44 0 0 1-.08-.28l.01-.03c.02-.02.06-.01.07.02.03.06.04.11.08.17l.29.4Zm2.36.1c0-.02-.26-.6-.1-.59.11.02.24.23.27.32.03.08.16.5-.01.52-.1 0-.14-.2-.16-.25Z" fill="#F6B036"/><path d="m22.31 27.22-.2.1c0 .01-.02.02-.03.01h-.17l-.03-.01a.22.22 0 0 1-.07-.2l.03.1c0 .01 0 .02.02.03l.03.01h.03l.02-.03a.6.6 0 0 0 .04-.23l.01-.03c.1-.09.07-.17.11-.27.09-.18.07-.4.07-.58 0-.07-.02-.13-.03-.2l-.02-.01h-.02l-.01.02-.03.03v-.07c0-.03.02-.06.04-.07h.03c.02.06.06.1.11.13l.01.03c0 .07.03.12.1.17v.02c0 .07.06.1.07.16.04.12.11.64-.02.72l-.02.02-.07.15Z" fill="#C2732C"/><path d="M24.91 26.36v.45c-.1.07-.2-.27-.21-.3-.02-.15-.1-.36-.02-.5 0-.02.05-.17.1-.12l.02.02c.02.1.02.21.06.31l.05.14Z" fill="#F6B036"/><path d="M22.06 25.9v.06c-.03.29-.18.52-.23.8-.02.13-.03.25-.02.37-.02.2.1.2.27.2h.03l.2-.1a.47.47 0 0 0-.05.2.1.1 0 0 1-.05.06l-.02.01v.01l-.07.42a.24.24 0 0 1-.12.12c-.1-.2-.22-.4-.36-.58-.03-.12-.23-.06-.24-.1.15-.56.44-.9.66-1.48Z" fill="#AF5726"/><path d="M21.81 27.13c0-.12 0-.24.02-.36.02-.13.1-.27.14-.4 0-.04.09-.52.16-.46l.01.02c0 .06.04.12.03.19 0 .19.02.4-.07.58-.08.18-.09.35-.16.53l-.02.02-.03.01-.03-.01-.02-.03-.03-.1Zm2.4.37c-.06-.1-.11-.2-.15-.32-.11-.3-.13-.6-.04-.89 0-.03.05-.04.08-.01l.01.02.02.64v.02c.08.08.24.52.2.62v.02c-.04.03-.1-.08-.12-.1Z" fill="#FCBB2D"/><path d="m22.67 27.06.06.28c.14 1 .46-.02 1 .87l.03.02c.3.1.36-.39.35-.52.01-.05-.02-.17.03-.2h.02c.02.02.18.45.29.24.05-.11.06-.2.07-.3.01-.1.2-.25.28-.32.02.23-.1.36-.17.58l-.22.42-.02.02c-.3.12-.08-.25-.43.22-.98 1.3-.34.56-.98 1.17-.5-.15-.7-1.24-.6-1.4.11-.16.07-.34.08-.51v-.22a.2.2 0 0 1 .1-.16c.01 0 .02 0 .03-.02l.08-.17Z" fill="#85481E"/><path d="M30.96 28.02c.18.18.28.22.46.34.33.24.9.45 1.34.4.28-.03.7.23.57.5 0 .02 0 .02-.02.03a.23.23 0 0 0-.1.07v-.06c-.03-.1.03-.1.09-.14l.01-.02c-.01-.43-.92-.27-1.14-.23-.08 0-.15-.03-.23-.02a2.41 2.41 0 0 1-.54-.22l.02-.1c-.1-.15-.28-.31-.37-.4-.64-.7-2.25.35-2.92.5 0 0-.54-.03-.55-.02-.23.05-.43.05-.55.02.07-.06.09-.1.01-.18a3.18 3.18 0 0 0-.24-.2c-.24-.18.32-.18.4-.22.34-.17.77-.27 1.15-.35.1-.02.3.01.33-.1l.01-.02c.15-.14.62-.24.83-.24.05-.07.1-.08.19-.05.15.05.32.08.49.1.32.03.58.41.76.61Z" fill="#C2732C"/><path d="M24.59 27.72c.03-.1.13-.29.26-.33h.04c.08.03.04.1 0 .14-.08.07-.15.1-.18.22-.06.2-.19.42-.19.4 0-.06-.03-.16.02-.2l.02-.03.03-.2Z" fill="#E39432"/><path d="M23.44 27.79c0 .01-.02 0-.02-.02 0-.01-.2-.3.05-.18.06.03.1.02.12-.04.02-.04 0-.11.07-.15.02-.01.06 0 .07.02v.03c0 .08-.02.15.02.24.07.16.16.32.14.5 0 .02-.01.02-.03.02a.14.14 0 0 1-.11-.06 2.7 2.7 0 0 0-.3-.36Z" fill="#F6B036"/><path d="m31.25 28.6-.36-.2c-.11-.1-.26-.42-1.74 0-.08.03-.04.17 0 .21.2.16.26.3.4.43-.11-.03-.25-.15-.37-.22-.13-.06-.29-.34-.46-.28-.3.09-.6.2-.9.25a4.2 4.2 0 0 1-1.53.07c-1.44-.2-1.15.85-.51-.56l.3.32c.04.05.18-.02.13-.09-.57-.76.38.14.42.09.02-.03.02-.12.03-.16.01-.1 1.21.43 1.42.02.02-.04.17 0 .2 0 .35-.11 1.65-.95 1.96-.7.23.2.4-.06.81.38.09.1.27.26.37.41v.02c0 .04-.03.03-.03.04l-.14-.04Z" fill="#6E361E"/><path d="M33.77 28c.07.13.19.22.34.25.17.1.36.13.6.1l.08.1.05.15v.03a1.43 1.43 0 0 0-.07.23l-.02-.17c-.11-.13-.22-.13-.38-.14h-.02l-.02-.02h-.01a.8.8 0 0 1-.26-.11c-.14-.08-.23-.29-.3-.42Z" fill="#612801"/><path d="M25.78 28.3a2.2 2.2 0 0 1-.55.81c-.46.43-.94.67-1.48 1.19-.05.16-.22.18-.28.29l-.02.01h-.01a.85.85 0 0 1-.32.02c.1 0 .28-.13.36-.17a.51.51 0 0 0 .18-.26c.06-.14.12-.28.2-.41.09-.17.28-.32.5-.48.17-.11.36-.21.5-.34.27-.2.38.02.56-.32.1-.2.2-.26.31-.39.02-.02.05.04.05.05Z" fill="#B86724"/><path d="M34.1 28.25a.9.9 0 0 1 .6.1.82.82 0 0 1-.6-.1Z" fill="#608459"/><path d="M22.7 28.3c.1.06.14.15.09.26-.16.34-.04.63-.42.88-.18.11-.3.23-.54.25-.1 0-.35.1-.42.09.2-.47.95-.4 1.12-1.13 0-.02.02-.48.13-.38l.03.03Z" fill="#F6B036"/><path d="M22.7 28.3c.06.01.1.03.1.07.13.1.22.2.28.3.01.2-.01.4-.07.58-.2.54-.34.57-.03.29-.16.2-.36.23-.6.28-.17.04-.32.17-.34.32-.1-.42.03-.07-.46-.18-.09 0-.22-.13-.28.22l-.12-.08c-.06-.05-.08-.1-.08-.16a.93.93 0 0 1 .15-.4c.1-.16.35-.17.57-.17.43 0-.26.58.55.07.38-.25.26-.54.42-.88.04-.11.01-.2-.1-.26Z" fill="#C2732C"/><path d="m34.8 28.44.19.15.01.03c-.04.24-.2.55-.28.8l-.1.3c-.08.35-.06.65-.3.95-.18.24-.62.3-.93.31-.03 0-.05 0-.08.02-.07.02-.22-.1-.3-.1-.16-.04-.66-.16-.7-.35l.1.06c.13.03.22.08.3.13.08.03.19.04.31.02.28.16.57.04.82 0 .62-.08.54-.74.57-1.16l.01-.03a2 2 0 0 0 .33-.88l.02.17.07-.23c.02-.05-.03-.14-.05-.19Z" fill="#0C4019"/><path d="m31.22 29.67-.02.02c-.24.05-.47.33-.68.44-.35.18-.5.47-.86.63-.23.1-.55.14-.98.16a1.8 1.8 0 0 1-.81-.26c.02-.07.06-.32.12-.36H28c.12.1.24.55.25.1 0-.09-.25-.47.16-.38.32.08.6.14.9.01.15-.06.38-.13.47-.27.14-.23.3-.45.09-.65-.16-.16 0-.46.23-.59.21-.11.34-.01.5.11a.2.2 0 0 1 .06.07c.08.16.69.82.55.97Z" fill="#D4882D"/><path d="M23.5 28.64c-.2.51 1.22-.2-.4 1.16-.17.12-.6.12-.64.35a.8.8 0 0 0 .02.32c.07.19-.2.2-.2.12 0-.42.12-.37-.2-.4-.04 0-.06-.02-.04-.05.02-.15.17-.28.34-.32.24-.05.44-.08.6-.28.28-.28.33-.6.41-.95.08-.04.1-.05.12.05Z" fill="#F6B036"/><path d="m31.25 28.6.15.07c.17.1.35.17.54.22.08.04.16.06.23.07a7.82 7.82 0 0 0 .8.08l.07.04a.2.2 0 0 1-.05.12l-.02.01c-.3-.04-.62-.06-.9-.14a4.97 4.97 0 0 1-.74-.3c0-.07-.16-.14-.08-.18Z" fill="#0C4019"/><path d="M30 29.34c-.04.16-.13.28-.21.42-.09.14-.32.2-.47.27-.3.13-.58.07-.9 0-.13-.04-.17.05-.25.11-.05.05.25.46.07.49-.08 0-.21-.36-.25-.33-.06.04-.1.29-.12.36l-.16-.08a.49.49 0 0 1-.06-.1c-.05-.1.05-.34.1-.46.12-.32.46-.48.84-.35.11.04.23.06.34.06.29.01.56-.24.69-.45a.11.11 0 0 0 .01-.07c.37-.12.45-.13.37.13Z" fill="#F6B036"/><path d="M33.2 29.3c-.01-.08-.07-.15-.16-.22l-.06-.04-.03-.01a7.82 7.82 0 0 1-.78-.07.93.93 0 0 1-.23-.07c.08 0 .15.03.23.02.28-.05.58-.04.87-.04l.03.01c.11.08.24.1.24.26l-.01.02c-.06.05-.12.04-.1.14Z" fill="#85481E"/><path d="M31.14 29.31c.1.06.16.15.17.26 0 .11-.1.2-.21.28-.4.33-.78.42-1.18.8a.8.8 0 0 1-.33.25 1.1 1.1 0 0 1-.44.05c-.05 0-.11-.05-.19 0h-.03c-.15.02-.35.07-.53 0l-.27-.08c-.21-.06-.36-.16-.42-.3l.15.09c.1.06.18.1.27.1a1 1 0 0 0 .66.09l.1-.05c.39 0 .61.1.92-.2.17-.18.37-.39.57-.53.24-.18.94-.28.77-.67-.01-.04-.02-.07 0-.09Z" fill="#04340F"/><path d="M34.38 30.05a.64.64 0 0 1-.54.72c-.25.03-.54.15-.82-.01l-.3-.02c-.09-.05-.18-.1-.3-.13.07-.03.12-.07.14-.12l.02-.03c.16-.13.14.1.22.17l.1.09c.16.03.22-.16.23-.15l.08.1.03.02c.04.01.09.04.13.09.07.06.16-.05.25-.08h.03c.2.06.36.03.5-.1.05-.06.12-.12.14-.2l.09-.35Z" fill="#AF5726"/><path d="M30.6 28.63c-.15-.12-.28-.22-.49-.1-.23.12-.4.42-.23.58.06.05.03.2 0 .26-.04.23-.42.45-.63.57-.34.2-.64-.2-1.03-.08-.2.06-.18.27-.3.34l-.03.02-.1.13h-.03c-.05-.08-.02-.13 0-.2.05-.16.28-.4.47-.44a.8.8 0 0 1 .45.03c.13.04.35.1.49.05.25-.11.4-.21.5-.44.02-.04.05-.17-.04-.14.02-.07 0-.11-.04-.14a4.3 4.3 0 0 0-.64-.64c.2.05.17-.11.34-.17.61-.22 1.1-.44 1.52 0 0 .02.42 2.14-.2.37Z" fill="#B86724"/><path d="M22.27 23.57c-.03.13.19.7.27.68.06 0 .14-.09.19-.08.13.02-.05.77-.02.88.03.11.13.23.18.34l.09.1c.05.07.07.13.05.2-.08-.02-.3-.13-.32-.2a5.08 5.08 0 0 1-.57-2.25c0-.1-.05-.22.01-.34l.02-.02c.02-.01.05 0 .06.02.12.19 0 .46.04.67Z" fill="#FCBB2D"/><path d="M23.93 23.51c.09.05.16.13.22.2.01.03.02.03.04 0 .03-.05-.02-.22.13-.18a.1.1 0 0 1 .05.04c.03.04 0 .08-.03.11-.06.06-.14.18-.22.21l-.12.04c-.13.04-.36.01-.35.2 0 .02-.1.03-.1-.01l.03-.24a.13.13 0 0 0 .1-.1c0-.02 0-.02.02-.03.03 0 .26-.03.18-.1l-.03-.01c-.14-.02-.26-.12-.16-.24.18-.24.1.04.24.11Zm-.37 1.33c0-.1.05-.18.14-.24.02-.01 0-.04-.02-.04h-.01c-.03 0-.06 0-.07.02-.05.07-.13.06-.21.05-.02 0-.23.01-.16.05.2.13 0 .2-.08.29-.04.05.15.1.17.11.1.02.47-.05.56-.1.05-.03.01-.14-.06-.14h-.26Z" fill="#3A1810"/><path d="M33.35 29.85c0 .08-.1.11-.15.16l-.03.02-.28.06c-.1.03-.4.57-.43.24l-.02-.16v-.03a1 1 0 0 1 .14-.12.22.22 0 0 1 .13-.05c.1 0 .2.01.31.04.1.03.26-.09.33-.16Zm-9.92-2.71h.01c0 .03-.02.03-.05.02-.4-.19-.45-1.05-.32-.94a2.44 2.44 0 0 1 .36.92Z" fill="#F6B036"/><path d="M27.17 17c1.46 0 3.94.75 5 1.12l-.36.93c-.3-.25-1.56-.74-4.15-.74-2.59 0-5.06 1.8-5.97 2.69l1.22-1.95-1.91.38A9.26 9.26 0 0 1 27.17 17Z" fill="url(#beajmfphz)"/><path d="m32.64 18.47.19-.9c.03-.14-.03-.29-.15-.35-.13-.07-.28 0-.34.16l-.75 2.07c-.08.22.02.47.21.55.18.07.38-.05.44-.27l.12-.45 1.19.57c.18.08.39-.04.44-.26.04-.18-.03-.37-.17-.45l-1.18-.67Z" fill="url(#ceajmfphz)"/><path d="M22.84 19.07c.25-.2 3.9-1.88 8.18-.91-3.62-1.08-7.26.01-8.18.9Z"/><path d="m22 32 .24 1.15H23l-.62.7.24 1.15-.62-.7-.62.7.24-1.15-.62-.7h.76L22 32Z" fill="url(#deajmfphz)"/><path d="m25 32 .24 1.15H26l-.62.7.24 1.15-.62-.7-.62.7.24-1.15-.62-.7h.76L25 32Z" fill="url(#eeajmfphz)"/><path d="m28 32 .24 1.15H29l-.62.7.24 1.15-.62-.7-.62.7.24-1.15-.62-.7h.76L28 32Z" fill="url(#feajmfphz)"/><path d="m31 32 .24 1.15H32l-.62.7.24 1.15-.62-.7-.62.7.24-1.15-.62-.7h.76L31 32Z" fill="url(#geajmfphz)"/><path d="m34 32 .24 1.15H35l-.62.7.24 1.15-.62-.7-.62.7.24-1.15-.62-.7h.76L34 32Z" fill="url(#heajmfphz)"/><path d="M15 36h-5l1.25 2.09L10 40h5v-4Z" fill="#018E49"/><path d="M41 36h5l-1.25 2.09L46 40h-5v-4Z" fill="#02632E"/><path fill-rule="evenodd" d="m28 12.35-12.66 8.93 4.83 14.43h15.66l4.83-14.43L28 12.35Zm13 8.82L28 12l-13 9.17L19.97 36h16.06L41 21.17Z" fill="#E7AA4D"/><path fill="#DF912F" fill-opacity=".5" d="M18 37h20v2H18z"/><defs><linearGradient id="aeajmfphz" x1="20.43" y1="16.51" x2="38.63" y2="39.94" gradientUnits="userSpaceOnUse"><stop stop-color="#01AD50"/><stop offset="1" stop-color="#00642E"/></linearGradient><linearGradient id="beajmfphz" x1="22.63" y1="18.49" x2="32.17" y2="18.75" gradientUnits="userSpaceOnUse"><stop stop-color="#F9A83E"/><stop offset=".73" stop-color="#754F2A"/></linearGradient><linearGradient id="ceajmfphz" x1="32.78" y1="17.19" x2="32.78" y2="20.02" gradientUnits="userSpaceOnUse"><stop stop-color="#FEAC49"/><stop offset=".76" stop-color="#9A530C"/></linearGradient><linearGradient id="deajmfphz" x1="21.4" y1="32.84" x2="22.89" y2="34.02" gradientUnits="userSpaceOnUse"><stop stop-color="#E5B523"/><stop offset="1" stop-color="#DE742D"/></linearGradient><linearGradient id="eeajmfphz" x1="24.4" y1="32.84" x2="25.89" y2="34.02" gradientUnits="userSpaceOnUse"><stop stop-color="#E5B523"/><stop offset="1" stop-color="#DE742D"/></linearGradient><linearGradient id="feajmfphz" x1="27.4" y1="32.84" x2="28.89" y2="34.02" gradientUnits="userSpaceOnUse"><stop stop-color="#E5B523"/><stop offset="1" stop-color="#DE742D"/></linearGradient><linearGradient id="geajmfphz" x1="30.4" y1="32.84" x2="31.89" y2="34.02" gradientUnits="userSpaceOnUse"><stop stop-color="#E5B523"/><stop offset="1" stop-color="#DE742D"/></linearGradient><linearGradient id="heajmfphz" x1="33.4" y1="32.84" x2="34.89" y2="34.02" gradientUnits="userSpaceOnUse"><stop stop-color="#E5B523"/><stop offset="1" stop-color="#DE742D"/></linearGradient></defs></svg>