<!-- by TradingView --><svg width="56" height="56" viewBox="0 0 56 56" xmlns="http://www.w3.org/2000/svg"><path fill="#F0F3FA" d="M0 0h56v56H0z"/><path d="M9 33V20h12v13H9Z" fill="#D3D3D3"/><path d="M10.25 20c-.39.57-.27 1.24-.01 1.5.11.1.26.2.41.3.34.22.7.45.7.9v6.27l3.03.12c.02-.22.1-.58.17-.95.09-.45.18-.9.18-1.1V27c0-.44 0-1.07.77-.98.81.09.91.93.81 1.4-.08.38-.7 1.2-.99 1.56v.26h-5.08l.46.94h4.8c.9.34 2.82.97 3.39.8.71-.22 1.82-1.53 1.42-2.73l-.1-.3c-.32-.98-.47-1.42-.3-2.2.14-.56.69-1.9 1.09-2.84V20h-6.56c.02.09.07.18.13.27.12.19.35.4.6.64.41.4.88.85.98 1.28.13.56-.6 1.7-.99 2.2l-.43-.34-.03-.76a7.05 7.05 0 0 1 .03-1.8c.3-.72-.07-1.15-.53-1.49h-3.95Z" fill="#474747"/><path d="M10.18 30v-.73c.2 0 .74-.06 1.23-.23.49-.18.75-1.19.82-1.67l-.17-6.73-1.06-.36v-.26h6.58c.43.15 1.3.8 1.3 2.27a2.41 2.41 0 0 1-1.76 2.31c.76.36 2.3 1.41 2.3 2.72 0 1.31-1.91 2.68-3.16 2.68h-6.08ZM14 20.58v3.93c2.99 0 2.98-1.8 2.98-2.29v-.03c0-.44-.13-1.49-.97-1.61a9.4 9.4 0 0 0-2.01 0Zm0 4.57a96 96 0 0 1 0 3.83c.2.1.95.3 1.64.3s1.58-1.52 1.93-2.28c-.17-.54-.62-1.67-1.03-1.85-.4-.17-1.91-.07-2.54 0Z" fill="#fff"/><path d="M11.97 28.16c0 .77-1.12 1.05-1.68 1.1 1.33 0 2.12-.47 2.35-.7V21.5c0-1.3-1.25-1.54-1.87-1.5v.47c.87 0 1.16.47 1.2.7v7Zm3.54-8c-.45 0-1.07.3-1.32.45 1.83-.14 2.63.47 2.63 1.67 0 .95-.4 1.53-.61 1.7.47-.07 1.4-.5 1.4-1.7 0-1.5-1.54-2.12-2.1-2.12Zm-1.46 5c.4-.19 1.35-.56 1.92-.56.72 0 1.95 1.24 1.95 2.68 0 1.15-1.3 1.76-1.95 1.92.4-.38 1.17-1.37 1.17-2.25 0-1.09-.92-1.79-1.9-1.79h-1.2Z" fill="#888"/><path d="m9 32.98-2 2.98V23l2-3v12.98Z" fill="url(#azbnc40yj)"/><path d="M19 36H7l2-3h12l-2 3Z" fill="url(#bzbnc40yj)"/><path fill="#D9D9D9" d="M37 20h12v13H37z"/><path fill-rule="evenodd" d="M49 27.8V20H36.88c.41.73 1.47 2.58 1.47 4.21v.69c0 1.76.01 3.7-.4 4.12-.49.47 0 1.8.5 2.5.52.68 3.32.39 4.35 0 .61-.24 1.3-.04 2.03.17.51.14 1.04.3 1.56.3 1.3.05 1.42-.9 1.44-1.45.01-.27.25-.77.54-1.35.21-.43.45-.92.63-1.39Zm-4.8-6.02c-1.48.13-1.4 3.26-1.4 3.66v.04c.13.43.53 1.37 1.1 1.64.73.35 2.24-1.44 2.97-2.36.57-.71.3-1.02.04-1.3a1.2 1.2 0 0 1-.2-.26c-.22-.4-.96-1.57-2.5-1.42Z" fill="#474747"/><path d="M38.09 20.05h5.19v.88c-1.13 0-1.87.81-2.1 1.22-.13 2.23-.38 6.73-.27 6.87.13.18 1.91.28 3.26.18 1.34-.1 1.56-1.05 1.84-1.26.22-.17.68-1.17.88-1.65a26 26 0 0 1-.18 1.86c-.05.1-.2.74-.28 1.05l.46.9H38.4l-.31-.5 1.06-.58v-6.87a1.4 1.4 0 0 0-1.06-1.4v-.7Z"/><path d="M39 20v.46c.58 0 .77.58.8.87v6.73c0 .55-.92.9-1.38 1v.55h8.4l.92-3.6h-.71c-.34.5-1.1 1.67-1.53 2.24-.43.57-1 .77-1.22.8h-.98c-.9 0-1.22-.53-1.27-.8v-6.92c0-.76.85-.9 1.27-.87V20H39Z" fill="#fff"/><path d="m39 20.02.02-.02h.08c.49.13 1.36.54 1.36 1.24V28c-.14.19-.58.58-1.28.78.34-.17.62-.41.62-.72v-6.73c-.03-.3-.22-.87-.8-.87v-.44Zm7.83 9.56v.03h-8.41v-.36c.13 0 .29-.01.46-.06a5 5 0 0 0 .5-.18c.38-.15.8-.3 1.3-.3.32 0 .58.12.88.26.41.2.9.45 1.74.45.93 0 1.45-.28 1.82-.49.2-.1.35-.2.5-.2.34 0 .79.46.97.7l.24.15Z" fill="#6B6B6B"/><path d="m37 33-2 3V22.92L37 20v13Z" fill="url(#czbnc40yj)"/><path d="M47.43 36H35.05L37 33h12l-1.57 3Z" fill="url(#dzbnc40yj)"/><path fill="#D9D9D9" d="M23 20h12v13H23z"/><path d="M25.82 20c-.94.47-2.03 1.16-2.34 1.81-.54 1.13-.53 5.36-.1 7 .4 1.64 2.6 2.75 4.66 2.87 1.64.09 3.1-.6 3.62-.95.31.18 1 .55 1.22.55.22 0 .53-.26.66-.38-.06-1.63-.24-4.9-.49-5a4.92 4.92 0 0 0-1.4 0l-.16.52c-.06 1-.6 3.02-2.32 3.02-2.09 0-2.07-4.4-2.07-5.16v-.05c0-.56.7-2.29 2.16-2.29 1.17 0 2.52 1.73 3.04 2.59l.75.35c.16.08.49.2.49.11 0-.09.58-1.32.87-1.92l.59-1.53V20h-3.04c-.52.31-.98.58-1.26.55-.1 0-.27-.03-.48-.05-.75-.09-2-.23-2.18-.21a.64.64 0 0 1-.36-.1c-.04-.02-.08-.04-.11-.04a.9.9 0 0 1-.24-.15h-1.51Z" fill="#474747"/><path d="M27.07 23.4c.6-1.4 2.48-2.13 3.35-2.32.25 0 1.5.7 2.08 1.05l-1.02-1.47-2.9-.3a4.71 4.71 0 0 0-4.16 4.94c0 4.5 3.39 5.43 4.43 5.66 1.04.23 1.7-.11 2.2-.23.5-.11.89.12 1.8.52.75.32.77-.31.7-.67l-1.05-2.1c-.35.16-1.06.49-1.14.54-.1.05-2.29 1.4-3.55.19-1.26-1.22-1.5-4.05-.74-5.8Z"/><path d="M29.2 30.18c-4.1 0-4.83-3.68-4.68-5.53A4.68 4.68 0 0 1 29.19 20c2.1 0 2.93.8 3.08 1.2l.46-.76h.52v3.94h-.87c-.3-1.72-1.48-3.63-3.19-3.63s-2.63 2.22-2.63 4.05c0 1.83.63 4.85 2.63 4.85 1.6 0 2.51-1.28 2.77-1.92v-1.9h1.29v4.7h-.98l-.42-1a5 5 0 0 1-2.66.65Z" fill="#fff"/><path d="M25.1 25.22a6.43 6.43 0 0 1 2.57-5.04c-1.08.26-3.25 1.63-3.25 5.04s2.39 4.79 3.93 4.9c-1.08-.75-3.26-2.73-3.26-4.9Z" fill="url(#ezbnc40yj)"/><path d="M29.38 20.21c-1.03 0-1.54.82-1.67 1.22.23-.22.82-.68 1.48-.68 1.9 0 2.9 2.33 3.18 3.64h.5c-.26-3.06-2.2-4.18-3.49-4.18Z" fill="#6B6B6B"/><path d="M31.89 29.11c-.45.34-1.25.86-1.31.88.44 0 1-.27 1.22-.42l.45.98h.78c-.23-.6-.78-1.71-1.14-1.44Zm.66-2.02c0-.67-.42-1.09-.63-1.22v1.73c0 .37-.32.8-.48.97.37-.22 1.11-.82 1.11-1.48Z" fill="#666"/><path d="m23 33-2 3V22.92L23 20v13Z" fill="url(#fzbnc40yj)"/><path d="M33 36H21l2-3h12l-2 3Z" fill="url(#gzbnc40yj)"/><defs><linearGradient id="azbnc40yj" x1="6.46" y1="28.3" x2="7.82" y2="28.27" gradientUnits="userSpaceOnUse"><stop stop-color="#B4B4B4"/><stop offset="1" stop-color="#464646"/></linearGradient><linearGradient id="bzbnc40yj" x1="8.66" y1="36.53" x2="10.96" y2="31.51" gradientUnits="userSpaceOnUse"><stop stop-color="#FBFBFB"/><stop offset="1" stop-color="#444"/></linearGradient><linearGradient id="czbnc40yj" x1="34.46" y1="28.28" x2="35.82" y2="28.25" gradientUnits="userSpaceOnUse"><stop stop-color="#B4B4B4"/><stop offset="1" stop-color="#464646"/></linearGradient><linearGradient id="dzbnc40yj" x1="36.66" y1="36.54" x2="38.97" y2="31.5" gradientUnits="userSpaceOnUse"><stop stop-color="#FBFBFB"/><stop offset="1" stop-color="#444"/></linearGradient><linearGradient id="ezbnc40yj" x1="26.38" y1="29.36" x2="26.49" y2="21.96" gradientUnits="userSpaceOnUse"><stop stop-color="#686868"/><stop offset="1" stop-color="#BABABA"/></linearGradient><linearGradient id="fzbnc40yj" x1="20.46" y1="28.28" x2="21.82" y2="28.25" gradientUnits="userSpaceOnUse"><stop stop-color="#B4B4B4"/><stop offset="1" stop-color="#464646"/></linearGradient><linearGradient id="gzbnc40yj" x1="22.65" y1="36.53" x2="24.96" y2="31.52" gradientUnits="userSpaceOnUse"><stop stop-color="#FBFBFB"/><stop offset="1" stop-color="#444"/></linearGradient></defs></svg>