<!-- by TradingView --><svg width="56" height="56" viewBox="0 0 56 56" xmlns="http://www.w3.org/2000/svg"><path fill="#F0F3FA" d="M0 0h56v56H0z"/><path d="M51 29.17c-.14 2.73-2.72 3.7-4 3.83 1.48-.5 1.74-1.08 1.74-1.83 0-.92-1.13-1.42-1.13-2 0-.42.09-.75.6-.75.79 0 .88.66.88 1.08 0 .42.08.75.34.75.27 0 .35.17.35-.92 0-1.08-1.82-1.66-1.82-2.33 0-.67.34-1 .87-1 1.04 0 .87 1.17.87 1.83 0 .54.29.9.43 1 .06-.1.23-.33.44-.33.26 0 .43.25.43.67Z" fill="#A11C1F"/><path d="M47.4 30c.64 0 .64.67.56 1-.32-.5-.96-.56-.96-.75 0-.19.08-.25.4-.25Z" fill="#E87DA1"/><path d="M4 32v-7h3.44c1.13 0 2.28.55 2.28 1.82 0 .67-.33 1.12-1 1.37v.03c.77.23 1.28.92 1.28 1.71C10 31.33 8.8 32 7.52 32H4Zm2-1.39h1.32c.5 0 .94-.3.94-.82 0-.54-.45-.79-.96-.79H6v1.61Zm0-2.84h1.18c.43 0 .86-.23.86-.7 0-.48-.42-.7-.85-.7H6v1.4ZM11 32v-7h6v1.43h-4v1.22h3.36V29H13v1.53h4V32h-6Zm22 0v-7h6v1.43h-4v1.22h3.37V29H35v1.53h4V32h-6Zm-15 0v-7h3.4c1.24 0 2.5.65 2.5 2.02 0 .85-.41 1.41-1.24 1.7v.02c.6.2.95.62 1.04 1.28.1.53.07 1.08.15 1.6.03.17.08.27.15.3V32h-1.71c-.06-.03-.1-.13-.13-.28-.08-.45-.07-.9-.14-1.35-.1-.66-.5-1-1.19-1H20V32h-2Zm2-4h1.09c.54 0 1.06-.16 1.06-.76 0-.58-.48-.87-1.02-.87H20V28Zm20 4v-7h3.4c1.24 0 2.5.65 2.5 2.02 0 .85-.41 1.41-1.24 1.7v.02c.6.2.95.62 1.04 1.28.1.53.07 1.08.15 1.6.03.17.08.27.15.3V32h-1.71c-.06-.03-.1-.13-.13-.28-.08-.45-.07-.9-.14-1.35-.1-.66-.5-1-1.19-1H42V32h-2Zm2-4h1.09c.54 0 1.06-.16 1.06-.76 0-.58-.48-.87-1.02-.87H42V28Zm-13.5 4c-2.15 0-3.5-1.6-3.5-3.49A3.46 3.46 0 0 1 28.62 25c1.61 0 3 .8 3.27 2.33H30.1c-.15-.61-.77-.96-1.43-.96-1.3 0-1.68 1.1-1.68 2.14 0 1.03.45 2.15 1.71 2.15.65 0 1.6-.42 1.6-1.2H29V28h3v4h-1.28l-.1-.96h-.02c-.46.64-1.15.96-2.1.96Z" fill="#00ADEF"/><circle cx="47.5" cy="26.5" r=".5" fill="#0E83C7"/><circle cx="51.5" cy="27.5" r=".5" fill="#F7B900"/><circle cx="51" cy="25" r="1" fill="#039452"/></svg>