<!-- by TradingView --><svg width="56" height="56" viewBox="0 0 56 56" xmlns="http://www.w3.org/2000/svg"><path fill="#F0F3FA" d="M0 0h56v56H0z"/><path d="M40.48 37.13c-3.5 6-11.93 7.68-18.82 3.74a15.74 15.74 0 0 1-5.67-5.47h.79c1.28 1.9 3.1 3.63 5.39 4.94 6.42 3.67 14 2.58 16.93-2.43 2.92-5.01.08-12.05-6.34-15.73-6.43-3.67-14.01-2.59-16.94 2.43a9.02 9.02 0 0 0-.84 6.82l-.3 1.16a11.7 11.7 0 0 1 .84-9.72c3.5-6 11.93-7.68 18.82-3.74 6.9 3.94 9.64 12 6.14 18Z" fill="url(#ar3slteyx)"/><path fill-rule="evenodd" d="M14.6 34.68h4.97c.84-.11 2.5-.8 2.5-2.63 0-.94-.9-1.6-1.35-1.8.52-.21 1.56-.94 1.56-2.15 0-1.52-1.25-2.1-1.92-2.1h-4.14l-1.62 8.68Zm3.41-7.05-.33 1.94h1.44c.54 0 1.3-.27 1.3-1a.98.98 0 0 0-.7-.94h-1.7ZM17.38 31l-.4 2h1.63c.6 0 1.47-.22 1.47-1.05 0-.67-.5-.88-.76-.95h-1.94Z" fill="url(#br3slteyx)"/><path d="M26.95 35c1.22 0 2.85-.68 3.5-1.02L31.2 30h-3.31l-.3 1.48h1.5c-.05 1.54-1.05 1.94-1.78 1.94s-1.64-.3-1.64-2.03c0-1.73.89-3.8 2.22-3.8 1.06 0 1.48.79 1.56 1.18l2-.38a2.97 2.97 0 0 0-3.1-2.39c-2.71 0-4.67 1.9-4.67 5.06 0 3.17 1.76 3.94 3.28 3.94Z" fill="url(#cr3slteyx)"/><path d="m32.2 35 1.73-9h1.92l-1.26 7h3.92l-.46 2H32.2Z" fill="url(#dr3slteyx)"/><path d="M26.49 12.98 26.13 11l-.37 1.98-1.88-.67 1.52 1.3-1.52 1.32 1.88-.68.37 1.98.36-1.98 1.88.68-1.52-1.31 1.52-1.31-1.88.67Zm-5.34.79-.36-1.99-.36 1.99-1.89-.68 1.52 1.31-1.52 1.3 1.89-.67.36 1.99.36-1.99 1.89.68-1.52-1.31 1.52-1.3-1.89.67Zm-5.26 1.61.36 1.98 1.89-.67-1.52 1.3 1.52 1.32-1.89-.68-.36 1.98-.36-1.98-1.89.68L15.16 18l-1.52-1.31 1.89.67.36-1.98Zm-2.43 6.44-.25-1.35-.25 1.35-1.29-.46 1.04.9-1.04.89 1.29-.46.25 1.35.25-1.35 1.28.46-1.04-.9 1.04-.89-1.28.46Zm30 4.6.25 1.35 1.29-.46-1.04.9 1.04.89-1.29-.46-.24 1.35-.25-1.35-1.29.46 1.04-.9-1.04-.89 1.29.46.25-1.35Zm-1.79-3.84-.3-1.65-.3 1.65-1.58-.56 1.27 1.1-1.27 1.08 1.58-.56.3 1.66.3-1.66 1.58.56-1.27-1.09 1.27-1.09-1.58.56Zm-4.49-6.67.36 1.95 1.84-.66-1.49 1.28 1.5 1.28-1.85-.66-.36 1.94-.35-1.94-1.85.66 1.49-1.28-1.49-1.29 1.85.67.35-1.95Zm-4.96-2-.4-2.13-.39 2.14-2.02-.73 1.63 1.4-1.63 1.42 2.02-.73.4 2.13.39-2.13 2.02.73-1.63-1.41 1.63-1.4-2.02.72Zm-20.3 11.23.16.81.77-.27-.62.53.62.54-.77-.27-.15.81-.15-.81-.78.27.63-.54-.63-.54.78.28.15-.81Zm31.09 7.24-.15-.81-.15.81-.78-.27.63.53-.63.54.78-.27.15.81.15-.81.77.27-.62-.54.62-.53-.77.27Z" fill="#274BA3"/><path d="M35.65 32.43h-.6l1.1-5.8h.6l-1.1 5.8Zm-3.09 3.19V36h6.1l.55-2h-.55l-.41 1.62c0-.05-3.8-.02-5.69 0Zm-11.2-5.43.63.47c.35-.34 1.06-1.23 1.06-2.1 0-.87-.43-1.34-.65-1.47.1.23.3.8.3 1.31 0 .64-.92 1.59-1.34 1.79ZM15 36v-.63h4.89c.85-.26 2.54-1.28 2.54-2.8 0-.28-.12-.83-.18-1.07.2.2.61.82.61 1.74 0 1.16-1.17 2.76-3.18 2.76H15Zm2.7-4.77-.29 1.52h.5l.19-1.03h1.54c-.2-.4-.4-.5-.47-.49H17.7Zm.34-1.94L18.3 28h1.24c.06 0 .23.08.4.41h-1.3l-.17.88h-.42Zm11.84.2-.12-.55 2.1-.27-.48-1.36c.64.8.86 1.57.9 1.84l-2.4.34Zm-3.92 1.57c0 .82.36 1.36.54 1.54a4.5 4.5 0 0 1 .55-3.18c.67-1.1 1.52-1.06 1.87-.9-.04-.18-.27-.5-.94-.5-1.3 0-2.02 2.02-2.02 3.04Zm5.35-.5h.72l-.86 4.32c-1.14.74-3.9 1.85-5.8.44 1.08.32 3.66.56 5.38-.97l.56-3.78Z"/><defs><linearGradient id="ar3slteyx" x1="35.35" y1="20.89" x2="24.13" y2="42.03" gradientUnits="userSpaceOnUse"><stop stop-color="#3B7FCA"/><stop offset="1" stop-color="#283996"/></linearGradient><linearGradient id="br3slteyx" x1="18.44" y1="26" x2="18.44" y2="34.68" gradientUnits="userSpaceOnUse"><stop stop-color="#4AA2DF"/><stop offset="1" stop-color="#29439C"/></linearGradient><linearGradient id="cr3slteyx" x1="27.56" y1="26" x2="27.56" y2="35" gradientUnits="userSpaceOnUse"><stop stop-color="#4AA2DF"/><stop offset="1" stop-color="#2A3E98"/></linearGradient><linearGradient id="dr3slteyx" x1="35.35" y1="26" x2="35.35" y2="35" gradientUnits="userSpaceOnUse"><stop stop-color="#4AA2DF"/><stop offset="1" stop-color="#2A3E98"/></linearGradient></defs></svg>