<!-- by TradingView --><svg width="56" height="56" viewBox="0 0 56 56" xmlns="http://www.w3.org/2000/svg"><path fill="#F0F3FA" d="M0 0h56v56H0z"/><path d="M16 13h-1v28h26V13h-1v27H16V13Z" fill="#2B9969"/><path d="M13 13h1v29h28V13h1v30H13V13Zm4 21V13h22v21H17Zm8-20h-7v19h13c4 0 7-3.5 7-8 0-3.6-3-5.5-4.5-6 3.2-1.2 3.67-3.83 3.5-5h-7c-.4 2.4-2.17 3-3 3h-2v-3Zm3 8h-3v6h3c1 0 2-.5 2-3 0-2-1.33-3-2-3Z" fill="#0095D3"/><path d="M18.78 36.92c.25.08.43.2.55.39.11.18.17.39.17.62 0 .3-.09.57-.27.77-.18.2-.49.3-.92.3H17v-4h1.13c.43 0 .73.1.92.28a1 1 0 0 1 .28.74c0 .2-.04.39-.13.55a.8.8 0 0 1-.42.35Zm-1.18-.1h.5c.21 0 .37-.06.46-.2.1-.16.14-.35.14-.59 0-.26-.05-.45-.15-.58-.1-.13-.26-.2-.46-.2h-.49v1.58Zm.65 1.93c.42 0 .63-.27.63-.82 0-.24-.06-.44-.16-.6a.52.52 0 0 0-.47-.25h-.65v1.67h.65ZM22.5 38.67V39H20v-4h2.37v.33H20.6v1.46h1.63v.34H20.6v1.54h1.9ZM24.26 35c.37 0 .65.1.85.28.2.19.31.47.36.86l-.48.07c-.02-.3-.1-.54-.22-.7a.6.6 0 0 0-.5-.25c-.23 0-.41.06-.53.19-.12.11-.18.28-.18.5 0 .2.05.35.14.46.1.1.28.18.54.25l.31.1c.35.1.6.23.74.4.14.18.21.42.21.72 0 .36-.1.64-.32.83-.22.2-.53.29-.93.29-.39 0-.68-.1-.88-.28-.2-.18-.33-.47-.37-.86l.47-.07c.03.3.11.53.24.7.13.16.31.24.54.24.5 0 .75-.23.75-.7a.74.74 0 0 0-.06-.32.5.5 0 0 0-.22-.21 1.7 1.7 0 0 0-.43-.16l-.3-.09a1.4 1.4 0 0 1-.72-.4 1.2 1.2 0 0 1-.2-.74c0-.36.1-.64.3-.83.2-.19.5-.28.9-.28ZM28 35v.33h-.7V39h-.6v-3.67H26V35h2ZM33.5 35l-.94 4h-.64L31 35.72 30.11 39h-.68l-.93-4h.72l.71 3.2.88-3.2h.65l.88 3.21.73-3.21h.43ZM35.58 37.8h-1.4l-.34 1.2h-.34l1.15-4h.7l1.15 4h-.57l-.35-1.2Zm-.09-.31-.61-2.18-.62 2.18h1.23ZM37.82 37.62V39h-.64v-1.38L36 35h.64l.98 2.25 1-2.25H39l-1.18 2.62Z" fill="#0095D3"/></svg>