<!-- by TradingView --><svg width="56" height="56" viewBox="0 0 56 56" xmlns="http://www.w3.org/2000/svg"><path fill="#F0F3FA" d="M0 0h56v56H0z"/><path d="M22.5 19c4.88 0 8.37 3.96 9.5 6-.95-.63-3.5-2-7-2-4.3 0-9.5 4.55-9.5 10.8 0 8.7 6.3 8.56 11.5 10.1-11.44 1.17-16-7.52-16-12.87C11 25.67 16.4 19 22.5 19Z" fill="#1D1D1D"/><path d="M38.53 29.33c-2.6 4.1-7.82 4.8-10.1 4.65A14.03 14.03 0 0 0 33.79 29 9.28 9.28 0 0 0 35 24c-.03-3.26-1.37-6.86-4.63-9-2.02-1.35-3.73-2.02-5.23-2-3.79.05-6.25 3.47-9.14 6 3.04-6.05 7.5-8 11.56-8 2.82 0 5.45.93 7.25 2.13 4.4 2.9 6.99 11.08 3.72 16.2Z" fill="#DD3637"/><path d="M21.74 36.56c-1.94-4.4.4-8.75 1.81-10.56-.2 1.1-.24 3.69 1.13 6.79 1.28 2.9 5.08 5.14 9.32 5.21 4.7.07 9.94-2.37 10-7.77.03-2.34-.93-4.85-1.23-7.23 5.62 9.84-.58 17.15-5.47 19.24-4.9 2.08-13.14-.19-15.56-5.68Z" fill="#9C9C9C"/></svg>