<!-- by TradingView --><svg width="56" height="56" viewBox="0 0 56 56" xmlns="http://www.w3.org/2000/svg"><path fill="#F0F3FA" d="M0 0h56v56H0z"/><path d="M8 29.48C8 21.31 29.33 15.08 40 13c-16.77 4.94-26 9.54-26 15.27S22.25 33 25.75 33C12.93 35.52 8 32.89 8 29.48Z" fill="#C5CAD0"/><path d="M48 26.52c0 8.17-21.33 14.4-32 16.48 16.77-4.94 27-9.36 27-15.1 0-5.73-9.25-4.9-12.75-4.9C43.07 20.48 48 23.11 48 26.52Z" fill="#C5CAD0"/><circle cx="28" cy="28" r="10" fill="#0F1551"/><circle cx="29.5" cy="24.5" r="5.5" fill="#8384AB"/><circle cx="31.5" cy="22.5" r="2.5" fill="#C3C3D9"/><path fill="#fff" d="M27 24h1v8h-1zm-1 5.71c-.49 1.36-1.73 2.29-2.95 2.29-1.68 0-3.05-1.8-3.05-4s1.37-4 3.05-4c1.22 0 2.46.93 2.95 2.29h-1.2c-.37-.7-1.15-1.29-1.8-1.29-1.1 0-2 1.42-2 3s.9 3 2 3c.65 0 1.43-.6 1.8-1.29H26Zm10 0c-.49 1.36-1.73 2.29-2.95 2.29-1.68 0-3.05-1.8-3.05-4s1.37-4 3.05-4c1.22 0 2.46.93 2.95 2.29h-1.2c-.37-.7-1.15-1.29-1.8-1.29-1.1 0-2 1.42-2 3s.9 3 2 3c.65 0 1.43-.6 1.8-1.29H36Z"/></svg>