<!-- by TradingView --><svg width="56" height="56" viewBox="0 0 56 56" xmlns="http://www.w3.org/2000/svg"><path fill="#F0F3FA" d="M0 0h56v56H0z"/><path d="M16.31 26.67c0-2.24 5.93-10.73 9.63-15.96l-3.79 3.77c-2.06 3.24-5.16 8.35-5.84 9.83 0-2.12 2.55-5.9 4.18-8.18l-7.87 7.82a5.47 5.47 0 0 0 0 7.77L28 47l9.13-9.07c-6.62-.05-7.33-.8-8.72-1.72a25.1 25.1 0 0 0-.41-.26c2.9.94 7.48.9 10.4.72l4.98-4.95a5.47 5.47 0 0 0 0-7.77l-8.85-8.79c-6.3 7.26-9.19 13.9-9.19 18.12 0 4.34 5.18 5.7 7.5 5.7-1.59.6-3.32.63-4.5.63-1.18 0-4.59-2.11-4.59-6.36 0-6.03 6.13-14.9 9.9-18.96l-1.02-1.02c-8.39 10.28-9.94 15.99-9.94 20.08 0 3.33 2.69 5.93 4.29 6.81-1-.17-3.2-.66-4-1.25-1-.73-1.89-2.92-1.89-5.63 0-6.4 6.93-16.16 10.87-20.67l-.99-.99C20.91 24.35 19.93 30.5 19.93 33.25A8.3 8.3 0 0 0 22.1 39c-2.37-1.25-3.14-3-3.14-5.75 0-7.24 7.37-17.55 11.49-22.14l-.77-.76a1.8 1.8 0 0 1-.13.17c-.93 1.09-12.72 14.77-11.5 23.81a7.48 7.48 0 0 1-1.13-3.63c0-1.9 3.46-11.2 12.3-20.81l-.9-.89c-7.64 9.16-11.25 17.1-12.02 20.06v-2.4Z" fill="url(#al2ulxa5b)"/><defs><linearGradient id="al2ulxa5b" x1="45" y1="27.45" x2="11" y2="27.45" gradientUnits="userSpaceOnUse"><stop stop-color="#006AB3"/><stop offset="1" stop-color="#8EB6E0"/></linearGradient></defs></svg>