<!-- by TradingView --><svg width="56" height="56" viewBox="0 0 56 56" xmlns="http://www.w3.org/2000/svg"><path fill="#F0F3FA" d="M0 0h56v56H0z"/><path fill-rule="evenodd" d="M48 20H8v16h40V20Zm-.49.48H8.5v15.04h39V20.48Z"/><path d="M17.48 20.48a5.76 5.76 0 1 0 0 11.52H25v-4h-7a2 2 0 0 1 0-4h7v-3.52h-7.52Z"/><path fill-rule="evenodd" d="M38.24 20.48a5.76 5.76 0 1 1 0 11.52H28.21V20.48h10.03ZM38 24a2 2 0 1 1 0 4h-8v-4h8Z"/><path d="M26 20h4v16h-4z"/><path d="M8.49 24h39.35v.32H8.49zm0 4h39.35v.32H8.49zm0 4h39.35v.32H8.49z"/></svg>