<!-- by TradingView --><svg width="56" height="56" viewBox="0 0 56 56" xmlns="http://www.w3.org/2000/svg"><path fill="#F0F3FA" d="M0 0h56v56H0z"/><path fill-rule="evenodd" d="M10.64 22H4v11.98h6.64c1.3 0 2.36-1.16 2.36-2.58v-6.82c0-1.42-1.06-2.58-2.36-2.58Zm-1.49 3H7v6h2.15c.47 0 .85-.37.85-.83v-4.34a.84.84 0 0 0-.85-.83Zm22.49-3H25v11.98h6.64c1.3 0 2.36-1.16 2.36-2.58v-6.82c0-1.42-1.06-2.58-2.36-2.58Zm-1.49 3H28v6h2.15c.47 0 .85-.37.85-.83v-4.34a.84.84 0 0 0-.85-.83Z" fill="#C52026"/><path d="M36.42 22c-.78 0-1.42.71-1.42 1.6v8.8c0 .89.64 1.6 1.42 1.6h4.06c.84 0 1.52-.89 1.52-1.83 0-.94-.68-1.7-1.52-1.7h-2.06c-.23 0-.42-.21-.42-.47s.19-.47.42-.47h2.09c.82 0 1.49-.63 1.49-1.56 0-.92-.67-1.5-1.5-1.5h-2.08c-.23 0-.42-.21-.42-.47s.19-.47.42-.47h2.09c.82 0 1.49-.86 1.49-1.78 0-.93-.67-1.75-1.5-1.75h-4.08Zm7.25 11.7a1.74 1.74 0 0 1-.38-2.35L45.54 28l-2.25-3.35c-.5-.76-.34-1.8.38-2.34a1.55 1.55 0 0 1 2.23.4l1.6 2.38 1.6-2.38c.51-.76 1.5-.94 2.23-.4.72.53.89 1.58.38 2.34L49.46 28l2.25 3.35c.5.76.34 1.8-.38 2.34-.72.54-1.72.36-2.23-.4l-1.6-2.38-1.6 2.38c-.51.76-1.5.94-2.23.4Zm-19.73-2.03a1.85 1.85 0 1 1-3.6.83l-.1-.5h-2.5l-.08.48a1.84 1.84 0 1 1-3.6-.8l1.9-7.35c.81-3.1 5.2-3.11 6.03-.01l1.95 7.35ZM18.28 29h1.38l-.71-3.7-.67 3.7Z" fill="#C52026"/></svg>