<!-- by TradingView --><svg width="56" height="56" viewBox="0 0 56 56" xmlns="http://www.w3.org/2000/svg"><path fill="#F0F3FA" d="M0 0h56v56H0z"/><path d="M38 30.8s0 .16-.16.16c-.1.01-.18-.18-.18-.18-.38-.86-.76-1.4-1.53-1.81-.78-.4-2.24-.47-2.65.24-.16.28-.16 1.16-.16 2.02v3.92c0 1.6 1.01 1.66 1.41 1.2.2-.2.27-.49.27-.49v-3.19h-.94v-.32H39v.32h-.7v3.18s-1.26.08-1.86.32c-.58.24-2.01.83-3 .83-3.36 0-4.44-2.72-4.44-4.45 0-3.11 2.59-4.47 4.51-4.54a4.4 4.4 0 0 1 2.98.82l.96-.83H38v2.8Zm-20-2.46h-1V28h4.43c2.16 0 3.69-.04 4.74.77a4.64 4.64 0 0 1 1.83 3.7 4.5 4.5 0 0 1-1.4 3.34C24.97 37 23.45 37 21.47 37H17v-.38h1v-8.28Zm4.24 8.28c.46 0 .74 0 .97-.08.22-.07.24-.4.24-.62v-6.6c0-.58.05-.92-.37-.92-.2 0-.51-.06-.95-.06H22v8.28h.24Zm-4.89-16.87c.06.05.48 1.98.32 3.45-.12 1.1-.63 1.33-.76 1.43-.14.1-.38.18-.17.52.22.34.34.52.78.75.44.22.74.5.9.58.16.07.52 0 .63-.27.13-.34.06-.91.07-1.1.02-.2.36-1.07.96-1.68.6-.6 1.28-1.4 1.8-1.16.51.23.8 1.05.82 1.5.01.44-.1 1.38-.16 1.62-.06.24-.1 1 .54 1.13.65.14.4-.08.93.05.51.12.48.14.7.04.22-.1.37-.2.37-.58 0-.37-.28-1.69-.08-2.67.09-.4.49-.5 1-.55.52-.04.36 0 1.03-.04.68-.05.68.1.73.34.04.23-.07.95-.65 1.4-.59.45-.7.48-.72.76-.02.27.34.54.6.8.26.27.28.5.95.63.5.1.96-.54 1.06-.71.1-.18 1.18-1.45 1.38-1.99.08-.2.4.02.5.25.23.57.14 1.9.31 2.15.21.3.41.61.94.6.54-.01.55-.06.92-.06.36 0 .54.02.67-.18.25-.37-.1-1.6-.26-2.25a5.59 5.59 0 0 0-.93-1.8c-.35-.5-.64-.74-.72-1.24-.08-.6-.09-1.1.05-1.4.13-.32.63-1.02.78-1.33.14-.31.74-1.1 1.44-1.13.69-.03 2.25.23 2.85.26a3.9 3.9 0 0 0 2.16-.6c.25-.16.42-.3.22-.29-.2.02-.68.25-1.13.25-.46 0-.65-.12-.76-.31-.02-.05.08-.18.14-.25.05-.08.37.1.67.03.31-.08.92-.05 1.37-.73.36-.54.77-1.47-.2-2.58-.68-.78-1.28-.84-2.02-1.44L36.22 11s-.09.15-.1.58c-.02.43.06.66.06.66s.86.62 1.18.88c.33.25.74.51.78 1 .05.47.13.96-.11 1.12-.24.15-.95.04-1.69-.56-.7-.55-.75-.65-.89-.95-.14-.3-1.01-1.72-1.97-2.1-.97-.36-2.69-.06-3.11-.03-.43.03-.69.03-.88.26-.12.14-.41.44-.97.74-.17.1-.42.21-.63.28-.17.05-.37.14-.6.17-.69.1-1.3.13-2.1.23-.8.12-1.8.3-2.4.53-.78.27-1.79.67-2.7 1.37-.54.4-1.1 1-1.57 1.56-.74.88-1.65 2.12-2.17 3.58-.51 1.44-.33 1.02-.25 1.08.08.07.21-.08.53-.68.45-.86.66-1 .72-.97Z"/><path fill-rule="evenodd" d="M36.07 39h2.48v.74h-.89V43H37v-3.26h-.93V39Zm-18.74 1.95c0-1.03.8-1.87 1.82-1.95v.71a1.25 1.25 0 0 0 0 2.49v.72a1.98 1.98 0 0 1-1.82-1.97Zm4.34-.38h.55v.79h-.55v.79h.72V43H21v-4h1.39v.78h-.72v.79Zm8 0h.54v.79h-.54v.79h.71V43H29v-4h1.38v.78h-.71v.79ZM32.43 39l2.05 2.38V39H35v3.94l-2-2.39V43h-.57v-4Zm-8.22 4.03-.48-.5.87-3.53.98 2.18 1-2.18 1.08 3.52-.48.48-.75-2.19-.88 2-.8-1.84-.54 2.06ZM16 38h24v6H16v-6Z"/></svg>