<!-- by TradingView --><svg width="56" height="56" viewBox="0 0 56 56" xmlns="http://www.w3.org/2000/svg"><path fill="#F0F3FA" d="M0 0h56v56H0z"/><path d="M17.56 15h14.88L38 40H12l5.56-25Z" fill="#A9A49E"/><path d="M43 12v30H11.99L43 12Z" fill="#342F2B"/><path d="M23 40H12l.95-4.56c1.43-1.3 3-2.66 3.92-3.44L23 40Z" fill="#726D69"/><path fill="#342F2B" d="M23 13h4v2h-4z"/><path d="M33.8 21 38 39H15l18.8-18Z" fill="#79746E"/><path d="M29.07 15 23 21.56 37 35l-4.37-20h-3.56Z" fill="#98928C"/><path fill="#C2BEB8" d="M18 39h14v2H18z"/><path d="M13 24.83c0 .5.84.6 1.3.6 2.54 0 3.7-2 3.7-4.37 0-2.35-1.17-4.5-3.74-4.5-.45 0-1.26.11-1.26.6v7.67Zm-2 .9c.89-.12 1-.5 1-1.37v-6.72c0-.85-.1-1.28-1-1.36V16h2.96A4.81 4.81 0 0 1 19 21.03 4.77 4.77 0 0 1 14.06 26H11v-.27Z" fill="#4281AE"/><path d="M19 25.73c1.07-.16 1-1.03 1-1.95v-6.14c0-.81-.12-1.3-1-1.36V16h2.12l2.45 7.62L25.9 16H28v.28c-.9.08-1 .6-1 1.36v6.72c0 .79.16 1.26 1 1.37V26h-3v-.27c.94-.11 1-.7 1-1.55V17.4L23.3 26h-.15l-2.65-8.25-.04 6.03c0 .88.01 1.79 1.03 1.95V26H19v-.27Zm10 15c1.07-.16 1-1.03 1-1.95v-6.14c0-.81-.12-1.3-1-1.36V31h2.12l2.45 7.62L35.9 31H38v.28c-.9.08-1 .6-1 1.36v6.72c0 .79.16 1.26 1 1.37V41h-3v-.27c.94-.11 1-.7 1-1.55V32.4L33.3 41h-.15l-2.65-8.25-.04 6.03c0 .88.01 1.79 1.03 1.95V41H29v-.27ZM23 31h5v2.57h-.25c-.17-1.13.1-1.94-1.17-1.94H26v7.73c0 .86.12 1.27 1.01 1.37V41h-3v-.27c.97-.11.99-.67.99-1.55v-7.55h-.58c-.85 0-1.02.8-1.17 1.94H23V31Z" fill="#4281AE"/></svg>