<!-- by TradingView --><svg width="56" height="56" viewBox="0 0 56 56" fill="none" xmlns="http://www.w3.org/2000/svg">
<rect width="56" height="56" fill="#F0F3FA"/>
<path fill-rule="evenodd" clip-rule="evenodd" d="M17.0985 24H13.7717L12 32H15.473C16.0816 32 16.6123 31.5546 16.7605 30.9195L18.0641 25.3321C18.2219 24.6557 17.7466 24 17.0985 24ZM15.2746 25.7872L14.2463 30.1277H14.638C14.7893 30.1277 14.9214 30.0176 14.9593 29.86L15.8852 26.0105C15.9124 25.8975 15.8331 25.7872 15.7246 25.7872H15.2746ZM19.0893 24L17.2832 32H21.0056L21.336 30.2927H19.2215L19.5413 28.8762H21.6279L22.0864 27.2233H19.9144L20.2347 25.8049H22.2831L22.7456 24H19.0893ZM21.946 30.6715L22.2435 29H24.214C23.9779 29.7825 24.0723 30.2603 24.3759 30.2603C24.6794 30.2603 24.8953 29.8586 24.8953 29.2488C24.8953 28.8759 24.3018 28.5015 23.7789 28.1717C23.4466 27.9621 23.1428 27.7705 23.038 27.6086C22.7682 27.1921 22.7232 26.4077 23.1347 25.2326C23.4639 24.2925 24.072 24.0192 24.335 24H26.7619C27.6295 24 27.8405 24.4783 27.8405 24.9372C27.8405 25.3043 27.5591 26.0381 27.4184 26.3592H25.6246C25.6442 26.1631 25.6035 25.771 25.2846 25.771C24.9207 25.771 24.933 26.1642 24.9379 26.3212V26.3213V26.3213C24.9384 26.3362 24.9388 26.349 24.9388 26.3592C24.9388 26.4522 25.1029 26.5832 25.185 26.6371C25.4742 26.8892 26.1475 27.4579 26.5274 27.7165C27.0022 28.0397 26.9026 29.1061 26.5274 30.5475C26.2273 31.7006 25.6833 31.9963 25.4488 32H22.5538C21.9197 32 21.8126 31.355 21.946 30.6715ZM27.1992 30.8088L28.5014 25.0909C28.6004 24.7273 29.0041 24 29.8266 24H32.4997C32.7814 24.0125 33.2787 24.331 33.0137 25.5047C32.7487 26.6784 32.6367 26.9457 32.6139 27H30.5691L30.7976 26.1317C30.8128 25.9979 30.7884 25.7304 30.5691 25.7304C30.2949 25.7304 30.1578 26.1818 30.1122 26.4326C30.0756 26.6332 29.5714 28.7147 29.3239 29.7304C29.2859 29.9018 29.2714 30.2445 29.5181 30.2445C29.7649 30.2445 29.8951 29.9018 29.9294 29.7304L30.1693 29H32.1798L31.6657 30.9718C31.5629 31.3145 31.1631 32 30.3863 32H27.5076C27.3229 31.9624 27.0027 31.6715 27.1992 30.8088ZM33.5478 31.9991C33.1096 32.0185 32.2942 31.7368 32.5386 30.4546C32.7829 29.1725 33.4372 26.3944 33.7337 25.1656C33.8223 24.7771 34.2649 24 35.3273 24H37.3326C37.7796 24.0049 38.5702 24.4167 38.1559 26.0253C37.7416 27.6338 37.213 29.7552 37.0006 30.6149C36.912 31.0763 36.5411 31.9991 35.7655 31.9991H33.5478ZM34.6102 29.8929L35.5664 25.9491C35.5797 25.8681 35.662 25.7062 35.8851 25.7062C36.164 25.7062 36.2171 26.0062 36.1507 26.3492C36.0976 26.6235 35.5708 28.826 35.3141 29.8929C35.2919 29.9977 35.1839 30.2073 34.929 30.2073C34.674 30.2073 34.6102 29.9977 34.6102 29.8929ZM37.4528 32L39.2007 24H41.2449V27.0445H41.5411L42.2818 24H44L42.104 32H40.3561V28.4372H40.1784L39.4081 32H37.4528Z" fill="#034577"/>
<path fill-rule="evenodd" clip-rule="evenodd" d="M19.1839 13H36.3612C38.0734 13.1671 41.2492 14.5428 40.255 18.7089L39.2459 23H19.3888L21.5589 15.757C21.6509 15.0793 21.3048 13.5792 19.1839 13ZM17.2 33.0001L15.3169 39.9373C15.1787 40.7856 14.3218 42.5859 12 43H29.4574C30.9995 42.8706 34.2931 41.749 35.1311 38.298C35.6974 35.9658 36.071 34.6683 36.3014 33.8679C36.412 33.484 36.4896 33.2145 36.5397 33.0001H17.2Z" fill="#E30917"/>
</svg>
