<!-- by TradingView --><svg width="56" height="56" viewBox="0 0 56 56" xmlns="http://www.w3.org/2000/svg"><path fill="#F0F3FA" d="M0 0h56v56H0z"/><path fill-rule="evenodd" d="M40.32 15c-1.77-.04-5.32.98-5.32 5.45 0 4.16 2.32 5.55 4.32 5.55 2.01 0 7.68-1.12 7.68-5.2 0-4.09-4.02-5.8-6.68-5.8Zm.27 2.28c-.86 0-2.59.58-2.59 2.86 0 2.85 1.93 3.71 2.9 3.71 1.21 0 3.48-1 3.48-2.83 0-1.82-2.34-3.74-3.79-3.74Z" fill="#F15D22"/><path fill-rule="evenodd" d="M41.61 16c-.7 0-2.39.38-3.5 1.96A5.23 5.23 0 0 0 37 21.2c0 1.13.8 2.64 2.54 3.36 1.04.44 1.67.44 2.15.44.5 0 2.49 0 3.13-3.18.12-.58.18-1.13.18-1.66.01-2.4-1.13-4.16-3.39-4.16Zm-.58 2c-.68 0-2.03.44-2.03 2.18 0 2.16 1.51 2.82 2.28 2.82.94 0 2.72-.77 2.72-2.16 0-1.38-1.84-2.84-2.97-2.84Z" fill="#C41130"/><path d="M39 28v1h1.94c.65 0 1.55.22 1.94 1.5h-2.75c-.7-.02-2.13.37-2.13 2.09 0 2.14 2.13 2.41 3.02 2.41a7.4 7.4 0 0 0 2.98-.64V31.2c-.02-1.06-.68-3.2-3.13-3.2H39Zm4 3.5v2.14a5.7 5.7 0 0 1-2.03.36c-1.2 0-1.97-.45-1.97-1.4 0-.94.57-1.1 1.27-1.1H43Z" fill="#006B6E"/><path fill-rule="evenodd" d="M16 24h-1v4.79a2.87 2.87 0 0 0-2.04-.79C11.23 28 10 29.28 10 31.7c0 2.4 1.75 3.3 3.2 3.3a7 7 0 0 0 2.8-.68V24Zm-1 9.7v-3.05c-.25-1.05-.89-1.65-2.04-1.65-1.49 0-1.96 1.23-1.96 2.7 0 1.46.75 2.3 2.27 2.3.64 0 1.24-.13 1.73-.3Z" fill="#006B6E"/><path d="M25 35h-1v-4a3 3 0 1 1 6 0v4h-1v-4a2 2 0 1 0-4 0v4Zm-8-7h1v4a2 2 0 1 0 4 0v-4h1v4c0 2.77 0 4.19-1 5.51a4.31 4.31 0 0 1-4 1.43V38c3.4.47 3.96-2.22 4-3.77A3 3 0 0 1 17 32v-4Z" fill="#006B6E"/><path fill-rule="evenodd" d="M36.98 32c.12-1.33-.33-4-3.02-4-1.54 0-2.96 1.24-2.96 3.45 0 2.2 1.1 3.55 3.14 3.55 1.32 0 2.14-.3 2.39-.45v-1.02c-.34.16-1.28.47-2.39.47-1.25 0-2-.52-2.14-2h4.98Zm-.98-.99c-.3-1.72-1.26-2.01-2-2.01-.79 0-1.83.48-2 2.01h4Z" fill="#006B6E"/></svg>