<!-- by TradingView --><svg width="56" height="56" viewBox="0 0 56 56" fill="none" xmlns="http://www.w3.org/2000/svg">
<rect width="56" height="56" fill="#F0F3FA"/>
<circle cx="28" cy="28" r="16" fill="#057E8D"/>
<path fill-rule="evenodd" clip-rule="evenodd" d="M28 43.2996C36.4497 43.2996 43.2996 36.4497 43.2996 28C43.2996 19.5503 36.4497 12.7004 28 12.7004C19.5503 12.7004 12.7004 19.5503 12.7004 28C12.7004 36.4497 19.5503 43.2996 28 43.2996ZM28 44C36.8366 44 44 36.8366 44 28C44 19.1634 36.8366 12 28 12C19.1634 12 12 19.1634 12 28C12 36.8366 19.1634 44 28 44Z" fill="#005C67"/>
<path fill-rule="evenodd" clip-rule="evenodd" d="M28 44.6584C37.2002 44.6584 44.6584 37.2002 44.6584 28C44.6584 18.7998 37.2002 11.3416 28 11.3416C18.7998 11.3416 11.3416 18.7998 11.3416 28C11.3416 37.2002 18.7998 44.6584 28 44.6584ZM28 45C37.3888 45 45 37.3888 45 28C45 18.6112 37.3888 11 28 11C18.6112 11 11 18.6112 11 28C11 37.3888 18.6112 45 28 45Z" fill="#057E8D"/>
<path fill-rule="evenodd" clip-rule="evenodd" d="M27 23.602V19.0379C27.0449 17.7916 28.061 15.4615 31.7665 16.1126L30.6841 18.2032C30.1536 18.1181 29 18.2287 29 19.3522V22.7826L31 21.9632V24.2239L29 25.0606V37.9505L27 39V25.8974L25 26.7341V24.4214L27 23.602ZM16 32.2673V22.7327C16 20.6712 17.7909 19 20 19C22.2092 19 24 20.6712 24 22.7327V27.0153L20.3314 28.6048V28.6075L18 29.6179V32.4383C18 33.3008 18.8954 34 20 34C21.1046 34 22 33.3008 22 32.4383V31.3143L24 30.563V32.2673C24 34.3288 22.2092 36 20 36C17.7909 36 16 34.3288 16 32.2673ZM22 22.5617V25.418L18 27.1199V22.5617C18 21.6992 18.8954 21 20 21C21.1046 21 22 21.6992 22 22.5617ZM32 21.7455V32.1528C32 34.2106 33.7909 36 36 36C38.2091 36 40 34.2106 40 32.1528V18.5655L38 19.5934V32.2973C38 33.1932 36.91 34 35.9483 34C34.9865 34 34 33.1932 34 32.2973V20.9103L32 21.7455Z" fill="#F0F3FA"/>
</svg>
