<!-- by TradingView --><svg width="56" height="56" viewBox="0 0 56 56" xmlns="http://www.w3.org/2000/svg"><path fill="#F0F3FA" d="M0 0h56v56H0z"/><path d="M13 44h16l-1.5-3H16V15h7.97L27 22h3.06l-4.24-10H13v32Z" fill="#231660"/><path d="M43 12H27.06l1.44 3h11.56v26h-7.97l-3.03-7H26l4.24 10H43V12ZM20 31h-.77L18 28.26V31h-1v-5h.8l1.2 2.63V26h1v5Z" fill="#231660"/><path d="M35 31h-.77L33 28.26V31h-1v-5h.8l1.2 2.63V26h1v5Zm-11.23-1h-1.56l-.29 1H21l1.5-5h1l1.5 5h-.96l-.27-1Zm-.25-1L23 27.14 22.45 29h1.07Zm14.25 1h-1.56l-.29 1H35l1.5-5h1l1.5 5h-.96l-.27-1Zm-.25-1L37 27.14 36.45 29h1.07Zm-10.55 2C25.64 31 25 29.73 25 28.55c0-1.27.7-2.55 2.1-2.55.96 0 1.78.62 1.89 1.6h-.89c-.1-.49-.5-.6-1-.6-.91 0-1.1.8-1.1 1.56 0 .74.23 1.44 1.1 1.44.62 0 1.02-.42 1.1-1H27v-.68h2V31h-.6l-.09-.72c-.34.45-.75.72-1.34.72ZM30 26h1v5h-1v-5Z" fill="#231660"/></svg>