<!-- by TradingView --><svg width="56" height="56" viewBox="0 0 56 56" xmlns="http://www.w3.org/2000/svg"><path fill="#F0F3FA" d="M0 0h56v56H0z"/><path d="m19.31 14.58-1.68.59c5.06 5.85 6.75 8.77 10.12 8.77 2.25 0 4.13-6.24 5.06-9.36L30.56 14c-.75 1.95-2.7 5.85-4.5 5.85-1.8 0-5.25-3.51-6.75-5.27Z" fill="#F0ED9A"/><path d="m19.31 14.58-1.68.59c2.43 2.53 6.75 7.6 9.56 7.02 2.25-.47 4.5-5.27 5.62-7.6l-2.25-.6c-.93 1.96-3.15 5.86-4.5 5.86s-5.06-3.51-6.75-5.27Z" fill="#DFDB00"/><path d="m17.63 15.75-1.7 1.76c1.7 1.56 4.96 5.14 4.5 7.02-.44 1.87-5.8 2.73-8.43 2.92v2.34c3.75-.2 11.36-1.17 11.81-3.5.45-2.35-3.93-8-6.18-10.54Z" fill="#FBCB8C"/><path d="m17.63 15.75-1.7 1.76c1.7 1.75 4.96 5.61 4.5 7.02-.44 1.4-5.8 2.53-8.43 2.92v2.34c3-.58 9.23-2.22 10.13-4.1.9-1.87-2.63-7.4-4.5-9.94Z" fill="#F39400"/><path d="m13.69 32.72-1.13-2.34c3.19-1.17 10.04-1.7 11.25 0 1.69 2.34-1.68 10.53-3.37 14.04l-1.69-.59c3.38-8.77 2.25-9.94 1.69-11.11-.45-.94-4.69-.4-6.75 0Z" fill="#F29A79"/><path d="m13.69 32.72-1.13-2.34c2.44-.78 7.76-1.64 9.56 1.17 1.8 2.8-.37 9.75-1.68 12.86l-1.69-.58c1.13-3.51 3.38-9.36 1.69-11.11-.9-.94-4.88-.4-6.75 0Z" fill="#E2001A"/><path d="M23.25 45 21 44.41c1.5-4.48 5.06-13.45 7.31-13.45s6.57 5.46 8.44 8.19l-2.25.59c-.75-1.56-2.81-4.68-5.06-4.68-2.25 0-5.07 6.63-6.19 9.94Z" fill="#F19FC1"/><path d="M23.25 45 21 44.41c.94-3.7 4.5-10.52 7.88-11.1 3.99-.7 6.93 3.89 7.87 5.84l-2.25.59c-.75-1.56-2.81-4.68-5.06-4.68-2.25 0-5.07 6.63-6.19 9.94Z" fill="#E2007A"/><path d="M48 26.87V25.1c-4.87.4-14.85 1.76-15.75 4.1-.9 2.34 3 7.21 5.06 9.36L39 36.8c-.94-1.17-2.81-3.98-2.81-5.85 0-1.87 7.87-3.5 11.81-4.1Z" fill="#87C3E7"/><path d="M36.19 30.96c0-1.87 7.87-3.5 11.81-4.1v-1.75c-11.81 1.17-12.94 2.34-14.06 5.27-.9 2.34 1.87 6.63 3.37 8.19L39 36.8c-.94-1.17-2.81-3.98-2.81-5.85Z" fill="#008BD0"/><path d="m35.06 15.17-1.69-.59c-1.12 2.73-3.03 8.66-1.68 10.53 1.35 1.87 11.06.4 15.75-.58L46.3 21.6c-3 .78-9.45 1.99-11.25.59-1.8-1.4-.75-5.27 0-7.02Z" fill="#B0D398"/><path d="m35.06 15.17-1.69-.59c-.75 2.54-2.25 8.07 0 9.95 2.25 1.87 10.5.78 14.07 0L46.3 21.6c-3.19.78-9.9 1.99-11.25.59-1.35-1.4-.56-5.27 0-7.02Z" fill="#41A62B"/></svg>