<!-- by TradingView --><svg width="56" height="56" viewBox="0 0 56 56" xmlns="http://www.w3.org/2000/svg"><path fill="#F0F3FA" d="M0 0h56v56H0z"/><path d="M23.02 28h-4.99c-.07.96 0 3.3 0 4.13 0 1.44 2.2 8.87 9.98 8.87 6.24 0 9.99-7.43 9.99-9.08V28h-5.2l-.8-.5.6 1.53c.34-.1 1.05-.18 1.2.2.2.5-.2.63-.2 1.45 0 .83 1.2.62 1.2 1.45 0 .82-.8.62-.8 1.24 0 .61.6 1.23.4 1.85-.2.62-.8.41-1.2.83-.4.41.4 1.24-.2 1.85-.6.62-1.2-.2-1.79.21-.6.41-.2 1.24-.8 1.65-.6.41-1-.41-1.8-.41s-1 .82-1.4.82c-.4 0-.6-.61-1.2-1.03-.6-.41-.8 0-1.39 0-.6 0-1.4-.41-1-.82.4-.42.2-2.07-1-1.65-.96.33-1.06-.55-1-1.04.96-.99.4-1.78 0-2.06-1.11-.66-.46-1.37 0-1.65.96-.16.8-1.17.6-1.65-.64-1 .27-1.24.8-1.24l.6-1.53-.6.5ZM27.4 10h1.2v2.94L30 15h-4l1.4-2.06V10Zm.4.4v2.66l-1.04 1.54h2.48l-1.04-1.54V10.4h-.4Z" fill="#0D0D85"/><path d="M23.62 16h8.92L34 21h-1.7c-.5-.78-1.43-3-2.72-3h-.2v5H30v-2h1.4l1.04 6h-1.32l-.58-1.57H30v4.13c0 .76.7 1.29 1.44 1.29.35 0 .57.31.57.64v.86c0 .34-.22.65-.57.65h-7.86c-.36 0-.58-.32-.58-.65v-.86c0-.33.22-.64.58-.64.58 0 .76-.58.76-1.08 0-.87.39-7.68.58-10.98 0-.28-.34-.92-1.14-1.07l-.16-.03V16Zm.38.43v.9c.9.25 1.3 1.05 1.3 1.47v.01c-.2 3.3-.57 10.11-.57 10.96 0 .72-.33 1.5-1.15 1.5-.13 0-.2.1-.2.22v.86c0 .12.07.22.2.22h7.86c.12 0 .19-.1.19-.22v-.86c0-.11-.07-.21-.2-.21-.97 0-1.81-.75-1.81-1.72V25h1.18l.57 1.54h.6l-.88-5.11h-.7v2H29v-5.86h.58c1.5 0 2.28 1.98 2.92 3h.98l-1.22-4.14H24ZM27 34h3.5v.36h-3.1v2.19H29v-.91h.4v.9h2.2v-.72h-1v-1.18H32V37h-8.22v-.45h.45V36H23v-1.36h1.64v1.9H26v-.9h.4v.9h.6V34Zm-2.77 1.64V35h-.82v.64h.82Zm7.36-.19V35H31v.45h.6Zm-.18-1.09H31V34h.4v.36Zm-4.95.64H26v-.36h.46V35ZM28 37.64h.4V38H28v-.36Zm1.55 0V38H29v-.36h.55Z" fill="#0D0D85"/><path fill-rule="evenodd" d="m22.61 10.24-.06-.24-.22.1c-.64.29-.94.76-1.04 1.25-.08.38-.03.76.05 1.04-.24.21-.47.44-.68.67v-.22a1.5 1.5 0 0 0-.37-.95l-.12-.13-.14.1c-.62.48-.83 1-.78 1.5.04.38.24.7.44.91-.2.3-.4.59-.57.9a2.52 2.52 0 0 0-.68-1.53l-.2-.22-.13.27c-.33.7-.37 1.32-.25 1.8.11.4.35.7.63.85-.22.47-.42.95-.6 1.44a2.72 2.72 0 0 0-1.15-1.56l-.2-.13-.09.25c-.26.84-.14 1.48.15 1.93.25.38.6.6.9.71a21.63 21.63 0 0 0-.32 1.23 1.88 1.88 0 0 0-1.09-1.17l-.24-.09-.03.27c-.08.83.08 1.38.35 1.74.23.3.53.43.77.46-.08.47-.15.94-.2 1.4l-.12-.14c-.3-.32-.68-.5-.95-.59l-.22-.07-.04.25c-.09.68.12 1.17.44 1.5.23.23.52.37.76.45-.03.5-.05.98-.05 1.45a2 2 0 0 0-.28-.3 1.68 1.68 0 0 0-1.07-.45H15v.22c0 .85.3 1.4.7 1.74.28.25.61.37.9.42 0 .25.03.48.05.7l.4-.04a18.1 18.1 0 0 1-.04-.67 1.8 1.8 0 0 0 1.2-1.02c.18-.44.16-.9.08-1.19l-.05-.16h-.15c-.56 0-.91.35-1.12.75 0-.45.02-.92.05-1.4.62-.05 1.02-.31 1.24-.67.24-.38.28-.82.24-1.11l-.03-.19h-.18c-.5 0-.87.31-1.13.66l-.03.03c.06-.5.13-1 .22-1.5.2.02.4 0 .56-.04.25-.08.43-.23.56-.42.24-.36.27-.84.24-1.16l-.03-.23-.22.05c-.32.07-.6.22-.82.4a20.96 20.96 0 0 1 .25-.97c.22.05.46.05.71-.04.4-.16.75-.56.92-1.3l.05-.2-.18-.07a1.4 1.4 0 0 0-.96.02c.13-.32.26-.64.41-.95.14.08.31.12.5.11.4-.01.85-.23 1.37-.78l.2-.21-.26-.14a1.92 1.92 0 0 0-1.17-.2l.5-.78c.14.1.34.18.57.2.4.01.91-.14 1.56-.59l.24-.16-.22-.2a1.67 1.67 0 0 0-1.28-.35c.23-.25.47-.5.72-.72.11.1.26.22.43.32.23.14.53.27.83.27.56 0 1-.32 1.17-.5l.12-.12-.1-.15c-.1-.18-.37-.34-.76-.42a3.28 3.28 0 0 0-.94-.02 9.4 9.4 0 0 1 1.03-.67 1.92 1.92 0 0 0 2.54-.85l.11-.2-.2-.1c-.8-.37-1.42-.34-1.89-.13-.46.21-.74.6-.86.9l-.03.07a9.6 9.6 0 0 0-.39.24c.1-.45.06-.88-.02-1.16Zm-.6 1.6c.1-.16.17-.34.21-.5.06-.26.07-.51.04-.72-.35.23-.5.53-.57.82-.04.23-.03.45 0 .65.1-.09.2-.17.32-.25Zm-2.98 4.35.1-.19c.17-.14.36-.2.55-.22.17-.01.34.01.5.05-.36.32-.65.42-.85.43a.58.58 0 0 1-.3-.07Zm-1 2.51.14-.45a.98.98 0 0 1 .9-.37c-.16.5-.4.7-.61.79a.8.8 0 0 1-.44.03Zm-.6 2.36.03-.15c.06-.1.13-.18.21-.27.17-.19.38-.35.64-.45-.01.2-.06.42-.18.59a.61.61 0 0 1-.34.25.99.99 0 0 1-.36.03Zm-.86 5.6v.2c-.2-.05-.42-.15-.62-.32a1.63 1.63 0 0 1-.53-1.15c.18.04.4.13.6.31.22.2.42.5.55.96Zm.08-3.03v.14a1.37 1.37 0 0 1-.51-.32 1.18 1.18 0 0 1-.34-.84c.18.08.37.21.53.38.16.17.29.38.32.64ZM22.2 12.7l-.14-.1c.5-.07.87-.06 1.13 0 .15.02.25.06.33.1-.17.1-.42.22-.7.22-.19 0-.4-.1-.62-.22Zm2.58-1.6c-.32.14-.74.19-1.25-.03.1-.17.29-.36.55-.48.3-.14.73-.2 1.31.03-.14.17-.34.36-.6.48Zm-4.2 3.24a.66.66 0 0 1-.34-.1c.32-.28.63-.35.9-.34.17 0 .33.05.46.11-.46.27-.8.34-1.03.33Zm-.92-1.04c.03.23.14.44.26.6.27-.41.34-.76.33-1.04a1.16 1.16 0 0 0-.14-.5c-.4.35-.47.68-.45.94Zm-1.3.9c.27.4.48 1.02.24 1.7a.93.93 0 0 1-.34-.53 2 2 0 0 1 .1-1.17Zm-1.07 3.18c.18.31.3.7.24 1.14-.2-.09-.43-.25-.59-.5-.18-.28-.3-.68-.17-1.26.18.15.37.36.52.62Zm-1.08 2.2c.32.21.69.65.66 1.38a.8.8 0 0 1-.38-.28c-.16-.2-.29-.54-.28-1.1Zm1.71 3.77c-.13.2-.36.4-.77.46.08-.19.19-.4.33-.58.17-.23.38-.4.62-.47 0 .2-.06.4-.18.6Zm-.1 2.74c-.1.27-.32.54-.74.71.02-.26.09-.57.2-.83.15-.31.35-.53.64-.6.03.21.01.47-.1.72ZM33.39 10.24l.06-.24.22.1c.64.29.94.76 1.04 1.25.08.38.03.76-.05 1.04.24.21.47.44.68.67v-.22c.02-.43.2-.77.37-.95l.12-.13.14.1c.62.48.83 1 .78 1.5-.04.38-.24.7-.44.91.2.3.4.59.57.9.05-.68.39-1.22.68-1.53l.2-.22.13.27c.33.7.37 1.32.24 1.8-.1.4-.34.7-.62.85.22.47.42.95.6 1.44.05-.23.14-.45.25-.63.26-.45.62-.77.89-.93l.22-.13.08.25c.26.84.14 1.48-.15 1.93-.25.38-.6.6-.9.71a21.61 21.61 0 0 1 .31 1.23c.23-.68.76-1.05 1.1-1.17l.24-.09.02.27c.1.83-.07 1.38-.34 1.74-.23.3-.53.43-.77.46.08.47.15.94.2 1.4l.12-.14c.3-.32.68-.5.95-.59l.22-.07.04.25c.09.68-.12 1.17-.44 1.5a1.8 1.8 0 0 1-.76.45c.03.5.05.98.05 1.45a2 2 0 0 1 .28-.3c.37-.33.79-.45 1.07-.45H41v.22c0 .85-.3 1.4-.7 1.74-.28.25-.61.37-.9.42 0 .25-.03.48-.05.7l-.4-.04.04-.67a1.8 1.8 0 0 1-1.2-1.02 1.9 1.9 0 0 1-.08-1.19l.05-.16h.15c.56 0 .91.35 1.12.75 0-.45-.02-.92-.05-1.4-.62-.05-1.02-.31-1.24-.67a1.7 1.7 0 0 1-.24-1.11l.03-.19h.18c.5 0 .87.31 1.13.66l.03.03c-.06-.5-.13-1-.22-1.5-.2.02-.4 0-.56-.04a1.03 1.03 0 0 1-.56-.42 1.77 1.77 0 0 1-.24-1.16l.03-.23.22.05c.32.07.6.22.82.4a21.15 21.15 0 0 0-.25-.97 1.2 1.2 0 0 1-.71-.04c-.4-.16-.75-.56-.92-1.3l-.05-.2.18-.07c.23-.08.6-.12.96.02-.13-.32-.26-.64-.41-.95a.97.97 0 0 1-.5.11c-.4-.01-.85-.23-1.37-.78l-.2-.21.26-.14a1.92 1.92 0 0 1 1.17-.2l-.5-.78c-.14.1-.34.18-.57.2-.4.01-.91-.14-1.56-.59l-.24-.16.22-.2a1.67 1.67 0 0 1 1.28-.35c-.23-.25-.47-.5-.72-.72-.11.1-.26.22-.43.32-.23.14-.53.27-.83.27-.56 0-1-.32-1.17-.5l-.12-.12.1-.15c.1-.18.37-.34.76-.42.24-.05.56-.06.94-.02a9.42 9.42 0 0 0-1.03-.67 1.92 1.92 0 0 1-2.54-.85l-.11-.2.2-.1c.8-.37 1.42-.34 1.89-.13.46.21.74.6.86.9l.03.07.39.24c-.1-.45-.06-.88.02-1.16Zm.6 1.6c-.1-.16-.17-.34-.21-.5a2.1 2.1 0 0 1-.04-.72c.35.23.5.53.57.82.04.23.03.45 0 .65a10 10 0 0 0-.32-.25Zm2.98 4.35-.1-.19a.94.94 0 0 0-.55-.22c-.17-.01-.34.01-.5.05.36.32.65.42.85.43.12 0 .22-.03.3-.07Zm1 2.51-.14-.45a.98.98 0 0 0-.9-.37c.16.5.4.7.61.79.15.05.3.06.44.03Zm.6 2.36a27 27 0 0 0-.03-.15 2.28 2.28 0 0 0-.21-.27 1.77 1.77 0 0 0-.64-.45c.01.2.06.42.18.59.07.11.18.2.34.25.1.03.21.04.36.03Zm.86 5.6v.2c.2-.05.42-.15.62-.32.25-.22.48-.58.53-1.15-.18.04-.4.13-.6.31-.22.2-.42.5-.55.96Zm-.08-3.03v.14c.18-.06.36-.16.51-.32.19-.19.33-.45.34-.84-.18.08-.37.21-.53.38-.16.17-.29.38-.32.64ZM33.8 12.7l.14-.1c-.5-.07-.87-.06-1.13 0a1.3 1.3 0 0 0-.33.1c.17.1.42.22.7.22.19 0 .4-.1.62-.22Zm-2.58-1.6c.32.14.74.19 1.25-.03-.1-.17-.29-.36-.55-.48-.3-.14-.73-.2-1.31.03.14.17.34.36.6.48Zm4.2 3.24c.16-.01.27-.05.34-.1a1.26 1.26 0 0 0-.9-.34c-.17 0-.33.05-.46.11.46.27.8.34 1.03.33Zm.92-1.04c-.03.23-.14.44-.26.6-.27-.41-.34-.76-.33-1.04 0-.21.07-.38.14-.5.4.35.47.68.45.94Zm1.3.9c-.27.4-.48 1.02-.24 1.7.14-.1.27-.27.34-.53a2 2 0 0 0-.1-1.17Zm1.07 3.18c-.18.31-.3.7-.24 1.14.2-.09.43-.25.59-.5.18-.28.3-.68.17-1.26-.18.15-.37.36-.52.62Zm1.08 2.2c-.32.21-.69.65-.66 1.38a.8.8 0 0 0 .38-.28c.16-.2.29-.54.28-1.1Zm-1.71 3.77c.13.2.36.4.77.46-.08-.19-.19-.4-.33-.58-.17-.23-.38-.4-.62-.47 0 .2.06.4.18.6Zm.1 2.74c.1.27.32.54.74.71-.02-.26-.09-.57-.2-.83-.15-.31-.35-.53-.64-.6-.03.21-.01.47.1.72Z" fill="#0D0D85"/><path d="M15 29c0-1 1.01-1.5 1.5-1.5C16.5 39 24.5 42 28 42c7.06 0 11.29-7.5 11.5-14.5 1 0 1.5 1 1.5 1.5h-.5c0 6.5-4.93 11.44-7.5 13v1h2.5l.5 1v2H20v-2.13l.5-.87H23v-1c-6.32-3.06-7.5-10-7.5-13H15Z" fill="#3C3C97"/><path fill="#8081AD" d="M21 44h14v1H21z"/></svg>