<!-- by TradingView --><svg width="56" height="56" viewBox="0 0 56 56" xmlns="http://www.w3.org/2000/svg"><path fill="#F0F3FA" d="M0 0h56v56H0z"/><circle cx="28" cy="28" r="16" fill="url(#arwekekij)"/><path d="M38 18.29c-.03-.43-.43-1.29-1.79-1.29-1.69 0-6.14 3-9.09 10.36-2.7.3-3.87 1.83-4.12 2.64a11.8 11.8 0 0 1 3.21-.47c-2.58 5.83-4.82 8.19-5.62 8.27 0-.6-.54-1.38-1.25-1.38S18 37.11 18 37.8c0 .68.45 1.2 1.6 1.2 1.16 0 4.95-1.02 8.85-9.52 2.87-.13 4.22-1.68 4.55-2.48-.18.09-1.15.25-3.54.3 3.34-7.08 5.23-9.18 6.13-9.18 0 .51.09 1.37 1.07 1.37.98 0 1.34-.69 1.34-1.2Z" fill="#FBFFFF"/><defs><linearGradient id="arwekekij" x1="19.03" y1="14.73" x2="36.62" y2="40.57" gradientUnits="userSpaceOnUse"><stop stop-color="#2C9FD3"/><stop offset=".21" stop-color="#24A7DF"/><stop offset=".68" stop-color="#293894"/></linearGradient></defs></svg>