<!-- by TradingView --><svg width="56" height="56" viewBox="0 0 56 56" xmlns="http://www.w3.org/2000/svg"><path fill="#F0F3FA" d="M0 0h56v56H0z"/><path d="m28 9 16 8.94v20.12L28 47l-16-8.94V17.94L28 9Z" fill="#126C38"/><path d="M22.01 16.5c.83-.5 3.32-1.5 6.68-1.5 4.2 0 7.52 1.9 9.31 3.81h-1.27v1.14c-1.5-1.29-5.24-3.64-8.04-3.64-2.8 0-5.43.68-6.39 1.14l-.29-.95Zm-.28-.01c-.15-.6-.7-.68-.95-.65-.2 0-.41.38.2.65.16.06.28.2.38.39a1.18 1.18 0 0 0-.05-.04c-1.61.75-3.26 2.2-3.31 2.32.07.23.33.71.83.84a20.74 20.74 0 0 1 3-1.87c.07.18.14.32.22.38.33.25 1.05-.2.81-.36a3.62 3.62 0 0 1-1.13-1.66Z" fill="#F0F3FA"/><path fill-rule="evenodd" d="M31.67 28.56c.47.52 1.56 1.6 2.21 1.7.15.03.34.05.54.07.87.09 2.03.2 2.03.95 0 .53-.56.74-1.02.9-.32.12-.6.22-.57.4.05.44 1.79.7 2.17.57.2-.07.27-.68.33-1.28.05-.5.1-.99.23-1.18l.05-.08c.28-.4.59-.84.11-1.06-.4-.18-.82-.08-.97 0-.21-.19-.61-.65-.58-1 .01-.18.1-.32.18-.48.11-.2.23-.41.23-.75 0-.48-.27-1-.41-1.2.19-.17.58-.67.58-1.28 0-.77-.93-1.76-2.74-1.76-.94 0-1.73.14-2.48.28-.69.12-1.35.24-2.07.24-1.52 0-2.37-.42-2.37-1.1 0-.7.85-.95 1.6-.98.37-.02.62.1.89.23.3.14.63.3 1.18.3.82 0 1.5-.36 1.73-.53a3.04 3.04 0 0 0-3.03-.4c-1.04-.13-3.12-.03-3.12 1.37 0 .98 1.47 1.75 3.28 1.75 1.02 0 1.94-.2 2.74-.38a8.17 8.17 0 0 1 1.65-.26c1.09 0 1.94.7 1.94 1.24 0 .43-.4.74-.6.85-.13-.18-.62-.52-1.5-.52-.53 0-1.12.12-1.73.24-.65.14-1.32.28-1.98.28-1.01 0-3.13-.57-4.07-.85a9.9 9.9 0 0 0-1.32-2.92c-.1.1-.22.16-.34.23-.15.08-.27.15-.25.21.03.17-.17.23-.55.18-.15-.02-.23-.1-.32-.2-.12-.15-.26-.32-.67-.34-.63-.02-.75-.18-.95-.42a5.29 5.29 0 0 0-.08-.1c-.31.58-.9.6-1.37.6-.28 0-.51 0-.64.12-.28.25-.11 1.6 0 2.25-.25.15-.76.54-.76.96 0 .42.23.91.34 1.1a1.35 1.35 0 0 1-.65-1.1c0-.61.36-1.02.56-1.25l.1-.12c.14-.2-.15-.44-.66-.44.58-.36.54-1.12.52-1.52l-.01-.19c.02-.22.22-.21.55-.21h.14c.41 0 1.17-.3 1.66-.91a5 5 0 0 1 1.63.9h1.57c-.7-.94-1.64-1.67-2.8-1.67-2.03 0-3.8 1.73-3.8 3.6 0 1.37.18 2.97 1.1 4.78.26-.27.61-.77.64-1.81.3 0 .58.26.54.54a7.08 7.08 0 0 1-.84 1.87c.13.23.29.47.45.71.6-.63.58-1.77.48-2.3.52 0 .47 1.41.1 2.3-.08.23-.15.4-.21.5l.22.29.25.42c.24.42.3.51.2.77-.05.13-.4.18-.83.25-.64.1-1.43.22-1.43.66 0 .74 1.25.5 1.63.18.3-.26.73-.37.9-.39-.3.17-.9.57-.9.78 0 .26 1.88.85 2 .85.04 0 .1-.12.18-.3.2-.46.55-1.28 1.22-1.6a3.85 3.85 0 0 0 2.28-2.65c0 1.24.16 1.45.88 1.24.2-.05.5-.1.86-.15.62-.08 1.43-.2 2.24-.45.16.18.43.46.74.73.19.17.33.24.43.3.18.09.23.12.2.4-.05.46-.22.74-1.07.72-.85-.02-1.82.06-1.82.57 0 .5.74.68.76.59.01-.08.4-.37.6-.5-.13.16-.29.5.05.5.33 0 .41-.14.41-.21.06.12.25.35.51.29.15-.04.32-.24.52-.48.23-.28.5-.6.82-.76.17-.09.37-.16.55-.23.46-.16.88-.31.88-.72 0-.33-.48-.84-1.01-1.41-.3-.32-.6-.65-.87-.99l.01-.33Zm-8.93-5.82c-.34.04-1 .25-.96.73.05.6 1.23.75 1.47.1-.19-.21-.67-.2-.76 0-.1.2-.38.06-.37-.21.01-.13.15-.2.3-.28.15-.09.32-.17.32-.34Zm-1.61.88c0 .26-.63.1-.94 0 .16.73 1.26.45 1.34 0 .07-.46-1.34-.67-1.34-.44 0 .1.2.14.4.17.26.04.54.1.54.27Zm.69 7.51c.04.59-.42 1.05-.65 1.2.41.27.97-.56.97-.66v-.15a3.75 3.75 0 0 1 0-.9c.07-.06.54.2.78.33l.09.05c.18.1.69-.72.67-1.06-.01-.22-.22-.43-.4-.63-.1-.1-.2-.2-.27-.3-.08-.11-.2-.23-.33-.32 0-.32.01-.85-.01-1.2-.04-.51.41-.78.41-.53.04 1.07.27 1.76.45 2.17.15.32.27.75.31.93a3 3 0 0 0 .2-.79c0-.12-.14-.38-.3-.66-.16-.3-.34-.63-.39-.87-.05-.27.27-.7.54-1.08.2-.27.37-.5.37-.63 0-.12-.04-.2-.08-.3-.06-.16-.14-.34-.14-.71 0-.4.25-.4.42-.41.1 0 .17 0 .16-.08a1 1 0 0 0-.17-.32c-.11-.18-.23-.37-.2-.48.04-.08.13-.02.24.06.12.09.27.19.38.12.22-.13-.23-1.22-.41-1.25-.13-.03-.35.12-.55.25l-.23.15c-.16.1-.12.55-.06 1.07.03.3.06.6.06.89 0 .8-.81 1.7-1.28 1.7-.35 0-.3-.39-.24-.74a2.43 2.43 0 0 0 .04-.46c0-.3 0-.44-.47-.5-.55-.07-.17.59 0 .86.16.28.09.88-.5.83-.38-.03-.77-.75-1.09-1.33a3.9 3.9 0 0 0-.4-.65c-.11.1-.34.38-.38.75-.05.42.57.79.87.97l.07.04c.27.16.7.47.81.81.11.34.3.44.8.44.3 0 .35-.1.38-.16.01-.05.03-.08.1-.08.2 0 0 .8-.2.98-.07.07-.01.15.08.23-.08.14-.2.29-.34.3-.24.03-.41-.18-.66-.48l-.1-.14c-.09.2 0 .31.1.43.1.11.2.24.2.47 0 .25-.13.37-.26.48-.13.11-.24.21-.24.42 0 .18.15.24.32.32.23.1.5.2.53.62Zm.16-1.89c.44-.08 1.25.02 1 1.08-.42-.12-1.34-.46-1-1.08Zm3.83-4.06c-.15.42-.49 1.35-.57 1.78a2.5 2.5 0 0 0 0 .98c-.14-.07-.42-.35-.4-.98.02-.78.43-1.78.97-1.78Zm-1.23.31c-.07-.55.44-1.56.71-2 .55.38 0 1.55-.26 2.13l-.14.33c-.02.2-.3.02-.3-.46Zm-.63 3.38c.16-.15.49-.51.49-.85 0-.22-.13-.34-.25-.47-.12-.12-.24-.24-.24-.43 0-.31.47-.7.7-.85-.13.2-.4.63-.4.85.02.12.15.27.29.42.17.2.36.4.33.6-.05.37-.92.95-.92.73Z" fill="#F0F3FA"/><path d="m19.5 37 .35 1.15H21l-.93.7.36 1.15-.93-.7-.93.7.36-1.15-.93-.7h1.15L19.5 37Zm4 0 .35 1.15H25l-.93.7.36 1.15-.93-.7-.93.7.36-1.15-.93-.7h1.15L23.5 37Zm4 0 .35 1.15H29l-.93.7.36 1.15-.93-.7-.93.7.36-1.15-.93-.7h1.15L27.5 37Zm4 0 .35 1.15H33l-.93.7.36 1.15-.93-.7-.93.7.36-1.15-.93-.7h1.15L31.5 37Zm4 0 .35 1.15H37l-.93.7.36 1.15-.93-.7-.93.7.36-1.15-.93-.7h1.15L35.5 37Z" fill="#F0F3FA"/></svg>