<!-- by TradingView --><svg width="56" height="56" viewBox="0 0 56 56" fill="none" xmlns="http://www.w3.org/2000/svg">
<rect width="56" height="56" fill="#4AA5B6"/>
<path fill-rule="evenodd" clip-rule="evenodd" d="M11 19H16V37H11V19ZM40 19H35V37H38.4286H40H47V33H40V19ZM19 19V37H27.1282C29.7379 37 33 36.1054 33 32.2018C33 29.0789 30.9424 28.0633 30 27.9458V27.1325C30.734 26.7711 32.3748 25.5494 32.3748 23.5542C32.3748 20.1277 29.8194 19.0904 28.5417 19H19ZM26.1767 22H24V26H26.1767C27.2277 26 28.0796 25.1046 28.0796 24C28.0796 22.8954 27.2277 22 26.1767 22ZM26.4257 30H24V34H26.4257C27.5713 34 28.5 33.1046 28.5 32C28.5 30.8954 27.5713 30 26.4257 30Z" fill="#0103F6"/>
<path fill-rule="evenodd" clip-rule="evenodd" d="M16 32.6331L14.1822 34.4951C13.9575 34.6398 13.4852 34.7709 13.3941 34.1375C13.3869 34.0876 13.38 34.0368 13.3731 33.9859C13.2701 33.23 13.1614 32.4326 12.0734 33.4886C11.7255 33.8262 11.3529 34.1915 11 34.5392V31.6761L12.0422 30.5063L12.0529 30.4937C12.2207 30.2977 12.925 29.4749 13.2959 29.4749C13.662 29.4749 13.5961 30.1094 13.5469 30.5821C13.5324 30.7218 13.5194 30.8473 13.5194 30.9382C13.5194 31.3367 13.744 32.1484 14.7248 31.0509C14.8731 30.885 15.3339 30.387 16 29.6718V32.6331ZM26.0234 19H28.5417C28.7361 19.0137 28.9601 19.0494 29.2001 19.1121L26.3707 22.0103C26.3069 22.0035 26.2422 22 26.1767 22H24V24.4386L19 29.5602V26.4622C21.3711 23.9315 24.1917 20.9317 26.0234 19ZM21.7659 19H25.0662L19 25.1969V22.0017C19.9429 20.9641 20.9304 19.8879 21.7659 19ZM11 27.3715L12.872 25.2262C13.018 25.0559 13.4047 24.7154 13.7841 24.7154C14.2584 24.7154 14.38 25.284 14.38 25.6825C14.38 26.081 14.6046 26.8927 15.5853 25.7952L15.6359 25.7386C15.7277 25.6359 15.8507 25.4982 16 25.3313V28.2615L15.0428 29.2393C14.8181 29.3841 14.3458 29.5152 14.2547 28.8818C14.2475 28.8318 14.2406 28.7811 14.2337 28.7301C14.1307 27.9742 14.022 27.1768 12.934 28.2328C12.278 28.8695 11.5342 29.6042 11 30.1348V27.3715Z" fill="#00FF30"/>
</svg>
