<!-- by TradingView --><svg width="56" height="56" viewBox="0 0 56 56" xmlns="http://www.w3.org/2000/svg"><path fill="#F0F3FA" d="M0 0h56v56H0z"/><path fill-rule="evenodd" d="M28 41c11.05 0 20-5.82 20-13s-8.95-13-20-13S8 20.82 8 28s8.95 13 20 13Zm-5-23v2.42c-1.43.17-2.73.4-3.6.6l.2.97c.83-.18 2.05-.4 3.4-.56v3.78l-3.97-.2v.46a6.95 6.95 0 0 1 3.75 1.69l.22.16V36h1l.21-.2c.3-.29.62-.59.97-1.2.44-.75.82-1.67.82-2.6 0-1.03-.13-2.65-1.08-4.09a5.59 5.59 0 0 0-.92-1.06v-.59l4.02.22c.02.18.05.39.1.57.04.18.1.39.21.56.11.17.33.39.67.39.16 0 .28-.06.37-.11.08-.05.15-.12.2-.18.11-.11.22-.26.31-.41.13-.2.27-.44.4-.69l.21-.36c.22-.37.44-.71.65-.95.14-.18.25-.25.3-.28.03.05.07.13.1.25.09.27.15.6.22 1l.06.32c.1.5.21 1.06.42 1.5.22.45.6.91 1.26.91.3 0 .6-.11.85-.26.16-.1.31-.2.46-.34.27.35.66.6 1.19.6 1.94 0 2.8-1.61 2.99-2.38a.5.5 0 0 0-.98-.24c-.14.57-.75 1.62-2.01 1.62-.17 0-.34-.08-.49-.34.3-.38.58-.8.8-1.24.34-.62.59-1.3.64-1.88.03-.3.01-.6-.1-.88a1.11 1.11 0 0 0-1.64-.5c-.25.16-.44.42-.57.68a5 5 0 0 0-.45 1.95 5.4 5.4 0 0 0 .16 1.67c-.18.19-.35.32-.5.42a.73.73 0 0 1-.35.12c-.1 0-.2-.04-.35-.34a5.4 5.4 0 0 1-.4-1.53c-.07-.4-.15-.82-.25-1.15-.06-.21-.15-.43-.3-.61a.89.89 0 0 0-.7-.37c-.49 0-.87.35-1.12.64a7.64 7.64 0 0 0-.98 1.51l-.33.57A4.09 4.09 0 0 1 29 26v-1a.5.5 0 1 0-1 0v.47l-4-.2v-3.52c.74.37 1.82.75 3 .75a5.3 5.3 0 0 0 3.5-1.5l-.36-.48c-1.62-.46-3.99-.42-6.14-.2V18h-1Zm4 3.5c-.61 0-1.2-.12-1.7-.29 1.17-.07 2.3-.07 3.27.03-.42.15-.95.26-1.57.26Zm-3 13.1v-6.26l.08.12c.8 1.2.92 2.57.92 3.54a4.4 4.4 0 0 1-.68 2.1 8 8 0 0 1-.32.5Zm11.43-8.65c-.07.15-.16.3-.24.43a5.2 5.2 0 0 1 0-.54c.03-.62.16-1.18.34-1.54.1-.19.18-.28.24-.31.03-.03.04-.03.07-.02.04.02.06.04.08.08.03.07.05.2.04.4-.04.4-.23.94-.53 1.5ZM39.55 32a.5.5 0 0 0-.1-1c-8.1.81-13.02 4.39-14.45 6l.3.5c1.24-1.39 6.35-4.71 14.25-5.5Z" fill="#85C226"/></svg>