<!-- by TradingView --><svg width="56" height="56" viewBox="0 0 56 56" xmlns="http://www.w3.org/2000/svg"><path fill="#F0F3FA" d="M0 0h56v56H0z"/><path fill-rule="evenodd" d="M29 25.91V21c0-.5-.14-1.21-.59-1.83A2.85 2.85 0 0 0 26 18c-1.3 0-2.16.52-2.62 1.32-.38.67-.38 1.4-.38 1.65V21c0 .66.28 1.26.6 1.74.27.44.65.86 1.08 1.27a4 4 0 0 0-3.18 2.05l-.68.76a4 4 0 0 0-7.79.67l-.06.05a4 4 0 1 0-5.08 4.3l-.3.42A3.3 3.3 0 0 0 7 34v.03c0 .26 0 .98.38 1.65.46.8 1.33 1.32 2.62 1.32 1.13 0 1.93-.5 2.41-1.17.45-.62.59-1.34.59-1.83v-3.92l.4-.32a4 4 0 0 0 5.69 1.65A1 1 0 0 0 21 31v-1.87l.13-.13a4 4 0 0 0 7.85-.57l.05.05a4 4 0 0 0 5.94 3l.03.02.07-.08a4.02 4.02 0 0 0 1.48-1.58l.62-.67a4 4 0 0 0 7.58.22l.25-.32V31a1 1 0 1 0 2 0v-4c0-.17.06-.46.21-.67.12-.15.32-.33.79-.33.47 0 .67.18.79.33.15.21.21.5.21.67v4a1 1 0 1 0 2 0v-4c0-.5-.14-1.21-.59-1.83A2.85 2.85 0 0 0 48 24a2.85 2.85 0 0 0-2.86 2.07l-.4.5a4 4 0 0 0-7.22-.55L37.5 26l-.7.78a4 4 0 0 0-7.43-.46l-.37-.4Zm-19.16 6.7 1.16-.93V34c0 .17-.06.46-.21.67-.12.15-.32.33-.79.33-.38 0-.58-.07-.69-.13a.45.45 0 0 1-.2-.18c-.1-.18-.11-.43-.11-.69 0-.1.05-.3.28-.66.14-.23.33-.47.56-.73Zm15.44-10.95c-.23-.35-.28-.57-.28-.66 0-.26.02-.51.12-.7.04-.06.1-.12.2-.17.1-.06.3-.13.68-.13.47 0 .67.18.79.33.15.21.21.5.21.67v2.59a28.4 28.4 0 0 1-.78-.78c-.4-.42-.72-.8-.94-1.15ZM25 30a2 2 0 1 0 0-4 2 2 0 0 0 0 4Zm-14-2a2 2 0 1 1-4 0 2 2 0 0 1 4 0Zm8 0a2 2 0 1 1-4 0 2 2 0 0 1 4 0Zm14 2a2 2 0 1 0 0-4 2 2 0 0 0 0 4Zm10-2a2 2 0 1 1-4 0 2 2 0 0 1 4 0Z" fill="url(#a4clg4qqm)"/><defs><linearGradient id="a4clg4qqm" x1="6" y1="29.5" x2="50.5" y2="29.5" gradientUnits="userSpaceOnUse"><stop stop-color="#00ABEE"/><stop offset="1" stop-color="#293795"/></linearGradient></defs></svg>