<!-- by TradingView --><svg width="56" height="56" viewBox="0 0 56 56" xmlns="http://www.w3.org/2000/svg"><path fill="#F0F3FA" d="M0 0h56v56H0z"/><path d="M32.89 16c5.69 0 7.11 3.28 7.11 4.92v.55c-.36-1.46-2.3-4.38-7.11-4.38-6.02 0-21.89 10.94-18.6 16.96 4.92 6.02 15.86 1.1 20.79-2.73v.54c-3.65 2.55-12.26 7.55-17.51 7.11-5.26-.43-6.57-4.56-6.57-6.56C11 22 25.77 16 32.89 16Z" fill="url(#a)"/><path d="M33.43 17.1c4.38 0 6.2 2.91 6.57 4.37a8.21 8.21 0 0 0-6.57-3.28c-4.37 0-18.6 8.2-16.41 14.77 2.24 6.7 13.13 1.64 18.06-1.64-2.38 1.82-7.12 6.01-14.23 6.01-6.57 0-7.11-3.83-7.11-6.01 0-7.66 13.68-14.23 19.7-14.23Z" fill="url(#b)"/><path d="M31.75 39.68c-3.05.9-4.38-.32-4.66-1.04L27 38.4c.44.58 1.98 1.56 4.57.8 3.23-.95 9.6-7.33 7.1-10.4-2.6-2.34-8.7 2.02-10.7 4.49l-.1-.24c1.53-1.7 5.3-5.26 8.2-5.9 2.9-.64 4.3.96 4.65 1.84 1.77 4.58-5.15 9.56-8.97 10.7Z" fill="url(#c)"/><path d="M31.27 39.29c-2.35.69-3.83-.3-4.27-.89.58.37 2.2.96 4.09.4 2.35-.69 8.6-6.55 6.3-9.1-2.34-2.59-7.33 1.37-9.42 3.59.96-1.18 2.8-3.77 6.62-4.9 3.52-1.04 4.47.56 4.84 1.52 1.3 3.37-4.92 8.42-8.16 9.38Z" fill="url(#d)"/><path d="M43.5 21c-.3 0-.55-.06-.77-.18-.22-.11-.4-.28-.52-.49-.13-.2-.2-.45-.21-.72h.75c0 .13.04.25.1.34.07.1.16.18.27.23.11.05.24.08.37.08.15 0 .28-.03.4-.09.1-.06.2-.15.26-.26.06-.1.1-.23.09-.37a.75.75 0 0 0-.1-.4.67.67 0 0 0-.28-.26.95.95 0 0 0-.44-.1H43v-.67h.42c.14 0 .27-.03.37-.09.1-.06.2-.14.25-.25.07-.1.1-.23.1-.37a.75.75 0 0 0-.08-.36.57.57 0 0 0-.22-.24.63.63 0 0 0-.34-.08.75.75 0 0 0-.34.08.66.66 0 0 0-.36.58h-.71a1.34 1.34 0 0 1 .7-1.2c.21-.12.45-.18.72-.18.27 0 .5.06.7.18.2.12.36.29.47.49.11.2.17.43.17.68 0 .27-.07.5-.2.69a.93.93 0 0 1-.54.36v.04c.29.05.5.17.66.38.15.2.23.46.23.76a1.39 1.39 0 0 1-.73 1.24 1.6 1.6 0 0 1-.78.18Z" fill="#1B6DB1"/><defs><linearGradient id="a" x1="33.43" y1="16" x2="20.86" y2="38.98" gradientUnits="userSpaceOnUse"><stop stop-color="#A4CA44"/><stop offset="1" stop-color="#6A8634"/></linearGradient><linearGradient id="b" x1="26.87" y1="17.09" x2="26.87" y2="37.36" gradientUnits="userSpaceOnUse"><stop stop-color="#6A8634"/><stop offset="1" stop-color="#A8CF45"/></linearGradient><linearGradient id="c" x1="36.96" y1="27.53" x2="34.76" y2="40" gradientUnits="userSpaceOnUse"><stop stop-color="#A4CA44"/><stop offset="1" stop-color="#6A8634"/></linearGradient><linearGradient id="d" x1="36.96" y1="28.06" x2="31.47" y2="39.75" gradientUnits="userSpaceOnUse"><stop stop-color="#6A8634"/><stop offset="1" stop-color="#A8CF45"/></linearGradient></defs></svg>