<!-- by TradingView --><svg width="56" height="56" viewBox="0 0 56 56" xmlns="http://www.w3.org/2000/svg"><path fill="#F0F3FA" d="M0 0h56v56H0z"/><path d="M11 29v-2.27a17.8 17.8 0 0 1 6.29-11.9 11.52 11.52 0 0 1 4.6-2.64.12.12 0 0 1 .08.06c0 .02.03.04.03.05v4.27c0 .07-.04.13-.1.18-.31.32-.76.61-1.19.95-3.35 2.65-5.3 6.32-5.14 10.6.15 4.03 1.68 7.24 4.6 9.63a13.04 13.04 0 0 0 5.23 2.7.1.1 0 0 0 .07-.06.1.1 0 0 0 .01-.05v-3.35a.17.17 0 0 0-.16-.17h-3.15c-.05 0-.1-.03-.13-.07-.03-.03-.04-.09-.04-.14v-2.58c0-.1-.05-.2-.12-.26a8.55 8.55 0 0 1-2.4-4.3c-.81-4.3.98-9.24 5.38-10.88a.22.22 0 0 0 .14-.2v-6.99c0-.04.02-.07.04-.1a.17.17 0 0 1 .09-.07c.64-.2 1.4-.31 2.1-.36 3.1-.23 6.01.38 8.72 1.82 5.14 2.75 8.16 7.19 9.05 12.95a.15.15 0 0 1-.04.13.16.16 0 0 1-.12.05H41.1a.23.23 0 0 1-.22-.16c-.28-.88-.5-1.51-.65-1.9-1.88-4.86-5.62-8.73-11.05-8.65a.19.19 0 0 0-.18.18v2.68a.16.16 0 0 0 .16.16c1.75.07 3.75.89 5.1 2.24 1.3 1.28 2.49 3.03 2.8 4.83a.14.14 0 0 1-.14.17H34.3a.21.21 0 0 1-.19-.11c-1.05-1.92-2-3.15-4.86-3.56-6.1-.87-8.55 8.11-3.4 10.61.86.46 1.81.54 3 .75a.2.2 0 0 1 .13.06c.03.04.01.08.01.13v7.48c0 .04.05.09.08.12s.07.05.12.05c3.45.15 6.04-1.48 8.3-3.91a.09.09 0 0 0-.03-.14c-.01 0-.03-.03-.05-.03H31.1l-.07-.01a.1.1 0 0 1-.03-.07v-3.46c0-.05.02-.1.05-.13a.2.2 0 0 1 .12-.07c.46-.02 1.37-.74 1.7-1.7a.24.24 0 0 1 .22-.17h3.05c.04 0 .07 0 .1.03.02.03.04.06.04.1a3.24 3.24 0 0 1-.92 2.38.08.08 0 0 0 .04.08l.04.02h8.23a.13.13 0 0 1 .08.09v.05c-.06.62-.17.88-.32 1.21a14.2 14.2 0 0 1-3.86 5.1 19.85 19.85 0 0 1-8.5 4.23c-5.24 1.18-11.2-1-14.95-4.77A17.73 17.73 0 0 1 11 29.01Z" fill="#292663"/></svg>