<!-- by TradingView --><svg width="56" height="56" viewBox="0 0 56 56" xmlns="http://www.w3.org/2000/svg"><path fill="#F0F3FA" d="M0 0h56v56H0z"/><path d="M27 32 17 22 7 32l6 6 4 4 10-10Zm-14 6V27h5.5a3.5 3.5 0 0 1 0 7H16v4h-3Zm3-9h1.5a1.5 1.5 0 0 1 0 3H16v-3Zm33 3L39 22 29 32l6 6 4 4 10-10Zm-14 6V27h5.5a3.5 3.5 0 1 1 0 7H38v4h-3Zm3-9h1.5a1.5 1.5 0 1 1 0 3H38v-3Zm0-8L28 11 18 21l4 4 6 6 6-6 4-4Zm-4 4h-2.97l-.8-2h-4.45l-.81 2H22l4.12-10h3.76L34 25Zm-6-7.5 1.41 3.5H26.6l1.4-3.5Z" fill="#4B9049"/></svg>