<!-- by TradingView --><svg width="56" height="56" viewBox="0 0 56 56" fill="none" xmlns="http://www.w3.org/2000/svg">
<rect width="56" height="56" fill="#F0F3FA"/>
<path fill-rule="evenodd" clip-rule="evenodd" d="M17 21.4244V21.0858C17.8466 20.9496 19.9017 20.5417 21 20V25.9568C21.6003 25.5302 22.6382 25 23.8043 25C25.6337 25 26 26.586 26 27.7534V31.7133C26 32.1272 26.2953 32.4622 26.7046 32.4622H26.9233V33H22.2804V32.4622C22.6815 32.4622 23 32.1334 23 31.7277V27.255C22.9587 26.8877 22.669 26.1532 21.8135 26.1532C21.506 26.1532 21.2327 26.3114 21 26.5426V31.6452C21 32.0663 21.247 32.4076 21.6596 32.4076V33H17.0833V32.4076H17.2717C17.7492 32.4076 18 32.0126 18 31.5253V22.1806C18 21.763 17.8045 21.4244 17.3952 21.4244H17ZM4 27C4 31.9513 8.28636 33.0276 10.4295 32.9995C12.3082 32.9995 13.8239 32.0338 14.3469 31.5509L14.9538 32.9995H16V28.0094C16 27.7371 16.1553 27.5163 16.4363 27.5163H17V27H11V27.5163H11.7362C12.3233 27.5163 12.5077 28.2002 12.5265 28.5421V30.1012C12.5397 30.899 12.1389 32.4946 10.4295 32.4946C7.98636 32.4946 7.99055 30.5609 7.99897 26.6818V26.6817V26.6816V26.6815C7.99948 26.4472 8 26.2057 8 25.9572C8 22.4669 9.54327 21.5396 10.4295 21.5123C12.8614 21.5123 14.3743 24.5184 14.8267 26H15V21H14.6921C14.6921 21.8069 13.9507 21.863 12.8508 21.4272C11.9708 21.0785 10.87 20.9973 10.4295 21.0003C8.28636 20.9792 4 22.234 4 27ZM36.1381 26.0592V26.3895H36.5334C36.9426 26.3895 37 26.7198 37 27.1272V31.5614C37 32.0368 36.8873 32.4221 36.4099 32.4221H36.2215V33H40.7978V32.4221C40.3852 32.4221 40 32.0891 40 31.6784V26.5338C40.2307 26.3074 40.501 26.1532 40.8047 26.1532C41.6601 26.1532 41.9565 26.8877 41.9978 27.255V31.7277C41.9978 32.1334 41.6726 32.4622 41.2715 32.4622V33H45.9144V32.4622H45.6957C45.2865 32.4622 45 32.1272 45 31.7133V27.7534C45 26.586 44.6248 25 42.7954 25C41.6351 25 40.6016 25.5249 40 25.9505V25C38.9017 25.5285 36.9847 25.9263 36.1381 26.0592ZM27.9369 27.5438C27.9456 26.6959 28.9124 25 32.7107 25C34.615 25 35.0427 26.5025 35 27.2537V31.5947C35.0139 31.7319 35.0462 32.0062 35.2119 32.0062C35.3775 32.0062 35.8554 31.4961 36.0737 31.2411L36.3864 31.5285C36.0453 32.019 35.0437 33 33.7656 33C32.4876 33 32.123 32.2459 32.1004 31.8689C31.7428 32.2459 30.7315 33 29.5475 33C28.0676 33 27.5769 32.1373 27.5769 31.1709C27.5769 30.2045 28.8153 29.5576 29.7344 29.2614C30.3761 29.0547 31.2558 28.643 31.79 28.393C31.868 28.3565 31.9386 28.3235 32 28.295V25.8478C31.9773 25.6971 31.9279 25.3957 31.5104 25.3957C30.9885 25.3957 30.5134 25.7776 30.5134 26.4089C30.5134 26.764 30.5626 26.912 30.6058 27.0415C30.6393 27.1421 30.6691 27.2317 30.6691 27.3987C30.6691 27.7806 30.1239 28.5132 29.1736 28.5132C28.2234 28.5132 27.9369 27.8759 27.9369 27.5438ZM32 28.9013V31.154L31.9972 31.1669C31.942 31.421 31.8369 31.9048 31.2611 31.9048C30.5973 31.9048 30.6121 31.1013 30.6207 30.6364C30.6216 30.5885 30.6224 30.5442 30.6224 30.5048C30.6224 30.0824 30.8083 29.1203 32 28.9013ZM50 21.5C50 22.3284 49.3284 23 48.5 23C47.6716 23 47 22.3284 47 21.5C47 20.6716 47.6716 20 48.5 20C49.3284 20 50 20.6716 50 21.5ZM46.0622 26.0592V26.3895H46.4575C46.8667 26.3895 47 26.7198 47 27.1272V31.5614C47 32.0368 46.8114 32.4221 46.334 32.4221H46.1455V33L51 33V32.4221C50.5874 32.4221 50 32.0891 50 31.6784V25C48.9017 25.5285 46.9088 25.9263 46.0622 26.0592Z" fill="#023F88"/>
</svg>
