<!-- by TradingView --><svg width="56" height="56" viewBox="0 0 56 56" xmlns="http://www.w3.org/2000/svg"><path fill="url(#aknuvlnlq)" d="M0 0h56v56H0z"/><path d="M19.83 30.67h4.66L22.76 36h-4.92A8.52 8.52 0 0 1 10 30.85h4.64c.8.76 1.87 1.22 3.06 1.22h1.67l.45-1.4Zm-6.54-3.26a4.42 4.42 0 0 1 4.42-4.16h6.25L25.38 19h-7.54a8.5 8.5 0 0 0-8.49 9.2l3.94-.79Z" fill="url(#bknuvlnlq)"/><path fill-rule="evenodd" d="M19.38 32.07h-1.67a4.41 4.41 0 0 1-3.06-1.22H10l.13.29a8.52 8.52 0 0 0 7.7 4.86h4.92l1.73-5.33h-4.66l-.45 1.4Zm.66-1.11-.45 1.4h-1.88a4.7 4.7 0 0 1-3.18-1.22h-4.07a8.22 8.22 0 0 0 7.38 4.57h4.71l1.54-4.75h-4.05Zm-7.02-3.79A4.67 4.67 0 0 1 17.71 23h6.04l1.23-3.71h-7.14a8.22 8.22 0 0 0-8.22 8.55l3.4-.67Zm.27.24a4.42 4.42 0 0 1 4.42-4.16h6.25L25.38 19h-7.54a8.5 8.5 0 0 0-8.49 9.2l3.94-.79Z" fill="#fff"/><path d="M25.64 25.23 4 30h20.16l1.48-4.77Z" fill="#D11F2F"/><path fill-rule="evenodd" d="M4 30h20.16l1.48-4.77L4 30Zm3.11-.29h16.83l1.28-4.1-18.11 4.1Z" fill="#F8F8F8"/><path d="m26.24 19-1.32 4.25h4.37L24.92 36h4.79l4.16-12.75h3.84L39 19H26.24Z" fill="url(#cknuvlnlq)"/><path fill-rule="evenodd" d="M33.87 23.25h3.84L39 19H26.24l-1.32 4.25h4.37L24.92 36h4.79l4.16-12.75ZM29.5 35.71 33.66 23h3.83l1.11-3.7H26.45L25.3 23h4.39l-4.37 12.7h4.17Z" fill="url(#dknuvlnlq)"/><path d="m39.92 19-1.43 4.27c2.54 0 3.65.97 3.65 2.88 0 1.53-1.48 2.38-2.22 2.6h-4.28L39.92 36h4.56l-2.34-3.88A6.88 6.88 0 0 0 46 25.97c0-5.1-4.07-6.77-6.08-6.97Z" fill="url(#eknuvlnlq)"/><path fill-rule="evenodd" d="M42.4 32a6.9 6.9 0 0 0 3.6-6.03c0-5.1-4.07-6.77-6.08-6.97l-1.43 4.27h.3c2.33.08 3.35 1.05 3.35 2.88 0 1.53-1.48 2.38-2.22 2.6h-4.28L39.92 36h4.56l-2.34-3.88.26-.13Zm1.56 3.7L41.72 32l.3-.14a6.56 6.56 0 0 0 3.63-5.88 6.4 6.4 0 0 0-5.53-6.65L38.9 23c1.1.04 1.96.3 2.56.78.68.55.98 1.37.98 2.38a2.7 2.7 0 0 1-.92 2c-.5.47-1.1.72-1.5.85h-3.86l3.94 6.7h3.87Z" fill="url(#fknuvlnlq)"/><path d="m39.25 18.46.54-1.46-.88 1.3-1.5-.53 1.33.86-.54 1.46.88-1.3 1.5.53-1.33-.86ZM25.4 25.37l.54-1.46-.87 1.3-1.5-.53 1.33.85-.54 1.47.87-1.3 1.5.53-1.33-.86Z" fill="#FEFEFE"/><path d="M23.67 41H23l1.56-4h.72l-1.61 4Z" fill="#D11F2F"/><path fill-rule="evenodd" d="m29.64 38 .91 1.27-.52.7h1.73l.14-.58L34.08 38h-1.33l-.99.73-.55-.73h-1.57Zm-4.54.88h1.09l-.54 1.1h1.65l.47-1.1h.94l.5-.88h-3.56l-.55.88ZM33.5 40l.96-1.99h4.44c.15.03.47.17.47.54 0 .47-.94.47-1.33.47l1.33.98h-2.32l-1.36-.98-.41.98H33.5Zm2.26-1.26.14-.4h1.32c.12 0 .36.05.36.18 0 .15-.18.22-.55.22h-1.27ZM39.54 40l.81-1.98h3.9l-.14.45h-2.17l-.11.28h2.13l-.2.52H41.6l-.1.21h2.12l-.26.52h-3.83Z" fill="#E3E3E4"/><defs><linearGradient id="aknuvlnlq" x1="10.42" y1="9.71" x2="68.15" y2="76.02" gradientUnits="userSpaceOnUse"><stop stop-color="#1A1E21"/><stop offset="1" stop-color="#06060A"/></linearGradient><linearGradient id="bknuvlnlq" x1="17.35" y1="19" x2="17.35" y2="36" gradientUnits="userSpaceOnUse"><stop stop-color="#A5A4A8"/><stop offset=".41" stop-color="#fff"/><stop offset=".44" stop-color="#88878D"/><stop offset="1" stop-color="#EFEFEF"/></linearGradient><linearGradient id="cknuvlnlq" x1="31.96" y1="19" x2="31.96" y2="36" gradientUnits="userSpaceOnUse"><stop stop-color="#9B9B9E"/><stop offset=".41" stop-color="#fff"/><stop offset=".44" stop-color="#88878D"/><stop offset="1" stop-color="#EFEFEF"/></linearGradient><linearGradient id="dknuvlnlq" x1="31.96" y1="19" x2="31.96" y2="36" gradientUnits="userSpaceOnUse"><stop stop-color="#fff"/><stop offset="1" stop-color="#fff" stop-opacity="0"/></linearGradient><linearGradient id="eknuvlnlq" x1="40.79" y1="19" x2="40.79" y2="36" gradientUnits="userSpaceOnUse"><stop stop-color="#A5A4A8"/><stop offset=".4" stop-color="#fff"/><stop offset=".44" stop-color="#88878D"/><stop offset="1" stop-color="#EFEFEF"/></linearGradient><linearGradient id="fknuvlnlq" x1="40.79" y1="19" x2="40.79" y2="36" gradientUnits="userSpaceOnUse"><stop stop-color="#fff"/><stop offset="1" stop-color="#fff" stop-opacity="0"/></linearGradient></defs></svg>