<!-- by TradingView --><svg width="56" height="56" viewBox="0 0 56 56" xmlns="http://www.w3.org/2000/svg"><path fill="#F0F3FA" d="M0 0h56v56H0z"/><path fill-rule="evenodd" d="M19.03 12.56H24V11h-5.55L14 16.59v21.93L18.34 44H23v-1.56h-4.01l-3.47-4.61v-20.7l3.5-4.57ZM22.48 43h-3.74L15 38.03v-21.1L18.79 12h4.69v-.44h-4.79l-4.17 5.23v21.52l4.06 5.13h3.9V43Zm14.49-30.44H32V11h5.55L42 16.59v21.93L37.66 44H33v-1.56h4.01l3.47-4.61v-20.7l-3.5-4.57ZM33.52 43h3.74L41 38.03v-21.1L37.21 12h-4.69v-.44h4.79l4.17 5.23v21.52l-4.06 5.13h-3.9V43Zm-6.3-30.72v-.7c.1 0 .16.47.18.7l.35-.22c-.13-.07-.37-.24-.28-.37.11-.16 1.33-.1 1.33 0 0 .2-.83.52-1.25.65.01.03.09.1.3.1.23 0 .73-.3.95-.46v.46c-.14.2-.51.62-.88.62-.31 0-.48-.17-.6-.3a.57.57 0 0 0-.17-.15c-.06.23-.52.54-.52.3.16-.08.46-.45.6-.63Zm1.34.01c-.3.3-.84.35-1.08.34 0 .05.1.18.46.24.45.07.62-.43.62-.58Zm-.81-.47c.1-.05.38-.13.59-.07.26.07-.37.34-.6.07Z" fill="#BF9E24"/><path fill-rule="evenodd" d="M26.37 13.4c.07.07.32.07.83-.54.2.11.3.2.37.26.14.11.17.14.52.14.43 0 .85-.35 1-.52l.28.12c-.23.2-.84.62-1.43.62-.46 0-.57-.09-.66-.22.02.15.17.45.66.45.6 0 1.24-.15 1.33-.23.08-.07.23-.24.29-.32 0 .25-.14.74-.8.75-.23 0-.43.02-.6.03-.45.04-.71.06-.88-.16-.11.17-.38.16-.5.13-.14.07-.43.16-.48 0-.04-.16.03-.41.07-.52Zm.08.32.6-.49.06.12-.57.47-.09-.1Z" fill="#BF9E24"/><path d="M29.1 11.93c.1-.34-.03-.55-.1-.62.12-.02.35.04.31.42-.03.38-.33.75-.48.88.06-.08.19-.33.28-.68ZM26 10.74c0 .45.37 1.24.55 1.58a4.8 4.8 0 0 1-.33-1.43c0-.5.24-.64.6-.64.55 0 .86.34 1.26.64-.02-.13-.75-.89-1.27-.89s-.81.17-.81.74Z" fill="#BF9E24"/><path d="M30 10.75c0 .44-.34 1.23-.51 1.57.21-.65.3-1.1.3-1.42 0-.5-.22-.64-.54-.64-.52 0-.8.34-1.17.64 0-.13.68-.89 1.17-.89.48 0 .75.18.75.74Zm-3.07-.33c.41 0 .88.59 1.06.88-.22-.32-.75-.62-.97-.62-.18 0-.21.19-.2.29.13 0 .42.05.42.24 0 .25-.02.33-.22.4-.17.06-.37.26-.46.35.04-.06.12-.24.13-.52.01-.34-.07-.24-.13-.47-.05-.23.1-.55.37-.55Z" fill="#BF9E24"/><path d="M29.04 10.53c-.33 0-.84.51-1.05.77.51-.37.79-.5.95-.52.14-.02.19.05.22.13.06.14.02.32 0 .39.1-.1.3-.34.28-.46-.03-.16-.13-.3-.4-.3Zm-1.45 15.49c1.84.07 3.53.41 4.53.7l.09.03-.06.05a.49.49 0 0 0-.11.17.82.82 0 0 0-.07.34v.07l-.1-.03c-4.58-1.36-7.9-.21-8.97.53l-.1-.06.77-.82H22l.18-.09c1.58-.78 3.57-.97 5.4-.9Zm-3.85.96-.57.61c1.37-.73 4.5-1.57 8.67-.35 0-.1.02-.19.05-.26a20.3 20.3 0 0 0-5.5-.54 6.97 6.97 0 0 0-2.65.54Zm8.2-.09a.64.64 0 0 1 .06-.1c-1-.28-2.64-.6-4.42-.68-1.75-.07-3.63.1-5.15.8h1.24a7.16 7.16 0 0 1 2.7-.57c1.39-.08 3.25.03 5.56.55Z" fill="#BF9E24"/><path d="M32.82 26.28c-.4-.11-.6.32-.66.55-.2.05-.24.35-.23.49-.07.19-.18.58 0 .67.23.1.23-.47.41-.56.18-.1 1.5.58 1.65.38.15-.2-1.17-.79-1.28-.98-.12-.19.6-.4.11-.55Z" fill="#BF9E24"/><path fill-rule="evenodd" d="M27.94 35.74c4.37 0 7.9-3.7 7.9-8.26 0-4.55-3.53-8.25-7.9-8.25-4.36 0-7.9 3.7-7.9 8.25 0 4.56 3.54 8.26 7.9 8.26Zm0-.4c4.16 0 7.52-3.52 7.52-7.86 0-4.33-3.36-7.85-7.52-7.85-4.15 0-7.52 3.52-7.52 7.85 0 4.34 3.37 7.86 7.52 7.86Z" fill="#BF9E24"/><path fill-rule="evenodd" d="M27.94 36.35c4.69 0 8.5-3.97 8.5-8.87 0-4.9-3.81-8.86-8.5-8.86-4.69 0-8.5 3.97-8.5 8.86 0 4.9 3.81 8.87 8.5 8.87Zm0-.43c4.46 0 8.08-3.77 8.08-8.44 0-4.66-3.62-8.44-8.08-8.44s-8.08 3.78-8.08 8.44c0 4.67 3.62 8.44 8.08 8.44Z" fill="#BF9E24"/><path fill-rule="evenodd" d="M27.94 37.03c5.05 0 9.14-4.27 9.14-9.55 0-5.27-4.1-9.54-9.14-9.54-5.05 0-9.14 4.27-9.14 9.54 0 5.28 4.1 9.55 9.14 9.55Zm0-.46c4.8 0 8.7-4.07 8.7-9.09 0-5.01-3.9-9.08-8.7-9.08-4.8 0-8.7 4.07-8.7 9.08 0 5.02 3.9 9.09 8.7 9.09Z" fill="#BF9E24"/><path fill-rule="evenodd" d="M27.94 37.73c5.42 0 9.82-4.59 9.82-10.25s-4.4-10.24-9.82-10.24-9.81 4.58-9.81 10.24 4.4 10.25 9.81 10.25Zm0-.5c5.16 0 9.34-4.36 9.34-9.75 0-5.38-4.18-9.75-9.34-9.75s-9.34 4.37-9.34 9.75c0 5.4 4.18 9.76 9.34 9.76Z" fill="#BF9E24"/><path d="m17.39 26.3-.39.16v2.08l.39.15v-2.38Zm.61-.18-.38.16v2.44l.39.16v-2.76Zm20.61.18.39.16v2.08l-.39.15v-2.38Zm-.61-.18.38.16v2.44l-.39.16v-2.76Zm-20.06 5.12-.28.31.86 1.87.41-.04-.99-2.14Zm.49-.45-.29.31 1.02 2.2.41-.03-1.14-2.48Zm18.64-9.18.4-.03.87 1.87-.28.31-1-2.15Zm-.64.12.41-.04 1.02 2.2-.29.32-1.14-2.48Zm1.63 9.51.28.31-.86 1.87-.41-.04.99-2.14Zm-.49-.45.29.31-1.02 2.2-.41-.03 1.14-2.48Zm-18.64-9.18-.4-.03-.87 1.87.28.31 1-2.15Zm.64.12-.41-.04-1.02 2.2.29.32 1.14-2.48Zm.86 13.63-.13.41 1.55 1.3.35-.2-1.77-1.5Zm.25-.62-.12.41 1.82 1.54.36-.21-2.05-1.74Zm13.12-16.6.35-.22 1.55 1.3-.13.42-1.77-1.5Zm-.53.38.35-.21 1.82 1.54-.12.41-2.05-1.74Zm-8.79 19.5.05.43 1.94.47.23-.35-2.22-.55Zm-.04-.67.06.43 2.28.55.23-.35-2.57-.63Zm4.86-20.92.23-.35 1.94.47.05.43-2.22-.55Zm-.31.59.23-.35 2.28.55.06.43-2.57-.63Zm2.53 21-.05.43-1.94.47-.23-.35 2.22-.55Zm.04-.67-.06.43-2.28.55-.23-.35 2.57-.63ZM26.7 16.43l-.23-.35-1.94.47-.05.43 2.22-.55Zm.31.59-.23-.35-2.28.55-.06.43 2.57-.63Zm8.56 18.34.13.41-1.55 1.3-.35-.2 1.77-1.5Zm-.26-.62.13.41-1.82 1.54-.36-.21 2.05-1.74ZM22.2 18.14l-.35-.22-1.55 1.3.13.42 1.77-1.5Zm.54.38-.36-.21-1.82 1.54.13.41 2.05-1.74ZM24 43.95a.78.78 0 0 0 .32-.07c.04-.03.07-.11.07-.24v-1.31c0-.11-.03-.18-.08-.21-.04-.04-.15-.06-.31-.06V42h1.22v.06c-.16 0-.27.02-.31.06-.05.03-.08.1-.08.2v.6h1.34v-.6c0-.1-.03-.17-.08-.2-.04-.04-.15-.06-.31-.06V42H27v.06a.72.72 0 0 0-.32.06c-.04.03-.07.1-.07.2v1.35c0 .11.03.18.07.21.05.04.16.06.32.07V44h-1.22v-.05a.88.88 0 0 0 .32-.07c.04-.03.07-.11.07-.24v-.6h-1.34v.63c0 .11.03.18.08.21.04.04.15.06.31.07V44H24v-.05Zm3.1-.57c.08.13.17.23.27.31.17.13.4.2.66.2.14 0 .26-.03.36-.09.1-.05.16-.14.16-.24 0-.1-.05-.18-.16-.25a3.04 3.04 0 0 0-.43-.2l-.38-.15-.27-.15c-.13-.09-.19-.19-.19-.3 0-.14.07-.27.22-.36.15-.1.35-.15.6-.15.1 0 .22.02.36.05l.25.05c.05 0 .1-.01.11-.03a.16.16 0 0 0 .05-.07h.1l.09.62h-.1a.68.68 0 0 0-.36-.4 1.12 1.12 0 0 0-.47-.1.69.69 0 0 0-.32.07.2.2 0 0 0-.13.2c0 .07.03.13.1.18.07.06.18.11.32.17l.4.16c.24.1.41.19.51.27.1.08.15.18.15.3 0 .15-.09.27-.27.38-.17.1-.4.15-.67.15-.14 0-.28-.02-.43-.05a2.32 2.32 0 0 0-.26-.05c-.05 0-.09 0-.1.03a.16.16 0 0 0-.04.07h-.1l-.13-.62h.1Zm1.9.57c.15-.02.24-.05.28-.09.04-.04.06-.14.06-.3v-1.23c0-.11-.02-.18-.06-.21-.04-.04-.13-.06-.27-.06V42h.7l.81 1.52.78-1.52h.7v.06c-.13 0-.21.02-.25.06-.04.03-.06.1-.06.2v1.35c0 .11.02.18.06.21.04.04.12.06.25.07V44h-.99v-.05c.15-.01.23-.04.27-.07.03-.03.05-.12.05-.24v-1.36l-.9 1.72h-.05l-.88-1.65v1.2c0 .17.02.28.08.33.04.03.12.05.25.07V44H29v-.05Zm-4.24-13.23-.05-.43c.18.06.28.06.4.18.26.27.16.45.06.73-.11.22-.12.3-.41.32.1-.58.17-.18 0-.8ZM24 28.57l.19.04-.03-.18.17.03.13.06c-.05.29-.35.77-.46 1.03.22.19.15 0 .13.3-.3.12-.22.04-.35-.09l-.1-.17-.52.15.04-.49.33-.22.05-.06.06-.06c.24.23-.1.12.39.13-.09-.19-.07-.15-.21-.25.33-.1.1.04.18-.22Zm.16-.14-.18-.02.02.16h-.3c-.17.33-.42.3-.67.64-.1.56.02.92.4 1.17.2.23.2 0 .5.19.07.04.31.34.35.4.44.68-.1.55-.12 1.11-.14.04-.08.02-.17.08-.74.48-.77.19-.8.68.36.13 1.03.23 1.13-.3.3-.13.53-.42.98-.47.5-.05.7.14 1.11-.13l.28-.14c.27.18-.04-.03.19.2l.18.15c0-.22.02-.54-.18-.67l.11-.57h-.46v-.14c.08-.03.08.17.15-.1.01-.03.03-.03.05-.05.02-.03.03.04.1-.14.07-.13.05-.08.06-.21.02-.11-.02-.4-.02-.53l.18-.4.02-.18c.48.14.34.28 1.04.14.34-.07.77-.08 1.11-.03.43.07.63.2 1 .31.42.12.62.04.95.05h.07l.13.03c.01-.02.04.01.06.02-.1.07 0 .04-.19.06l-.72-.05c.03.58.8 1.59.91 1.66.01.21.02.22.13.36.2.25.2.06.4.41.05.1.03.1.08.17l.09.08c-.02.2.04.23-.13.3-.14-.15-.1-.23-.25-.36l-.18-.2-.16-.18-.27-.02c-.02-.05-.88-.91-1.02-1-.25-.16-.45-.15-.7-.36-.39-.29-.36-.8-1.03-.39l-.05.04c-.96.62-.72-.03-1.33-.32.04.48.1.22.18.72.08.52.49 1.44.15 1.94-.26-.12-.13.12-.2-.4-.4.39-.49.44-.54.7.25.19.6.16.94.06.16-.41.03-.85.04-1.3.26-.25.3-.2.65-.35.33-.13.34-.19.73-.14.11.2.26.38.32.67.1.21.06.1.15.32l-.12.32c-.15.07-.24.05-.39.12-.26.12-.2.14-.23.44l.86-.05.17-.24c.48-.23.45-.73.45-1.05l.27.1.7.17c.09.28.05.18.35.33l.05.19c-.2.19-.4.17-.32.52.44.07.7.07 1.06-.06l.02-.52c-.07-.43-.1-.4-.4-.61-.22-.17-.06-.03-.24-.24-.11-.13-.05-.12-.23-.17-.04-.6-.46-.81-.53-1.3.17 0 .93-.08 1.34.14.7.28 1.18.6 1.3 1.03l.02.17a.98.98 0 0 0-.73.95c.4 0 .3.06.62-.16.56-.4.68-.61.42-1.25-.87-1.15-1.7-1.33-3.11-1.5-.61-.07-1.14-.4-1.87-.46-.43-.04-.7.07-1.03.12-.52.09-.5-.09-.8-.06l-.12-.26c0-.02-.02-.03-.03-.04-.07-.09-.04-.1-.21-.17-.2-.07-.13-.02-.25-.01-.21-.03-.31-.16-.46-.2-.18-.05-.13.07-.34-.05l-.17-.02-.01-.28c-.5.08-1.3-.22-1.3.43Zm5.7 3.65c-.1.4-.06.3-.3.44.09-.62-.01-.45.22-.63l.09.19Zm-5.54.45h-.27c.06-.15.1-.24.11-.45.4-.09.16-.3.5-.2.01.05.27-.03-.07.31-.2.2-.16.02-.27.34Zm8.84-.47c.05-.42-.15-.16.21-.39l.37-.15c-.21.37-.22.42-.58.54Zm-7.64-2.14c0-.09 0-.24.02-.31.16-.39-.02-.13.25-.17.17.29.14.35.04.69.08.32.07.19.1.24.07.19.25.41-.14.58-.22-.34-.15-.24 0-.65-.33.25-.11-.08-.22.3l-.02.3s-.4.05-.02-.6l-.01-.38Zm-2.09.46.06-.31.28.03-.26.26c-.01-.02-.05.01-.08.02Zm1.45-.2c.01-.65.07-.73.34-.87.18.3.09.77-.34.87Zm-.23-1.27c.08.11.14.1 0 .27-.18-.23-.04-.19 0-.27Zm.8-.31c-.04.27-.04.32-.32.38l-.03-.5c.36-.01.06-.04.35.12Zm-.7-.18c0 .31.03.03-.1.15-.18-.19-.18-.13 0-.36.05.05.11 0 .1.21Zm3.95-6.14c-.06 0-.17 0-.38-.03.17-.38.37-.23.45-.17l.03.02.14.04c.03 0 .05 0 .06.02.02.02.03.05.04.16l.01.1a1.85 1.85 0 0 1-.35-.14Zm0 0c.1 0 .07-.02.04-.03-.03 0-.08 0-.04.03Zm-2.74 1.28c.03.12.12.2.2.24.9 0 .84-.31.76-.7-.05-.28-.11-.59.15-.84.06.11.06.25.07.38 0 .17 0 .33.14.41l.02.03c.04.07.06.1.08.1l.08-.02.14-.05c.18-.05.3-.14.41-.21.2-.14.3-.21.48.14l.02.03v.02l.01.02.02.04v.01l.02.04a.2.2 0 0 0 .03-.05l.11-.39c.3-.82.92.7-.14.68-.22 0-.2-.03-.2-.05h.01l-.1.02-.05.01a1.4 1.4 0 0 1-.62.04l-.39-.02-.15.23a.66.66 0 0 1-.35.35.95.95 0 0 1-.66.09l-.14-.02-.01-.6c.04.03.05.03.06.07Zm6.67 1.13v.03c.18.09.18.08.2.03 0-.02 0-.06.04-.1-.2-.09-.22-.02-.24.04Zm-.92-.5.12-.08v-.1l.02-.2.12-.22c.05.15.07.3.06.5v.1c-.02.06-.02.1 0 .18.07.22.12.18.22.1.13-.1.34-.26.74-.13l.01.43-.17.15-.1.08h-.05c-.32-.05-.68-.1-.83-.31l-.04-.1c0-.03-.01-.06-.07-.14l-.13.05c-.15.05-.27.1-.51.06l.03-.54c.12.06.12.13.13.18 0 .06 0 .1.2.1.1 0 .17-.05.25-.1Zm-7.2.13v-.52a2.29 2.29 0 0 1-.05-.05l-.06-.05a.48.48 0 0 0-.13-.03l-.06-.02c-.07-.55-.07-.55-.35-.55h-.05c.04.23.06.22.08.22.02 0 .04-.01.1.11.02.07.02.15.03.24 0 .07 0 .14.02.22l.34.1c-.05.43-.44.59-.81.51-.01-.24.04-.3.09-.35.03-.04.07-.08.1-.18l-.02-.18c-.45.2-.43 1 0 1.1.33-.03.5-.23.65-.42l.12-.15Zm.45 0 .05-.18a.98.98 0 0 0 .39-.22l.1-.09-.03-.14-.03-.17v-.17c.02.02.04.05.07.01l.1.03.02.04.05.15-.03.35c-.06.13-.1.15-.18.22l-.02.02-.11.1h-.01l-.02.01-.13.04h-.22Zm5.81-1-.17.05-.16-.06h-.25l-.07.5c-.22.03-.43.06-.64 0-.18-.06-.2-.11-.21-.16-.02-.05-.03-.08-.22-.08-.27.68 1.46.78 1.28.03l.85.08.03-.12h.04l-.03-.01.03-.09.23.17.05-.3.15-.42-.07-.22c-.15.02-.15.05-.15.13l-.03.15a.57.57 0 0 0-.04.2c-.02 0-.06 0-.16.05l-.02-.17-.11.01-.12.01v.01c.02.02.04.05-.01.11h-.01l-.08.04-.1.1Zm-.35.91.03.01c.1.05.1.06.24.02.15-.05.2-.06.21-.09l-.01-.05a.52.52 0 0 1-.03-.14c-.27-.01-.35.03-.44.25Zm-5.48-1.31c-.13.22-.28.37-.52.37l.1-.22c.07-.07.1-.11.1-.14l.03-.02h.03c.03 0 .1.02.26 0Zm-1.82.83.18-.03c.14-.02.15-.02.24-.18v-.01c.03-.05.08-.18-.21-.08-.14.05-.15.1-.18.2l-.03.1Zm3.63-.33-.39.11c.05-.14.03-.18.02-.2v-.01l.05-.04.12-.06c.14-.08.2.02.22.04l-.02.16Zm.6.47v.01c-.01.05-.05.17.28 0l.11-.05.04-.02v-.01c0-.02-.02-.05 0-.15-.35.03-.37.07-.38.13a.2.2 0 0 1-.05.09Zm-2.08-.97.04-.09.03-.04.03-.02.27-.14v.01c0 .04.03.19-.14.28-.22.13-.22.04-.23 0Zm2.98.83s0 .14.38.07c.1-.01.12-.03.14-.05l.03-.02c-.19-.1-.27-.11-.55 0Zm4.68.09c-.03.05-.1.07-.22.13v-.09c0-.03-.01-.05.06-.16.06-.1.12-.12.16-.13h.04c0 .13 0 .2-.04.25Zm-2.78-1.14.23-.12a2.96 2.96 0 0 1-.03-.06l-.06-.1c-.02-.02-.06-.03-.13-.04l-.04-.01.03.33Zm-3.5-.36.03.28-.04.07c-.05.1-.08.13-.11.15h-.11l-.12-.01.05-.09v-.02l.01-.02.02-.13c.03-.13 0-.14 0-.15v-.01l.08-.08.2.01Zm5.96 1.02v-.03h-.26c.02.06.02.1.02.13v.04l.13.04.1.03v-.2Zm-4.54-.59h-.02c-.02-.03-.08-.07-.13 0-.08-.04-.1-.03-.12-.03v-.1c-.01-.1 0-.1.04-.1l.03-.01.07-.02.04-.01v.08l.05.1.04.1Zm-.28-.02h.01Zm1.64.59.05-.01v-.06l.03-.17-.13.04a.19.19 0 0 0-.07.03l-.06.12-.03.08.2-.03Zm.04-.86c0-.02-.01-.05-.03-.05.04-.03.05-.05.05-.06l.12-.02c.2-.02.14.06.13.07-.23.2-.25.13-.27.06ZM23.1 24.3c.03-.03.05-.01.06 0 .02.02.03.02.02-.14-.01-.1-.03-.1-.05-.13L23.1 24a.13.13 0 0 1-.05.04c-.05.03-.1.05.05.26Zm6.8-.75a.14.14 0 0 0-.07.06l-.07-.04v-.1c-.02-.13.04-.11.06-.1h.01c.11.16.1.16.07.18Zm-2.14-1.43c0 .02.02.04.03.04l.02.03c.04.1.14 0 .17-.03v-.01l-.22-.03Zm-1.47 1.22-.12-.03v-.06l.06-.02.1-.06c-.03.02-.07.06-.02.09-.04.04-.01.07-.02.08Zm.06-.19-.02.02.02-.02Zm-.2.09h.03-.02Z" fill="#BF9E24"/></svg>