<!-- by TradingView --><svg width="56" height="56" viewBox="0 0 56 56" xmlns="http://www.w3.org/2000/svg"><path fill="#E20A17" d="M0 0h56v56H0z"/><path d="M19.38 21.24c5.72.32 11.67.32 17.4 0 1.52-.1 2.22-.74 2.22-1.62 0-.62-.4-1.57-1.13-2.31-2.03-2.06-4.8-3.23-7.58-3.97a.67.67 0 0 1-.47-.47c-.3-1.01 1.45-.9 2.1-.83 4.16.47 8.53 2.4 11.17 5.78 4.37 5.6.58 11.36-4.74 14.11-1.31.68-7.58 3.1-8.57 1.57a.5.5 0 0 1 .27-.76c2.55-.77 8.9-3.1 8.95-6.5 0-.11 0-.23-.02-.36a.4.4 0 0 0-.11-.24c-.55-.57-1.55-.88-2.55-.92-6.47-.24-12.37-.2-17.44.1-1.07.07-1.92.78-1.88 1.74.01.29.1.6.28.9 1.59 2.73 5.1 4.38 8.09 5.22.44.13.63.36.63.6 0 .36-.43.73-1 .72-5.28-.14-9.3-2.19-12.4-6.15-2.97-3.77-1.5-8.79 1.88-11.59A17.38 17.38 0 0 1 24.88 12c.37 0 1.11.23 1.12.7.01.65-1.7 1.11-2.23 1.3-2.06.77-5.56 2.54-6.49 4.6-.2.45-.3.84-.28 1.17.03.94 1.1 1.4 2.38 1.47Zm-4.93-3.06c-.16.3-.34.72-.55 1.08a7.68 7.68 0 0 0-.9 4.13 8.3 8.3 0 0 0 3.21 6.4 16.86 16.86 0 0 0 8.25 3.54c.02 0 .05-.01.05-.04 0-.09-.15-.18-.22-.2-4.06-.8-8.57-3.19-10.07-7.3a3.09 3.09 0 0 1-.22-1.07c.01-1.84 2.52-1.72 4.02-1.72h21.62c1.42 0 2.9.5 2.3 2.32-1.36 4.2-6.17 6.8-10.34 7.7a.76.76 0 0 0-.36.19c-.1.09-.09.12.05.1 4.6-.73 10.16-3.6 11.44-8.43.18-.7.27-1.38.27-2.05a7.28 7.28 0 0 0-1.46-4.68c0-.02 0-.04.02-.05l.07-.07c.04-.04.09-.04.12 0a8.56 8.56 0 0 1 2.35 5.3c.02.26.1.28.25.07.02-.03.02-.13 0-.32-.45-6.07-6.46-9.36-11.8-10.37-.42-.08-.82-.1-1.2-.05a.11.11 0 0 0-.09.1.11.11 0 0 0 .09.11c4.47.92 8.61 3.15 10.5 7.51.1.22.14.43.15.61 0 1.01-1.22 1.51-2.22 1.56-1.35.06-2.68.12-4.06.11-6.62-.06-13.14.11-19.88-.11-3.1-.1-1.73-2.7-.74-4.07 2.3-3.12 5.9-4.83 9.6-5.6a.12.12 0 0 0 .1-.11c0-.05-.04-.1-.09-.11-.19-.04-.4-.05-.65 0a19.2 19.2 0 0 0-7.65 2.94c-2.67 1.75-4.29 4.34-4.87 7.77a.2.2 0 0 0 .19.23c.14.01.14-.1.15-.2a8.84 8.84 0 0 1 2.37-5.37.12.12 0 0 1 .08-.03c.09 0 .15.1.12.18Zm21.46 3.56c-5.8.27-11.67.41-17.45-.07a6.9 6.9 0 0 1-2-.55.25.25 0 0 0-.23.01l-.52.3a.2.2 0 0 0-.1.2.2.2 0 0 0 .17.16c.95.14 1.87.3 2.81.32 4.6.1 9.18.27 13.77.1 2.43-.08 5.26-.06 7.94-.53.05-.01.1-.05.1-.1a.13.13 0 0 0-.05-.13l-.57-.41a.18.18 0 0 0-.21 0c-.95.57-2.69.65-3.66.7ZM14 40.2c0-.11.09-.2.2-.2h1.6c.11 0 .2.09.2.2v.3c0 .28.22.5.5.5h2a.5.5 0 0 0 .5-.5v-.3c0-.11.09-.2.2-.2h1.6c.11 0 .2.09.2.2v3.6a.2.2 0 0 1-.2.2h-1.6a.2.2 0 0 1-.2-.2v-.3a.5.5 0 0 0-.5-.5h-2a.5.5 0 0 0-.5.5v.3a.2.2 0 0 1-.2.2h-1.6a.2.2 0 0 1-.2-.2v-3.6Zm8 .1c0-.17.13-.3.3-.3h1.4c.17 0 .3.13.3.3v3.4a.3.3 0 0 1-.3.3h-1.4a.3.3 0 0 1-.3-.3v-3.4Zm4 0c0-.17.13-.3.3-.3h1a3 3 0 0 1 1.33.32l1.94.96c.2.1.43-.04.43-.27v-.71c0-.17.13-.3.3-.3h1.4c.17 0 .3.13.3.3v3.4a.3.3 0 0 1-.3.3h-1.1a2 2 0 0 1-1.1-.34l-2.03-1.35a.3.3 0 0 0-.47.25v1.14a.3.3 0 0 1-.3.3h-1.4a.3.3 0 0 1-.3-.3v-3.4Z" fill="#fff"/><path fill-rule="evenodd" d="M37 40a2 2 0 1 0 0 4h3a2 2 0 1 0 0-4h-3Zm1 1a1 1 0 1 0 0 2h1a1 1 0 1 0 0-2h-1Z" fill="#fff"/></svg>