<!-- by TradingView --><svg width="56" height="56" viewBox="0 0 56 56" fill="none" xmlns="http://www.w3.org/2000/svg">
<rect width="56" height="56" fill="#F0F3FA"/>
<path d="M28.1574 14.6498C28.1709 14.6687 28.1894 14.6835 28.2108 14.6923C28.2323 14.7011 28.2557 14.7037 28.2786 14.6998C29.9193 14.4144 30.5635 12.4936 30.7049 11.0461C30.7056 11.0383 30.7081 11.0307 30.7122 11.024C30.7163 11.0174 30.7219 11.0117 30.7286 11.0076C30.7352 11.0035 30.7428 11.0009 30.7506 11.0002C30.7584 10.9995 30.7663 11.0006 30.7736 11.0034C32.7926 11.7973 33.4134 13.7255 33.1483 15.7734C33.1439 15.8045 33.1574 15.8199 33.1887 15.8193C34.6322 15.8078 36.6811 15.2116 37.0464 13.5254C37.0588 13.468 37.0825 13.4628 37.1175 13.5098C38.1634 14.9352 38.3525 16.7764 37.9209 18.4503C37.9101 18.4924 37.926 18.517 37.9686 18.5241C39.3949 18.7778 40.7053 18.5055 41.8999 17.7073C41.915 17.6969 41.9241 17.701 41.9274 17.7196C42.2216 19.5895 41.8296 21.7858 40.2034 22.8988C40.1995 22.9014 40.1964 22.905 40.1944 22.9093C40.1924 22.9135 40.1915 22.9183 40.192 22.923C40.1924 22.9277 40.194 22.9322 40.1967 22.936C40.1995 22.9398 40.2032 22.9428 40.2074 22.9447C41.575 23.5852 43.0759 23.7747 44.5315 23.3351C44.5343 23.3342 44.5373 23.3341 44.5402 23.3348C44.543 23.3356 44.5456 23.3371 44.5477 23.3392C44.5498 23.3413 44.5512 23.3439 44.552 23.3468C44.5527 23.3497 44.5526 23.3527 44.5517 23.3556C44.0635 25.1041 42.9385 26.6944 41.2565 27.371C41.252 27.3728 41.2479 27.3756 41.2445 27.3792C41.2411 27.3827 41.2386 27.387 41.237 27.3917C41.2355 27.3964 41.235 27.4014 41.2355 27.4064C41.2361 27.4113 41.2378 27.416 41.2404 27.4202C42.1036 28.8549 43.3399 29.7871 44.9494 30.2169C45.0059 30.2322 45.0151 30.2623 44.9768 30.3071C43.7564 31.7489 42.0478 32.3124 40.1945 32.1746C40.1882 32.1741 40.1818 32.175 40.1759 32.1771C40.1699 32.1793 40.1644 32.1827 40.1598 32.1871C40.1552 32.1914 40.1515 32.1967 40.149 32.2026C40.1465 32.2085 40.1452 32.2149 40.1452 32.2213C40.1315 33.9289 41.7301 35.3887 42.9554 36.3106C42.9818 36.3308 42.9802 36.3486 42.9506 36.3639C41.4149 37.1487 39.4986 37.2668 37.8336 36.9421C37.8247 36.9403 37.8156 36.9405 37.8068 36.9427C37.798 36.9449 37.7897 36.949 37.7826 36.9548C37.7754 36.9605 37.7696 36.9678 37.7654 36.9761C37.7613 36.9844 37.7589 36.9935 37.7585 37.0028C37.6933 38.5178 38.0497 39.9173 38.8278 41.2011C38.8493 41.2366 38.8396 41.2549 38.7987 41.256C37.068 41.3216 35.5431 40.7997 34.224 39.6904C34.2009 39.6701 34.1771 39.6699 34.1529 39.6895C32.829 40.75 32.5542 42.5846 32.6876 44.1856C32.6908 44.2222 32.6768 44.2315 32.6455 44.2134C31.1864 43.3791 30.1087 42.1858 29.4126 40.6335C29.3937 40.5909 29.3619 40.5756 29.3172 40.5876C27.5779 41.0477 26.7688 43.3679 26.4827 44.9639C26.4813 44.9713 26.478 44.9782 26.4732 44.9841C26.4685 44.9899 26.4623 44.9943 26.4555 44.997C26.4486 44.9998 26.4411 45.0006 26.4339 44.9996C26.4266 44.9985 26.4198 44.9955 26.414 44.9909C25.0933 43.9633 24.3384 42.2016 24.024 40.5983C24.0213 40.5845 24.0158 40.5715 24.0079 40.56C24.0001 40.5485 23.99 40.5388 23.9784 40.5314C23.9667 40.5241 23.9537 40.5192 23.9401 40.5171C23.9266 40.5151 23.9128 40.5159 23.8996 40.5195C22.4261 40.9156 21.4029 42.1828 20.7248 43.5557C20.7092 43.5874 20.6906 43.5893 20.669 43.5614C19.4882 42.0179 19.215 39.9651 19.7226 38.1173C19.725 38.1083 19.7255 38.0989 19.7242 38.0896C19.7228 38.0804 19.7196 38.0716 19.7148 38.0637C19.7099 38.0558 19.7035 38.0491 19.6959 38.0439C19.6884 38.0387 19.6798 38.0353 19.6708 38.0337C18.1336 37.7647 16.6432 38.7111 15.5779 39.7929C15.5531 39.818 15.5367 39.8134 15.5286 39.7789C15.0566 37.7852 15.5787 35.638 16.6294 33.9264C16.6328 33.9209 16.6351 33.9148 16.636 33.9084C16.637 33.902 16.6366 33.8955 16.6349 33.8892C16.6333 33.883 16.6303 33.8772 16.6263 33.8721C16.6223 33.8671 16.6173 33.8629 16.6117 33.86C15.1948 33.1292 13.5412 33.2121 12.0564 33.6443C12.0289 33.6525 12.0139 33.6421 12.0112 33.6131C11.8673 31.9548 13.6066 29.8462 14.7026 28.7398C14.715 28.7272 14.7234 28.7112 14.7268 28.6938C14.7301 28.6764 14.7281 28.6584 14.7212 28.6422C14.0891 27.1668 12.4525 26.8633 11.0461 27.1446C11.0393 27.146 11.0324 27.1454 11.0259 27.1431C11.0194 27.1408 11.0136 27.1367 11.0091 27.1314C11.0047 27.126 11.0017 27.1196 11.0006 27.1127C10.9994 27.1058 11.0001 27.0987 11.0025 27.0922C11.829 24.9953 13.3838 24.0191 15.6668 24.1634C15.6796 24.1644 15.6922 24.1604 15.7023 24.1521C15.7123 24.1439 15.719 24.1322 15.721 24.1191C15.999 22.2976 14.6016 20.9862 13.1152 20.3243C13.1092 20.3215 13.104 20.3172 13.1 20.3119C13.096 20.3065 13.0933 20.3002 13.0923 20.2936C13.0913 20.2869 13.0918 20.2801 13.094 20.2738C13.0962 20.2674 13.0998 20.2617 13.1047 20.2571C14.6544 18.8262 16.4624 18.3932 18.5288 18.958C18.5344 18.9595 18.5403 18.9597 18.5459 18.9585C18.5516 18.9574 18.5569 18.9549 18.5615 18.9514C18.5661 18.9478 18.5699 18.9432 18.5725 18.938C18.5751 18.9327 18.5764 18.927 18.5765 18.9211C18.6158 17.2644 17.8989 16.1129 16.4258 15.4666C16.422 15.4652 16.4188 15.4626 16.4166 15.4592C16.4145 15.4558 16.4134 15.4517 16.4137 15.4477C16.414 15.4436 16.4155 15.4398 16.4181 15.4367C16.4208 15.4336 16.4243 15.4314 16.4282 15.4306C18.5377 14.854 21.1903 14.6162 23.0857 15.9768C23.0976 15.9853 23.1117 15.99 23.1262 15.9905C23.1408 15.9909 23.155 15.987 23.1673 15.9792C24.5526 15.0894 24.163 12.8127 23.847 11.4931C23.84 11.4624 23.8516 11.4501 23.8818 11.4561C25.5823 11.7768 27.1681 13.2908 28.1574 14.6498Z" fill="#F47920"/>
</svg>
