<!-- by TradingView --><svg width="56" height="56" viewBox="0 0 56 56" xmlns="http://www.w3.org/2000/svg"><path fill="#F0F3FA" d="M0 0h56v56H0z"/><path d="M14 41c-.5 0-1-.74-1-1v3c0 .5.6.96 1 1h28c.77 0 1-.5 1-1v-3c-.2.52-.66 1-1 1-9.02-.02-27 0-28 0Z" fill="#145F1D"/><path fill-rule="evenodd" d="M15 19.53c0-1.4 1.15-2.53 2.57-2.53h20.86A2.55 2.55 0 0 1 41 19.53v17.94c0 1.4-1.15 2.53-2.57 2.53H17.57A2.55 2.55 0 0 1 15 37.47V19.53Zm8.16.72a8.75 8.75 0 0 1 4.75-1.06c3.13.14 6.77 1.78 8.09 3.81v-1h1c-.67-1.21-3.41-3.83-9.03-4-.86 0-3.11.24-5.27 1.19v.42h.38l-.38.49.19.28c.03 0 .12-.05.27-.13Zm.36.62c-.03.19-.18.56-.63.56-.57 0-.57-.63-.57-.7 0-.07-.12-.5-.75-.7-.04-.07-.02-.22.38-.28.02-.19-.06-.56-.57-.56-.02-.21.05-.63.5-.63.46 0 .57.37.57.56l.06.28v.35h.25l-.19.28.38.77.57.07Zm-4.52.9h.31c-.05-.38.22-.43.36-.41-.02-.5.38-.58.58-.56 0-.34.34-.37.5-.35-.01-.12.03-.35.38-.35.44 0 .94.42 1 .77.06.28-.35.44-.56.49.05.33-.31.46-.5.49.05.45-.4.56-.63.56-.05.33-.27.37-.37.35.02.11-.05.32-.5.2-.46-.1-.57-.83-.57-1.18Zm1.15 7.05c.17-.4.51-1.25.51-1.4 0-.16-.21-.36-.32-.45.1-.17.32-.52.32-.57 0-.06-.13-.37-.2-.52l.14-.64-.13-.06.32-.58c.23-.02.75-.08.95-.19.13-.06.26-.2.38-.35.12-.13.23-.25.33-.29.15-.05.66-.36.89-.5-.15.25-.37.77-.06.82.3.05.38-.15.38-.25l.38.45c.13-.18.51-.52 1.02-.52-.02-.1-.11-.32-.32-.32-.18 0-.23-.03-.3-.07-.02-.02-.04-.04-.08-.05a.58.58 0 0 1-.12-.12c-.16-.18-.45-.5-1.03-.59-.76-.13-1.21-.19-1.72.32-.24.25-.44.36-.62.46-.2.11-.36.2-.53.44-.13.18-.3.34-.45.48-.21.2-.36.34-.25.41.16.1.14.21.1.53l-.04.24c-.06.51 0 .7.13.9.07.1.04.17 0 .29-.05.09-.1.21-.13.4-.05.37.24.29.39.2-.15.23-.35.87.06 1.53Zm2.94 4.6L22 32.8c.1.45.26 1.4 0 1.6-.32.25-.77.25-1.02.12-.26-.12-.77 0-.77.77 0 .62.9.64 1.34.58.07-.58.39-.9.64-.96.2-.05.43.15.51.25-.57 0-1.02 0-.96.7.05.55.57.56 1.16.57l.5.01c.77.07.9-.83.96-1.28.04-.3.34-.42.72-.59.2-.08.4-.17.62-.3.51-.3.64-.6.64-.7.05-1.08.36-1.47.51-1.54-.2.51-.21 1.1-.19 1.34 1.58.1 3-.55 3.51-.9.04.12.18.38.38.58.1.1.29.2.47.31.28.15.55.3.55.46 0 .26-.5.83-.76.83a.86.86 0 0 1-.26-.04c-.13-.04-.29-.09-.64-.09-.57 0-1.14.45-1.08 1.03.06.57 2.23.7 2.62.32l.24-.25c.45-.47 1.16-1.2 1.48-1.35.38-.2.51-.32.57-.77.05-.29-.07-.31-.25-.34-.1-.02-.2-.04-.32-.1-.26-.16-1-1.4-1.34-1.99a6.17 6.17 0 0 0 3.57 2.5c.51.05.6.4.58.57v.83c-.1-.02-.4-.06-.7-.06-.39 0-.7.13-.64.83.06.7 1.53.57 2.23.51.49-.04.42-.67.36-1.3a4.7 4.7 0 0 1-.04-.8c.04-.44.11-.55.2-.66a.98.98 0 0 0 .18-.44c.13-.56-.3-.63-.68-.7h-.02c-.38-.06-.9-.32-.83-1.15.04-.43.1-.69.16-.9.05-.21.1-.39.1-.63 0-.27-.14-.45-.27-.62-.12-.16-.24-.32-.24-.54 0-.17.12-.27.26-.38.2-.17.45-.36.38-.9-.13-.89-.77-1.46-2.3-1.53-1.03-.04-2.48.26-3.47.46-.48.1-.85.18-1 .18-.45 0-2.04-.25-1.98-1.15.06-.81 1.12-.78 1.55-.77h.11c.14 0 .24-.08.36-.18.15-.13.31-.26.6-.26.4 0 .8.12.96.19h-.96c-.36 0-.58.17-.64.25.15.13.56.4 1.02.45.38.04.62-.08.83-.19.1-.05.21-.1.32-.13.26-.05.83-.02 1.08 0v-.25c-.13 0-.45-.18-.82-.38a4.16 4.16 0 0 0-1.4-.58c-.47 0-1.1.3-1.35.44-.96 0-2.3.26-2.23 1.41.06 1.15 1.53 1.79 2.68 1.73.46-.03 1.04-.14 1.65-.26.89-.17 1.86-.36 2.69-.32 1.4.07 1.53.51 1.53.9 0 .3-.26.64-.38.76a2.4 2.4 0 0 0-1.28-.44 6 6 0 0 0-1.57.24 9.8 9.8 0 0 1-2.13.33c-1.07 0-3-.47-3.83-.7l.06 1.4c0 .06-.07.12-.16.18-.11.09-.25.2-.28.34-.04.12-.05.36-.07.6-.01.24-.03.48-.06.61-.05.2-.4.68-.58.9-.05-.1.02-.39.07-.52-.32.07-.39.64-.39.84 0 .15-.34.23-.5.25.01-.13.04-.47 0-.83a2.71 2.71 0 0 0-.52-1.02l.07-.96c-.31.25-.34.49-.32.57-.05.39-.1 1.24 0 1.6.1.36.64.7.9.83v.58a.67.67 0 0 0-.33-.45c0 .46-.25.87-.38 1.02 0-.4-.38-.68-.58-.76v.76l-.12.13v.64l-.2.26v-.96Zm-2.3-7.86c0-.35.12-.61.19-.7l1.02-.13c.46-.05.66-.66.7-.96h.2v.39c.04.4 1.08.47 1.59.44.06.32.2 1.1.2 1.6 0 .36-.05.8-.09 1.19-.02.3-.05.56-.05.73 0 .38-.89 1.22-1.15 1.22-.2 0-.25-.47-.25-.7l.06-.2c-.12.02-.4.06-.5.06-.11 0 .12.13.25.2-.02.21-.1.64-.26.64-.19 0-.9-.45-1.21-.84-.19-.22-.22-.47-.26-.73a2.03 2.03 0 0 0-.12-.54 5.11 5.11 0 0 1-.32-1.67Zm2.42 4.1c.04.17.16.57.32.83l-.25-.07c-.02.24-.02.76.19.96.2.2.6.56.76.7.05.13.07.45-.19.7-.19-.18-.67-.6-1.08-.7.04.11.15.38.25.58.1.2 0 .47-.06.58a2.92 2.92 0 0 1-1.09-.96c-.18-.37-.1-.89-.04-1.3.02-.17.04-.32.04-.43 0-.3-.3-.64-.44-.77.08.17.23.64.12 1.15a4.5 4.5 0 0 0 0 1.41c-.34-.25-.98-.83-.83-1.09.2-.32.39-.95.39-1.21 0-.2.08-.9.13-1.22l1.02.7.32.58.44-.44Zm-2.55 1.4c.46-.56.49-2.2.45-2.94l-.32.38-.13-.19-.51.83c-.05 1.13.32 1.75.51 1.92Zm3.7-1.4c-.05-.46.1-.88.2-1.03-.07.16.1.48.3.82.18.36.4.75.4 1.04 0 .57-.45 1.34-.45.9a3 3 0 0 0-.21-.86c-.1-.29-.2-.6-.24-.87Zm.45-1.8c-.02.26-.01.86.19 1.22s.43 1.17.51 1.53l.38-1.72c.04-.14-.12-.48-.27-.8-.14-.3-.27-.58-.24-.67.07-.2-.38-.96-.38-.7 0 .06 0 .14-.02.24-.02.32-.06.79.08 1.03.16.26.2.7.2.9l-.45-1.02Zm.9-.89c-.21-.72-.6-.98-.77-1.02v.38c.43.34.54.68.62.93l.08.22c.1.2.21.64.25.83v-.64l.32 1.03.13-.07-.13-2.04-.5.38Zm-1.03-2.11c.09-.17.37-.46.83-.26-.1-.14-.46-.42-1.02-.31.1-.18.45-.45.96-.2.5.26.5.62.44.77.07.17.2.61.2 1.02 0 .41-.26.64-.39.7l-.06-.38v-.7c-.1-.23-.45-.7-.96-.64Zm.13.38c.17-.02.52.04.57.45-.17.01-.52-.06-.57-.45Zm-4.57 12.52L20 37l-.24.76H19l.62.48-.24.76.62-.47.62.47-.24-.76.62-.48h-.76ZM24 37l.24.76H25l-.62.48.24.76-.62-.47-.62.47.24-.76-.62-.48h.76L24 37Zm4.24.76L28 37l-.24.76H27l.62.48-.24.76.62-.47.62.47-.24-.76.62-.48h-.76ZM32 37l.24.76H33l-.62.48.24.76-.62-.47-.62.47.24-.76-.62-.48h.76L32 37Zm4.24.76L36 37l-.24.76H35l.62.48-.24.76.62-.47.62.47-.24-.76.62-.48h-.76ZM23.02 25.95c0-.2.15-.58.77-.58-.24.09-.72.32-.77.58Zm-1.53-.39a.47.47 0 0 1 .57.26l-.32.13c.17-.05.6.02.9.64-.02-.34-.23-1.05-.9-1.15-.06 0-.2.02-.25.12Zm-.2.7c.1-.04.31-.12.52-.12.2 0 .42.21.5.32-.27.04-.86.06-1.01-.2Zm1.86.2c.1-.2.46-.53 1.02-.32-.1.13-.46.37-1.02.32Zm-.26 1.15a.78.78 0 0 1-.44-.1l-.07-.03c.05.09.2.27.51.32.31.05.47-.23.51-.38-.04.06-.2.19-.5.19Zm-.57.38h.96a.9.9 0 0 0 .44-.12c-.1.1-.4.32-.76.32h-.64v-.2Z" fill="#145F1D"/><path d="M28.01 8.67c-.46-.64-1.83-1.85-3.6-1.65-1.75.2-1.5 1.86-1.17 2.66.37.55 1.09 1.88 1.03 2.84h.15l-.66-2.84c-.22-.89.07-2.15 1.17-2.21.88-.06 2.42.94 3.08 1.45.5-.57 1.76-1.66 2.94-1.45 1.46.25 1.54 1.45 1.39 1.9l-.17.4c-.31.73-.87 2.05-.64 2.75h.15c-.02-.25-.02-.84.22-1.2.3-.44 1.1-1.83 1.1-2.21 0-.38 0-2.09-2.05-2.09A3.4 3.4 0 0 0 28 8.67Zm-3.81 1.77c.07.25.32.8.73.94a.9.9 0 0 0-.73-.94Zm6.9.82c-.18.2-.08.59 0 .76-.49-.1-.33-.81-.21-1.3l.06-.28c.05-.36-.32-.45-.52-.45.44-.5.52-1.07-.14-1.32-.53-.2-1.74.67-2.28 1.13-.51-.38-1.7-1.15-2.35-1.2-.64-.05-.7.45-.66.7.81-.2 1.03.19 1.1.38.08.19-.07 1-.73.95-.5-.05-.62-.66-.68-.97-.02-.1-.03-.17-.05-.17-.08 0-.3-1.27.73-1.33.82-.05 2.1.86 2.64 1.33.4-.4 1.4-1.23 2.28-1.33 1.05-.12 1.16.4 1.23.71l.01.05c.06.25-.27.61-.44.76.15.04.44.2.44.5 0 .38-.22.83-.44 1.08Zm-2.2-1.27c.5-.12 1.46-.4 1.17-.5-.3-.1-.9.3-1.18.5Zm-3.24 1.65-.36.38-.08-.64.37-.31.07.57Zm.44-.89.44-.31v1.32l.3.13.73-.57c-.27-.02-.8-.1-.73-.25a.56.56 0 0 0 .01-.2c0-.2-.01-.43.35-.43h2.72c-.22.14-.75.48-1.1.63-.35.15-.44.53-.44.7-.07-.13-.25-.39-.37-.39-.15 0-1.03.64-.66.64.13 0 .25.01.37.03.24.02.47.05.66-.03l.3-.18c.28-.19.63-.42.95-.33.44.13.29.95-.22 1.46-.52.5-.96.56-1.4.56-.44 0-1.47-.44-1.61-.88-.15-.44-.52-.19-.59-.06-.07.12-.59.94-.8.94-.23 0-.74.13-.6.32.15.19.45.25.67.06.06-.05.12-.14.2-.24.17-.25.38-.56.75-.52.19.03.4.14.64.28.41.23.94.52 1.63.48a7.63 7.63 0 0 0 2.43-.7 1.12 1.12 0 0 0-.74-.18l-.44.06c.1-.12.37-.38.66-.38.19 0 .33.07.48.13.15.06.3.13.48.13.29 0 .46-.09.5-.13.06.19.02.58-.5.63-.29.03-.67.17-1.1.33a6.4 6.4 0 0 1-1.77.5c-.71.04-1.14-.16-1.41-.3-.12-.05-.2-.09-.27-.09-.1 0-.19.07-.27.14-.1.07-.2.15-.32.12-.09-.03-.17-.1-.26-.15-.12-.1-.24-.18-.33-.1l-.16.17c-.18.22-.43.52-.64.52h-.37c-.07.19-.16.56.07.5.13-.02.32-.18.52-.35.26-.2.53-.43.73-.44.14-.01.41.09.73.21.5.19 1.15.43 1.7.4a3 3 0 0 0 1.53-.61c.08.1.27.29.44.29.18 0 .42-.17.52-.25.04.08.19.25.36.25.18 0 .27-.17.3-.25.04.08.19.25.36.25.22 0 .37 0 .3-.32-.04-.15-.14-.26-.22-.34-.1-.1-.15-.16-.08-.23.12-.1.25-.33.3-.44.1.16.29.54.29.76v.07c0 .31.02 1-.73 1-.1.01-.31 0-.37-.12a.6.6 0 0 1-.37.12 1 1 0 0 1-.44-.12.41.41 0 0 1-.44.19 2 2 0 0 1-.51-.2c-.32.2-1.1.54-1.69.47-.41-.04-.7-.14-.94-.22-.18-.07-.32-.12-.45-.12-.15 0-.2.12-.26.23-.05.1-.1.22-.26.22-.14 0-.23-.1-.31-.2-.1-.11-.2-.21-.35-.18-.12.02-.22.12-.32.21-.13.13-.27.27-.48.23-.37-.06-.44-.32-.37-.57.04-.13.14-.26.22-.38.08-.1.15-.2.15-.25 0-.05-.05-.07-.1-.1-.08-.03-.17-.06-.12-.22.04-.16.27-.37.45-.54.1-.1.18-.17.2-.22.04-.05.03-.1.01-.16a.63.63 0 0 1 0-.34c.06-.25.17-.57.22-.7-.05.3-.1.86.14.76.2-.08.35-.26.5-.44.08-.1.16-.19.24-.25.22-.2.3-.32.36-.45.06-.1.03-.71 0-1Zm-.8-.95c-.1.2-.16.55.36.45.66-.13-.14-.83-.36-.45Zm1.9.95c.08.1.34.32.81.32.47 0 .74-.21.8-.32h-1.6Zm-.07 1.77c0 .28.18.81.88.76.88-.06 1.47-.95 1.47-1.2s-.15-.44-.66-.06-.8.5-1.1.5h-.59Zm-1.32.95c.03.15.13.42.37.32.3-.13-.22-.63-.37-.32Zm-.37 1.2c.03.17.14.47.37.32.3-.2-.15-.63-.37-.32Zm5.14-3.54c0 .1-.1.2-.22.2s-.22-.1-.22-.2.1-.19.22-.19.22.09.22.2Zm-.07 1.33c.12 0 .22-.09.22-.19s-.1-.19-.22-.19c-.13 0-.22.09-.22.19s.1.19.22.19Zm1.1 3.22c0 .1-.1.2-.22.2-.13 0-.22-.1-.22-.2s.1-.19.22-.19.22.09.22.2Zm-2.5.32c.44-.13 1.34-.43 1.4-.63.07-.26-1.25.31-1.4.63Z" fill="#145F1D"/></svg>