<!-- by TradingView --><svg width="56" height="56" viewBox="0 0 56 56" xmlns="http://www.w3.org/2000/svg"><path fill="#F0F3FA" d="M0 0h56v56H0z"/><path fill-rule="evenodd" d="m28 10.11-16 13.2L18.14 43h19.72L44 23.32l-16-13.2ZM45 23 28 9 11 22.99 17.5 44h21L45 22.99Z" fill="#010101"/><path fill-rule="evenodd" d="M28 12.12 14.03 23.79l5.35 17.32h17.24l5.35-17.32L28 12.12Zm15 11.34L28 11 13 23.46 18.73 42h18.54L43 23.46Z" fill="#010101"/><path d="M22 18h5.83v2c-.57 0-.83.41-.83.92v1.58h2v-1.58c0-.5-.26-.92-.83-.92v-2H34v2c-.57 0-1 .41-1 .92v6.16c0 .5.43.92 1 .92v2h-5.83v-2c.57 0 .83-.41.83-.92V25h-2v2.08c0 .5.26.92.83.92v2H22v-2c.57 0 1-.41 1-.92v-6.16c0-.5-.43-.92-1-.92v-2Zm1 19v-5h2.36c.97 0 2.19.17 2.19 1.4 0 .75-.5 1.27-1.47 1.4.24.12.44.26.6.41.16.16.37.43.64.81L28 37h-1.34l-.81-1.09a6.94 6.94 0 0 0-.6-.73.84.84 0 0 0-.33-.2 1.61 1.61 0 0 0-.57-.07H24V37h-1Zm1-2.89h.95c.51 0 1.44.1 1.44-.64 0-.73-.9-.62-1.4-.62H24v1.26ZM29 37v-5h1.7c1.1 0 2.3.11 2.3 1.5 0 1.34-1.17 1.5-2.26 1.5H30v2h-1Zm1-4.15v1.3h.63c.51 0 1.28.06 1.28-.64 0-.73-.82-.66-1.35-.66H30ZM21 38l.24.76H22l-.62.48.24.76-.62-.47-.62.47.24-.76-.62-.48h.76L21 38Zm4 0 .24.76H26l-.62.48.24.76-.62-.47-.62.47.24-.76-.62-.48h.76L25 38Zm3 0 .24.76H29l-.62.48.24.76-.62-.47-.62.47.24-.76-.62-.48h.76L28 38Zm3 0 .24.76H32l-.62.48.24.76-.62-.47-.62.47.24-.76-.62-.48h.76L31 38Zm4 0 .24.76H36l-.62.48.24.76-.62-.47-.62.47.24-.76-.62-.48h.76L35 38Z" fill="#010101"/></svg>