<!-- by TradingView --><svg width="56" height="56" viewBox="0 0 56 56" xmlns="http://www.w3.org/2000/svg"><path fill="#F0F3FA" d="M0 0h56v56H0z"/><path d="m16 21-3-2v17l3-2V21Z" fill="#78C145"/><path d="m40 21 3-2v17l-3-2V21Z" fill="#075890"/><path d="m28 10-15 9 3 2 12-7.5V10Z" fill="#9AC945"/><path d="m28 10 15 9-3 2-12-7.5V10Z" fill="#016B9F"/><path d="M28 46 13 36l3-2 12 8.5V46Z" fill="#E83022"/><path d="m28 46 15-10-3-2-12 8.5V46Z" fill="#E82F22"/><path d="m28 15-11 6.5 11 6 11-6L28 15Z" fill="#C0D0E7"/><path d="m28 27.5-11-6v12L28 41l11-7.5v-12l-11 6Z" fill="#B2C1E0"/><path d="M18 24v-2h4v2h-1v7h1v2h-4v-2h1v-7h-1ZM35 22h-4v2h1v7h-1v2h7v-4h-2v2h-2v-7h1v-2ZM30 25v-3h-5c-1.6 0-2 1.33-2 2v6c0 2.4 1.33 3 2 3h5v-4h-2v2h-2.5c-.4 0-.5-.33-.5-.5v-6c0-.4.33-.5.5-.5H28v1h2Z" fill="#FFFFF6"/></svg>