<!-- by TradingView --><svg width="56" height="56" viewBox="0 0 56 56" xmlns="http://www.w3.org/2000/svg"><path fill="#F0F3FA" d="M0 0h56v56H0z"/><path d="M28.02 11 46 20.28v10.84l-8.38 6.03-9.6-4.55-8.48 4.55-9.54-6v-9.72L28.02 11Zm.03 1.27L11 22.1v7.82l17.57-8.8L45 29.9v-8.9l-16.95-8.72ZM44.37 30.9l-15.82-8.5-16.84 8.49 7.87 4.96 8.4-4.52 9.52 4.52 6.87-4.95Z" fill="#19864D"/><path d="m28 34-6 3.5 6 3.5 6-3.5-6-3.5ZM28 41l-3 2 3 2 3-2-3-2ZM12 22h1v6h-1zM15 26.87l-1 .56V21.2l1-.57 4 2.27v-4.53l1-.57v6.23l-1 .57-4-2.27v4.54ZM25.13 16.39 22 17.9v3.83l3.81-1.85c.66-.34 1.19-1.15 1.19-1.38v-1.7c0-.77-1.32-.54-1.87-.41Zm2.8.41v1.7c0 .53-.48 1.82-1.62 2.39L21 23.57V17.2l3.74-1.88.06-.02c1.3-.33 3.13-.1 3.13 1.5ZM31 20.32v-5.1l1 .57v4.53c0 .23.34.86 1 1.2l2.56 1.44c.17.08.44.15.44-.06v-5.1l1 .57v4.53c0 1.1-1 1.54-1.94 1.07l-2.56-1.44a2.68 2.68 0 0 1-1.5-2.2ZM44.6 21.85l-.58.97c-1.38-.84-3.08-1.62-4.37-2.49-.15-.1-.38-.17-.46-.01a.67.67 0 0 0 .31.94h.02l2.81 1.71c1.24.63 1.98 1.58 1.98 2.76 0 1.65-1.73 2.31-3.06 1.64a56.52 56.52 0 0 1-3.99-2.29l.6-.96a55.5 55.5 0 0 0 3.9 2.24c.58.3 1.43.18 1.43-.63 0-.62-.37-1.25-1.38-1.76h-.02l-2.81-1.7a1.82 1.82 0 0 1-.8-2.46c.37-.73 1.16-.8 1.85-.55 1.47.8 3.14 1.72 4.57 2.59ZM20.6 29.58a1.36 1.36 0 0 0-.76-.27 1.73 1.73 0 0 0-1.5.8c-.15.24-.23.52-.24.82 0 .3.08.6.24.92.16.3.37.54.62.7a1.56 1.56 0 0 0 1.67.04c.39-.2.65-.5.78-.86a1.6 1.6 0 0 0-.05-1.16l-1.6.85-.21-.41 2.15-1.16.2.4a2.2 2.2 0 0 1-1.03 2.8 2.18 2.18 0 0 1-3.06-.92c-.2-.38-.3-.77-.28-1.17.02-.4.13-.77.35-1.1.22-.34.5-.61.88-.8.42-.24.85-.33 1.29-.3.44.03.83.2 1.18.49l-.63.33ZM25.11 30.4l-1.67-1.06-.64.3.7 1.51-.53.25-1.72-3.7 1.32-.62c.3-.14.58-.21.84-.21s.48.05.66.16c.18.12.32.28.42.49.11.25.14.52.06.79-.07.27-.25.5-.54.72l1.74 1.08-.64.3Zm-2.5-1.15.8-.36c.28-.14.47-.3.55-.5.08-.2.08-.4-.02-.62a.7.7 0 0 0-.46-.4c-.2-.06-.44-.02-.73.11l-.78.36.65 1.4ZM28 30.27A2.18 2.18 0 0 1 25.75 28c0-.43.1-.82.3-1.17a2.26 2.26 0 0 1 1.95-1.1c.42 0 .8.1 1.14.3.35.19.62.45.81.8.2.34.3.73.3 1.17 0 .44-.1.83-.3 1.17-.2.35-.46.61-.8.81-.35.2-.73.29-1.15.29Zm0-.5c.31 0 .6-.08.84-.22.25-.15.45-.35.6-.62.14-.27.21-.58.21-.93 0-.36-.07-.67-.22-.93a1.52 1.52 0 0 0-.58-.62 1.66 1.66 0 0 0-.85-.21 1.56 1.56 0 0 0-1.44.83c-.14.26-.21.57-.21.93 0 .35.07.66.21.93a1.56 1.56 0 0 0 1.44.83ZM32.23 27.1l-1.24 2.3c-.17.33-.21.6-.12.84.1.23.3.42.61.56.31.13.6.16.85.08.26-.08.48-.28.66-.6l1.23-2.3.53.22-1.23 2.3c-.17.3-.37.53-.62.68-.24.15-.51.22-.8.22a2.1 2.1 0 0 1-.85-.19 1.96 1.96 0 0 1-.7-.49c-.17-.2-.27-.43-.3-.7-.02-.27.05-.55.22-.85l1.23-2.3.53.23ZM37.93 31.6c-.2.25-.48.4-.83.44-.35.04-.76-.08-1.22-.35l-.76-.45-.98 1.3-.52-.31 2.36-3.1 1.27.75c.45.27.72.55.82.86.1.3.06.59-.14.86Zm-1.8-.25c.29.17.54.25.75.23a.7.7 0 0 0 .52-.3c.29-.38.16-.73-.4-1.06l-.76-.45-.86 1.14.75.44Z" fill="#19864D"/></svg>