<!-- by TradingView --><svg width="56" height="56" viewBox="0 0 56 56" xmlns="http://www.w3.org/2000/svg"><path fill="#F0F3FA" d="M0 0h56v56H0z"/><path fill="#242122" d="M8 37h40v1H8z"/><path d="M18 18h1v1h-1v16h1v1h-6v-1h1V19h-1v-1h5Zm24 0h1v1h-1v16h1v1h-6v-1h1V19h-1v-1h5Zm-7 11c.08 2.5-1.24 7-7.17 7-4.54 0-7.83-3.06-7.83-8.92 0-5.86 4.24-9.08 8.07-9.08a8.6 8.6 0 0 1 4.34 1.48l.7-1.48H34v5h-1a4.57 4.57 0 0 0-4.68-4C25.73 19 25 22.01 25 24.28v6.81c-.02 1.37.63 3.91 2.63 3.91 1.64 0 2.37-.53 2.37-3.01V29h-1v-1h7v1h-1Z" fill="#0094DA"/></svg>