<!-- by TradingView --><svg width="56" height="56" viewBox="0 0 56 56" xmlns="http://www.w3.org/2000/svg"><path fill="#181B1E" d="M0 0h56v56H0z"/><path d="M5 31.76c1.28-.1 2-.35 2-1.53v-4.05c0-.5-.02-1.12-.74-1.12-.29 0-.57.1-.84.16v-.27C6.38 24.7 8 24 9 24v6.23c0 1.1.77 1.45 2 1.53V32H5v-.24Z" fill="#fff"/><circle cx="8" cy="21" r="1" fill="#fff"/><path d="M11 31.78c.83-.07 1-.28 1-1.22v-4.41c0-.6 0-1.03-.42-1.03-.19 0-.4.02-.58.08v-.3l3-.9v1.36c.9-.72 1.83-1.36 3.02-1.36 1.01 0 1.96.55 2.3 1.48a5.23 5.23 0 0 1 3.3-1.48c1.93 0 2.38 1.49 2.38 3.12v3.55c0 .88.73 1.04 1.5 1.1V32h-4.87v-.24c.88-.07 1.37-.3 1.37-1.24v-3.68c0-1.08-.34-1.84-1.18-1.84-.85 0-1.72.43-2.32.97v4.37c0 .98.53 1.41 1.5 1.44V32h-5v-.22c1.21-.14 1.5-.65 1.5-1.82v-2.4c0-1.2.2-2.56-1.32-2.56A3.1 3.1 0 0 0 14 26v4.62c0 .93.52 1.15 1.39 1.16V32H11v-.22Zm20-4.37c-.65.21-1.18.44-1.6.7-.81.5-.9.91-.9 1.54 0 .76.24 1.39.96 1.39.58 0 1.54-.37 1.54-1.13v-2.5Zm-4 2.81c0-2.13 2.54-2.69 4-3.22v-.85c0-1.02-.27-1.73-1.36-1.73-.46 0-1.2.22-1.2.83 0 .21.08.42.08.64 0 .46-.3.75-.73.75a.72.72 0 0 1-.75-.75c0-1.4 1.85-1.89 2.83-1.89 1.68 0 3.13 1 3.13 2.72v3.33c0 .4.01.99.52.99.3 0 .52-.17.76-.34v.43c-.39.47-.93.85-1.54.85-.7 0-1.68-.54-1.71-1.24-.73.62-1.58 1.26-2.56 1.26-.94 0-1.47-.74-1.47-1.78Zm8.58 3.53c0 1.22 1.88 1.27 2.74 1.27 1.02 0 3.3-.27 3.3-1.72 0-1.23-2.44-.88-3.17-.92-.65-.02-1.3-.07-1.93-.2-.44 0-.94 1.21-.94 1.57Zm1.14-4.5a2.49 2.49 0 0 1-1.69-2.42c0-1.7 1.55-2.83 3.14-2.83 1 0 1.89.6 2.9.6l1.21-.03v.7h-1.52c.22.5.52 1.02.52 1.58 0 1.63-1.72 2.64-3.2 2.64a7.9 7.9 0 0 1-.8-.08c-.41 0-1.09.7-1.09 1.11 0 .5 1.2.5 1.52.5 1.5 0 2.53.08 3.07.25.9.27 1.5.85 1.5 1.74 0 2.15-3.14 2.99-4.86 2.99-1 0-3.14-.4-3.14-1.78 0-.98 1.2-1.51 1.8-2.1-.4-.16-.8-.4-.8-.92 0-.8.93-1.51 1.44-1.96Zm1.68-.18c.95 0 1.46-.84 1.46-1.7 0-1.12-.6-2.88-1.97-2.88-1.04 0-1.36.98-1.36 1.85 0 1.09.54 2.73 1.87 2.73ZM47.18 24c1.81 0 3.43 1.1 3.43 3h-6.18c.1 1.9 1.11 4 3.21 4 1.31 0 2.28-.96 3.02-2l.34.15A4.52 4.52 0 0 1 46.82 32c-2.2 0-3.82-1.7-3.82-3.9a4.1 4.1 0 0 1 4.18-4.1Zm-.57.6c-1.2 0-1.92.77-2.14 1.87h4.1c-.14-1.15-.7-1.86-1.96-1.86Z" fill="#fff"/></svg>