<!-- by TradingView --><svg width="56" height="56" viewBox="0 0 56 56" xmlns="http://www.w3.org/2000/svg"><path fill="#F0F3FA" d="M0 0h56v56H0z"/><path d="M21.9 25.24c-.34-.82-3.76-2.66-5.43-3.48-2.68-1.16-4.2-.61-4.61-.19-.2.48-.22 1.66 1.22 2.51 1.81 1.06 9.25 2.19 8.82 1.16Z" fill="url(#aecxsdsib)"/><path d="M21.58 29.14c-.68-.56-4.56-.59-6.4-.53-2.91.24-4 1.44-4.18 2.01.05.52.57 1.57 2.24 1.64 2.09.1 9.2-2.41 8.34-3.12Z" fill="url(#becxsdsib)"/><path d="M23.1 32.57c-.87-.17-4.29 1.68-5.9 2.62-2.44 1.6-2.84 3.19-2.73 3.77.29.44 1.24 1.12 2.74.38 1.88-.93 6.97-6.55 5.88-6.77Z" fill="url(#cecxsdsib)"/><path d="M25.88 34.93c-.83.29-2.88 3.62-3.8 5.25-1.32 2.64-.88 4.2-.5 4.66.47.23 1.63.34 2.56-1.07 1.17-1.76 2.78-9.21 1.74-8.84Z" fill="url(#decxsdsib)"/><path d="M29.4 35.23c-.59.67-.75 4.6-.76 6.47.13 2.95 1.28 4.1 1.84 4.3.5-.03 1.57-.52 1.7-2.2.16-2.12-2.06-9.41-2.79-8.57Z" fill="url(#eecxsdsib)"/><path d="M32.31 33.92c-.07.89 2.1 4.14 3.2 5.66 1.83 2.3 3.42 2.53 3.98 2.36.4-.34.96-1.37.08-2.8-1.11-1.8-7.16-6.33-7.26-5.22Z" fill="url(#fecxsdsib)"/><path d="M34.11 30.69c.36.82 3.8 2.62 5.48 3.41 2.7 1.13 4.2.55 4.62.13.18-.49.2-1.67-1.26-2.5-1.83-1.03-9.28-2.06-8.84-1.04Z" fill="url(#gecxsdsib)"/><path d="M34.47 27.06c.7.54 4.57.44 6.42.32 2.9-.33 3.95-1.56 4.11-2.14-.07-.51-.61-1.55-2.29-1.57-2.09-.02-9.11 2.7-8.24 3.39Z" fill="url(#hecxsdsib)"/><path d="M32.91 23.48c.87.16 4.27-1.7 5.87-2.67 2.43-1.63 2.81-3.2 2.7-3.8-.3-.43-1.25-1.1-2.74-.34-1.87.94-6.91 6.6-5.83 6.81Z" fill="url(#iecxsdsib)"/><path d="M30.4 21.05c.82-.32 2.8-3.7 3.68-5.35 1.26-2.66.78-4.22.39-4.67-.47-.21-1.63-.3-2.53 1.14-1.13 1.78-2.57 9.27-1.54 8.88Z" fill="url(#jecxsdsib)"/><path d="M26.97 20.72c.56-.7.55-4.62.48-6.5-.25-2.95-1.45-4.04-2.01-4.22-.51.05-1.55.59-1.6 2.28-.08 2.12 2.44 9.3 3.13 8.44Z" fill="url(#kecxsdsib)"/><path d="M23.85 22.23c.12-.89-1.9-4.24-2.92-5.81-1.72-2.39-3.3-2.7-3.87-2.55-.41.32-1.03 1.32-.2 2.8 1.01 1.84 6.85 6.66 7 5.56Z" fill="url(#lecxsdsib)"/><path d="M24.83 33.4c-.72.06-3 2.21-4.06 3.28-1.59 1.76-1.56 3.04-1.36 3.47.32.26 1.2.57 2.22-.33 1.28-1.12 4.09-6.5 3.2-6.42Z" fill="url(#mecxsdsib)"/><path d="M27.81 34.57c-.6.4-1.61 3.39-2.05 4.84-.58 2.3.04 3.43.42 3.7.4.08 1.32-.07 1.8-1.35.61-1.6.58-7.69-.17-7.19Z" fill="url(#necxsdsib)"/><path d="M30.51 34.43c-.25.68.66 3.71 1.15 5.14.87 2.21 2.02 2.75 2.49 2.74.37-.17 1.03-.84.68-2.16-.44-1.66-4-6.56-4.32-5.72Z" fill="url(#oecxsdsib)"/><path d="M32.78 31.77c.1.71 2.37 2.9 3.49 3.9 1.83 1.49 3.1 1.39 3.5 1.15.24-.34.48-1.25-.46-2.23-1.19-1.22-6.66-3.72-6.53-2.82Z" fill="url(#pecxsdsib)"/><path d="M33.9 29.02c.44.57 3.48 1.31 4.94 1.61 2.32.36 3.36-.37 3.6-.78.04-.4-.2-1.32-1.5-1.69-1.63-.46-7.6.16-7.05.86Z" fill="#1EBEE0"/><path d="M33.58 25.24c.67.33 3.73-.4 5.17-.82 2.23-.76 2.78-1.95 2.78-2.45-.16-.41-.83-1.17-2.16-.9-1.67.33-6.64 3.76-5.8 4.17Z" fill="url(#qecxsdsib)"/><path d="M31.78 21.9c.74-.03 2.97-2.06 4-3.08 1.52-1.67 1.4-2.94 1.16-3.37-.35-.28-1.3-.62-2.3.22-1.24 1.05-3.78 6.26-2.86 6.23Z" fill="url(#recxsdsib)"/><path d="M28.34 20.9c.6-.39 1.54-3.26 1.94-4.65.52-2.2-.14-3.26-.53-3.52-.41-.07-1.35.1-1.8 1.32-.57 1.54-.36 7.34.39 6.85Z" fill="url(#secxsdsib)"/><path d="M25.39 21.47c.28-.66-.5-3.58-.93-4.96-.78-2.13-1.9-2.64-2.38-2.63-.38.18-1.06.84-.77 2.12.37 1.6 3.72 6.3 4.08 5.47Z" fill="url(#tecxsdsib)"/><path d="M22.63 23.88c-.08-.72-2.21-2.85-3.26-3.82-1.73-1.44-2.96-1.3-3.36-1.05-.24.34-.5 1.26.38 2.22 1.1 1.19 6.34 3.54 6.24 2.65Z" fill="url(#uecxsdsib)"/><path d="M21.57 27.1c-.43-.54-3.36-1.2-4.78-1.46-2.24-.3-3.43.33-3.48.83-.05.4.17 1.29 1.43 1.62 1.57.41 7.36-.3 6.83-.98Z" fill="url(#vecxsdsib)"/><path d="M22.32 30.7c-.63-.29-3.53.49-4.9.91-2.14.77-2.9 1.9-2.73 2.36.14.38.74 1.06 2 .77 1.58-.36 6.4-3.69 5.63-4.04Z" fill="url(#wecxsdsib)"/><path d="M25.93 27.07c-.11-.28-1.27-.9-1.84-1.19-.9-.39-1.42-.2-1.56-.06-.07.16-.08.56.41.85.62.36 3.14.74 3 .4Z" fill="#5AC5E5"/><path d="M25.82 28.39c-.23-.2-1.54-.2-2.17-.18-.98.08-1.35.48-1.41.68.01.17.19.53.76.56.7.03 3.11-.82 2.82-1.06Z" fill="#946FA5"/><path d="M26.34 29.55c-.3-.06-1.46.57-2 .89-.83.54-.96 1.08-.93 1.28.1.14.42.37.93.12.64-.31 2.36-2.22 2-2.29Z" fill="#C56372"/><path d="M27.28 30.35c-.28.1-.97 1.23-1.29 1.78-.44.9-.3 1.42-.16 1.58.15.08.54.11.86-.36.4-.6.95-3.13.6-3Z" fill="#FFDC74"/><path d="M28.47 30.45c-.2.23-.25 1.56-.25 2.2.04 1 .43 1.38.62 1.45.17 0 .53-.17.58-.75.05-.71-.7-3.19-.95-2.9Z" fill="#99B875"/><path d="M29.46 30c-.02.3.71 1.41 1.08 1.92.62.78 1.16.86 1.36.8.13-.11.32-.46.02-.95-.38-.6-2.43-2.14-2.46-1.76Z" fill="#6DC2E1"/><path d="M30.07 28.91c.12.28 1.29.89 1.86 1.16.91.38 1.42.19 1.56.04.07-.16.07-.56-.42-.84-.62-.36-3.15-.7-3-.36Z" fill="#EFBC7D"/><path d="M30.2 27.68c.23.18 1.54.15 2.17.11.98-.11 1.34-.53 1.4-.72-.03-.18-.22-.53-.78-.54-.71 0-3.1.92-2.8 1.15Z" fill="#A2CC76"/><path d="M29.67 26.47c.29.05 1.44-.58 1.98-.9.83-.56.96-1.1.92-1.3-.1-.14-.42-.37-.93-.11-.63.32-2.34 2.24-1.97 2.3Z" fill="#56B0D3"/><path d="M28.81 25.64c.28-.1.95-1.25 1.25-1.8.43-.91.27-1.44.13-1.6-.16-.07-.55-.1-.85.4-.39.6-.88 3.14-.53 3Z" fill="#CA84B6"/><path d="M27.65 25.53c.19-.23.19-1.57.16-2.2-.08-1-.49-1.37-.68-1.43-.17.02-.52.2-.54.77-.03.72.83 3.16 1.06 2.86Z" fill="#E99A6F"/><path d="M26.6 26.04c.03-.3-.65-1.43-1-1.97-.58-.8-1.12-.9-1.3-.86-.15.1-.36.45-.08.95.35.62 2.32 2.26 2.37 1.88Z" fill="#B2DA91"/><path d="M26.92 29.83a5.4 5.4 0 0 0-1.37 1.11c-.54.6-.53 1.03-.46 1.18.1.09.4.2.75-.11.43-.38 1.39-2.2 1.08-2.18Z" fill="#EBB287"/><path d="M27.94 30.23a5.5 5.5 0 0 0-.7 1.64c-.2.78.01 1.16.14 1.25.14.03.45-.02.61-.45.21-.55.2-2.61-.05-2.44Z" fill="#D9CF87"/><path d="M28.85 30.18c-.09.23.22 1.26.39 1.74.3.75.69.93.84.93.13-.06.35-.28.23-.73-.14-.56-1.35-2.23-1.46-1.94Z" fill="#76CECF"/><path d="M29.62 29.28c.04.24.8.98 1.18 1.32.62.5 1.05.47 1.19.39.08-.11.16-.42-.16-.76-.4-.4-2.25-1.26-2.2-.95Z" fill="#E9E568"/><path d="M30 28.35c.15.19 1.18.44 1.67.54.8.12 1.14-.12 1.22-.26.02-.14-.06-.45-.5-.58-.56-.15-2.58.06-2.4.3Z" fill="#C0CE99"/><path d="M29.9 27.06c.22.12 1.25-.13 1.74-.27.76-.26.95-.66.95-.83-.06-.14-.29-.4-.74-.31-.56.11-2.25 1.28-1.96 1.41Z" fill="#6EC6D0"/><path d="M29.28 25.93c.25 0 1-.7 1.36-1.04.51-.57.47-1 .39-1.14-.12-.1-.44-.21-.78.07-.42.36-1.28 2.12-.97 2.11Z" fill="#9B6694"/><path d="M28.11 25.6c.2-.14.53-1.11.66-1.58.18-.75-.04-1.11-.18-1.2-.14-.02-.45.04-.6.45-.2.52-.13 2.49.12 2.32Z" fill="#B56F77"/><path d="M27.11 25.79c.1-.23-.16-1.22-.31-1.69-.26-.72-.65-.89-.8-.88-.13.05-.37.28-.27.71.13.54 1.26 2.14 1.38 1.86Z" fill="#FFD976"/><path d="M26.18 26.6a4.96 4.96 0 0 0-1.1-1.3c-.6-.48-1.01-.43-1.14-.35-.09.12-.18.43.12.75.38.4 2.15 1.2 2.12.9Z" fill="#79B47E"/><path d="M25.82 27.7a5 5 0 0 0-1.62-.5c-.76-.1-1.16.11-1.18.28-.02.14.06.44.48.55.54.14 2.5-.1 2.32-.33Z" fill="#5AA8CF"/><path d="M26.07 28.91a5 5 0 0 0-1.66.31c-.72.27-.98.64-.92.8.05.13.25.36.68.27.53-.13 2.17-1.26 1.9-1.38Z" fill="#AF70A5"/><defs><linearGradient id="aecxsdsib" x1="13.15" y1="23.68" x2="15.67" y2="20.6" gradientUnits="userSpaceOnUse"><stop stop-color="#753685"/><stop offset="1" stop-color="#4E1655"/></linearGradient><linearGradient id="becxsdsib" x1="13.11" y1="31.87" x2="13.9" y2="27.95" gradientUnits="userSpaceOnUse"><stop offset=".39" stop-color="#BF3D47"/><stop offset="1" stop-color="#661F27"/></linearGradient><linearGradient id="cecxsdsib" x1="22.79" y1="30.77" x2="14.78" y2="38.29" gradientUnits="userSpaceOnUse"><stop offset=".2" stop-color="#FB9B44"/><stop offset="1" stop-color="#FFE81D"/></linearGradient><linearGradient id="decxsdsib" x1="24.73" y1="33.52" x2="21.58" y2="44.12" gradientUnits="userSpaceOnUse"><stop offset=".2" stop-color="#3C6B3F"/><stop offset="1" stop-color="#80BC68"/></linearGradient><linearGradient id="eecxsdsib" x1="27.7" y1="34.58" x2="30.27" y2="45.34" gradientUnits="userSpaceOnUse"><stop offset=".2" stop-color="#49B1CC"/><stop offset="1" stop-color="#2A83C0"/></linearGradient><linearGradient id="fecxsdsib" x1="35.47" y1="34.16" x2="33.5" y2="37.84" gradientUnits="userSpaceOnUse"><stop offset=".2" stop-color="#FC5640"/><stop offset="1" stop-color="#EEC05E"/></linearGradient><linearGradient id="gecxsdsib" x1="38.03" y1="29.79" x2="37.03" y2="33.55" gradientUnits="userSpaceOnUse"><stop offset=".2" stop-color="#507347"/><stop offset=".67" stop-color="#79B958"/></linearGradient><linearGradient id="hecxsdsib" x1="34.4" y1="27.16" x2="45.67" y2="21.19" gradientUnits="userSpaceOnUse"><stop stop-color="#24669A"/><stop offset=".67" stop-color="#1F99BB"/></linearGradient><linearGradient id="iecxsdsib" x1="32.89" y1="23.61" x2="41.79" y2="15.43" gradientUnits="userSpaceOnUse"><stop stop-color="#DA368D"/><stop offset=".71" stop-color="#8B469E"/></linearGradient><linearGradient id="jecxsdsib" x1="30.45" y1="21.17" x2="33.85" y2="9.49" gradientUnits="userSpaceOnUse"><stop stop-color="#EFC15F"/><stop offset=".71" stop-color="#E9644C"/></linearGradient><linearGradient id="kecxsdsib" x1="27.08" y1="20.8" x2="23.97" y2="9.03" gradientUnits="userSpaceOnUse"><stop stop-color="#DCDF5A"/><stop offset=".71" stop-color="#6EC161"/></linearGradient><linearGradient id="lecxsdsib" x1="23.98" y1="22.24" x2="15.24" y2="13.88" gradientUnits="userSpaceOnUse"><stop stop-color="#36C4D2"/><stop offset=".71" stop-color="#2D9FBA"/></linearGradient><linearGradient id="mecxsdsib" x1="24.21" y1="32.1" x2="19.77" y2="39.71" gradientUnits="userSpaceOnUse"><stop offset=".2" stop-color="#74B45E"/><stop offset="1" stop-color="#CBDD53"/></linearGradient><linearGradient id="necxsdsib" x1="26.67" y1="33.72" x2="26.39" y2="42.56" gradientUnits="userSpaceOnUse"><stop offset=".2" stop-color="#33738E"/><stop offset="1" stop-color="#47DDF5"/></linearGradient><linearGradient id="oecxsdsib" x1="29.09" y1="34.43" x2="34.1" y2="41.68" gradientUnits="userSpaceOnUse"><stop offset=".2" stop-color="#F8A74B"/><stop offset="1" stop-color="#FCD633"/></linearGradient><linearGradient id="pecxsdsib" x1="38.87" y1="33.87" x2="37.82" y2="36.47" gradientUnits="userSpaceOnUse"><stop offset=".2" stop-color="#5EAF46"/><stop offset="1" stop-color="#FCD633"/></linearGradient><linearGradient id="qecxsdsib" x1="34.18" y1="24.84" x2="40.19" y2="22.12" gradientUnits="userSpaceOnUse"><stop stop-color="#934C98"/><stop offset="1" stop-color="#542269"/></linearGradient><linearGradient id="recxsdsib" x1="32.1" y1="21.27" x2="35.85" y2="16.18" gradientUnits="userSpaceOnUse"><stop stop-color="#E33043"/><stop offset="1" stop-color="#702623"/></linearGradient><linearGradient id="secxsdsib" x1="28.32" y1="20.2" x2="29.15" y2="13.9" gradientUnits="userSpaceOnUse"><stop stop-color="#EFE754"/><stop offset="1" stop-color="#FCB22D"/></linearGradient><linearGradient id="tecxsdsib" x1="24.99" y1="20.9" x2="22.15" y2="15.23" gradientUnits="userSpaceOnUse"><stop stop-color="#73C259"/><stop offset="1" stop-color="#2D5F3C"/></linearGradient><linearGradient id="uecxsdsib" x1="22.01" y1="23.58" x2="16.73" y2="20.15" gradientUnits="userSpaceOnUse"><stop stop-color="#1593CE"/><stop offset="1" stop-color="#35728F"/></linearGradient><linearGradient id="vecxsdsib" x1="14.7" y1="27.77" x2="15.95" y2="24.94" gradientUnits="userSpaceOnUse"><stop stop-color="#DD2C87"/><stop offset="1" stop-color="#654584"/></linearGradient><linearGradient id="wecxsdsib" x1="16.52" y1="34.48" x2="18.4" y2="30.22" gradientUnits="userSpaceOnUse"><stop stop-color="#EDCF55"/><stop offset="1" stop-color="#C45858"/></linearGradient></defs></svg>