<!-- by TradingView --><svg width="56" height="56" viewBox="0 0 56 56" xmlns="http://www.w3.org/2000/svg"><path fill="#018D46" d="M0 0h56v56H0z"/><path d="M27.9 43.11c-1.07 0-1.95.83-2.02 1.89-.83-.1-1.64-.26-2.43-.48.34-1-.15-2.11-1.15-2.52l-.17-.07a2.02 2.02 0 0 0-2.6.97c-.71-.41-1.4-.87-2.05-1.38.7-.8.66-2.01-.1-2.76l-.14-.14a2.02 2.02 0 0 0-2.76-.1c-.5-.65-.97-1.34-1.38-2.06.95-.46 1.39-1.6.97-2.59L14 33.7c-.4-1-1.52-1.5-2.52-1.15-.22-.79-.38-1.6-.48-2.43a2.02 2.02 0 0 0 1.89-2.02v-.2c0-1.07-.83-1.95-1.89-2.02.1-.83.26-1.64.48-2.43 1 .34 2.11-.15 2.52-1.15l.07-.17a2.02 2.02 0 0 0-.97-2.6c.41-.71.87-1.4 1.38-2.05.8.7 2.01.66 2.76-.1l.14-.14c.76-.75.8-1.96.1-2.76.65-.5 1.34-.97 2.06-1.38.46.95 1.6 1.39 2.59.97l.17-.07c1-.4 1.5-1.52 1.15-2.52.79-.22 1.6-.38 2.43-.48.07 1.06.95 1.9 2.02 1.89h.2c1.07 0 1.95-.83 2.02-1.89.83.1 1.64.26 2.43.48-.34 1 .15 2.11 1.15 2.52l.17.07c1 .42 2.13-.02 2.6-.97.71.41 1.4.87 2.05 1.38-.7.8-.66 2.01.1 2.76l.14.14c.75.76 1.96.8 2.76.1.5.65.97 1.34 1.38 2.06a2.02 2.02 0 0 0-.97 2.59l.07.17c.41 1 1.52 1.5 2.52 1.15.22.79.38 1.6.48 2.43-1.06.07-1.9.95-1.89 2.02v.2c0 1.07.83 1.95 1.89 2.02-.1.83-.26 1.64-.48 2.43-1-.34-2.11.15-2.52 1.15l-.07.17c-.42 1 .02 2.13.97 2.6-.41.71-.87 1.4-1.38 2.05-.8-.7-2.01-.66-2.76.1l-.14.14c-.76.75-.8 1.96-.1 2.76-.65.5-1.34.97-2.06 1.38a2.02 2.02 0 0 0-2.59-.97l-.17.07c-1 .41-1.5 1.52-1.15 2.52-.79.22-1.6.38-2.43.48a2.02 2.02 0 0 0-2.02-1.89h-.2Zm.1-2.03c7.23 0 13-5.8 13-13.03C41 20.8 35.23 15 28 15s-13 5.8-13 13.04c0 7.23 5.77 13.03 13 13.03ZM32 21h3v11h2v3h-5V21Zm-12 0h3v14h-3V21Zm11 4h-3v-1.5c0-.17-.1-.5-.5-.5s-.5.33-.5.5V25c0 .83 1.21 1.65 2.3 2.4.9.6 1.7 1.15 1.7 1.6v4c0 .67-1.1 2-3.5 2-3 0-3.5-2-3.5-3v-2h3v2.5c0 .17.1.5.5.5s.5-.33.5-.5v-2c0-.41-.69-1-1.49-1.69-1.14-.97-2.51-2.14-2.51-3.31V23c0-.67.7-2 3.5-2s3.5 1.33 3.5 2v2Z" fill="#FBFEFF"/></svg>