<!-- by TradingView --><svg width="56" height="56" viewBox="0 0 56 56" xmlns="http://www.w3.org/2000/svg"><path fill="#F0F3FA" d="M0 0h56v56H0z"/><path d="m35.1 25.64-4.2.76v-2.64s.01 0 0 0A459.93 459.93 0 0 0 52 20.02v.01l-.01.01c-.86.47-1.75.9-2.66 1.3-5.17 2.27-10.3 3.43-14.22 4.3Z" fill="#DDD929"/><path d="M43.4 24h7.55l.04.02.01.04v3.02a.1.1 0 0 1-.04.08L45.98 31h5c-.01-.01.01 0 0 0 0-.01 0 .01 0 0l.02 2.94c0 .02 0 .03-.02.04a.05.05 0 0 1-.04.02h-8.9l-.03-.01V30.9a.08.08 0 0 1 .02-.06L46.99 27H42v-2.94c0-.02.02-.03.03-.04l.03-.02h1.34Z" fill="#086387"/><path d="M31.15 23.72v2.67l-3.9.69-1.06-2.65 4.96-.71ZM22.77 24.85l-1.07 2.93-6.17.57v-1.99l.02-.02h.02l2.07-1.06 5.13-.43ZM10.38 25.54v.74a.05.05 0 0 0 .06.05h3l.02.01.01.02v2.26a410.97 410.97 0 0 1-9.47.6.03.03 0 0 1 .01-.04l3.25-2.85c1.68 0 .7-.45 2.06-.85l1.06.06Z" fill="#DDD929"/><path d="m26.38 24.68 1.04 2.54 2.67 6.73v.03a.03.03 0 0 1-.03.02H27.1c-.02 0-.03 0-.04-.02a3216.3 3216.3 0 0 0-2.33-6.45l-1.58 4a.04.04 0 0 0 0 .04l.02.02h1.77c.02 0 .03 0 .04.02l.02.04v2.3c0 .02 0 .03-.02.03l-.02.02h-5.57a.03.03 0 0 1-.02-.02v-.02L21.55 28l1.05-2.86.4-1.1a.07.07 0 0 1 .07-.04h3a.07.07 0 0 1 .06.05l.25.63ZM9 25.7v.74a.05.05 0 0 1-.02.04.05.05 0 0 1-.03.02H6.02v-.01a.04.04 0 0 1-.02-.03v-2.45l.03-.01H9v1.7ZM33.94 24c.04 0 .07.04.1.05a.2.2 0 0 1 .07.07l1.27 1.81L38 29.45c-.01.01 0 0 0 0V24h2.95l.02.03a.05.05 0 0 1 .03.03v9.89l-.02.04a.05.05 0 0 1-.04.01h-2.98a.1.1 0 0 1-.09-.04l-3.75-5.3c-.04-.02-.12-.03-.12 0V34c0 .01 0 0 0 0s.01 0 0 0h-2.95l-.03-.01-.02-.04V24h2.94ZM19 25.45l-.01 1.08a.05.05 0 0 1-.05.05h-2.87c-.01.02-.07.02-.07.03V34c0 .01 0 0 0 0s.01 0 0 0h-2.91a.03.03 0 0 1-.03-.01v-.01l-.06-.01V26.6l.04-.02h-2.97a.05.05 0 0 1-.06-.06v-.71L10 24.07a.06.06 0 0 1 .04-.07H18.94a.06.06 0 0 1 .06.06v1.39ZM9 28.57v5.4l-.01.02-.03.01H6.01v-5.25L6 27.04l.01-.03.02-.01h2.9c.02 0 .03 0 .04.02l.02.04v1.5Z" fill="#086387"/></svg>