<!-- by TradingView --><svg width="56" height="56" viewBox="0 0 56 56" fill="none" xmlns="http://www.w3.org/2000/svg">
<rect width="56" height="56" fill="#F0F3FA"/>
<path d="M16.1286 28H11.4748C11.0477 28 10.8386 27.5046 11.1471 27.2236L21.1372 18.1252C21.2254 18.0448 21.3428 18 21.4649 18H25.9434C26.3685 18 26.5786 18.4914 26.2741 18.7736L16.4593 27.8721C16.3708 27.9541 16.2521 28 16.1286 28Z" fill="#FDB514"/>
<path d="M32.1393 40H27.4856C27.0584 40 26.8493 39.5046 27.1579 39.2236L37.148 30.1252C37.2362 30.0448 37.3536 30 37.4757 30H41.9541C42.3793 30 42.5894 30.4914 42.2849 30.7736L32.47 39.8721C32.3815 39.9541 32.2629 40 32.1393 40Z" fill="#F47A20"/>
<path d="M18.8816 44H13.4182C12.991 44 12.7819 43.5163 13.0905 43.242L33.5686 25.1222C33.6568 25.0438 33.7742 25 33.8963 25H38.3748C38.7999 25 39.01 25.4798 38.7055 25.7553L19.2124 43.8751C19.1239 43.9552 19.0052 44 18.8816 44Z" fill="#F47A20"/>
<path d="M19.9501 34H14.4758C14.0478 34 13.8382 33.4983 14.1474 33.2137L37.7085 12.1268C37.7968 12.0454 37.9145 12 38.0368 12H42.5242C42.9502 12 43.1607 12.4976 42.8556 12.7835L20.2815 33.8704C20.1929 33.9535 20.0739 34 19.9501 34Z" fill="#FDB514"/>
</svg>
