<!-- by TradingView --><svg width="56" height="56" viewBox="0 0 56 56" xmlns="http://www.w3.org/2000/svg"><path fill="#F0F3FA" d="M0 0h56v56H0z"/><path d="M33.82 16 4 30l29.5-11L47 25l-13.18-9Z" fill="#343887"/><path fill="#00A6EA" d="M31.36 22.14h2.01v2.05h-2.01zm2.01 2.05h2.01v2.05h-2.01z"/><path fill="#343887" d="M33.37 22.14h2.01v2.05h-2.01zm-2.01 2.05h2.01v2.05h-2.01z"/><path d="m18 34.5 34-.5v1l-34-.5Z" fill="#5FC291"/><path d="M14.02 21.21 13.3 25l1.8-.52.77-3.46c.05-.24.29-.42.56-.42H17V20h-4v.6h.46c.36 0 .63.3.56.61Z" fill="#00A6EA"/><path d="M14.76 26.55 13 27.2c-.09.22-.3 1.59-1.05 5.23-1.03 4.98-2.65 4.9-3.41 4.9-.77 0-1.11-.42-1.54-.42.09.83 1.2 1.08 1.8 1.08 2.86 0 4.26-3.54 4.6-5.31l1.36-6.14Z" fill="#343887"/><path d="M14 33v-.1c.3 0 .47-.18.64-.64L15.8 29h.41l1.19 3.36c.13.38.3.54.55.54H18v.1h-1.44v-.1c.25-.01.37-.1.37-.28a.85.85 0 0 0-.05-.23.42.42 0 0 1-.02-.06l-.35-1h-1.36l-.34.99-.05.16a.7.7 0 0 0 0 .11c0 .2.12.31.38.31v.1H14Zm1.22-1.87h1.22l-.6-1.72-.62 1.72ZM27 33v-.1c.3 0 .47-.18.64-.64L28.8 29h.41l1.19 3.36c.13.38.3.54.55.54H31v.1h-1.44v-.1c.25-.01.37-.1.37-.28a.85.85 0 0 0-.05-.23.42.42 0 0 1-.02-.06l-.35-1h-1.36l-.34.99-.05.16a.7.7 0 0 0 0 .11c0 .2.12.31.38.31v.1H27Zm1.22-1.87h1.22l-.6-1.72-.62 1.72ZM36 33v-.1c.3 0 .47-.18.64-.64L37.8 29h.41l1.19 3.36c.13.38.3.54.55.54H40v.1h-1.44v-.1c.25-.01.37-.1.37-.28a.85.85 0 0 0-.05-.23.42.42 0 0 1-.02-.06l-.35-1h-1.36l-.34.99-.05.16a.7.7 0 0 0 0 .11c0 .2.12.31.38.31v.1H36Zm1.22-1.87h1.22l-.6-1.72-.62 1.72ZM43 33v-.1c.3 0 .47-.18.64-.64L44.8 29h.41l1.19 3.36c.13.38.3.54.55.54H47v.1h-1.44v-.1c.25-.01.37-.1.37-.28a.85.85 0 0 0-.05-.23.42.42 0 0 1-.02-.06l-.35-1h-1.36l-.34.99-.05.16a.7.7 0 0 0 0 .11c0 .2.12.31.38.31v.1H43Zm1.22-1.87h1.22l-.6-1.72-.62 1.72ZM21 33v-.68c-.42.45-.84.68-1.31.68-.8 0-1.2-.53-1.2-1.58v-1.6c0-.5-.15-.71-.49-.72V29h1.46v.1c-.34 0-.46.2-.46.71v1.71c0 .8.3 1.23.9 1.23.4 0 .75-.23 1.1-.67v-2.27c0-.5-.11-.7-.46-.71V29H22v.1c-.34 0-.48.2-.48.71v2.25c0 .38.03.83.48.84v.1h-1Zm3-.83c0 .52.13.72.48.73v.1H23v-.1c.34 0 .48-.21.48-.73v-2.34c0-.52-.14-.73-.48-.73V29h1.48v.1c-.34 0-.48.2-.48.73v1h2v-1c0-.52-.14-.73-.48-.73V29H27v.1c-.34 0-.48.2-.48.73v2.34c0 .52.13.72.48.73v.1h-1.48v-.1c.34 0 .48-.21.48-.73V31h-2v1.17Z" fill="#00A6EA"/><path d="M33 30.96c.63 0 1.41-.06 1.41-.89 0-.58-.37-.92-1.04-.92h-.18l-.19.03v1.78Zm.48-1.96c.98 0 1.52.38 1.52 1.03 0 .47-.24.81-.87.97.24.07.52.36.84.9l.2.31c.18.27.32.46.44.55a.6.6 0 0 0 .39.14v.1h-.88c-.1-.1-.26-.32-.47-.68l-.23-.36a2.69 2.69 0 0 0-.55-.7c-.24-.16-.6-.14-.87-.14v1.05c0 .52.15.72.53.73v.1H32v-.1c.37 0 .52-.21.52-.73v-2.34c0-.52-.15-.72-.52-.73V29h1.48ZM41 31v1.22c0 .43.09.65.54.65.56 0 .9-.35.9-.92 0-.6-.4-.95-1.09-.95H41Zm-1 2v-.1c.34 0 .49-.21.49-.73v-2.34c0-.52-.14-.72-.49-.73V29h1.22c1.02 0 1.55.33 1.55.96 0 .41-.28.74-.81.94.65.12 1.04.53 1.04 1.06 0 .7-.5 1.04-1.55 1.04H40Zm1-3.83v1.68h.36c.58 0 .93-.33.93-.85 0-.53-.38-.85-1.03-.85h-.13l-.13.02ZM47 33v-.1c.36 0 .5-.22.5-.73v-2.34c0-.51-.14-.72-.5-.73V29h1.7c1.25 0 2.3.75 2.3 2.08 0 1.22-.98 1.92-2.13 1.92H47Zm1-3.8v2.9c0 .51.21.74.72.74 1.11 0 1.72-.63 1.72-1.77 0-1.22-.69-1.91-1.89-1.91a3.37 3.37 0 0 0-.55.04Z" fill="#00A6EA"/></svg>