<!-- by TradingView --><svg width="56" height="56" viewBox="0 0 56 56" xmlns="http://www.w3.org/2000/svg"><path fill="#F0F3FA" d="M0 0h56v56H0z"/><path d="M8 23v10H6V23h2Zm5.86 0-4 4.88-2.28 2.45-.34-1.84 1.6-2.06L11.54 23h2.3Zm-2.1 10-3.1-4.68 1.35-1.23L14 33h-2.24ZM19.2 24.52 17 33h-2l3-10h1.34l-.14 1.52ZM21 33l-2.22-8.48-.15-1.52H20l3 10h-2Zm0-4v1.5h-4.38V29H21ZM27.5 29.5H25V28h2.5c1 0 1.5-.76 1.5-1.77 0-1-.4-1.73-1.43-1.73H26V33h-2V23h3.57c1.9 0 3.43 1.26 3.43 3.23 0 2-1.6 3.27-3.5 3.27ZM52 21H32v14h20V21Zm-13 8.5h2c-.17 2.14-1.9 3.5-3.96 3.5-2.63 0-4.04-2.17-4.04-4.62v-.74c0-2.46 1.37-4.64 4-4.64 2.08 0 3.79 1.38 4 3.5h-2c-.1-1.21-.76-2-2-2-1.74 0-2 1.67-2 3.12v.76c0 1.43.26 3.12 2 3.12 1.21 0 1.88-.8 2-2Zm11-1.75v.5c0 2.42-1.34 4.75-3.99 4.75-2.64 0-4.01-2.34-4.01-4.75v-.5c0-2.4 1.36-4.75 4-4.75 2.64 0 4 2.34 4 4.75Zm-2 .5v-.51c0-1.42-.26-3.24-2-3.24-1.73 0-2 1.83-2 3.24v.51c0 1.42.26 3.25 2 3.25 1.73 0 2-1.84 2-3.25Z" fill="#0C7C3E"/><path fill-rule="evenodd" d="M51 22H5v12h46V22ZM4 21v14h48V21H4Z" fill="#0C7C3E"/></svg>