<!-- by TradingView --><svg width="56" height="56" viewBox="0 0 56 56" xmlns="http://www.w3.org/2000/svg"><path fill="#F0F3FA" d="M0 0h56v56H0z"/><path d="m16.36 15.72.93 1.39c-2.28 6.88-.05 13.2 6.23 16.83a.08.08 0 0 0 .12-.08.08.08 0 0 0-.02-.05c-4.3-3.82-5.65-8.63-4.04-14.43l1.07.71c-2.14 6.82.73 13.2 7.31 15.88a.06.06 0 0 0 .07-.03.06.06 0 0 0-.01-.07c-4.83-3.64-6.49-8.43-4.96-14.4l1.34.9c-2.29 6.7.7 12.3 7.12 14.82a.11.11 0 0 0 .14-.05.1.1 0 0 0-.04-.14c-4.38-3.08-5.97-7.31-4.78-12.71l1.14.98c-2.32 7.31 2.76 11.8 8.92 13.89l.82 1.42a68.5 68.5 0 0 0-4.7-1.78 72.8 72.8 0 0 1-7.31-2.98c-8.03-3.65-12.56-11.25-9.35-20.1Z" fill="#FCC68B"/><path d="M36.72 19a11.53 11.53 0 0 0-3.04 3.9.17.17 0 0 0 .03.2l.35.4c.06.07.11.06.16-.02.62-1.23 1.47-2.3 2.55-3.22l.57 2.12c-.83.82-1.52 1.72-2.07 2.7a.33.33 0 0 0 .29.5h.17a.2.2 0 0 0 .18-.1c.46-.76 1-1.46 1.64-2.09.04-.04.1-.07.17-.07h.14l.86 1.54c-.79.8-2.43 2.48-1.86 3.67a.12.12 0 0 0 .17.05 11.04 11.04 0 0 1 2.21-2.7l.8 2.07c-.9.84-2.39 2.9-1.93 4.22.04.1.07.1.11 0a8.06 8.06 0 0 1 2.16-3.27c.87 3.7.57 7.32.47 11.43-.3-.2-.52-.5-.64-.9a.1.1 0 0 0-.11-.07.1.1 0 0 0-.08.1c-.03.73.23 1.34.78 1.82.16.5.14 1.12-.04 1.83-.5-.86-.8-1.8-.9-2.8-.01-.24-.15-.38-.32-.52a.28.28 0 0 1-.11-.21 10.77 10.77 0 0 0-.55-2.93c-.3-.85-.4-1.8-.7-2.65a7.85 7.85 0 0 1-.41-1.54c-.1-.68-.23-1.52-.62-1.92a.47.47 0 0 1-.11-.23 13.16 13.16 0 0 0-1.29-3.56.21.21 0 0 1 0-.19c.03-.08 0-.14-.07-.2a1.57 1.57 0 0 1-.67-.93.64.64 0 0 0-.13-.25 13.1 13.1 0 0 1-1.58-2.19.6.6 0 0 0-.2-.2c-.54-.35-.9-.93-1.08-1.72a9.74 9.74 0 0 1 4.92-4.8c.1-.05.14-.02.12.09L36.72 19Z" fill="#8BC241"/><path d="M27.82 16.08a12.87 12.87 0 0 0-2.46 6.42l-2.5-1.67a13.13 13.13 0 0 1 4.28-8.13c.2-.18.3-.14.33.12l.35 3.26Zm.5 1.32 1.32 2.29a12.32 12.32 0 0 0-1.84 4.89 9.15 9.15 0 0 0-1.77-1.52c.39-2 1.04-4.03 2.28-5.66Zm3.42 4.36-1.43-1.28a13.38 13.38 0 0 0-1.82 4.8c.3.49.6.83.92 1 .08.05.14.11.2.19l3.45 4.99c-.2-2.24.26-4.3 1.4-6.22l-1.58-2.1a11.56 11.56 0 0 0-1.84 4.49.16.16 0 0 1-.14.13.16.16 0 0 1-.16-.1 27 27 0 0 0-.07-.12c-.22-.45-.39-.8-.28-1.34.3-1.38.79-2.69 1.48-3.92-.05-.07 0-.1.19-.1-.18-.16-.29-.3-.32-.42Z" fill="#228DCD"/><path d="m22.86 20.83 2.5 1.67c.13.26.35.45.67.56.51.31 1.1.82 1.77 1.52.13.25.36.49.7.7.28.49.59.83.9 1 .09.05.15.11.2.19l3.46 4.99.2.39c0 .23.02.39.07.47.83 1.4 1.73 2.76 2.41 4.23.2.4.42.79.69 1.15.78 1.06 1.15 2.17 2.13 3.12.04.04.07.1.08.2v.08c-.01.06 0 .12.03.17.24.4.73 1.33 1.46 2.75.1.2.22.22.37.09.1.52.24.75.42.67l.08 1.13c0 .08-.03.1-.11.08-.06-.02-.1-.09-.13-.2l-3.04-5.21-.82-1.42a916.6 916.6 0 0 0-5.1-8.96 23.68 23.68 0 0 0-3.82-4.93l-1.14-.98a12.47 12.47 0 0 0-2.44-1.93l-1.34-.88c-.02-.05-.1-.1-.24-.15l.04-.5Z" fill="#0F435D"/><path d="M32.02 21.07c.18.8.54 1.37 1.09 1.72a.6.6 0 0 1 .2.2c.44.78.97 1.51 1.57 2.2.06.06.1.15.13.24.1.4.33.71.67.94.08.05.1.11.07.2a.21.21 0 0 0 0 .18c.6 1.12 1.03 2.3 1.29 3.56a.5.5 0 0 0 .11.23c.39.4.52 1.24.62 1.92.06.46.2.97.4 1.54.32.86.42 1.8.7 2.65.33.95.51 1.92.56 2.93 0 .09.04.16.11.21.17.14.3.28.33.52.1 1 .4 1.94.9 2.8l.15 1.67c-.18.08-.32-.15-.42-.67l-1-3.41-.29-1.13c-1-4.1-1.77-7.13-2.32-9.13a18 18 0 0 0-1.78-4.11l-.65-1.09-1.58-2.1-.82-.96a.93.93 0 0 1-.32-.42l.28-.69Z" fill="#354C1C"/><path d="M16.36 15.72c-3.21 8.85 1.32 16.45 9.35 20.1 2.41 1.1 4.6 2.07 7.31 2.98 1.6.54 3.16 1.13 4.7 1.78l3.04 5.21a87.84 87.84 0 0 0-11.7-6.46C23.69 36.9 18.2 33.7 14.79 28.8c-3.66-5.25-3.76-11.36-.07-16.72.07-.1.12-.1.16.02a23.4 23.4 0 0 0 1.48 3.63Zm.93 1.39c.76.94 1.52 1.7 2.3 2.27-1.62 5.8-.27 10.61 4.03 14.43a.08.08 0 0 1-.04.14l-.06-.01c-6.29-3.63-8.5-9.95-6.23-16.83Zm5.53 4.22-2.17-1.24c-2.14 6.82.73 13.2 7.31 15.88a.06.06 0 0 0 .07-.03.06.06 0 0 0-.01-.07c-4.83-3.64-6.49-8.43-4.96-14.4-.02-.04-.1-.09-.24-.14Zm1.58 1.03c.96.6 1.78 1.24 2.44 1.93-1.2 5.4.4 9.63 4.78 12.71a.1.1 0 0 1 .04.14.11.11 0 0 1-.14.05c-6.41-2.52-9.41-8.12-7.12-14.83Zm7.4 7.84a23.68 23.68 0 0 0-3.82-4.93c-2.32 7.31 2.76 11.8 8.92 13.89a916.6 916.6 0 0 0-5.1-8.96Z" fill="#F49222"/><path d="M35.11 26.33a18.06 18.06 0 0 1 1.78 4.11c.55 2 1.32 5.04 2.32 9.13l-1.9-1.48a.16.16 0 0 0-.25.09v.1c.15.33.37.58.66.76a.3.3 0 0 1 .13.2c.06.5 1.35 1.28 1.65 1.46l1 3.4c-.15.14-.27.11-.37-.08a62.7 62.7 0 0 0-1.46-2.75.26.26 0 0 1-.04-.17.4.4 0 0 0 0-.08c0-.1-.03-.16-.07-.2-.98-.95-1.35-2.06-2.13-3.12a6.6 6.6 0 0 1-.69-1.15c-.68-1.47-1.58-2.83-2.41-4.23a1.02 1.02 0 0 1-.08-.47c.08.02.16.01.23-.01.08-.03.11-.09.1-.17a8.77 8.77 0 0 1 1.53-5.34Z" fill="#228DCD"/><path d="m27.82 16.08.5 1.32a13.56 13.56 0 0 0-2.3 5.66c-.31-.11-.53-.3-.66-.56.24-2.35 1.06-4.5 2.46-6.42Zm1.82 3.6.67.8a13.38 13.38 0 0 0-1.82 4.8 1.97 1.97 0 0 1-.7-.7c.31-1.87.93-3.5 1.85-4.9Zm3.24 3.46-.82-.96c-.18 0-.25.03-.19.1a13.49 13.49 0 0 0-1.48 3.92c-.1.55.06.9.28 1.34l.07.13a.16.16 0 0 0 .3-.04c.28-1.6.9-3.1 1.84-4.49Zm1.58 2.1.65 1.09a8.77 8.77 0 0 0-1.52 5.34c0 .08-.04.14-.11.17a.38.38 0 0 1-.23 0l-.19-.38c-.2-2.24.26-4.3 1.4-6.22ZM39.5 40.7l-.29-1.13-1.9-1.48a.16.16 0 0 0-.24.2c.14.32.36.57.65.75a.3.3 0 0 1 .13.2c.06.5 1.35 1.28 1.65 1.46Z" fill="#98BCE3"/><path d="m36.72 19 .05 1.26a10.28 10.28 0 0 0-2.55 3.22c-.05.08-.1.09-.16.02l-.35-.4a.17.17 0 0 1-.03-.2 11.53 11.53 0 0 1 3.04-3.9Zm.62 3.38.52.94h-.14a.25.25 0 0 0-.17.07c-.63.63-1.18 1.33-1.64 2.09a.2.2 0 0 1-.18.1h-.17a.33.33 0 0 1-.33-.33.3.3 0 0 1 .04-.16c.55-1 1.24-1.9 2.07-2.71Zm1.9 3.5-.52-1.02c-.79.8-2.43 2.48-1.86 3.67a.12.12 0 0 0 .22 0c.59-1 1.31-1.89 2.17-2.65Zm.8 2.07.34.95a8.06 8.06 0 0 0-2.16 3.27c-.04.1-.07.1-.11 0-.46-1.32 1.03-3.38 1.94-4.22Zm.76 13.33c.16-.21.18-.53.05-.95-.3-.2-.52-.5-.64-.9a.1.1 0 0 0-.11-.07.1.1 0 0 0-.08.1c-.03.73.23 1.34.78 1.82Z" fill="#C3DD9B"/></svg>