<!-- by TradingView --><svg width="56" height="56" viewBox="0 0 56 56" xmlns="http://www.w3.org/2000/svg"><path fill="#F0F3FA" d="M0 0h56v56H0z"/><path d="m20.05 23.46.8.7a.05.05 0 0 1 .01.04v.02l-.01.02-.32.34c-.02.02-.04.02-.06 0l-.85-.85a.16.16 0 0 1-.04-.05.18.18 0 0 1-.01-.07v-9.57c0-.03-.01-.04-.03-.04h-.76l-.02.01-.01.03v9.99l.02.02 1.1 1.13c.02.02.02.04 0 .06l-.34.34c-.02.02-.04.02-.05 0l-1.3-1.29a.12.12 0 0 1-.03-.04.13.13 0 0 1 0-.05V14.04c0-.03-.02-.04-.04-.04h-.75l-.03.01v.04l-.01 10.58c0 .03 0 .05.03.07l1.5 1.53v.05l-.29.3-.03.02-.02-.01-1.65-1.66a.1.1 0 0 1-.03-.06V14.05c0-.03-.01-.05-.04-.05h-.74l-.03.01v.01l-.02.03v11.19c0 .02.02.04.03.05l1.86 1.93v.01a.03.03 0 0 1 0 .04l-1.84 1.95a.18.18 0 0 0-.03.07.2.2 0 0 0-.02.07v12.59c0 .01 0 .02.02.03l.03.02h.77c.03 0 .04-.02.04-.05V30.07c0-.03.02-.05.03-.06l1.83-1.85c.03-.02.05-.02.07 0l.18.18v.02l.01.02v.02l-.01.02-1.7 1.7a.1.1 0 0 0-.02.08v11.75c0 .03.02.05.05.05h.98l.02-.01.01-.02V30.86a.1.1 0 0 1 .03-.07l1.49-1.47c.02-.03.05-.03.07 0l.23.23.02.02a.06.06 0 0 1-.02.06l-1.35 1.34c-.14.13-.14.2-.14.38v.03c.02 2.55.02 6.07 0 10.58 0 .03.01.04.03.04h.85c.05 0 .08-.03.08-.1V31.82c0-.06-.02-.12.03-.16l1.27-1.24c.02-.02.04-.02.05 0l.33.33c.03.02.03.04 0 .07l-1.22 1.22a.09.09 0 0 0-.02.06v9.85c0 .03.01.05.04.05h.83c.01 0 .03 0 .04-.02a.07.07 0 0 0 .01-.05v-9.36a.1.1 0 0 1 .01-.04l.02-.03.99-.96.03-.02s.02 0 .03.02l.34.36c.02.02.02.03 0 .05l-.88.88c-.05.05-.07.12-.07.21a453.41 453.41 0 0 1 .02 8.94l.01.01h.9l.01-.03v-8.42c0-.03.01-.05.03-.06l.74-.74h.06A24470.29 24470.29 0 0 0 32.13 42h1.58l.01-.03a.1.1 0 0 1 0-.03l.02-.02a.04.04 0 0 0 0-.04l-9.82-9.85v-.06l.24-.24.03-.01h.03l9.9 10.13c.15.16 1.27.15 1.67.15h.08l.01-.04a.1.1 0 0 1 0-.03l.02-.01v-.04L24.95 31.03c-.02-.03-.03-.05 0-.08l.23-.25c.02-.02.04-.02.06 0L36.2 41.9l.03.03c.02.03.04.07.06.07h1.54c.07 0 .08-.1.03-.15l-11.9-11.83c-.02-.02-.02-.04 0-.06l.26-.26.04-.01.03.01a26076.1 26076.1 0 0 0 12 12.25c.02.02.03.05.05.05h1.55c.03 0 .04-.1.02-.12l-12.99-12.8c-.02-.02-.02-.04 0-.06l.28-.3h.05l6.09 6.22c2.3 2.37 4.6 4.73 6.91 7.06h1.57c.02 0 .03-.1.01-.1L27.94 28.01a.02.02 0 0 1 0-.02l14.05-13.93v-.04h-.01l-.24-.02a4.95 4.95 0 0 0-1.53.08L27.15 27.17c-.02.03-.04.03-.06 0l-.31-.3v-.01a.04.04 0 0 1 0-.03v-.01l12.97-12.76.01-.01v-.02l-.02-.01h-1.6c-.07 0-.1.03-.15.08l-.03.04A32871.2 32871.2 0 0 0 26 26.08l-.03-.01-.29-.28a.04.04 0 0 1 0-.05l11.96-11.68v-.03l-.01-.01H35.9a.1.1 0 0 0-.06.03L24.88 24.92c-.02.02-.04.02-.06 0l-.24-.25c-.02-.02-.02-.04 0-.05l10.69-10.57a.02.02 0 0 0 0-.02l-.01-.01H33.3a.13.13 0 0 0-.09.04l-9.54 9.62c-.03.03-.06.03-.09 0l-.17-.17c-.02-.02-.02-.04 0-.06l9.33-9.38.01-.02v-.03h-1.83a.12.12 0 0 0-.09.03l-8.3 8.48c-.02.01-.04.02-.06.01-.12-.04-.18-.11-.18-.23-.02-1.54-.03-4.34-.01-8.27 0-.03-.01-.04-.04-.04h-.75c-.02 0-.04.02-.04.05v8.8l.03.04.32.3.01.02a.06.06 0 0 1 0 .05v.01l-.36.35c-.02.03-.04.03-.07 0l-.5-.4c-.02 0-.02-.01-.03-.02v-9.15c0-.03-.02-.05-.04-.05h-.75c-.02 0-.05.01-.05.04v9.35c0 .03.02.05.04.07Zm2.54-.8v-.01l8.33-8.5h1.52v.04l-9.13 9.18h-.03l-.69-.69v-.02Zm.09 2.2 10.6-10.7h.02l1.63-.03h.01l.01.02v.04L23.4 25.6h-.03l-.7-.68v-.01a.04.04 0 0 1 0-.03Zm2.28.17v-.01l10.96-10.86h.02l1.37-.01h.02v.05L25.59 25.66h-.03l-.6-.6v-.01a.03.03 0 0 1 0-.02Zm.1 2.2v-.01l13.06-13.06h.01l1.29-.01h.01l.01.02v.03L25.61 27.77h-.03l-.53-.51v-.01a.03.03 0 0 1 0-.03Zm2.16.06v-.01l13.1-13.12h1.37v.04L27.85 27.9l-.02.01h-.01l-.6-.6a.03.03 0 0 1 0-.02Zm-6.62-2.62h.01l1.3-1.32.01-.01h.02l.67.69a.03.03 0 0 1 0 .05l-1.3 1.3h-.03l-.67-.67v-.04Zm2.15-.52.02.01.16.2v.07l-.34.35-.02.01a.04.04 0 0 1-.03 0l-.02-.01-.16-.2a.06.06 0 0 1 0-.04v-.04l.34-.34a.05.05 0 0 1 .03-.02h.02Zm-.97.95h.01l.2.25a.02.02 0 0 1 0 .02.02.02 0 0 1 0 .01l-.35.36h-.02l-.2-.25a.02.02 0 0 1 0-.02v-.01l.34-.36h.02Zm-3.13 1.57 1.38-1.42h.02c.17.21.32.41.42.56.1.16.15.25.14.27l-1.29 1.33s-.03 0-.07-.04a6.55 6.55 0 0 1-.6-.67v-.01a.02.02 0 0 1 0-.02Zm4.86-.99.38-.38h.01l.24.29.01.01v.04l-.02.02-.33.34-.03.01-.02-.01-.24-.3a.02.02 0 0 1 0-.01v-.01Zm-2.76 1.14 1.33-1.36h.03l.69.7v.01a.03.03 0 0 1 0 .02l-1.34 1.33h-.03l-.68-.67a.03.03 0 0 1 0-.03Zm4.1-.44-1.32 1.3-.01.01h-.01l-.53-.68a.02.02 0 0 1 0-.02l1.32-1.32h.01l.53.68a.02.02 0 0 1 0 .03Zm-4.08-.29h.01l.21.26a.02.02 0 0 1 0 .01v.02l-.34.37h-.03l-.2-.25h-.01v-.03l.35-.37h.01Zm2.14.16v.01l.27.3v.02a.02.02 0 0 1 0 .01l-.33.36h-.02l-.26-.3v-.04l.32-.35h.02Zm2.38.53-.32.38a.02.02 0 0 1-.02 0l-.31-.34a.02.02 0 0 1 0-.03l.32-.37h.02l.3.34a.02.02 0 0 1 .01.02Zm-5.54.37c.01 0 .03 0 .03.02l.16.2.01.04-.01.04-.27.27a.05.05 0 0 1-.03.01c-.02 0-.03 0-.04-.02l-.15-.2a.06.06 0 0 1-.02-.04c0-.01 0-.03.02-.04l.26-.27a.05.05 0 0 1 .04-.01Zm2.16.1h.01l.25.3v.03l-.32.36h-.01a.02.02 0 0 1-.02 0l-.25-.3v-.03l.33-.35a.02.02 0 0 1 .01 0Zm-3.9.11.6.62c.04.04.04.08 0 .11l-1.83 1.85a.12.12 0 0 0-.04.07c-.02.13 0 .28 0 .4v11.42c0 .02 0 .04-.03.04h-.53l-.03-.02-.01-.03-.01-12.45a.1.1 0 0 1 0-.03l.02-.03 1.82-1.95H18Zm6 .01.31.36v.01a.02.02 0 0 1 0 .02l-.3.34H24v.01l-.32-.36v-.01a.02.02 0 0 1 0-.02l.31-.34H24Zm-3.9.16.63.63c.02.03.02.05 0 .08l-2.5 2.46a.15.15 0 0 0-.04.05v11.07c0 .03-.02.05-.04.05h-.75c-.02 0-.03-.02-.03-.04a778.23 778.23 0 0 1-.02-11.46c0-.06-.02-.12.05-.18a2209.5 2209.5 0 0 0 2.66-2.68l.04.02Zm5.96-.03.33.38v.02l-.32.36a.02.02 0 0 1-.01.01h-.01l-.33-.38v-.02l.32-.36h.01ZM20.95 29l1.32-1.32h.04l.57.59a.03.03 0 0 1 0 .04l-1.33 1.3a.02.02 0 0 1-.04 0l-.56-.57a.03.03 0 0 1 0-.03Zm2.17.17v-.01l1.3-1.3.02-.01h.02l.51.52a.03.03 0 0 1 0 .05l-1.3 1.28h-.04l-.5-.5h-.01v-.03Zm3.45-1.2.52.66v.02l-1.2 1.2a.16.16 0 0 1-.1.04.12.12 0 0 1-.1-.04l-.37-.47a.14.14 0 0 1-.02-.06v-.06a.2.2 0 0 1 .05-.12l1.2-1.18h.02Zm-5.71.31h.01l.26.3v.02a.02.02 0 0 1 0 .02l-.28.31h-.02l-.27-.3a.02.02 0 0 1 0-.02l.28-.32h.02Zm2.46.47v.01l-.3.34H23l-.33-.37a.02.02 0 0 1 0-.01v-.01l.3-.34a.02.02 0 0 1 .03 0l.32.36a.02.02 0 0 1 0 .02Zm2.11.12-.28.34-.01.01h-.02l-.35-.38v-.02l.28-.35h.03l.35.38a.02.02 0 0 1 0 .01Zm-3.14.9v.02l-.27.32h-.03l-.34-.38v-.03l.27-.31h.03l.33.37.01.02Zm2.14.1v.02l-.29.32h-.02l-.35-.4a.02.02 0 0 1 0-.02l.28-.32h.02l.35.4Zm-4.15-.15.52.54.01.02a.06.06 0 0 1 0 .04v.01l-1.3 1.25a.17.17 0 0 0-.03.06l-.01.07v10.11c0 .03 0 .05-.03.05h-.6l-.03-.01a.08.08 0 0 1-.02-.02 131.89 131.89 0 0 0 0-4.65c-.02-.83-.03-1.65-.02-2.47v-.91c0-.8.02-1.75 0-2.56l.01-.08c0-.02.02-.04.04-.06l1.4-1.4h.06Zm-.13 12.12-.01-9.68a.04.04 0 0 1 0-.02l2.24-2.25h.04l.49.5a.03.03 0 0 1 0 .02v.02l-2.04 2.01v.03l-.02 9.37v.02h-.67a.03.03 0 0 1-.03 0v-.02Zm4.43-11.9.51.66a.02.02 0 0 1 0 .02l-1.3 1.32h-.02l-.51-.65v-.01h-.01v-.02l1.31-1.32h.02Zm-1.2.94-.01.05-.18.25-.02.02h-.02a.05.05 0 0 1-.04 0l-.34-.32a.07.07 0 0 1 0-.1l.17-.24.02-.02h.06l.34.32.02.04Zm-.31 1.76v.01l-.8.8h-.01v8.39l-.01.02h-.69v-8.88a.03.03 0 0 1 0-.02l.92-.93h.03l.55.58v.01a.03.03 0 0 1 .01.02Zm-5.66-5.4-1.37-1.56H16v3.13h.01l.02.01 1.38-1.55a.03.03 0 0 0 0-.03Z" fill="#016637"/></svg>