<!-- by TradingView --><svg width="56" height="56" viewBox="0 0 56 56" xmlns="http://www.w3.org/2000/svg"><path fill="#A8DAF3" d="M0 0h56v56H0z"/><path fill-rule="evenodd" d="M4 25.5V25h2.37v.5H6v1.6l1.45-1.6H6.8V25H9v.5h-.67l-1.01 1.07 1.43 3.93h.6v.5H7.23v-.5h.55l-1.14-3.22-.64.67v2.55h.37v.5H4v-.5h.57v-5H4ZM15.5 28a3 3 0 1 1-6 0 3 3 0 0 1 6 0ZM14 28c0 1.38-.67 2.5-1.5 2.5S11 29.38 11 28s.67-2.5 1.5-2.5S14 26.62 14 28Zm21.5 3a3 3 0 1 0 0-6 3 3 0 0 0 0 6Zm0-.5c.83 0 1.5-1.12 1.5-2.5s-.67-2.5-1.5-2.5S34 26.62 34 28s.67 2.5 1.5 2.5ZM45 28a3 3 0 1 1-6 0 3 3 0 0 1 6 0Zm-1.5 0c0 1.38-.67 2.5-1.5 2.5s-1.5-1.12-1.5-2.5.67-2.5 1.5-2.5 1.5 1.12 1.5 2.5Zm-27 2.5v-5H16V25h2.83v.5H18v2h2v-2h-.57V25H22v.5h-.49v5H22v.5h-2.57v-.5H20V28h-2v2.5h.83v.5H16v-.5h.5Zm7-5v5H23v.5h2.5v-.5H25v-5h.5V25H23v.5h.5Zm5 5.5h-2v-.5h.5v-5h-.5V25h1.65L31 28.32V25.5h-.7V25h1.99v.5h-.79V31H31v-.78l-3-3.66v3.94h.5v.5ZM46 25.5h-.5V25h3.53c.72.02 2.47.32 2.47 2.12 0 1.2-.96 1.65-1.8 1.8l1.24 1.58H52v.5h-3v-.5h.57L48.34 29h-.84v1.5h.5v.5h-2.5v-.5h.5v-5Zm1.5 0h1.12c.76 0 1.38.67 1.38 1.5s-.62 1.5-1.38 1.5H47.5v-3Z" fill="#4D3A72"/></svg>