<!-- by TradingView --><svg width="56" height="56" viewBox="0 0 56 56" xmlns="http://www.w3.org/2000/svg"><path fill="#F0F3FA" d="M0 0h56v56H0z"/><path d="M10 20v14h1.46v-6.97L13.54 34H15l-2.17-7.26L14.88 20h-1.46l-1.96 6.46V20H10Zm10 14h1.5l.45-9 1.45 9h1.14L26 25l.36 9H28l-1.03-14h-1.4l-1.63 9.66L22.33 20h-1.4L20 34Zm12 0V20h1.51v12.34h2.53V34H32Zm14-7c0 5.93-1.04 7-3 7s-3-1.37-3-7c0-5.87 1.34-7 3-7 1.7 0 2.44.96 2.77 2.84l-1.4.7c-.17-1.16-.53-1.75-1.26-1.75-.79 0-1.43.84-1.43 5.21 0 4.2.5 5.21 1.43 5.21.83 0 1.31-.63 1.4-3.92H43v-1.64h3V27Z" fill="#2E066E"/><path fill="#C52128" d="M7 34.5h42v.5H7z"/></svg>