<!-- by TradingView --><svg width="56" height="56" viewBox="0 0 56 56" fill="none" xmlns="http://www.w3.org/2000/svg">
<rect width="56" height="56" fill="#F0F3FA"/>
<path fill-rule="evenodd" clip-rule="evenodd" d="M23.4849 13.2928C24.0175 17.3082 24.0276 21.3273 23.5152 25.3503C23.4975 25.4924 23.418 25.5659 23.2766 25.571C16.3622 25.7993 13.2837 30.5363 13.0073 37.0045C12.8483 40.6914 15.3096 43.0656 18.6456 43.9293C19.96 44.2693 20.7059 43.3219 21.4431 42.3856C22.2818 41.3204 23.1093 40.2694 24.7496 41.1442C25.2537 41.4132 25.6459 41.9631 26.0339 42.5071C26.6776 43.4097 27.3099 44.2962 28.4226 43.857C29.3138 43.5044 30.316 42.8602 31.4292 41.9242C35.857 38.1904 39.2802 33.6968 41.6985 28.4436C42.9746 25.6699 39.9075 22.4054 37.946 20.8987C37.792 20.782 37.6494 20.7934 37.5181 20.9329L34.8561 23.7675C34.7649 23.8639 34.6477 23.9314 34.5189 23.962C34.3901 23.9925 34.2552 23.9847 34.1307 23.9395C34.0062 23.8944 33.8975 23.8137 33.8179 23.7075C33.7383 23.6013 33.6911 23.4741 33.6823 23.3414C33.4702 19.8612 34.7034 17.1078 37.3818 15.0811C37.3989 15.0677 37.4131 15.0511 37.4237 15.0321C37.4343 15.0131 37.4411 14.9922 37.4435 14.9706C37.446 14.949 37.4442 14.9271 37.4381 14.9062C37.4321 14.8853 37.4219 14.8659 37.4083 14.849L34.2805 11.0974C34.2149 11.0162 34.1303 10.9858 34.0268 11.0061L23.6326 13.0873C23.5861 13.0967 23.5449 13.1232 23.5175 13.1614C23.49 13.1996 23.4783 13.2466 23.4849 13.2928ZM24.9162 14.206L32.2433 12.6269C32.2685 12.6223 32.2945 12.6252 32.318 12.6354C32.3414 12.6456 32.3614 12.6627 32.3752 12.6843C32.389 12.7059 32.3961 12.7312 32.3955 12.7569C32.395 12.7826 32.3868 12.8076 32.3721 12.8286C31.0998 14.5535 30.2604 16.4952 29.854 18.6538C29.6944 19.5093 29.6287 20.4573 29.5615 21.4281C29.4627 22.8535 29.3605 24.3282 28.9528 25.6319C28.6296 26.6642 28.2421 27.6637 27.7903 28.6301C27.7771 28.6567 27.757 28.6793 27.732 28.6953C27.7071 28.7113 27.6783 28.7202 27.6487 28.721C27.6191 28.7218 27.5898 28.7144 27.5641 28.6997C27.5383 28.6851 27.517 28.6636 27.5025 28.6377C26.8764 27.4886 26.0106 26.5666 24.9049 25.8716C24.7938 25.8006 24.7509 25.7004 24.7761 25.571C25.6357 21.1308 25.5675 19.0229 24.7345 14.4761C24.7092 14.329 24.7698 14.2389 24.9162 14.206ZM29.2406 34.1889C29.6609 35.0108 31.0203 34.9347 31.8306 34.3487C33.3604 33.2403 33.8602 31.8439 33.3301 30.1596C33.1309 29.5166 32.6213 28.9994 32.1235 28.4941C31.9968 28.3655 31.8709 28.2377 31.7511 28.1088C31.7155 28.0716 31.6964 28.0213 31.6978 27.9687C31.6992 27.916 31.7211 27.8653 31.7587 27.8273L37.4992 22.0097C37.6027 21.9031 37.7112 21.8981 37.8248 21.9945C39.1539 23.1169 39.1994 25.8982 38.6427 27.4011C37.7062 29.9148 36.2004 32.426 34.1253 34.9347C32.7659 36.5822 28.4302 41.4143 26.3627 39.082C25.7644 38.4098 25.1611 37.7439 24.5527 37.0844C23.4514 35.895 21.7158 37.1264 19.9649 38.3687C18.6576 39.2962 17.3418 40.2298 16.2751 40.1663C12.9846 39.9685 14.3137 34.2955 15.0824 32.3893C16.4481 29.0131 18.9371 27.032 22.5496 26.4461C25.1885 26.0203 27.608 30.9012 28.8927 33.4929C29.0201 33.7499 29.1364 33.9844 29.2406 34.1889ZM21.9627 34.2232C21.4477 32.9257 18.8918 29.8438 17.2067 31.1831C15.836 32.2675 16.5289 34.6075 17.8505 35.2657C19.0167 35.844 20.4632 35.669 21.6295 35.0983C22.0082 34.9106 22.1192 34.6189 21.9627 34.2232Z" fill="black"/>
</svg>
