<!-- by TradingView --><svg width="56" height="56" viewBox="0 0 56 56" xmlns="http://www.w3.org/2000/svg"><path fill="#F0F3FA" d="M0 0h56v56H0z"/><path fill-rule="evenodd" d="M12 30v.46h1v5.32c0 .38-.1.7-.46.7H12V37h3.34v-.53h-1.01a.67.67 0 0 1-.66-.69v-4.43L16.9 37h.43L21 31.35v4.43c0 .38-.2.7-.56.7h-.52V37h5.3v-.53h-.61c-.36 0-.61-.3-.61-.69v-5.32h1.21V30h-3.99l-2.87 3.93L16 30h-4Zm18.08 0c-4.32 0-5.05 2.4-5.08 3.61 0 3.2 3.61 3.39 5.08 3.39 1.17 0 2.4-.27 2.87-.4H34v-2.13h-.38c-1.4 2.03-2.97 2.12-3.54 2.12-.57 0-1.99-.22-1.99-3.1 0-2.31 1.34-2.92 1.99-2.93 2.4 0 3.36 1.54 3.54 2.31H34v-2.65h-.38c0 .3-.2.45-.32.5a9.47 9.47 0 0 0-3.22-.72Zm11.66 7H35v-.5h.72c.17 0 .28-.15.28-.34v-5.68h-1V30h6.74c.44 0 1.94.22 1.94 1.58 0 1.1-1.04 1.62-1.57 1.75.63.02 1.89.33 1.89 1.42 0 1.6-1.5 2.17-2.26 2.25ZM39 33.04v-2.6h.96c.57 0 1.04.58 1.04 1.3 0 .72-.47 1.3-1.04 1.3H39Zm0 3.45V33.5h.96c.57 0 1.04.67 1.04 1.5 0 .82-.47 1.5-1.04 1.5H39Z" fill="#005AAB"/><path d="M27.97 18.14c-3.5-1.73-8.47-2.7-10.53-2.97 1.21-.72 5.01-2.17 10.53-2.17s9.48 1.45 10.77 2.17c-2.93 0-8.4 1.98-10.77 2.97Zm-14.97.6c3.07.1 10.35 1.02 14.92 4.05 1.9-1.3 7.58-3.9 15.08-4.04l-2.1-2.42c-3.04.24-9.89 1.3-12.98 3.59-2.39-1.26-8.3-3.73-12.82-3.59L13 18.75ZM27 29H12v-9c12.44.9 14.85 3.83 15 5.76V29Zm2 0h15v-9c-12.44.9-14.85 3.83-15 5.76V29Zm15 9H12v2h32v-2Z" fill="#4DB848"/></svg>