<!-- by TradingView --><svg width="56" height="56" viewBox="0 0 56 56" fill="none" xmlns="http://www.w3.org/2000/svg">
<rect width="56" height="56" fill="#F0F3FA"/>
<path fill-rule="evenodd" clip-rule="evenodd" d="M13.2868 29.0216C13.3103 29.0359 13.3326 29.0495 13.3534 29.0623C13.4113 29.098 13.4637 29.2035 13.4723 29.2717C13.8655 32.3407 14.284 35.4068 14.7277 38.47C14.7314 38.4964 14.7251 38.5202 14.709 38.5414C14.6317 38.6445 14.5514 38.7256 14.4736 38.8041C14.3324 38.9468 14.1992 39.0813 14.1074 39.3242C14.0999 39.3442 14.0975 39.3658 14.1005 39.387C14.1035 39.4082 14.1118 39.4283 14.1245 39.4453C14.1373 39.4624 14.1541 39.4759 14.1734 39.4845C14.1928 39.4932 14.2139 39.4967 14.2349 39.4947L14.5439 39.4654C14.5711 39.4628 14.5986 39.4674 14.6237 39.4789C15.0257 39.6605 15.1579 39.9453 15.2221 40.4053C15.2768 40.8008 15.3376 41.1947 15.4043 41.5871C15.4069 41.6026 15.41 41.6213 15.4135 41.6429C15.4796 42.0529 15.7105 43.4841 16.4603 42.8324C16.7567 42.5754 16.8662 42.1471 16.8694 41.7592C16.8713 41.5343 16.7642 41.381 16.6479 41.2145C16.6235 41.1796 16.5988 41.1441 16.5745 41.1072C16.1333 40.4362 15.9526 39.4773 15.9182 38.6833C15.9156 38.6257 15.9195 38.5696 15.93 38.5152C15.9322 38.5026 15.9371 38.4907 15.9444 38.4804C15.9518 38.4701 15.9612 38.4617 15.9722 38.4557C17.2472 37.7582 18.4103 36.9098 19.4616 35.9104C20.3486 35.0673 21.0455 34.0235 21.1855 32.7751C21.225 32.4237 21.15 32.0668 21.0759 31.7137C21.0618 31.6467 21.0478 31.5798 21.0346 31.5132C20.3353 28.0153 16.6418 26.6138 13.52 26.0483C13.2593 26.0012 13.0723 26.0496 12.9592 26.1934C12.6896 26.5377 12.4221 26.8822 12.1567 27.2269C11.5775 27.9806 12.7517 28.6957 13.2868 29.0216ZM15.4317 29.6437C14.8646 29.2233 14.3382 28.7593 13.994 28.1224C13.9836 28.1028 13.9893 28.092 14.0112 28.0899C16.3672 27.8892 19.5421 30.5193 19.8691 32.8369C20.1249 34.6501 17.5209 36.4093 16.192 37.1509C16.1808 37.1571 16.168 37.1594 16.1555 37.1574C16.1431 37.1553 16.1317 37.1492 16.1232 37.1398C15.8755 36.8702 15.7336 36.5532 15.6977 36.1888C15.5809 35.0149 15.6185 33.8239 15.6556 32.6503C15.6835 31.7639 15.7112 30.8874 15.6718 30.0355C15.6651 29.888 15.585 29.7574 15.4317 29.6437ZM34.5008 36.0635C35.9706 35.4504 37.2244 34.2305 38.0849 32.9091C38.0881 32.9041 38.0923 32.8999 38.0973 32.8968C38.1023 32.8936 38.1079 32.8917 38.1137 32.891C38.1195 32.8903 38.1254 32.8909 38.131 32.8928C38.1366 32.8947 38.1416 32.8978 38.1459 32.9019C38.6402 33.3913 39.2808 33.8577 39.9731 33.933C41.7025 34.1226 43.1167 32.3388 44.0123 31.0777C44.0275 31.0565 44.035 31.0327 44.035 31.0063C44.0324 30.7398 43.9638 30.491 43.8293 30.2599C43.7975 30.206 43.7839 30.1655 43.7886 30.1386C43.8053 30.0386 43.7821 30.032 43.719 30.1187C42.8617 31.2942 40.4377 33.9854 39.395 31.1776C39.3864 31.1535 39.3864 31.1271 39.395 31.103C39.4508 30.946 39.5306 30.8186 39.6344 30.7207C40.5848 29.8245 41.6923 28.3571 41.5343 26.9873C41.4858 26.5627 41.2908 26.3023 40.9493 26.2061C40.2907 26.0205 39.6328 26.5281 39.2339 27.0429C38.0692 28.5459 37.8267 30.202 37.7368 32.0334C37.7347 32.0757 37.7154 32.1273 37.6789 32.1881C37.1314 33.0891 36.4386 33.8273 35.6006 34.4026C35.1031 34.7437 34.2404 34.8595 33.7374 34.5017C33.2298 34.1416 33.1711 33.4008 33.3518 32.8345C33.4107 32.651 33.5419 32.4311 33.7452 32.1746C33.9343 31.9362 34.1293 31.6972 34.3254 31.4567C34.8986 30.7541 35.482 30.039 35.9581 29.2891C36.17 28.9544 36.249 28.0256 35.7508 27.89C35.7266 27.8833 35.7006 27.8865 35.678 27.8987C35.5195 27.9833 35.3748 28.0877 35.2439 28.212C33.6137 29.7574 32.3872 31.627 31.1598 33.498C31.1122 33.5706 31.0646 33.6432 31.0169 33.7157C30.8198 34.0155 30.5646 34.2453 30.2512 34.405C29.4127 34.8309 28.9958 33.5864 28.9089 33.0138C28.8589 32.6846 28.7071 32.43 28.3677 32.4364C27.7525 32.4475 27.2913 33.4337 27.015 34.0247C26.9768 34.1062 26.9422 34.1803 26.9112 34.2432C26.6124 34.8507 26.3339 35.2846 25.9163 35.747C25.6347 36.0579 24.9057 36.5766 25.0464 35.628C25.0621 35.5228 25.1077 35.4176 25.1833 35.3123C26.043 34.1155 26.6069 32.9765 27.2491 31.5869C27.407 31.2453 27.6084 30.9408 27.8128 30.6319C27.8808 30.529 27.9492 30.4256 28.0164 30.3202C28.1799 30.064 28.3309 29.6984 28.0876 29.4493C27.641 28.9941 26.8443 30.0205 26.5539 30.3945C26.5468 30.4037 26.5399 30.4125 26.5334 30.4209C25.2908 32.0136 24.1746 33.6932 23.1848 35.4599C22.9204 35.931 22.9275 36.2713 23.1676 36.7591C23.327 37.0837 23.3621 37.4223 23.3979 37.768C23.4021 37.8092 23.4064 37.8504 23.4109 37.8917C23.5485 39.1639 24.8493 38.949 25.3233 38.0995C25.8338 37.1849 26.4114 36.3165 26.9956 35.4384C27.0381 35.3745 27.0806 35.3105 27.1232 35.2465C27.4947 34.6881 27.8373 34.8317 28.0892 35.3861C29.074 37.557 30.8159 35.5146 31.5582 34.539C31.5736 34.5188 31.5936 34.5028 31.6166 34.4924C31.6395 34.482 31.6647 34.4774 31.6898 34.4793C31.7148 34.4811 31.7391 34.4891 31.7604 34.5027C31.7816 34.5163 31.7993 34.5351 31.8117 34.5573C31.8743 34.6691 31.9114 34.8024 31.9476 34.9324C31.9779 35.0413 32.0075 35.1478 32.051 35.2378C32.5399 36.2554 33.5106 36.4767 34.5008 36.0635ZM39.6547 28.2651C39.8878 27.9875 40.3032 27.9891 40.3478 28.415C40.4236 29.1431 39.7087 29.8451 39.1987 30.233C39.1737 30.2515 39.1583 30.2454 39.1526 30.2147C39.0165 29.476 39.1838 28.8261 39.6547 28.2651Z" fill="#ED1D25"/>
<path fill-rule="evenodd" clip-rule="evenodd" d="M24.3341 24.9443L26.0152 21.7328C26.0439 21.701 26.0551 21.7067 26.0488 21.7497C26.0196 21.9439 26.0048 22.1395 26.0043 22.3363C26.0037 23.2143 26.0037 24.0693 26.0043 24.9016C26.0043 24.9672 26.0361 25 26.0997 25H36.4081C36.4268 25 36.4318 24.9914 36.4229 24.9742C35.5107 23.3399 34.6032 21.6702 33.7002 20.009C33.2621 19.2031 32.8251 18.3991 32.3891 17.6021C32.3464 17.523 32.2749 17.4838 32.1748 17.4843C30.9968 17.4929 29.854 17.491 28.7465 17.4787C28.6145 17.477 28.5817 17.5349 28.6479 17.6522L30.7504 21.3834C30.7548 21.3913 30.7571 21.4003 30.757 21.4094C30.757 21.4185 30.7546 21.4275 30.7502 21.4354C30.7458 21.4433 30.7394 21.4499 30.7318 21.4545C30.7242 21.4591 30.7155 21.4616 30.7066 21.4616L26.1748 21.5294C26.1671 21.5294 26.1596 21.5272 26.153 21.5232C26.1464 21.5192 26.1409 21.5135 26.1371 21.5067C26.1333 21.4998 26.1313 21.492 26.1314 21.4841C26.1314 21.4762 26.1334 21.4685 26.1372 21.4616L30.2983 14.3058C30.3074 14.2897 30.3121 14.2714 30.3121 14.2529C30.3121 14.2343 30.3074 14.2161 30.2983 14.2001L28.4969 11.0491C28.4883 11.0341 28.476 11.0216 28.4613 11.013C28.4466 11.0044 28.4299 10.9999 28.413 11C28.3961 11.0001 28.3795 11.0047 28.3648 11.0135C28.3502 11.0222 28.338 11.0348 28.3295 11.0499L20.6867 24.9363C20.6848 24.9397 20.6838 24.9437 20.6837 24.9477C20.6836 24.9517 20.6845 24.9557 20.6862 24.9593C20.688 24.9629 20.6906 24.9661 20.6938 24.9686C20.697 24.971 20.7008 24.9727 20.7047 24.9734C20.8674 24.9981 21.0319 25.007 21.1983 25H24.2739C24.301 25 24.3211 24.9685 24.3341 24.9443ZM18.5344 42.8174C18.5383 42.8177 18.5422 42.8171 18.5459 42.8158C21.9823 41.5895 25.419 40.4223 28.856 39.314C28.9107 39.2965 28.9665 39.2801 29.0234 39.2648C29.4688 39.1451 29.9146 39.0259 30.3604 38.9066C32.8315 38.2456 35.3057 37.5838 37.7534 36.844C39.7006 36.255 41.6717 35.7659 43.6668 35.3767C44.3115 35.2504 45.0101 35.141 45.7148 35.0306C46.214 34.9524 46.7163 34.8737 47.2047 34.7882C47.3008 34.7712 47.4096 34.7617 47.5227 34.7517C47.6637 34.7393 47.8113 34.7264 47.9494 34.6978C47.9641 34.6946 47.9773 34.6863 47.9866 34.6742C47.9959 34.6622 48.0007 34.6472 48.0002 34.6319L47.9791 33.991C47.976 33.8827 47.9222 33.8409 47.8179 33.8657C45.8745 34.3263 43.9403 34.7506 42.0156 35.1388C41.0717 35.3293 40.1498 35.5612 39.2261 35.7936C38.9426 35.8649 38.659 35.9363 38.3745 36.0065C37.0008 36.3459 35.256 36.8596 33.3082 37.4331C31.8831 37.8527 30.3495 38.3042 28.7731 38.7429C26.9907 39.2389 25.2065 39.7293 23.4205 40.2142C22.8344 40.3733 22.2376 40.5257 21.6375 40.6789C20.8345 40.884 20.0256 41.0906 19.2287 41.3167C18.9268 41.4023 18.6311 41.5195 18.3417 41.6681C18.33 41.674 18.3206 41.6837 18.3148 41.6955C18.309 41.7074 18.3072 41.7209 18.3096 41.7339L18.5107 42.7959C18.5113 42.7997 18.5128 42.8033 18.515 42.8064C18.5172 42.8096 18.5201 42.8122 18.5234 42.8141C18.5268 42.816 18.5305 42.8171 18.5344 42.8174Z" fill="#00A54F"/>
</svg>
