<!-- by TradingView --><svg width="56" height="56" viewBox="0 0 56 56" xmlns="http://www.w3.org/2000/svg"><path fill="#F0F3FA" d="M0 0h56v56H0z"/><path d="M29.3 34.38a6.91 6.91 0 0 1-4-.82l-5.65 9.03a18.8 18.8 0 0 0 10.59 2.35l-.93-10.56Z" fill="url(#aypyzi3nw)"/><path d="m22.4 30.26-11.4 4a18.43 18.43 0 0 0 8.05 9.46l6.28-10.14a6.45 6.45 0 0 1-2.92-3.32Z" fill="url(#bypyzi3nw)"/><path d="m22.42 25.84-8.28-2.87a14.21 14.21 0 0 0 0 10.19l8.27-2.9a6.13 6.13 0 0 1 0-4.42Z" fill="#EA0A1F"/><path d="M19.71 20.36a10.53 10.53 0 0 0-2.22 3.77l4.93 1.7a6.48 6.48 0 0 1 3.41-3.54l-2.4-4.7a12 12 0 0 0-3.72 2.77Z" fill="url(#cypyzi3nw)"/><path d="M32.11 9.28c-4.44-.74-9 .01-12.94 2.14l6.36 11.02a6.78 6.78 0 0 1 4.34-.62l2.24-12.54Z" fill="url(#dypyzi3nw)"/><path d="M44 26.52a14.79 14.79 0 0 0-3.72-8.5l-6.84 5.72a6.23 6.23 0 0 1 1.71 3.54l8.85-.76Z" fill="url(#eypyzi3nw)"/><path d="M42.08 17a17.56 17.56 0 0 0-10.34-5.68l-1.87 10.5a6.65 6.65 0 0 1 3.79 2.16L42.08 17Z" fill="#0095DB"/><path d="M24.6 26.15c.2-.6 1.1-.4 1.52-.24.2.33-.33.45-.53.45s-.16.44 0 .56c.17.12 1.32-.56 1.45-.12.1.35-.92.7-1.45.83 0 .07.13.19.63.12.62-.1.46.38.23.68a3.77 3.77 0 0 0-1.42-.3c.05.1.22.3.56.3.45.09.41.9.33 1.3.23-.06.75-.12.99.14.3.33.1.56 0 .56s-.79-.2-.99-.26c-.2-.06-.36 0-.89-.2-.52-.22 0-1.28-.2-1.3-.19-.04-.22.29-.22.67 0 .3-.24.54-.36.62.16.04.55.2.78.47.3.36-.26 1.22-.42 1.16-.13-.05-.21-.61-.23-.89-.26-.14-.85-.5-1.19-.83-.34-.33.34-.49.73-.53-.33-.34-.94-1.13-.73-1.5.27-.48.96.64 1.19.29.23-.36-1.32-1-1.19-1.33.13-.33.6-.33.96-.44-.03.7.3 1 .46 1.06a2 2 0 0 1 0-1.27Zm8 0c-.2-.6-1.1-.4-1.52-.24-.2.33.33.45.53.45s.16.44 0 .56c-.17.12-1.32-.56-1.45-.12-.1.35.92.7 1.45.83 0 .07-.13.19-.63.12-.62-.1-.46.38-.23.68a3.77 3.77 0 0 1 1.41-.3c-.04.1-.21.3-.55.3-.45.09-.41.9-.33 1.3-.23-.06-.75-.12-1 .14-.29.33-.09.56 0 .56.1 0 .8-.2 1-.26.2-.06.36 0 .88-.2.53-.22 0-1.28.2-1.3.2-.04.23.29.23.67 0 .3.24.54.36.62-.16.04-.55.2-.79.47-.3.36.27 1.22.43 1.16.13-.05.21-.61.23-.89.25-.14.84-.5 1.19-.83.34-.33-.34-.49-.73-.53.33-.34.94-1.13.73-1.5-.27-.48-.96.64-1.19.29-.23-.36 1.32-1 1.19-1.33-.14-.33-.6-.33-.96-.44.03.7-.3 1-.46 1.06a2 2 0 0 0 0-1.27Zm-5.52-.45h3.06l.56-1.09h-.56l-.3.8h-1.02v-.3l.46-.5-.65-.79h-.04l-.66.8.47.5v.3h-1.02l-.3-.8h-.56l.56 1.09Z" fill="#D2942E"/><path fill-rule="evenodd" d="m27.24 25.94-.92.53.56.71v1.66l.36.94c-.03.39-.26 1.24-.92 1.57-.23-.26-.78-.6-1.02-.74l-.23.74 1.25.95h.92l.14-1.3c.08.43.36 1.3.75 1.3.4 0 .5-.38.5-.57 0 .2.1.57.49.57.4 0 .67-.87.76-1.3l.13 1.3h.92l1.25-.95-.23-.74c-.24.14-.79.48-1.02.74-.66-.33-.89-1.18-.92-1.57l.36-.94v-1.66l.56-.7-.92-.54h-2.77Zm-.36.74.5.5v1.19c0 1.1.83 1.5 1.25 1.56a1.5 1.5 0 0 0 1.25-1.56v-1.19l.49-.5h-3.49ZM28.63 31c.18 0 .6-.26.79-.39-.02.25-.06.82-.14 1.12-.08.31-.47.13-.65 0-.2.13-.58.31-.66 0-.08-.3-.12-.87-.13-1.12.18.13.6.39.79.39Z" fill="#D2942E"/><path d="M28.03 29.16V27.4h.3v.73h.6v-.73h.29v1.77h-.3v-.73h-.6v.73h-.29Z" fill="#D2942E"/><defs><linearGradient id="aypyzi3nw" x1="26.81" y1="33.14" x2="23.66" y2="44.52" gradientUnits="userSpaceOnUse"><stop stop-color="#FED336"/><stop offset="1" stop-color="#FC9127"/></linearGradient><linearGradient id="bypyzi3nw" x1="23.94" y1="31.35" x2="14.79" y2="40.23" gradientUnits="userSpaceOnUse"><stop stop-color="#E30B1E"/><stop offset="1" stop-color="#B81018"/></linearGradient><linearGradient id="cypyzi3nw" x1="20.59" y1="20.02" x2="23.85" y2="24.14" gradientUnits="userSpaceOnUse"><stop stop-color="#7F8182"/><stop offset="1" stop-color="#353533"/></linearGradient><linearGradient id="dypyzi3nw" x1="25.64" y1="9" x2="25.64" y2="22.84" gradientUnits="userSpaceOnUse"><stop stop-color="#02418D"/><stop offset="1" stop-color="#008BD2"/></linearGradient><linearGradient id="eypyzi3nw" x1="43.38" y1="22.37" x2="33.78" y2="26.54" gradientUnits="userSpaceOnUse"><stop stop-color="#0A9F38"/><stop offset="1" stop-color="#7BB631"/></linearGradient></defs></svg>