<!-- by TradingView --><svg width="56" height="56" viewBox="0 0 56 56" fill="none" xmlns="http://www.w3.org/2000/svg">
<rect width="56" height="56" fill="#F0F3FA"/>
<path d="M44.65 28.9945C44.65 35.6914 36.7329 41.1203 26.9666 41.1203C17.2003 41.1203 9.2832 35.6914 9.2832 28.9945C9.2832 22.2976 17.2003 17.2318 26.9666 17.2318C36.7329 17.2318 44.65 22.2976 44.65 28.9945Z" fill="url(#paint0_linear_229_27541)"/>
<path d="M44.65 28.9945C44.65 35.6914 36.7329 41.1203 26.9666 41.1203C17.2003 41.1203 9.2832 35.6914 9.2832 28.9945C9.2832 22.2976 17.2003 17.2318 26.9666 17.2318C36.7329 17.2318 44.65 22.2976 44.65 28.9945Z" fill="url(#paint1_linear_229_27541)"/>
<path fill-rule="evenodd" clip-rule="evenodd" d="M28.121 42C39.2335 42 48 34.5614 48 26.7291C48 19.8652 40.6855 14 29.573 14C17.1295 14 8 21.3176 8 29.1498C8 36.9821 17.0085 42 28.121 42ZM27.658 41.0447C37.7612 41.0447 45.1265 35.7113 45.1265 28.4646C45.1265 22.538 37.8713 16.8687 27.1632 16.8687C22.6258 16.8687 9.48562 19.0718 9.36462 29.3443C9.36462 35.9859 17.5549 41.0447 27.658 41.0447Z" fill="url(#paint2_linear_229_27541)"/>
<path opacity="0.5" d="M40.779 22.9438C43.2115 25.377 43.8213 28.7121 42.141 30.393C40.4606 32.0738 37.1265 31.4639 34.6939 29.0306C32.2614 26.5974 31.6516 23.2623 33.332 21.5814C35.0123 19.9006 38.3465 20.5105 40.779 22.9438Z" fill="#485098"/>
<path opacity="0.5" d="M40.3368 23.3859C42.416 25.4657 42.9372 28.3164 41.5009 29.7531C40.0647 31.1898 37.2148 30.6684 35.1356 28.5886C33.0564 26.5088 32.5352 23.6581 33.9715 22.2214C35.4077 20.7847 38.2576 21.3061 40.3368 23.3859Z" fill="#485098"/>
<path opacity="0.5" d="M39.7475 23.9747C41.356 25.5837 41.7593 27.7891 40.6481 28.9006C39.5369 30.0121 37.3322 29.6088 35.7236 27.9997C34.115 26.3907 33.7118 24.1853 34.823 23.0738C35.9341 21.9623 38.1389 22.3656 39.7475 23.9747Z" fill="#485098"/>
<path fill-rule="evenodd" clip-rule="evenodd" d="M28.6593 28.2574V23.361C29.2123 23.0394 29.7604 22.9877 30 23.0021V28.0851C30 29.3372 31.1109 29.88 31.6316 29.9948V30.9999C29.2869 30.8047 28.6731 29.0902 28.6593 28.2574ZM30.3873 25.0467H31.6321V26.2033H30.3873V25.0467ZM12 30.9327V27.364C12.1343 26.5651 12.8862 24.9672 14.8196 24.9672C17.2364 24.9672 17.666 27.2975 17.666 27.5638V30.5865C17.4551 30.7784 16.8606 31.1164 16.1698 30.9327V27.5638C16.127 27.0325 15.7848 25.97 14.7579 25.97C13.7311 25.97 13.4589 27.0325 13.4511 27.5638V30.5865C13.2344 30.763 12.6407 31.0794 12 30.9327ZM19.0918 25.97C18.3476 25.97 17.9998 26.5281 17.8617 27.0376C17.638 26.4691 17.3162 26.0742 17.0771 25.857C17.5235 25.3619 18.1926 24.9672 19.1535 24.9672C21.5703 24.9672 21.9999 27.2975 21.9999 27.5638V30.5865C21.789 30.7784 21.1945 31.1164 20.5037 30.9327V27.5638C20.4609 27.0325 20.1187 25.97 19.0918 25.97ZM28.3416 27.4698V30.8807C27.4509 30.9811 27.0295 30.624 26.9086 30.4287V27.6162C26.9086 26.8712 26.1663 26.0174 25.3284 26.0174C24.4904 26.0174 23.8736 27.1809 23.8736 28.018C23.8736 28.855 24.3932 29.9599 25.3284 29.9599C26.0765 29.9599 26.5132 29.413 26.6381 29.1396V30.6538C26.4665 30.7631 25.9643 30.9816 25.3284 30.9816C23.2831 30.9816 22.4937 29.106 22.4937 28.2683C22.4937 27.4307 22.7628 24.9724 25.3284 24.9724C27.3808 24.9724 28.1924 26.6373 28.3416 27.4698ZM34.4516 25.9541C35.2368 25.9541 35.682 26.3938 35.8064 26.6136C36.1824 26.3667 36.3133 25.9027 36.3318 25.7016C36.0737 25.4677 35.3364 25 34.4516 25C33.0968 25 31.5485 25.9541 31.5485 27.9887C31.5485 30.0233 33.2765 30.9914 34.4516 30.9914C35.3917 30.9914 36.0967 30.5424 36.3318 30.3179C36.376 29.9138 35.9447 29.5602 35.7235 29.4339C35.6497 29.607 35.3143 29.9531 34.5622 29.9531C33.6221 29.9531 33.0277 29.2235 33.0277 28.1851C33.0277 27.1468 33.4701 25.9541 34.4516 25.9541ZM42 28C42 29.6568 40.6971 31 39.0899 31C37.4827 31 36.1798 29.6568 36.1798 28C36.1798 26.3431 37.4827 25 39.0899 25C40.6971 25 42 26.3431 42 28ZM40.5345 28C40.5345 29.1216 39.8629 30.0308 39.0345 30.0308C38.2061 30.0308 37.5345 29.1216 37.5345 28C37.5345 26.8783 38.2061 25.9691 39.0345 25.9691C39.8629 25.9691 40.5345 26.8783 40.5345 28ZM28.5813 32.1022C28.7022 32.1022 28.8002 32.0042 28.8002 31.8833C28.8002 31.7624 28.7022 31.6645 28.5813 31.6645C28.4604 31.6645 28.3624 31.7624 28.3624 31.8833C28.3624 32.0042 28.4604 32.1022 28.5813 32.1022ZM28.0727 32.5955L28.6721 32.3843L28.3233 33.4551C28.2697 33.598 28.2564 33.8018 28.6317 33.4731C28.6113 33.6192 28.4913 33.9115 28.1748 33.9115C27.8584 33.9115 27.9633 33.4721 28.0553 33.2524L28.3233 32.6269L28.0727 32.5955ZM26.5798 33.8626L26.629 33.3174C26.8058 33.8528 27.3069 33.9107 27.3069 33.6416C27.3069 33.509 27.1816 33.3675 27.0545 33.224C26.9238 33.0763 26.7911 32.9265 26.7911 32.782C26.7911 32.4971 26.9729 32.3448 27.2382 32.3448C27.4504 32.3448 27.677 32.407 27.7638 32.4381L27.641 32.8458C27.6066 32.5364 27.1596 32.3792 27.1596 32.6297C27.1596 32.7469 27.2649 32.8566 27.3771 32.9733C27.5047 33.1061 27.641 33.248 27.641 33.4205C27.641 33.7447 27.415 33.9412 27.1104 33.9412C26.8667 33.9412 26.6552 33.8888 26.5798 33.8626ZM28.9562 32.6012L29.001 32.5867C28.9741 32.588 28.9562 32.5923 28.9562 32.6012ZM29.001 32.5867C29.0558 32.5841 29.1481 32.5936 29.2034 32.6012L28.7708 33.8988H29.2034C29.2333 33.764 29.3731 33.3876 29.6922 32.9607C30.0911 32.427 29.9338 33.0393 29.8776 33.2022C29.8703 33.2234 29.8594 33.2508 29.8468 33.2824L29.8466 33.2829L29.8466 33.283C29.7621 33.4954 29.6016 33.8988 29.9338 33.8988C30.2394 33.8988 30.4245 33.5543 30.4788 33.382C29.9476 33.8423 30.1042 33.4372 30.2022 33.1838L30.2023 33.1836C30.2131 33.1557 30.2232 33.1296 30.2316 33.1067L30.244 33.0731C30.333 32.8321 30.4971 32.3877 30.181 32.3877C29.9158 32.3877 29.5948 32.751 29.4674 32.9326L29.6191 32.3877L29.001 32.5867ZM31.3711 33.6741C31.6453 33.6741 31.8524 33.5168 31.9217 33.4382C31.6858 33.9775 30.6969 34.1853 30.6969 33.4382C30.6969 32.6911 31.4385 32.3709 31.652 32.3709C31.8655 32.3709 32.0285 32.4214 32.0285 32.663C32.0285 32.9045 31.8712 32.9438 31.7981 32.9438C31.7251 32.9438 31.652 32.8989 31.652 32.7697C31.652 32.6405 31.7981 32.6068 31.8318 32.6068C31.5661 32.4007 31.3579 32.7024 31.2073 32.9207L31.1913 32.9438C31.0396 33.1629 31.0284 33.6741 31.3711 33.6741ZM33.483 32.6856C33.483 33.135 32.8949 33.2773 32.6009 33.2923C32.3132 33.8675 33.0204 33.693 33.4099 33.5338C32.084 34.545 31.9941 33.4608 32.2581 32.9608C32.5222 32.4609 33.483 32.1238 33.483 32.6856ZM32.6288 33.0843C32.6981 32.9196 32.8951 32.5754 33.1288 32.517C33.421 32.444 32.9266 33.2416 32.6288 33.0843ZM35.5383 33.9326H34.3135C34.691 33.7932 34.8491 33.5637 34.8809 33.4663L35.3585 31.8597H34.954V31.7754C35.3405 31.7934 35.6919 31.6781 35.8192 31.6182C35.6863 32.1031 35.3945 33.1517 35.2911 33.4663C35.1877 33.7809 35.4128 33.9082 35.5383 33.9326ZM36.1049 33.8988C36.2996 33.8033 36.7296 33.5213 36.8915 33.1573C36.6892 33.2247 36.2847 33.1854 36.2847 32.4888C36.2847 31.8057 36.8165 31.6462 37.0825 31.6518C37.2567 31.663 37.605 31.8293 37.605 32.4046C37.605 33.1236 36.8353 33.8988 36.1049 33.8988ZM36.9138 32.8765C36.7902 32.8428 36.5801 32.6754 36.7284 32.2754C36.8767 31.8755 37.0486 31.7792 37.1161 31.7811C37.1872 31.7755 37.3116 31.8665 37.2397 32.2754C37.1498 32.7866 36.9697 32.8989 36.9138 32.8765ZM38.6034 32.3933C38.7652 32.0292 39.1952 31.7472 39.39 31.6517C38.6596 31.6517 37.8899 32.4269 37.8899 33.146C37.8899 33.7212 38.2382 33.8875 38.4124 33.8987C38.6783 33.9044 39.2102 33.7448 39.2102 33.0617C39.2102 32.3652 38.8057 32.3258 38.6034 32.3933ZM38.7666 33.2751C38.9149 32.8752 38.7048 32.7077 38.5812 32.674C38.5252 32.6517 38.3452 32.7639 38.2553 33.2751C38.1834 33.6841 38.3078 33.7751 38.3789 33.7695C38.4464 33.7713 38.6183 33.6751 38.7666 33.2751ZM40.0252 33.4215H39.2836L40.7444 31.652H41.0028L40.5196 33.1631H40.7444V33.4215H40.4016L40.2387 33.9383H39.851L40.0252 33.4215ZM39.6654 33.1631H40.1935L40.5307 32.2082L39.6654 33.1631Z" fill="#FFFDFF"/>
<path d="M26.0556 37.3622C24.5226 38.5265 23.9501 40.3557 23.8555 41.1248C27.9718 40.3794 29.1073 38.2851 29.6396 37.4865C30.0654 36.8475 30.7633 36.4038 31.059 36.2619C30.0299 36.1435 27.5885 36.198 26.0556 37.3622Z" fill="url(#paint3_linear_229_27541)"/>
<path fill-rule="evenodd" clip-rule="evenodd" d="M23.9234 41.1124C24.3771 40.2828 25.2742 38.8308 26.1265 38.0545C26.9532 37.3017 28.02 36.6776 28.9989 36.2956C27.9986 36.4223 26.8919 36.7271 26.0556 37.3623C24.5226 38.5266 23.9501 40.3558 23.8555 41.1249C23.8782 41.1207 23.9009 41.1166 23.9234 41.1124Z" fill="#9CD258"/>
<path d="M28.2208 39.9357C26.702 41.4691 24.7728 41.604 23.998 41.4797C35.6624 43.3642 43.7621 38.4314 46.3538 35.7294C45.7269 35.901 44.0012 36.1412 42.1133 35.7294C40.2255 35.3177 38.4524 35.1556 37.8019 35.126C32.071 35.126 30.1193 38.0189 28.2208 39.9357Z" fill="url(#paint4_linear_229_27541)"/>
<path fill-rule="evenodd" clip-rule="evenodd" d="M25.8029 41.7212C27.7735 41.819 30.4455 41.3287 32.423 39.0741C31.9633 39.0706 30.6837 39.1531 29.2424 39.5116C29.7585 39.2908 31.1999 38.8531 32.836 38.8686L35.1635 37.7581C34.7513 37.6282 33.467 37.4853 31.6284 37.9529C32.0601 37.6931 33.4943 37.2457 35.7771 37.534C35.9095 37.4717 37.4554 37.0924 38.2118 36.9106C37.6826 36.7352 36.1043 36.4313 34.0241 36.6183C34.9006 36.4008 37.0996 36.1156 38.8838 36.7157C40.1729 36.5651 43.0008 36.2421 43.9994 36.1547C44.3771 36.1216 44.8367 36.0265 45.2979 35.9075C44.4678 35.9895 43.3243 35.9934 42.1143 35.7295C40.2265 35.3177 38.4534 35.1556 37.8029 35.126C32.7438 35.126 30.6298 37.3804 28.8977 39.2276C28.6677 39.4729 28.4444 39.711 28.2218 39.9357C26.8555 41.3153 25.1569 41.5629 24.2656 41.5082C24.3234 41.5221 24.383 41.5357 24.4444 41.5487C24.9029 41.6165 25.3558 41.6738 25.8029 41.7212Z" fill="url(#paint5_linear_229_27541)"/>
<ellipse opacity="0.5" cx="41.6874" cy="22.7902" rx="1.91589" ry="1.91645" fill="white"/>
<ellipse opacity="0.5" cx="41.6884" cy="22.7904" rx="1.42672" ry="1.42714" fill="white"/>
<ellipse opacity="0.5" cx="41.6876" cy="22.7903" rx="1.00597" ry="1.00579" fill="white"/>
<ellipse cx="41.6882" cy="22.7904" rx="0.557379" ry="0.557279" fill="white"/>
<defs>
<linearGradient id="paint0_linear_229_27541" x1="18.0165" y1="19.965" x2="42.8237" y2="34.9755" gradientUnits="userSpaceOnUse">
<stop stop-color="#010522"/>
<stop offset="0.280557" stop-color="#2B2D6A"/>
<stop offset="1" stop-color="#273064"/>
</linearGradient>
<linearGradient id="paint1_linear_229_27541" x1="21.8907" y1="41.1203" x2="41.4547" y2="16.875" gradientUnits="userSpaceOnUse">
<stop stop-color="#010522"/>
<stop offset="0.795966" stop-color="#2B2D6A" stop-opacity="0"/>
<stop offset="1" stop-color="#273064" stop-opacity="0"/>
</linearGradient>
<linearGradient id="paint2_linear_229_27541" x1="14.6018" y1="19.1113" x2="36.2993" y2="43.2627" gradientUnits="userSpaceOnUse">
<stop stop-color="#CEA263"/>
<stop offset="0.374547" stop-color="#835A24"/>
<stop offset="0.495386" stop-color="#E1B974"/>
<stop offset="0.591612" stop-color="#F0E092"/>
<stop offset="0.667945" stop-color="#FDFEED"/>
<stop offset="0.726122" stop-color="#CC9C54"/>
<stop offset="0.863732" stop-color="#75581E"/>
<stop offset="1" stop-color="#7E6226"/>
</linearGradient>
<linearGradient id="paint3_linear_229_27541" x1="24.6184" y1="40.9473" x2="27.1563" y2="38.6725" gradientUnits="userSpaceOnUse">
<stop stop-color="#28AF48"/>
<stop offset="1" stop-color="#6DBE57"/>
</linearGradient>
<linearGradient id="paint4_linear_229_27541" x1="32.4745" y1="40.9032" x2="47.0271" y2="39.9857" gradientUnits="userSpaceOnUse">
<stop stop-color="#178E3E"/>
<stop offset="1" stop-color="#60B138"/>
</linearGradient>
<linearGradient id="paint5_linear_229_27541" x1="29.2372" y1="41.0998" x2="34.7832" y2="35.8187" gradientUnits="userSpaceOnUse">
<stop stop-color="#31B059"/>
<stop offset="1" stop-color="#74BB43"/>
</linearGradient>
</defs>
</svg>
