<!-- by TradingView --><svg width="56" height="56" viewBox="0 0 56 56" xmlns="http://www.w3.org/2000/svg"><path fill="#F0F3FA" d="M0 0h56v56H0z"/><path d="M25 38.32c.57 3.42 3.31 7.88 4.65 9.68a5.9 5.9 0 0 0-.29-1.85C24.77 40.17 26 37.85 26 37c0-.85-1.66-2-3.1-2-1.14 0-2.1-.19-2.43-.38.52-.1 1.61-.62 2.53-.62-1.84-1.37-3.33-1.56-4-1.65.48-.05 1.2-.35 2-.35-1.15-1.25-3-1.65-4-1.79.14-.14 1-.21 2.5-.21a7.84 7.84 0 0 0-3.5-2l1.31-.2L16 26l2.17 1.65c.05-.05.15-.34.15-1.14.46.57.68 1.56.68 1.99l1.76 2.28c.1-.28.35-.87.24-1.78.72.28.76 1.92.76 2.5 0 .45.86 1.27 1.24 1.56V31c.2.19.62.75.62 1.2 0 .91.77 1.8 1.15 2.14-.05-.33 0-.88.23-1.34.11.57.73 1.34 1.06 1.77.1-.1.29-.57.29-1.71 0-1.43-1.28-2.14-1.85-3.56a4.9 4.9 0 0 1 2 1.42v-1c-.63-.75-1.89-2.24-2-2.92a8.91 8.91 0 0 1 2.14 1.5v-2.13c0-1.57-.29-1.42-1.15-2.7-.69-1.03-.67-1.38-.57-1.43.43.2 1.46.74 2.15 1.43 0-3.85-.43-3.99-1.15-5.84a4.03 4.03 0 0 1 1.43 1.85l.87-4.13v3.13c.28-.28.91-.8 1.14-.56a9.5 9.5 0 0 0-1.58 5.4l1.58-1.28-1.58 3.56-.14 1.85L29.5 26l-2.15 4L29 29l-2 3.35L29 31l-2 3.5 3-2.15c.05-.76.43-2.67 1-3.35v2.42l1.23-.78A11 11 0 0 1 33 27c0 1.02.19 2.36.24 2.78l.86-1c.1-.66.44-2.32.9-2.78-.23.46-.1 1.62 0 2a14.9 14.9 0 0 0 1.54-1.63 9.1 9.1 0 0 1 1-2.7l.29 1.7L41 23l-1.3 1.66 1.3-.16a5.2 5.2 0 0 1-2.17 1.16c-.8.11-1.48.8-1.72 1.14h2.58c-.72.7-2.44.85-3.01.85-.46 0-1.3.88-1.68 1.35.38 0 1.4.13 2.54.36-.72.57-2.73.64-3.16.64-.34 0-1.2.62-1.57 1h2.87A22.09 22.09 0 0 1 31 32.92c.53.14 1.31.42 2 .42a7.4 7.4 0 0 1-3.06.66c-.58 0-2.94 1.2-2.94 4.75 0 2.85 1.5 5.08 2.36 5.83.29.15.75.23.29-.56-1.84-2.28-2-4.46-1.87-5.27a6.32 6.32 0 0 0 3.3 1.25c1.38 0 3.1-.72 3.92-1-.29-.14-1-.7-1-1.5 0-1.6 6.18-3.4 9-4.16-.57-.23-2-.86-2-2.34s2.23-3.78 3.28-4.63c-.48-.2-1.28-.74-1.28-1.42 0-.86 1.28-3.67 2-4.95-1.58 1.28-6.03 1.39-7.03 1.39s-2.87 1.85-3.87 1.85-.72-1.14-.43-2.14c.23-.8.43-3.77.33-5.1-.24.1-1.31.54-2 1 0-1.7-2.06-3.15-2.35-4a4.08 4.08 0 0 1 0-2 8.54 8.54 0 0 0-2.3 2.56c-1.14.71-3.15 3.84-3.87 3.84-.57 0-1.15-.28-1.48-.42v5.69c-.33.38-1.16 1.33-1.5 1.33-.43 0-4.2-1.05-5.77-1.62A9.17 9.17 0 0 0 11 22.1c.48.52 1.43 1.82 1.43 2.85 0 1.02-.33 1.77-.43 2.05.29.66 1 2.32 1 3 0 .85-.43 1.36-1 2.5 3.01 1.85 6 3.55 6 5.82 0 1.82-.71 2.54-1 2.68 2.34-.66 7.31-2.1 8-2.68Z" fill="#005028"/></svg>