<!-- by TradingView --><svg width="56" height="56" viewBox="0 0 56 56" xmlns="http://www.w3.org/2000/svg"><path fill="#F0F3FA" d="M0 0h56v56H0z"/><path d="M10.3 29 4 26.05C10 24.9 16.15 24 23.35 24c7.2 0 9.6.64 10.65 1.03-12.48.1-21 2.69-23.7 3.97Z" fill="#414141"/><path d="M44 24c-14.45 0-26.02 4.52-30 6.78 1.24.56 4.39 2 7.01 3.22C24.9 29.08 39.82 24.5 44 24Z" fill="#414141"/><path d="M52 23c-18.65 4.45-26.44 9.8-28 11.9 1.97.68 6.45 2.23 8.63 3.1 3.02-8.04 16.8-13.76 19.37-15Z" fill="#414141"/></svg>