<!-- by TradingView --><svg width="56" height="56" viewBox="0 0 56 56" fill="none" xmlns="http://www.w3.org/2000/svg">
<rect width="56" height="56" fill="#F0F3FA"/>
<path fill-rule="evenodd" clip-rule="evenodd" d="M25 18V31.785C25 34.1129 26.7819 36 28.9799 36H30V34H29.0985C27.9372 34 26.9959 32.7803 26.9959 31.5504V18H25ZM31 22H27V24H31V22ZM8 36V24.7675C8 22.1345 10.0622 20 12.606 20C14.0162 20 15.2132 20.6559 16 21.6891C16.7869 20.6559 17.9839 20 19.394 20C21.9379 20 24.0001 22.1345 24.0001 24.7675V36H22V24.3356C22 23.0737 20.6344 22 19.4153 22C18.1961 22 17 23.0737 17 24.3355V36H17H15H15V24.7135C15 22.9016 13.8464 22 12.6273 22C11.4081 22 10 22.6409 10 24.7135V36H8ZM32 24.7675V36H34V24.7135C34 22.6409 35.4081 22 36.6273 22C37.8464 22 39 22.9016 39 24.7135V36H39H41V24.3355C41 23.0737 42.1961 22 43.4153 22C44.6344 22 46 23.0737 46 24.3356V36H48.0001V24.7675C48.0001 22.1345 45.9379 20 43.394 20C41.9839 20 40.7868 20.6559 40 21.6891C39.2132 20.6559 38.0162 20 36.606 20C34.0622 20 32 22.1345 32 24.7675Z" fill="#1E580B"/>
</svg>
