<!-- by TradingView --><svg width="56" height="56" viewBox="0 0 56 56" fill="none" xmlns="http://www.w3.org/2000/svg">
<rect width="56" height="56" fill="#F0F3FA"/>
<path fill-rule="evenodd" clip-rule="evenodd" d="M7 32V23H10.4069L11.0379 26.9344L11.6688 23H15V32H12.5V26.3689L11.8202 32H10.2303L9.5 26.3689V32H7ZM16 23V29.4982C16 30.8799 17.1464 32 18.5606 32H19.4394C20.8536 32 22 30.8799 22 29.4982V23H19.5V30.3946C19.5 30.5827 19.18 30.7351 18.9875 30.7351C18.7951 30.7351 18.5 30.5827 18.5 30.3946V23H16ZM23 29.7202V25.2321C23 23.9994 24.0379 23 25.3182 23H26.6322C27.9125 23 29 23.9994 29 25.2321V26.3422H26.5V24.683C26.5 24.4655 26.2135 24.2891 25.9876 24.2891C25.7617 24.2891 25.5 24.4655 25.5 24.683V30.317C25.5 30.5345 25.7617 30.7109 25.9876 30.7109C26.2135 30.7109 26.5 30.5345 26.5 30.317V28.5H26V27H29V32H27.1901V31.1759C26.7557 31.6794 26.1006 32 25.3678 32C24.0601 32 23 30.9793 23 29.7202ZM32.5 23H30V32H32.5V28H33.5V32H36V23H33.5V26H32.5V23ZM39.196 32H36.4059L37.7511 23H41.5625L43.0323 32H40.4166L40.3114 31H39.2749L39.196 32ZM39.4326 29H40.1011L39.7191 25.3685L39.4326 29ZM43.5 23V32H49V30H46V23H43.5Z" fill="#EE1F25"/>
<path fill-rule="evenodd" clip-rule="evenodd" d="M20 36.6941V36.4271H22.0245C22.1568 36.4271 22.2641 36.3358 22.2641 36.2232V36.0268C22.2641 35.9142 22.1568 35.8229 22.0245 35.8229H20.7188C20.3218 35.8229 20 35.549 20 35.2111V34.6118C20 34.2739 20.3218 34 20.7188 34H23.1881V34.4531H21.1697C21.0374 34.4531 20.9301 34.5444 20.9301 34.6571V34.8221C20.9301 34.9347 21.0374 35.026 21.1697 35.026H22.5611C22.958 35.026 23.2798 35.3 23.2798 35.6378V36.3882C23.2798 36.7261 22.958 37 22.5611 37H20.3594C20.1609 37 20 36.863 20 36.6941ZM23.618 34L23.3821 34.3856H24.5791V37H25.6975V34.3856H26.5974V34H23.618ZM27 37V34H29.8319V34.614L29.5823 34.342H28.0243V35.2437H29.3757L29.621 35.022V35.8973L29.3757 35.6756H28.0243V36.5648H29.5823L29.8319 36.3938V37H27ZM30 34V37H32.8319V36.3938L32.5823 36.5648H31.0243V35.6756H32.3757L32.621 35.8973V35.022L32.3757 35.2437H31.0243V34.342H32.5823L32.8319 34.614V34H30ZM33 34V36.9009H35.7203L36.0017 36.3686L35.5952 36.4884H34.0318V34.3194L34.1569 34H33Z" fill="#EE1F25"/>
<path fill-rule="evenodd" clip-rule="evenodd" d="M6.91674 21C5.85815 21 5 21.8563 5 22.9126V33.0874C5 34.1437 5.85815 35 6.91674 35H18.5V37.3169C18.5 37.6942 18.8545 38 19.2917 38H36.7083C37.1455 38 37.5 37.6942 37.5 37.3169V35H49.0833C50.1418 35 51 34.1437 51 33.0874V22.9126C51 21.8563 50.1418 21 49.0833 21H6.91674ZM37.5 34.5H48.9387C49.801 34.5 50.5 33.8127 50.5 32.9648V23.0352C50.5 22.1873 49.801 21.5 48.9387 21.5H7.06127C6.199 21.5 5.5 22.1873 5.5 23.0352V32.9648C5.5 33.8127 6.199 34.5 7.06127 34.5H18.5V33.6831C18.5 33.3058 18.8545 33 19.2917 33H36.7083C37.1455 33 37.5 33.3058 37.5 33.6831V34.5ZM19 33.9724C19 33.7115 19.2796 33.5 19.6245 33.5H36.3755C36.7204 33.5 37 33.7115 37 33.9724V37.0276C37 37.2885 36.7204 37.5 36.3755 37.5H19.6245C19.2796 37.5 19 37.2885 19 37.0276V33.9724Z" fill="#7D858C"/>
</svg>
