<!-- by TradingView --><svg width="56" height="56" viewBox="0 0 56 56" xmlns="http://www.w3.org/2000/svg"><path fill="#F0F3FA" d="M0 0h56v56H0z"/><path d="M28.09 14.03c.15-.11.23.11.25.23.48 2.05-.84 1.39-.25-.23Zm.09.21c-.12.39-.17.88.04 1.21.2-.34.14-.93-.04-1.21ZM28.4 16.66c.14-.54.6-1.12 1.1-1.25-.08.58-.44 1.4-1.1 1.25Zm.89-1.02c-.28.17-.68.59-.7.9.42-.08.73-.56.7-.9ZM27.34 15.53c.27.29.88.72.65 1.14-.49.23-1.4-1.48-.65-1.14Zm.58.95a1.48 1.48 0 0 0-.73-.87c.05.32.41 1.03.73.87ZM28.44 17.96a1.9 1.9 0 0 1 1.14-1.43c.08.68-.46 1.53-1.14 1.43Zm.96-1.2c-.34.2-.83.7-.78 1.08.47-.14.87-.62.78-1.08ZM27.88 17.99c-.75.03-1-.74-1.02-1.33.6.13 1.21.69 1.02 1.33Zm-.1-.16c.1-.47-.4-.84-.76-1 .01.42.26 1.06.76 1ZM20 16.89c.46.15 1.05.42 1.16.94-.59.29-1.1-.43-1.16-.94Zm.97.84c-.09-.29-.47-.53-.76-.6.05.3.45.74.76.6ZM35.23 18.08c.05-.57.56-.83 1.06-.91.12.54-.6 1-1.06.91Zm.91-.74c-.3.05-.76.3-.73.63.3-.06.76-.27.73-.63ZM21.87 18.62c-.78-1.91.9-1.46.12 0-.03.05-.1.05-.12 0Zm-.03-1.14c-.03.29-.08.74.12.94.16-.27.21-.83-.12-.94ZM34.45 17.45c.4.09.36 1.09-.01 1.3-.57-.16-.21-.97 0-1.3Zm.03.2c-.14.19-.4.81-.07.92.24-.08.25-.91.07-.92ZM22.83 17.88c.44.31.41 1.5-.26 1.53-.08-.5.03-1.06.26-1.53Zm0 .31c-.54 1.41.39 1.25.09 0-.01-.04-.08-.05-.09 0ZM28.38 19.48c.04-.83.67-1.26 1.3-1.56-.15.79-.4 1.66-1.3 1.56Zm1.09-1.3c-.42.2-1 .7-.91 1.19.63-.08.89-.68.9-1.19ZM26.68 17.98c.6-.13 1.25.92 1.25 1.51-.6.06-1.39-.93-1.25-1.51Zm1.11 1.38c-.1-.53-.48-1.16-1.02-1.26 0 .44.61 1.24 1.02 1.26ZM33.42 18.08c.6.04.22.81.36 1.52a1.03 1.03 0 0 1-.36-1.52Zm.26 1.21s-.08-1.06-.1-1.07c-.37.08-.3 1.07.1 1.07ZM20.46 18.43c.22-.03 1.5.1 1.18.53-.5.14-1.13.04-1.18-.53Zm1.08.37c0-.12-.84-.29-.89-.19.1.11.2.26.33.3.03-.02.6-.01.56-.1v-.01ZM34.64 18.91c.8-.75 1.92-.08.53.32-.2-.01-.6-.03-.53-.32Zm1.03-.11c-.12-.24-.74 0-.9.19.28.23.7.13.9-.19ZM23.45 20.38c-.37-.43-.16-1.58.45-1.7.1.57.25 1.46-.45 1.7Zm.33-1.52c-.41.26-.46.97-.27 1.37.42-.27.45-.96.27-1.37ZM32.5 18.84c.28-.74.95 1.82.37 1.62-.66-.41-.5-.97-.38-1.62Zm.11.02c-.12.52-.27 1.18.31 1.47.13-.48-.09-1.11-.3-1.47ZM30.63 33.76c.1-1.44.08-3.09.08-4.53-2.1-.04-4.22-.08-6.31-.19-.1.03-.02-.55-.06-.57.36-.26 1.1.06 1.45-.16a3.34 3.34 0 0 1 .16-1.58l1.98.05c.47 2.22-.33 1.37-1.92 1.56 0 .03 2.03.1 2.15.04l.02-1.58c.03-.08.17-.05.24-.06 1.7.11 1.68-.39 1.96 1.48.03.13-1.92.1-1.96.15.84.27 2.23-.05 3.16.18.05.18.07.57.1.71.31 0 .65.2.91.24-.12-.27-.46-.19-.66-.37-.15-.16-.06-.53.02-.7.2-.42.7-.07.9-.36-.19-.35-.44-.76-.07-1.11.54 0 1.18-.13 1.42.52.13.36.28.59.63.75 1.6-.02 5.19.86 2.06-1.28-.55-.47-.9-1.14-1.4-1.65-.55-.12-1.22.03-1.4-.71.4-.06.89.09 1.3.09.45 0 .58.58.92.55-.3-.28-.95-2-.86-.82-.07.11-.9.07-.92-.18-.07-.5.19-.94.67-.85.02.08.24.55.3.29.02-.02-.1-.73-.03-.72.95-.42.82 1.02 1.01 1.55.66.47 1.42 1.49 2.27 1.27.27.2.1.7.43.8.09-.02.08-.88.15-.91.85-.58 2.98-2.52.5-1.84-.15.03.02-.42 0-.47.37-.28.84-.32 1.32-.3.35-.33-.7-.55-.94-.62-.53.5-1.5.59-1.47-.34.08-.05 1.3-.72 1.34-.87.18-.74.94-1.01 1.61-1.07.14-.02.06-.89.2-.91.34-.02.4.84.68.51.4-1.01.8.13 1 .66.52.24 1.07.5 1.57.79a.9.9 0 0 1 .44.43c-.02.11-.75-.15-.76 0 .3.27 1.06.48 1.04.99-.08.05-.95-.43-.78-.11l.81.62c.1.07-.25.14-.27.16-.12.08.48.69.2.69l-.45-.12c-.07.34.93 1.14.23 1.46-.03-.02-.66-.62-.65-.42.07.45.42.89.46 1.32-.3-.04-.5-.36-.62-.61-.05-.11-.12-.2-.24-.12.04.4.59 1.1.08 1.42-.1-.07-.75-.52-.67-.19l.6.73c.07.35-.04.77-.3 1.01-.14-.16-.51-.78-.76-.79-.87 2.51 1.18 2.53 1.59 4.65 2.33 1.15-.58-4.07-.3-4.89.13-.84.86-1.28 1.66-1.24 1.8.27 1.6 2.74 1.51 4.06-2.75-.74.32-3.52-1.88-3.54-2.3 1.34 1.95 4.24.3 6.15-.33.27-1.5.34-1.86.63-.85.83.4 1.73.75 2.4-.8.84-1.1 1.77-1.54 2.77-.31.12-.76.2-1 .46-.12.52-.27 1.15-.98.84-.03-.11.04-.27.05-.49-.2-.58-.45.22-.56.42-.4-.04-1.18-.3-1.33-.72-.25-.72.62-.59.91-.84-.03-.42-.64-.03-.92-.14-.1-.14.83-.61.91-.65.54-.19.87.18 1.38.21l1.3-.79c-.15-.88-1.9-1.3-2.37-1.82a4.82 4.82 0 0 1-.33-2.74c-.56.07-1.78.29-1.88 1-.01.08-.21.12-.23.19.1 2.6 2.43 2.41-1.66 2.74-.57.04-1.68.17-2.1-.3.09-.4.19-.73.06-1.14-.08-.18.37-.02.43-.04.3-.17-.44-.4-.51-.48-.07-.01.3-.46.29-.48.27-.03.58 0 .83.07.18.23.37.56.48.81.33.56 1.49.51 1.17-.35-.64-.92-1.43-2.73-.09-3.39.35-.08.77.12 1.1.07.09-.48-.21-1-.67-1.1-1.2.15-3.82-1.25-4.36.06-.24.11-.56.02-.8-.1.34 1.59.06 3.58-.39 5.17l-1.86.03c-.04-.41.07-.9.04-1.34v-.06Zm11.9-13.82c-.37.03-.35-.55-.6-.55-.03.1-.02.79-.13.81-.54.07-1.27.22-1.51.78-.01.35-.48.55-.66.68-.17.12-.16.14.03.04.5-.26.84-.58 1.06-1.13.03-.11 1.07.36 1.08.38.2.91-.64.43-1.09.6-.43.32-.86.74-1.42.84-.22.04-.2-.19-.21-.35-.36-.04-.08.48.1.6.27.06.79-.23.99-.39.41.09 1.15.18 1.22.66.21.02.66-.37.92-.25.78.86-1.9.18-2.26.67-.5.64.87-.06 1.1.18.14.79-.98 1.63-1.6 2.08-.33.25-.01.96-.3 1.16l-.36-.28c-.04-.19-.01-.41-.16-.58-.87.12-1.52-.82-2.24-1.26-.2-.15-.2-.67-.25-1.01-.02-.21-.34-.98-.63-.62-.13.97.6 1.73 1.1 2.44-.42.07-.74-.3-1.06-.63a6.65 6.65 0 0 0-1.33-.18c.08.43.7.43 1.16.47.14 0 1.1 1.27 1.26 1.47.53.52 1.42.96 1.67 1.73-.99.16-3.45.47-4.18-.5-.21-.35-.16-.68-.66-.74-1.53-.22-.46.62-.61 1.16-.48.13-1.12-.06-.92.76.3.22.53.07.68.34.18.42.31.57.79.55.2-.25.3-.66.73-.6 1.41.49 4.76-.33 4.6 1.89-2.43-.57-2.08 1.66-1.04 3.1.29.45-.13.97-.62.93-.77 0-.8-.85-1.28-1.22 0-.01-.64-.06-.63-.03.02.01-.26.3-.17.31l.48.28c.15.35-.17.39-.44.33.02.3.06.65-.07.96.93.81 2.74.06 3.96.12.56-.04.08-.71-.1-.88-1.24-1.69.65-3.05 2.17-2.86-.59.49-.1 2.14.12 2.77.75.69 2.52 1.05 2.54 2.25-.57-.24-1 .32-1.53.57-.18.11-.74-.23-.95-.25-.4-.03-.86.19-1.06.46.37-.14.83-.13.73.39-.46.11-1.37.31-.71.88.55.33.96.72 1.16-.16.06-.04.48-.08.51.04-.1 1.2.66.64.71-.17.25-.36.87-.29 1.15-.62.3-.88.57-1.82 1.3-2.41.08-.09.09-.17.03-.25-.64-.59-1.6-2.06-.36-2.56.54-.22 1.33-.15 1.68-.64.94-1.86-1.53-3.5-1.06-5.44.17-.57 1.12-.78 1.54-.35.32.38.07 1.36.02 1.85-.43.59.46 1.26.96 1.37.04-1.28.2-2.46-.7-3.41-.72-.69-2.1-.2-2.22.8-.35.75 2.48 5.52.46 5.2-.67-.12-.41-.76-.76-1.34-.47-.59-1.05-1.1-1.47-1.72.02-.73.2-1.46.19-2.13.43.06.69.63.97.78.1-.2.26-.6.1-.78-.18-.32-.92-.78-.55-.97.3-.04.52.2.77.27.26-.36-.18-.88-.24-1.35a2.82 2.82 0 0 1-.77-.4c-.04.41.4.9.35 1.26-.71.14-.74-1.28-.93-1.81-.92-1.35 1.17.24 1.26.81.1.18.34.02.5.09.16.14.25.59.44.63-.16-.44-.46-.91-.41-1.39.02-.14.73.58.77.56.5-.21-.38-.95-.4-1.34.1-.18.4.03.53.03.03-.04-.26-.51-.25-.55 0-.09.14-.1.2-.14-.16-.31-.94-.43-.66-.9 0-.08.55.16.58.15.1-.23-.62-.52-.9-.6-.14-.46.28-.33.59-.29-.27-.39-1.26-.72-1.78-.96-.22-.33-.18-.86-.6-1.05-.03.05-.3.52-.35.51l-.07.05Zm-3.3 2.32c.32.09 1.13-.6 1.4-.79.27-.25 1.34.26.97-.46-.04.01-.82-.37-.83-.26-.25.7-.97 1.03-1.56 1.3.02.03-.02.21.03.21Zm3.06.6c-.15-.07-.5.03-.59.15.15.07.5-.03.6-.15Zm-7.63 1.36c.19.05.47.17.64.08.07-.36 0-.54-.22-.82-.4-.02-.51.41-.42.74Zm8.8.52c.03-.27.5.39.49.21-1.28-1.79-.72.39-.2 1.1-.05-.34-.43-.94-.3-1.32v.01Zm-15.65 2.2-1.77-.07c-.08.35-.3 1.04-.08 1.33.03-.02 1.93.04 1.92-.03-.03-.03.02-1.23-.06-1.23h-.01Zm2.18.03c-.03-.08-1.6-.07-1.66-.07-.01.06-.08 1.3-.02 1.34.06-.01 1.84-.06 1.89-.1.04-.04-.22-1.13-.21-1.17Zm-5.48 1.95c1.11-.12 7.18.75 6.93-.26-.98.12-7.4-.66-6.93.26Zm7.85 6.03c.27-1.38 1.34-5.12-.55-5.54-.04.01-.9 0-.92.05-.05 1.81-.06 3.64-.18 5.45-.1.16 1.63 0 1.66.04Z" fill="#060702"/><path d="M23.12 32.37c0-.27-.11-.23-.06.02-.11.8.07 1.5.27 2.79 3.66.03 7.06-.03 10.69.16.7 1.32-7.57.26-8.8.56-.2.03-.47.03-.7.07l1 .13c.1-.02.04.92.08.95-.36.16-1-.06-1.47 0-.25-.22-.33-.85-.3-1.12l-1.88-.2c-.4-.67-1.6-6.67.1-6.12.14.02.21.19.3.29.02-.09-.23-.54-.45-.48-1.36.54-4.4-.34-4.53 1.62.35.08.87-.2 1.27-.03 1.12 1.06.37 2.28-.23 3.32-.39 1.09 1.18.89 1.3.03.12-.17.23-.4.4-.49l.71-.05c.07 0 .31.41.35.45-.09.22-.6.19-.56.48.02.09.4-.03.44 0 .07.15-.05.41 0 .57.47 1.21-1.08 1-1.86.96-5.22-.16-.47-1.13-2.19-3.3-.39-.36-1.26-.71-1.7-.58.25.8-.05 2.05-.42 2.78-.73.49-1.95.83-2.3 1.7.43.26.9.58 1.36.82.8-.4 1.71-.3 2.26.41-.2.16-1.16-.28-.87.23 1.71.13.52 1.61-.52 1.46-.21-.86-.65-.72-.46.11-.74.31-.82-.3-.98-.81-.07-.21-.79-.42-.99-.47-.4-.47-.4-1.33-.8-1.88-1.2-1.06-.53-1.07.13-2.14.83-1.48-1.4-1.35-2.02-1.87-1.51-1.78 2.52-4.84.4-6.08-2.26-.11.76 2.86-1.95 3.52-.98-5.01 3.88-5.2 3-1.74-.25.6-1.46 3.58-.86 3.99.85.31.8-.84 1.08-1.29.44-.51.9-1.02 1.36-1.52.29-.6-.15-1.26-.1-2.01-.3 0-.59.56-.79.79-.58-.56-.25-1.27.3-1.73.12-.36-.5.1-.66.18-.56-.38.15-1.08.04-1.44-.02.02-.17-.03-.16.03-1.14 1.68-.44.09-.22-.6 0-.22-.59.42-.63.41-.68-.24.16-1.07.25-1.43-.14-.09-.5.25-.56.02-.03-.1.38-.55.25-.62 0-.01-.34-.11-.26-.15l.8-.6c.1-.38-.66.21-.8.04.24-.8 1.92-1.01.35-.89.34-.71 1.5-.99 1.97-1.25.22-.3.3-.98.71-1.18.68 1.15.33.22 1 0 .13.15.05.75.19.88.66.11 1.44.31 1.6 1.07.04.21 1.21.76 1.37.93-.33 1.6-1.49-.29-2.47.69-.04.03-.1.25 0 .24.56 0 1.54-.03 1.4.74-.39.15-.86-.25-1.22-.09-.04.7 1.16 1.56 1.63 1.92.22.1.05 1.59.42.68.02-.12.12-.53.3-.51.73.24 1.37-.76 1.99-1.08.57-.34.08-2.23 1.2-1.72.07 0-.07.77-.02.79.16.01.26-.27.32-.39.52-.04.7.4.65.87.01.22-.95.39-.95.12.08-.42-.1-.44-.24-.04-.13.34-.46.64-.58.95.19-.03.48-.36.6-.49 0-.11 1.5-.17 1.58-.2-.08.74-.8.64-1.37.75-.38.41-.71.9-1.08 1.34-3.07 2.43-1 1.54 1.32 1.67.75.06.92-.65 1.25-1.14.75-.5 1.92-.15 1.17.85-.09.19.16.19.32.2.6 0 .75.43.59.93-.06.12-.77.16-.64.39.54-.3 1.18-.26 1.79-.19-.03 1.9.13 3.94.16 5.79l-1.88-.04c-.27-.83-.34-1.8-.48-2.69l-.01-.04ZM11.38 21.73c-.34.15-.82.29-.93.62.37-.05.68-.43.68.12.03.07-.72.55-.72.61.04.07.24.06.17.19 0 .01-.23.48-.22.49.13.04.38-.19.5-.02.1.45-.85.96-.4 1.37 1.55-1.4.51.13.43.81.23-.26.32-.83.78-.6.08.4-.62 1.09-.17 1.38.2-.15.66-.43.86-.21-.08.32-.79.87-.76 1.1.17 1.29.44-.07 1.1-.19.12.51.08 1.26.23 1.84-.08.94-1.3 1.39-1.6 2.27-.03.14-.15.79-.24.85-2.28 1.28-.39-3.23-.07-3.98.55-1.17-.44-2.47-1.73-2.04-1.27.67-1.16 2.36-1.01 3.64 1.56-.56.76-1.48.76-2.68-.05-.72.75-1 1.24-.64 1.84 1.31-1.46 3.86-.71 5.58.13.78 1.18.71 1.68.91 1.4.39.45 1.96-.24 2.59-.1.38.56.62.68.98.33.53.44 1.26.7 1.76.36.19.77.22 1.07.5.06.35.26 1.13.74.79-.11-.42-.05-.85.48-.63.05.08.18.42.2.51.33.08.98-.26 1.15-.56.26-.51-.6-.58-.85-.65-.14-.02.02-.37 0-.44.19-.12.47-.01.68.02a1.47 1.47 0 0 0-.96-.47c-.36 0-.68.31-1.05.27l-1.1-.68c-.16 0-.38.18-.5.09.23-1.34 2.09-1.5 2.66-2.42.27-.76.58-1.99.09-2.64.72.07 2.01.25 2.3 1.08 1.2 2.62-3.46 2.71 2.92 2.92 1.1.01.67-.52.7-1.27-.28-.01-.44.14-.45-.29-.01-.1.58-.28.52-.39-.18-.4-.5-.22-.82-.22a2.8 2.8 0 0 0-.48.75c-.4.73-1.76.6-1.42-.42 1-1.3 1.4-3.85-1.02-3.11-.17-2.26 3.07-1.37 4.5-1.93.41-.11.64.32.82.59.6.13.61-.3.9-.65-.01-.03.64-.17.6-.22.18-.77-.46-.68-.94-.74-.2-.27.55-.88.09-1.18-1.45-.39-1.12 1.46-2.47 1.35-5.62.4-1.75-.82-.36-3.12.37-.42 1.04 0 1.4-.55.03-.03 0-.08-.04-.08-.04.02-1.25.1-1.27.15-.35.3-.61.72-1.12.68.54-.78 1.25-1.43 1.1-2.49-.96-.15-.34 1.38-.98 1.76-.66.36-1.27 1.32-2.07 1.14-.22.11-.17.42-.2.61-.9.79-.2-.62-.73-.92-.47-.36-1.86-1.37-1.48-2.1.3-.04 1.77.42.9-.21-.72-.4-1.63.23-2.3-.31.02-.74.94.12 1.1-.07.08-.46.8-.54 1.2-.63.27.2.55.32.95.41.18-.09.54-.6.17-.64-.1.91-1.24-.2-1.65-.48-.31-.23-1.03.34-1.1-.32-.17-.41.87-.68 1.1-.63.16.53.72 1 1.18 1.13-.12-.08-.68-.4-.7-.51-.12-.89-1.11-.81-1.65-1.11-.01-.02-.06-.7-.08-.72-.28-.02-.22.63-.61.53-.1 0-.29-.53-.39-.49-.3.25-.37.61-.49.97-.33.28-1.68.67-1.89 1.09.4-.01.77-.31.62.24l.02-.04Zm4.09-.26c.28.17 1.3 1.2 1.38.58a3.26 3.26 0 0 1-1.63-1.34c-.02.03-.87.29-.83.35-.01.15.08.45.27.39.27-.08.58-.16.8.01v.01Zm-1.64 1.31s-.05.13-.04.14l.32.11c.12.02.27.1.36.04-.1-.13-.44-.22-.63-.29h-.01Zm7.6 1.38c.06-.6-.4-.96-.72-.32 0 .14.05.31.04.46.2.03.55.03.66-.14h.01Zm2.27 10.77 1.62.04c0-1.76-.16-3.27-.13-5.51-3.06-.68-1.86 3.74-1.5 5.47Zm-1.8.08s1.25.06 1.24-.03a26.36 26.36 0 0 1-.25-4.62c.02-.1-.4-.08-.44-.11-1.9-2.32-.96 3.97-.55 4.76Zm.62-4.89s.46.05.48.07c.12.09.01.37.07.47.04-.22.18-.59.14-.76-.13.2-.84.05-.69.22Zm-.4 5.5c4.05.35 7.5.15 11.78.17.08 0 0-.26.02-.29-3.95-.26-8.02-.13-12-.16-.12.12.02.29.18.29l.01-.01Zm2.13 1.3 1.18.06c.12.02.02-.71 0-.76-.03-.06-1.38-.12-1.44-.15-.14.13.08.76.26.84v.01Zm-11.73.07s-.06.08 0 .08c.03-.01.07-.17 0-.08ZM26.65 19.41c.64.34 1.29.89 1.23 1.68-.83.13-1.23-1.06-1.23-1.68Zm1.11 1.51c-.04-.54-.49-1.1-.94-1.22.02.44.48 1.45.94 1.22ZM22.2 19.67c.44.42-.56.34-.72.4a1.53 1.53 0 0 1-.67-.54c.3-.2 1.12-.03 1.4.14Zm-.05.14c-.07-.2-.9-.23-1.08-.21.1.36.82.41 1.08.21ZM28.35 21.16c.12-.94.55-1.36 1.34-1.64-.07.73-.54 1.72-1.34 1.64Zm1.13-1.4c-.55.2-.97.66-.95 1.25.62-.12.92-.69.95-1.25ZM34.04 20.09c-.06-.66 1.12-.51 1.55-.44-.13.63-.91.62-1.55.44Zm.13-.18c.24.27.96.23 1.25-.14-.22-.1-1.06-.07-1.25.14ZM31.96 21.47c-.6-.52-.43-1.21-.28-1.86.48.12.88 1.65.28 1.86Zm-.22-1.62c-.1.47-.2 1.14.26 1.43.33-.09-.05-1.59-.26-1.43ZM24.46 19.74c.65-.48.37 1.66-.26 1.74-.24-.51-.01-1.22.26-1.74Zm.1.07c-.22.42-.43.99-.28 1.43.47-.29.54-1.09.29-1.43ZM22.78 20.44c.75.7-1.3.69-1.47.08.4-.3 1.01-.23 1.47-.08Zm.03.28c-.13-.4-.94-.31-1.29-.16.31.34.92.41 1.29.16ZM33.3 20.7c.28-.39 1.72-.44 1.76.03-.32.35-1.6.61-1.75-.03Zm1.6 0c-.31-.27-1.17-.23-1.45.06.3.27 1.17.23 1.45-.06ZM27.77 22.74a1.61 1.61 0 0 1-1.2-1.93c.65.38 1.55 1.15 1.2 1.93Zm-1.13-1.7c-.04.66.4 1.43 1.08 1.53.06-.7-.52-1.28-1.08-1.53ZM24.78 22.73c-.3-.46.08-2.1.81-1.86 0 .69.1 1.71-.81 1.86Zm.63-1.77c-.5.25-.72 1.12-.54 1.6.6-.16.74-1.18.54-1.6ZM28.3 22.76c.1-.6.76-2.09 1.56-1.81-.2.97-.45 1.75-1.56 1.81Zm1.34-1.73c-.6.18-1.1 1.01-1.15 1.59.73-.08 1.28-.97 1.15-1.59ZM30.91 22.39c-.27-.35-.57-1.73.18-1.37.65.42.9 2.41-.18 1.37Zm.01-.21c.95 1.19.65-.86 0-1.09-.32.04-.08.88 0 1.09Z" fill="#060702"/><path d="M12.1 21.68c-.18-.13.07-.47.27-.48.21-.1.64.12.5.35l-.78.13h.01Zm.14-.22c-.07.1.4-.02.41 0 .18-.19-.36-.15-.4 0ZM43.22 21.56c-.19-.24.29-.46.5-.35.19 0 .45.38.23.47l-.73-.12Zm.18-.11.4.06c.09-.19-.42-.26-.4-.06ZM22.87 21.98c-.27-.2-1.02-.29-.93-.7.48-.06 1.92-.33 1.68.52-.03.05-.7.19-.75.18Zm-.77-.52.79.39c.37-.02.9-.14.54-.42-.37-.06-1.14-.24-1.33.04v-.01ZM32.62 21.8c-.12-.75 1.4-.6 1.8-.29-.46.4-1.26.71-1.8.29Zm.12-.09c.35.35 1.09.08 1.43-.17-.35-.18-1.33-.27-1.43.17ZM14.18 21.79c.1.33-.16.31-.41.31-.1 0-.46.51-.54.61-.1-.15 0-.67.06-.89.25-.12.65-.16.89-.03Zm-.54.19c1.05-.01-.51-.38-.25.24.04.05.2-.24.25-.24ZM42.07 22.08c-.22.07-.2-.17-.18-.31.75-.26 1.09.22.98.94-.2-.12-.46-.74-.8-.63Zm-.02-.16c.27.07.41-.02.6.29.25-.31-.43-.44-.6-.29ZM44.7 22.99c-.25.02.17.38.13.49-.35.12-.92-.72-1.06-1.02.04 0 .3-.02.32-.05.14-.06.02-.46.18-.42l.68.91c.07.11-.21.07-.25.09Zm-.1-.26c.19.17-.23-.38-.25-.38-.1.09-.07.29-.3.23-.15 0 .4.52.4.55.1 0-.1-.59.16-.39v-.01ZM11.17 22.97c-.19.02.66-1.06.67-.97.05.08.03.43.17.43 0 .02.35 0 .3.06-.09.14-1 1.4-1.07.94.13-.23.38-.48-.07-.46Zm.45-.22s-.03.33-.02.34h.04c0-.05.56-.5.36-.52-.19.03-.18-.11-.25-.23-.04-.04-.3.4-.34.42 0 .05.2-.14.21 0v-.01ZM22.4 22.46c.13-.56 1.5-.24 1.88.05.47.52-.58.59-.9.55l-.98-.6Zm.14-.07c.47.37 1.18.78 1.72.4-.1-.56-1.33-.55-1.72-.4ZM32.24 23.15c-1.24-.66 1.18-1.16 1.68-.7-.4.44-1.07.7-1.68.7Zm-.24-.38c.34.59 1.27.03 1.69-.26-.47-.28-1.27-.1-1.69.26ZM15.65 22.79c.6-.59 2.42 1.79 2.68.27.3-.22.4.42.43.59-.27.32-.76.51-1.18.49l-1.93-1.34v-.01Zm.4.11 1.56 1.11c.46.05 1.35-.33.85-.84-.33 1.45-1.95-.45-2.4-.27ZM37.4 23.76c-.19-.16.06-.95.36-.7.15 1.24 1.5-.14 2.12-.31 1.1-.18.24.2-.12.51-.74.55-1.53 1.27-2.36.49v.01Zm.08-.11c.28.21.62.39.98.36 0-.03 1.68-1.12 1.59-1.15-.34-.07-1.26.74-1.66.83-.31.07-.78-.03-.73-.47-.1-.17-.26.34-.19.43h.01ZM12.46 24.94c-.16 0-.57.5-.7.28.1-.6 2.16-2.1 1.29-.88-.15.46-.3 2.15-.97 1.82.05-.27.44-.94.38-1.22Zm.13-.25c.15.34-.17.94-.3 1.34.38-.31.6-1.33.58-1.83-.26.19-.7.49-.75.76.16-.04.32-.38.47-.27ZM23.79 24.37c-.07-.03.19-.4.23-.41 2.17-.53 1.3.84-.23.41Zm.22-.1c.29.05 1.34.15 1.1-.31-.31.09-1.04-.08-1.1.31Z" fill="#060702"/><path d="M28.83 25.85c1.57.16 3.1.13 4.64.2.05-.03.3.58.33.59-3.63.12-7.72-.03-11.36-.13-.74-.92 2.03-.57 2.53-.69.25-.05.55.08.8-.03-.43-.14-1 0-1.3-.14.09-.45.35-.92.84-1.06.12-.02 0-.11.04-.19.08-.07.26-.57.4-.53l1.1.04c.08.02-.23.49-.29.47 0 .04-1.47.02-1.08.21 1 0 1.06.08.73 1-.49.1-.03.44.08.16a9.3 9.3 0 0 1 .41-1.11 6.52 6.52 0 0 1 1.26.05c-.04.07.11 1.1-.08 1.06 0 .02-1.59.05-1.53.1.6 0 1.42.13 1.9-.15.02-.04-.15-1.07-.06-1.07.04.02 1.26.02 1.28.09l.39.97c-.18.11-.94-.05-1.04.17v-.01Zm-2.22-1.82c-.4.02-.93-.21-1.06.3.3-.07 1.1.11 1.06-.3Zm-1.76 1.22c-.77.53.81.31.97.4.1-.07.17-.15.27-.19.06-.19.27-.51.14-.68-.55-.05-1.27-.24-1.4.47h.02Zm2.99-.42c.04-.12-1.02-.07-1.04-.07-.02.05-.37.86-.27.89.06 0 1.26-.01 1.31-.06.04.02 0-.75 0-.76Zm1.47 0c-1.04-.07-1.1-.29-.94.86 0 .07 1.25-.12 1.28-.1 0-.12-.14-.63-.34-.76Zm-6.84 1.56c3.68.06 7.49.28 11.12.14l-.15-.31c-1.55-.19-3.36-.03-4.9-.26-1.97.11-4-.06-5.96.11.02.04-.25.3-.12.32h.01ZM29.69 24.48c-.13-.14-.36-.38-.3-.57.34.02.86-.17 1.11.08.06.18.22.35.21.52-.34-.03-.56.09-1.02-.02v-.01Zm.18-.1c.19 0 .53.07.65-.06-.02-.03-.12-.34-.18-.32-.02.03-.85-.04-.82.04.07.16.15.31.34.34ZM31.12 24.47c-.13-.18-.38-.38-.4-.57.7 0 1.3-.16 1.78.53-.13.21-1.08.09-1.37.04Zm.12-.07h1c-.12-.44-.92-.42-1.29-.36 0 .05.23.36.3.36Z" fill="#060702"/><path d="M26.9 24.46c-.1 0 .16-.46.15-.49.17-.13.73-.11.92-.03-.01.03.14.51.07.52h-1.16.01Zm.2-.1h.78c.19-.41-.4-.36-.64-.35-.14 0-.27.27-.15.35ZM29.08 24s.29.35.2.38c-.01.02-.98.08-1.01.09-.09.02-.04-.47-.06-.51-.03-.1.87.02.87.03V24Zm0 .25c-.08-.22-.56-.2-.75-.17-.02 0 0 .22 0 .23-.02.05.77-.01.74-.06ZM14.46 28.57c-.37.05-.66 1.14-1.22 1.06 0-.04.32-.65.29-.68-.13-.03-.04-.34-.03-.44.04-.24-.17-.47-.23-.68 0-.18.17-.56.35-.49.03.03.07.42.13.42.68-.57.49-1.76 1.24-2.26-.08-.19-.37-.28-.57-.36-.26.18.16 1.63-.43 1.42.04-.71.1-1.4-.16-2.04.73-.38 2.7 1.95 2.95 2.67-.02.08-.84-.21-.88-.19-.06 0-.06-.24-.08-.27-.4-.11-.6-.4-.8-.73-.6.9-.5 2.12.09 3.02.15.05.91.29.92.42.02.05.83-.21.8-.28 0-.03-.04-.23.03-.19 1.85.8-1.65.52-1.86 1.64-.52.26-.18-.65.04-.76-.16-.09-.37.44-.5.32l-.1-1.58.02-.02Zm-.2-3.64c.38.09 1.4.57.67.82-.05.13.33.03.35.26.15.41.33.44.7.57-.05.32.28.35.5.38a5.76 5.76 0 0 0-2.44-2.36c.02 0 .13.6.16.53.03-.07-.04-.22.07-.21v.01Zm.06 3.39c.37-.42.26.56.33.79.04.23-.03.56.06.73.25-.25.67-.31.91-.47-1.44-.39-1.25-2.4-.74-3.52-.1.03-.21.19-.22.28-.14.51-.45 1.82-1.04 1.81-.02-.01-.08-.37-.14-.29-.15.34.35.68.15 1.07-.01.05.1.07.13.09.07 0-.22.51-.21.53.02.11.46-.53.49-.55-.24-.16.02-.47-.28-.44-.11-.03.53-.66.52-.69.18.07.08.49.04.68v-.02Zm-.3-.15s-.01.27.03.32c.17-.12.25-.79-.02-.32Zm3.12 1.1c-.2-.07-.55.24-.74.23.11 0 .8-.06.74-.23Zm-1.46.48c-.43.02-.76.29-.82.72.23-.27.47-.56.83-.71v-.01ZM41.68 25.14c-.2.07-.55.16-.6.37.47.28.5.75.66 1.23.13.3.32.9.61 1.01.04-.06.05-.56.2-.4.43.33.1.7.01 1.08-.03.18.11.39 0 .54-.04.19.35.54.2.66-.45-.07-.84-.78-1.09-1.11-.3.36.05 1.45-.22 1.65-.07-.05-.33-.38-.42-.34.1.17.43.53.25.77-.06.08-.17.09-.22 0-.27-.49-.72-.71-1.25-.85-.72-.22-1.93-.29-.56-.78 0 .08-.1.2.02.25.03-.01.72.28.73.21.1-.2.77-.32.96-.44.51-.81.7-2.44 0-2.96-.08.54-.75.47-.77.93 0 .07-.85.21-.88.24.02-.58 2.32-3.16 2.92-2.66a3.55 3.55 0 0 0-.14 1.97c.02.07-.16.05-.19.06-.26.06-.1-1.38-.22-1.43Zm.16-.2c.02.47.14-.26.2-.32-.99.32-1.95 1.46-2.52 2.38.3-.08.6-.04.62-.44.28-.05.56-.2.67-.51.9-.98.87 2.62.26 3.04.02.03-.6.22-.61.23-.07.02 0 .08.05.1.33.06.62.33.91.42.04-.53-.02-1.17.16-1.65.03 0 .14.19.17.11-.09-1.16.12-.45.55-.04.05.08-.13.07-.13.13 0 .1.03.3-.1.33-.1.03.42.57.41.6.14-.08-.33-.51-.09-.56.12-.14-.03-.54.26-.87.08-.11.01-.34-.12-.27-.03.09-.02.39-.19.31-.8-.46-.58-1.96-1.43-2.33-.07-.33.64-.65.94-.66Zm.12 3.55c.06.09.05-.31.07-.32 0-.02-.16-.21-.17-.22-.09-.06.12.53.1.54Zm-3.04.86s.82.24.74.14c-.1-.04-.56-.13-.6-.26-.03-.05-.26.07-.14.12Zm1.46.42c.34.14.57.42.8.67-.04-.42-.4-.68-.81-.68v.01ZM24.26 25.61h-1.5c.23-.31.49-1 .93-1.05 1.15-.01 1.32.06.57 1.05ZM23 25.45c-.02.07 1.19.01 1.2.03 0-.02.43-.71.4-.74-.03 0-1.03-.07-1.05-.05l-.55.76ZM30.13 25.78c-.18.06-.32-.97-.38-1.04-.07-.17 1.33.07 1.37.03.06 0 .57.9.6.93-.49.05-1.13.04-1.6.09v-.01Zm0-.14s1.4-.01 1.36-.1c-.02-.01-.39-.65-.4-.66l-1.14-.08c-.11-.02.2.81.19.83l-.01.01ZM32.02 25.79c-.14.08-.5-1-.56-1.05.28-.19.9.04 1.27.01.96 1.17.54 1.09-.7 1.04Zm.03-.11c.93-.02 1.5.24.6-.81-1.08-.08-1.23-.24-.6.81ZM23.74 27.82c-.13-.3-.01-.97.24-1.19.53.13 1.54-.18 1.83.24-.2.41-.15 1.02-.4 1.35l-1.02-.03c-.21-.14-.4-.32-.66-.37Zm.1-.1c.25.06.42.23.6.35l.92.03c.06.02.25-1.18.27-1.2-.74-.19-2.13-.41-1.8.81l.02.01ZM32.17 26.84c.1-.05.33 1.08.37 1.11-.54.4-1.4.34-1.97.32.01-.04-.2-1.38-.15-1.41.03-.06 1.71 0 1.76-.02Zm-1.46 1.33c.55-.02 1.21-.03 1.68-.27-.05-.06-.2-1-.34-.95-.05.03-1.5-.06-1.52.03.02.04.08 1.2.18 1.19Z" fill="#060702"/><path d="M16.44 28.17s.23.63.22.66c-.43 0-.72-.45-.73-.89.45-.51 1.56-.35.51.22v.01Zm-.13-.15.33-.16c.1-.21-.62.09-.54.23.06.19.1.4.3.46.04-.09-.24-.47-.09-.53ZM39.6 28.12c-1-.45.04-.69.5-.19.09.38-.35.98-.68.88 0-.03.27-.68.19-.69Zm-.18-.27s.4.18.39.21c.02 0-.14.42-.14.44.12.14.42-.46.26-.54-.07-.06-.57-.3-.5-.11h-.01ZM22.2 28.76c.14-.38.67-1.71.7-.42.14.22.4.37.6.53-.01.27-1-.02-1.3-.11Zm.22-.09c1.38.31.17.02.32-.62 0-.02-.03-.02-.03 0s-.34.61-.29.62ZM32.48 28.88c-.29-.08.62-.3.67-.5.05-.16-.01-.64.25-.6.22.29.27.67.52.95-.41.22-.96.2-1.44.14v.01Zm.49-.12c.79.04.76-.11.39-.71-.03-.01-.05.35-.06.36 0 .16-.44.28-.34.35h.01ZM20.98 28.96c.07.21-1.16.2-1.24.25-.06 0-.11-.04-.12-.09 0-.09-.06-.27.07-.28.2.05 1.41-.39 1.28.13l.01-.01Zm-.17-.07c.05-.12-.97.09-1 .07-.02 0-.04.03-.04.06-.05.12.97-.09 1-.07.02 0 .04-.03.04-.06ZM36.44 29.14c.08.14-1.45-.03-1.34-.15.02-.07-.02-.3.1-.29l1.2.13c.12 0 .04.23.04.3v.01Zm-.15-.12s-.02-.06-.05-.06c-.04.02-1.02-.18-1-.06 0 .03.03.06.06.06.04-.02 1.02.18 1 .06ZM30.64 30.79c.04 1.34-.07 2.77-.23 4.11-.6.26-1.58.07-2.27.14.08-1.96-.12-3.92.14-5.76l2.2.06c.16.43.13.98.17 1.46v-.01Zm-.3-1.33-1.94-.05a32.67 32.67 0 0 0-.1 5.51l1.96-.05c.26-1.73.43-3.7.09-5.41h-.01ZM26.86 35.05c-.43-.11-.92.04-1.28-.1.05-1.89-.24-3.93.02-5.69.05.02 2.31-.02 2.34.04.08 1.84.06 3.78-.04 5.61-.11.36-.75.13-1.05.14h.01Zm-.09-.13c.7.13 1.22.14 1.07-.76-.12-1.28.23-3.41-.07-4.74-.02.01-2.1-.04-2.12-.02-.08 1.82.01 3.63.07 5.48.34.03.67 0 1.04.04h.01ZM32.84 35.14c.21-1.53.14-3.44.27-4.96.34.04.63-.17.76-.46.16-.18.64-.14.84-.04.35 1.77.14 3.83-.45 5.48l-1.42-.01v-.01Zm.13-.11h1.22c.43-1.64.84-3.67.34-5.3-.03.02-.5-.04-.5.01-.02.02-.38.55-.41.53l-.4.04c-.04 1.51-.08 3.24-.25 4.71v.01ZM14.55 30.9c.56.37 1.7.21 2.13.66-1.02.03-2 0-2.84.73 0-.2.48-2.07.72-1.4l-.01.01Zm1.32.55c.17-.09-1.51-.37-1.5-.4-.04 0-.38.94-.32.95.02 0 .89-.53.9-.54l.91-.02.01.01ZM41.05 31.6h-1.6c-.07-.4 1.48-.4 1.95-.61.18 0 .14-.43.36-.22-.02.04.6 1.53.5 1.54-.08 0-1.14-.71-1.22-.7l.01-.01Zm-.87-.15h.9c.05 0 .83.52.88.53.22.08-.26-.9-.23-.93-.45.1-1.22.22-1.55.4ZM17.11 31.97c-.19-.19.23-.28.35-.22.52.05 1.09 1.53.37 1.36-.16-.65-.1-.81-.7-1.14h-.02Zm.22-.05c.46.22.48.65.63 1.03.12-.36-.23-1.14-.63-1.03ZM37.97 33.13c-.17-.54.1-1.19.68-1.41.1-.05.5.08.3.26-.57.26-.6.54-.7 1.11 0 .06-.24.03-.28.04Zm.74-1.26c-.46.15-.75.67-.59 1.1 0-.45.36-.86.59-1.1ZM12.13 36.73c-1.75-1.01.55-1.48.32-2.7-.04-.29-.08-.66.04-.93l1.19-.65a9 9 0 0 1-.65 1.91c-.24.21-.69.64-.59.94.01 0 .42-.05.43-.03-.18.34-.66.5-.87.76.05.17.46.77.12.71l.01-.01Zm.5-3.57c-.2.32.02 1.01-.06 1.38.61-.27.67-1.22.9-1.82-.27.07-.56.31-.84.44Zm-.66 3.32c.16.06-.1-.48-.1-.56-.05-.04.55-.37.56-.39.07-.25-.37.14-.15-.38-.09-.18-.45.46-.64.54-.24.21.17.63.34.78v.01ZM43.69 35.26a2.26 2.26 0 0 0-.73-.99l-.6-1.78c0-.17 1.1.57 1.23.61.1.23.09.63.05.87-.37 1.23 2.22 1.85.17 2.79 0-.27.16-.52.26-.76-.25-.23-.63-.41-.85-.71-.03-.12.5.1.48-.02l-.01-.01Zm-.61-1.07c.04.05.36.41.44.34-.15-.4.13-.96-.05-1.36-1.57-1.03-.55.19-.39 1.02Zm.75 1.26c-.58-.05.26.36.38.47.03.04-.23.52-.2.56.2-.05.67-.59.42-.79-.3-.2-.7-.93-.6-.24ZM14.74 32.85c-.21 2-1.36 2.51-.33-.01 0-.07.3.02.33.01Zm-.7 1.57c.33-.24.49-.95.54-1.39-.23.22-.28.99-.54 1.39ZM41.95 34.57c-.42-.3-.56-1.19-.65-1.68-.03-.08.3-.06.32-.08.03.42.9 1.9.33 1.76Zm-.47-1.59c.03.46.18 1.1.52 1.42-.18-.42-.3-1.06-.52-1.42ZM17.78 35.31c.56.47-.43.32-.64.31.02-.82 1.32-2.02.64-.31Zm.02-.67c-.17.13-.8 1.08-.24.79-.06-.07.37-.78.24-.79ZM38.12 34.41c.35 0 .8.84.82 1.17 0 .06-.7.05-.74.07-.17-.09-.01-.31.1-.37-.05-.24-.34-.64-.19-.87h.01Zm.45 1.06c.46.06-.17-.67-.3-.84-.1.07.2.71.3.84Zm-.2.03.12-.05c-.02-.06-.2.07-.11.05ZM20.19 35.46c.25 0 .3.07.27.32.06.29-1.35-.2-1.44-.16.06-.2 1.63-.94 1.17-.16Zm-.4.14s.57.21.54.12c.08-.21-.43-.12-.51-.16.77-.58-1.13.04-.02.04ZM35.93 35.42c-.6-.67 1.1 0 1.15.2l-1.43.28c-.08.02-.02-.3-.04-.33-.02-.14.34-.05.31-.15h.01Zm.27.16c-.06 0-.49-.02-.46.11-.03.11.86-.17.88-.15-.03-.11-.47-.26-.56-.22.01.09.26.2.14.26ZM23.05 36.02c.38-.04.88.62.7.91l-1.37.08c-.05.03-.4-.85-.44-.87.32-.13.78-.09 1.1-.12h.01Zm-.9.2s.27.63.3.66c.03.03 1.15-.08 1.19-.07-.03-.78-.89-.7-1.5-.59ZM32.37 36.47c.02-.46 1.17-.32 1.52-.29-.05.04-.33 1-.43.95-.08-.04-1.38.18-1.33-.02 0-.03 0-.29-.04-.28-.03 0-.16-.04-.15.03-.16.72-1.1.2-1.64.28-.11-.21.08-.56.07-.84.22-.4 1.4-.18 1.88-.12-.04.14 0 .52.12.28v.01Zm-1.94.57c.5-.1 1.31.41 1.4-.28 0-.07.24-.03.27-.05.03-.01.02-.46-.04-.45-.7 0-1.91-.3-1.63.78Zm1.87.03s1.13 0 1.15-.09c-.02-.02.35-.74.24-.72-.05.03-1.15 0-1.16.1-.04.17-.07.37-.32.32 0 .04.02.39.1.38v.01ZM28.3 37.17c-.25-.15-.17-.78-.12-1.03.04.04 2.07-.08 2 .06l-.25.89c0 .08-1.58.06-1.62.08Zm-.01-.19c-.03.11 1.55.04 1.54-.02-.01-.05.25-.66.15-.68-.02-.02-1.62-.02-1.65-.02-.13-.03-.02.67-.04.72ZM25.96 37.06c-.1-.08-.23-.7-.15-.83.04.01 2.03-.13 2.05-.08.04.03 0 .85.02.89-.59.06-1.3.11-1.92.02Zm.02-.22c.4.34 1.22.04 1.76.09 0-.02.05-.68-.02-.67l-1.77.08c-.08.12.04.35.04.5ZM22.91 37.93s-.4-.63-.3-.63c3.47-.05 7.3-.1 10.63.19-.04.02-.25.52-.31.49-3.24.14-6.75 0-10.02-.06v.01Zm.58-.1c3.06-.24 6.85.7 9.57-.28-.62-.08-12.86-.53-9.57.28ZM43.03 37.98c.08-.06.3-.48.4-.34.09.85-.54.97-1.22 1.1-.3-.49.65-.37.82-.77v.01Zm-.45.52c.22-.03.7-.22.68-.51-.17.15-.54.44-.68.51ZM12.85 38.35a.65.65 0 0 1-.16-.75c.37.37.66.74 1.2.83.15.61-.76.12-1.04-.08Zm-.05-.37c.04.38.62.57.9.56-.36-.05-.64-.41-.9-.56ZM25.29 39.02c-1.13-1.21-.15-.87.77-.8.13.19.3.57.21.78-.04-.02-.94.08-.98.03v-.01Zm-.38-.74c.19.6.72.73 1.25.57-.04-.18-.07-.42-.2-.53-.03.02-1.07-.12-1.04-.04h-.01ZM23.49 38.89c-.93-1.04.2-.78.99-.63.03-.01.46.74.47.76 0 .1-1.37-.13-1.4-.1l-.06-.03Zm.1-.09s1.24.22 1.1.04c-.2-.63-.88-.6-1.43-.56-.04.05.3.53.35.53l-.01-.01ZM26.6 38.98s-.38-.81-.3-.83c0-.02 1.51.04 1.52.03.2-.03.02.74.06.82-.35.11-.9.03-1.28-.02Zm.1-.1c.58-.01 1.22.33 1.08-.54.02-.1-1.28-.04-1.3-.07-.08 0 .2.59.21.61ZM28.19 39.01c-.08.03-.03-.73-.05-.75.44-.08.88-.06 1.4 0 .05 1.08-.6.71-1.34.76l-.01-.01Zm.13-.12c.5-.04 1.09.27 1.08-.51-.31-.08-.9-.13-1.16.04.02.04-.02.5.07.48v-.01ZM31.18 38.27c-.19.84-.97.83-1.62.77.06-.07.22-.89.37-.85.04.03 1.25-.03 1.25.07v.01Zm-.13.09c.03-.06-1.1-.02-1.1-.04-.02 0-.23.6-.22.62.02.02.9-.06.93-.06l.4-.52ZM32.27 38.99c-1 .07-1.72.3-.67-.75.76.03 1.7-.26.67.75Zm-.63-.64c-.1.1-.44.44-.38.58l.95-.06c.13-.1.41-.39.33-.53-.04.01-.86-.02-.9 0v.01ZM14.68 38.77c-.1-.57.8-.22 1.04-.05.17.12-.13.86-.46.66-.12-.37-.18-.52-.58-.6v-.01Zm.19-.1c.39 0 .4.61.6.55 0-.04.2-.32.17-.36-.14-.14-.68-.33-.77-.19ZM40.81 39.39c-.34.13-.67-.48-.41-.69.25-.12 1.04-.5 1 .04-.34.16-.5.24-.59.65Zm-.15-.13c.15-.27.21-.47.56-.61-.4-.08-1.1.18-.56.61ZM26.87 39.54s-.2-.3-.1-.32c.4-.02 1.36-.22 1.11.42-.04-.02-1-.04-1-.1Zm.91-.13c.04-.12-.73-.09-.78-.12-.08 0-.09.15 0 .15.05-.03.84.16.78-.04v.01Z" fill="#060702"/><path d="M31.96 39.29c.01.46-.98.42-1.35.38.03-.75.87-.35 1.35-.38Zm-1.18.09s0 .19.02.18c.28-.02.76 0 .94-.12-.2-.15-.69-.09-.96-.07v.01ZM28.08 39.65s-.03-.35.04-.35l1.03-.08c.12 0-.17.43-.17.46-.02-.02-.91.06-.9-.03Zm.86-.26s-.72 0-.73.03c0 .01 0 .17.02.16l.7-.03c.03 0 0-.15 0-.16ZM25.91 39.63c-.17.02-.3-.2-.37-.34 0-.1.9-.03.92-.05.47.43-.4.34-.55.39Zm-.12-.21c.01.12.58.08.62.01.01-.04-.64-.07-.62-.01ZM24.14 39.62c-.07-.09-.27-.25-.22-.36.8.1 1.25-.21 1.5.25-.02.04-1.23.14-1.28.1v.01Zm.03-.15c.29 0 .77.01.97-.05-.01.04-1.16-.13-.97.05Z" fill="#060702"/><path d="M28.18 14.24c.18.28.24.87.04 1.21-.2-.34-.16-.82-.04-1.21ZM27.22 15.6c.25.23.75.58.66.94-.35-.1-.73-.63-.66-.94ZM28.58 16.51c.1-.3.45-.82.74-.86-.08.39-.33.88-.74.86ZM28.6 17.82c.09-.4.48-.97.84-1.04-.02.51-.37 1.02-.84 1.04ZM27.77 17.52c.07.88-.86-.22-.78-.66.27-.03.6.41.78.66ZM20.97 17.72c-.32.14-.71-.29-.76-.6.29.07.67.31.76.6ZM35.4 17.93a.85.85 0 0 1 .77-.58c-.04.35-.5.63-.77.58ZM21.84 17.48c.33.11.28.67.12.94-.2-.2-.16-.65-.12-.94ZM34.48 17.66c.18 0 .17.83-.07.92-.33-.11-.07-.73.07-.92ZM26.83 18.09c.5.22.97.79.94 1.3-.39-.17-1.13-.91-.94-1.3ZM22.82 18.19s.08-.04.1 0c.3 1.26-.64 1.44-.1 0ZM28.53 19.33c.04-.5.53-1.04.96-1.14-.11.53-.34 1.19-.96 1.14ZM33.67 19.28c-.38 0-.47-.98-.1-1.07l.1 1.07ZM20.67 18.58c.1 0 1.04.08.83.28-.3.06-.78.1-.83-.28ZM35.67 18.8c-.2.31-.62.42-.9.19.16-.19.78-.42.9-.19ZM32.61 18.85c.22.36.46 1 .3 1.48-.58-.33-.42-.94-.3-1.48ZM23.49 20.21c-.16-.38-.13-1.2.3-1.34.12.45.15 1.15-.3 1.34ZM42 19.37c.18.19.24.64.58.54.02 0 .3-.56.34-.5.35.28.36.63.52.99.54.34 1.36.57 1.86 1-.27.08-.75-.23-.63.29.24.13 1 .38.9.63-.05.03-.56-.24-.58-.15-.27.47.5.59.65.9-.05.05-.18.05-.18.14 0 .03.27.51.24.55-.12 0-.43-.21-.52-.03 0 .39.88 1.14.4 1.34-.05.03-.75-.71-.78-.56-.08.48.33 1.03.39 1.41-.2-.16-.26-.47-.42-.64-.16-.07-.4.09-.5-.09 0-.41-1.83-1.98-1.44-1.06.49.41.26 2.22 1.1 2.06.08-.35-.44-.91-.32-1.27.2.21.49.3.75.4.06.48.5.99.24 1.35-.26-.08-.48-.32-.77-.27-.36.18.37.65.55.97.16.19 0 .58-.1.78-.28-.15-.54-.73-.98-.78.04.7-.18 1.4-.18 2.13.42.61 1 1.13 1.47 1.72.35.57.1 1.22.76 1.34 2.03.32-.81-4.45-.46-5.2.13-.99 1.5-1.48 2.21-.8.9.94.78 2.18.7 3.42-.54-.21-1.1-.56-1.07-1.24.27-.43.38-1.59.1-2-.42-.43-1.36-.23-1.54.35-.47 1.94 2 3.58 1.06 5.44-.35.49-1.14.42-1.68.64-1.24.5-.28 1.97.36 2.55.03.53-.8.8-.9 1.43-.17.44-.25.95-.52 1.34-.35.14-.73.23-1.03.46-.09.35-.14.99-.67.88-.22-.33.31-.92-.56-.71l-.2.52c-.32.07-.7-.17-.96-.36-.66-.58.26-.77.71-.88.11-.54-.35-.51-.73-.39.2-.27.67-.49 1.06-.46.21.02.78.36.95.25.52-.25.96-.82 1.53-.57-.02-1.2-1.79-1.57-2.54-2.25-.24-.66-.7-2.28-.1-2.8-.94-.06-2.46.51-2.6 1.57.03.31.17 1.09.42 1.33.18.17.65.84.09.88-1.28.02-2.7.5-3.92.02-.06-.32.12-.75.03-1.09.26.03.51.08.47-.28-.2-.28-.83-.19-.3-.66l.58.05c.14.06.2.26.33.35.13 1.07 2.04 1.19 1.57-.06-1.04-1.45-1.39-3.67 1.04-3.1.15-2.22-3.18-1.4-4.6-1.89-.4-.04-.54.29-.7.58-.68.22-.61-.53-1.05-.69a.95.95 0 0 1-.47-.21c-.09-.83.46-.57.95-.72.21-.24-.42-.74-.18-1.07.1-.2.6-.11.79-.09.5.06.45.39.66.74.9 1.12 2.82.43 4.1.61.2-.58-.88-1.22-1.3-1.58-.4-.25-1.22-1.57-1.54-1.73-.46-.03-1.15-.05-1.16-.47.19.02 1.23.09 1.32.18.33.34.6.64 1.03.65-.35-.69-1.25-1.48-1.07-2.46.8-.39.52 1.39.88 1.63.52.41 1.06.8 1.6 1.19.2.15.39.1.6.04.2.14.16.41.2.61.86.79.26-.57.69-.89 1-.6 2.8-2.67.4-1.97-.07-.65 1.18-.49 1.6-.5 1.37.2 1.17-.92-.16-.21-.07-.49-.8-.57-1.22-.66-.21.14-.77.5-1.03.36-.14-.15-.41-.6-.05-.57 0 .16-.01.39.2.35.56-.1 1-.52 1.43-.84.46-.16 1.36.3 1.06-.64l-.99-.36c-.3.46-.55.92-1.11 1.15-.42.18.26-.23.47-.36.22-.74.93-1.11 1.68-1.15.16 0 .03-.88.2-.83l-.02-.02Zm1.22 2.19c.2-.01 1.1.35.74-.21-.17-.31-.95-.16-.74.21Zm-1.15.52c.34-.11.6.51.8.63.11-.72-.23-1.2-.98-.94-.03.15-.03.38.18.31Zm2.62.91s.32.03.25-.09l-.68-.91c-.17-.04-.02.42-.22.44-.01.02-.35 0-.3.07.2.25.85 1.27 1.07.93-.01-.08-.35-.44-.12-.44Zm-2.99 2.18c.08.16-.12 1.8.4 1.35-.1-.69-.17-1.33.14-1.95-.03-.03-.27-.19-.3-.16a7.49 7.49 0 0 0-2.67 2.78c0 .08.86-.21.89-.19.07-.02.03-.28.09-.3.43-.04.53-.5.78-.69.71 1.32.5 3-1.04 3.43-.01.06-.71-.22-.73-.21-.13-.06.03-.21-.04-.26-1.93.76 1.61.54 1.83 1.64.5.26.2-.63-.02-.74-.03-.06.08-.01.11.02.8 1.04.13-1.12.54-1.34.24.34.64 1.03 1.06 1.1.16-.12-.23-.47-.2-.66.13-.15-.02-.36.01-.54.08-.38.42-.74 0-1.08-.16-.16-.17.34-.2.4-.3-.11-.49-.71-.62-1.01-.17-.48-.19-.95-.67-1.23.05-.19.46-.37.63-.35l.01-.01Zm-2.08 3.01c-.64 1.34.6.36.48-.24-.56-.49-1.47-.31-.48.24Zm-7.15.71c.48.06 1.03.07 1.44-.14-.25-.28-.3-.67-.52-.95-.27-.03-.2.44-.25.6-.05.2-.95.41-.67.5v-.01Zm3.98.04c.07-.15-1.21-.18-1.26-.22-.12-.02-.1.22-.11.29-.07.15 1.21.18 1.26.22.12.02.1-.22.11-.29Zm2.99 2.68c.07.02 1.58-.03 1.65.01.03-.01 1.16.77 1.18.66-.03-.06-.48-1.54-.57-1.56-.55.47-1.53.49-2.28.72-.1.02-.08.17.02.16v.01Zm-1.48 1.53s.27.02.28-.04c.1-.57.14-.85.7-1.11.19-.18-.21-.32-.3-.26-.58.21-.85.87-.68 1.41Zm5.7 2.13c.05.1-.43-.03-.45-.01.08.31.62.51.84.75-.89 1.59.89.24.49-.37-1.02-.71-.94-1.43-.94-2.5a12.1 12.1 0 0 0-1.24-.68c-.08.01.6 1.79.58 1.82.3.28.6.57.73.99ZM42 34.59s.2-.04.2-.09c-.2-.54-.45-1.08-.55-1.66-.76-.33 0 1.73.36 1.75Zm-3.06.93c-.16-.79-1.33-1.81-.64-.26-.05.12-.23.15-.16.35 0 .08.9.07.8-.09Zm-3.04-.06c-.35 0-.32.13-.3.42.02.06 1.42-.27 1.46-.26-.12-.2-1.7-.9-1.16-.17v.01Zm7.45 2.15c-.33.36-.67.75-1.18.82-.03.09-.07.28.02.32.63-.08 1.49-.41 1.16-1.14Zm-3.05 1.35c.06.25.25.59.53.4.02-.44.27-.44.56-.61.12-.55-1.22-.17-1.08.22l-.01-.01ZM11.4 21.69s0-.3-.02-.29c-.02-.03-.6.09-.63.09.22-.42 1.55-.8 1.9-1.09.12-.36.19-.71.48-.97.1-.05.29.5.39.49.39.1.33-.55.6-.53.04.05.07.73.1.77.63.19 1.5.23 1.64 1.06.02.11.58.43.7.51a1.8 1.8 0 0 1-1.17-1.13c-.22-.09-1.31.26-1.1.63.07.66.78.09 1.09.32.41.27 1.55 1.39 1.65.48.37.03.01.56-.17.64-.4-.09-.68-.21-.95-.41-.38.09-1.12.18-1.2.63-.16.18-1.1-.67-1.1.07.68.54 1.58-.09 2.3.31.9.68-.7.1-.95.24-.2.79 1.03 1.7 1.53 2.07.52.3-.17 1.71.72.92.05-.19 0-.5.21-.61.8.18 1.4-.78 2.07-1.14.65-.38.02-1.91.99-1.76.13 1.06-.58 1.71-1.11 2.49.5.04.77-.38 1.12-.68.05-.04 1.24-.14 1.3-.14-.09.44-.7.41-1.08.44-.57.23-.54.65-1.35 1.47-.3.44-2.07 1.36-1.51 1.89 1.34-.29 3.58.65 4.18-.99.15-.48.81-.44 1.2-.41.46.3-.3.91-.1 1.18.48.06 1.12-.03.94.74.04.05-.6.2-.6.22-.29.35-.3.79-.9.65-.92-1.34-3.16.09-4.58-.06-.58.17-.82.8-.73 1.41 2.42-.75 2.03 1.82 1.02 3.11-.35 1.02 1.02 1.16 1.42.42.09-.2.29-.58.48-.75 0-.01.66-.06.65-.02l.18.24c.06.12-.54.28-.52.39 0 .43.17.28.45.29-.04.73.41 1.3-.7 1.27-6.4-.21-1.72-.3-2.92-2.92-.29-.83-1.58-1.01-2.3-1.08.5.65.18 1.88-.1 2.64-.56.92-2.43 1.08-2.66 2.42.13.09.36-.08.5-.09l1.1.68c.38.04.7-.27 1.06-.27.34 0 .78.23.96.47-.2-.03-.5-.15-.67-.02 0 .03-.15.45-.01.44.26.07 1.11.14.85.65-.17.31-.82.64-1.14.56-.06-.15-.13-.51-.28-.55-.53-.18-.46.36-.42.69-.57.25-.61-.52-.76-.86-.35-.25-.74-.27-1.08-.5-.27-.87-.6-1.89-1.35-2.51.27-.81 1.93-2.15.24-2.79-.5-.2-1.55-.14-1.68-.91-.75-1.71 2.56-4.27.7-5.58-.47-.36-1.27-.09-1.23.64.06.46-.01 1.08.27 1.46.02.64-.53 1.06-1.06 1.21-.09-1.29-.26-2.91 1.03-3.59 1.3-.43 2.27.87 1.72 2.04-.32.74-2.21 5.26.07 3.98.2-.33.18-1.09.56-1.36.4-.58 1.26-1.03 1.29-1.76-.15-.59-.11-1.33-.23-1.84-.66.11-.93 1.48-1.1.19-.03-.23.68-.78.76-1.1-.2-.22-.66.06-.86.21-.45-.29.25-.98.17-1.38-.47-.24-.54.38-.8.6.04-.41.58-1.05.33-1.41-.02 0-.76.67-.78.58-.32-.49.52-.88.44-1.35-.42-.22-.7.43-.28-.47.07-.12-.14-.12-.17-.19 0-.06.75-.54.72-.61 0 0-.05-.31-.06-.3-.02-.03-.6.18-.62.18.1-.36.64-.45.95-.66Zm.7-.01.78-.13c.13-.24-.29-.45-.5-.35-.2 0-.45.35-.27.48Zm2.04.07c-.28-.05-.6-.07-.85.07-.06.21-.16.74-.06.89.08-.09.45-.61.54-.61.26.04.59-.06.37-.34v-.01Zm-2.97 1.22c.46-.02.2.24.07.46.07.45.98-.8 1.07-.94.01-.08-.32-.02-.36-.08-.05-.04-.08-.36-.1-.41-.02-.09-.88.99-.68.97Zm1.3 1.97c.05.27-.33.95-.39 1.22.66.33.82-1.36.97-1.82 1.29-1.89-2.96 2.05-.59.6Zm1.99 3.63.09 1.58c.13.12.34-.41.5-.32-.21.12-.56 1.03-.04.76.2-1.13 3.7-.85 1.86-1.64-.07-.04-.03.17-.04.19.05.08-.78.32-.79.28 0-.13-.77-.36-.92-.42a2.82 2.82 0 0 1-.08-3.02c.2.33.4.62.8.73 0 .04.01.27.07.27 1.87.67.14-.73-.26-1.34-.4-.58-1.03-.86-1.52-1.25-.03-.05-.26.12-.3.12.25.64.25 1.28.14 2.02.84.36-.27-2.23 1-1.08-.47.16-1.14 3.3-1.36 1.89-.66.16-.11.8-.12 1.17 0 .06-.1.4 0 .41.12 0-.26.65-.25.69.49.17.93-1.09 1.22-1.05v.01Zm2-.45c1.06-.46-.16-.69-.53-.17 0 .42.35.94.73.87 0-.03-.28-.7-.2-.7Zm5.72.65c.31.09 1.3.38 1.32.11-.21-.16-.47-.31-.61-.53-.03-1.29-.56.04-.7.42Zm-1.23.03c.02-.22-1.17.08-1.26.04-.15.02-.11.39.04.38.18-.1 1.46.05 1.22-.42Zm-6.41 2.11c-.24-.67-.71 1.19-.72 1.4.87-.82 1.91-.6 2.85-.78-.6-.36-1.53-.27-2.14-.62Zm2.56 1.07c.6.33.56.46.7 1.11.73.29.18-1.3-.35-1.33-.12-.06-.54.03-.35.22Zm-5.6 3.68c-.4.55 1.35 1.97.5.32.3-.18 1.38-.88.43-.67-.1-.31.36-.73.59-.94.28-.58.5-1.3.66-1.91-.05.02-1.2.64-1.24.69 0 1 0 1.91-.95 2.52v-.01Zm3.23-2.79s-.33-.08-.33-.01c-1.02 2.53.12 2.01.33.01Zm3.02 2.42c.77-1.72-.7-.37-.6.35.27 0 1.17.18.6-.35Zm2.43.2c.46-.78-1.11-.04-1.17.16.09-.04 1.5.44 1.45.16.03-.25-.03-.31-.28-.32Zm-7.34 2.89c.27.2 1.19.69 1.05.08-.55-.1-.84-.47-1.2-.83a.65.65 0 0 0 .15.75Zm1.83.42c.4.09.46.24.58.6.33.2.63-.54.46-.66-.23-.17-1.13-.51-1.04.05v.01ZM21.07 19.6c.15 0 1.13-.01 1.07.25-.35.1-.95.14-1.07-.25ZM27.76 20.92c-.46.23-.9-.78-.94-1.22.45.12.9.68.94 1.22ZM34.17 19.91c.2-.21 1.04-.24 1.25-.14-.3.38-1.01.41-1.25.14ZM28.52 21c.04-.59.43-1.1.98-1.22-.1.58-.35 1.17-.98 1.22ZM24.57 19.81c.25.35.18 1.14-.3 1.43-.14-.45.07-1.01.3-1.43ZM31.73 19.85c.21-.16.6 1.34.26 1.43-.46-.29-.36-.96-.26-1.43ZM22.81 20.72c-.37.25-.99.18-1.29-.16.35-.15 1.16-.24 1.29.16ZM34.18 20.92c.94-.03.92-.43-.02-.39-.94.03-.92.43.02.39ZM24.83 22.51c-.1-.46.1-1.52.63-1.52.06.49 0 1.59-.63 1.52ZM27.68 22.58c-.64-.16-1.15-.95-1-1.55.52.34 1.21.92 1 1.55ZM28.47 22.59c.15-.58.6-1.53 1.22-1.54-.06.69-.47 1.55-1.22 1.54ZM31.37 22.59c-.49-.15-.85-1.25-.46-1.5.37.24.93 1.12.46 1.5ZM22.88 21.85l-.79-.39c.26-.44 2.58.16.79.39ZM32.99 21.85c-.82-.43.85-.59 1.17-.33-.18.21-.9.45-1.17.33ZM22.54 22.39c.39-.15 1.62-.16 1.72.4-.54.38-1.25-.03-1.72-.4ZM32.35 23.02c-1.09-.35.94-.85 1.32-.53-.27.3-.9.54-1.32.53Z" fill="#CF991F"/><path d="M16.05 22.9c.45-.18 2.08 1.71 2.4.27.5.52-.39.89-.84.84l-1.56-1.11ZM37.48 23.64c-.07-.09.08-.6.2-.43-.06.44.41.54.72.47.38-.07 1.4-.97 1.66-.8-.74.42-1.7 1.68-2.58.76ZM21 23.47c.7.17.51 1.02-.2.85-.1-.09 0-.3-.09-.42.08-.13.2-.31.3-.43ZM34.67 24.22c-.1-.33.03-.76.42-.74.22.28.29.46.22.82-.17.09-.45-.03-.64-.08ZM24 24.26c.06-.37.84-.26 1.16-.29.04.48-.82.32-1.15.29ZM25.78 24c.3-.01 1.28.02.6.27-.36-.04-1.2.31-.6-.27ZM29.87 24.38c-.17-.02-.36-.23-.33-.37.02.01.86-.05.84.01.35.5-.17.36-.52.35v.01ZM27.1 24.36c-.22-.39.38-.36.62-.35.14-.01.27.26.16.34l-.79.01ZM31.18 24.37s-.27-.31-.24-.33c.37-.06 1.17-.08 1.3.36-.04-.02-1.07.04-1.06-.02v-.01ZM28.36 24.07c.16 0 .77-.03.7.21-.3-.02-.86.25-.7-.21ZM23 25.45l.55-.76c.03 0 1.03.03 1.05.06 0 .03-.38.72-.4.73-.02-.02-1.23.04-1.2-.03ZM24.87 25.21c.1-.68.86-.47 1.37-.43.13.17-.09.49-.14.68-.2.3-1.1.12-1.41.11-.16-.1.15-.26.19-.36h-.01ZM27.84 24.83s.04.76 0 .76c-.05.04-1.25.06-1.3.06-.1-.03.24-.85.26-.89.03 0 1.08-.04 1.04.07ZM29.3 24.82c.2.13.35.64.35.76-.03-.02-1.28.17-1.28.1-.16-1.16-.1-.93.94-.86ZM32.05 25.68c-.63-1.06-.48-.89.6-.81.9 1.03.32.8-.6.81ZM30.12 25.64s-.3-.85-.2-.83c.03 0 1.12.06 1.14.08.02 0 .4.65.41.66.04.1-1.33.12-1.36.1v-.01ZM22.47 26.38c-.12-.02.13-.33.16-.35 2.47-.06 4.78-.11 7.25.02 10.33.56-4.94.56-7.4.33ZM23.85 27.71c-.34-1.22 1.04-1 1.8-.81-.03.02-.23 1.21-.28 1.2l-.91-.03c-.2-.12-.36-.3-.6-.35l-.01-.01ZM26.05 26.86s1.78.06 1.79.08c.03.02.03 1.19.04 1.22.01.07-1.9 0-1.92.03-.2-.29 0-.98.08-1.33h.01ZM30 26.96s.25 1.13.2 1.17c-.04.05-1.83.09-1.88.1-.02 0-.03-.02-.03-.04.02-.04 0-1.28.06-1.31.06.02 1.62 0 1.64.08ZM30.71 28.17c-.1 0-.16-1.15-.19-1.19.01-.09 1.48 0 1.53-.03.14-.05.3.89.34.95-.47.24-1.13.25-1.68.27ZM41.97 28.49s-.19-.59-.1-.54l.16.21c0 .03 0 .39-.06.33ZM24.48 28.87c-.11-.8 2.22-.18 2.85-.32.89.22 4.17-.42 4.18.48-2.27.1-4.77.07-7.03-.15v-.01ZM26.77 34.92c-.36-.08-.77.04-1.06-.08-.02-1.84-.15-3.63-.06-5.44 0-.03 2.11.03 2.12.02.3 1.33-.06 3.47.07 4.74.15.9-.38.9-1.07.76ZM25.33 34.97l-1.62-.04c-.4-1.55-.71-3.28-.33-4.88.24-.76 1.15-.63 1.79-.61.04 2.2.14 3.79.16 5.54v-.01ZM32.37 34.94c-.04-.06-1.72.14-1.66-.04.16-1.8.07-3.72.22-5.47l.9-.03c1.88.42.81 4.16.54 5.54ZM30.33 29.46c.34 1.71.19 3.68-.1 5.41l-1.94.05c-.08-1.74-.13-3.83.09-5.51l1.94.05ZM21.9 35.01c-.4-.74-1.32-7.06.51-4.78 0 .02.41.07.43.07.1 1.51.04 3.19.28 4.7h-1.23l.01.01Z" fill="#CF991F"/><path d="M34.2 35.03s-1.34.08-1.27-.06c.3-1.53.25-3.1.28-4.64.05-.04.44-.03.47-.08 1.8-2.44.9 4.07.52 4.79v-.01ZM22.12 35.62c-.17 0-.3-.17-.19-.29 4 .03 8.06-.09 12 .16-.02.03.07.3-.01.29-4.27-.02-7.73.18-11.79-.16ZM24.26 36.92c-.2-.09-.32-.62-.3-.81.02-.08 1.4.12 1.45.1.11-.02.06.67.09.72.04.15-1.2-.04-1.24 0v-.01ZM22.14 36.22c.6-.11 1.47-.19 1.5.59-.04 0-1.16.1-1.2.07a2.76 2.76 0 0 1-.3-.66ZM30.43 37.04c-.28-1.08.93-.78 1.63-.78.07-.01.07.44.04.45-.03.01-.29-.02-.28.05-.09.69-.89.19-1.4.28ZM28.29 36.97c.03-.05-.09-.74.04-.72.03 0 1.62 0 1.65.02.1.02-.16.63-.15.68 0 .07-1.57.13-1.54.02ZM26.22 36.98c-.3.05-.33-.46-.28-.64.04.03 1.8-.14 1.81-.04.2 1.06-.68.54-1.52.68ZM32.25 37.03s-.08-.34-.05-.35c.25.05.28-.15.32-.32.01-.09 1.12-.07 1.16-.1.09.02-.25.7-.26.74-.06 0-1.16.12-1.18.03h.01ZM23.49 37.83c-3.3-.8 8.91-.35 9.56-.28-2.72.98-6.5.03-9.56.28ZM23.55 38.76s-.36-.47-.3-.49c.57-.03 1.25-.07 1.45.56.03.05.02.07-.04.07-.02-.02-1.14-.08-1.11-.14ZM25.4 38.91c-.12 0-.43-.51-.5-.63-.02-.08 1.02.06 1.04.04.5.6 0 .59-.54.59ZM26.7 38.88s-.3-.61-.23-.61c.03.03 1.34-.03 1.31.07.14.87-.5.52-1.09.54ZM28.27 38.85c-.22-.79.6-.48 1.1-.5.06.14-.03.44-.13.56-.03-.03-1 .04-.96-.06h-.01ZM31.05 38.36s-.38.52-.4.52c-.02-.01-.92.09-.93.05l.2-.61c.03.01 1.14-.03 1.12.04h.01ZM31.24 38.9c.1-.16.26-.47.44-.55h.87c.1.14-.2.43-.33.53-.02-.03-1.03.13-.98.02ZM27.72 39.34l-.72-.05c-.36.23.66.17.71.21.08 0 .09-.15.01-.15v-.01ZM29.4 39.33c.2-.02.79-.1.83.11-.14.14-.57.1-.8.12-.03.01-.01-.23-.02-.24v.01ZM28.93 39.37l-.7.03v.16c0 .04.7-.03.7-.02.03 0 .02-.18 0-.17ZM30.8 39.38c.26-.02.74-.08.95.07-.18.12-.66.1-.94.12-.03 0 0-.17-.02-.18v-.01ZM26.4 39.46c-.09 0-.66.11-.59-.06.01.01.71-.04.6.06Z" fill="#CF991F"/></svg>