<!-- by TradingView --><svg width="56" height="56" viewBox="0 0 56 56" fill="none" xmlns="http://www.w3.org/2000/svg">
<rect width="56" height="56" fill="#F0F3FA"/>
<path fill-rule="evenodd" clip-rule="evenodd" d="M20.5672 29.5466C20.4394 29.7551 20.189 30 19.7968 30H17.7689C17.5475 29.9659 17.1309 29.7494 17.2352 29.156C17.3396 28.5627 17.6805 27.406 17.8379 26.9019C17.9218 26.6012 18.319 26 19.2368 26H20.8356C20.9743 26.0157 21.1981 26.0968 21.3215 26.2957L21.7908 24.3429L21.6742 24H23.9903L23.7426 24.3429L22.4171 29.4343V30H20.5672V29.5466ZM21.175 26.9052L20.6231 29.2019C20.4696 29.3211 20.3073 29.3662 20.2287 29.3734H19.4219C19.0548 29.3734 19.0518 29.157 19.0962 29.0488C19.2442 28.5167 19.561 27.3871 19.6439 27.1253C19.7268 26.8636 19.9449 26.7822 20.0436 26.7742H20.9096C21.0425 26.7742 21.1254 26.8286 21.175 26.9052Z" fill="#026E77"/>
<path d="M18.7392 26.1964C18.8151 26.132 18.8884 26.0699 18.9503 26.018C18.2354 26.137 17.9133 26.6877 17.8388 26.9793C17.6814 27.5296 17.3396 28.4135 17.2352 29.0611C17.1309 29.7087 17.5475 29.945 17.7689 29.9822H19.7968C20.189 29.9822 20.4394 29.715 20.5672 29.4874V30H22.4171V29.4343L23.7426 24.3429L23.9903 24H23.7343L23.5524 24.3178L22.2671 29.2173V29.7397H20.6828V29.2743L20.9495 29.0221C21.0824 28.4573 21.3139 27.6565 21.3882 27.2137C21.4625 26.771 21.0515 26.6052 20.8367 26.5776H20.1342C19.7162 26.5776 19.5382 26.7648 19.5014 26.8584C19.3002 27.6055 18.9503 28.7009 18.9503 28.8649C18.9503 28.9764 19.0147 29.0163 19.0779 29.0254C19.0805 28.9955 19.0874 28.9674 19.0962 28.944C19.2442 28.3633 19.5083 27.5699 19.5912 27.2842C19.6741 26.9985 19.8922 26.9096 19.9909 26.9009H20.8569C21.044 26.9009 21.0557 27.0061 21.0912 27.1438L20.6507 29.0867C20.5937 29.1393 20.5345 29.1801 20.4783 29.2113C20.3369 29.5564 19.9823 29.7064 19.7983 29.7397H17.8822C17.5027 29.7397 17.414 29.3237 17.4171 29.1157C17.5039 28.7143 17.71 28.1894 17.8365 27.7865C17.8677 27.6872 17.8974 27.5854 17.9269 27.4844C18.047 27.073 18.1633 26.6749 18.3574 26.5167C18.4605 26.4327 18.6041 26.311 18.7392 26.1964Z" fill="#003940"/>
<path d="M21.3882 26.018L21.7908 24.3429L21.6742 24H21.9043L21.976 24.3942L21.7012 25.5358C21.6365 25.7895 21.4991 26.2855 21.4668 26.2398C21.4486 26.2141 21.4176 26.1189 21.3882 26.018Z" fill="#003940"/>
<path d="M23.7277 24H21.8524C21.8771 24.0812 21.9264 24.1871 21.9953 24.1871H23.6069L23.7277 24Z" fill="#4D8693"/>
<path d="M18.9701 26.0199C19.0538 26.0071 19.1428 26.0001 19.2373 26.0001H20.836C20.9723 26.0169 21.1905 26.1027 21.3152 26.3114C21.3067 26.3581 21.2941 26.4006 21.2799 26.4339C21.2496 26.5052 21.2261 26.4708 21.1808 26.4048C21.1582 26.3718 21.1302 26.3309 21.0932 26.2914C21.0044 26.1964 20.8847 26.1624 20.8359 26.1572H19.8824C19.816 26.1572 19.7185 26.1615 19.611 26.1662C19.359 26.1772 19.052 26.1906 18.9614 26.1572C18.9026 26.1356 18.9245 26.0783 18.9701 26.0199Z" fill="#4D8693"/>
<path d="M19.0891 29.1289C19.0265 29.1718 18.9828 29.2314 18.9965 29.2529C19.0025 29.2624 19.0093 29.2791 19.0174 29.2989C19.0393 29.3528 19.0705 29.4293 19.1197 29.4422C19.187 29.4598 19.7771 29.5038 19.919 29.473C19.9501 29.4663 19.9887 29.4627 20.03 29.4589C20.1737 29.4455 20.3506 29.4291 20.3594 29.2659C20.3064 29.2852 20.2609 29.2951 20.2291 29.2983H19.4223C19.2092 29.2983 19.1188 29.2187 19.0891 29.1289Z" fill="#4D8693"/>
<path d="M4.28259 29.5443L4 30H5.17595V29.5443L6.36101 25.1284L7.36376 30H10.0256L11.4477 24.6293L11.8123 24H10.609V24.575L9.38748 28.8391L8.47589 24H5.64997V24.575L4.28259 29.5443Z" fill="#026E77"/>
<path fill-rule="evenodd" clip-rule="evenodd" d="M10.7804 24H10.609V24.575L9.38748 28.8391L9.35448 28.6639V28.9608H9.5952L10.8718 24.4459L10.7804 24ZM11.6033 24H11.8123L11.4477 24.6293L10.0256 30H7.36376L6.36101 25.1284L5.17595 29.5443V30H4L4.28259 29.5443L5.64997 24.575V24.0521C5.74258 24.2077 5.83113 24.3918 5.83113 24.5155C5.83113 24.71 4.95089 27.9364 4.51077 29.5253L4.32111 29.7597H5.02141L4.97764 29.4732L6.1594 24.8021C6.19587 24.7326 6.2907 24.5937 6.37824 24.5937C6.46578 24.5937 6.58979 25.0799 6.64085 25.323L7.54541 29.7597H9.89433L11.3095 24.3159L11.6033 24Z" fill="#003940"/>
<path fill-rule="evenodd" clip-rule="evenodd" d="M12.0075 26.8902L12.3494 26H16.155C16.5595 26.0119 17.2669 26.3323 16.861 27.5193L16.2874 29.276V30H14.4122V29.5608C14.3092 29.7072 14.0393 30 13.7834 30H11.5552C11.4118 29.9921 11.125 29.8362 11.125 29.276C11.125 28.5757 11.6986 27.4006 12.4156 27.4006H14.6659C14.8049 27.3634 15.0829 27.238 15.0829 27.0342C15.0829 26.7933 14.9572 26.7938 14.7513 26.7945C14.7395 26.7946 14.7275 26.7946 14.7152 26.7946H12.1885L12.0075 26.8902ZM13.3433 29.2359H14.1935C14.2643 29.2303 14.434 29.1377 14.546 28.8119C14.6859 28.4047 14.7844 28.098 14.4889 28.098H13.7684C13.6526 28.0942 13.3817 28.1961 13.2241 28.6334C13.0271 29.1801 13.25 29.2359 13.3433 29.2359Z" fill="#026E77"/>
<path fill-rule="evenodd" clip-rule="evenodd" d="M12.4065 26C12.4286 26.1448 12.4622 26.3581 12.4818 26.4815H14.8787C15.0202 26.4784 15.303 26.5719 15.303 26.971C15.303 27.4444 14.9644 27.5152 14.5972 27.4006H14.6659C14.8049 27.3634 15.0829 27.238 15.0829 27.0342C15.0829 26.7933 14.9572 26.7938 14.7513 26.7945L14.7152 26.7946H12.1885L12.0075 26.8902L12.3494 26H12.4065ZM16.891 26.4466C16.9219 26.6722 16.8418 26.9958 16.7926 27.1432L16.1113 29.2147V29.7201H14.63V29.3526C14.63 29.2603 14.6871 29.1513 14.7553 29.0213C14.8561 28.8291 14.981 28.591 14.981 28.2928C14.981 27.8929 14.7917 27.8522 14.6971 27.8818H13.6545C13.2829 27.8818 13.0351 28.5316 12.9784 28.7927C12.9416 28.9617 13.0624 29.0669 13.1646 29.1166C13.1318 29.0303 13.1342 28.883 13.2241 28.6334C13.3817 28.1961 13.6526 28.0942 13.7684 28.098H14.4889C14.7844 28.098 14.6859 28.4047 14.546 28.8119C14.477 29.0125 14.3862 29.1247 14.31 29.1826C14.2375 29.4231 13.9993 29.6327 13.8661 29.7201H11.7448C11.5332 29.7201 11.359 29.6462 11.359 29.3526C11.359 29.0613 11.4973 28.6825 11.6771 28.1901L11.6815 28.178C11.7846 27.8956 12.0076 27.6233 12.1908 27.439C11.5824 27.6467 11.125 28.6506 11.125 29.276C11.125 29.8362 11.4118 29.9921 11.5552 30H13.7834C14.0393 30 14.3092 29.7072 14.4122 29.5608V30H16.2874V29.276L16.861 27.5193C17.0301 27.0247 17.006 26.6806 16.891 26.4466Z" fill="#003940"/>
<path fill-rule="evenodd" clip-rule="evenodd" d="M12.4013 26L12.4684 26.21H16.0075C16.1835 26.2002 16.6031 26.2507 16.8737 26.5303C16.8796 26.5065 16.8841 26.4734 16.8847 26.4341C16.7214 26.116 16.3879 26.0068 16.155 26H12.4013ZM12.209 27.433C12.358 27.5233 12.7867 27.5282 12.9421 27.5282H14.6609L14.6249 27.4006H12.4156C12.3452 27.4006 12.2762 27.4119 12.209 27.433ZM13.1596 29.1019C13.1292 29.0915 13.0984 29.0802 13.0741 29.0697C13.0025 29.0388 12.9381 29.2856 13.0741 29.3666H14.0978C14.1484 29.3716 14.25 29.3469 14.2648 29.212C14.2363 29.2273 14.2117 29.2344 14.1936 29.2359H13.3434C13.2904 29.2359 13.1955 29.2178 13.1596 29.1019Z" fill="#4D8693"/>
<path fill-rule="evenodd" clip-rule="evenodd" d="M28.5588 29.0718C28.5341 29.1425 28.2394 29.7201 28.0951 30H23.818C23.5776 29.9632 23.1316 29.726 23.2718 29.0718C23.412 28.4177 23.8043 27.2081 23.9829 26.6851C24.0722 26.4567 24.457 26 25.2815 26H28.4455C28.7066 26 29.2287 26.1901 29.2287 26.9503L28.765 28.4972H25.601C25.522 28.4751 25.3475 28.495 25.2815 28.7514C25.1991 29.0718 25.1269 29.3591 25.5288 29.3591H28.0229L28.5588 29.0718ZM25.5803 27.8231H27.0747L27.2912 27.0607C27.3186 26.9797 27.3138 26.8176 27.0747 26.8176H26.0647C25.996 26.8029 25.8421 26.8309 25.7762 27.0607C25.7676 27.0904 25.7583 27.1225 25.7485 27.1563C25.6827 27.3837 25.5953 27.6852 25.5803 27.8231Z" fill="#026E77"/>
<path fill-rule="evenodd" clip-rule="evenodd" d="M25.0623 26.0114C24.3878 26.0832 24.0639 26.478 23.9829 26.6851C23.8043 27.2081 23.412 28.4177 23.2718 29.0718C23.1316 29.726 23.5776 29.9632 23.818 30H28.0951C28.2394 29.7201 28.5341 29.1425 28.5588 29.0718L28.4425 29.1342L28.0809 29.7058H23.9206C23.4803 29.7058 23.4896 29.3307 23.5494 29.1431C23.7371 28.4363 24.1446 26.9527 24.2726 26.6727C24.3902 26.4157 24.8151 26.1428 25.0623 26.0114ZM25.2172 29.1019H25.1687C25.1196 29.0768 25.0317 28.988 25.0727 28.8343C25.0824 28.7978 25.0873 28.7513 25.0927 28.7001L25.0927 28.7001C25.1156 28.4816 25.1478 28.1755 25.6039 28.1755H28.6505L29.073 26.9335C29.0894 26.8227 29.1108 26.5928 29.0966 26.3877C29.1764 26.5261 29.2287 26.7096 29.2287 26.9503L28.765 28.4972H25.601C25.522 28.4751 25.3475 28.495 25.2815 28.7514C25.2487 28.8788 25.2176 29.001 25.2172 29.1019ZM27.0857 27.7844L27.2912 27.0607C27.3186 26.9797 27.3138 26.8176 27.0747 26.8176H26.0647C25.996 26.8029 25.8421 26.8309 25.7762 27.0607L25.7485 27.1563C25.6916 27.3528 25.6186 27.6047 25.5902 27.7585C25.5303 27.7078 25.4636 27.5981 25.5023 27.4165C25.5501 27.1925 25.6267 26.9098 25.659 26.7965C25.7063 26.7032 25.8545 26.5165 26.0695 26.5165H27.2111C27.3119 26.5205 27.5133 26.6253 27.5133 27.0125C27.5133 27.3997 27.4113 27.6885 27.3604 27.7844H27.0857Z" fill="#003940"/>
<path fill-rule="evenodd" clip-rule="evenodd" d="M25.0534 26.0124C25.0272 26.0567 25.015 26.108 25.0622 26.137C25.1533 26.1928 25.2444 26.2114 25.6304 26.2114H28.1503H28.4756C28.6433 26.2517 28.9996 26.3648 29.0828 26.495C29.112 26.5406 29.1204 26.5035 29.1167 26.4237C28.9484 26.0958 28.6313 26 28.4459 26H25.282C25.2016 26 25.1255 26.0043 25.0534 26.0124ZM25.2184 29.1295C25.1498 29.1792 25.084 29.2533 25.1077 29.3332C25.1499 29.4759 25.3432 29.5212 25.5727 29.5212H28.0185L28.1231 29.3057L28.0234 29.3591H25.5293C25.302 29.3591 25.2263 29.2672 25.2184 29.1295ZM25.5854 27.7888C25.5382 27.864 25.5021 27.9379 25.5364 27.9412C25.5896 27.9464 26.6094 27.9434 27.1126 27.9412L27.0611 27.8231H25.5807C25.5819 27.8126 25.5834 27.8011 25.5854 27.7888Z" fill="#4D8693"/>
<path fill-rule="evenodd" clip-rule="evenodd" d="M34.5422 29.0716C34.5175 29.1423 34.2228 29.7198 34.0785 29.9997H29.8014C29.561 29.9629 29.115 29.7257 29.2552 29.0716C29.3954 28.4175 29.7877 27.208 29.9663 26.685C30.0556 26.4567 30.4404 26 31.2649 26H34.4289C34.69 26 35.2121 26.19 35.2121 26.9502L34.7484 28.4971H31.5844C31.5054 28.475 31.3309 28.4948 31.2649 28.7512C31.1824 29.0716 31.1103 29.3589 31.5122 29.3589H34.0063L34.5422 29.0716ZM31.5637 27.8232H33.0581L33.2745 27.0608C33.302 26.9798 33.2972 26.8177 33.0581 26.8177H32.0481C31.9794 26.803 31.8255 26.831 31.7595 27.0608C31.751 27.0905 31.7417 27.1226 31.7319 27.1564C31.666 27.3837 31.5786 27.6853 31.5637 27.8232Z" fill="#026E77"/>
<path fill-rule="evenodd" clip-rule="evenodd" d="M31.0455 26.0114C30.3712 26.0833 30.0473 26.478 29.9663 26.6851C29.7877 27.2081 29.3954 28.4176 29.2552 29.0717C29.115 29.7258 29.561 29.9629 29.8014 29.9998H34.0785C34.2228 29.7199 34.5175 29.1424 34.5422 29.0717L34.4258 29.1341L34.0642 29.7056H29.9039C29.4636 29.7056 29.473 29.3305 29.5327 29.1429C29.7205 28.4361 30.128 26.9526 30.256 26.6727C30.3735 26.4157 30.7983 26.1429 31.0455 26.0114ZM31.2006 29.1017H31.152C31.103 29.0766 31.015 28.9878 31.056 28.8341C31.0658 28.7976 31.0706 28.7512 31.076 28.6999L31.076 28.6999C31.099 28.4814 31.1311 28.1754 31.5873 28.1754H34.6339L35.0563 26.9334C35.0727 26.8227 35.0941 26.5927 35.0799 26.3876C35.1598 26.526 35.2121 26.7096 35.2121 26.9503L34.7484 28.4971H31.5844C31.5054 28.475 31.3309 28.4949 31.2649 28.7512C31.2321 28.8786 31.201 29.0008 31.2006 29.1017ZM33.069 27.7845L33.2745 27.0608C33.302 26.9797 33.2972 26.8177 33.0581 26.8177H32.0481C31.9794 26.803 31.8255 26.831 31.7595 27.0608L31.7319 27.1564C31.6749 27.3529 31.6019 27.6048 31.5735 27.7586C31.5136 27.708 31.4468 27.5983 31.4856 27.4166C31.5333 27.1926 31.6099 26.9099 31.6423 26.7966C31.6895 26.7033 31.8378 26.5166 32.0527 26.5166H33.1943C33.2951 26.5206 33.4965 26.6254 33.4965 27.0126C33.4965 27.3998 33.3946 27.6885 33.3436 27.7845H33.069Z" fill="#003940"/>
<path fill-rule="evenodd" clip-rule="evenodd" d="M31.0368 26.0123C31.0106 26.0567 30.9984 26.1081 31.0456 26.137C31.1367 26.1928 31.2278 26.2114 31.6138 26.2114H34.1337H34.459C34.6267 26.2517 34.983 26.3649 35.0662 26.4951C35.0954 26.5406 35.1038 26.5036 35.1001 26.4239C34.9319 26.0959 34.6147 26 34.4292 26H31.2652C31.185 26 31.1089 26.0043 31.0368 26.0123ZM31.2017 29.1295C31.1332 29.1792 31.0674 29.2532 31.0911 29.3331C31.1333 29.4758 31.3266 29.5211 31.5561 29.5211H34.0019L34.1066 29.3053L34.0067 29.3589H31.5126C31.2854 29.3589 31.2097 29.2671 31.2017 29.1295ZM31.5686 27.7891C31.5215 27.8642 31.4855 27.9379 31.5198 27.9413C31.573 27.9464 32.5928 27.9434 33.096 27.9413L33.0445 27.8232H31.564C31.5652 27.8127 31.5667 27.8013 31.5686 27.7891Z" fill="#4D8693"/>
<path fill-rule="evenodd" clip-rule="evenodd" d="M35.4603 29.2839L35.0293 30H37.1752L37.044 29.4373L37.7197 26.8821C37.8231 26.7331 37.9273 26.7187 37.9811 26.7411H38.8432C39.173 26.7411 39.1618 26.9442 39.1149 27.0457L38.4309 29.4518L38.0841 30H40.1738L40.0895 29.4518C40.2144 28.9882 40.5374 27.8579 40.8298 27.0457C40.8649 26.9481 40.8911 26.859 40.9097 26.7777C40.9709 26.7379 41.025 26.7373 41.0589 26.7515H41.921C42.2509 26.7515 42.2397 26.9545 42.1928 27.0561L41.5087 29.4622L41.162 30.0104H43.2517L43.1674 29.4622C43.2923 28.9985 43.6153 27.8682 43.9076 27.0561C44.2 26.2439 43.8733 26.0205 43.6734 26.0104H41.7336C41.3236 26.0104 41.0634 26.1737 40.9284 26.3169C40.8751 26.086 40.7133 26.006 40.5955 26H38.6558C38.2735 26 38.0214 26.142 37.8797 26.2772L37.953 26H36.0882L36.2194 26.4604L35.4603 29.2839Z" fill="#026E77"/>
<path fill-rule="evenodd" clip-rule="evenodd" d="M36.26 26L36.5033 26.4521L35.6845 29.2758L35.4738 29.6922H36.9247V29.4775L37.6412 26.7124L37.8442 26H37.953L37.8752 26.2911C38.0161 26.155 38.2695 26.0104 38.6558 26.0104H38.7137C38.6173 26.1063 38.5002 26.2215 38.4293 26.2872C38.2978 26.409 38.3729 26.4521 38.5232 26.4521H38.9929C39.152 26.4703 39.4551 26.5755 39.395 26.8517C39.3349 27.1278 38.8639 28.6479 38.636 29.3734L38.5157 29.6536H40.0113L39.9662 29.4775L40.6922 26.7647C40.7153 26.6605 40.8658 26.4521 41.283 26.4521H42.0445C42.2322 26.4349 42.5643 26.5302 42.3907 27.049C42.2172 27.5677 41.8476 28.9044 41.6845 29.5079L41.5599 29.6536H43.0553L43 29.3782L43.7246 26.9542C43.7923 26.8544 43.9074 26.5701 43.8261 26.231C43.8078 26.1545 43.7901 26.0887 43.7736 26.0321C43.9603 26.1045 44.1543 26.3699 43.9076 27.0534C43.6153 27.8635 43.2923 28.991 43.1674 29.4534L43.2517 30.0003H41.162L41.5087 29.4534L42.1928 27.0534C42.2397 26.9522 42.2509 26.7496 41.921 26.7496H41.0589C41.0255 26.7357 40.9725 26.736 40.9124 26.774C40.8937 26.8583 40.8667 26.9512 40.8298 27.0534C40.5374 27.8635 40.2144 28.991 40.0895 29.4534L40.1738 30.0003H38.0841L38.4309 29.4534L39.1149 27.0534C39.1618 26.9522 39.173 26.7496 38.8432 26.7496H37.9811C37.926 26.7267 37.8181 26.7423 37.7122 26.9013L37.044 29.4025L37.1752 29.9595H35.0293L35.4603 29.2506L36.2194 26.4557L36.0882 26H36.26Z" fill="#003940"/>
<path fill-rule="evenodd" clip-rule="evenodd" d="M43.8424 26.068C43.7864 26.03 43.7259 26.013 43.6739 26.0104H41.7342C41.6359 26.0104 41.5462 26.0197 41.4648 26.0359C41.5009 26.0581 41.5343 26.0874 41.5588 26.126C41.6334 26.2429 41.8355 26.2318 41.9272 26.2116H43.0836C43.1971 26.2116 43.4604 26.2378 43.6058 26.3426C43.7877 26.4736 43.8203 26.4686 43.8483 26.4434C43.8697 26.4242 43.8802 26.2258 43.8424 26.068ZM41.1542 26.1459C41.0567 26.1986 40.9815 26.2601 40.927 26.3181C40.8718 26.0942 40.7125 26.0163 40.5961 26.0104H38.7259L38.5466 26.2116H40.4024C40.4802 26.2049 40.657 26.2146 40.7428 26.3074C40.8286 26.4001 40.9402 26.4199 40.9853 26.4182L41.1542 26.1459ZM36.2754 26C36.341 26.0863 36.4311 26.1942 36.4485 26.2131C36.4701 26.2365 37.3232 26.2229 37.7471 26.2131L37.8249 26H36.2754Z" fill="#4D8693"/>
<path d="M14.2334 30.3326C14.3567 30.4052 14.5074 30.4838 14.6859 30.5668C16.2858 31.2316 21.2167 32.2256 31.7579 32.2256C43.6352 32.2256 47.8385 29.2141 48.4554 27.7083C48.4554 24.3009 40.3167 23.191 36.2474 23.0619C45.62 22.5026 51.9997 25.8583 51.9997 28.0955C51.9997 30.3326 44.7536 33 31.7579 33C22.2105 33 16.6926 31.5004 14.6859 30.5668C14.4831 30.4826 14.3338 30.4036 14.2334 30.3326Z" fill="#DFB626"/>
<path fill-rule="evenodd" clip-rule="evenodd" d="M14.2334 30.3327C14.3567 30.4053 14.5074 30.4839 14.6859 30.5669C14.4831 30.4827 14.3338 30.4037 14.2334 30.3327ZM51.2435 26.6411C51.7383 27.1439 51.9997 27.6427 51.9997 28.0956C51.9997 30.3327 44.7536 33.0001 31.7579 33.0001C22.2105 33.0001 16.6926 31.5004 14.6859 30.5669C14.9635 30.6822 15.3414 30.8075 15.8314 30.9358C18.6526 31.9122 23.3894 32.7421 30.9308 32.7421C48.1009 32.7421 51.7633 28.7841 51.7633 28.0527C51.7633 27.7302 51.5241 27.1752 51.2435 26.6411ZM42.4821 31.0971C46.3933 30.0841 48.0819 28.6202 48.4554 27.7084C48.4554 24.5407 41.4216 23.3586 37.1624 23.1042C41.3595 23.1824 48.0683 24.0823 48.8096 27.3213C49.2457 29.2269 46.2483 30.4042 42.4821 31.0971Z" fill="#7C7563"/>
</svg>
