<!-- by TradingView --><svg width="56" height="56" viewBox="0 0 56 56" xmlns="http://www.w3.org/2000/svg"><path fill="#F0F3FA" d="M0 0h56v56H0z"/><path fill-rule="evenodd" d="M24.82 11.41c.83-.15 1.79-.25 2.77-.25V11a16.16 16.16 0 0 0-4.89.8 4.8 4.8 0 0 0-.7.34l-.14.13h.19a31.73 31.73 0 0 1 2.86.63l.04-.15a52.9 52.9 0 0 0-2.25-.53c1-.09 2.55-.2 3.68-.2v-.15c-1.25 0-3 .13-3.98.22a11.55 11.55 0 0 1 1.66-.52h3.4v-.16h-2.64ZM21.7 12.6h.01c.06.03.13.08.22.17.1.08.19.19.29.3.2.23.4.5.53.69l.13-.1a9.64 9.64 0 0 0-.83-1c.6.11 1.5.29 1.99.42l.04-.15a31.6 31.6 0 0 0-2.31-.47c-.06-.03-.13-.04-.2.01l-.02.02v.04a2.08 2.08 0 0 0 .17.89l-.79-.91-.74 1.9-.14-1.3c.17-.14.4-.11.55-.23l.19-.13-.08-.14a22.54 22.54 0 0 0-4.62 3.19l.11.11c1.43-1.36 1.5-1.15 1.56-1.2l-.48.47c-.13.14-.23.28-.29.39l.14.07c.05-.1.14-.21.27-.35a19.56 19.56 0 0 1 1.38-1.22 9.46 9.46 0 0 0-.45.82.96.96 0 0 0-.1.34v.04l.03.02c.08.07.15.1.23.08a.2.2 0 0 0 .12-.1l1.31-1.84.15 1.31.15.02.57-1.45-.18 1.27.15.02.25-1.76 1 1.13.12-.09c-.08-.12-.2-.34-.29-.59a2.04 2.04 0 0 1-.14-.7Zm-2.53 1.17a10.53 10.53 0 0 0-.7 1.18l-.08.24.06.03.02-.02 1.4-1.97-.7.54Z" fill="#476480"/><path d="M13.8 22.03c-.54 1.5-.62 4.26-.6 5.45h.48c0-.51.12-2.63.28-3.41a9.53 9.53 0 0 0 2.4 2.55c-.16-.7-.07-3.8 0-5.25h-.48c-.14.44-.43 1.72-.43 3.29-.47-.4-1.53-2-1.65-2.63Zm2.95-.74c-.2 3.16.07 4.84.23 5.29.2 0 .43-.12.75-.2-.2-.47-.32-2.5-.32-3.37 1.22.94 2.83 1.76 3.5 2.08-.34-.97-.8-3.78-.98-5.06-.07.04-.26.17-.51.36 0 .84.2 2.33.31 2.97a37.19 37.19 0 0 1-2.98-2.07Zm5.03 3.61c-.7-1.86-1-4.07-1.07-4.94 2.12 1.13 3.38 1.5 3.75 1.54l-1.05-2.69.81-.28 1.93 4.6c-1.25-.46-3.87-1.43-4.37-1.63.16 1.23.64 2.55.86 3.05-.16.05-.56.19-.86.34Zm5.12-2.08-2.03-4.37 4.57 1.05-1.86-2.47.76-.36 3.02 4.22-4.97-1.25 1.6 2.8-1.1.38Zm5.09-2.26a25.33 25.33 0 0 0-3.06-4.02l4.69.76-2.26-2.07c.05-.04.25-.15.63-.33a40.1 40.1 0 0 1 3.85 3.73c-1.22-.28-3.9-.9-4.9-1.04.6.62 1.57 1.92 1.97 2.49-.18.1-.62.34-.92.48Zm4.27-2.16a27.68 27.68 0 0 0-3.87-3.58c1.17.2 3.67.65 4.26.83a49.6 49.6 0 0 0-2.89-2h.6c1.6.84 3.6 2.6 4.08 3.15-1.22-.5-3.05-.87-3.8-.99l2.3 2.23-.68.36Zm2.57-1.67a17.71 17.71 0 0 0-4.24-3.17c.92.09 2.4.58 3.03.81-.85-.49-2.53-1.51-2.53-1.7 2.2.98 3.97 2.43 4.58 3.03a18.24 18.24 0 0 0-2.74-1.17c.8.55 1.87 1.53 2.3 1.95-.07.06-.25.2-.4.25ZM12.82 27.56c0-2.77.44-4.8.66-5.47h-.36c-.19.14-.6 2.2-.8 3.2-.11-.69-.32-2.3-.16-3.2-.84 1.73-1.12 4.56-1.16 5.76h.4c-.01-1.4.19-2.73.28-3.22.24.81.8 2.53 1.14 2.93Zm2.36-10.78a13.14 13.14 0 0 0-2.67 4.44c.18-.6 1-1.73 1.33-2.22-.08.55-.2 1.77 0 2.22a12.88 12.88 0 0 1 2.4-4.68 6.83 6.83 0 0 0-1.9 2.46c.1-.53.42-1.33.84-2.22Z" fill="#476480"/><path d="M16.22 16.8a17.53 17.53 0 0 0-2.16 4.37h.44c.24-.7.82-2.26 1.18-2.91-.05.9.36 1.84.82 2.36.1-2.43 1.18-4.2 1.18-4.48-.57.36-1.2 2.09-1.3 2.65-.24-.4-.28-1.34-.16-2Zm1.9-.64c-.77 1.3-1.12 3.4-1.2 4.28h.55c0-.78.38-2.14.56-2.91a5.8 5.8 0 0 0 1.9 1.85c-.26-1.27-.02-3.13.13-3.9h-.27c-.29.4-.42 1.81-.42 2.45a2.88 2.88 0 0 1-1.25-1.77Zm2.28-.77c-.13 2.04.05 3.44.15 3.89l.66-.22c-.1-.63-.27-2.01-.27-2.51.56.46 2.18 1.11 2.92 1.38l-1.42-3.42-.53.24.76 1.93a7.6 7.6 0 0 1-2.27-1.3Zm4.06 2.29-1.58-3.25 3.29.8-1.8-1.6.53-.23 2.96 2.68-3.9-.76 1.38 1.99-.88.37Zm3.87-1.81a13.89 13.89 0 0 0-3.11-2.54c1.07.05 3.35.19 3.85.3-.58-.33-1.8-.8-2.33-1v-.2c2.1.47 3.92 1.59 4.34 2.05a41.9 41.9 0 0 0-4-.58l2 1.67c-.17.1-.55.3-.75.3Zm3.09-1.69c-1.07-.9-3.07-1.6-3.93-1.84.95 0 2.97.01 3.44.08-.93-.33-2.16-.52-2.67-.58.04-.04.12-.14.12-.23a13.8 13.8 0 0 1 4.86 1.53c-.56-.11-2.8-.33-3.6-.4.69.24 1.92.9 2.45 1.2-.12.08-.41.24-.67.24Z" fill="#476480"/><path d="M29.08 11.02c1.89.12 3.97.77 4.77 1.07l-.04.15c-.76-.14-2.16-.38-3.33-.52 1.46.34 2.78.84 3.37 1.1l-.06.15c-.77-.34-2.8-1.1-4.73-1.36l.01-.16c.84 0 2.47.24 3.7.45-1-.3-2.4-.64-3.7-.73l.01-.15ZM12.26 34.4a18.46 18.46 0 0 1-1.18-5.79c.73 2.09.9 2.2 1.78 3.23-.39-1.07-.56-2.7-.6-3.38h.6c0 2.6.94 4.93 1.21 5.63a12.86 12.86 0 0 1-2.4-2.9c.2 1.54.67 2.7.88 3.07-.05.02-.18.07-.29.14Zm2.33-.36a24.28 24.28 0 0 1-1.34-5.52c.96.86 2.96 2.58 3.3 2.58-.4-.72-.72-2.58-.83-3.41.1-.04.4-.12.82-.12a24.96 24.96 0 0 0 1.56 5.63c-1.1-.71-3.4-2.25-3.86-2.64.1.9.74 2.7 1.05 3.48h-.7Zm4.04-1.06a37.93 37.93 0 0 1-1.49-5.48l4.08 2.19-1.01-3.35c.18-.1.64-.3 1-.3a38.13 38.13 0 0 0 1.87 5.44l-4.66-2.07c.28 1.3.93 2.76 1.22 3.33-.24.08-.78.24-1 .24Zm5.27-1.84c-.94-2.01-1.6-4.4-1.83-5.35l4.66 1.78-1.32-3.26 1.1-.34 2.18 5.27c-1.3-.44-4.12-1.4-5.1-1.67.2.64.9 2.45 1.23 3.28-.15.04-.54.15-.91.29Zm5.63-2.1-2.2-5.3 5.13 1.52-1.6-3.19.93-.48 2.57 5.16-5.23-1.49 1.5 3.32-1.1.46Zm5.52-2.56a36.48 36.48 0 0 0-2.6-5.1c.58 0 4.08 1.04 4.94 1.28-.3-.57-1.34-2.18-1.83-2.91l.67-.36c.95.9 2.43 3.7 3.05 4.99a47.86 47.86 0 0 0-4.71-1.48c.57.94 1.24 2.46 1.51 3.1-.23.12-.77.38-1.03.48Zm4.68-2.28a37.16 37.16 0 0 0-2.86-5.05 27.8 27.8 0 0 1 3.93 1.57 19.06 19.06 0 0 0-1.97-2.76l.3-.34c2.66 3.04 2.9 4.18 3.22 4.87a21.05 21.05 0 0 0-3.52-1.77 19.3 19.3 0 0 1 1.6 3.06c-.14.1-.46.3-.7.43Zm2.87-1.93a17.69 17.69 0 0 0-3.05-4.7c.63.22 1.9.95 2.56 1.47a8.5 8.5 0 0 0-1.91-2.28l.26-.26a14.3 14.3 0 0 1 3.17 5c-1.1-1.71-1.3-1.66-2.36-2.46.72.93 1.42 2.4 1.68 3.02-.04.04-.16.13-.35.2ZM15.84 39.95a16.4 16.4 0 0 1-3.23-4.69c.94 1.23 2.2 2.24 2.93 2.83a64 64 0 0 1-1.69-3.03h.58c.8 2.05 2.33 3.8 3.02 4.67a16.66 16.66 0 0 1-3.37-2.35 12.36 12.36 0 0 0 2.13 2.57h-.37Zm2.11-.27c-1.1-1.07-2.5-3.5-3.06-4.57a23.7 23.7 0 0 0 4.26 2.18c-.33-.51-1.27-2.2-1.7-2.97l.9-.33c.86 2.03 2.3 4.15 2.76 4.86-.76-.14-3.82-1.6-4.46-1.9a13.85 13.85 0 0 0 1.92 2.5c-.12.08-.43.23-.62.23Zm3.81-.98c-.92-1.1-2.21-3.64-2.74-4.77.45.42 3.45 1.51 4.9 2.01l-1.57-3.3 1.02-.27c.67 1.42 2.09 4.4 2.38 4.97a81.83 81.83 0 0 1-5-1.7l1.87 2.8c-.16.09-.57.25-.86.25Zm4.9-1.57c-1.04-1.54-2.06-4-2.45-5.03 1.31.61 3.92 1.41 5.06 1.74l-1.36-3.2c.17-.09.61-.27 1.1-.38a52.51 52.51 0 0 0 2.15 5.06l-5.09-1.48 1.49 2.9a3 3 0 0 0-.9.4Zm5.18-2.06-2-5.1 4.95 1.38-1.27-3.13c.15-.1.57-.32 1.06-.54A73.48 73.48 0 0 1 36.42 33l-4.77-1.46 1.25 3.05-1.06.48Zm5.14-2.33a20.88 20.88 0 0 0-1.62-5.31 25.9 25.9 0 0 1 4.37 1.64 9.4 9.4 0 0 0-1.05-3.2c.08-.08.37-.26.91-.45.87 2.5 1.13 4.38 1.28 5.34-.77-.63-2.74-1.39-3.63-1.7l.79 3.26a2.6 2.6 0 0 1-1.05.42Zm4.34-2.25c0-1.77-.83-4.3-1.25-5.36.6.3 2.43 1.34 2.98 1.83a21.74 21.74 0 0 0-.9-3.25c.08-.05.3-.18.58-.3a25.3 25.3 0 0 1 1.03 5.53 6.3 6.3 0 0 0-2.3-1.98c.32 1.2.5 2.64.55 3.21-.12.1-.41.32-.69.32Zm2.68-1.8a20.9 20.9 0 0 0-.96-5.34 12.9 12.9 0 0 1 1.42 1.8 7.23 7.23 0 0 0-.81-2.92.8.8 0 0 1 .35-.15c.82 2.19.99 4.94.88 5.75a5.7 5.7 0 0 0-.88-2.48c.27 1.35.42 2.72.46 3.23a.96.96 0 0 1-.46.1ZM21.26 43.58c-2.67-1.06-4.18-2.44-4.6-3 .68.46 2.29 1.45 3.23 1.75a13.05 13.05 0 0 1-2.23-1.9h.6c1.5 1.45 3 2.45 3.96 2.95a44.8 44.8 0 0 0-3.07-.97c.52.24 1.67.81 2.11 1.17Zm1.38-.22c-1.85-1-3.43-2.44-3.99-3.04.79.58 3.2 1.3 4.64 1.54a15.83 15.83 0 0 1-2.47-2.28h1.04c.83 1.28 2.55 2.6 3.3 3.09-.9-.15-3.04-.56-4.34-.98.82.63 2.06 1.38 2.58 1.67h-.76Zm3.06-.84c-1.45-1-2.83-2.43-3.34-3.03.75.37 3.56.82 4.67 1h.03c-.24-.1-1.24-1.47-1.7-2.13.16-.1.59-.29.94-.29a20.87 20.87 0 0 0 2.64 3.39c-1.25-.24-3.93-.73-4.6-.83a9.48 9.48 0 0 0 2.1 1.68c-.12.07-.44.21-.74.21Zm3.79-1.27a18.95 18.95 0 0 1-2.4-3.41l4.49 1-1.17-2.5.93-.29L33 39.91c-1.03-.21-3.31-.68-4.15-.89.39.8 1.12 1.69 1.44 2.04-.16.06-.54.2-.79.2Zm4.15-1.51L32.2 35.8l4 1.03c0-.73-.37-2.05-.55-2.62.2-.1.7-.3.93-.42.4 2.06.4 3.68.36 4.23l-3.31-1.19.84 2.62-.84.28Zm3.66-6.24c.44 1.75.41 3.7.35 4.47.12-.05.43-.2.64-.39.11-.68.04-2.03 0-2.62.57.27 1.84.94 2.36 1.42.3-1.22.33-3.74.3-4.85l-.67.29v3.14c-.8-.49-2.53-1.46-2.98-1.46Zm3.66 2.66c.54-1.54.57-3.8.5-4.73.46.34 1.4 1.19 1.6 1.8.3-1.8.23-2.75.15-3a.65.65 0 0 1 .52-.24c-.12 3.73-.66 4.92-.91 5.04a7.33 7.33 0 0 0-.84-2.07c0 2.91-.72 3-1.02 3.2Z" fill="#476480"/><path d="M45 28.8c0 1.3-.38 3.03-.57 3.73l-.23-.02-.09-.86a9.37 9.37 0 0 1-.86 3.2l-.2-.12c.3-.52.93-2.27.95-5h.23c0 .57.07 1.42.14 2.08.18-.83.4-2.04.4-3H45ZM26.93 43.7c.57.21 1.21.43 1.63.56l-.05.23-2.78-.3c1 .2 1.98.38 2.46.44l-.02.24c-2.94 0-5.28-.5-6.09-.76l.07-.22c.63.2 2.26.56 4.4.7a215.9 215.9 0 0 1-3.38-.69l.03-.23 4.25.47a36.32 36.32 0 0 1-1.38-.52 4.58 4.58 0 0 1-.48-.26l.15-.17.15.08.27.13c.21.1.48.2.77.3Zm2.77.64a9.33 9.33 0 0 1-3.12-1.2l3.63.25c-.4-.25-1.25-.87-1.62-1.14l.75-.3c.55.5 1.72 1.53 2.04 1.79-.64-.01-2.25-.1-2.97-.13l1.53.48c-.08.04-.24.16-.24.25Zm2.3-.72a10.69 10.69 0 0 1-2.07-1.79c.51.16 2.36.36 3.22.44l-.7-1.55.7-.44.97 2.5c-.7-.05-2.24-.18-2.75-.29.24.35.91.9 1.22 1.13H32Zm2.42-.9-.64-2.45c.14 0 1.77.56 2.57.84v-2.06c.12-.04.4-.1.65-.1-.08 1.94-.47 2.72-.65 2.87L34.72 41l.12 1.58-.42.14Zm3.2-4.12c-.11 1.74-.57 2.71-.79 2.98.64 0 .95-1.32 1.02-1.98.18.14.59.56.74 1.12.4-.47 1.36-2.45 1.8-3.37a.59.59 0 0 0-.4-.14c-.09.4-.73 1.81-1.04 2.47-.3-.31-1-.96-1.33-1.08Zm3.17-1.6c-.56 1.53-1.56 3-2 3.55.4-.4 1.28-1.41 1.67-2.13.02.44-.32 1.22-.49 1.55.28-.24.98-.94 1.62-1.9.8-1.2.95-1.93.83-2.23-.22.57-1.12 1.95-1.54 2.58.01-.32 0-1.05-.1-1.42Z" fill="#476480"/><path d="M29.17 45v-.47h.02c.29 0 4.39.09 8.8-3.3l.29.36a16.6 16.6 0 0 1-6.24 3.05 13.27 13.27 0 0 1-2.8.36h-.06Z" fill="#476480"/></svg>