<!-- by TradingView --><svg width="56" height="56" viewBox="0 0 56 56" xmlns="http://www.w3.org/2000/svg"><path fill="#F0F3FA" d="M0 0h56v56H0z"/><path d="M13 16a1 1 0 1 1 2 0v23a1 1 0 1 1-2 0V16ZM16 16a1 1 0 1 1 2 0v23a1 1 0 1 1-2 0V16ZM19 16a1 1 0 1 1 2 0v23a1 1 0 1 1-2 0V16ZM22 16a1 1 0 1 1 2 0v23a1 1 0 1 1-2 0V16ZM25 17c0-.55.46-1 1.02-1h2.05c1.24 0 4.65.5 7 3.95 2.09 3.07 11.77 18.51 11.77 18.51a.99.99 0 0 1-.31 1.38c-.48.3-1.11.16-1.42-.3 0 0-9.66-15.41-11.75-18.49A6.7 6.7 0 0 0 28.07 18h-2.05c-.56 0-1.02-.45-1.02-1Zm6.33 6.58A5.9 5.9 0 0 0 26.17 21c-.56.08-1.08-.3-1.16-.85a1 1 0 0 1 .87-1.13c1.5-.21 4.81.26 7.12 3.4 2.06 2.83 10.25 16.04 10.25 16.04a.99.99 0 0 1-.3 1.39c-.47.3-1.1.17-1.41-.3 0 0-8.18-13.18-10.21-15.96Zm-3.93.7c-.62-.37-1-.33-1.18-.3-.55.1-1.09-.24-1.2-.78a1 1 0 0 1 .8-1.18c.67-.13 1.58-.1 2.66.57 1.04.63 2.2 1.82 3.53 3.88l7.16 12a.99.99 0 0 1-.33 1.38c-.48.3-1.11.14-1.4-.33l-7.17-11.99c-1.24-1.94-2.2-2.84-2.87-3.24Zm-2.23 2.27a.99.99 0 0 1 .29-1.38c.47-.3 1.1-.18 1.41.28l8.2 13a.99.99 0 0 1-.3 1.38c-.46.3-1.1.18-1.41-.28l-8.19-13Z" fill="#173478"/></svg>