<!-- by TradingView --><svg width="56" height="56" viewBox="0 0 56 56" fill="none" xmlns="http://www.w3.org/2000/svg">
<rect width="56" height="56" fill="#F0F3FA"/>
<path fill-rule="evenodd" clip-rule="evenodd" d="M5 24.037V33H7V25.0303H7.43365L13.2206 32.5949C13.416 32.8503 13.7184 33 14.0391 33H15.9678C16.5378 33 17 32.5357 17 31.963V23H15V30.9351H14.5747L8.88749 23.4084C8.69232 23.1501 8.38932 23 8.06651 23H6.03225C5.46215 23 5 23.4643 5 24.037ZM18 23.1885C18 23.0844 18.0781 23 18.1744 23H19.8256C19.9219 23 20 23.0844 20 23.1885V32.8115C20 32.9156 19.9219 33 19.8256 33H18.1744C18.0781 33 18 32.9156 18 32.8115V23.1885ZM37.1744 23C37.0781 23 37 23.0844 37 23.1885V32.8115C37 32.9156 37.0781 33 37.1744 33H38.8256C38.9219 33 39 32.9156 39 32.8115V23.1885C39 23.0844 38.9219 23 38.8256 23H37.1744ZM21 23.8515V32.8108C21 32.9153 21.0837 33 21.1869 33H22.8864C22.9897 33 23 32.9153 23 32.8108V24.9861H23.4733L26.6609 32.221C26.8726 32.6952 27.3391 33 27.8532 33H29.2077C29.7232 33 30.1906 32.6937 30.4015 32.2176L33.5638 24.9861H34V32.8108C34 32.9153 34.0474 33 34.1506 33H35.8131C35.9163 33 36 32.9153 36 32.8108V23.8515C36 23.3812 35.6234 23 35.1589 23H32.7962C32.5002 23 32.2321 23.1768 32.1124 23.4509L28.8254 30.9797C28.7954 31.0482 28.7284 31.0924 28.6544 31.0924H28.4435C28.3691 31.0924 28.3029 31.0505 28.2733 30.9814L25.0475 23.4543C24.929 23.1776 24.6601 23 24.3622 23H21.8411C21.3766 23 21 23.3812 21 23.8515ZM40 32.8111V23.1889C40 23.0846 40.0805 23 40.1797 23H48.1949C49.5349 23 50.5 24.1415 50.5 25.5497V27.3052C50.5 28.4723 49.837 29.556 48.847 29.8928L50.9609 32.6913C51.0541 32.8147 50.9702 32.9962 50.8199 32.9962H48.8322C48.7758 32.9962 48.7226 32.9684 48.6887 32.9213L46.5851 30H42V32.8111C42 32.9154 41.9762 33 41.877 33H40.1797C40.0805 33 40 32.9154 40 32.8111ZM42 25.178C42 25.0797 42.0807 25 42.1802 25H47.5091C48.0564 25 48.5 25.4382 48.5 25.9788V27.0212C48.5 27.5618 48.0564 28 47.5091 28H42.1802C42.0807 28 42 27.9203 42 27.822V25.178Z" fill="#4C73B1"/>
</svg>
