<!-- by TradingView --><svg width="56" height="56" viewBox="0 0 56 56" xmlns="http://www.w3.org/2000/svg"><path fill="#F0F3FA" d="M0 0h56v56H0z"/><path fill-rule="evenodd" d="M44.79 30.67A17.03 17.03 0 0 0 22.9 11.79a17.12 17.12 0 0 0-10.47 9.4 17.02 17.02 0 0 0 11.25 23.25 17.04 17.04 0 0 0 21.1-13.77Zm-26.56 7.1a13.86 13.86 0 0 0 23.6-9.8 13.77 13.77 0 0 0-13.86-13.76 13.86 13.86 0 0 0-13.8 13.82c0 3.65 1.46 7.16 4.06 9.74Zm18.89-19.2A12.98 12.98 0 0 1 37.37 37a13.19 13.19 0 0 1-18.57.26 12.98 12.98 0 0 1-.26-18.43 13.19 13.19 0 0 1 18.58-.26Z" fill="#415B3B"/><path d="m29.48 12.83.39.01c.07 0 .09.04.05.1-.08.15-.06.28.06.39l.02.06c0 .02 0 .05-.02.06-.12.12-.25.13-.38.02a.12.12 0 0 0-.13-.02c-.35.12-.69.1-1.01-.05a.17.17 0 0 1-.1-.1c-.13-.32-.03-.54.3-.65.04-.02.06-.05.04-.1l-.09-.24a.17.17 0 0 1 0-.1c.05-.24.24-.35.45-.35.24 0 .5.13.61.36.03.05.02.1-.02.14l-.25.29a.11.11 0 0 0-.02.12c.01.04.05.06.1.06Zm-.29-.72-.06.01a.2.2 0 0 0-.05.03c-.06.05-.1.14-.06.2l.04.04.06.01a.2.2 0 0 0 .18-.14v-.05a.1.1 0 0 0-.1-.1Zm-.02 1.1a.1.1 0 0 0 .02-.07c0-.08-.09-.15-.16-.2a.34.34 0 0 0-.17-.04c-.06 0-.1.03-.12.06a.1.1 0 0 0-.01.06c0 .09.08.16.15.2a.3.3 0 0 0 .18.04c.05 0 .1-.02.11-.06Zm3.33.37c.12.21.18.44.18.69 0 .03-.01.04-.04.03l-.38-.11a.13.13 0 0 1-.1-.1l-.14-.6a.12.12 0 0 0-.1-.1.14.14 0 0 0-.13.09l-.13.45c-.02.05-.05.07-.1.05l-.3-.07c-.07-.02-.09-.05-.07-.11l.4-1.4c.01-.04.04-.06.08-.05.41.06 1.36.24 1.24.76a.45.45 0 0 1-.37.36.08.08 0 0 0-.04.11Zm-.07-.54c.01-.04 0-.09-.05-.13a.35.35 0 0 0-.17-.09.4.4 0 0 0-.1 0c-.07 0-.17.03-.19.11 0 .05.01.1.05.14.04.04.1.07.17.08a.4.4 0 0 0 .1.01c.08 0 .18-.04.2-.12Zm-8.03.51c.23-.03.75-.25.78.12 0 .08-.04.13-.11.15l-1.06.23c-.02 0-.05 0-.06-.02a.09.09 0 0 1-.04-.05l-.32-1.46a.07.07 0 0 1 .01-.05.07.07 0 0 1 .04-.03l.34-.07.06.01c.02.01.03.03.04.06l.23 1.04a.08.08 0 0 0 .1.07Zm-1.42-.91-.33.1a.07.07 0 0 0-.05.09l.43 1.42c.01.04.05.06.09.05l.34-.1a.07.07 0 0 0 .04-.09l-.43-1.42a.07.07 0 0 0-.09-.05Zm11.04.38.38.15c.04.02.06.05.06.09v1.53c0 .04-.03.07-.07.07-.27.02-.41-.1-.42-.34a.1.1 0 0 0-.06-.09l-.37-.16a.09.09 0 0 0-.1.02c-.18.17-.36.18-.55.02a.08.08 0 0 1-.03-.06.08.08 0 0 1 .02-.06l1.02-1.14a.11.11 0 0 1 .12-.03Zm-12.66.58c-.05.32.46.13.7.14 1.23.04-.04 1.77-.81.97-.04-.04-.04-.08 0-.12.15-.18.32-.2.5-.07a.23.23 0 0 0 .34-.08c.05-.1.04-.18-.03-.26a.12.12 0 0 0-.06-.03h-.07c-.24.09-.48.1-.73.05a.22.22 0 0 1-.12-.08c-.53-.63.43-.97.93-.93a.16.16 0 0 1 .14.23.16.16 0 0 1-.07.07.46.46 0 0 1-.52.01.14.14 0 0 0-.2.1Zm15.2.75a.1.1 0 0 1 .04.1.1.1 0 0 1-.08.06 1.7 1.7 0 0 0-1.19.94c-.02.05-.06.06-.1.03l-.3-.21a.08.08 0 0 1-.02-.11c.43-.53.3-.95.23-1.53 0-.05.01-.06.06-.05.37.1.51.33.43.7a.11.11 0 0 0 .05.12c.05.02.1.02.14-.02.23-.23.48-.24.74-.03Zm-16.9 1.32.54-.32a.08.08 0 0 1 .1.01l.15.15a.08.08 0 0 1-.01.13l-.95.62a.08.08 0 0 1-.11-.02l-.8-1.23a.08.08 0 0 1 .02-.12l.27-.15a.08.08 0 0 1 .11.03l.57.87a.08.08 0 0 0 .1.03Zm18.28 0a.86.86 0 0 1-.87.85.87.87 0 0 1-.86-.85.86.86 0 0 1 .86-.86.87.87 0 0 1 .87.86Zm-.84.42c.1-.04.2-.12.27-.23.12-.17.17-.46-.03-.59a.32.32 0 0 0-.28-.02.66.66 0 0 0-.28.22.62.62 0 0 0-.08.17c-.08.26.09.56.4.45Zm-17.93.34a.05.05 0 0 1 .02.05v.02l-.23.18a.18.18 0 0 1-.15.04.5.5 0 0 0-.56.23.22.22 0 0 0-.04.13c0 .2-.08.35-.26.45-.05.03-.08.02-.1-.03l-.54-1.47c-.02-.04 0-.08.03-.12l.32-.27a.09.09 0 0 1 .11-.01l1.4.8Zm-1.18.2a.04.04 0 0 0 .03.02.04.04 0 0 0 .04-.01l.19-.17a.04.04 0 0 0 0-.07l-.38-.24h-.05a.04.04 0 0 0-.02.06l.19.4Zm20.37.24-.41.46c-.04.04-.07.04-.11.01l-.27-.19c-.05-.04-.06-.09 0-.14.35-.33.68-.68.99-1.05.03-.04.07-.04.12-.02.44.21.23.8.17 1.18v.03c.02.03.05.04.07.04l.04-.02.38-.42a.14.14 0 0 1 .13-.04c.12.03.2.1.26.2.02.04.02.1-.02.13-.3.35-.64.69-.97 1.02-.04.03-.08.04-.13.02-.41-.2-.17-.81-.17-1.18 0-.09-.02-.1-.08-.03Zm-21.61.67-.51-.45c-.03-.02-.03-.05-.01-.08l.2-.25c.04-.05.08-.06.13-.01l1 .91a.26.26 0 0 1 .07.3.26.26 0 0 1-.26.14l-.88-.07a.06.06 0 0 0-.06.03.06.06 0 0 0 .01.07l.47.42a.07.07 0 0 1 0 .1l-.18.22c-.04.04-.08.05-.13 0l-1.11-.98c-.04-.03-.04-.06 0-.09l.25-.25a.12.12 0 0 1 .1-.04 99.16 99.16 0 0 0 .9.1l.02-.02v-.03l-.01-.02Zm23.91 1.91c.25-.06.5-.15.72-.28.05-.03.09-.02.12.02l.28.42c.04.06.03.1-.02.14l-1.15.8c-.05.04-.1.04-.14 0l-.14-.15c-.05-.05-.05-.09 0-.13.27-.2.53-.37.81-.53.05-.03.02-.1-.03-.08-.3.1-.6.2-.9.32a.16.16 0 0 1-.11 0c-.5-.17.28-.83.43-1.04.02-.03-.02-.07-.05-.05l-.7.5c-.04.03-.08.03-.11 0l-.17-.16a.09.09 0 0 1 0-.14l1.2-.84c.06-.04.1-.03.15.02l.28.41c.03.04.02.08 0 .11l-.53.57a.06.06 0 0 0 .02.09h.04Zm-24.48-.06a.85.85 0 0 1-.86.85.86.86 0 0 1-.87-.85.85.85 0 0 1 .87-.86.86.86 0 0 1 .86.86Zm-.48.27a.27.27 0 0 0 .05-.13c0-.05 0-.1-.02-.15a.5.5 0 0 0-.08-.15.62.62 0 0 0-.46-.24c-.06 0-.1.01-.15.03a.28.28 0 0 0-.11.09.27.27 0 0 0-.05.13c0 .05 0 .1.02.15.01.06.04.1.08.15a.62.62 0 0 0 .46.24c.06 0 .1 0 .15-.03a.28.28 0 0 0 .11-.09Zm-.4 1.19-1.32-.79a.05.05 0 0 0-.07.02l-.2.34c-.01.02 0 .05.01.06l1.32.8c.02 0 .05 0 .07-.02l.2-.34a.05.05 0 0 0-.02-.07Zm26.76-.57-1.27.68a.1.1 0 0 0-.04.12l.14.27a.1.1 0 0 0 .13.04l1.27-.68a.1.1 0 0 0 .04-.12l-.14-.27a.1.1 0 0 0-.13-.04Zm-28.7 1.88-.13.27a.18.18 0 0 1-.11.09c-.05.01-.1 0-.15-.02a.22.22 0 0 1-.1-.12.22.22 0 0 1 .02-.15l.54-1.13c.03-.05.07-.07.13-.05.4.1.13.29.1.51-.02.05 0 .1.05.11l.95.45c.06.03.07.07.04.12l-.14.3c-.02.04-.06.05-.1.03l-.96-.45a.1.1 0 0 0-.14.04Zm28.35.01.26.58a.08.08 0 0 1-.04.1l-.19.1h-.03a.08.08 0 0 1-.08-.04l-.5-1c-.02-.04 0-.1.04-.11l1.36-.64a.08.08 0 0 1 .11.05l.12.3a.08.08 0 0 1-.04.1l-.97.45a.08.08 0 0 0-.04.1Zm.36 2.17-.32-1.05c-.02-.05 0-.09.06-.1l1.39-.43c.05-.02.09 0 .1.05l.1.31a.08.08 0 0 1-.05.1l-1 .3c-.08.03-.1.08-.07.17l.17.54a.2.2 0 0 1-.14.24.2.2 0 0 1-.24-.13Zm-28.33.26-1.24-.94a.1.1 0 0 1-.03-.12l.13-.37a.12.12 0 0 1 .11-.08l1.52-.1c.04 0 .07.02.07.06.03.26-.07.4-.3.45a.13.13 0 0 0-.11.1l-.12.34a.11.11 0 0 0 .04.13c.18.14.2.31.05.51a.09.09 0 0 1-.06.04.08.08 0 0 1-.06-.02Zm-.65-1.03c.13.27.25.27.36 0 .03-.06 0-.09-.06-.09-.08 0-.17 0-.26.02-.05 0-.06.03-.04.07Zm29.56 1.97c.02.02.04.04.07.04.09.03.18-.03.2-.12.07-.4-.05-.82.5-.91.04 0 .08 0 .12.02.28.14.41.39.4.74-.02.22-.02.42-.23.51a.14.14 0 0 1-.2-.14c.02-.16.18-.6.06-.68a.12.12 0 0 0-.06-.02.12.12 0 0 0-.13.11c-.01.33-.03.77-.36.93-.23.11-.44.03-.61-.23-.3-.46-.26-.84.13-1.15.05-.04.1-.03.13.01.3.4-.3.57-.02.89Zm-29.8.33.68.1c.05 0 .07.03.06.08l-.07.31a.1.1 0 0 1-.11.08l-1.4-.25a.09.09 0 0 1-.07-.09c-.1-.53.59-.6.9-.79a.05.05 0 0 0 .03-.06l-.01-.03-.03-.01-.66-.1a.08.08 0 0 1-.06-.07v-.03l.05-.27a.1.1 0 0 1 .07-.08.1.1 0 0 1 .04 0l1.43.24c.06 0 .08.04.07.1l-.06.3a.18.18 0 0 1-.1.13l-.77.33a.05.05 0 0 0-.04.06.05.05 0 0 0 .05.05Zm30.09 1.98v.6a.08.08 0 0 1-.07.08l-.26.02h-.03a.09.09 0 0 1-.06-.08l-.03-1.14v-.03a.09.09 0 0 1 .09-.06h1.48a.08.08 0 0 1 .08.08l.02.32c0 .04-.04.08-.08.08l-1.06.04a.08.08 0 0 0-.08.09Zm-30.75.53a.13.13 0 0 0 .13.1.13.13 0 0 0 .12-.13v-.62c0-.06.04-.09.1-.08l.16.01c.06 0 .09.04.09.1v.6a.1.1 0 0 0 .06.09c.4.14.28-.62.28-.82a.08.08 0 0 1 .08-.08h.17a.09.09 0 0 1 .09.1v1.22c0 .05-.03.07-.07.07h-1.5c-.05 0-.07-.02-.07-.07V27.7a.1.1 0 0 1 .07-.1c.42-.13.25.58.29.79Zm31.43 1.32-1.02-.06a.15.15 0 0 1-.14-.16l.01-.25c0-.06.04-.08.1-.08l1.07.07c.06 0 .09-.02.1-.07l.04-.3a.1.1 0 0 1 .08-.1l.07-.04a.15.15 0 0 1 .21.14l-.08 1.32c0 .05-.03.08-.08.08h-.2c-.06 0-.09-.03-.09-.1v-.37a.08.08 0 0 0-.07-.08Zm-30.67.36.03.4a.1.1 0 0 0 .1.08l.52-.07c.05 0 .09.02.1.08l.03.32a.08.08 0 0 1-.07.09l-1.48.2c-.05 0-.08-.02-.09-.08l-.03-.3c0-.04.02-.07.06-.1a.75.75 0 0 1 .4-.04.1.1 0 0 0 .1-.07.1.1 0 0 0 0-.04l-.05-.4a.1.1 0 0 0-.04-.06.1.1 0 0 0-.07-.02l-.39.06c-.05 0-.08-.01-.1-.07l-.05-.32c-.01-.06.01-.09.07-.1l1.47-.2a.07.07 0 0 1 .08.06l.05.3c.01.07-.02.11-.09.12l-.48.08c-.05 0-.08.03-.07.08Zm30.98.67a.04.04 0 0 1 .02.04l-.14.69a.79.79 0 0 1-.33.49.74.74 0 0 1-.57.11l-.15-.03a.74.74 0 0 1-.47-.33.79.79 0 0 1-.1-.58l.14-.68c0-.02.02-.04.05-.03l1.55.32Zm-.54.39-.7-.16a.1.1 0 0 0-.13.09v.03a.36.36 0 0 0 .27.44l.2.05h.14a.38.38 0 0 0 .3-.29v-.03a.1.1 0 0 0-.08-.13Zm-30.51 1.43.08.3c.01.04 0 .08-.02.12-.05.1-.13.12-.25.1a.13.13 0 0 1-.09-.09l-.37-1.3a.08.08 0 0 1 0-.06.07.07 0 0 1 .05-.04l.21-.04c.07 0 .11.02.13.09l.06.29a.1.1 0 0 0 .14.08c.27-.08 1.39-.62 1.17.13 0 .03-.03.05-.05.05l-1 .28a.07.07 0 0 0-.06.09Zm29.37-.35-.17-.06a.12.12 0 0 0-.16.07l-.1.23c-.02.06.02.13.08.15l.18.07c.06.03.13 0 .16-.07l.09-.22a.12.12 0 0 0-.08-.16Zm-23.69 8.73-.2-.16c-.06-.04-.07-.09-.03-.14l.85-1.23c.03-.04.07-.05.11-.02l.88.64a.1.1 0 0 1 .04.06.1.1 0 0 1-.02.07l-.08.14a.09.09 0 0 1-.12.02l-.46-.31a.15.15 0 0 0-.2.04.14.14 0 0 0 .03.19l.32.26a.16.16 0 0 1-.07.27c-.04 0-.08 0-.11-.02l-.37-.24c-.05-.04-.1-.03-.13.03l-.22.36a.15.15 0 0 1-.22.04Zm16.51-.46a.11.11 0 0 1 .04-.15l.53-.34c.17-.11.39-.15.59-.11.2.03.37.15.48.31l.1.17c.12.17.15.37.1.57a.82.82 0 0 1-.35.49l-.53.34a.11.11 0 0 1-.16-.04l-.8-1.24Zm-14.8 1.39c-.2.13-.37.1-.53-.1-.03-.05-.03-.09.02-.12l1.21-.98a.09.09 0 0 1 .1 0l.35.19c.05.03.07.07.06.13l-.27 1.58c-.02.07-.05.09-.12.05l-.3-.2a.1.1 0 0 1-.03-.12c.12-.22-.16-.34-.36-.44a.12.12 0 0 0-.13 0Zm14.35.42c-.25.03-.4.17-.42.42 0 .05-.03.08-.07.1l-.27.17c-.05.03-.08.01-.09-.05l-.17-1.61c0-.06.02-.1.07-.12L34 41c.06-.03.1-.02.15.02l1.13 1.1c.04.04.04.09 0 .13-.18.14-.36.16-.54.05a.18.18 0 0 0-.12-.02Zm-11.68-.72-.32-.14a.07.07 0 0 0-.1.03l-.65 1.39c-.01.03 0 .08.04.1l.32.14c.03.02.08 0 .1-.03l.64-1.39a.07.07 0 0 0-.03-.1Zm8.82 2.21-.5-1.4c-.02-.05-.01-.09.04-.1.4-.18 1.27-.62 1.43-.05v.11l-.04.16c-.01.06 0 .1.06.12.3.13.4.36.28.69a.16.16 0 0 1-.09.1l-1.04.44a.1.1 0 0 1-.14-.07Zm-7.83-1.3.6.45c.04.04.07.08.07.14.12 1.01-1.28.78-1.45 0a.1.1 0 0 1 .07-.11c.14-.05.26-.01.36.11l.07.1c.05.15.15.23.3.24.04 0 .08 0 .11-.02.06-.04.1-.12.07-.19a.16.16 0 0 0-.07-.08c-1.5-.99.2-1.62.73-.62l.01.08c0 .08-.08.14-.17.13a.49.49 0 0 1-.4-.32c-.01-.05-.05-.07-.1-.07l-.15.01a.08.08 0 0 0-.08.06.08.08 0 0 0 .03.09Zm1.71 1.43c-.13.22-.3.25-.52.1-.03-.03-.04-.06-.02-.1l.75-1.36a.1.1 0 0 1 .1-.05l.4.05c.06 0 .1.03.1.1l.32 1.55a.07.07 0 0 1-.06.09c-.26.03-.43-.07-.52-.3a.1.1 0 0 0-.08-.07l-.37-.07a.1.1 0 0 0-.1.05Zm4.26.2c-.06.2-.2.28-.44.25-.06 0-.08-.03-.07-.08l.26-1.57a.1.1 0 0 1 .07-.08l.38-.1a.12.12 0 0 1 .14.06l.84 1.38c.02.05.01.07-.04.09l-.26.06h-.08a.14.14 0 0 1-.06-.04c-.18-.21-.4-.23-.68-.05a.15.15 0 0 0-.06.08Zm-1.85-.11h.68a.07.07 0 0 1 .07.06v.27c0 .04-.03.07-.07.07h-1.19a.07.07 0 0 1-.07-.07V42.8l.02-.05a.07.07 0 0 1 .05-.02h.38a.07.07 0 0 1 .06.07v1.12a.07.07 0 0 0 .07.07Z" fill="#F0F3FA"/><path d="M29.23 12.36c.08-.05.1-.14.06-.2-.05-.06-.14-.06-.21 0a.14.14 0 0 0-.06.2c.05.05.14.06.21 0ZM33.77 14c-.05-.03-.1-.06-.06-.1l.25-.32a.05.05 0 0 1 .09 0v.04l-.04.35c-.01.06-.04.09-.1.09a.2.2 0 0 1-.14-.06Z" fill="#415B3B"/><path d="M28.14 40.94a13.2 13.2 0 0 0 12.95-13.2 12.98 12.98 0 0 0-3.97-9.17 13.19 13.19 0 0 0-18.58.26 12.97 12.97 0 0 0 .26 18.43c2.5 2.4 5.86 3.73 9.34 3.68Z" fill="#151617"/><path d="M27.83 15.36c.44-.27 1.74.02 1.57.74a.14.14 0 0 1-.08.1c-.55.26-1.12.27-1.68 0-.43-.2-.07-.68.19-.84Zm-1.09.24c.19.12.26.28.21.5a.17.17 0 0 1-.07.1 1.9 1.9 0 0 1-1.6.3.21.21 0 0 1-.11-.06c-.17-.2-.18-.39-.04-.56.46-.56 1-.65 1.6-.28Zm4.01 1c.54.12 1.02.02 1.08-.22.06-.25-.33-.55-.86-.68-.54-.13-1.02-.03-1.08.21-.06.25.33.55.86.68Zm-6.37-.45c.17.08.26.22.26.43 0 .04-.01.08-.05.12-.46.43-1 .61-1.64.54a.13.13 0 0 1-.1-.07c-.12-.22-.13-.4-.02-.56.4-.58.92-.73 1.55-.46Zm8.75 1.22c.5.2.97.17 1.06-.05.1-.23-.24-.57-.73-.77-.5-.2-.98-.18-1.07.05-.1.22.24.57.74.77Z" fill="#E0394C"/><path d="M26.76 17a.02.02 0 0 1-.02-.02c0-.15.09-.3.22-.4a.8.8 0 0 1 .5-.15h.15c.09 0 .18.03.26.06a.7.7 0 0 1 .37.32c.03.07.04.14.04.22v.01h-.02l-1.5-.04Zm2.29.1a.1.1 0 0 1-.09-.11v-.04c.02-.13.1-.24.24-.32.13-.07.31-.1.49-.09l.1.02a.9.9 0 0 1 .26.06c.08.04.15.08.2.13.06.05.1.11.13.18.03.06.04.12.03.19v.03a.1.1 0 0 1-.12.1l-1.24-.15Zm-4.45.36h-.02a.03.03 0 0 1 0-.03h-.01a.5.5 0 0 1 .13-.42.74.74 0 0 1 .45-.24h.05a.81.81 0 0 1 .26 0 .7.7 0 0 1 .24.08.5.5 0 0 1 .17.15.4.4 0 0 1 .09.2v.02a.03.03 0 0 1-.01.02h-.01l-1.34.22Zm6.68.02a.03.03 0 0 1-.02-.02.03.03 0 0 1 0-.02.7.7 0 0 1 .39-.4.73.73 0 0 1 .55 0h.03a.7.7 0 0 1 .4.39c.08.17.08.37.02.54v.01l-.02.02h-.02l-1.33-.52Z" fill="#C9798B"/><path d="M20.98 18.65a.04.04 0 0 1-.05-.01l-.01-.02c-.15-.24-.2-.53-.14-.8a.95.95 0 0 1 .44-.61l.02-.02a1 1 0 0 1 .76-.1c.27.08.5.26.64.5l.01.02v.01a.04.04 0 0 1 0 .03h-.01l-1.66 1Z" fill="#E0394C"/><path d="M36.95 23.5c-.43.25-.82.74-1.38 1.12-.47.32-.7.76-1.32.95a.34.34 0 0 1-.42-.24c-.06-.23 0-.46.2-.68.42-.5.85-.94 1.14-1.54.05-.1.14-.22.28-.37.23-.23.34-.54.32-.9a.15.15 0 0 0-.05-.1c-.2-.17-.37-.09-.5.12-.22.37-.53.68-.92.93-.04.02-.08.02-.1-.02l-.3-.37c-.01-.03-.04-.04-.08-.02-.91.36-.74 1.4-1.55 1.67-.05.02-.1 0-.12-.04-.11-.16-.03-.35.1-.5.2-.22.31-.49.32-.8a.2.2 0 0 1 .05-.12c.51-.67.82-1.41 1.36-2.05a.16.16 0 0 0-.02-.23.17.17 0 0 0-.08-.03c-.96-.16-1.69 1-2.3 1.8-.38.52-.64.3-1.07.48-.45.19-.76.96-1.24.67a.17.17 0 0 1-.08-.1 4.33 4.33 0 0 0-2.34-2.68c-2.15-.99-4.07-.71-5.74.83a7.16 7.16 0 0 0-1.98 3.49c-.1.3-.33.45-.72.44-.25.04-.46 0-.6-.14a.12.12 0 0 1-.04-.11c.24-.89.55-1.52 1.02-2.35 1.4-2.5 3.72-4.2 6.51-4.89a9.55 9.55 0 0 1 3.12-.27c1.23.15 2.09.3 2.57.47 2.6.9 4.58 2.44 6.04 4.68.27.41.47.6-.08.9Z" fill="#A17F40"/><path d="M23.7 17.54a.1.1 0 0 1 .06.11 3.13 3.13 0 0 1-1.02.7.17.17 0 0 1-.23-.14c-.1-.8.63-.8 1.18-.67Z" fill="#C9798B"/><path d="M35.1 18.48c.45.3.92.37 1.05.17.13-.2-.14-.6-.6-.89-.45-.3-.92-.37-1.05-.17-.13.2.14.6.6.89Z" fill="#E0394C"/><path d="M32.96 18.34a.02.02 0 0 1-.01-.03.8.8 0 0 1 .42-.4.67.67 0 0 1 .26-.06c.1 0 .18.02.26.06l.33.15c.16.08.27.23.32.41.05.19.03.4-.06.58l-.01.01h-.01l-1.5-.72Z" fill="#C9798B"/><path d="M19.13 20.27a.1.1 0 0 1-.15-.01v-.02a1 1 0 0 1-.1-1.1.97.97 0 0 1 .26-.29l.02-.01a1 1 0 0 1 .73-.2 1 1 0 0 1 .66.38l.01.01a.1.1 0 0 1 .01.12.1.1 0 0 1-.03.03l-1.4 1.1Z" fill="#E0394C"/><path d="M20.87 19.67a.02.02 0 0 1-.03 0l-.01-.01a.45.45 0 0 1-.09-.17.5.5 0 0 1-.01-.2.56.56 0 0 1 .07-.2.61.61 0 0 1 .14-.17l.02-.02a.61.61 0 0 1 .4-.13.5.5 0 0 1 .2.04l.15.12v.01a.02.02 0 0 1 0 .03l-.84.7Z" fill="#C9798B"/><path d="M36.83 20.12c.36.39.8.57.97.41.17-.16.02-.6-.34-1-.37-.38-.8-.57-.98-.4-.17.16-.02.6.35 1Z" fill="#E0394C"/><path d="M35.11 19.58a.13.13 0 0 1-.03-.09.13.13 0 0 1 .03-.1h.02a.6.6 0 0 1 .21-.15.66.66 0 0 1 .27-.04c.09 0 .18.03.27.06.09.04.17.1.24.17l.04.04c.14.13.23.31.24.5a.62.62 0 0 1-.16.48l-.02.02a.13.13 0 0 1-.09.04.13.13 0 0 1-.1-.04l-.92-.9Zm-15.71.94c-.2.26-.3.52-.22.59.08.06.3-.11.5-.37.2-.27.3-.53.22-.6-.08-.05-.3.11-.5.38Z" fill="#C9798B"/><path d="M21.45 36.28a10.55 10.55 0 0 1-4.05-10.01c.08-.57.45-.74.98-.75.38.05.71-.02 1-.19a.15.15 0 0 0 .08-.1c.45-2.61 2-4.52 4.71-4.9.24-.04.63-.03.87.02a5.09 5.09 0 0 1 4.12 3.6.2.2 0 0 1 0 .13c-.28.8-.78 1.44-1.5 1.9a.2.2 0 0 1-.26-.05.18.18 0 0 1-.02-.1c-.03-.3 0-.6.1-.9a.1.1 0 0 0-.01-.09.1.1 0 0 0-.06-.05c-.1-.03-.21 0-.35.08a5.6 5.6 0 0 0-2.32 2.55.24.24 0 0 1-.09.1 27 27 0 0 1-2.79 1.65c-.93.47-1.75.21-2.55 1.08-.62.66.04 1.8.66 2.18.53.32 1.07.15 1.6.23 1.34.2 3.48.47 2.12 2.43a.12.12 0 0 1-.13.06 1.97 1.97 0 0 1-.94-.36.26.26 0 0 0-.35.05c-.39.5-.75.65-.65 1.39l-.01.06a.08.08 0 0 1-.05.03c-.05.02-.08 0-.1-.04Z" fill="#F0F3FA"/><path d="M17.88 22.27a.09.09 0 0 1-.12.03 1 1 0 0 1-.33-1.37v-.02a1 1 0 0 1 1.02-.46 1 1 0 0 1 .36.14.09.09 0 0 1 .05.05.09.09 0 0 1-.01.07l-.97 1.56Z" fill="#E0394C"/><path d="M36.57 21.12a.11.11 0 0 1 .03-.16l.03-.03a.62.62 0 0 1 .24-.1.68.68 0 0 1 .28 0 .84.84 0 0 1 .47.32l.03.05a.83.83 0 0 1 .15.54.67.67 0 0 1-.09.26.61.61 0 0 1-.18.2l-.03.02a.11.11 0 0 1-.12 0 .11.11 0 0 1-.04-.02l-.77-1.08Z" fill="#C9798B"/><path d="M38.24 21.98c.26.46.64.74.84.63.2-.11.15-.58-.11-1.04-.27-.47-.65-.75-.85-.64-.2.12-.15.59.12 1.05Z" fill="#E0394C"/><path d="M18 22.41c-.2.33-.26.65-.15.71.1.06.35-.16.54-.49.19-.33.26-.65.15-.7-.1-.07-.35.15-.54.48Z" fill="#C9798B"/><path d="M17.03 24.25a.23.23 0 0 1-.13.1c-.33.12-.53.04-.62-.25-.21-.77 0-1.63 1.01-1.48.05 0 .08.03.1.07.17.38-.13 1.15-.36 1.56Z" fill="#E0394C"/><path d="M37.82 23.03a.1.1 0 0 1 .05-.13h.01a.69.69 0 0 1 .52-.01c.16.06.3.19.36.35l.05.1a.65.65 0 0 1-.37.86h-.01a.1.1 0 0 1-.13-.04l-.48-1.13Z" fill="#C9798B"/><path d="M39.2 24.1c.18.54.5.93.7.86.2-.07.23-.56.06-1.1-.18-.53-.49-.92-.7-.85-.2.07-.23.56-.05 1.1Z" fill="#E0394C"/><path d="M37.67 31.78c-.5-.02-1.47-.23-1.74-.68a.25.25 0 0 1 .08-.34l.93-.61a.22.22 0 0 0-.12-.4h-.76a.2.2 0 0 1-.2-.15.2.2 0 0 1 .1-.21c.33-.18 1.12-.54 1.1-.96a.1.1 0 0 0-.08-.1.93.93 0 0 1-.58-.3.15.15 0 0 0-.2-.03c-.18.12 0 .46.05.62.01.04 0 .08-.02.12-.22.38-.72-.2-.85-.4a.1.1 0 0 1 0-.12c.16-.2.24-.41.26-.66 0-.04.02-.08.06-.1l.4-.32a.09.09 0 0 0-.01-.15l-.44-.24a.08.08 0 0 1-.04-.04v-.05a.3.3 0 0 1 .22-.19.15.15 0 0 0 .1-.08 1 1 0 0 1 .45-.45.14.14 0 0 0 .08-.1c.06-.28.45-.34.6-.68a.17.17 0 0 1 .1-.09l.1-.04a.13.13 0 0 0 .08-.1c.12-.56-.7-.6-.18-1.18l.14-.09a.2.2 0 0 1 .27.08 12 12 0 0 1 .76 2.15c.17.67-.81 1.1-1.3 1.4a.2.2 0 0 0-.09.21c.06.19.08.65.2.75.25.2.95-.47 1.17-.63a.1.1 0 0 1 .15.04.1.1 0 0 1 .02.05c0 .68.04 1.33-.1 1.99-.1.5-.25 1.83-.71 2.08Z" fill="#A17F40"/><path d="M17.11 24.97c-.37-.28.03-.73.33-.9a.07.07 0 0 1 .1.06c.03.27 0 .52-.13.77a.2.2 0 0 1-.22.1.2.2 0 0 1-.08-.03Z" fill="#C9798B"/><path d="M15.6 26.48c-.56-1.39 1.2-1.97 1.16-1.2a2.68 2.68 0 0 1-.47 1.35c-.24.3-.56.16-.69-.15Z" fill="#E0394C"/><path d="M38.65 25.67c.07.37.28.64.48.6.19-.04.29-.37.22-.73-.08-.37-.29-.64-.48-.6-.2.04-.3.37-.22.73Z" fill="#C9798B"/><path d="M39.87 26.55c.03.52.2.92.4.91.19 0 .32-.43.29-.94-.03-.52-.2-.92-.4-.91-.19 0-.31.43-.29.94Zm.06 2.91c-.06.5.05.94.24.96.19.02.38-.38.44-.89.06-.5-.05-.94-.24-.96-.18-.02-.38.38-.44.89Zm-.51 2.34c-.15.49-.13.93.05.99.18.05.45-.3.6-.78.16-.5.14-.94-.04-1-.18-.05-.45.3-.6.79Zm-.9 1.92c-.25.44-.32.88-.15.97.16.1.5-.2.75-.64.25-.45.32-.89.15-.98-.17-.1-.5.2-.75.65Z" fill="#E0394C"/><path d="M16.9 27.48v.02h-.02l-.1-.02a.23.23 0 0 1-.12-.07.4.4 0 0 1-.08-.16.72.72 0 0 1-.03-.2c0-.08 0-.16.03-.23v-.03a.9.9 0 0 1 .2-.39c.09-.09.19-.13.28-.11l.1.02.01.01v.02l-.26 1.14Zm22.46-.26h-.05a.3.3 0 0 0-.34.27l-.08.9a.3.3 0 0 0 .28.33h.04a.3.3 0 0 0 .34-.27l.08-.9a.3.3 0 0 0-.27-.33Z" fill="#C9798B"/><path d="M16 29.25c-1.15-.03-.5-1.58.09-1.94a.2.2 0 0 1 .29.13c.07.38.3 1.83-.38 1.8Zm14.18 8.88c-.56.21-.95.28-1.62.24-.35-.02-.66.12-1 .1a9.9 9.9 0 0 1-1.75-.23c-.26-.42.35-.75.43-1.13.14-.64-.23-.82-.36-1.35-.12-.48-.16-1.67-.9-1.5a.26.26 0 0 1-.3-.17c-.09-.26-.19-1.12-.46-1.25a9.3 9.3 0 0 0-2.04-.64c-.43-.08-.85.07-1.28-.3a.1.1 0 0 0-.13 0 .7.7 0 0 1-.49.13c-.13-.01-.18-.05-.19-.2 0-.1.08-.2.19-.21.38-.04.73-.17 1.05-.37a.2.2 0 0 0 .08-.2.19.19 0 0 0-.17-.14c-.16 0-1.3.4-1.31.14-.04-.84.37-1.25 1.23-1.22.05 0 .08.02.1.06.05.08.1.24.2.26.4.05.6-.1.58-.45 0-.06.02-.09.07-.09.24-.03.4-.06.45-.1.6-.44 2.24-1.66 2.71-1.36.57.37 1.2.53 1.89.5.05-.01.08.01.09.06.04.19.19.26.43.22.6-.1.8-.6 1-1.08a.14.14 0 0 1 .1-.09l.27-.05c.07-.01.16.05.17.13.06.42-.53 1.29-.7 1.68-.17.4-.34.33-.67.18a.13.13 0 0 0-.19.1c-.02.22-.18.69-.09.89.28.61 1.33.7 1.27 1.6-.07.88-.15 1.76.07 2.61.28 1.09.7 2.16 1.27 3.23Z" fill="#E0394C"/><path d="M17.12 29.82a.02.02 0 0 1-.02.01c-.05 0-.11 0-.17-.03a.47.47 0 0 1-.15-.13.74.74 0 0 1-.11-.2.94.94 0 0 1-.06-.25v-.05a.84.84 0 0 1 .09-.47c.07-.13.17-.21.29-.22a.02.02 0 0 1 .02 0v.02l.1 1.32Zm21.58-.29a.2.2 0 0 1 .15-.18h.1a.78.78 0 0 1 .66.88l-.02.13a.78.78 0 0 1-.88.66h-.02a.2.2 0 0 1-.17-.24l.17-1.25Z" fill="#C9798B"/><path d="M16.3 29.77c.53.32.5 1.26.48 1.8 0 .04-.02.08-.05.1-.58.5-1.61-1.26-.7-1.89a.24.24 0 0 1 .27 0Z" fill="#E0394C"/><path d="M17.09 31.5c.1.32.3.56.44.51.13-.04.15-.35.04-.68-.1-.33-.3-.56-.44-.51-.13.04-.15.34-.04.67Z" fill="#C9798B"/><path d="M36.94 32.48c.18.5.11.95-.2 1.36-.79 1.03-1.62 1.74-2.44 2.5-.34.31-.7.35-1.01.66a4.78 4.78 0 0 1-2 .89.59.59 0 0 1-.55.09c-.86-1.39-1.58-3.3-1.38-4.92.07-.5.05-.84.01-1.29 0-.04 0-.08.03-.12.24-.47 1.52.01 1.95.12 1.23.3 2.55.35 3.83.62.41.08.75-.07 1.11-.03.23.03.44.07.65.12Z" fill="#F0F3FA"/><path d="M38.06 32.28c-.13.4-.07.76.12.83.2.06.46-.2.6-.6.13-.39.07-.76-.12-.82-.2-.07-.46.2-.6.59Z" fill="#C9798B"/><path d="M16.56 33.3c.2.47.59.76.86.64.27-.11.32-.59.12-1.06-.2-.46-.58-.75-.85-.64-.27.12-.33.6-.13 1.06Z" fill="#E0394C"/><path d="M37.11 32.24c.19 0 .31.02.38.08.04.04.04.07 0 .11-.08.08-.18.1-.3.04-.06-.06-.08-.13-.08-.23Z" fill="#F0F3FA"/><path d="M18.86 34.06v.01l-.01.02a.38.38 0 0 1-.2.05.53.53 0 0 1-.21-.04.75.75 0 0 1-.21-.14.93.93 0 0 1-.17-.2l-.02-.04a.93.93 0 0 1-.1-.24.74.74 0 0 1-.03-.25.48.48 0 0 1 .07-.21.35.35 0 0 1 .13-.14.03.03 0 0 1 .03-.01l.01.01.7 1.18Zm18.66-.42c.45.44.42.87-.07 1.3-.13.1-.24.09-.35-.03l-.31-.34a.1.1 0 0 1-.02-.11c.14-.33.35-.6.63-.83a.1.1 0 0 1 .06-.02.1.1 0 0 1 .06.03Z" fill="#C9798B"/><path d="M18.96 35.34c.43.23.2.7-.25.72-.54.01-1.02-.87-1.14-1.27-.17-.52.56-.51.75-.2.23.39.45.64.64.75Z" fill="#E0394C"/><path d="M20.46 35.87v.03a.54.54 0 0 1-.22.12.65.65 0 0 1-.27.01.82.82 0 0 1-.27-.1.94.94 0 0 1-.24-.19l-.02-.01a.94.94 0 0 1-.16-.26.8.8 0 0 1-.07-.28c0-.1 0-.18.04-.26a.53.53 0 0 1 .14-.2v-.01a.02.02 0 0 1 .04 0l1.03 1.15Z" fill="#C9798B"/><path d="M37.19 35.44c-.34.43-.5.88-.34 1 .16.12.56-.12.9-.55.35-.43.5-.87.34-1-.15-.12-.56.13-.9.55Z" fill="#E0394C"/><path d="M36.02 36.44c.31-.23.46-.56.32-.74-.13-.17-.49-.13-.8.1-.3.24-.45.57-.32.74.13.18.5.13.8-.1Z" fill="#C9798B"/><path d="M20.85 37.4a.03.03 0 0 1 0 .04l-.14.15c-.11.11-.29.16-.49.12-.2-.03-.4-.14-.58-.3l-.08-.09a1.13 1.13 0 0 1-.33-.56c-.05-.2 0-.38.1-.5l.14-.13.02-.01h.03l1.33 1.28Z" fill="#E0394C"/><path d="m21.36 36.6.58.42c.14.24.15.37.02.4-.71.15-1.12-.11-1.23-.79a.2.2 0 0 1 .2-.24c.14 0 .29.07.43.2Z" fill="#C9798B"/><path d="M35 37.32a.63.63 0 0 0 .35-.17c.28-.15.9-.67 1.21-.33.35.4-1.35 1.83-1.7.95a.13.13 0 0 1 0-.11l.14-.34Z" fill="#E0394C"/><path d="M33.66 37.82a.23.23 0 0 1-.06-.33c.2-.27.46-.44.8-.51a.1.1 0 0 1 .1.04c.42.56-.27 1.16-.84.8Zm-10.38-.1.57.24c.66.77-.82.78-1.25.01a.17.17 0 0 1 .15-.25h.53Z" fill="#C9798B"/><path d="M21.79 38.92c.51.24 1.01.27 1.11.05.1-.21-.22-.59-.74-.83-.5-.24-1-.27-1.11-.05-.1.21.23.59.74.83Z" fill="#E0394C"/><path d="M31.41 38.77a.18.18 0 0 1-.1-.14.18.18 0 0 1 .07-.16c.27-.23.6-.37.97-.42a.29.29 0 0 1 .27.13.28.28 0 0 1 0 .3c-.27.48-.68.57-1.2.29Z" fill="#C9798B"/><path d="m34.02 38.17-1 .53a.34.34 0 0 0-.13.46l.02.03c.09.16.3.22.46.13l.98-.53c.17-.1.23-.3.14-.46l-.02-.02a.34.34 0 0 0-.45-.14Z" fill="#E0394C"/><path d="m25.22 38.43.48.08c.17.07.3.18.39.34.02.05.02.09 0 .13-.33.61-1.22.34-1.5-.19a.23.23 0 0 1 .19-.33l.44-.03Zm4.68 1.05c.43-.08.73-.35.68-.6-.05-.25-.43-.38-.86-.3-.42.09-.72.36-.67.6.05.25.43.39.86.3Zm-2.37.17c.43-.02.77-.24.76-.5-.01-.26-.37-.45-.8-.44-.42.02-.76.24-.75.5 0 .26.36.45.79.44Z" fill="#C9798B"/><path d="m24.9 39.47-1.13-.45c-.2-.08-.38.03-.45.21-.07.17.02.36.19.43l1.13.45c.19.08.37-.03.44-.2a.33.33 0 0 0-.18-.44Zm5.51.13a.16.16 0 0 1 .13-.19l.83-.15c.2-.04.42-.04.58-.01.16.03.26.1.27.17l.02.1c.02.08-.05.17-.2.26-.13.09-.33.16-.54.2l-.82.15a.17.17 0 0 1-.2-.13l-.07-.4Zm-3.19.28-1.18-.28a.35.35 0 0 0-.41.28c-.04.18.07.36.25.4l1.18.27c.2.05.36-.09.4-.27a.33.33 0 0 0-.24-.4Zm2.26-.06h-1.16c-.2 0-.32.17-.32.35 0 .18.15.32.32.32l1.17-.01c.17 0 .31-.15.31-.32 0-.18-.12-.35-.32-.34Z" fill="#E0394C"/><path d="M32.06 22.93c.12-.11.15-.28.06-.37-.08-.09-.25-.07-.37.04-.12.11-.15.28-.07.37.09.1.26.07.38-.04Zm-.49.33c.14.04.19.13.15.27a.62.62 0 0 1-.3.38.11.11 0 0 1-.12 0c-.4-.27-.2-.8.27-.65Z" fill="#A17F40"/><path d="M30.01 23.54c-.05.14-.05.28.02.3.06.03.16-.07.22-.21.05-.14.04-.28-.02-.3-.07-.03-.16.07-.22.2Z" fill="#8AAA71"/><path d="M30.6 25.45c-.63-.42-.1-.92.36-1.1a.08.08 0 0 1 .11.04.9.9 0 0 1-.26 1.05.16.16 0 0 1-.2.01Zm1.43.15c.2-.08.34-.2.31-.26-.02-.06-.2-.05-.4.04-.2.08-.35.2-.32.26.03.06.2.05.4-.04Zm1.75.25c.53.48-.67 1.39-1.01 1.7a.27.27 0 0 0-.08.1c-.2.54-.57.54-.9.88-.17.17-.28.32-.52.39-.68.18-1.25.37-1.96.4-.05 0-.07-.02-.08-.06-.17-.58.14-1.14.46-1.72a.1.1 0 0 0-.01-.1l-.2-.24c-.03-.04-.02-.07.02-.1.66-.43 1.52-.6 2.23-.9.18-.07.47-.09.68-.28.47-.42.84-.57 1.37-.07Zm-8.44 1.71a.23.23 0 0 1-.12-.28c.2-.66.76-1.58 1.53-1.68.05 0 .07.02.07.07 0 .4-.61 1.25-.83 1.64-.15.28-.35.39-.65.25Zm3.63-.93-1.4.83c-.05.03-.1.02-.14-.03-.82-1.13 1.94-1.7 2.3-1.04a.13.13 0 0 1-.01.16.13.13 0 0 1-.05.03c-.2.07-.4.08-.6.03-.04 0-.07 0-.1.02Zm4.84.77c.16-.56.25-1 .95-1.12.04 0 .06.01.07.05.16.48.01.78-.44.91a.25.25 0 0 0-.09.05l-.27.25a.13.13 0 0 1-.08.03.13.13 0 0 1-.14-.17Zm.07.5a.17.17 0 0 1 0 .23l-.06.05c-.2.18-.4.34-.58.42-.17.1-.3.11-.35.06l-.14-.15c-.03-.03-.03-.08-.02-.13a.76.76 0 0 1 .1-.22l.2-.26c.08-.1.17-.19.27-.28.08-.08.2-.14.3-.04l.28.31Zm-5.81.18c.16-.06.26-.18.22-.28-.04-.1-.2-.12-.35-.06-.16.06-.25.18-.22.28.04.1.2.12.35.06Zm-1.34.28c.14.04.26.01.28-.06.03-.07-.07-.16-.2-.2-.14-.04-.26-.01-.29.06-.02.07.07.16.21.2Zm5.57.72c.13.16.31.22.43.14.11-.09.1-.28-.01-.44-.12-.16-.3-.22-.42-.13-.11.08-.11.28 0 .43Zm2.65.36c-.13.22-.74.29-.99.35a.2.2 0 0 1-.18-.03c-.5-.4.98-.39.66-.84-.13-.17.11-.4.28-.25l.47.38a.1.1 0 0 1 .02.12.5.5 0 0 1-.17.18.3.3 0 0 0-.09.09Zm-2.85-.02c-.17-.02-.23-.1-.19-.28a.06.06 0 0 1 .05-.05.06.06 0 0 1 .06.02l.16.15a.1.1 0 0 1-.07.16Zm-1.32.28c-.08.1-.09.22-.03.26.07.04.18 0 .25-.1.07-.11.08-.23.02-.27-.06-.05-.17 0-.24.1Zm2.35.66c.22-.05.36-.23.32-.38-.04-.16-.25-.24-.47-.18-.22.06-.36.23-.32.39.05.15.25.23.47.17Zm-3.66-.05a.1.1 0 0 1-.07-.1c.03-.44.65-.38.93-.35.14.02.16.22.02.26a1 1 0 0 0-.45.26.13.13 0 0 1-.15.03l-.28-.1Zm5 .05a.08.08 0 0 1-.06-.06.07.07 0 0 1 .04-.07c.23-.16.78-.58.95-.12.06.14.01.23-.13.27a1.4 1.4 0 0 1-.8-.02Z" fill="#F0F3FA"/><path d="M29 30.04a.2.2 0 0 1 .05.32l-.55.48a.22.22 0 0 1-.36-.11c-.12-.5.4-.9.86-.69Z" fill="#E0394C"/><path d="m32.44 31 .51.07c.07 0 .1.07.08.13-.16.35-2.22-.14-2.61-.25-.12-.03-.13-.2-.02-.24.25-.1.5-.23.74-.4.2-.13.9-.31 1.11-.23.24.08.13.68.12.84 0 .05.03.08.07.08Zm1.2.58a.04.04 0 0 1-.04-.04v-.06c0-.04.02-.09.04-.13a.37.37 0 0 1 .11-.11c.05-.03.1-.06.17-.07a.72.72 0 0 1 .2-.03h.04c.13 0 .26.04.36.1.09.07.14.16.14.25v.06a.04.04 0 0 1-.04.04l-.98-.01Z" fill="#F0F3FA"/><path d="M22.09 35.55c.1-.62.85-.26.82-.08a.12.12 0 0 1-.16.09.72.72 0 0 0-.58.05.06.06 0 0 1-.06 0l-.02-.03v-.03Z" fill="#8AAA71"/><path d="M24.77 35.32a.2.2 0 0 1-.14.37 1.41 1.41 0 0 1-.45-.12.14.14 0 0 1-.02-.24c.2-.15.41-.16.61-.01Z" fill="#F0F3FA"/><path d="M23.73 36.52c.09.1.18.17.28.24A.14.14 0 0 1 24 37a.14.14 0 0 1-.09.03 3.32 3.32 0 0 1-1.65-.58c-.27-.18-.4-.14-.32-.6a.14.14 0 0 1 .1-.1.14.14 0 0 1 .14.04c.25.31.56.5.94.6a.1.1 0 0 0 .12-.05l.3-.38c.03-.05.07-.05.12-.02l.08.05a.08.08 0 0 1 .04.07.08.08 0 0 1-.03.07c-.08.06-.11.16-.08.29.01.04.03.08.06.11Z" fill="#8AAA71"/><path d="M24.3 36.13c.45-.28 2.03.35 1.48 1.23-.03.05-.07.06-.12.02l-.16-.12a.36.36 0 0 0-.15-.06c-.2-.03-.3-.15-.3-.37a.1.1 0 0 0-.08-.1c-.27-.05-.74-.14-.73-.49 0-.05.02-.09.06-.11Z" fill="#F0F3FA"/><path d="M24.88 29.31a.17.17 0 0 1 .07.23c-.2.37-.49.45-.9.25a.24.24 0 0 1-.12-.25c0-.03.02-.06.04-.09l.27-.39a.12.12 0 0 1 .15-.03l.49.28Zm.8.9c.24-.19.37-.41.3-.5-.07-.09-.32 0-.56.19-.24.19-.37.41-.3.5.07.09.32 0 .56-.19Zm-2.64.35a.06.06 0 0 1-.05.07l-.02.01c-.19.05-.37.08-.51.08s-.22-.01-.24-.05v-.04c-.01-.02 0-.04.03-.07a.64.64 0 0 1 .14-.09 1.94 1.94 0 0 1 .5-.17h.02a.06.06 0 0 1 .05 0 .06.06 0 0 1 .02.04l.06.22ZM27.72 32c.08.06.1.14.02.22-.57.68-1.57.74-2.35.37-.57-.27-1.13-.36-1.68-.64a.11.11 0 0 1-.05-.11.1.1 0 0 1 .07-.1c.33-.08.63-.13.93-.15.7-.04.9.52 1.48.57.45.04.88-.06 1.28-.3a.11.11 0 0 1 .13 0l.17.14Zm-.3 2.2a.17.17 0 0 1-.08-.2c0-.03.02-.05.04-.07l.15-.15a.2.2 0 0 0 .06-.12c.04-.36.2-.66.47-.9.04-.03.08-.03.1.01.2.26 0 1.12-.07 1.44-.08.3-.1.6-.06.93 0 .04.03.09.05.13.13.16.12.34-.02.52a.22.22 0 0 1-.36 0 .23.23 0 0 1-.04-.12c-.04-.4.17-1.23-.24-1.47Zm1.01 1.94a.3.3 0 0 1 .2.36c-.15.6.12.84.1 1.4 0 .05-.01.09-.05.12a.65.65 0 0 1-.56.2c-.06 0-.09-.04-.1-.09-.03-.29-.18-2.16.41-2Z" fill="#151617"/><path d="M43.4 31.12a.1.1 0 0 1 .07.08.1.1 0 0 1 0 .05v.03a.38.38 0 0 1-.17.24.36.36 0 0 1-.27.05l-.2-.05a.35.35 0 0 1-.23-.16.37.37 0 0 1-.05-.28l.01-.03a.1.1 0 0 1 .13-.09l.7.16Zm-7.69 9.41c-.06-.09.03-.15.1-.19a.35.35 0 0 1 .39.03l.1.11.08.13a.4.4 0 0 1 .06.28.32.32 0 0 1-.14.22l-.06.04a.11.11 0 0 1-.15-.03l-.38-.6Zm-15.08.97.3-.27a.06.06 0 0 1 .1.02v.04l-.11.38a.06.06 0 0 1-.1.03l-.18-.11a.06.06 0 0 1 0-.1Zm13.49.56a.86.86 0 0 1-.06-.42c.01-.05.04-.06.08-.02l.24.24c.05.04.04.08 0 .12l-.14.1a.08.08 0 0 1-.12-.02Zm-1.98.6c.12-.05.19-.17.15-.25-.04-.1-.17-.12-.29-.07-.12.05-.19.17-.15.25.04.1.17.12.29.07Zm.25.61c.13-.05.2-.17.16-.26-.03-.1-.17-.13-.3-.07-.14.05-.21.17-.17.26.03.1.17.13.3.07Zm-6.26-.22.05.42c0 .05-.02.08-.07.08h-.17a.07.07 0 0 1-.07-.1c.01-.02.25-.56.26-.4Zm3.91.07c.02 0 .05 0 .06.03.03.07.24.35.21.44-.02.07-.3.12-.34.04-.02-.03-.02-.5.07-.51Z" fill="#415B3B"/><path d="m40.83 35.48.39.62.71.18-.47.55.05.73-.68-.27-.68.27.05-.73-.47-.55.71-.18.39-.62Zm-25.35 0 .39.62.71.18-.47.55.05.73-.68-.27-.68.27.05-.73-.47-.55.71-.18.39-.62Zm10.33-23.32v.28c0 .03 0 .05.03.06.02.01.04.02.07 0 .03 0 .06-.02.09-.04a.24.24 0 0 0 .05-.1c.14-.35.4-.5.8-.43h.02c.02.02.03.06.01.08l-.38.5a.1.1 0 0 0 0 .11l.62.8c.03.03 0 .08-.03.09l-.41.05a.14.14 0 0 1-.14-.06l-.32-.47a.07.07 0 0 0-.1-.01c-.18.14-.23.33-.16.57.02.04 0 .06-.04.07l-.36.06a.09.09 0 0 1-.08-.04l-.01-.04-.18-1.45c0-.05.03-.1.08-.1l.34-.03c.07 0 .1.03.1.1Z" fill="#F0F3FA"/></svg>