<!-- by TradingView --><svg width="56" height="56" viewBox="0 0 56 56" xmlns="http://www.w3.org/2000/svg"><path fill="#F0F3FA" d="M0 0h56v56H0z"/><path d="M30.48 25.03c-4.5 0-15.14 1.46-19.9 2.2L10 28.9a111.9 111.9 0 0 1 21.74-2.27c9.33 0 16.36 3.3 18.7 4.95l1.1.42.46-.42a10.9 10.9 0 0 1-2.16-.87c-9.96-6.48-13.74-5.68-19.36-5.68Z" fill="url(#aemlqkdm3)"/><path fill-rule="evenodd" d="M7.96 24.2C5.68 24.2 5 26.3 5 27.93c0 1.62.66 3.87 2.97 3.87S11 29.78 11 28.1c0-1.73-.62-3.92-3.04-3.92Zm.01.8C6.45 25 6 26.67 6 27.95 6 29.23 6.44 31 7.98 31S10 29.4 10 28.08C10 26.73 9.59 25 7.97 25Z" fill="#B2D38C"/><path fill-rule="evenodd" d="M12 27.95A3.95 3.95 0 0 0 8.08 24 4 4 0 0 0 4 27.97C4 30.11 5.6 32 7.98 32A4.01 4.01 0 0 0 12 27.95Zm-4.04-3.54C5.68 24.41 5 26.46 5 28c0 1.53.66 3.6 2.97 3.6S11 29.58 11 28c0-1.63-.62-3.59-3.04-3.59Z" fill="#125070"/><path d="M6.52 27.97C6.52 27.1 6.86 26 8 26c1.2 0 1.52 1.15 1.52 2.06C9.52 28.94 9.16 30 8 30c-1.15 0-1.48-1.18-1.48-2.03Z" fill="url(#bemlqkdm3)"/><path d="m17.83 29.79.17.04-.6 2.17H12v-.22c.79 0 1-.43 1-1.2v-5.16c0-.82-.17-1.2-1-1.2V24h3v.22c-1-.01-1 .41-1 1.33v5.03c0 .85.26.91 1.08.91h.5c1.28 0 1.82-.5 2.25-1.7ZM21.68 24H24v.22c-.4 0-.7.22-.94.52-.14.17-.3.45-.5.83L21 28.6v2c0 .78.2 1.17 1 1.17V32h-3v-.22c.8 0 1-.4 1-1.17v-1.89l-1.8-3.35c-.25-.46-.58-1.15-1.2-1.15V24h2.84v.22c-.34 0-.76.1-.76.52 0 .14.1.4.3.76l1.38 2.58 1.3-2.46c.2-.37.3-.65.3-.83 0-.4-.31-.57-.68-.57V24Zm7.47 8-2.7-6.73v5.34c0 .81.16 1.17.99 1.17V32H25v-.22c.82 0 1-.38 1-1.17V25.4c0-.74-.2-1.17-1-1.17V24h1.98l2.54 6.26 2.5-6.26H34v.22c-.77 0-1 .41-1 1.17v5.22c0 .81.18 1.17 1 1.17V32h-2.97v-.22c.82 0 .97-.38.97-1.17v-5.34L29.32 32h-.17ZM37 28.22v2.36c0 .79.19 1.2 1 1.2V32h-3v-.22c.82 0 1-.43 1-1.2v-5.16c0-.78-.18-1.2-1-1.2V24h2.4c1.39 0 2.6.68 2.6 2.21 0 1.22-.76 2.17-2.03 2.17-.31 0-.55-.05-.97-.16Zm0-.34c.34.08.48.12.66.12.86 0 1.34-.95 1.34-1.67 0-.85-.51-1.85-1.5-1.85-.16 0-.24.04-.5.11v3.3Zm7 3.9V32h-3v-.22c.84 0 1-.39 1-1.2v-5.16c0-.82-.15-1.2-1-1.2V24h3v.22c-.83 0-1 .39-1 1.2v5.16c0 .82.15 1.2 1 1.2Zm5.12-2.35H46.2l-.51 1.19c-.13.3-.19.53-.19.68 0 .42.56.46.87.49V32H44v-.21c.74-.14.97-.68 1.24-1.35L47.89 24h.2l2.62 6.5c.26.65.53 1.24 1.29 1.29V32h-2.97v-.21c.3-.02.76-.09.76-.48 0-.17-.07-.44-.22-.8l-.45-1.08Zm-.16-.43-1.28-3.2-1.3 3.2h2.58Z" fill="#125070"/><defs><linearGradient id="aemlqkdm3" x1="52" y1="31.48" x2="7.74" y2="31.48" gradientUnits="userSpaceOnUse"><stop stop-color="#8BADAE"/><stop offset=".55" stop-color="#9FC796"/><stop offset="1" stop-color="#8CB794"/></linearGradient><linearGradient id="bemlqkdm3" x1="10" y1="28" x2="7" y2="28" gradientUnits="userSpaceOnUse"><stop stop-color="#4B7CA3"/><stop offset="1" stop-color="#D9E1B9"/></linearGradient></defs></svg>