<!-- by TradingView --><svg width="56" height="56" viewBox="0 0 56 56" xmlns="http://www.w3.org/2000/svg"><path fill="#F0F3FA" d="M0 0h56v56H0z"/><path d="M36.13 32.92C30.78 37.34 26.63 39 24.39 39 17.71 39 13 27.64 13 22.91S25.78 11 32.95 11 43 20.6 43 22.91c0 2.31-.19 4.47-6.87 10Z" fill="url(#a5lj101nz)"/><path d="M30 43.32c0-1.87-2.63-3.32-4.23-3.32-1.79 0-2.77 3.32-2.77 4.85 0 1.52 2.44 2.15 4.08 2.15 1.64 0 2.92-1.33 2.92-3.68Z" fill="#BA0D2B"/><defs><linearGradient id="a5lj101nz" x1="28" y1="11" x2="28" y2="39" gradientUnits="userSpaceOnUse"><stop stop-color="#0679C0"/><stop offset="1" stop-color="#95C3E7"/></linearGradient></defs></svg>