<!-- by TradingView --><svg width="56" height="56" viewBox="0 0 56 56" fill="none" xmlns="http://www.w3.org/2000/svg">
<rect width="56" height="56" fill="#F0F3FA"/>
<path fill-rule="evenodd" clip-rule="evenodd" d="M39.3137 39.3137C42.3143 36.3131 44 32.2435 44 28C44 25.8989 43.5862 23.8183 42.7821 21.8771C41.978 19.9359 40.7995 18.172 39.3137 16.6863C37.828 15.2006 36.0642 14.022 34.1229 13.2179C32.1817 12.4139 30.1012 12 28 12C23.7565 12 19.6869 13.6857 16.6863 16.6863C13.6857 19.6869 12 23.7565 12 28C12 32.2435 13.6857 36.3131 16.6863 39.3137C18.172 40.7995 19.9359 41.978 21.8771 42.7821C23.8183 43.5862 25.8989 44 28 44C32.2435 44 36.3131 42.3143 39.3137 39.3137ZM40.1502 20.3217C41.2396 21.3796 42.0069 22.6306 42.4083 24.0031C43.2188 26.775 42.4897 29.874 40.3812 32.6182C38.2728 35.3624 34.9577 37.5271 31.1653 38.6361C29.2875 39.1852 27.349 39.4586 25.4606 39.4407C23.5721 39.4228 21.7706 39.1138 20.159 38.5316C18.5474 37.9493 17.1572 37.1052 16.0678 36.0472C14.9784 34.9893 14.2111 33.7384 13.8098 32.3659C12.9992 29.5939 13.7283 26.495 15.8368 23.7507C17.9453 21.0065 21.2603 18.8418 25.0527 17.7328C26.9305 17.1837 28.869 16.9103 30.7575 16.9283C32.6459 16.9462 34.4474 17.2551 36.059 17.8374C37.6706 18.4196 39.0608 19.2638 40.1502 20.3217ZM19.9983 29.9295C19.9958 29.6961 19.9933 29.4628 20 29.2297C20.0005 29.2059 20.0507 29.1927 20.0726 29.1902C20.4051 29.1553 20.7797 29.1694 21.1646 29.1837C21.6994 29.2037 22.254 29.2245 22.7433 29.1158C24.226 28.7882 25.1875 27.5656 24.8143 25.9038C24.6082 24.9858 23.8941 24.3447 23.0605 24.1057C22.8485 24.0447 22.5054 24.0139 22.0312 24.0134C20.3593 24.0119 18.6877 24.0075 17.0163 24C16.7927 23.999 16.6299 24.073 16.5279 24.2219C16.2854 24.5755 16.5859 24.7833 16.8535 24.9158C17.1225 25.0491 17.2902 25.2695 17.2902 25.5896C17.2925 27.3507 17.2928 29.1136 17.2909 30.8781C17.2909 30.9049 17.2797 30.9245 17.2574 30.937C17.1997 30.9691 17.1298 31.0007 17.0565 31.0339C16.8635 31.1212 16.6468 31.2192 16.5663 31.3666C16.2959 31.8632 17.0247 31.9972 17.2916 31.9979C18.1893 32.0009 19.0869 32.0007 19.9846 31.9972C20.3123 31.9964 20.9328 31.9369 20.8294 31.45C20.7833 31.2323 20.6142 31.1489 20.4406 31.0633C20.2218 30.9553 19.9957 30.8439 20 30.4552C20.002 30.2799 20.0001 30.1047 19.9983 29.9295ZM20 27.888V25.3685C19.9996 25.3326 20.0446 25.2989 20.0817 25.2985L20.967 25.2903C21.804 25.2824 22.0701 26.0656 22.0766 26.7571C22.0817 27.3639 21.6212 27.9941 20.9894 28H20.1041C20.0669 28.0004 20.0004 27.9239 20 27.888ZM28.0178 28.7007V30.5639C28.0178 30.5852 28.0278 30.5961 28.0478 30.5966C28.9446 30.6224 29.511 30.6319 29.7472 30.6249C30.3013 30.607 31.0699 29.9448 31.4738 29.5966C31.8448 29.2766 32.2354 29.6769 32.0139 30.0594C31.6445 30.6978 31.2339 31.3234 30.782 31.936C30.7513 31.9782 30.711 31.9993 30.6612 31.9993C28.822 31.9998 26.9685 32 25.1005 32C24.626 32 24.1907 31.4665 24.7588 31.1711C24.784 31.158 24.8108 31.1445 24.8386 31.1306C25.0472 31.0262 25.3094 30.895 25.3094 30.6658C25.3104 28.8716 25.3106 27.0775 25.3101 25.2838C25.3101 25.1915 25.2228 25.1119 25.1389 25.0717C24.8469 24.9311 24.1893 24.5828 24.7022 24.1557C24.8247 24.0535 24.9705 24.0022 25.1396 24.0017C27.0146 23.9997 28.8894 23.9995 30.7639 24.001C30.7749 24.0009 30.7857 24.0038 30.7955 24.0092C30.8052 24.0147 30.8135 24.0226 30.8198 24.0322C31.1268 24.5119 31.4403 25.0452 31.7603 25.632C32.007 26.0852 31.6981 26.6418 31.2502 26.176C31.1973 26.1209 31.1448 26.0641 31.0923 26.0073L31.0922 26.0072C30.8074 25.6992 30.5251 25.3939 30.1965 25.382C29.4805 25.3557 28.7771 25.3747 28.0443 25.397C28.0224 25.3978 28.0034 25.4186 28.0038 25.4417V27.2757C28.0043 27.307 28.0192 27.3226 28.0485 27.3226C28.2488 27.3231 28.6809 27.3233 29.3447 27.3233C29.8716 27.3233 30.0604 27.1364 30.3809 26.8193L30.3809 26.8192C30.4239 26.7767 30.4691 26.7319 30.5179 26.6849C30.5355 26.6685 30.5577 26.6591 30.5808 26.6581C31.1433 26.6373 30.9784 27.1946 30.7883 27.4908C30.3886 28.1123 29.9878 28.7329 29.5858 29.3525C29.4649 29.5385 29.3244 29.6613 29.1008 29.5995C28.7417 29.5006 28.8514 29.0467 28.9359 28.7736C28.9394 28.7627 28.9403 28.7511 28.9387 28.7397C28.9371 28.7283 28.933 28.7175 28.9267 28.7082C28.9205 28.6988 28.9122 28.6912 28.9026 28.6859C28.8931 28.6805 28.8825 28.6777 28.8717 28.6776L28.0541 28.6627C28.0299 28.6627 28.0178 28.6754 28.0178 28.7007ZM32.3204 31.3579C32.2267 31.5667 32.2777 31.755 32.4734 31.9228C32.5114 31.955 32.5584 31.9725 32.6068 31.9725L39.1472 32C39.1598 32.0002 39.1722 31.9967 39.183 31.9899C39.1939 31.9831 39.2027 31.9732 39.2087 31.9614C39.5757 31.2522 39.9195 30.5309 40.24 29.7974C40.2455 29.7848 40.251 29.7722 40.2565 29.7597C40.3644 29.5128 40.4615 29.2907 40.2959 29.1071C40.0905 28.8792 39.8403 29.018 39.6538 29.214C39.5443 29.3292 39.4373 29.4538 39.3292 29.5795C38.8843 30.097 38.4225 30.6343 37.7119 30.62C37.0942 30.6076 36.4756 30.6021 35.856 30.6036C35.8314 30.6036 35.8183 30.5905 35.8169 30.5643C35.7969 30.1882 35.7901 29.8118 35.7966 29.4352C35.8067 28.8223 35.8022 28.2086 35.7977 27.5951C35.792 26.8072 35.7862 26.0194 35.8113 25.2335C35.8123 25.2082 35.8209 25.1865 35.8372 25.1681C35.9322 25.057 36.0619 24.985 36.1835 24.9175C36.3014 24.8521 36.4118 24.7908 36.4758 24.7019C36.6575 24.4495 36.5261 24.0064 36.1803 24.0034C35.0897 23.994 32.9094 24 32.9094 24C32.683 24.0064 32.5319 24.09 32.4559 24.183C31.9987 24.7425 32.5433 24.9627 32.9031 25.1082C32.9166 25.1137 32.9299 25.1191 32.9429 25.1243C32.9914 25.1441 33 25.1813 33 25.2357V30.5628C33 30.8259 32.8324 30.9292 32.6579 31.0367C32.5262 31.1179 32.3907 31.2014 32.3204 31.3579Z" fill="#017DC7"/>
</svg>
