<!-- by TradingView --><svg width="56" height="56" viewBox="0 0 56 56" xmlns="http://www.w3.org/2000/svg"><path fill="#F0F3FA" d="M0 0h56v56H0z"/><path d="M30.82 12.25a14.8 14.8 0 0 1 6.86 3.55.05.05 0 0 1-.02.04l-.05.05h-.02l-1.18-.95a14.44 14.44 0 0 0-8.52-2.78c-1.17 0-2.26.13-3.27.4a83.24 83.24 0 0 0-1.48.4l-.03-.06v-.04l.02-.02h.01a14.86 14.86 0 0 1 7.68-.59Z" fill="#AB909A"/><path d="M28.74 12.61c-.17.23-.36.35-.56.34-.4-.02-.63-.03-.7-.05a.3.3 0 0 1-.15-.07.28.28 0 0 1-.09-.13.21.21 0 0 1 .01-.15.2.2 0 0 1 .1-.1c.14-.05.28.03.45.25a.2.2 0 0 0 .22.08c.03-.01.06-.06.1-.13.04-.06.1-.1.17-.13s.2-.05.39-.04a.08.08 0 0 1 .07.04.08.08 0 0 1 0 .1ZM25.96 13.17c-.28.05-.56-.01-.83-.18a.13.13 0 0 1 .01-.23c.27-.13.48-.07.63.2.02.04.08.06.16.05.08-.02.13-.05.13-.11.05-.3.22-.43.52-.4a.13.13 0 0 1 .11.14c0 .02 0 .04-.02.06-.2.26-.43.41-.71.47ZM29.83 12.83c-.02.11-.07.17-.16.2a.56.56 0 0 1-.39-.34.14.14 0 0 1 .02-.14.14.14 0 0 1 .12-.06c.22.02.35.14.4.34Z" fill="#6F2B47"/><path d="M29.67 13.03c.09-.03.14-.09.16-.2.02.09.06.14.14.15.05 0 .13-.03.24-.1.22-.15.43-.2.62-.17.01 0 .03 0 .04.02a.09.09 0 0 1 0 .12c-.21.22-.37.34-.46.35-.97.17-1.84.23-2.62.19a7.73 7.73 0 0 0-1.44.02.07.07 0 0 1 0-.11c.23-.12.7-.13 1.42-.04l.42.04c.08 0 .17 0 .25-.03.3-.08.61-.1.94-.06.2.03.3-.03.3-.18Z" fill="#AB909A"/><path d="M24.42 13.33c.14-.16.2-.33.12-.4-.08-.07-.25 0-.39.16-.13.16-.18.34-.11.4.08.07.25 0 .38-.16ZM31.85 13.25l-.01.13a.11.11 0 0 1-.08.08.26.26 0 0 1-.12 0 .71.71 0 0 1-.24-.31c-.07-.2 0-.26.18-.2.11.02.2.13.27.3ZM23.53 13.3a2.43 2.43 0 0 1 .37.2.08.08 0 0 1-.03.12.56.56 0 0 1-.45.05.56.56 0 0 1-.35-.28.08.08 0 0 1 .08-.13c.2.02.32.03.38.05Z" fill="#6F2B47"/><path d="M32.15 13.49c0 .17.06.25.2.23 0 .06 0 .11.03.16 0 .02.14.08.4.17l.35.14a46.6 46.6 0 0 1 2.38 1.33v.02l-.03.08-.01.02a.06.06 0 0 1-.05.01h-.02c-1.4-.9-2.52-1.46-3.35-1.67a14.23 14.23 0 0 0-1.7-.41.06.06 0 0 1-.01-.05.06.06 0 0 1 .05-.04c.35-.07.72-.01 1.12.16a.12.12 0 0 0 .15-.06.1.1 0 0 0-.02-.12h.12a.11.11 0 0 0 .08-.08.32.32 0 0 0 .02-.13c0 .17.1.25.3.24Z" fill="#AB909A"/><path d="M32.35 13.72c-.14.02-.2-.06-.2-.23a.73.73 0 0 1 .55-.25.15.15 0 0 1 .13.23c-.1.13-.26.22-.48.25Z" fill="#6F2B47"/><path d="M25.82 13.47c0 .05-.28.13-.87.25-.58.12-.88.15-.9.1 0-.04.29-.13.87-.24.59-.12.89-.15.9-.1Z" fill="#AB909A"/><path d="M33.33 13.58c.05-.03.18.04.41.21a.2.2 0 0 1 .08.12c.02.12 0 .2-.04.24-.04.03-.12.03-.24-.02a.2.2 0 0 1-.1-.1c-.12-.26-.15-.41-.1-.45ZM21.16 14.26a.07.07 0 0 1 0-.06l.03-.02H21.89a.25.25 0 0 0 .24-.18c.05-.17.16-.3.33-.39a.1.1 0 0 1 .13.04l.02.05c0 .04-.03.13-.1.27a.36.36 0 0 1-.17.18c-.42.18-.68.28-.78.3-.2.05-.33-.02-.4-.2Z" fill="#6F2B47"/><path d="M29.03 15.45v-.06a.06.06 0 0 0-.06-.05c-.36-.02-.53-.16-.5-.42a.31.31 0 0 1 .19-.25.32.32 0 0 1 .32.04 3.63 3.63 0 0 1 .41.4.07.07 0 0 0 .06 0l.03-.02.04-.02.01-.01a.02.02 0 0 0 0-.02l-.4-.44a.1.1 0 0 1-.02-.03c-.06-.21.07-.35.4-.4a.18.18 0 0 1 .2.12v.08a.76.76 0 0 0 .01.27.22.22 0 0 0 .15.18.2.2 0 0 0 .22-.07c.1-.12.07-.29-.1-.5-.4-.5-.9-.4-1.54.27l-.2.22c-.9.98-1.72 1.3-2.48.98a.5.5 0 0 1-.2-.15 1.1 1.1 0 0 1-.23-.84c.03-.35.2-.59.48-.73.42-.2.8-.28 1.14-.22.56.1.92.1 1.07 0a.09.09 0 0 1 .1 0 .09.09 0 0 1 .04.1c-.04.2-.17.37-.4.48-.15.07-.27.05-.34-.08a.14.14 0 0 0-.07-.06l-.5-.2a.09.09 0 0 0-.1.03.09.09 0 0 0 0 .1c.08.14.22.23.41.26.1.01.15.05.19.1.03.04.03.1.02.17a.33.33 0 0 1-.27.26.28.28 0 0 1-.18-.03.27.27 0 0 1-.12-.13c-.01-.03-.1-.1-.28-.24a.06.06 0 0 0-.1.06c.03.13.11.25.24.36a.15.15 0 0 1 .04.17.6.6 0 0 1-.17.22.3.3 0 0 1-.31.03.23.23 0 0 1-.1-.1.21.21 0 0 1-.01-.15c.06-.22.04-.36-.07-.43a.18.18 0 0 0-.15-.02.22.22 0 0 0-.12.1.38.38 0 0 0-.06.18c0 .07.01.14.04.2.07.15.2.28.37.38.37.22 1.03-.18 1.99-1.18l.14-.15c.32-.32.71-.5 1.18-.54.1 0 .19 0 .28.03.5.15.76.48.8 1 .06.78-.73 1.15-2.38 1.12a21.55 21.55 0 0 0-.44-.02.11.11 0 0 1-.01-.18l.3-.3a.29.29 0 0 1 .32-.06l.6.26a.08.08 0 0 0 .12-.07Z" fill="#89898A"/><path d="M16.85 17.66a16.18 16.18 0 0 0-2.32 4.82.06.06 0 0 1-.04.01c-.04 0-.06-.03-.05-.08.4-1.69 1.16-3.3 2.31-4.83A12.91 12.91 0 0 1 20.74 14c.05-.02.08-.02.1.02a.06.06 0 0 1-.02.07 16.3 16.3 0 0 0-3.97 3.57Z" fill="#AB909A"/><path d="M34.33 14.5c-.06 0-.2-.06-.41-.17a.1.1 0 0 1-.05-.08.09.09 0 0 1 .05-.08c.05-.03.2-.04.42-.03.23 0 .37.03.43.07a.09.09 0 0 1 .04.08.1.1 0 0 1-.06.08c-.23.09-.37.13-.42.13Z" fill="#6F2B47"/><path d="m21.01 16.4.61-.08a.19.19 0 0 1 .21.14c.05.18.01.33-.11.43a.22.22 0 0 1-.2.04l-.44-.11a.08.08 0 0 0-.1.11.08.08 0 0 0 .04.05l.3.13a.26.26 0 0 1 .13.3.26.26 0 0 1-.06.11c-.2.2-.41.1-.62-.31a.1.1 0 0 0-.2.02l-.06.26v.05c0 .02 0 .04.02.05.22.25.5.32.82.19.35-.15.64-.66.85-1.54.25-1.04.63-1.62 1.14-1.76.72-.19 1.16.04 1.32.67.17.63-.06 1.1-.7 1.42a18.1 18.1 0 0 0-1.3.71.09.09 0 0 1-.08-.07c-.05-.32.06-.55.32-.67a.39.39 0 0 1 .17-.04c.23 0 .47-.04.7-.13a.05.05 0 0 0 .02-.06.09.09 0 0 0-.03-.04h-.05l-.66.05a.17.17 0 0 1-.13-.04.17.17 0 0 1-.05-.12c0-.15.04-.28.13-.39a.19.19 0 0 1 .22-.04c.22.1.43.1.63.03.02 0 .03-.01.04-.03l.01-.05a.08.08 0 0 0-.08-.06h-.4a.22.22 0 0 1-.19-.11.22.22 0 0 1 0-.23c.11-.18.2-.29.28-.31.1-.03.17.02.24.16.09.16.16.26.23.27.04.01.1 0 .13-.02a.21.21 0 0 0 .1-.1c.02-.05.02-.11.01-.16a.3.3 0 0 0-.07-.15c-.28-.33-.57-.37-.9-.13-.26.2-.44.5-.54.89-.2.8-.39 1.37-.56 1.72-.31.62-.8.85-1.45.7-.65-.17-.88-.6-.68-1.31.1-.35.5-.7 1.19-1.03a3.63 3.63 0 0 0 .81-.47h.07l.05.05c.02.01.03.04.03.06.03.25 0 .43-.12.55-.08.07-.25.12-.51.13-.5.03-.7.11-.59.25l.03.02H21ZM32.75 15.07v.04l.01.03.38.49c.03.03.04.08.04.12 0 .05-.02.1-.06.13-.13.13-.28.17-.43.11a.22.22 0 0 1-.13-.14l-.13-.45a.08.08 0 0 0-.1-.06.08.08 0 0 0-.06.1l.02.32a.25.25 0 0 1-.2.27h-.12c-.28-.08-.3-.3-.03-.7a.1.1 0 0 0 0-.12.1.1 0 0 0-.12-.04l-.26.08a.11.11 0 0 0-.05.02.12.12 0 0 0-.03.05c-.1.32-.02.59.25.8.3.24.9.23 1.77-.03 1.03-.3 1.74-.27 2.1.1.53.53.56 1.02.09 1.48-.47.46-1 .5-1.59.11a19.12 19.12 0 0 0-1.27-.77.09.09 0 0 1-.01-.08l.02-.03c.26-.2.51-.22.75-.06.05.03.1.08.12.13.12.2.27.38.46.53l.03.02.04-.02.01-.05-.01-.04-.39-.55a.17.17 0 0 1 .06-.24c.12-.07.26-.1.4-.07a.19.19 0 0 1 .15.17.8.8 0 0 0 .29.56l.04.01.05-.01a.08.08 0 0 0 .02-.1l-.2-.35a.22.22 0 0 1 .2-.33c.21 0 .35.03.4.08.08.07.07.17-.01.3-.1.15-.14.26-.13.32a.2.2 0 0 0 .09.1c.04.03.09.04.14.03.05 0 .1-.02.14-.06a.31.31 0 0 0 .1-.13c.14-.4.03-.69-.34-.84a1.55 1.55 0 0 0-1.05-.03c-.8.23-1.38.35-1.78.38-.7.04-1.14-.26-1.33-.9-.19-.65.08-1.07.8-1.24.35-.1.85.07 1.48.5a3.68 3.68 0 0 0 .82.47.13.13 0 0 1-.02.18c-.2.16-.37.21-.54.17-.1-.03-.22-.15-.37-.37-.28-.42-.45-.55-.5-.39Z" fill="#89898A"/><path d="M20.35 15.35c-.05-.01-.06-.14-.04-.38 0-.08.04-.16.1-.21.15-.16.24-.23.28-.22.04.02.06.14.05.36 0 .08-.04.15-.09.21-.16.18-.26.26-.3.24ZM35.6 14.85c-.08-.2-.24-.33-.34-.29-.1.05-.12.25-.03.45.08.2.24.33.34.29.1-.05.12-.25.04-.45ZM19.8 15.24c.1 0 .21.06.3.19a.1.1 0 0 1 .03.09.11.11 0 0 1-.06.07.62.62 0 0 1-.27.07c-.1 0-.2-.03-.28-.07a.12.12 0 0 1-.06-.07.1.1 0 0 1 .03-.1c.1-.12.2-.18.3-.18ZM36.12 15.23c.05 0 .17.05.37.16a.1.1 0 0 1 .06.08.11.11 0 0 1-.04.1c-.01 0-.12.03-.34.05a2 2 0 0 1-.34.04.11.11 0 0 1-.06-.08.1.1 0 0 1 .03-.1c.17-.16.27-.24.32-.25ZM19.05 16.33c.07-.22.05-.42-.05-.45-.1-.04-.24.1-.31.32-.08.22-.06.42.04.45.1.04.24-.1.32-.32ZM37.23 16.2c-.02-.2-.12-.34-.22-.33-.1.01-.16.18-.13.38.02.2.12.34.22.33.1-.01.16-.18.13-.38Z" fill="#6F2B47"/><path d="M39.39 19.63a.4.4 0 0 0 .33.18c.02.17.12.27.29.29l-.12.02a.13.13 0 0 0-.1.1v.06c.01.06.04.12.1.18-.1-.02-.17 0-.2.05-.04.04-.03.11.01.2.17.31.28.64.36.97a.08.08 0 0 1-.05.09h-.04a.08.08 0 0 1-.05-.03l-.01-.02a7.52 7.52 0 0 0-.97-2.06 3.9 3.9 0 0 1-.52-.91l-1.34-1.63a.4.4 0 0 0-.04-.04l-1.16-1.06h-.01V16l.05-.06a.06.06 0 0 1 .09 0 14.22 14.22 0 0 1 3.15 3.71c.03.05.07.07.11.05a.25.25 0 0 0 .12-.08ZM22.3 18.1c-.27.2-.63.53-1.1 1l-.28.28a9 9 0 0 0-2.4 4.63c-.02.12-.06.2-.12.25a.08.08 0 0 1-.13-.08 10.14 10.14 0 0 1 3.94-6.19 10.22 10.22 0 0 1 7.17-1.8.08.08 0 0 1-.01.13c-.06.04-.15.05-.28.04a9.06 9.06 0 0 0-5.5 1.02c-.6.3-1.03.54-1.3.73Z" fill="#AB909A"/><path d="M41.01 20.89c.73 1.9 1.06 3.76.98 5.58 0 .06-.03.09-.08.08a.06.06 0 0 1-.03-.02 17.19 17.19 0 0 0-4.03-10.4l.01-.03c.03-.04.06-.04.1 0 1.3 1.3 2.32 2.9 3.05 4.79ZM34.92 19a10.6 10.6 0 0 1 2.75 5.24.06.06 0 0 1-.05.02h-.08v-.02a9.74 9.74 0 0 0-2.99-5.3 9.82 9.82 0 0 0-4.9-2.6v-.05a.06.06 0 0 1 .04-.06h.02c2 .44 3.74 1.36 5.2 2.76Z" fill="#AB909A"/><path d="M28.02 16.6c.05 0 .09.03.12.07a.34.34 0 0 1 .02.3.38.38 0 0 1-.1.13c-.07.07-.17.06-.28-.04a.33.33 0 0 1-.08-.1.3.3 0 0 1-.03-.14c0-.04.01-.08.04-.12a.21.21 0 0 1 .08-.08.3.3 0 0 1 .23-.03ZM37.74 16.65c-.2-.05-.4.01-.42.13-.03.11.12.25.32.3.2.04.39-.02.42-.13.02-.12-.12-.25-.32-.3ZM17.96 17.1a.1.1 0 0 1-.08-.05.09.09 0 0 1 0-.1c.21-.28.4-.36.6-.24a.17.17 0 0 1 .05.23c-.06.11-.25.16-.57.16ZM29.5 17.25a.28.28 0 1 0 0-.55.28.28 0 0 0 0 .55ZM26.38 17.27a.28.28 0 1 0 0-.55.28.28 0 0 0 0 .55ZM24.82 17.67a.27.27 0 1 0 0-.53.27.27 0 0 0 0 .53ZM31.3 17.5c-.03.1-.08.14-.17.14-.2 0-.32-.05-.36-.17a.22.22 0 0 1 0-.14.25.25 0 0 1 .08-.12c.05-.04.1-.06.16-.07.06 0 .12 0 .17.02.11.05.15.15.11.33ZM17.66 17.8c0-.24-.1-.43-.2-.43s-.18.2-.17.43c0 .24.08.43.19.43.1 0 .18-.2.18-.43ZM38.7 17.8c0 .04-.06.16-.18.36a.08.08 0 0 1-.07.04.08.08 0 0 1-.07-.06c-.07-.16-.1-.28-.1-.36.01-.08.05-.2.13-.36a.08.08 0 0 1 .07-.04h.04l.03.04c.1.2.15.32.15.37ZM23.38 18.36a.27.27 0 1 0 0-.54.27.27 0 0 0 0 .54ZM32.65 17.84a.22.22 0 0 1 .12.18l-.01.12a.26.26 0 0 1-.07.1c-.08.07-.2.08-.34.02a.24.24 0 0 1-.14-.23.23.23 0 0 1 .16-.2.4.4 0 0 1 .28.01Z" fill="#6F2B47"/><path d="M37.6 21.61a1.8 1.8 0 0 1 .07-.78.13.13 0 0 1 .09-.06h.06c.15.06.3.19.44.37a.23.23 0 0 0 .2.1c.26-.04.43.03.5.2a.2.2 0 0 1-.1.26c-.22.13-.33.22-.33.29 0 .06.01.11.05.16.04.04.1.06.16.07.07 0 .14-.01.2-.05a.4.4 0 0 0 .15-.14.78.78 0 0 0 .11-.6.54.54 0 0 0-.1-.2c-.24-.3-.74-.52-1.5-.7-1.04-.26-1.66-.7-1.86-1.32a.53.53 0 0 1-.02-.24c.08-.55.38-.89.9-1a.59.59 0 0 1 .26 0c.5.14.9.5 1.18 1.1.17.37.33.64.5.82a.16.16 0 0 1-.12.26c-.15 0-.3-.03-.48-.1-.08-.03-.1-.16-.09-.37.02-.26-.08-.5-.3-.72 0-.01-.01-.02-.03-.02h-.03l-.01.03v.04l.07.14c.12.25.15.43.08.55-.05.1-.2.13-.48.08a.22.22 0 0 1-.16-.3c.07-.14.1-.32.08-.55a.05.05 0 0 0-.05-.05h-.1v.02c0 .38-.12.56-.37.53a.3.3 0 0 1-.26-.25.24.24 0 0 1 .18-.27c.15-.04.22-.13.2-.27a.2.2 0 0 0-.07-.12.21.21 0 0 0-.14-.05c-.05 0-.1.02-.15.05a.3.3 0 0 0-.1.13c-.24.58-.06.99.55 1.24l1.75.57c.92.28 1.21.83.88 1.62a.96.96 0 0 1-.62.6c-.33.1-.67.02-1.04-.24a3.76 3.76 0 0 1-.84-1.36.44.44 0 0 0-.12-.16.53.53 0 0 1-.12-.14.16.16 0 0 1 .06-.22.16.16 0 0 1 .09-.02c.45.03.68.28.66.74 0 .25 0 .4.03.4a.06.06 0 0 0 .1-.03v-.04ZM19.13 19.2h-.48a.12.12 0 0 1-.12-.1v-.05l.07-.28a.14.14 0 0 1 .2-.1l.36.13a.13.13 0 0 0 .1 0 .13.13 0 0 0 .06-.08l.02-.08a.25.25 0 0 0-.13-.28c-.4-.19-.7-.04-.9.43-.15.35-.1.89.14 1.61.32 1 .25 1.74-.23 2.23a.52.52 0 0 1-.17.11c-.66.28-1.12.15-1.37-.4-.25-.54-.18-1.05.2-1.53.34-.42.5-.77.52-1.05a.08.08 0 0 1 .05-.07.09.09 0 0 1 .08 0c.27.17.38.4.32.66a.3.3 0 0 1-.13.2 2.15 2.15 0 0 0-.76.7v.02a.06.06 0 0 0 .07.05l.02-.01.6-.49a.16.16 0 0 1 .13-.03c.17.03.26.17.27.41a.12.12 0 0 1-.13.13c-.15 0-.34.07-.57.22a.06.06 0 0 0-.01.1l.06.07a.07.07 0 0 0 .1.01l.16-.13a.16.16 0 0 1 .12-.03.16.16 0 0 1 .11.06c.09.12.12.25.11.42a.2.2 0 0 1-.26.18.2.2 0 0 1-.1-.07l-.13-.16a.12.12 0 0 0-.08-.05c-.04 0-.07 0-.1.03l-.06.05a.19.19 0 0 0-.05.23c.07.14.18.22.31.24a.65.65 0 0 0 .75-.5c.1-.42.02-1.04-.24-1.86l-.15-.5a1.4 1.4 0 0 1 .16-1.09c.21-.37.5-.56.88-.56.48 0 .8.17.97.52.16.32.16.71-.02 1.16a15.89 15.89 0 0 1-.81 1.39.15.15 0 0 1-.2-.06c-.13-.23-.12-.46.04-.71.04-.06.08-.1.13-.13.29-.17.45-.3.48-.38a.06.06 0 0 0-.01-.07.06.06 0 0 0-.08 0c-.4.33-.67.42-.8.28a.36.36 0 0 1-.07-.16.32.32 0 0 1 0-.16c.01-.05.04-.1.08-.12a.2.2 0 0 1 .13-.04c.1.01.24-.06.4-.23l.01-.02a.05.05 0 0 0-.05-.06Z" fill="#89898A"/><path d="M17.36 18.35c.05.1-.1.24-.44.42-.14.08-.25.05-.3-.08-.07-.13-.02-.22.13-.28.36-.14.56-.16.6-.06Z" fill="#6F2B47"/><path d="M17.36 19.05c.27-.38.45-.72.42-.74-.04-.02-.28.27-.54.66-.27.38-.45.71-.42.74.04.02.28-.27.54-.66Z" fill="#89898A"/><path d="M39.26 18.63c-.05.13-.13.16-.25.1-.3-.14-.44-.26-.4-.36.05-.1.23-.1.55 0 .12.04.16.13.1.26ZM33.8 19.25a.28.28 0 1 0 0-.56.28.28 0 0 0 0 .56ZM22.29 19.05c-.01.1-.04.18-.08.2-.06.06-.13.06-.2.02-.14-.08-.21-.17-.2-.27.01-.1.1-.18.26-.22.08-.03.14 0 .19.05.03.04.04.12.03.22Z" fill="#6F2B47"/><path d="M19.74 18.95a.39.39 0 0 1-.05.07.1.1 0 0 1-.09.04.08.08 0 0 1-.04-.02.08.08 0 0 1-.02-.05c-.02-.06 0-.1.06-.15a.09.09 0 0 1 .14.05v.06Z" fill="#AB909A"/><path d="M16.18 20.38c-.03-.16-.15-.23-.36-.21a.4.4 0 0 0 .26-.1c.07-.07.1-.16.08-.27a1.7 1.7 0 0 1-.03-.5.16.16 0 0 1 .22-.1c.03 0 .05.03.07.05.06.1.1.2.11.3a.29.29 0 0 1-.05.23c-.14.16-.24.36-.3.6Z" fill="#89898A"/><path d="M39.72 19.81a.4.4 0 0 1-.33-.18c0-.18.06-.31.16-.39.16-.12.25-.08.28.13a.75.75 0 0 1-.1.44ZM35.16 20.2c.06-.15.01-.31-.12-.37s-.29 0-.35.15c-.07.15-.02.31.12.37.13.06.28-.01.35-.16ZM20.96 20.41a.28.28 0 1 0 0-.55.28.28 0 0 0 0 .55ZM40.01 20.1c.18 0 .29.1.32.28a.13.13 0 0 1-.11.15c-.1.02-.22 0-.33-.07a.42.42 0 0 1-.1-.18.14.14 0 0 1 .02-.1.13.13 0 0 1 .08-.06l.12-.02ZM15.82 20.17c.21-.02.33.05.36.2a.61.61 0 0 1-.33.2c-.15.04-.23-.02-.22-.15 0-.09.07-.17.2-.25Z" fill="#6F2B47"/><path d="M17.6 34.48c.06-.55-.02-.75-.23-.61.02-.08-.01-.16-.08-.25.07-.07.03-.17-.12-.28.04 0 .08 0 .1-.02.07-.04.08-.1.04-.16-.5-.79-.94-1.62-1.31-2.5-.08-.19-.2-.27-.34-.25-.07-.2-.14-.28-.22-.24a.59.59 0 0 1-.06-.22c.09-.1.07-.22-.05-.37.19 0 .26-.08.23-.21a4.65 4.65 0 0 1-.19-1.46l-.02-.02-.04.01-.01.03a.95.95 0 0 1-.15.32l-.17-.62c.13-.02.2-.14.2-.35.02-.9.01-1.81-.03-2.72 0-.1-.07-.15-.2-.18l.2-.49a.06.06 0 0 1 .08-.02h.02a.05.05 0 0 0 .03-.02l.01-.02.3-1.23a.14.14 0 0 0-.14-.17.38.38 0 0 0-.12.02l.36-1c.32-.29.6-.68.84-1.17l.04-.03h.04a.1.1 0 0 1 .06.06v.02l-.45.8a.48.48 0 0 0-.06.23c0 .24-.07.46-.21.66a.1.1 0 0 0-.02.05l-.54 2.2-.01.1-.02 3.4c0 .03 0 .04.02.05l.04.03c.07 0 .1.06.08.15l.01.17a56.95 56.95 0 0 0 .65 2.44l.94 1.9.02.04.64.87c.51.72.92 1.22 1.22 1.52a12.82 12.82 0 0 0 4.59 2.93v.03l-.02.08a.05.05 0 0 1-.05.04h-.02a18.37 18.37 0 0 1-3.26-1.8 7.62 7.62 0 0 1-1.18-1.07 17.5 17.5 0 0 0-1.21-1.13.12.12 0 0 0-.15.1l-.08.36Z" fill="#AB909A"/><path d="M22.9 28.8a.06.06 0 0 1-.05-.06v-.88a.07.07 0 0 1 .07-.07h8c.04 0 .08-.02.1-.04a.15.15 0 0 0 .05-.11v-6.43a.27.27 0 0 1 .37-.26c.05.02.1.05.13.1.16.22.36.4.61.52a.13.13 0 0 1 .07.1.13.13 0 0 1-.04.1l-.24.25a.35.35 0 0 0-.1.25v6.26a.27.27 0 0 1-.28.27H22.9Z" fill="#0B7145"/><path d="m24.82 25.59.01.03.03.02.03.01h.03l.19-.13a5.06 5.06 0 0 1 1.52-.72c.6-.1 1.03.15 1.31.78.03.05.04.11.04.17v.62c0 .03 0 .06.03.08.02.02.05.03.08.03h1.95a.12.12 0 0 0 .1-.05.11.11 0 0 0 0-.11l-.04-.08a.1.1 0 0 0-.09-.05h-1.3a.2.2 0 0 1-.2-.2c0-.34.1-.72.26-1.13.1-.24.28-.37.56-.39.26-.01.46.08.61.28.58.74.76 1.55.56 2.44a.3.3 0 0 1-.29.23h-7.42a.19.19 0 0 0-.18.14c-.42 1.67-1.23 2.1-2.42 1.25-.01 0-.02 0-.02-.02v-.05l.03-.02 1.67-.82a.3.3 0 0 0 .13-.41l-.38-.7a.5.5 0 0 1-.06-.26c0-.08.03-.16.08-.23.04-.07.1-.12.17-.15a.36.36 0 0 1 .23-.02c.04.02.08.08.12.2a.23.23 0 0 0 .21.15h1.4c.04 0 .07-.01.1-.04a.13.13 0 0 0 .04-.09v-5.13a.24.24 0 0 1 .17-.23.25.25 0 0 1 .27.1 3.64 3.64 0 0 0 .79.7.12.12 0 0 1 0 .11l-.02.05-.22.22a.25.25 0 0 0-.08.17v3.25Z" fill="#0B7145"/><path d="M40.59 21.11c.16.05.2.18.1.38-.14.3-.26.44-.34.42-.09-.03-.1-.2-.06-.54.03-.22.13-.3.3-.26ZM15.7 21.44l-.37 1.01c-.16.12-.29.15-.37.09a.19.19 0 0 1-.06-.09.2.2 0 0 1 0-.1c0-.04.03-.08.05-.1a.25.25 0 0 1 .1-.07l.29-.17c.1-.07.12-.16.07-.27l-.14-.29a.26.26 0 0 1-.04-.1c0-.04 0-.07.02-.1a.2.2 0 0 1 .05-.09.18.18 0 0 1 .1-.04c.1-.02.2.1.3.32ZM35.85 21.7a.29.29 0 1 0 0-.58.29.29 0 0 0 0 .57ZM20.04 21.73a.28.28 0 1 0 0-.55.28.28 0 0 0 0 .55Z" fill="#6F2B47"/><path d="M38.3 21.83a.09.09 0 0 1-.17-.01l.01-.34a.1.1 0 0 1 .1-.06.1.1 0 0 1 .09.08c0 .05 0 .16-.03.33Z" fill="#fff"/><path d="m35.01 27.65-.3-.37a.27.27 0 0 1-.06-.15c0-.06.01-.12.04-.17l.32-.55a.12.12 0 0 1 .15-.05c.02 0 .03.02.04.03.6.7.77 1.45.54 2.27a.18.18 0 0 1-.17.13h-3.1a.21.21 0 0 1-.2-.2v-5.66c0-.1-.04-.2-.1-.27l-.05-.05a.17.17 0 0 1 .01-.23l.8-.8a.1.1 0 0 1 .1-.01.09.09 0 0 1 .05.08v5.99c0 .04.01.08.05.1.03.04.07.06.1.06h1.71a.09.09 0 0 0 .07-.15ZM27.35 23.3l-1.14-.13a.25.25 0 0 1-.2-.35c.24-.57.61-.91 1.1-1.04a.12.12 0 0 1 .1.02.11.11 0 0 1 .04.1c-.05.28-.21.48-.5.6a.08.08 0 0 0-.05.1.08.08 0 0 0 .1.06c.98-.13 1.37.17 1.16.9a.5.5 0 0 1-.48.36h-.23a4 4 0 0 1-2.04-.35.12.12 0 0 1-.05-.14.12.12 0 0 1 .11-.08h2.09l.01-.02v-.03h-.02Z" fill="#0B7145"/><path d="M40.91 22.14c-.14-.12-.31-.14-.38-.06-.07.09-.02.25.12.37.14.11.31.14.39.05.07-.08.01-.25-.13-.36Z" fill="#6F2B47"/><path d="M40.45 22.82c.04.17.06.4.06.7 0 .05-.02.08-.05.08a.1.1 0 0 1-.08-.02.1.1 0 0 1-.04-.06 5.65 5.65 0 0 0-.29-1.36.11.11 0 0 1 .07-.06c.03 0 .06.01.08.07.13.26.21.48.25.65Z" fill="#AB909A"/><path d="M36.52 23.14a.3.3 0 1 0 0-.59.3.3 0 0 0 0 .59ZM19.4 23.16a.26.26 0 1 0 0-.51.26.26 0 0 0 0 .52Z" fill="#6F2B47"/><path d="M14.4 22.74c.04 0 .06.04.07.1v.02a16.5 16.5 0 0 0-.33 3.72c.01.6.06 1.1.16 1.49.07.3.11.63.14.99.02.22.1.54.26.96.5 1.4 1 2.49 1.5 3.29a14.2 14.2 0 0 0 4.88 4.7c.16.05.4.18.72.36.34.2.6.33.78.4a13.8 13.8 0 0 0 13.1-1.25c.26-.16.56-.4.9-.69a9.42 9.42 0 0 1 .95-.7l.04.03a.06.06 0 0 1 0 .08 14.74 14.74 0 0 1-6.62 3.46c-.67.17-1.3.25-1.88.26a13.6 13.6 0 0 1-10.43-3.54 12 12 0 0 1-3-3.8 13.38 13.38 0 0 1-1.64-6l.01-1.75a8.22 8.22 0 0 1 .38-2.13h.01Z" fill="#AB909A"/><path d="M28.94 23.87a.7.7 0 0 1-.47-.2.36.36 0 0 1-.09-.22.4.4 0 0 1 .05-.23c.04-.07.1-.14.18-.18a.53.53 0 0 1 .26-.07c.03 0 .1.06.2.2a.23.23 0 0 0 .22.1c.06-.02.15-.08.26-.2a.21.21 0 0 1 .12-.08c.05 0 .1 0 .14.03.27.13.42.24.47.32.03.05.04.1.04.14 0 .05-.01.1-.04.15a.43.43 0 0 1-.1.13.5.5 0 0 1-.17.09c-.22.07-.4.01-.5-.18a.13.13 0 0 0-.17-.06.14.14 0 0 0-.05.03l-.16.16a.25.25 0 0 1-.2.07Z" fill="#0B7145"/><path d="M40.96 23.84c-.05.02-.09.01-.12-.02a.35.35 0 0 1-.07-.18.96.96 0 0 1 .3-.56.12.12 0 0 1 .12-.02.12.12 0 0 1 .08.1c.03.26-.07.5-.31.68Z" fill="#920741"/><path d="m15.16 23.89-.21.49a.9.9 0 0 1-.25.25.15.15 0 0 1-.11.02.15.15 0 0 1-.1-.06c-.04-.07-.01-.18.1-.33.04-.06.16-.13.36-.22a.12.12 0 0 0 .07-.09v-.05a.1.1 0 0 0-.04-.05.82.82 0 0 1-.3-.6.14.14 0 0 1 .26-.1c.14.2.21.45.22.74Z" fill="#6F2B47"/><path d="M39.95 26.13a.12.12 0 0 0-.16.06.16.16 0 0 0 .03.19c.41.42.56.87.44 1.34-.12.5-.5.77-1.12.82-.08.01-.16 0-.23-.03-.57-.26-.82-.86-.77-1.8.02-.38.02-.64-.01-.8a.18.18 0 0 1 .2-.23c.03 0 .07.02.1.04.25.2.3.52.13.96a3.64 3.64 0 0 0-.1.3l.03.03a.05.05 0 0 0 .07-.01c.05-.07.1-.2.16-.37a.31.31 0 0 1 .2-.21.22.22 0 0 1 .25.08c.2.27.12.52-.21.76a.1.1 0 0 0 .03.18.1.1 0 0 0 .07 0c.1-.05.16-.12.18-.2.02-.05.05-.1.1-.12.04-.02.1-.03.15-.01.05.01.1.04.14.09.05.04.08.1.09.15.07.33-.07.46-.43.4a.17.17 0 0 0-.14.05.14.14 0 0 0-.03.06c-.01.02-.01.05 0 .07.01.1.09.17.21.21.1.03.2 0 .3-.08.6-.45.33-1.18-.8-2.19a2.3 2.3 0 0 1-.8-1.5.53.53 0 0 1 .02-.26c.27-.75.8-.98 1.58-.67.09.03.17.1.21.19.25.46.36 1.04.32 1.74a6.55 6.55 0 0 0-.02.72l-.04.04c-.04.03-.09.03-.15 0ZM16.16 27.27l.04-.01.02-.03.22-.57a.2.2 0 0 1 .23-.11c.19.05.3.15.32.3a.22.22 0 0 1-.06.2l-.32.33a.08.08 0 0 0-.01.12.08.08 0 0 0 .12 0l.26-.18a.26.26 0 0 1 .4.14c.07.28-.12.4-.58.38a.1.1 0 0 0-.1.07.1.1 0 0 0 .01.11l.2.19.05.03H17c.33-.07.52-.28.57-.62.05-.38-.25-.88-.92-1.5-.78-.74-1.1-1.36-.96-1.87.2-.7.6-.98 1.24-.8.63.16.93.6.9 1.3a18.54 18.54 0 0 0-.03 1.48.09.09 0 0 1-.07.05h-.04c-.3-.12-.45-.33-.43-.62 0-.06.02-.11.05-.16.12-.2.2-.43.24-.67a.05.05 0 0 0-.04-.05h-.05a.08.08 0 0 0-.03.04l-.28.6a.17.17 0 0 1-.24.08.56.56 0 0 1-.26-.3.19.19 0 0 1 .07-.22c.19-.14.3-.31.34-.53a.07.07 0 0 0-.05-.08.08.08 0 0 0-.1.03l-.2.35a.22.22 0 0 1-.18.1.23.23 0 0 1-.2-.1c-.1-.19-.15-.32-.14-.4.03-.1.12-.14.27-.13.19 0 .3-.01.34-.06a.2.2 0 0 0 .06-.13c0-.04-.02-.1-.05-.13a.29.29 0 0 0-.13-.1.31.31 0 0 0-.16 0c-.43.07-.61.31-.56.7.04.34.21.65.5.92.6.57 1 1.02 1.22 1.35.39.58.35 1.1-.12 1.6-.46.48-.95.46-1.47-.07-.26-.26-.36-.77-.3-1.53a3.64 3.64 0 0 0-.01-.94.13.13 0 0 1 .1-.09l.07.01c.23.1.37.22.41.38.03.1-.01.27-.13.51-.22.45-.25.66-.08.63Z" fill="#89898A"/><path d="M40.77 23.64c.01.08.03.14.07.18.03.03.07.04.12.02l.1.23a.15.15 0 0 0-.1.14.15.15 0 0 0-.1-.03c-.05 0-.07.03-.07.07a62.6 62.6 0 0 0-.05 3.32.07.07 0 0 1-.05.02h-.08l-.03-.01v-3.25l.19-.69Z" fill="#AB909A"/><path d="M39.7 26a.11.11 0 0 1-.1.05c-.02 0-.04 0-.06-.02-1.31-1.2-1.5-1.98-.58-2.32a.25.25 0 0 1 .24.05c.03.03.05.07.06.1 0 .04 0 .08-.03.12-.08.12-.2.16-.39.13-.1-.01-.18.02-.23.08a.3.3 0 0 0 .32.47.3.3 0 0 0 .13-.07c.05-.06.11-.1.17-.11a.1.1 0 0 1 .1.03.1.1 0 0 1 .02.09c-.04.1-.11.17-.22.2a.16.16 0 0 0-.12.15c0 .14.05.27.15.37a.22.22 0 0 0 .37-.1 11.63 11.63 0 0 1 .18-.55h.04a.06.06 0 0 1 .04.05c.03.3-.03.53-.17.7a.28.28 0 0 0-.07.18c0 .09.05.2.15.33l.01.04-.01.04Z" fill="#fff"/><path d="M36.94 24.63a.27.27 0 1 0 0-.53.27.27 0 0 0 0 .53ZM41.06 24.07c.27.02.42.17.43.43a.1.1 0 0 1-.03.09.1.1 0 0 1-.09.02c-.22-.05-.36-.19-.4-.4 0-.07.03-.11.09-.14ZM18.98 24.69a.27.27 0 1 0 0-.53.27.27 0 0 0 0 .53Z" fill="#6F2B47"/><path d="M18.3 24.76c.03 0 .04.22 0 .66-.04.44-.07.66-.11.65-.04 0-.05-.22-.01-.66.03-.44.07-.66.11-.65ZM37.67 24.8h.04c.04 0 .08.14.1.38.03.24.04.56.03.9v.08a8.86 8.86 0 0 1-.07.9l-.06.27c-.03.06-.05.1-.07.1h-.04l.07-2.62Z" fill="#AB909A"/><path d="M14.87 25.44c-.1-.18-.27-.27-.37-.22-.1.06-.08.25.02.43.1.17.27.27.37.21.1-.05.09-.24-.02-.42Z" fill="#6F2B47"/><path d="M29.18 25.17c-.14-.01-.25.05-.26.13-.01.08.1.16.23.17.13.02.25-.04.26-.12 0-.09-.1-.16-.23-.18Z" fill="#fff"/><path d="M41.42 25.63c.1-.19.11-.38.02-.43-.09-.05-.25.07-.35.26-.1.19-.11.38-.02.43.09.05.24-.07.35-.26Z" fill="#6F2B47"/><path d="M24.97 26.48a.06.06 0 0 1-.06-.04.06.06 0 0 1 .03-.07c.5-.38 1.03-.6 1.6-.7a.6.6 0 0 1 .55.21l.22.26a.2.2 0 0 1-.17.34h-2.17Z" fill="#fff"/><path d="M37.26 26.15a.38.38 0 0 1-.16.08c-.1.02-.15 0-.18-.06-.1-.22-.11-.37-.03-.44.09-.08.23-.05.44.09.06.03.07.1.04.18a.36.36 0 0 1-.1.15ZM18.83 26.3a.27.27 0 1 0 0-.53.27.27 0 0 0 0 .53ZM41.41 26.3c-.12-.21-.29-.35-.37-.3-.08.04-.05.25.07.47.12.22.29.36.37.31.08-.05.05-.26-.07-.48ZM14.85 26.52c.11-.2.13-.4.04-.45-.08-.05-.25.07-.36.27-.11.2-.13.4-.04.44.09.05.25-.07.36-.26Z" fill="#6F2B47"/><path d="M18.35 26.84c-.05-.35-.13-.62-.18-.61-.04 0-.04.29.01.63s.13.61.17.6c.05 0 .05-.28 0-.62ZM41.73 28.76c-.12.6-.28 1.19-.47 1.79-.02.05-.04.09-.07.1h-.04a.06.06 0 0 1-.03-.02.1.1 0 0 1-.01-.04v-.05a14.05 14.05 0 0 0 .75-3.7.1.1 0 0 1 .03-.04h.04c.02 0 .03 0 .03.02.02.02.03.06.03.12-.06.63-.14 1.24-.26 1.82Z" fill="#AB909A"/><path d="m14.98 27.63.17.63a.54.54 0 0 1-.31.58.1.1 0 0 1-.1 0 .11.11 0 0 1-.06-.1c-.02-.2.08-.39.28-.57a.14.14 0 0 0 .01-.2.14.14 0 0 0-.06-.03.94.94 0 0 1-.44-.38.15.15 0 0 1 .14-.24c.12.01.24.12.37.31ZM36.95 27.82a.27.27 0 1 0 0-.55.27.27 0 0 0 0 .55ZM18.76 27.64c-.04-.08-.03-.15.03-.19.17-.12.3-.15.36-.06a.31.31 0 0 1 .06.32.33.33 0 0 1-.27.2c-.04 0-.1-.08-.18-.27ZM40.75 27.75c.14.02.24-.07.32-.28a.22.22 0 0 1 .24-.15c.05 0 .1.03.13.07a.2.2 0 0 1 .05.14c0 .12-.1.22-.32.3-.09.04-.14.1-.16.16-.03.08 0 .16.07.22.15.12.2.3.18.52a.1.1 0 0 1-.15.07c-.3-.17-.4-.39-.3-.64a.19.19 0 0 0-.02-.19l-.1-.12a.07.07 0 0 1 .06-.1Z" fill="#6F2B47"/><path d="m35.48 32.28-.05.07a9.4 9.4 0 0 1-4.1 2.89.07.07 0 0 1-.04-.03l-.03-.06a.01.01 0 0 1 0-.02c1.79-.8 3.16-1.78 4.12-2.93a11.3 11.3 0 0 0 2.18-4.57l.06.02c.02 0 .03.02.04.03v.04a9.34 9.34 0 0 1-2.18 4.56ZM21.15 32.79l.2.2a9.67 9.67 0 0 0 4.85 2.57v.06a.06.06 0 0 1-.02.05.06.06 0 0 1-.05 0A10.53 10.53 0 0 1 21 32.94a10.49 10.49 0 0 1-2.7-5.18c0-.01 0-.02.02-.02h.1v.01a9.62 9.62 0 0 0 2.73 5.05ZM40.4 29.2c.1-.41.14-.75.08-.77-.05 0-.17.31-.27.72s-.14.76-.08.77c.05.01.17-.31.27-.72Z" fill="#AB909A"/><path d="M36.55 29.35a.28.28 0 1 0 0-.56.28.28 0 0 0 0 .56ZM19.4 29.43a.27.27 0 1 0 0-.54.27.27 0 0 0 0 .54Z" fill="#6F2B47"/><path d="m33.93 29.39-.36-.32a.2.2 0 0 0-.28.03l-.25.3a.2.2 0 0 0 .02.27l.37.3c.08.08.2.07.27-.01l.26-.3a.2.2 0 0 0-.03-.27ZM34.4 29.09a.17.17 0 0 1 .23-.04l.42.3c.05.03.08.09.08.16 0 .08-.02.15-.07.22l-.09.13a.36.36 0 0 1-.18.14.22.22 0 0 1-.2-.02l-.41-.3a.17.17 0 0 1-.04-.23l.25-.36Z" fill="#0B7145"/><path d="M38.85 30.76a.07.07 0 0 0-.06.01l-.48.38a.2.2 0 0 1-.13.04.19.19 0 0 1-.13-.05c-.13-.14-.17-.28-.12-.43a.22.22 0 0 1 .14-.14l.45-.13a.08.08 0 0 0 .06-.1.08.08 0 0 0-.1-.06l-.32.03a.26.26 0 0 1-.27-.2V30c.07-.28.3-.3.7-.04a.1.1 0 0 0 .16-.12l-.08-.25a.11.11 0 0 0-.03-.05.12.12 0 0 0-.04-.03c-.33-.1-.6-.02-.8.26-.24.3-.22.89.05 1.76.3 1.02.28 1.72-.09 2.1-.52.52-1.01.55-1.48.09-.47-.46-.51-.99-.13-1.58a17.94 17.94 0 0 0 .76-1.28.09.09 0 0 1 .12.02c.2.25.22.5.06.74a.39.39 0 0 1-.12.12c-.2.12-.39.27-.54.46a.05.05 0 0 0 0 .07h.01l.05.02.04-.02.54-.39a.17.17 0 0 1 .13-.03.17.17 0 0 1 .11.08c.08.13.1.26.08.4a.19.19 0 0 1-.16.16.79.79 0 0 0-.57.28.07.07 0 0 0 0 .1c.01.02.03.03.05.03l.05-.01.35-.2a.22.22 0 0 1 .3.07c.02.04.03.07.03.11 0 .22-.02.36-.07.41-.07.08-.17.07-.3 0-.16-.1-.27-.15-.33-.13a.2.2 0 0 0-.1.09.21.21 0 0 0-.03.14c0 .05.03.1.07.14.03.04.08.08.13.1.4.13.69.02.84-.35.13-.32.13-.66.02-1.04a9.14 9.14 0 0 1-.4-1.77c-.05-.7.25-1.14.9-1.34.64-.2 1.06.07 1.25.78.1.36-.07.85-.5 1.49a3.5 3.5 0 0 0-.46.82.13.13 0 0 1-.13.02.12.12 0 0 1-.05-.04c-.16-.2-.22-.37-.18-.54.03-.1.15-.22.37-.37.42-.28.55-.45.38-.51ZM18.44 30.26a.06.06 0 0 0-.07 0 .06.06 0 0 0-.02.08 1.82 1.82 0 0 1-.06.79.13.13 0 0 1-.1.05h-.05a.97.97 0 0 1-.45-.37.23.23 0 0 0-.2-.09c-.26.03-.43-.04-.5-.2a.2.2 0 0 1 .1-.27c.21-.13.33-.22.33-.29a.22.22 0 0 0-.06-.15.24.24 0 0 0-.16-.07.39.39 0 0 0-.34.19.78.78 0 0 0-.12.6c.03.07.06.14.11.2.24.29.74.52 1.5.7 1.05.25 1.67.7 1.87 1.32.02.07.03.16.02.23-.08.57-.38.9-.9 1.01a.59.59 0 0 1-.27 0c-.5-.13-.89-.5-1.17-1.1a3.42 3.42 0 0 0-.5-.82.16.16 0 0 1 .12-.27c.14 0 .3.03.47.1.08.04.11.16.1.38-.03.26.07.5.3.72a.05.05 0 0 0 .05 0 .05.05 0 0 0 .02-.05 8.28 8.28 0 0 0-.08-.14c-.12-.25-.15-.43-.08-.56.05-.1.21-.12.48-.08a.21.21 0 0 1 .16.3c-.07.15-.1.33-.08.56a.05.05 0 0 0 .06.05H19a.02.02 0 0 0 .02 0v-.02c0-.38.11-.56.37-.53a.3.3 0 0 1 .26.25c.01.06 0 .12-.03.17a.24.24 0 0 1-.15.1c-.15.04-.22.13-.2.27 0 .05.03.1.07.12.04.03.09.05.14.05.05 0 .1-.02.15-.05a.3.3 0 0 0 .1-.13c.24-.58.06-1-.55-1.24l-1.76-.57c-.92-.3-1.21-.84-.89-1.63a.97.97 0 0 1 .63-.6c.33-.1.68-.02 1.04.24.23.16.51.62.85 1.37.03.06.07.1.12.15l.12.14a.16.16 0 0 1-.07.23.16.16 0 0 1-.08.02c-.46-.04-.68-.28-.67-.74 0-.26 0-.4-.03-.42Z" fill="#89898A"/><path d="M40.9 29.79c.15-.12.22-.28.16-.35-.06-.08-.23-.05-.38.07-.15.12-.22.28-.16.36.06.07.23.04.38-.08ZM15.33 29.58c.12.15.14.28.05.37-.3-.04-.46-.17-.48-.4a.13.13 0 0 1 .14-.14c.1.01.2.07.3.17Z" fill="#6F2B47"/><path d="M34.22 30.85a.13.13 0 0 1-.18.03l-.33-.26a.39.39 0 0 1-.14-.2.24.24 0 0 1 .03-.2l.12-.16a.24.24 0 0 1 .2-.1c.07 0 .16.04.23.1l.33.25a.13.13 0 0 1 .02.18l-.28.36Z" fill="#0B7145"/><path d="M17.65 30.14a.09.09 0 0 1 .15-.02l.02.05c-.01.3-.03.47-.06.5a.12.12 0 0 1-.2-.06c-.02-.1.01-.27.09-.47Z" fill="#fff"/><path d="M39.4 31.8a.94.94 0 0 0-.04-.06.07.07 0 0 1 0-.06l.6-1.55.01-.01a.06.06 0 0 1 .05.02.06.06 0 0 1 .01.05c-.1.58-.31 1.11-.64 1.6Z" fill="#AB909A"/><path d="M40.64 30.4c.09.16.13.28.14.34a.08.08 0 0 1-.03.08.08.08 0 0 1-.08.01c-.19-.08-.3-.16-.35-.25-.05-.1-.05-.24 0-.44a.08.08 0 0 1 .1-.06l.03.02c.05.05.11.15.2.3ZM15.66 30.41l-.08.33a.16.16 0 0 1-.16.13.16.16 0 0 1-.16-.15c-.03-.17.03-.36.18-.55.08-.04.15.04.22.24ZM20.06 30.87a.28.28 0 1 0 0-.56.28.28 0 0 0 0 .56ZM35.88 30.8a.27.27 0 1 0 0-.54.27.27 0 0 0 0 .54Z" fill="#6F2B47"/><path d="M40.98 31.06c-.05.32-.19.68-.39 1.08a18.62 18.62 0 0 1-1.06 1.75h-.04l-.07-.05a.04.04 0 0 1-.02-.03v-.03a9.25 9.25 0 0 0 1.49-2.8h.04c.02 0 .03.01.04.03.01.01.02.03.01.05Z" fill="#89898A"/><path d="M40.16 31.78a5.32 5.32 0 0 1-.37.1.08.08 0 0 1-.06-.11c.06-.16.12-.27.2-.32.07-.05.2-.08.36-.08h.04l.03.04a.08.08 0 0 1 0 .08l-.2.29ZM16.06 31.5c-.18-.13-.37-.16-.43-.07s.04.25.2.38c.18.12.37.15.43.06.06-.08-.03-.25-.2-.37ZM34.97 32.13a.28.28 0 1 0 0-.56.28.28 0 0 0 0 .56ZM21.23 31.78c-.08-.14-.25-.2-.37-.13s-.16.25-.07.39c.08.14.24.2.36.13.13-.07.16-.24.08-.39Z" fill="#6F2B47"/><path d="m39.4 31.8-.68 1.14-.07-.02a.05.05 0 0 1-.03-.03v-.05l.57-.98a.14.14 0 0 1 .13-.07h.07Z" fill="#AB909A"/><path d="M39.82 32.2c.02.22.02.37-.02.45a.15.15 0 0 1-.12.09.15.15 0 0 1-.14-.07c-.2-.29-.16-.48.11-.58a.13.13 0 0 1 .15.05l.02.05ZM16.2 32.2a.21.21 0 0 1 .37.2c-.03.1-.07.21-.13.32a.16.16 0 0 1-.17.08.16.16 0 0 1-.13-.14c-.03-.21-.01-.36.06-.46ZM33.86 33.23a.25.25 0 1 0 0-.5.25.25 0 0 0 0 .5ZM21.9 32.93a.17.17 0 0 1 .08-.14.17.17 0 0 1 .17-.01c.11.05.18.1.2.15a.22.22 0 0 1-.05.29.24.24 0 0 1-.3-.03.33.33 0 0 1-.1-.26Z" fill="#6F2B47"/><path d="M38.23 33.47c.01-.04.07-.13.18-.28a.1.1 0 0 1 .18.05c0 .04-.1.13-.3.28a.04.04 0 0 1-.05 0 .04.04 0 0 1-.01-.05Z" fill="#AB909A"/><path d="M17.17 33.34c.15.11.19.2.12.28a.8.8 0 0 1-.5-.04.2.2 0 0 1-.13-.16.2.2 0 0 1 .08-.2c.1-.08.25-.04.43.12ZM38.69 33.35a.71.71 0 0 0 .33-.14.2.2 0 0 1 .25 0c.03.03.05.07.06.1.01.05 0 .1-.01.13-.12.22-.33.27-.65.17a.13.13 0 0 1-.1-.14.13.13 0 0 1 .12-.12ZM32.55 34.15a.28.28 0 1 0 0-.55.28.28 0 0 0 0 .55ZM23.55 33.72c-.13-.07-.29-.04-.35.08-.06.1 0 .26.13.33s.28.04.35-.07c.06-.11 0-.26-.13-.34ZM17.6 34.48c-.25.14-.32-.06-.23-.61.2-.14.29.06.23.61Z" fill="#6F2B47"/><path d="M35.2 35.49c-.3.16-.65.2-1.01.08a.17.17 0 0 1-.12-.18c0-.02 0-.05.02-.07l.13-.22a.18.18 0 0 1 .09-.08.19.19 0 0 1 .11 0l.68.16a.06.06 0 0 0 .06-.1.58.58 0 0 0-.5-.21.15.15 0 0 1-.15-.15c-.01-.15.04-.29.16-.4a.15.15 0 0 1 .06-.04h.09a.2.2 0 0 1 .07.03l.07.06c.09.16.22.29.37.38l.05.02.04-.02c.02 0 .03-.02.03-.03v-.05c-.02-.23-.06-.37-.1-.4a.76.76 0 0 0-.46-.17.64.64 0 0 0-.45.17c-.25.23-.48.73-.7 1.5-.18.66-.36 1.1-.54 1.33-.3.37-.74.5-1.32.38-.46-.09-.68-.4-.65-.95.02-.55.48-1.05 1.37-1.5a6.2 6.2 0 0 0 .71-.38.06.06 0 0 1 .04.04c.1.48-.04.72-.42.72a.11.11 0 0 0-.1.09.1.1 0 0 0 .05.12c.2.1.28.2.25.34a.42.42 0 0 1-.28.32.43.43 0 0 1-.42-.08c-.1-.09-.22-.1-.36-.03a.07.07 0 0 0 .03.13c.5.04.7.18.6.44a.3.3 0 0 1-.41.16.3.3 0 0 1-.12-.1l-.1-.18a.18.18 0 0 0-.33.11c.02.3.17.46.45.5.26.03.49-.06.67-.27.35-.4.56-.97.62-1.72.01-.1.14-.37.4-.82.46-.79 1.05-.93 1.76-.44.07.06.13.13.17.22.28.58.17 1.1-.31 1.53-.09.07-.47.27-1.17.6a.45.45 0 0 0-.18.16l-.03.05a.2.2 0 0 1-.24.08.2.2 0 0 1-.12-.23c.1-.43.36-.62.77-.59.23.02.46-.05.7-.21l.03-.04-.01-.04v-.01l-.03-.02h-.02Z" fill="#89898A"/><path d="m35.56 36.29-.74.53A12.6 12.6 0 0 1 32.4 38l-.02-.05a.06.06 0 0 1 0-.05.06.06 0 0 1 .03-.03 13 13 0 0 0 3.07-1.68 12.88 12.88 0 0 0 2.58-2.45.06.06 0 0 1 .05.02l.04.04v.02a12.6 12.6 0 0 1-2.6 2.47Z" fill="#AB909A"/><path d="M38.67 34.15c0-.22-.08-.39-.18-.4-.11 0-.2.18-.2.39 0 .21.08.38.18.39.1 0 .2-.17.2-.38Z" fill="#6F2B47"/><path d="M21.25 34.94v.4c0 .03-.02.06-.04.09a.14.14 0 0 1-.09.04.62.62 0 0 1-.48-.16.12.12 0 0 1-.04-.08.12.12 0 0 1 .04-.1c.13-.1.2-.2.19-.3-.01-.13-.03-.2-.05-.2a.41.41 0 0 0-.4.2.47.47 0 0 0 0 .48c.28.45.94.53 1.96.24.9-.26 1.53-.29 1.9-.1.48.26.7.66.66 1.21a.5.5 0 0 1-.08.22c-.22.37-.54.56-.95.57-.39.02-.75-.11-1.1-.4a4.3 4.3 0 0 0-.98-.6.13.13 0 0 1 .01-.17c.05-.04.13-.07.24-.07a.1.1 0 0 0 .1-.1v-.08a.07.07 0 0 0-.08-.06l-.97.12a.49.49 0 0 1-.23-.03c-.33-.13-.6-.36-.82-.72a.4.4 0 0 1-.06-.24c.02-.5.22-.87.6-1.1a.5.5 0 0 1 .25-.06c.51 0 .88.08 1.12.25a3.77 3.77 0 0 0 1.19.68.08.08 0 0 1 .03.08c0 .02-.02.03-.03.04-.36.28-.68.27-.96-.05a.08.08 0 0 0-.09-.03.09.09 0 0 0-.06.06c-.01.07 0 .12.03.15.02.02 0 .07-.03.15-.05.1-.14.15-.27.14a.21.21 0 0 1-.19-.12l-.19-.38a.07.07 0 0 0-.13.03Z" fill="#89898A"/><path d="M39.44 34.01h-.01a.06.06 0 0 0-.09 0l-1.52 1.8a.06.06 0 0 0 .01.1h.01c.03.03.07.02.1 0l1.5-1.81a.06.06 0 0 0 0-.09Z" fill="#AB909A"/><path d="M24.88 34.84a.25.25 0 1 0 0-.5.25.25 0 0 0 0 .5Z" fill="#010101"/><path d="M31.35 34.7c0 .03-.02.06-.04.08a.13.13 0 0 1-.09.03c-.2 0-.32-.04-.36-.12a.25.25 0 0 1-.01-.14c0-.05.03-.1.07-.13a.32.32 0 0 1 .13-.09c.05-.01.1-.02.16-.01.13.02.18.15.14.38Z" fill="#6F2B47"/><path d="M21.73 34.55a.09.09 0 0 1 .02-.09.08.08 0 0 1 .04-.02h.05c.1.06.15.15.12.26a.08.08 0 0 1-.12.04.44.44 0 0 1-.11-.19Z" fill="#fff"/><path d="M26.41 35.27a.25.25 0 1 0 0-.5.25.25 0 0 0 0 .5ZM29.8 35.1a.84.84 0 0 1-.18.13.19.19 0 0 1-.15.02.18.18 0 0 1-.11-.1c-.08-.2-.03-.32.13-.36l.15.01c.05.01.1.04.13.07a.2.2 0 0 1 .05.12c0 .04 0 .08-.03.11Z" fill="#010101"/><path d="M18.74 35.27c-.02.04-.15.06-.4.04a.39.39 0 0 1-.21-.09c-.18-.15-.25-.24-.23-.3.02-.05.14-.06.37-.04.08 0 .16.04.22.1.18.15.27.25.25.3ZM28 35.36a.25.25 0 1 0 0-.5.25.25 0 0 0 0 .5ZM36.93 36.07c-.09-.23-.1-.42-.01-.56.27-.46.64-.69 1.1-.67a.1.1 0 0 1 .08.15c-.2.28-.4.37-.6.28a.18.18 0 0 0-.18.02.17.17 0 0 0-.07.16.85.85 0 0 1-.2.64.07.07 0 0 1-.1.01.07.07 0 0 1-.02-.03ZM19.07 35.7c-.02-.19-.11-.33-.2-.32-.09.01-.13.17-.1.36.02.18.1.32.2.31.08-.01.13-.17.1-.35Z" fill="#6F2B47"/><path d="M32.23 35.62c.04-.03.12-.06.24-.08a.08.08 0 0 1 .09.04.08.08 0 0 1 0 .1c-.03.03-.12.05-.28.06a.07.07 0 0 1-.07-.08l.02-.04ZM23.24 36.87a.05.05 0 0 1 0 .06l-.02.01-.07.02a.03.03 0 0 1-.02.01.03.03 0 0 1-.02 0l-.8-.92a.1.1 0 0 1-.03-.1.1.1 0 0 1 .07-.07c.92-.31 1.6-.3 2.01.02a.08.08 0 0 1 .02.1c0 .01 0 .02-.02.03l-.05.05a.05.05 0 0 1-.04 0l-.03-.01c-.17-.22-.35-.22-.54-.02a.18.18 0 0 0-.04.12v.3a.08.08 0 0 1-.11.08.08.08 0 0 1-.04-.02 2.11 2.11 0 0 1-.1-.13c0-.03.02-.07.07-.13a.13.13 0 0 0-.04-.2l-.24-.14a.3.3 0 0 0-.44.25c0 .07.03.14.07.19l.41.5Z" fill="#fff"/><path d="M27.08 35.62c-.44-.01-.79.02-.79.06 0 .04.35.09.78.1.44.01.8-.02.8-.06 0-.05-.36-.1-.8-.1ZM31.88 35.9a.05.05 0 0 1-.08-.04c.04-.16.1-.22.2-.18a.06.06 0 0 1 .03.07l-.02.03-.13.13Z" fill="#AB909A"/><path d="M27.12 37.3c-.36-.32-.57-.48-.65-.48a.08.08 0 0 0-.07.13c.12.13.22.2.3.24.13.05.19.13.17.24-.05.22-.24.34-.56.34a.12.12 0 0 1-.12-.15c0-.02.02-.04.04-.06a.34.34 0 0 0 .1-.12.12.12 0 0 0-.02-.13.73.73 0 0 0-.32-.21.07.07 0 0 0-.08.03c-.14.33-.07.58.2.76.28.18.55.17.82-.02.39-.28.82-.67 1.3-1.18.47-.5 1.02-.7 1.64-.6.32.06.56.26.7.61.14.35.11.67-.1.95-.29.42-.82.59-1.57.51a2.5 2.5 0 0 0-1.03.04.1.1 0 0 1-.08-.06.1.1 0 0 1 0-.06.73.73 0 0 1 .42-.55.17.17 0 0 1 .1-.02l.1.05c.18.2.45.31.8.36a.08.08 0 0 0 .08-.12.08.08 0 0 0-.04-.04l-.63-.24a.16.16 0 0 1-.06-.27l.2-.2a.27.27 0 0 1 .34-.05c.06.04.14.15.26.32 0 .02.03.03.05.04.02 0 .04.01.07 0 .05 0 .09-.04.11-.1a.09.09 0 0 0-.05-.12c-.2-.05-.27-.18-.21-.38a.24.24 0 0 1 .26-.17.24.24 0 0 1 .2.24v.23a.16.16 0 0 0 .17.17h.16a.16.16 0 0 0 .16-.22c-.1-.25-.3-.45-.62-.6a.32.32 0 0 0-.24-.01c-.56.18-1.1.6-1.63 1.26-.38.48-.92.68-1.61.6a.5.5 0 0 1-.27-.13c-.36-.3-.52-.65-.48-1.02.04-.38.26-.66.68-.85.22-.1.65-.14 1.28-.12a5.26 5.26 0 0 0 .82-.01.1.1 0 0 1 .06.09.1.1 0 0 1 0 .05c-.22.38-.48.5-.77.37a.08.08 0 0 0-.1.03.08.08 0 0 0 .01.1c.16.18.13.36-.09.53a.16.16 0 0 1-.2 0Z" fill="#89898A"/><path d="m24.13 36.24.05-.07a.17.17 0 0 1 .07-.03.2.2 0 0 1 .08 0c.03 0 .06.02.08.03.12.08.14.21.07.4a.28.28 0 0 1-.24.19.2.2 0 0 1-.14-.04.2.2 0 0 1-.07-.13l.1-.35Z" fill="#fff"/><path d="M19.46 36.35c.08-.02.23-.03.46-.03.16 0 .2.06.15.18a.76.76 0 0 1-.22.21.12.12 0 0 1-.16-.01l-.26-.26a.06.06 0 0 1-.01-.05.05.05 0 0 1 .04-.04ZM36.18 36.3c.16 0 .26 0 .31.03a.1.1 0 0 1 .06.08.1.1 0 0 1-.04.09c-.15.12-.26.18-.32.19-.06 0-.17-.06-.33-.17a.1.1 0 0 1-.04-.08l.01-.05a.1.1 0 0 1 .04-.04.78.78 0 0 1 .3-.05ZM35.67 37.03c-.03.13-.14.26-.33.4a.08.08 0 0 1-.09 0 .08.08 0 0 1-.04-.08l.01-.37c.04-.14.15-.27.33-.4a.08.08 0 0 1 .09 0 .08.08 0 0 1 .04.07l-.01.38Z" fill="#6F2B47"/><path d="M20.72 36.92v.39a.07.07 0 0 1-.05.06.08.08 0 0 1-.08-.01 1.47 1.47 0 0 1-.26-.27 1.5 1.5 0 0 1-.02-.38.08.08 0 0 1 .04-.08h.05a1.98 1.98 0 0 1 .32.29Z" fill="#010101"/><path d="M34.43 37.45c-.23 0-.42.07-.42.17s.18.18.41.19c.23 0 .42-.07.43-.17 0-.1-.19-.18-.42-.19ZM21.58 37.79c.22 0 .4-.07.4-.15 0-.07-.18-.13-.4-.13-.23 0-.4.07-.4.15 0 .07.18.13.4.13ZM22.5 37.94c-.12-.17-.29-.27-.36-.2-.08.05-.04.23.08.4.13.18.3.27.37.22.08-.06.04-.24-.08-.42ZM33.9 37.78c-.01.31-.15.51-.41.61a.08.08 0 0 1-.08 0 .09.09 0 0 1-.03-.08c.01-.37.14-.58.38-.64a.1.1 0 0 1 .1.03.11.11 0 0 1 .03.08ZM24.16 38.18a1.2 1.2 0 0 0-.49.45.22.22 0 0 1-.2.1c-.19 0-.3-.01-.33-.03a.14.14 0 0 1-.05-.2.14.14 0 0 1 .06-.05l.99-.43h.01l.04.08a.06.06 0 0 1-.01.07h-.02ZM32.63 38.31c-.21-.1-.42-.1-.47-.01-.05.1.08.26.3.36.2.1.42.11.46.01.05-.1-.08-.25-.3-.36ZM24.46 38.68c-.12-.15-.28-.22-.36-.16-.07.06-.03.23.09.38s.28.22.36.16c.07-.06.03-.23-.09-.38ZM31.78 38.89c.15-.16.22-.34.16-.4-.07-.07-.25 0-.4.17-.15.16-.22.34-.15.4s.24-.01.4-.17ZM25.23 39.02l.39-.2a.08.08 0 0 1 .1.05l.01.04-.03.23a.19.19 0 0 1-.18.13.9.9 0 0 1-.29-.06.1.1 0 0 1-.05-.15.11.11 0 0 1 .05-.04ZM30.55 38.9a3.06 3.06 0 0 1 .28.14.1.1 0 0 1 .02.1.1.1 0 0 1-.03.03c-.1.1-.23.13-.36.1a.37.37 0 0 1-.27-.27.1.1 0 0 1 .01-.09.1.1 0 0 1 .09-.04l.26.03ZM29.72 39.34c.14-.11.2-.27.14-.34-.07-.07-.23-.03-.36.08-.14.12-.2.27-.13.34.06.08.22.04.35-.08ZM26.46 39.05c-.17-.1-.34-.11-.4-.03-.05.09.05.24.2.34.17.1.35.11.4.03.05-.09-.04-.24-.2-.34ZM28.52 39.13c-.15-.1-.32-.14-.37-.07-.06.07.02.23.17.34.16.11.32.15.38.07.05-.07-.02-.22-.18-.34ZM27.65 39.44c.14-.09.22-.23.17-.32-.05-.08-.21-.09-.36 0-.14.08-.22.22-.17.3.05.1.21.1.36.02Z" fill="#6F2B47"/><path d="M25.07 42.66c.06 0 .1.03.13.06-.05.04-.09.07-.1.1v.03a.07.07 0 0 0 .07.06 34.36 34.36 0 0 0 5.53-.06.06.06 0 0 1 0 .1c-2 .87-4.07 1.2-6.22.99-.7-.07-1.75-.3-3.12-.69a28.3 28.3 0 0 0-2-.5 29.32 29.32 0 0 0-8.32-.18.09.09 0 0 1 0-.15 7.2 7.2 0 0 1 2.01-.78c3.04-.7 6.4-.41 10.05.84.71.24 1.37.3 1.97.18Z" fill="#0B7145"/><path d="M25.2 42.72a.22.22 0 0 0-.13-.06c1.98-.97 4.38-1.34 7.19-1.1.38.04 1.25.22 2.63.56 3 .74 6.27.8 9.8.2a.61.61 0 0 1 .25 0 .08.08 0 0 1 .06.07.08.08 0 0 1-.04.08c-1.02.54-1.91.89-2.69 1.05-2.47.5-5.17.4-8.1-.32-.96-.24-1.74-.4-2.33-.48-1.8-.25-4-.25-6.64 0Z" fill="#920741"/></svg>