<!-- by TradingView --><svg width="56" height="56" viewBox="0 0 56 56" xmlns="http://www.w3.org/2000/svg"><path fill="#F0F3FA" d="M0 0h56v56H0z"/><path d="m28.64 21.26-1.33-1.95c1.55-1.3 5.73-3.76 9.99-3.24 4.26.52 4.88 4.1 4.66 5.83-.53-2.59-2.88-3.67-4-3.88-4.79 0-8.2 2.16-9.32 3.24Z" fill="#7FBF14"/><path d="m33.97 19.96-1.33 2.6c.44.2 1.33.9 1.33 1.94 0 1.3-.67 7.13-.67 9.07 0 1.95.67 3.9 2.67 3.9s2.66-1.3 4-1.3c1.06 0 1.77.86 2 1.3v-1.95c-.23-.43-.94-1.3-2-1.3-1.34 0-2.67 1.95-4.67 1.3-2-.65 0-8.43 0-11.67 0-2.6-.89-3.67-1.33-3.89Z" fill="#7FBF14"/><path d="m36.63 40.06-.66-1.3c1.06 0 2.66-.87 3.33-1.3v1.3c-.54 0-2 .86-2.67 1.3ZM37.97 42l-.67-.65c.53-.52 1.55-.65 2-.65v.65l-1.33.65ZM30.64 21.26l-1.33 2.59c4 1.94 2 9.07 2 9.72 0 .65-2.67 2.6-8 2.6-4.26 0-13.31-3.9-17.31-5.84 8 5.84 13.98 7.78 17.31 7.78 3.33 0 8.66-1.94 8.66-3.89v-7.78c0-2.07-.89-4.32-1.33-5.18Z" fill="#7FBF14"/><path d="m29.97 27.1-1.33 1.29c.67.21 1.87 1.03 1.33 2.59-.53 1.56-7.77 2.8-11.32 3.24.67.22 2.8.65 6 .65 4 0 5.99-2.6 5.99-3.89 0-1.04-.44-3.03-.67-3.89Z" fill="#7FBF14"/><path d="M27.31 22.55v2.6c-1.33 0-4 0-4.66 1.3-.67 1.29.66 1.29 2.66 1.29s2.67 1.3 2 1.94c-.67.65-4 3.9-9.32 3.24-4.26-.51-9.77-3.67-11.99-5.18 3.33 1.94 11.32 3.89 13.98 3.89 2.67 0 6-1.3 6-1.95 0-.64-.67-.64-2.67-.64-1.6 0-2.44-.87-2.66-1.3-.53-3.63 4.22-4.97 6.66-5.19Z" fill="#7FBF14"/></svg>