<!-- by TradingView --><svg width="56" height="56" viewBox="0 0 56 56" xmlns="http://www.w3.org/2000/svg"><path fill="#F0F3FA" d="M0 0h56v56H0z"/><path d="M40.81 19.67c2.56-.24 6.52-.37 8.29 2.08.5 1.01.17 2.03-.03 2.65l-.08.25c.28-.14 3.1-2.98 1.55-4.64-1.55-1.65-7.72-.91-9.73-.34Zm3.9 3.16c-3.12-2.03-8-1.95-10.05-1.66l.2-.05c1.17-.3 7.2-1.81 11.53.05 4.9 2.37.27 6.34-2.66 8.03 1.63-1.27 4.1-4.34.99-6.37ZM8 25v3h2v-1h4.7c.72 0 1.3.32 1.3 1 0 .68-.58 1-1.3 1H8v4h2v-2h4.82c1.7 0 3.18-1.39 3.18-3s-1.48-3-3.18-3H8Zm22 0H20v2h10v-2Zm-4 3h-2v5h2v-5Zm8.22 0h-2.17c.3-1.7 1.8-3 3.61-3H41v2h-4.88c-.83 0-1.55.4-1.9 1Zm1.9 3H41v2h-5.34a3.65 3.65 0 0 1-3.6-3h2.16c.35.6 1.07 1 1.9 1Z" fill="#0E2B63"/></svg>