<!-- by TradingView --><svg width="56" height="56" viewBox="0 0 56 56" xmlns="http://www.w3.org/2000/svg"><path fill="#F0F3FA" d="M0 0h56v56H0z"/><path d="M28.8 11.07c-.92.23-1.02 1.38-.13 1.76l1.04.43a.28.28 0 0 1 .17.2.28.28 0 0 1-.08.26c-.38.37-.9.08-.97-.43 0-.04-.03-.06-.07-.06h-.88a.07.07 0 0 0-.05.01.07.07 0 0 0-.02.05c.04 1.16 1.33 1.4 2.22 1.21 1.08-.23 1.26-1.62.2-2.05-.32-.12-.64-.24-.99-.35a.23.23 0 0 1-.11-.08.22.22 0 0 1-.04-.14c.02-.38.68-.27.8.08 0 .04.03.08.05.13l.04.03a.1.1 0 0 0 .05.01l.81.04a.1.1 0 0 0 .1-.06.1.1 0 0 0 0-.03c0-1.03-1.41-1.2-2.15-1.01Zm-3.32.16.93-.11c.04 0 .08.02.08.06l.4 3.25c.01.04-.02.08-.06.08l-.92.11a.07.07 0 0 1-.08-.06l-.4-3.25c-.01-.04.01-.08.05-.08Zm-3 3.55.27.7v.04l-.03.03-.92.33a.05.05 0 0 1-.07-.03l-1.15-3.11v-.04l.03-.03.9-.33a.05.05 0 0 1 .08.03l.38 1.03.02.03a.05.05 0 0 0 .06 0l.02-.03.54-1.43.02-.02.02-.01 1.21-.44a.05.05 0 0 1 .07.04v.03l-.69 1.48a.05.05 0 0 0 .02.06l1.88 1.5a.05.05 0 0 1 .02.04v.03l-.03.01-1.13.4a.05.05 0 0 1-.05 0l-1.1-1a.05.05 0 0 0-.06-.02.05.05 0 0 0-.03.03l-.27.65v.03Zm9.87-2.43.9.33a.07.07 0 0 1 .04.03v.05l-.85 2.3a.06.06 0 0 0 0 .04.06.06 0 0 0 .04.04l.89.32h.02a.06.06 0 0 0 .06-.04l.86-2.3.01-.02a.07.07 0 0 1 .08-.02l.89.34a.07.07 0 0 0 .05 0l.02-.02.01-.02.26-.69a.06.06 0 0 0 0-.05.06.06 0 0 0-.04-.03l-2.95-1.06a.07.07 0 0 0-.07.02l-.02.02-.24.68v.05c.01.02.02.03.04.03Zm6.32 2.27-.96 3.42-.01.02a.05.05 0 0 1-.08 0l-.83-.58a.05.05 0 0 1-.02-.06l.2-.47a.05.05 0 0 0-.03-.06l-.92-.66a.06.06 0 0 0-.07 0l-.4.31a.06.06 0 0 1-.07 0l-.8-.57a.05.05 0 0 1 0-.07v-.02l3.01-1.95a.06.06 0 0 1 .07 0l.89.63a.05.05 0 0 1 .02.06Zm-2 1.09a.04.04 0 0 0 0 .06l.52.36a.04.04 0 0 0 .06-.02l.34-1a.04.04 0 0 0-.02-.03.04.04 0 0 0-.04 0l-.85.63ZM20.3 16.87l.75-.6a.08.08 0 0 0 0-.14L18 14.37a.08.08 0 0 0-.09.01l-.84.65a.08.08 0 0 0-.02.09l1.11 3.31a.08.08 0 0 0 .06.06.08.08 0 0 0 .07-.02l.72-.57a.08.08 0 0 0 .02-.1l-.18-.42a.08.08 0 0 1 .02-.1l.87-.68a.08.08 0 0 1 .1 0l.36.27a.08.08 0 0 0 .1 0Zm-1.22-.73-.01.02-.48.38a.04.04 0 0 1-.04 0h-.01l-.01-.01-.42-.98v-.02l.01-.02a.04.04 0 0 1 .05 0l.9.59a.04.04 0 0 1 0 .04ZM40.43 28c.03 3.2-1.23 6.3-3.51 8.58a12.43 12.43 0 0 1-17.4.18 11.97 11.97 0 0 1-3.7-8.5 11.96 11.96 0 0 1 3.5-8.58 12.44 12.44 0 0 1 8.67-3.62c3.27-.04 6.41 1.2 8.75 3.44a11.97 11.97 0 0 1 3.7 8.5Zm-1.86-3.62a11.15 11.15 0 0 0-10.17-7.14c-.04 0-.05.02-.03.05l3.64 5.1c.05.08.13.14.22.16l6.3 1.88c.04.02.06 0 .04-.05Zm-11.26-7.1a11.12 11.12 0 0 0-9.66 7.23.04.04 0 0 0 .04 0l6-2a.2.2 0 0 0 .1-.09l3.55-5.1c.03-.03.02-.05-.03-.05Zm.7 17.16a6.38 6.38 0 0 0 4.54-10.87 6.38 6.38 0 0 0-9.04 9 6.38 6.38 0 0 0 4.5 1.87Zm10.72-9.48-4.1 5.1c-.1.12-.14.3-.13.54a2832.47 2832.47 0 0 1 .3 6.17.07.07 0 0 0 .06.03c.01 0 .02 0 .03-.02a10.8 10.8 0 0 0 3.9-11.8c-.01-.05-.03-.05-.06-.02ZM20.66 36.2l.62.52c.06.05.09.04.09-.04l-.08-6.42a.2.2 0 0 0-.04-.13l-3.77-4.9c-.04-.06-.06-.05-.08 0a10.67 10.67 0 0 0 3.26 10.97Zm13.57.97L27.86 35a.22.22 0 0 0-.14 0l-5.62 2.2a.04.04 0 0 0-.03.06l.02.02a11.36 11.36 0 0 0 12.17-.08l-.01-.02-.02-.01Zm8.03-18.8-1.41 1.04a.04.04 0 0 1-.05 0v-.04l.7-2.03v-.02l-.01-.02-.57-.74h-.01a.04.04 0 0 0-.04 0l-2.73 2.01a.04.04 0 0 0-.01.02.04.04 0 0 0 0 .03l.58.74v.01h.05l1.4-1.04a.04.04 0 0 1 .03 0c.01 0 .02 0 .02.02v.02l-.7 2.01a.04.04 0 0 0 .01.03l.57.76v.01a.04.04 0 0 0 .02 0h.03l2.73-2.02h.01a.04.04 0 0 0 0-.04v-.01l-.57-.74v-.01h-.05ZM15.98 19.4l.9.68a.1.1 0 0 1 .02.13l-.55.71a.08.08 0 0 1-.08.03l-.03-.01-2.65-1.98c-.04-.02-.04-.06-.02-.1.34-.47.69-.92 1.05-1.36.48-.57 1.08-.72 1.66-.19.7.65.2 1.4-.3 1.99l-.02.02v.03a.07.07 0 0 0 .02.05Zm-1.14-.85.43.32a.12.12 0 0 0 .16-.02l.11-.14c.04-.06.08-.11.1-.17a.56.56 0 0 0 .05-.17c0-.06 0-.11-.02-.16a.24.24 0 0 0-.08-.1l-.08-.06a.25.25 0 0 0-.13-.05c-.04 0-.1 0-.15.02a.58.58 0 0 0-.16.09.73.73 0 0 0-.14.13l-.11.15a.11.11 0 0 0 .02.16Zm27.8 7.63c.6 4.64-.54 8.8-4.04 12.06-.03.03-.03.06 0 .1l.7.76c.02.03.06.04.09 0 4.34-3.93 5.4-9.56 4.07-15.06a11.23 11.23 0 0 0-1.2-2.95.07.07 0 0 0-.05 0l-.9.53c-.02 0-.02.03-.01.05.68 1.3 1.12 2.81 1.34 4.51Zm-30.56 3.99a15.15 15.15 0 0 1 1.84-9.02.05.05 0 0 1 .03 0l.92.53a.07.07 0 0 1 .03.05.07.07 0 0 1 0 .05c-1 1.75-1.47 3.62-1.67 5.62-.41 4.21 1.23 7.88 4.2 10.84.03.03.03.07 0 .1l-.73.72a.1.1 0 0 1-.14 0c-2.43-2.47-4.14-5.43-4.48-8.89Zm20.01-6.53c1.63 1.06.92 3.8-.94 4.26-.44.11-1 .1-1.51.1h-.29c-.04 0-.06-.03-.06-.07v-.61c0-.05.02-.07.07-.08 1.22-.11 2.56-.93 2-2.29-.28-.7-1.25-1.06-1.98-1.2a.06.06 0 0 1-.04-.02.06.06 0 0 1-.02-.03v-.63c0-.03.01-.05.04-.05 1.04-.1 1.95.11 2.73.62ZM27.5 23h1.16c.03 0 .04.02.04.04v9.92c0 .02-.01.04-.04.04H27.5a.04.04 0 0 1-.04-.04v-9.92c0-.02.01-.04.04-.04Zm-2.45 0 1.92.01c.02 0 .04.02.04.03v.94c0 .02-.02.03-.04.03h-1.93c-.02 0-.03-.02-.03-.04v-.94c0-.02.02-.03.04-.03Zm1.65 9.26-.04-.01c-.9-.08-1.89-.5-2.1-1.4-.3-1.27 1-1.9 2.06-2.08.04 0 .06-.03.06-.07v-.61c0-.05-.02-.07-.07-.08-1.04-.07-2.39.2-3.08.98-1.08 1.22-.4 3.47 1.26 3.9.42.11.94.1 1.43.1l.42.01c.05 0 .07-.02.07-.07v-.64l-.01-.03Zm4.26-.26h-1.9c-.03 0-.05.02-.05.04v.92c0 .02.03.04.05.04h1.9c.03 0 .05-.02.05-.04v-.93c0-.02-.02-.03-.05-.03Zm-11.13 7.82c-.4-1.38-2.02.12-1.69.83.2.44.72.5 1.09.18.03-.02.06-.02.09.02l.48.7c.03.04.02.07-.01.1-.52.37-1.08.4-1.66.07-.92-.5-1.29-1.36-.79-2.31.39-.75 1.26-1.33 2.14-.97.87.35 1.55 1.11 1.17 2.08-.02.04-.05.05-.1.03l-.71-.35c-.04-.02-.06-.05-.05-.1l.04-.16a.23.23 0 0 0 0-.12Zm18.04-.97c.06-.05.06-.1 0-.15-.45-.32-.82-.35-1.32-.11-.5.23-1.16.8-1.13 1.4.03.67.65 1 1.3.8l.28-.1c.39-.17.91-.39 1.12-.1.03.03.04.06.03.1-.06.33-.26.5-.6.53-.05 0-.1 0-.13-.03l-.3-.15a.1.1 0 0 0-.11.02l-.66.55c-.03.03-.03.06 0 .09.49.47 1.05.52 1.68.14.53-.32 1.01-.74 1.03-1.37a.98.98 0 0 0-1.09-1.04c-.34.03-.66.16-.95.28-.14.06-.27.12-.4.16-.17.05-.28 0-.32-.16a.16.16 0 0 1 .01-.1c.19-.34.45-.4.8-.21a.1.1 0 0 0 .12-.01l.64-.54Zm-3.83 4.26 1.63-.68h.03s.02 0 .02.02l.29.65a.04.04 0 0 1 0 .02v.01l-.01.01h-.01l-2.63 1.1a.04.04 0 0 1-.03 0h-.01l-.01-.01-1.34-3.09v-.03a.04.04 0 0 1 .02-.02l2.6-1.08h.01a.04.04 0 0 1 .03.01l.01.01.24.63a.04.04 0 0 1-.02.04l-1.58.65a.04.04 0 0 0-.02.02.04.04 0 0 0 0 .03l.2.43.01.02h.03l1.46-.61a.04.04 0 0 1 .05.01l.25.59a.04.04 0 0 1 0 .03.04.04 0 0 1-.01.02l-1.47.62h-.02v.02a.04.04 0 0 0 0 .02l.24.54a.04.04 0 0 0 .04.02ZM22.6 40.38l-2.5 2.59-.01.01a.04.04 0 0 0 0 .04h.02l.94.4.02.01.02-.01.34-.41.02-.02h.03l1.07.46.02.01v.03l-.07.52v.02l.02.02.97.4a.04.04 0 0 0 .04 0v-.01l.01-.02.16-3.58v-.02l-.03-.01-1.03-.44a.04.04 0 0 0-.04.01Zm-.6 1.98v-.02l.7-.78a.04.04 0 0 1 .06.03l-.1 1.02v.02a.04.04 0 0 1-.06.01l-.58-.24a.04.04 0 0 1-.02-.03v-.01Zm5.58.81a.06.06 0 0 0-.04.05v.03l.03.02c1.03.47.42 1.8-.7 1.69-.88-.09-1.57-.16-2.06-.24-.04 0-.05-.02-.05-.06l.41-3.28a.05.05 0 0 1 .06-.05l1.5.2c.82.09 1.58.23 1.3 1.24a.58.58 0 0 1-.45.4Zm-.57-.74a.17.17 0 0 0-.1-.17.18.18 0 0 0-.06-.02l-.51-.06a.18.18 0 0 0-.13.04.17.17 0 0 0-.06.11l-.04.28a.17.17 0 0 0 .04.13.17.17 0 0 0 .11.06l.52.06a.17.17 0 0 0 .17-.08.17.17 0 0 0 .02-.07l.04-.28Zm-1 1.1-.08.5a.1.1 0 0 0 .05.1.1.1 0 0 0 .03 0l.46.07a.6.6 0 0 0 .35-.05c.1-.05.16-.13.17-.21v-.05c.02-.08-.02-.17-.1-.24a.6.6 0 0 0-.32-.14l-.46-.06a.1.1 0 0 0-.07.01.1.1 0 0 0-.04.07Zm5.87.28-1.54.21-.05-.01a.06.06 0 0 1-.02-.04l-.35-2.42a.06.06 0 0 0-.02-.04.06.06 0 0 0-.04-.01l-.95.11a.06.06 0 0 0-.04.03.06.06 0 0 0-.01.04l.47 3.27c0 .02 0 .03.02.04h.04l2.61-.34a.06.06 0 0 0 .04-.02.06.06 0 0 0 .01-.05l-.1-.72a.06.06 0 0 0-.02-.04.06.06 0 0 0-.05 0Z" fill="#05A553"/></svg>