<!-- by TradingView --><svg width="56" height="56" viewBox="0 0 56 56" xmlns="http://www.w3.org/2000/svg"><path fill="#F0F3FA" d="M0 0h56v56H0z"/><path d="M21.26 19c-1.12 0-1.68-1.1-.9-1.91l4.67-4.67a1.35 1.35 0 0 1 1.89-.07c.58.53.62 1.45.1 2.03L25.5 16h11.86c4.22 0 7.64 3.79 7.64 8.13A7.75 7.75 0 0 1 37.36 32h-12.8c-.86 0-1.56-.6-1.56-1.5s.7-1.5 1.57-1.5H37.5c2.48 0 4.5-2.3 4.5-4.87 0-2.56-2.02-5.13-4.5-5.13H21.26Z" fill="url(#awmexk0pz)"/><path d="M34.74 37c1.12 0 1.68 1.1.9 1.91l-4.67 4.67c-.51.53-1.34.56-1.89.07a1.45 1.45 0 0 1-.1-2.03L30.5 40H18.64C14.42 40 11 36.21 11 31.87A7.75 7.75 0 0 1 18.64 24h12.8c.86 0 1.56.6 1.56 1.5s-.7 1.5-1.57 1.5H18.5c-2.48 0-4.5 2.3-4.5 4.87 0 2.56 2.02 5.13 4.5 5.13h16.24Z" fill="url(#bwmexk0pz)"/><path fill-rule="evenodd" d="m30.97 43.58 4.67-4.67c.78-.81.22-1.91-.9-1.91H18.5c-2.48 0-4.5-2.57-4.5-5.13S16.02 27 18.5 27h12.93c.87 0 1.57-.6 1.57-1.5s-.7-1.5-1.57-1.5h-12.8A7.75 7.75 0 0 0 11 31.87C11 36.2 14.42 40 18.64 40H30.5l-1.52 1.62c-.52.58-.48 1.5.1 2.03.55.5 1.38.46 1.9-.07Zm-1.62-1.62c-.34.38-.3.98.07 1.32.34.31.86.3 1.19-.05l4.67-4.67c.26-.27.25-.52.17-.7-.09-.18-.32-.36-.7-.36H18.5a4.72 4.72 0 0 1-3.56-1.78 6.07 6.07 0 0 1-1.44-3.85c0-2.8 2.2-5.37 5-5.37h12.93c.63 0 1.07-.42 1.07-1 0-.58-.44-1-1.07-1h-12.8a7.25 7.25 0 0 0-7.13 7.37c0 4.1 3.23 7.63 7.14 7.63h13.01l-2.3 2.46Z" fill="url(#cwmexk0pz)"/><defs><linearGradient id="awmexk0pz" x1="24.75" y1="14.12" x2="31.91" y2="30.07" gradientUnits="userSpaceOnUse"><stop stop-color="#243164"/><stop offset=".19" stop-color="#6491BC"/><stop offset=".44" stop-color="#5A81AC"/><stop offset=".97" stop-color="#22224C"/></linearGradient><linearGradient id="bwmexk0pz" x1="17.54" y1="23.03" x2="24.42" y2="45.32" gradientUnits="userSpaceOnUse"><stop offset=".14" stop-color="#D2D4D8"/><stop offset=".38" stop-color="#FBFCFD"/><stop offset=".62" stop-color="#BDBEC0"/><stop offset=".82" stop-color="#fff"/><stop offset="1" stop-color="#D6D8DA"/></linearGradient><linearGradient id="cwmexk0pz" x1="28.5" y1="24" x2="28.5" y2="44" gradientUnits="userSpaceOnUse"><stop stop-color="#E4E6E8"/><stop offset=".09" stop-color="#9B9B9B"/><stop offset=".25" stop-color="#D6D5D6"/><stop offset=".44" stop-color="#686767"/><stop offset=".61" stop-color="#CCCBCC"/><stop offset=".74" stop-color="#757576"/><stop offset=".86" stop-color="#969595"/><stop offset="1" stop-color="#4B4949"/></linearGradient></defs></svg>