<!-- by TradingView --><svg width="56" height="56" viewBox="0 0 56 56" xmlns="http://www.w3.org/2000/svg"><path fill="#F0F3FA" d="M0 0h56v56H0z"/><path d="m28 13 20 5.14V19l-20-5.14-20 5.09v-.8L28 13Zm0 30 20-5.19V37l-20 5.13L8 37v.81L28 43Z" fill="#24A227"/><path fill-rule="evenodd" d="M48 19.69 28 15 8 19.69v16.62L28 41l20-4.69V19.69ZM9 35V20h5c3.16.03 6 2.5 6 5.55s-2.84 5.52-6 5.55V35H9Zm33-15h-5v16h10v-7.63l-5 3.56V20Zm-14-3 4.95 5.79A8.12 8.12 0 0 1 35 28.27l-5.43-4.25-.27-.43v-.65l-.23-.2v-.76l-.19-.2v-1.16l-.23-.25v-1.2c.1-.09.28-.32.28-.56 0-.24-.37-.4-.56-.45l-.1-.7-.22.2h-.14l-.19.3-.55.65c.13.08.41.31.41.55 0 .25-.09.4-.14.46v.83l-.02-.02-2.2 4.74L21 28.45a8.13 8.13 0 0 1 2.05-5.66L28 17Zm2.17 8 4.81 3.75a8.24 8.24 0 0 1-.35 1.91l-3.56-4.23-.9-1.44Zm.64 1.72 3.67 4.37a8.1 8.1 0 0 1-.23.55l-3.47-4.9.03-.02Zm-.38.18 3.63 5.13a8 8 0 0 1-.83 1.26 16.7 16.7 0 0 1-2.86-6.36l.06-.03Zm-.45-.08c.2 1.29 1 4.02 3 6.77l-.03.04c-.32.36-.67.68-1.03.95l-.44-.33V32.8h-.91c-.76-.63-1.01-4.88-1.04-7l.45 1.02Zm-4.2 7.4c-.1.42-.64.67-1.08.78a6.96 6.96 0 0 1-1.07-.79h2.14Zm-.6-.71h-2.23a8 8 0 0 1-.72-.97l3.29-7.1 1.27-.99v1c.1 0 .28.1.28.5 0 .41-.18.58-.28.61v1.81l-.13.26v1.76l-.19.1v1.81c0 .88-.57 1.16-1.01 1.2h-.28Zm-.31-7.56L22 32.15c-.55-1-.87-2.11-.97-3.23l3.84-2.98Zm2.43-1.9.07-.04-.07-.1v-.17h.38v.4h-.38v-.08Zm-.5-.1-.93.72 1.57-3.4v.1c0 .41-.12.58-.18.61v1.46l-.47.45v.07Zm1.15-2.32h.37v.4h-.37v-.4Zm.1.7h.37v.4h-.37v-.4Zm.37.91h-.37v.4h.37v-.4Zm-.93 1.41h-.37v.4h.37v-.4Zm-.28.9h.37v.4h-.37v-.4Zm1.76-.8h-.37v.4h.37v-.4Zm-.27.8h.37v.4h-.37v-.4Zm.27.91h-.37v.4h.37v-.4Zm-.18.6h.37v.4h-.37v-.4Zm.55.61h-.37v.4h.37v-.4Zm-.46.9h.37v.4h-.37v-.4Zm.46.71h-.37v.4h.37v-.4Zm-.18.7h.37v.4h-.37v-.4Zm.37.5h-.37v.41h.37v-.4Zm-.28 1.42h.37v.4h-.37v-.4Zm-.55-.3h-1.02v.4h1.02v-.4Zm-.75-.7h.65v.4h-.65v-.4Zm.65-.71h-.65v.4h.65v-.4Zm-.83-1.31h.65v.4h-.65v-.4Zm.74-.7h-.65v.4h.65v-.4Zm-.65-.71h.65v.4h-.65v-.4Zm.65-.7h-.65v.4h.65v-.4Zm-.74-.71h.65v.4h-.65v-.4Zm.83 3.42h-1.1v.4h1.11v-.4Zm-1.57 1h.37v.41h-.37v-.4Zm.27-1.9h-.37v.4h.37v-.4Zm-.55 2.71h.37v.4h-.37v-.4Zm.37.6h-.37v.41h.37v-.4Zm.74-7.84h.74v.4h-.74v-.4Z" fill="#24A227"/></svg>