<!-- by TradingView --><svg width="56" height="56" viewBox="0 0 56 56" xmlns="http://www.w3.org/2000/svg"><path fill="#F0F3FA" d="M0 0h56v56H0z"/><path d="M42.47 30.54c0-3.31-1.23-6.35-3.3-8.73l.6-.46c2.16 2.5 3.47 5.7 3.47 9.2C43.24 38.52 36.42 45 28 45s-15.24-6.47-15.24-14.46c0-3.49 1.3-6.7 3.47-9.19l.6.46a13.26 13.26 0 0 0-3.3 8.73c0 7.58 6.48 13.73 14.47 13.73 8 0 14.47-6.15 14.47-13.73Z" fill="#008436"/><path d="M13.93 27.75c-1.35.49-2.12 1.05-2.12 1.64 0 1.83 7.25 3.31 16.19 3.31 8.94 0 16.19-1.48 16.19-3.3 0-.6-.77-1.16-2.12-1.65-.05-.27-.1-.54-.17-.8 3.76.9 6.1 2.18 6.1 3.59 0 2.76-8.95 5-20 5s-20-2.24-20-5c0-1.41 2.34-2.69 6.1-3.6-.07.27-.12.54-.17.81Zm24.61 12.76A19.4 19.4 0 0 0 28 37.43a19.4 19.4 0 0 0-10.54 3.08 14.5 14.5 0 0 0 3.22 2.5 15.64 15.64 0 0 1 7.32-1.8c2.65 0 5.15.66 7.32 1.8a14.71 14.71 0 0 0 3.22-2.5Z" fill="#008436"/><path d="M28.14 28.92a30.22 30.22 0 0 1-13.47-3.35l.3-.43a29.6 29.6 0 0 0 13.17 3.26c5.92 0 11.09-1.84 12.91-2.75l.28.45a32.7 32.7 0 0 1-13.2 2.82Zm-.27 4.66c-6.15 0-10.87 2.65-12.43 3.96l-.39-.46c1.66-1.38 6.51-4.1 12.82-4.1 6.3 0 11.22 2.9 12.91 4.37l-.39.45c-1.6-1.4-6.38-4.22-12.52-4.22Zm-.1 8.79c-2.73 0-4.47 1.1-4.96 1.6l-.43-.41c.61-.63 2.5-1.79 5.39-1.79 2.88 0 4.75 1.16 5.35 1.79l-.43.42c-.48-.5-2.2-1.61-4.92-1.61Z" fill="#008436"/><path d="M21.09 24.62c-.65.64-2.05 3.6-2.05 7.41s3.41 8.55 5.15 10.7l-.43.38c-2.24-2.8-5.28-7.11-5.28-11.08 0-3.95 1.45-7.07 2.23-7.84l.38.43Zm14.76.79a15.6 15.6 0 0 1 1.12 6.01c0 5.72-4.39 10.3-5.16 11.3l.42.39c.85-1.09 5.3-5.8 5.3-11.69 0-2.57-.58-5-1.19-6.28l-.49.27Z" fill="#008436"/><path d="M22.32 30.46c.22-3 1.07-6.49 1.79-8.16l.51.25a29.23 29.23 0 0 0-1.73 7.96c-.3 4.2 1.48 8.93 3.2 11.28l-.44.37a19.1 19.1 0 0 1-3.33-11.7Zm9.32 4.68c.44-2.61.5-5 .4-6.66l.68-.03c.1 1.69.04 4.13-.41 6.8-.45 2.65-1.3 5.34-2.9 6.91l-.46-.51c1.4-1.38 2.24-3.87 2.69-6.51Z" fill="#008436"/><path d="m24.66 33.18-9.88-18.1a.95.95 0 0 1 .45-1.33L19.34 12c.66-.29 1.41.1 1.59.8l1.9 7.66a1 1 0 0 1-.49 1.14l-1.35.72a.88.88 0 0 0-.37 1.15l4.52 9.72h-.48Zm-7.08-17.06 1.9 3.86c.13.36.47.52.77.37l.23-.13c.28-.14.42-.52.34-.87l-1.4-4.08c-.09-.42-.45-.65-.78-.5l-.73.36c-.32.15-.47.6-.33.99Zm9.16 17.36-2.54-21.7A1.6 1.6 0 0 1 25.78 10h4.44c.99 0 1.73.9 1.57 1.87l-1.4 8.07c-.14.8-.82 1.38-1.63 1.38h-1.2a.8.8 0 0 0-.79.83l.44 11.33h-.47Zm.3-19.85.24 4.2c.02.4.29.7.6.68l.25-.01c.29-.02.52-.3.54-.67l.28-4.2c.03-.43-.24-.8-.58-.8l-.75.02c-.33 0-.6.36-.57.78Zm8.16-1.03-5.3 20.56.36.35 3.5-10.68c.14-.45.6-.7 1.04-.56l1.46.44c.44.14.9-.06 1.13-.47l3.8-6.9c.34-.64.06-1.45-.6-1.72l-4.18-1.66a.9.9 0 0 0-1.21.64Zm-.13 6.88 1.06-3.39c.14-.34.6-.5.99-.37l.9.32c.4.15.57.55.37.87l-1.66 3.17c-.18.27-.57.4-.92.29l-.3-.1c-.38-.12-.57-.47-.44-.79Z" fill="#008436"/></svg>