<!-- by TradingView --><svg width="56" height="56" viewBox="0 0 56 56" xmlns="http://www.w3.org/2000/svg"><path fill="#F0F3FA" d="M0 0h56v56H0z"/><path d="M7 29.81c0-4.74 5.06-7.85 7.58-8.81C10.44 23.6 9 26.35 9 28.59 9 35.8 20.55 39 25.89 39s7.93-1.28 10.11-2c-2.18 1.23-5.55 3-11.8 3C15.08 40 7 35.74 7 29.81Z" fill="#0E6634"/><path d="M44.56 18.37c0-.55-.1-1.14-.14-1.37.2.46.58 1.51.58 2.06 0 .69.07 1.6-1.75 3.5C41.8 24.1 41.4 25.5 41.36 26a8.18 8.18 0 0 1-.36-1.53c0-2.74 3.56-4.42 3.56-6.1Z" fill="url(#algt1o1id)"/><path d="M44.28 22.51c1.52-1.59 1.95-3 1.97-3.51.1.2.3.8.3 1.6 0 1.84-2.12 3.2-2.12 4.66 0 1.45 1.22 2.29 1.98 2.29.75 0 .75-.15 1.59-.53A3.19 3.19 0 0 1 45.04 29c-1.6 0-3.04-1.37-3.04-2.75 0-1.37.38-1.75 2.28-3.74Z" fill="#CC1318"/><path d="M48 25.13A5.3 5.3 0 0 0 46.67 22c0 1.6-1.67 2.6-1.67 3.53 0 .94.67 1.47 1.47 1.47.8 0 1.53-.73 1.53-1.87Z" fill="url(#blgt1o1id)"/><path d="M16.07 21H15v12h3v-4h3a4 4 0 1 0 0-8h-4.93ZM18 27v-4h2a2 2 0 1 1 0 4h-2Zm8-6h6a4 4 0 0 1 1.78 7.58L36 33h-3.98l-2.01-4H29v4h-3V21Zm5 6a2 2 0 1 0 0-4h-2v4h2Zm9-6h-3v12h7v-3h-4v-9Z" fill="#26347B"/><defs><linearGradient id="algt1o1id" x1="43" y1="17" x2="43" y2="26" gradientUnits="userSpaceOnUse"><stop stop-color="#34774E"/><stop offset="1" stop-color="#023919"/></linearGradient><linearGradient id="blgt1o1id" x1="46.5" y1="22" x2="46.5" y2="27" gradientUnits="userSpaceOnUse"><stop stop-color="#34774E"/><stop offset="1" stop-color="#023919"/></linearGradient></defs></svg>