<!-- by TradingView --><svg width="56" height="56" viewBox="0 0 56 56" fill="none" xmlns="http://www.w3.org/2000/svg">
<rect width="56" height="56" fill="#F0F3FA"/>
<path fill-rule="evenodd" clip-rule="evenodd" d="M20 29.0912V21.5103L23.5 19.8175V27.3248L20 29.0912ZM15.5 31.0785V24.528L19 22.8352V29.3121L15.5 31.0785Z" fill="#0F6A36"/>
<path fill-rule="evenodd" clip-rule="evenodd" d="M36 29.0912V21.5103L32.5 19.8175V27.3248L36 29.0912ZM41 31.671V25.1206L37.5 23.4278V29.9046L41 31.671Z" fill="#5ABA47"/>
<path fill-rule="evenodd" clip-rule="evenodd" d="M24.5 26.9095L27.5 25.5533V13L24.5 14.3878V26.9095ZM31.5 26.9095L28.5 25.5533V13L31.5 14.3878V26.9095Z" fill="#119548"/>
<path fill-rule="evenodd" clip-rule="evenodd" d="M18 38.2106V30.9905L21.1973 29.5752C22.1431 29.1691 24 28.7137 24 30.7474C24 32.8287 22.2822 33.8213 20.5572 34.8181C20.1752 35.0388 19.7929 35.2598 19.4287 35.4928V37.4418L18 38.2106ZM19.4774 34.1087V31.5807L21.1789 30.7474C21.6126 30.6062 22.4801 30.5384 22.4801 31.3971C22.4801 32.4704 21.3648 33.1483 19.4774 34.1087Z" fill="#0F6A36"/>
<path d="M29.5067 30.2964L30.4891 28.935C28.3483 27.1971 25.0053 27.8923 25.0053 30.1226C25.0053 32.353 26.8967 32.5703 27.9378 32.8599C28.9788 33.1496 29.0228 33.4537 29.0228 33.8013C29.0228 34.1489 28.7589 34.5255 27.6299 34.5255C26.7267 34.5255 26.0023 33.9075 25.753 33.5986L24.624 34.7138C25.6944 35.8 26.9114 35.9738 27.6299 35.9738C28.3483 35.9738 30.6504 35.7855 30.6504 33.7144C30.6504 31.6434 28.7442 31.484 27.6299 31.1509C26.5155 30.8178 26.5448 30.4992 26.5448 30.2964C26.5448 30.0937 26.5448 29.3985 27.6299 29.3985C28.4979 29.3985 29.2428 29.9971 29.5067 30.2964Z" fill="#119548"/>
<path fill-rule="evenodd" clip-rule="evenodd" d="M35.0382 34.5852L36.1723 36.8776L38.3887 38.0436L36.0141 33.5398L38.0514 31.357L36.2687 30.5242L35.0475 31.7065L33.8596 29.4534L32.0287 28.5015L34.0783 32.6448L31.4023 35.2357L33.4982 36.2351L35.0382 34.5852Z" fill="#5ABA47"/>
<path fill-rule="evenodd" clip-rule="evenodd" d="M28 43.5608C37.1262 43.5608 44.5244 36.2532 44.5244 27.2388C44.6337 26.1279 44.6083 25.0469 44.463 24.0049C44.8135 25.3483 45 26.7568 45 28.2083C45 37.4821 37.3888 45.0001 28 45.0001C18.6112 45.0001 11 37.4821 11 28.2083C11 26.977 11.1342 25.7766 11.3889 24.6207C11.3259 25.4742 11.3517 26.3489 11.4757 27.2388C11.4757 36.2532 18.8739 43.5608 28 43.5608Z" fill="#CEA245"/>
</svg>
