<!-- by TradingView --><svg width="56" height="56" viewBox="0 0 56 56" xmlns="http://www.w3.org/2000/svg"><path fill="#F0F3FA" d="M0 0h56v56H0z"/><path d="M9 35V18h9.96A6.01 6.01 0 0 1 24 20.79c1.5-2.06 4.3-2.8 5.76-2.79H42v15h8v2H40V20H29.77C28 20 25 21.1 25 24.04c0 3.67 1.95 4.92 4 5.93v1.91a8.37 8.37 0 0 1-5.18-4.18 6.08 6.08 0 0 1-4.86 2.3H11v5H9Zm9.9-15H11v8h7.9c2.26 0 4.1-1.8 4.1-4s-1.84-4-4.1-4ZM14 36v2h15.69c1.75 0 7.31-1.44 7.31-6.67 0-4.19-3.49-6.36-5-6.93v2c.9.48 3 2.14 3 4.93 0 3.74-3.35 4.59-4.94 4.67H14Z" fill="#F0A839"/></svg>