<!-- by TradingView --><svg width="56" height="56" viewBox="0 0 56 56" xmlns="http://www.w3.org/2000/svg"><path fill="#F0F3FA" d="M0 0h56v56H0z"/><path d="M18.52 29.89c.9 1.13 2.6 2.14 3.33 2.5-4.64-13.9 10.03-20.01 13.87-19.42l-3.84-1.62C21.24 14.64 18.86 23.98 18.52 29.9Z" fill="url(#achlywblg)"/><path d="m17.36 28.58-2.04-2.27C17.03 16.02 23.4 12.66 26 11l2.9.12c-10.11 4.93-11.54 13.2-11.54 17.46Z" fill="url(#bchlywblg)"/><path d="M13.83 18.5a6.6 6.6 0 0 0 .86 4.6c.88-2.29 1.46-4.27 6-10.4-2.73 1.2-5.7 4.36-6.86 5.8Z" fill="url(#cchlywblg)"/><path d="M26.05 18.5a11 11 0 0 0-2.52 3.31c13.96-4.63 20.09 9.99 19.5 13.82l1.62-3.83c-3.3-10.6-12.68-12.97-18.6-13.3Z" fill="url(#dchlywblg)"/><path d="m27.36 17.33 2.28-2.03C39.96 17 43.34 23.35 45 25.94l-.12 2.9c-4.95-10.08-13.24-11.51-17.52-11.51Z" fill="url(#echlywblg)"/><path d="M37.48 13.82a6.64 6.64 0 0 0-4.62.85c2.3.88 4.28 1.45 10.43 5.99-1.2-2.73-4.37-5.7-5.8-6.84Z" fill="url(#fchlywblg)"/><path d="M37.87 26.11a11.1 11.1 0 0 0-3.33-2.5c4.65 13.9-10.02 20.01-13.86 19.42l3.84 1.62c10.64-3.29 13.01-12.63 13.35-18.54Z" fill="url(#gchlywblg)"/><path d="m39.04 27.42 2.04 2.27C39.37 39.98 33 43.34 30.4 45l-2.9-.12c10.1-4.93 11.54-13.2 11.54-17.46Z" fill="url(#hchlywblg)"/><path d="M42.56 37.5a6.58 6.58 0 0 0-.85-4.6c-.88 2.29-1.46 4.27-6.01 10.4 2.74-1.2 5.72-4.36 6.86-5.8Z" fill="url(#ichlywblg)"/><path d="M30.21 37.54a11 11 0 0 0 2.47-3.36c-13.9 4.84-20.24-9.68-19.7-13.52l-1.57 3.85c3.46 10.55 12.87 12.78 18.8 13.03Z" fill="url(#jchlywblg)"/><path d="m28.92 38.72-2.25 2.07c-10.35-1.56-13.82-7.85-15.52-10.41l.07-2.9c5.1 10 13.42 11.3 17.7 11.24Z" fill="url(#kchlywblg)"/><path d="M18.85 42.38a6.64 6.64 0 0 0 4.61-.92c-2.3-.84-4.3-1.39-10.53-5.83 1.25 2.72 4.47 5.63 5.92 6.75Z" fill="url(#lchlywblg)"/><circle cx="28" cy="28" r="6" fill="url(#mchlywblg)"/><defs><linearGradient id="achlywblg" x1="27.12" y1="11.35" x2="27.12" y2="32.39" gradientUnits="userSpaceOnUse"><stop stop-color="#D9D9D9"/><stop offset=".95" stop-color="#0C0C0C"/></linearGradient><linearGradient id="bchlywblg" x1="22.11" y1="11" x2="22.11" y2="28.58" gradientUnits="userSpaceOnUse"><stop stop-color="#DFDFDF"/><stop offset="1" stop-color="#0B0B0B"/></linearGradient><linearGradient id="cchlywblg" x1="17.22" y1="12.69" x2="17.22" y2="23.1" gradientUnits="userSpaceOnUse"><stop offset=".06" stop-color="#D1D1D1"/><stop offset="1" stop-color="#080808"/></linearGradient><linearGradient id="dchlywblg" x1="44.65" y1="27.06" x2="23.53" y2="27.06" gradientUnits="userSpaceOnUse"><stop stop-color="#D9D9D9"/><stop offset=".95" stop-color="#0C0C0C"/></linearGradient><linearGradient id="echlywblg" x1="45" y1="22.06" x2="27.36" y2="22.06" gradientUnits="userSpaceOnUse"><stop stop-color="#DFDFDF"/><stop offset="1" stop-color="#0B0B0B"/></linearGradient><linearGradient id="fchlywblg" x1="43.3" y1="17.19" x2="32.86" y2="17.19" gradientUnits="userSpaceOnUse"><stop offset=".06" stop-color="#D1D1D1"/><stop offset="1" stop-color="#080808"/></linearGradient><linearGradient id="gchlywblg" x1="29.28" y1="44.65" x2="29.28" y2="23.61" gradientUnits="userSpaceOnUse"><stop stop-color="#D9D9D9"/><stop offset=".95" stop-color="#0C0C0C"/></linearGradient><linearGradient id="hchlywblg" x1="34.29" y1="45" x2="34.29" y2="27.42" gradientUnits="userSpaceOnUse"><stop stop-color="#DFDFDF"/><stop offset="1" stop-color="#0B0B0B"/></linearGradient><linearGradient id="ichlywblg" x1="39.18" y1="43.31" x2="39.18" y2="32.9" gradientUnits="userSpaceOnUse"><stop offset=".06" stop-color="#D1D1D1"/><stop offset="1" stop-color="#080808"/></linearGradient><linearGradient id="jchlywblg" x1="11.49" y1="29.25" x2="32.6" y2="28.93" gradientUnits="userSpaceOnUse"><stop stop-color="#D9D9D9"/><stop offset=".95" stop-color="#0C0C0C"/></linearGradient><linearGradient id="kchlywblg" x1="11.21" y1="34.25" x2="28.84" y2="33.98" gradientUnits="userSpaceOnUse"><stop stop-color="#DFDFDF"/><stop offset="1" stop-color="#0B0B0B"/></linearGradient><linearGradient id="lchlywblg" x1="12.98" y1="39.1" x2="23.42" y2="38.94" gradientUnits="userSpaceOnUse"><stop offset=".06" stop-color="#D1D1D1"/><stop offset="1" stop-color="#080808"/></linearGradient><linearGradient id="mchlywblg" x1="31.67" y1="23.96" x2="24.55" y2="32.65" gradientUnits="userSpaceOnUse"><stop stop-color="#050505"/><stop offset="1" stop-color="#DDD"/></linearGradient></defs></svg>