<!-- by TradingView --><svg width="56" height="56" viewBox="0 0 56 56" xmlns="http://www.w3.org/2000/svg"><path fill="#F0F3FA" d="M0 0h56v56H0z"/><path fill-rule="evenodd" d="M4 33.62V22.33C7.44 21.23 17.02 19 27.8 19c10.8 0 20.63 2.22 24.2 3.33v11.29C47.36 34.74 36.02 37 27.8 37 19.6 37 8.52 34.74 4 33.62Zm1-.63V22.96C8.3 21.97 17.48 20 27.82 20c10.33 0 19.76 1.97 23.18 2.96V33c-4.45 1-15.31 3-23.18 3-7.88 0-18.5-2-22.82-3Zm5-10V32h3v-3.64h1.49c.37.13.91.47.91 1.13v2.03c.01.1.07.36.27.48H19c-.2-.08-.6-.35-.6-.83v-2.15c0-.76-.66-1.38-1.46-1.38h-.08v-.15l.16-.08c.82-.4 1.34-1.2 1.34-2.08A2.4 2.4 0 0 0 15.91 23H10Zm4.11 1.51H13V27h1.11c.67 0 1.21-.56 1.21-1.25s-.54-1.25-1.2-1.25ZM19 26v4.35c0 .55.5 1.65 2.41 1.65.9 0 1.47-.23 1.83-.48l.14.48h2.12v-6H23v4.08a.75.75 0 0 1-.68.4c-.4 0-.82-.34-.82-.77V26H19Zm7 0v9h2.5v-3.34a3 3 0 0 0 1.44.34c1.93 0 3.06-1.17 3.06-3.14C33 26.9 31.74 26 30.22 26a2.5 2.5 0 0 0-1.88.76l-.09-.76H26Zm3.38 4.47c-.47 0-.74-.35-.88-.68v-1.67c.19-.3.48-.58.88-.58.85 0 1.04.67 1.04 1.32 0 .66-.2 1.61-1.04 1.61Zm4.2-4.47.44 1.7h2.04c.2-.03.44.06.44.66h-1.78c-.57.01-1.72.43-1.72 2 .03.55.54 1.64 2.27 1.64.48 0 .81-.22 1.07-.4l.16-.1v.5H39v-4.05c0-1.08-.63-1.95-1.62-1.95h-3.8Zm3.06 3.64v.5c0 .3-.23.55-.51.55h-.03c-.26 0-.48-.24-.48-.53 0-.28.22-.52.48-.52h.54ZM42.5 23H40v9h2.5v-9Zm3.5 1h-2.5v1.5H46V24Zm0 2h-2.5v6H46v-6Z" fill="#342067"/></svg>