<!-- by TradingView --><svg width="56" height="56" viewBox="0 0 56 56" xmlns="http://www.w3.org/2000/svg"><path fill="#F0F3FA" d="M0 0h56v56H0z"/><path fill="#D9241B" d="M13 13h30v29H13z"/><path fill="#BDC1C4" d="M18 18h20v19H18z"/><path d="M26.15 17.37a7.62 7.62 0 0 0-.78 5.94c.6 2.2 2.74 5.37 4.07 7.84.03.07.09.1.16.06a14.34 14.34 0 0 1 4.59-1.19c.09 0 .13-.05.13-.14v-.54c0-.1-.05-.13-.14-.09-1.2.59-2.34.79-3.41.6-1.63-.27-2.48-1.75-1.49-3.12a6.38 6.38 0 0 1 4.68-2.6c.08-.01.12-.06.12-.14v-.68c0-.1.05-.15.15-.15h.46c.1 0 .14.05.14.13l.04.71c0 .08.04.13.12.13 1.38.05 2.47 1.13 1.9 2.53-.33.83-.9 1.5-1.7 2a.19.19 0 0 0-.09.16l-.01 1.11a.16.16 0 0 0 .15.17c1.09.08 1.96.57 2.63 1.48.2.67.23 1.37.07 2.08a9.71 9.71 0 0 1-1.92 3.05 19.4 19.4 0 0 1-4.3 3.08.29.29 0 0 0-.16.18l-.43 1.54A8.5 8.5 0 0 1 28.07 45a.11.11 0 0 1-.12-.06l-.28-.47c-.04-.07-.03-.13.04-.17a7.37 7.37 0 0 0 2.5-2.76l.43-1.07a.09.09 0 0 0-.02-.1.09.09 0 0 0-.1-.01c-1.26.45-2.55.75-3.87.91-3.03.38-5.18-1.46-3.67-4.56 1.4-2.19 3.3-3.86 5.7-5.03.08-.03.1-.08.06-.15a206.5 206.5 0 0 0-3.12-5.66 8.84 8.84 0 0 1-.39-8.53 10.54 10.54 0 0 1 2.95-3.27.26.26 0 0 1 .27-.03c.2.1.3.25.28.46a.29.29 0 0 1-.12.2 9.69 9.69 0 0 0-2.46 2.67Zm10.03 8.23a1.03 1.03 0 0 0-.5-.51c-.25-.13-.57-.2-.93-.22-.36-.02-.77.01-1.2.1-.42.09-.85.23-1.27.41-.85.37-1.6.9-2.07 1.45-.47.57-.63 1.12-.45 1.55.1.2.27.38.51.5.25.13.56.2.93.23a5.07 5.07 0 0 0 2.47-.52 5.7 5.7 0 0 0 2.06-1.45c.48-.56.64-1.12.45-1.54Zm-4.7 11.13.24 1.95c.02.1.07.12.15.08a12 12 0 0 0 2.8-2c1.75-1.29 4.76-5.64.13-5.9-1.6-.1-3.39.46-4.87 1.07-.08.03-.1.08-.06.16.7 1.48 1.23 3.03 1.6 4.64Zm-7.55-.03c-1.8 2.8.3 4 2.83 3.72 1.36-.14 2.68-.5 3.94-1.07a.23.23 0 0 0 .13-.2c.02-.82-.03-1.63-.17-2.44a17.61 17.61 0 0 0-1.5-4.23c-.04-.07-.1-.1-.17-.06a13.1 13.1 0 0 0-5.06 4.28Z" fill="#1C1918"/></svg>