<!-- by TradingView --><svg width="56" height="56" viewBox="0 0 56 56" xmlns="http://www.w3.org/2000/svg"><path fill="#2A538B" d="M0 0h56v56H0z"/><path fill-rule="evenodd" d="M9 30.63v2.3h.42c-.02-.16.01-.5.3-.5.12 0 .25.08.4.18.27.17.62.39 1.23.39.97 0 2.65-.4 2.65-2.1 0-1.42-1.81-2.48-2.78-3.05-.2-.11-.35-.2-.45-.28-.64-.44-1.15-2.03.58-2.03 1.38 0 1.97 1.36 2.09 2.03h.33L13.53 25h-.33c0 .28-.3.42-.44.45-.2-.15-.75-.45-1.41-.45-1.24 0-2.2.62-2.2 2.05 0 1.22 1.37 2.05 2.41 2.69l.5.3c1.04.68.93 2.4-.71 2.4-1.31 0-1.87-1.2-1.99-1.8H9Zm6.75-.87c-.18-.03-.53-.18-.53-.57 0-.5.73-1.19 2.05-1.19 1.31 0 1.4 1.42 1.4 1.8v2.17c-.01.14.03.41.24.41.2 0 .37-.14.43-.2h.23c-.12.27-.5.82-1.14.82-.63 0-.7-.55-.66-.82-.23.27-.88.82-1.63.82-.94 0-1.14-.84-1.14-1.24s.49-1.36 2.83-2v-.86c.01-.22-.16-.67-.96-.67-.8 0-.84.45-.75.67.06.04.18.19.18.4 0 .26-.25.46-.55.46Zm2.07.32v1.75c-.12.17-.5.5-1.1.5-.74 0-.74-.54-.74-.83v-.01c0-.28.36-1.07 1.84-1.41Zm1.48-1.49v.17h.7v6.46c0 .3-.12.53-.4.53h-.3V36h2.56v-.25h-.33a.54.54 0 0 1-.53-.53V32.5c.26.26.64.5 1.14.5 1.01 0 2.3-1.1 2.3-2.6s-.9-2.4-1.89-2.4c-.66 0-1.24.46-1.55.8V28h-.34l-1.36.6Zm2.74 4.07c-.55 0-.87-.41-1.04-.82v-2.63c.2-.26.55-.56 1.04-.56.8 0 1.38.6 1.38 1.75 0 1.16-.37 2.26-1.38 2.26Zm7.3-6.98v-.2L31 25v3.75a2.2 2.2 0 0 1 1.52-.75c1.04 0 1.48.78 1.48 1.56v2.83c0 .2.1.35.3.35h.33V33h-2.4v-.26h.46c.2 0 .31-.16.31-.35v-2.83c.02-.32-.07-.96-.86-.96-.53 0-.9.41-1.14.82v2.8c0 .26.22.46.46.46h.24V33h-2.37v-.32h.28c.24 0 .39-.2.39-.45v-6.55h-.67Zm7.4-.09a.6.6 0 0 1-.61.6.6.6 0 0 1-.6-.6.6.6 0 0 1 .6-.59c.34 0 .6.27.6.6Zm-1.54 2.9v.25h.8v3.59c0 .24-.18.43-.42.43h-.38V33h2.54v-.24h-.32a.42.42 0 0 1-.42-.43V28l-1.8.5Zm2.96.25v-.25L40 28v.82c.3-.37.75-.82 1.2-.82.47 0 .62.43.64.65-.01.14-.13.42-.51.42-.39 0-.68-.28-.78-.42-.12.07-.34.26-.55.57v3.1c0 .25.14.44.38.44h.32V33h-2.54v-.24h.38c.24 0 .46-.2.46-.43v-3.59h-.84ZM46.18 30h-3.4c0 1.08.53 2.23 1.62 2.23.88 0 1.55-.73 1.78-1.09h.2v.29c-.24.52-1.01 1.57-2.18 1.57-1.46 0-2.2-1.1-2.2-2.24 0-1.15.44-2.76 2.31-2.76 1.5 0 1.87 1.35 1.87 2Zm-1.1-.46h-2.26c.09-.4.44-1.18 1.12-1.18.9 0 1.13.78 1.13 1.18Z" fill="#fff"/><path d="M24.3 28.76v-.17l1.36-.59H26v.8c.3-.34.89-.8 1.55-.8.99 0 1.9.9 1.9 2.4s-1.3 2.6-2.31 2.6c-.5 0-.88-.24-1.14-.5v2.72c0 .3.25.53.53.53h.33V36H24.3v-.25h.3c.28 0 .4-.24.4-.53v-6.46h-.7Zm1.7 3.08c.17.4.49.82 1.04.82 1.01 0 1.38-1.1 1.38-2.26 0-1.16-.58-1.75-1.38-1.75-.5 0-.84.3-1.04.56v2.63Z" fill="#fff"/><path d="M5.03 31.43c-.27-.94 1.4-2.3 1.58-2.42a6.8 6.8 0 0 0-.72 1.5c-.17.58.74.31 1.22.1 10.11-4.32 31.1-13.16 34.16-13.92 3.82-.96 7.73-1.26 7.73 1.43 0 2.16-2.9 6.18-4.36 7.91 4.75-9.16 1.68-9.61-4.76-7.43-6.44 2.2-32.03 12.34-33.27 12.83-.99.4-1.46.16-1.58 0Z" fill="url(#ay4ixxape)"/><defs><linearGradient id="ay4ixxape" x1="5.89" y1="29.75" x2="44.79" y2="12.92" gradientUnits="userSpaceOnUse"><stop stop-color="#F2E153"/><stop offset="1" stop-color="#ECB52F"/></linearGradient></defs></svg>