<!-- by TradingView --><svg width="56" height="56" viewBox="0 0 56 56" xmlns="http://www.w3.org/2000/svg"><path fill="url(#ayb4spquy)" d="M0 0h56v56H0z"/><path fill-rule="evenodd" d="M28 41c11.05 0 20-5.82 20-13s-8.95-13-20-13S8 20.82 8 28s8.95 13 20 13Zm0-1.17c10.23 0 18.51-5.3 18.51-11.83S38.23 16.18 28 16.18c-10.23 0-18.51 5.3-18.51 11.82 0 6.53 8.28 11.83 18.51 11.83Z" fill="url(#byb4spquy)"/><path fill-rule="evenodd" d="M28 39.83c10.23 0 18.51-5.3 18.51-11.83S38.23 16.18 28 16.18c-10.23 0-18.51 5.3-18.51 11.82 0 6.53 8.28 11.83 18.51 11.83Zm0-1.15c9.23 0 16.71-4.78 16.71-10.68 0-5.9-7.48-10.67-16.71-10.67S11.29 22.1 11.29 28 18.77 38.68 28 38.68Z" fill="url(#cyb4spquy)"/><path d="M19.6 37.97a8.77 8.77 0 0 1-3.54-.86c-.6-.95-1.46-2.6-.12-1.63A7.42 7.42 0 0 0 20 36.6c6.22-.1 6.27-14.17 8.99-17.15 2.16-2.37 4.62-2.57 7-1.9-4.3.37-6.03 4.08-6.85 6.73-.83 2.65-1.06 4.84-2.65 8.71a7.7 7.7 0 0 1-6.89 4.97Z" fill="url(#dyb4spquy)"/><defs><linearGradient id="ayb4spquy" x1="10.42" y1="9.71" x2="68.15" y2="76.02" gradientUnits="userSpaceOnUse"><stop stop-color="#1A1E21"/><stop offset="1" stop-color="#06060A"/></linearGradient><linearGradient id="byb4spquy" x1="28" y1="15" x2="28" y2="41" gradientUnits="userSpaceOnUse"><stop stop-color="#EDEDED"/><stop offset="1" stop-color="#48484A"/></linearGradient><linearGradient id="cyb4spquy" x1="11.85" y1="33.66" x2="23.65" y2="29.21" gradientUnits="userSpaceOnUse"><stop stop-color="#A4A5A9"/><stop offset="1" stop-color="#5E5F61"/></linearGradient><linearGradient id="dyb4spquy" x1="35.99" y1="17.97" x2="17.55" y2="39.19" gradientUnits="userSpaceOnUse"><stop stop-color="#D1D2D4"/><stop offset=".22" stop-color="#F9F9F9"/><stop offset=".65" stop-color="#838488"/><stop offset=".81" stop-color="#D9DADC"/><stop offset=".96" stop-color="#A4A5A9"/></linearGradient></defs></svg>