<!-- by TradingView --><svg width="56" height="56" viewBox="0 0 56 56" xmlns="http://www.w3.org/2000/svg"><path fill="#F0F3FA" d="M0 0h56v56H0z"/><path d="M21.41 11h13.1c.31 0 .6.14.79.38l7.48 9.35a1 1 0 0 1 .22.62v13.37a1 1 0 0 1-.14.52l-5.57 9.27a1 1 0 0 1-.86.49h-5.88a1 1 0 0 1-.84-.46l-6.1-9.58a2 2 0 0 1-.1-1.97L25 30l6.7 10.54a1 1 0 0 0 .85.46h1.87a1 1 0 0 0 .87-.5l3.58-6.27a1 1 0 0 0 .13-.5v-11.4a1 1 0 0 0-.19-.6l-4.51-6.31a1 1 0 0 0-.81-.42H22.4a1 1 0 0 0-.67.26.4.4 0 0 0-.06.07l-4.36 6.34a.67.67 0 0 1-.06.07 1 1 0 0 0-.26.67v11.22a1 1 0 0 0 .2.61l.07.09 3.4 6.27a.4.4 0 0 0 .07.09 1 1 0 0 0 .72.31h3.13a1 1 0 0 0 .7-.3L26 40l2 4-.7.7a1 1 0 0 1-.71.3h-7.1a1 1 0 0 1-.8-.4l-5.45-9.3a.65.65 0 0 0-.04-.05 1 1 0 0 1-.2-.6V21.4a1 1 0 0 1 .3-.7l7.4-9.42a1 1 0 0 1 .71-.29Zm11.62 25.94L32 39s-9-12-9-16 2.24-6 5-6 5 2.56 5 6c0 1.8-1.01 3.6-2.12 5.03l-2.22-3.89c.24-.46.34-.83.34-1.14 0-.52 0-2-1-2s-1 1-1 2c0 2 5.91 10.13 5.91 10.13a4 4 0 0 1 .12 3.8Z" fill="#0E4CA3"/></svg>