<!-- by TradingView --><svg width="56" height="56" viewBox="0 0 56 56" xmlns="http://www.w3.org/2000/svg"><path fill="#F0F3FA" d="M0 0h56v56H0z"/><path d="m40.94 15.58-4.77 4.14a14.97 14.97 0 0 0-10.68-3.1c-3.3.28-6.29 2.08-6.56 5.61-.36 4.64 2.92 5.63 6.57 6.68l-1.6 1.36-4.05 3.53-3.73 3.3a4.86 4.86 0 0 1-1.8-2.36 9.14 9.14 0 0 1-.32-2.82v-15.7a.3.3 0 0 1 .2-.29 33.84 33.84 0 0 1 26.74-.35Z" fill="#0180C8"/><path d="m40.94 15.58.91.38c.07.03.1.08.1.16-.07 5.1.18 12.83-.04 17.6a4.69 4.69 0 0 1-1.65 3.03 61.9 61.9 0 0 1-7.82 6.3c-1.23.83-3.05 1.91-4.46 1.95-1.36.04-3.5-1.3-4.64-2.07a60.14 60.14 0 0 1-7.22-5.82l3.73-3.31a14.94 14.94 0 0 0 10.56 3.06c3.96-.32 7.26-2.92 6.6-7.16-.54-3.4-3.34-4.27-6.4-5.08l1.54-1.4 4.02-3.5 4.77-4.14Z" fill="#DD232B"/><path d="m32.15 23.22-1.54 1.4c-.97-.17-2.27-.45-3.91-.82-.66-.15-1.97-.47-2.24-1.13-.32-.82.55-1.39 1.32-1.43a9.43 9.43 0 0 1 6.37 1.98Z" fill="#0180C8"/><path d="M25.5 28.91c1.92.28 3.7.68 5.3 1.21.9.3 1 1.43.23 1.9-.21.12-.53.2-.95.22a9.06 9.06 0 0 1-6.18-1.97l1.6-1.36Z" fill="#DD232B"/></svg>