<!-- by TradingView --><svg width="56" height="56" viewBox="0 0 56 56" xmlns="http://www.w3.org/2000/svg"><path fill="#F0F3FA" d="M0 0h56v56H0z"/><path d="M16.38 17.75a7.48 7.48 0 0 1 11.55-1.79.12.12 0 0 0 .15 0c3.77-3.19 8.94-2.4 11.55 1.78a.2.2 0 0 0 .15.1c3.78.51 6.47 2.35 8.09 5.5A10.19 10.19 0 0 1 41.6 37.8c-.53.14-1.2.22-1.81.33a.2.2 0 0 0-.15.1c-2.59 4.16-7.84 5.02-11.54 1.8-.05-.04-.1-.04-.15 0-3.81 3.2-9.01 2.38-11.61-1.82a.21.21 0 0 0-.17-.1A10.14 10.14 0 0 1 7.82 24c1.55-3.68 4.53-5.58 8.42-6.16a.2.2 0 0 0 .14-.1Zm11.53 21.48c.08-.07.15-.07.22 0a6.93 6.93 0 0 0 11.18-1.62.18.18 0 0 1 .15-.1 9.5 9.5 0 0 0 8.14-13.3c-1.46-3.4-4.18-5.33-8.16-5.79a.18.18 0 0 1-.14-.09c-2.56-4.34-7.63-4.89-11.24-1.55a.12.12 0 0 1-.08.03.13.13 0 0 1-.1-.03 6.93 6.93 0 0 0-11.16 1.56.28.28 0 0 1-.23.14c-8.12.43-11.76 10.41-6.2 16.2a9.46 9.46 0 0 0 6.27 2.86.19.19 0 0 1 .15.1c2.38 4.28 7.72 4.98 11.2 1.6Z" fill="#CE000C"/><path d="M27.91 39.23c-3.48 3.39-8.82 2.69-11.2-1.59a.19.19 0 0 0-.15-.1 9.46 9.46 0 0 1-6.26-2.86c-5.57-5.79-1.93-15.77 6.19-16.2a.28.28 0 0 0 .23-.14 6.93 6.93 0 0 1 11.17-1.56c.02.02.05.03.09.03.03 0 .06 0 .08-.03 3.61-3.34 8.68-2.79 11.24 1.55.03.06.08.09.14.1 3.98.45 6.7 2.38 8.16 5.78a9.5 9.5 0 0 1-8.14 13.3.18.18 0 0 0-.15.1 6.93 6.93 0 0 1-11.18 1.62c-.07-.07-.14-.07-.22 0Zm.01-2.47a.09.09 0 0 1 .08-.05.09.09 0 0 1 .08.05c2.4 4.53 8.4 4.2 10.32-.55.03-.06.07-.1.14-.1a7.86 7.86 0 0 0 6.25-2.52c5.03-5.47 1-13.82-6.25-13.7-.06 0-.11-.04-.14-.1-1.9-4.76-7.88-5.05-10.33-.56a.09.09 0 0 1-.15 0 5.58 5.58 0 0 0-10.33.6.14.14 0 0 1-.14.09C8.6 19.46 5.84 31.54 13.6 35.36a7.5 7.5 0 0 0 3.86.72c.03 0 .06 0 .08.02.03.02.05.04.06.07 1.81 4.72 8.03 5.17 10.33.6Z" fill="#FDF21E"/><path d="M27.92 36.76c-2.3 4.58-8.52 4.13-10.33-.59a.14.14 0 0 0-.06-.07.14.14 0 0 0-.08-.02 7.5 7.5 0 0 1-3.86-.72c-7.75-3.82-5-15.9 3.86-15.44a.14.14 0 0 0 .14-.1 5.58 5.58 0 0 1 10.36-.55.09.09 0 0 0 .12-.04c2.45-4.5 8.42-4.2 10.33.56.03.06.08.1.14.1 7.26-.12 11.28 8.23 6.25 13.7a7.88 7.88 0 0 1-6.25 2.53c-.07 0-.11.03-.14.09-1.91 4.74-7.91 5.08-10.32.55a.09.09 0 0 0-.16 0Z" fill="#CE000C"/><path d="m18.27 30.38.26.31a.14.14 0 0 1-.01.18L17.5 31.9a.12.12 0 0 1-.17 0l-.48-.4a.15.15 0 0 0-.15-.03c-1.58.47-3.45.89-4.83-.25-1.01-.83-1.21-2.26 0-3.04 1.54-1 4.2.37 5.5 1.34a.18.18 0 0 0 .27-.06.19.19 0 0 0 .03-.1 1.37 1.37 0 0 0-.62-1.11c-1.36-.92-6.2-3.31-3.47-5.53 1.26-1.03 2.67-1.09 4.22-.16.06.03.07.07.03.13l-.88 1.26a.15.15 0 0 1-.22.04c-.6-.42-2.43-1.18-2.87-.15a.53.53 0 0 0 .25.67c1.33.65 3.45 1.74 4.16 2.84.52.82.52 1.77-.02 2.84a.16.16 0 0 0 .02.19Zm-2.56.12c-.87-.73-2.02-1.52-3.17-1.42a.36.36 0 0 0-.3.22.36.36 0 0 0 .05.37c.86 1.06 2.16 1.1 3.39.94a.06.06 0 0 0 .05-.05.06.06 0 0 0-.02-.06Zm5.39-1.72 1.9-1.46a.07.07 0 0 1 .1.03l1.34 3.02a.07.07 0 0 1-.02.08l-1.15 1.04a.07.07 0 0 1-.1-.02l-.97-1.78a.07.07 0 0 0-.07-.03h-.03l-2.52 1.98a.07.07 0 0 1-.11-.05v-7.86a.07.07 0 0 1 .04-.06l1.4-.54a.07.07 0 0 1 .08.03l.01.03v5.53a.07.07 0 0 0 .07.07l.04-.01Zm4.83.82c.02 1.13 1.31 1.2 1.89.57.04-.05.1-.08.17-.08h1.66c.09 0 .12.05.08.14-1 2.41-4.78 2.45-5.06-.45-.32-3.4 4.56-3.85 4.77-.42a.15.15 0 0 1-.03.1.12.12 0 0 1-.04.04.11.11 0 0 1-.05 0h-3.3c-.06 0-.09.04-.09.1Zm.07-1.05 1.4-.05h.01v-.02a.55.55 0 0 0-.19-.41.62.62 0 0 0-.44-.16l-.2.01a.65.65 0 0 0-.43.19.57.57 0 0 0-.17.42v.02H26Z" fill="#FDF21E"/><path d="M30.56 32.26a17.67 17.67 0 0 1 8.66.23.07.07 0 0 1 0 .1l-1.45 1.35a.15.15 0 0 1-.15.04 17.8 17.8 0 0 0-9.8-.27.07.07 0 0 1-.02-.1l3.67-5.1a.06.06 0 0 0 0-.07.06.06 0 0 0-.05-.03h-1.6c-.08 0-.12-.04-.12-.13v-1.15c0-.08.04-.13.12-.13h4.03c.08 0 .17.12.13.18l-3.47 5a.05.05 0 0 0 0 .06.05.05 0 0 0 .05.02Z" fill="#FDF21E"/><path d="M37.9 29.09c.52-.12 1.02-.1 1.52.08.05.02.1.05.12.1.04.03.05.09.06.14l.01 1.52c0 .07-.03.09-.1.05-.86-.48-1.64-.44-2.6-.25-.63.12-2.06.37-2.63.09-1.06-.53-1.13-1.94-.42-2.73 1.07-1.2 3.06-1.31 4.5-.8l.05.03c.01.01.03.03.03.05a.15.15 0 0 1 0 .12l-.62 1.5a.07.07 0 0 0 .01.08l.04.02h.04Zm-.56-.02a2.97 2.97 0 0 0-2.75-.25c-.2.08-.28.25-.25.51.01.05.04.1.09.13.88.68 2.06.1 2.9-.27.08-.03.08-.07.01-.12Zm5.22.47-2.44 1.66a.08.08 0 0 1-.1-.03.08.08 0 0 1-.02-.04v-4.05a.08.08 0 0 1 .05-.07l.03-.01 1.28.05c.02 0 .04.01.05.03.02.01.03.03.03.06v1.32a.08.08 0 0 0 .04.07.08.08 0 0 0 .08 0l1.92-1.35a.08.08 0 0 1 .07-.01s.02 0 .03.02l.02.03 1.25 3.03a.08.08 0 0 1-.02.09l-1.08 1a.08.08 0 0 1-.12-.01l-.95-1.76a.08.08 0 0 0-.12-.03Z" fill="#FDF21E"/></svg>