<!-- by TradingView --><svg width="56" height="56" viewBox="0 0 56 56" fill="none" xmlns="http://www.w3.org/2000/svg">
<rect width="56" height="56" fill="#F0F3FA"/>
<path d="M27.2476 12H27.6976C36.4469 12.2318 43.4688 18.5764 44 27.3998V28.6869C43.4432 37.2473 36.7801 43.4994 28.2858 44H26.6253C20.2827 43.6203 14.7987 39.9552 12.2511 34.1852C12.2198 34.1151 12.2051 34.0558 12.207 34.0075C12.2076 33.9915 12.2134 33.9762 12.2236 33.9639C12.2338 33.9517 12.2477 33.9431 12.2633 33.9395C12.2789 33.9359 12.2952 33.9376 12.3097 33.9442C12.3242 33.9509 12.3362 33.9621 12.3437 33.9762C15.2174 39.355 21.0289 42.2336 27.0554 41.2651C33.2514 40.2681 38.2668 35.1012 38.5388 28.6827C38.8065 22.4007 34.5458 16.9252 28.5464 15.2697C22.0599 13.4791 15.2174 16.4459 12.2397 22.4846C12.1927 22.5813 12.1258 22.6453 12.0304 22.5557C12 22.5273 11.9924 22.4936 12.0076 22.4548C14.5424 16.0519 20.3681 12.2574 27.2476 12Z" fill="#ED3237"/>
<path fill-rule="evenodd" clip-rule="evenodd" d="M31.8916 17.7656C31.8873 17.7575 31.8809 17.7507 31.873 17.7458C30.8781 17.0991 29.812 16.6037 28.6746 16.2596C28.6262 16.2444 28.5821 16.2529 28.5422 16.2852C26.315 18.053 23.5922 17.7657 21.3323 16.2126C21.2896 16.1832 21.2431 16.1752 21.1927 16.1885C20.0953 16.4928 19.061 16.9389 18.0898 17.5268C18.0413 17.5562 18.0418 17.5846 18.0912 17.6121C22.4316 20.0469 27.5454 20.1792 31.8702 17.8368C31.8783 17.8324 31.8851 17.826 31.89 17.8182C31.8949 17.8103 31.8976 17.8013 31.8979 17.7921C31.8981 17.7829 31.896 17.7738 31.8916 17.7656ZM17.2411 17.9634C16.4935 18.4839 15.7032 19.1851 15.115 19.8962C15.0799 19.9389 15.087 19.972 15.1364 19.9957C21.3409 22.9469 28.444 22.8416 34.6899 20.2347C34.7015 20.2299 34.7118 20.2225 34.72 20.213C34.7283 20.2036 34.7342 20.1924 34.7374 20.1802C34.7406 20.1681 34.7409 20.1554 34.7383 20.1431C34.7358 20.1309 34.7304 20.1194 34.7226 20.1095C34.1406 19.3624 33.4614 18.7157 32.6848 18.1696C32.6632 18.1543 32.6377 18.1457 32.6111 18.1447C32.5846 18.1437 32.5582 18.1503 32.5353 18.1639C27.7947 20.9401 22.1526 20.5988 17.432 17.9534C17.4025 17.9372 17.369 17.9295 17.3353 17.9313C17.3016 17.9331 17.269 17.9442 17.2411 17.9634ZM35.2723 20.8149C35.9596 21.6797 36.4708 22.6373 36.806 23.6878C36.8096 23.6995 36.8108 23.7118 36.8094 23.724C36.808 23.7361 36.8041 23.7478 36.798 23.7584C36.7918 23.769 36.7835 23.7781 36.7736 23.7853C36.7637 23.7925 36.7524 23.7976 36.7405 23.8002C28.9852 25.45 20.72 25.4741 13.0516 23.3536C13.0426 23.3511 13.0341 23.3466 13.0269 23.3406C13.0197 23.3346 13.0139 23.3272 13.0098 23.3188C13.0058 23.3105 13.0036 23.3014 13.0034 23.2922C13.0033 23.2829 13.0051 23.2738 13.0089 23.2654C13.4171 22.2888 13.9431 21.381 14.5867 20.5419C14.6209 20.4964 14.6636 20.4864 14.7149 20.512C20.1034 23.0933 26.3265 23.4717 32.0426 21.8589C33.0166 21.5829 34.1131 21.1776 35.1341 20.778C35.1892 20.7562 35.2353 20.7685 35.2723 20.8149ZM36.9185 24.3548C33.5948 25.2096 29.9293 25.4158 26.4219 25.5367C21.9419 25.6889 17.2198 25.019 12.8352 24.0434C12.8029 24.0363 12.7693 24.0409 12.7403 24.0563C12.7113 24.0717 12.6889 24.0969 12.6771 24.1273C12.2214 25.3039 12.0069 26.5247 12.0334 27.7895C12.0344 27.835 12.0577 27.8578 12.1032 27.8578H37.4938C37.5204 27.8578 37.5459 27.8475 37.5648 27.8291C37.5837 27.8108 37.5945 27.7858 37.5949 27.7596C37.6205 26.6067 37.4311 25.4907 37.0267 24.4117C37.0077 24.3605 36.9717 24.3416 36.9185 24.3548ZM27.255 30.7676C23.9982 30.5216 20.7656 30.7492 17.3693 31.0948C15.6044 31.274 14.0494 31.5233 12.7042 31.8428C12.6857 31.8475 12.6661 31.8451 12.6493 31.8362C12.6324 31.8273 12.6195 31.8124 12.613 31.7945C12.2133 30.7155 12.032 29.6005 12.069 28.4494C12.0698 28.4243 12.0803 28.4004 12.0984 28.3829C12.1165 28.3653 12.1407 28.3555 12.1659 28.3556H37.5593C37.6068 28.3556 37.631 28.3793 37.6319 28.4267C37.6519 29.6991 37.4302 30.9265 36.9669 32.1088C36.957 32.1341 36.9383 32.1551 36.9143 32.1679C36.8903 32.1807 36.8625 32.1844 36.8359 32.1785C33.6802 31.4816 30.4866 31.0113 27.255 30.7676ZM36.5839 32.9081C36.5763 32.9071 36.5597 32.9029 36.5341 32.8953C28.9254 30.7634 20.5948 30.8132 12.9064 32.4629C12.8476 32.4753 12.8272 32.5108 12.8452 32.5696C13.1737 33.6069 13.675 34.5541 14.349 35.4112C14.3759 35.4455 14.4134 35.4699 14.4556 35.4807C14.4978 35.4915 14.5425 35.4881 14.5825 35.4709C21.0591 32.7004 28.5196 32.7317 34.9206 35.7269C34.9493 35.7406 34.9818 35.7439 35.0127 35.7364C35.0436 35.7289 35.0709 35.711 35.0901 35.6857C35.7167 34.8589 36.2326 33.9672 36.638 33.0105C36.6422 33.0003 36.6441 32.9893 36.6436 32.9782C36.6431 32.9672 36.6401 32.9564 36.635 32.9466C36.6298 32.9369 36.6225 32.9284 36.6137 32.9217C36.6049 32.915 36.5947 32.9104 36.5839 32.9081ZM34.4918 36.2318C34.5611 36.2631 34.5706 36.3072 34.5203 36.3641C33.8937 37.0638 33.2092 37.7005 32.4668 38.2741C32.4306 38.3024 32.3868 38.3194 32.341 38.323C32.2951 38.3265 32.2492 38.3164 32.2091 38.294C27.5753 35.7113 21.8051 35.2875 17.1485 38.0764C17.1164 38.0959 17.0793 38.1054 17.0418 38.1039C17.0043 38.1024 16.9681 38.0899 16.9377 38.0679C16.1716 37.5275 15.5042 36.8851 14.9355 36.1408C14.929 36.1322 14.9246 36.1223 14.9225 36.1117C14.9204 36.1012 14.9207 36.0903 14.9235 36.0799C14.9262 36.0694 14.9313 36.0598 14.9383 36.0516C14.9453 36.0435 14.9541 36.037 14.964 36.0327C21.2397 33.3262 28.2802 33.4044 34.4918 36.2318ZM31.5415 38.6069C31.5273 38.6022 31.5149 38.5989 31.5045 38.597C31.4784 38.5902 31.4546 38.5835 31.436 38.5777C31.4173 38.5719 31.4045 38.5672 31.3991 38.5643C27.0971 36.246 22.0261 36.1038 17.7782 38.4192C17.7098 38.4571 17.7084 38.497 17.7739 38.5387C18.7565 39.173 19.8084 39.6618 20.9296 40.005C20.9799 40.0202 21.025 40.0121 21.0649 39.9808C23.3077 38.2187 26.0347 38.4988 28.3004 40.0661C28.319 40.0794 28.3404 40.0882 28.3631 40.0919C28.3858 40.0956 28.4092 40.0941 28.4314 40.0875C29.527 39.7594 30.5689 39.3119 31.5572 38.7449C31.5701 38.7376 31.5806 38.7267 31.5873 38.7135C31.5941 38.7003 31.5968 38.6854 31.5951 38.6707C31.5934 38.656 31.5875 38.6421 31.5779 38.6308C31.5684 38.6194 31.5557 38.6111 31.5415 38.6069Z" fill="#009CDB"/>
</svg>
