<!-- by TradingView --><svg width="56" height="56" viewBox="0 0 56 56" xmlns="http://www.w3.org/2000/svg"><path fill="#181B1E" d="M0 0h56v56H0z"/><path d="M15.12 35.17 11 27c9.43 1.84 14.52-2.62 16-5v7.58h-4.98v-2.23L17.7 28.9l1.34 3.42c.92-.46 3.77-1.37 7.96-1.43v5.47c-5.5 0-8.94 1.74-9.97 2.6l-1.4-2.79 4.32-1.86 1.03 1.86 2.37-1.05L23 32.5a37.88 37.88 0 0 0-7.87 2.67ZM38.82 39l2.26-4.38c-3.64-2.13-6.54-2.82-7.56-2.89l.51-3.65 4.43.86-1.08 1.94 4.3 2.58L45 27c-9.3 1.84-14.54-2.61-16-5v10.22a36.2 36.2 0 0 1 7.8 1.7l-.94 2.45-2.53-.3.01-2.15-4.34-.56v3.02c5.41 0 8.8 1.75 9.82 2.62Z" fill="#D69C45"/><circle cx="28" cy="19" r="2" fill="#D69C45"/><circle cx="46" cy="24" r="2" fill="#D69C45"/><circle cx="2" cy="2" r="2" transform="matrix(-1 0 0 1 12 22)" fill="#D69C45"/><circle cx="1" cy="1" r="1" transform="matrix(-1 0 0 1 15 24)" fill="#D69C45"/><circle cx="1" cy="1" r="1" transform="matrix(-1 0 0 1 18 24)" fill="#D69C45"/><circle cx="1" cy="1" r="1" transform="matrix(-1 0 0 1 21 24)" fill="#D69C45"/><circle cx="1" cy="1" r="1" transform="matrix(-1 0 0 1 24 22)" fill="#D69C45"/><circle cx="1" cy="1" r="1" transform="matrix(-1 0 0 1 26 20)" fill="#D69C45"/><circle cx="42" cy="25" r="1" fill="#D69C45"/><circle cx="39" cy="25" r="1" fill="#D69C45"/><circle cx="36" cy="25" r="1" fill="#D69C45"/><circle cx="33" cy="23" r="1" fill="#D69C45"/><circle cx="31" cy="21" r="1" fill="#D69C45"/></svg>