<!-- by TradingView --><svg width="56" height="56" viewBox="0 0 56 56" xmlns="http://www.w3.org/2000/svg"><path fill="#F0F3FA" d="M0 0h56v56H0z"/><path d="M42 28c0 3.22-.01 5.43-.04 6.64-.02 1.04-.36 1.82-1.04 2.35a10943 10943 0 0 1-12.6 9.83c-.16.12-.27.18-.33.18-.05 0-.16-.06-.31-.18l-12.6-9.84c-.68-.53-1.03-1.31-1.05-2.35-.02-1.2-.03-3.42-.03-6.63 0-3.22.01-5.43.04-6.64.02-1.04.36-1.82 1.04-2.35l12.6-9.83c.16-.12.27-.18.33-.18.05 0 .16.06.31.18l12.6 9.84c.68.53 1.03 1.31 1.05 2.35.02 1.2.03 3.42.03 6.63Zm-7.18.05a.06.06 0 0 0 .03-.05.06.06 0 0 0-.03-.05l-6.78-5.52a.07.07 0 0 0-.08 0l-6.78 5.52-.02.02a.06.06 0 0 0 .02.08l6.78 5.52a.07.07 0 0 0 .09 0l6.77-5.52Z" fill="#FFD140"/><path d="M28 9c.06 0 .17.06.32.18l12.6 9.84c.68.53 1.03 1.31 1.05 2.35.02 1.2.03 3.42.03 6.63 0 3.22-.01 5.43-.04 6.64-.02 1.04-.36 1.82-1.04 2.35l-8.42 6.57-4.19 3.26-.05.04c-.13.1-.22.14-.26.14h-.03a.77.77 0 0 1-.24-.14l-.05-.04-12.6-9.84c-.68-.53-1.03-1.31-1.05-2.35l-.03-4.4V28c0-3.22.01-5.43.04-6.64.02-1.04.36-1.82 1.04-2.35l11.04-8.61 1.57-1.22c.15-.12.26-.18.32-.18Zm-.06.5-12.6 9.83c-.56.44-.87 1.1-.9 2.04-.01 1.2-.03 3.41-.03 6.63 0 3.21.01 5.42.03 6.62.02.95.33 1.6.9 2.04l12.59 9.84.07.05.06-.05 12.6-9.83c.56-.44.87-1.1.9-2.04.02-1.2.03-3.4.03-6.63v-2.22c0-2.03-.02-3.5-.03-4.4v-.09c-.04-.9-.35-1.53-.9-1.95L28.08 9.5 28 9.46l-.06.04ZM34.85 28a.06.06 0 0 0-.01-.04l-.02-.01-6.78-5.52a.07.07 0 0 0-.08 0l-6.78 5.52-.02.02a.06.06 0 0 0 .02.08l6.78 5.52.03.01h.02l.04-.01 6.78-5.52v-.01l.01-.01V28l.01-.01Zm.41 0a.47.47 0 0 1-.17.36l-6.78 5.52a.48.48 0 0 1-.6 0l-6.79-5.51a.48.48 0 0 1-.17-.32v-.1c0-.06.02-.1.04-.16l.03-.04a.48.48 0 0 1 .1-.12l6.78-5.52c.09-.07.2-.1.3-.1h.04c.08 0 .16.03.23.08l.03.02 6.79 5.52a.47.47 0 0 1 .17.37Z" fill="#FEC215"/><path d="M28.24 9.22v13.04h-.41V9.22h.41ZM28.24 33.82v13.04h-.41V33.82h.41ZM21.07 27.93l-.13.15-.13.16-6.7-5.44.25-.31 6.7 5.44ZM34.86 28l.13.16.13.16 6.7-5.44-.25-.32-6.7 5.44Z" fill="#FEC215"/></svg>