<!-- by TradingView --><svg width="56" height="56" viewBox="0 0 56 56" xmlns="http://www.w3.org/2000/svg"><path fill="#F0F3FA" d="M0 0h56v56H0z"/><path d="M30.79 45.1c.22-.51.5-1 .83-1.44 5.63-7.41 1.15-17.45-3.58-23.84-.1-.15-.22-.16-.35-.03-4.25 4.37-6.7 10.23-6.13 16.61.3 3.3 1.44 5.98 3.43 8.02.4.27.74.75 1.04 1.44a.27.27 0 0 0-.17 0 .2.2 0 0 1-.23-.04l-1.62-1.57c-6.98-6.64-5.78-16.74-1.77-24.59a54.03 54.03 0 0 1 7.09-10.6c.09-.1.14-.08.14.06 0 1.94.05 3.17.16 3.68.68 3.44 1.96 5.8 3.95 9.26 1.34 2.35 2.62 5.04 3.12 7.61a15.4 15.4 0 0 1-5.91 15.44Z" fill="#FA8E20"/><path d="M30.79 45.1a.99.99 0 0 1-.85.34c4.27-5.84 2.92-12.46-1.18-17.87-.3-.38-.56-.68-.8-.89-.08-.07-.15-.07-.22.02a18.93 18.93 0 0 0-4.14 7.55c-.9 3.32-.05 7.1 1.76 10.55-2.51-2.42-3.5-5.1-3.8-8.4-.57-6.38 1.88-12.24 6.13-16.6.13-.14.24-.13.35.02 4.73 6.4 9.2 16.43 3.58 23.84a6.5 6.5 0 0 0-.83 1.45Z" fill="#FDE904"/><path d="M29.94 45.44c-.08.18-.2.34-.38.48a.38.38 0 0 1-.24.08h-2.98a.24.24 0 0 1-.18-.08.2.2 0 0 0-.13-.07c-2.81-4.16-3.68-6.92-2.43-11.6.71-2.68 2.1-5.2 4.14-7.55.07-.09.14-.09.22-.02.24.21.5.5.8.9 4.1 5.4 5.45 12.02 1.18 17.86Z" fill="#0056A7"/></svg>