<!-- by TradingView --><svg width="56" height="56" viewBox="0 0 56 56" xmlns="http://www.w3.org/2000/svg"><path fill="#F0F3FA" d="M0 0h56v56H0z"/><path d="M12.99 33.12c-2.36 0-4.31-.56-4.99-.84v-3.2c2.2 2.01 6.73 1.53 6.73 0 0-1.52-1.23-1.45-3.67-2.44a3.82 3.82 0 0 1-2.32-3.62 3.5 3.5 0 0 1 3.44-3.75H17V22h-3.5c-1.72 0-1.43 1.1-.29 1.77 1.14.66 4.92 1.72 4.92 4.96s-2.19 4.39-5.14 4.39Z" fill="#00AEEF"/><path d="m26.14 21.88 7.65-7.54L48.65 29 33.8 43.66l-8.1-7.97h-.34L33.8 44 49 29 33.79 14l-8 7.88h.35Z" fill="#2E3192"/><path fill-rule="evenodd" d="M19.13 29c0-1.38-.6-2.6-1.5-3.29L29.53 14l15.21 15-15.21 15-11.88-11.72c.9-.69 1.49-1.9 1.49-3.28Zm7.98-4c.89 0 1.61-.67 1.61-1.5S28 22 27.11 22c-.89 0-1.61.67-1.61 1.5s.72 1.5 1.61 1.5Zm-5.68 6.31L21.9 27h-1.49l.35-1h1.25l.22-2h1.63l-.24 2h1.83L25 27h-1.48a73.07 73.07 0 0 0-.3 3c-.03.82.19 1.42.87 1.42.38 0 .92-.38 1.33-.75l.5-3.67h1.78c-.1.72-.3 2.37-.36 3.16-.08.98.09 1.43.67 1.43.3 0 .64-.34.89-.68l.85-7.91h1.78a447 447 0 0 0-.67 6.97c-.08 1.04.1 1.53.67 1.53.24 0 .5-.22.71-.49-.15-.36-.24-.7-.27-.98 0-3.78 3.07-4.03 3.8-4.03s2.45.58 2.45 2.06c0 1.47-1.12 2.28-2.32 2.28-.96 0-1.66-.37-1.9-.56-.32.9.27 1.74 1.17 1.74.27 0 .58-.07.88-.14.7-.16 1.33-.3 1.33.44 0 .86-1.47 1.14-2.21 1.18a2.97 2.97 0 0 1-2.52-1.27A2.96 2.96 0 0 1 30.33 33c-.81 0-1.2-.48-1.37-1-.42.46-1.17 1-2.16 1-.9 0-1.28-.56-1.4-1.1a3.6 3.6 0 0 1-2.43 1.1c-1.44 0-1.63-1.12-1.54-1.69Zm12.93-2.95c.13-.36.57-1.08 1.24-1.08.79 0 .78.54.77.78v.04c0 .2-.8 1.23-2 .26Z" fill="#0A4595"/></svg>