<!-- by TradingView --><svg width="56" height="56" viewBox="0 0 56 56" xmlns="http://www.w3.org/2000/svg"><path fill="#F0F3FA" d="M0 0h56v56H0z"/><path d="M45 28v.35C42.73 30.4 36.42 34 28.58 34c-9.31 0-15.08-6.44-17.27-9.24.06-.34.14-.67.23-1C15.84 29.4 21.97 33 28.3 33c5.67 0 10.98-2.7 12.7-4.4-.43.16-.95.37-1.55.62C36.84 30.3 32.71 32 28.3 32c-6.18 0-12.25-3.61-16.43-9.38.16-.48.34-.95.54-1.41 7.1 11.7 18.2 10.53 22.59 8.48-.34.02-.7.06-1.08.1-5.46.5-14.7 1.34-21.03-9.6.17-.31.34-.62.53-.93 5.2 9.4 13.16 10.38 16.58 9.47-3.29-.2-11.03-.98-16.01-10.36l.27-.38a14.6 14.6 0 0 0 5.43 6.45c2.36 1.62 5.54 2.85 7.31 2.5l-.38-.15a32.2 32.2 0 0 1-6.38-3.1 13.46 13.46 0 0 1-5.3-6.58l.45-.52a13.06 13.06 0 0 0 2.93 4.57C19.77 22.68 21.89 24 23 24c-.94-.46-2.61-2.08-3.99-3.51a11.83 11.83 0 0 1-2.86-4.68l.41-.39C17.72 18.88 19.89 21 21 21a15.66 15.66 0 0 1-3.63-6.27c.25-.2.51-.4.77-.58.46 2.52 1.26 4.51 1.86 4.85-.28-.54-.72-2.85-1.09-5.37A17 17 0 0 1 45 28ZM28 45a17 17 0 0 0 14.6-8.3 30.89 30.89 0 0 1-11.5 7.1c-1.72.6-3.39.94-5 1.1.63.06 1.26.1 1.9.1Zm2.8-2.09a29.37 29.37 0 0 0 13.21-9.18c.46-1.29.77-2.65.9-4.05C42.09 31.89 36 35 28.59 35c-9.07 0-14.9-5.84-17.47-8.95a17.19 17.19 0 0 0-.1 2.28 11.05 11.05 0 0 0 4.27 3.64c1.7.87 3.72 1.8 4.72 1.93-1.01.34-3.35-.2-5.14-1.1a12.7 12.7 0 0 1-3.75-2.82l.08.57a13.7 13.7 0 0 0 6.58 3.95 31.95 31.95 0 0 0 7.23.93c-1.5.85-4.8.68-7.49-.09a15.13 15.13 0 0 1-6-3.2c.07.3.15.58.24.86 7.16 5.86 14.23 4.12 17.25 3.25-2.72 1.8-9.58 3.43-16.67-1.65.17.4.34.78.54 1.15A17.37 17.37 0 0 0 23 39c4.4-.04 8.18-1.77 10.95-3.03l1.05-.48a18.13 18.13 0 0 1-21.09 2.03c.37.54.76 1.05 1.18 1.55 2.93 1.26 6 1.92 9 1.93 2 0 3.95-.21 5.8-.83 4.21-1.4 7.62-4.26 9.79-6.09.5-.43.95-.8 1.32-1.08-1.12 2.08-5.37 6.23-10.8 8.04-4.27 1.42-9 1.22-13.48-.32a17 17 0 0 0 5.46 3.26c2.62.22 5.53-.02 8.62-1.07Z" fill="#2CABE0"/><path d="M39.94 15.9a16.95 16.95 0 0 0-21.03-2.27c.37 2.52.8 4.83 1.09 5.37-.6-.34-1.4-2.33-1.86-4.85l-.77.58c1.02 3.42 3 5.61 3.63 6.27-1.1 0-3.28-2.12-4.44-5.58l-.4.39A11.83 11.83 0 0 0 19 20.49c1.38 1.43 3.05 3.05 3.99 3.51-1.11 0-3.23-1.32-4.68-2.84a13.06 13.06 0 0 1-2.93-4.57l-.45.52c1 2.9 3.08 5.06 5.3 6.58A32.39 32.39 0 0 0 27 26.94c-1.77.35-4.95-.88-7.31-2.5a14.6 14.6 0 0 1-5.43-6.45c-.1.12-.18.25-.27.38C18.97 27.75 26.71 28.53 30 28.73c-3.42.91-11.39-.07-16.58-9.47-.19.3-.36.62-.53.94 6.17 10.64 15.08 10.12 20.59 9.62a21.61 21.61 0 0 0 6.46-13.92ZM32.8 30.46c-5.2 1.35-14.27.8-20.38-9.25-.2.46-.38.93-.54 1.4C16.05 28.4 22.12 32 28.3 32c.98 0 1.95-.08 2.88-.23.56-.4 1.1-.85 1.61-1.3Zm-3.4 2.5c-.62.37-1.25.7-1.9 1.01-8.67-.47-14.08-6.52-16.18-9.2.06-.35.14-.68.23-1.02C15.84 29.4 21.97 33 28.3 33c.36 0 .73-.01 1.09-.03Zm-3.86 1.81c-.63.23-1.28.42-1.93.58-1.66-.1-3.9-.3-5.83-.85a13.7 13.7 0 0 1-6.58-3.95 17.3 17.3 0 0 1-.08-.57 12.7 12.7 0 0 0 3.75 2.82c1.8.9 4.13 1.44 5.14 1.1-1-.13-3.02-1.06-4.72-1.93a11 11 0 0 1-4.28-3.64 17.6 17.6 0 0 1 .11-2.28c2.27 2.74 7.08 7.62 14.42 8.72Zm-5.16 1.13c-.96-.1-1.95-.3-2.86-.56a15.13 15.13 0 0 1-6-3.2c.07.3.15.58.24.86a19.04 19.04 0 0 0 4.87 2.93 21.97 21.97 0 0 0 3.75-.03Zm-6.66-.4c-.37-.07-.74-.16-1.1-.26-.1-.2-.19-.42-.28-.64a18 18 0 0 0 1.38.9Z" fill="#2783C4"/></svg>