<!-- by TradingView --><svg width="56" height="56" viewBox="0 0 56 56" fill="none" xmlns="http://www.w3.org/2000/svg">
<rect width="56" height="56" fill="#F0F3FA"/>
<path d="M28 24H26V25H27.5312L28 24Z" fill="#EC5E25"/>
<path fill-rule="evenodd" clip-rule="evenodd" d="M25 25V30.9234C25.0419 31.2823 25.449 32 26.7426 32C27.0476 32 27.4626 31.8665 27.632 31.7997L28.1633 30.669C28.0324 30.7538 27.6297 31 27.066 31C26.3615 31 26 30.6926 26 30.0565V22L25 22.7777V24H24V25H25ZM11.1571 24H9.86041L12.95 31.9914C12.5443 33.1491 11.9692 33.8033 11.408 33.8033C10.9312 33.8033 10.6029 33.541 10.4984 33.4099V34.6721C10.5925 34.7814 10.9061 35 11.408 35C12.4493 35 13.1174 34.0711 13.3213 33.6066L16.9284 24H15.6895C15.3114 25.1562 14.667 27.006 14.0999 28.6338L14.0999 28.6338L14.0991 28.6363C13.8765 29.2751 13.6659 29.8797 13.488 30.3946L11.1571 24ZM8.5 26.3529H9.5C9.46027 25.5686 8.83602 24 6.64265 24C4.26736 24 4 25.6108 4 26.1892C4 26.7675 4.77648 28.0396 7.02102 28.3928C8.85846 28.6819 9 29.4547 9 29.8182C9 30.4599 8.37086 31 7 31C5.13763 31 5 29.9893 5 29.3048H4C4 30.5257 4.71126 32 7 32C9.86093 32 10 30.3529 10 29.8182C10 29.2834 9.72185 27.9572 7.69536 27.4652C5.66887 26.9733 5 26.7594 5 26.0749C5 25.1519 5.80795 24.9781 6.86093 24.9781C7.91391 24.9781 8.5 25.6471 8.5 26.3529ZM22 26.3529H23C22.9603 25.5686 22.336 24 20.1426 24C17.7674 24 17.5 25.6108 17.5 26.1892C17.5 26.7675 18.2765 28.0396 20.521 28.3928C22.3585 28.6819 22.5 29.4547 22.5 29.8182C22.5 30.4599 21.8709 31 20.5 31C18.6376 31 18.5 29.9893 18.5 29.3048H17.5C17.5 30.5257 18.2113 32 20.5 32C23.3609 32 23.5 30.3529 23.5 29.8182C23.5 29.2834 23.2219 27.9572 21.1954 27.4652C19.1689 26.9733 18.5 26.7594 18.5 26.0749C18.5 25.1519 19.3079 24.9781 20.3609 24.9781C21.4139 24.9781 22 25.6471 22 26.3529ZM51.5 26.3529H50.5C50.5 25.6471 49.9139 24.9781 48.8609 24.9781C47.8079 24.9781 47 25.1519 47 26.0749C47 26.7594 47.6689 26.9733 49.6954 27.4652C51.7219 27.9572 52 29.2834 52 29.8182C52 30.3529 51.8609 32 49 32C46.7113 32 46 30.5257 46 29.3048H47C47 29.9893 47.1376 31 49 31C50.3709 31 51 30.4599 51 29.8182C51 29.4547 50.8585 28.6819 49.021 28.3928C46.7765 28.0396 46 26.7675 46 26.1892C46 25.6108 46.2674 24 48.6426 24C50.836 24 51.4603 25.5686 51.5 26.3529ZM34.9902 28H29.1093C29.1093 28.9484 29.6983 31 31.539 31C33.0116 31 33.6374 29.8679 33.7663 29.3333H34.8707C34.7725 30.2222 34.0056 32 31.7231 32C28.8221 32 28.0355 29.3769 28.0048 28.0653C27.9373 26.7102 28.5497 24 31.539 24C34.0802 24 34.8707 26.4288 34.9902 28ZM33.7294 27H29.1276L29.1413 26.9587C29.3655 26.2799 29.7881 25 31.4654 25C33.0852 25 33.5331 26.3333 33.7294 27ZM36 32V24.6716L37 24V25.3241C37.3445 24.6914 37.9317 24 38.9842 24C40.1463 24 40.6463 24.8376 40.8559 25.6125C41.173 24.9234 41.7679 24 42.9842 24C44.8031 24 45 26.052 45 26.7036V32H44V26.3847C44 25.9827 43.8523 25.0537 42.8378 25.0537C42.0689 25.0537 41.4035 26.0173 41 26.8219V32H40V26.3848C40 25.9827 39.8523 25.0537 38.8378 25.0537C38.0689 25.0537 37.4035 26.0173 37 26.8219V32H36Z" fill="#606978"/>
</svg>
