<!-- by TradingView --><svg width="56" height="56" viewBox="0 0 56 56" xmlns="http://www.w3.org/2000/svg"><path fill="#F0F3FA" d="M0 0h56v56H0z"/><path d="M28 14c.57 0 1.1.04 1.6.11.12.02.23.1.3.2.08.1.11.23.1.36-1.21 8.7-1.73 17.65-1.57 26.82 0 .15-.02.27-.08.35-.08.1-.2.16-.36.16-.15 0-.27-.05-.35-.16-.06-.08-.08-.2-.08-.35.17-9.17-.35-18.12-1.56-26.82a.5.5 0 0 1 .1-.36c.07-.1.18-.17.3-.2.49-.07 1.02-.11 1.6-.11ZM26.86 42h-.83c-.26-6.1-.7-10.1-1.34-11.99a75.77 75.77 0 0 0-6.04-13.3.6.6 0 0 1 .1-.73.67.67 0 0 1 .23-.15l3.16-1.24c.34-.13.57-.03.68.3A73 73 0 0 1 26.86 42ZM31.75 32.41A42.95 42.95 0 0 0 30.57 42H32c.13.02.25-.08.25-.2-.36-9.29 3.33-16.42 11.28-21.06.23-.14.25-.3.06-.5l-2.57-2.45a.5.5 0 0 0-.66 0 30.25 30.25 0 0 0-8.61 14.62Z" fill="#1C3E91"/><path d="M30 42h-.77c-.19 0-.28-.25-.27-.43.3-6.62.53-10.63.68-12.03.47-4.17 1.66-8.98 3.58-14.4.12-.34.35-.46.71-.36l3.1.95a.64.64 0 0 1 .4.34.58.58 0 0 1-.03.52 93.85 93.85 0 0 0-4.44 8.99C30.8 30.78 30 36.5 30 42ZM12.12 21.01c-.15-.08-.16-.19-.03-.31l2.77-2.6c.14-.13.27-.13.4 0 6.89 6.6 10.12 14.42 9.7 23.48-.01.36-.2.5-.57.38l-.34-.1c-.4-.11-.59-.37-.56-.76.65-8.34-3.14-15.04-11.37-20.09Z" fill="#1C3E91"/><path d="M9 29.35c0-4.35.77-5.15.77-5.15.17-.67.6-.92 1.3-.75 2.9.67 5.65 2.19 7.7 4.42a16.63 16.63 0 0 1 4.36 13.37.4.4 0 0 1-.17.3.43.43 0 0 1-.35.07C16.02 40.2 9 33.7 9 29.35ZM46.05 23.75c.48 1.63 1.1 3.28.92 4.9-.71 6.85-6.9 11.41-13.62 13.02a.47.47 0 0 1-.52-.22.44.44 0 0 1-.06-.18c-.3-3.98.62-7.68 2.76-11.1 1.9-3.02 6.23-6.87 10.2-6.67.07 0 .14.04.2.08s.1.1.12.17Z" fill="#1C3E91"/></svg>