<!-- by TradingView --><svg width="56" height="56" viewBox="0 0 56 56" xmlns="http://www.w3.org/2000/svg"><path fill="#F0F3FA" d="M0 0h56v56H0z"/><path d="m27.55 39-1.26-1.5h-2.07l3.44-4.5-.97-1L21 39h6.55Z" fill="#9E7E5C"/><path d="M28.17 29.79 34.39 22H52l-8.59 11h-10.1l-1.81-2.5 1.06-1.28 1.61 2.28h8.6l1.55-2H34.5l1-1.5h9.99l1.17-1.5H34.5l1.14-1.5h12.19l1.16-1.5H35.03l-5.9 7.42L36 39h-7l-2-2.4 1.24-1.08L30 37.5h2.47l-6.03-7.41L27.5 29l.67.79Z" fill="#9E7E5C"/><path fill-rule="evenodd" d="m23.33 20 3.84 5-1.61 1.95L21.6 22H4l8.6 11h10.08L29 25l-2.7-3.5h2.01l.62 1H31l-.62-1H33s-.74-.85-1.28-1.5h-8.4Zm-1.5 11.46 2.77-3.35-3.63-4.61H7l1.56 2h12L22 27H9.75l1.17 1.5h9.66L22 30h-9.9l1.13 1.46h8.6Z" fill="#9E7E5C"/></svg>