<!-- by TradingView --><svg width="56" height="56" viewBox="0 0 56 56" xmlns="http://www.w3.org/2000/svg"><path fill="#F0F3FA" d="M0 0h56v56H0z"/><path fill="#043A7C" d="M16 16h24v24H16z"/><path d="m28.26 20.46.02.88c.04.47.06.94.07 1.41.08 3.84.13 7.67.16 11.5 0 .04.01.07.05.1l.03.02c-.1.27-.12.55-.05.84L28.6 39c0 .25-.1.42-.33.53a.18.18 0 0 1-.1.01c-.16-.03-.3-.03-.46 0a.28.28 0 0 1-.15-.04.23.23 0 0 1-.09-.14 3.7 3.7 0 0 1-.11-.95v-3.57l.01-.94.33-12.77c.05-.32.06-.6.02-.86l.18-4c0-.01 0-.03.02-.04a.06.06 0 0 1 .04-.02c.02 0 .04 0 .05.02l.02.04.23 4.2Z" fill="#8DA7CF"/><path d="M27.72 20.26c.04.26.03.54-.02.86a20.46 20.46 0 0 0-7.25-1.1.12.12 0 0 1-.05-.06.13.13 0 0 1 .03-.13l.15-.16a.2.2 0 0 1 .1-.05c2.32-.4 4.82-.06 7.04.64Z" fill="#456FB5"/><path d="m27.37 33.9-.02.93c-3.93-1.46-7.45-4.02-9.61-7.8-1.88-3.28-.44-6.33 3.26-6.55 1.85-.12 3.57.13 5.16.74.15.06.18.17.11.35 0 .02-.02.04-.03.05a4.18 4.18 0 0 1-1.24-.06c-1.98-.38-4.8-.23-5.85 1.94-1.37 2.84 1.99 6.09 3.92 7.58a23.3 23.3 0 0 0 4.3 2.81Z" fill="#FFBA01"/><path d="M28.26 20.46a18.5 18.5 0 0 1 8.78 6.33c1.21 1.62 2.46 3.96 1.46 6-1.49 3-6.5 2.2-8.9 1.3a.2.2 0 0 1-.09-.07.2.2 0 0 1 0-.23.19.19 0 0 1 .1-.07c.18-.07.42-.06.64-.02.83.17 1.67.26 2.51.25 1.98 0 4.18-1.14 4.18-3.5 0-3.4-4.43-6.46-6.84-8.07-.58-.39-1.2-.7-1.82-1.04l-.02-.88Z" fill="#456FB5"/><path d="M28.59 34.37c2.13.68 4.32.98 6.58.9.11 0 .17.06.2.17.1.55-2.67.45-3.05.43-1.33-.09-2.59-.3-3.78-.66-.07-.29-.06-.57.05-.84ZM16 12h24v4H16z" fill="#FFBA01"/><path fill-rule="evenodd" d="M17.6 13.32h-.44V13h1.34v.32H18V15h-.4v-1.68ZM19.58 15v-2h1.26v.34H20v.41h.83v.35H20v.57h.83V15h-1.25ZM25 13v2h1.26v-.33h-.83v-.57h.83v-.35h-.83v-.41h.83V13H25Zm-2.42 2v-2H23v1.67h.84V15h-1.26Zm6.89-.36c-.2.22-.48.36-.8.36-.58 0-1.05-.45-1.05-1s.47-1 1.05-1c.32 0 .61.14.8.36l-.25.24a.7.7 0 0 0-.55-.26.66.66 0 1 0 0 1.32.7.7 0 0 0 .56-.27l.24.25Zm1.91.36h-.46l.92-2h.5l.85 2h-.46l-.2-.44h-.94l-.2.44Zm.7-1.49.32.74h-.66l.34-.74ZM34.64 15H35v-.82h.18l.49.82h.44l-.55-.85c.28-.08.48-.3.48-.56 0-.33-.32-.59-.7-.59h-.71v2Zm.38-1.65h.35c.15 0 .28.1.28.24 0 .13-.13.24-.28.24h-.35v-.48ZM37 13h.77c.6 0 1.07.4 1.07.9v.2c0 .5-.48.9-1.07.9H37v-2Zm.41.34h.43a.6.6 0 0 1 .59.6v.12a.6.6 0 0 1-.6.6h-.42v-1.32Z" fill="#043A7C"/><path fill="#fff" d="M16 40h24v4H16z"/><path fill-rule="evenodd" d="M23.32 43h-.41l.36-2h.43l.52 1.4.54-1.4h.41l.37 2h-.37l-.27-1.25-.47 1.25h-.38l-.47-1.25-.26 1.25ZM20 41h.4v2H20v-2Zm-3 1.98v-1.96h.35v1.63H18v.33h-1ZM28.4 41H28v1.98h.4V41Zm1.81.32V41h1.23v.32H31V43h-.36v-1.68h-.43Zm3.4-.32v2h1.22v-.32H34v-.59h.83v-.33H34v-.45h.83V41h-1.22ZM37 41v2h.62c.62 0 1.12-.44 1.12-.97v-.06c0-.53-.5-.97-1.12-.97H37Zm.34.33v1.34h.38c.37 0 .68-.3.68-.65v-.04c0-.36-.3-.65-.68-.65h-.38Z" fill="#043A7C"/></svg>