<!-- by TradingView --><svg width="56" height="56" viewBox="0 0 56 56" xmlns="http://www.w3.org/2000/svg"><path fill="#F0F3FA" d="M0 0h56v56H0z"/><path d="M43 13H13v30h30V13Zm-27.18 2.6 3.12 2.4h18.12l3.12-2.4L38 18.47V37.4l2.18 2.85L37.27 38H18.73l-2.9 2.26L18 37.4V18.46l-2.18-2.85Z" fill="#BEBFC1"/><path fill-rule="evenodd" d="M37 19H19v18h18V19Zm-16 2v4h.25v-1.17a1.8 1.8 0 0 1 1.8-1.83h.32v11.66c0 .5-.39.9-.87.9h-.31V35h3.85v-.44h-.22c-.48 0-.82-.4-.82-.9V22h.44c1 0 1.8.8 1.8 1.83V25h.23v-4H21Zm11.26 14c-3.6 0-4.34-4.7-4.26-7.05 0-6.06 3.02-6.95 4.27-6.95.76 0 1.23.36 1.6.64.24.18.43.32.63.32.4 0 .42-.64.38-.96h.33v5h-.33c0-2.85-1.94-4.26-2.46-4.26h-.03c-.56 0-2.4 0-2.4 5.86 0 5.96 1.16 6.66 2.07 6.66.73 0 1.3-.3 1.49-.45v-3.86a.61.61 0 0 0-.62-.61h-.51V29H36v.34h-.27c-.34 0-.73.27-.73.6v4.07c-.25.33-1.06.99-2.74.99Z" fill="#B3043B"/></svg>