<!-- by TradingView --><svg width="56" height="56" viewBox="0 0 56 56" xmlns="http://www.w3.org/2000/svg"><path fill="#F0F3FA" d="M0 0h56v56H0z"/><path fill-rule="evenodd" d="M42.32 36.34C45.96 34.1 48 31.12 48 28s-2.04-6.1-5.68-8.34A21.4 21.4 0 0 0 39 18v1.2c4.25 2 7 5.2 7 8.8 0 3.6-2.75 6.8-7 8.8V38a21.4 21.4 0 0 0 3.32-1.66ZM17 18v1.7c-3.68 2.02-6 5-6 8.3 0 4.87 5.03 9 12 10.45v1.17a25.24 25.24 0 0 1-9.32-3.28C10.04 34.1 8 31.12 8 28s2.04-6.1 5.68-8.34c1-.62 2.11-1.18 3.32-1.66Zm11 22V18c3.2 0 6.16.48 8.72 1.3 1.33.47 2.54 1.05 3.6 1.72C43.33 22.9 45 25.4 45 28c0 2.61-1.68 5.1-4.67 6.98A18.16 18.16 0 0 1 34 37.4V21h-5v19.99a30.97 30.97 0 0 0 10-1.91c6-2.3 10-6.4 10-11.08s-4-8.79-10-11.08A31.1 31.1 0 0 0 28 15a31.15 31.15 0 0 0-11 1.92C11 19.22 7 23.32 7 28c0 6.11 6.82 11.24 16 12.63 1.6.24 3.28.37 5 .37v-1ZM16.67 21.02c1.75-1.1 3.9-1.96 6.33-2.49v18.94a19.87 19.87 0 0 1-6.33-2.5C13.68 33.1 12 30.62 12 28c0-2.61 1.68-5.1 4.67-6.98Z" fill="#2C3491"/></svg>