<!-- by TradingView --><svg width="56" height="56" viewBox="0 0 56 56" fill="none" xmlns="http://www.w3.org/2000/svg">
<rect width="56" height="56" fill="#F0F3FA"/>
<path d="M28.6035 13.1983C20.726 12.9385 14.1872 18.5426 13.2503 26.4236C12.5229 32.5549 15.6762 38.6996 20.0786 42.7662C20.0951 42.7819 20.1073 42.8015 20.1143 42.8232C20.1212 42.8449 20.1225 42.8679 20.1181 42.8901C20.1137 42.9123 20.1038 42.9329 20.0892 42.95C20.0746 42.9671 20.0559 42.9801 20.0348 42.9877C19.9421 43.0209 19.833 42.9973 19.7073 42.9171C14.2062 39.4236 10.7997 33.9798 11.0091 27.3767C11.1024 24.4085 11.7594 21.6656 13.2789 19.1386C17.8336 11.5709 26.031 9.38958 34.1579 12.142C34.2175 12.1611 34.2252 12.1936 34.1807 12.2394C30.592 15.8456 26.9989 19.4499 23.4013 23.0523C22.3864 24.0685 19.9282 25.9442 20.2785 27.5181C20.488 28.454 22.057 29.7548 22.773 30.4539C24.9304 32.5645 25.9186 33.1356 28.4835 31.2045C29.3797 30.5309 30.2791 29.8662 31.1817 29.2104C31.5054 28.9755 31.7853 28.7138 32.1738 28.6106C32.2135 28.6 32.2556 28.6018 32.2943 28.6158C32.333 28.6298 32.3666 28.6554 32.3904 28.6891C32.4142 28.7227 32.4272 28.7629 32.4276 28.8042C32.4281 28.8455 32.4159 28.8859 32.3927 28.9201C32.2264 29.1671 32.0411 29.3906 31.8367 29.5905C30.0011 31.3949 28.1611 33.1942 26.3166 34.9884C25.5245 35.7581 24.3458 36.2815 23.4337 35.3646C21.3341 33.2521 19.2274 31.1453 17.1138 29.0442C15.2725 27.2144 16.3903 25.757 17.925 24.1945C21.4502 20.6049 25.0338 17.0012 28.6758 13.3835C28.7952 13.2664 28.771 13.2046 28.6035 13.1983Z" fill="#0453A1"/>
<path d="M26.8765 42.7834C37.5721 43.343 45.1849 33.6341 42.2639 23.3427C41.1963 19.5849 39.2471 16.3009 36.4163 13.4905C36.3967 13.4713 36.3836 13.4465 36.3787 13.4195C36.3739 13.3925 36.3775 13.3647 36.3892 13.3396C36.4008 13.3146 36.4199 13.2937 36.4438 13.2797C36.4677 13.2657 36.4953 13.2593 36.5229 13.2613C36.6625 13.2728 36.8085 13.3313 36.9609 13.437C41.2566 16.432 44.3394 20.8099 44.8974 26.1505C45.322 30.2304 44.4384 34.4726 42.0849 37.8649C37.2769 44.8004 29.0225 46.5691 21.4458 43.6525C21.3189 43.6028 21.3049 43.5315 21.404 43.4385C25.7213 39.3904 29.9523 35.4188 34.097 31.5235C35.3956 30.301 36.4772 29.1741 34.9939 27.5162C34.2525 26.6885 33.4959 25.8754 32.7241 25.077C31.4255 23.7323 29.9212 23.0943 28.2646 24.2881C26.8644 25.2967 25.4503 26.2803 24.0222 27.2392C23.9796 27.2684 23.9284 27.2825 23.8769 27.2791C23.8254 27.2757 23.7766 27.2551 23.7382 27.2205C23.6997 27.186 23.674 27.1394 23.6651 27.0885C23.6562 27.0375 23.6646 26.985 23.6889 26.9393C23.7803 26.7636 23.925 26.542 24.0831 26.395C26.0532 24.5587 28.0412 22.7423 30.0469 20.9455C31.0294 20.065 32.0272 19.9408 32.9869 20.9551C35.0091 23.0943 37.0199 25.2406 39.0192 27.3939C40.215 28.6832 39.9123 30.2781 38.7032 31.4184C34.7984 35.1074 30.8365 38.841 26.8174 42.6191C26.7083 42.7197 26.728 42.7745 26.8765 42.7834Z" fill="#068A45"/>
</svg>
