<!-- by TradingView --><svg width="56" height="56" viewBox="0 0 56 56" xmlns="http://www.w3.org/2000/svg"><path fill="#F0F3FA" d="M0 0h56v56H0z"/><path d="M21 13.71c-3.65 2.56-7 7.2-7 12.95 0 9.85 11.82 16.13 18.64 14.27-3.02-.7-10.7-2.62-14.64-8.67a8.63 8.63 0 0 1 3.72-.67c1.88 0 5.98.85 10.38 4.65 1.25 1.07 3.77 1.76 5.68 1.76 1.05 0 2.3-.27 3.22-.7A15.82 15.82 0 0 1 27.88 44 15.77 15.77 0 0 1 12 28.34c0-6.4 3.8-12.3 9-14.63Z" fill="#49A740"/><path fill-rule="evenodd" d="M16 26.5c0 2.09.83 3.51 1.24 3.96.36-.32 2.09-.96 4-.96 1.9 0 5.41.96 9.07 3.3 3.67 2.35 6.81 3.7 8.3 3.7 1.48 0 2.6-.56 3.23-1.06a9.5 9.5 0 0 1-3.34-.59v-5.12L36 28v1.37L34 28v1.37l-1.45-.96v-3.66L27 20v2l-3-2v2l-4-2v6.5c-1.7-.23-3.64-.14-4 0Zm5-2.5h4v2h-4v-2Zm9 0h-4v2h4v-2Z" fill="#415091"/><path d="M40.27 17.62C37.32 13.4 31.53 12.12 29 12c4.5 1.09 7.59 3.33 8.57 4.32l-2.38-.74 3.1 1.74H34.5l3.79.62-1.98.86 1.98-.2-3.1 3.18 3.55-2.63-.3 2.9.96-2.69 1.3 3.49-.43-3.49c3.52 4.95 2.86 6.6 3.7 10.64.12-5.14 0-7.12-3.7-12.38Z" fill="#DEA72C"/><path d="M26.7 15.28c-.36 0-1.78-.85-2.44-1.28-.66 0 .1.97.52 1.47.42.5 1.12.38 1.26.38-.03.3-1.33.67-1.33.85 0 .18.32.3.67.3.94 0 1.57-1.28 2.4-1.57.85-.3 1.34-.46 1.2-.58-.14-.13-.74.22-1.02.28-.28.04-.03-.2-.45-.23-.42-.03-.35.38-.8.38Zm7.76-4.67a1.6 1.6 0 0 1-1.19-.55c.05.31.07.94-.22.94-.35 0-1.05-.7-1.05-1.17 0-.37.58-.3.86-.22a1.68 1.68 0 0 1-.18-.75c-.03-.97.89-2.05 1.18-1.83.3.22-.59 1.75-.45 1.83.1.07.38-.21.5-.36v.92c.29.04 1.51.3 2.09.41-.26.26-.94.78-1.54.78Z" fill="#415091"/></svg>