<!-- by TradingView --><svg width="56" height="56" viewBox="0 0 56 56" xmlns="http://www.w3.org/2000/svg"><path fill="#F0F3FA" d="M0 0h56v56H0z"/><path d="M41.86 20.09a16.03 16.03 0 0 1-12.72 23.86 16.03 16.03 0 0 1-14.88-24.17c.02-.02.01-.05-.01-.07a5.55 5.55 0 0 1-2.19-4.56l.03-.02h.03l.02.02a9.8 9.8 0 0 0 3.1 3.14.09.09 0 0 0 .05-.03 15.96 15.96 0 0 1 25.53.25c.03.04.07.04.11.02a9.65 9.65 0 0 0 2.94-3.04c.1-.17.15-.15.12.04-.26 1.8-.66 3.29-2.11 4.47-.03.03-.04.06-.02.09Zm-25.09-.89c3.15 1.51 6.9 2.2 10.5 2.25a34.9 34.9 0 0 0 6.54-.38c2.04-.34 3.98-.94 5.81-1.82l.94-.51c.02-.01.03-.03.01-.06a15.53 15.53 0 0 0-11.21-6.2 15.4 15.4 0 0 0-13.74 6.03c-.02.02-.02.04.01.06l1.14.63Zm23.95 1.68c-1.42.8-2.88 1.4-4.38 1.79-2.25.6-4.59.93-7 1.03-.62.02-1.26.01-1.9-.02-4.04-.25-8.23-1-11.76-2.9l-1.07-.72c-.03-.02-.05-.01-.07.02a45 45 0 0 0-.9 1.88 13.96 13.96 0 0 0-1.22 7.38c.56 5.35 3.27 9.7 8.25 12.44a15.68 15.68 0 0 0 15.94-.67 15.67 15.67 0 0 0 6.48-8.91c1.05-3.99.64-7.82-1.23-11.51a3.18 3.18 0 0 0-.25-.4c-.02-.02-.04-.02-.06 0l-.83.59Z"/><path d="M39.48 19.31a21.3 21.3 0 0 1-5.8 1.84c-2.18.36-4 .42-6.54.38a25.1 25.1 0 0 1-10.47-2.27 14.21 14.21 0 0 1 21.37-1.57c.27.27.75.81 1.44 1.62Z" fill="#743724"/><path d="M15.65 20.77c3.52 1.92 7.69 2.66 11.71 2.9.65.04 1.28.05 1.9.03 2.4-.1 4.73-.44 6.98-1.03 1.49-.4 2.95-1 4.37-1.8a14.85 14.85 0 0 1 .41 13.48 14.54 14.54 0 0 1-14.25 8.12 14.44 14.44 0 0 1-12.33-9.9 14.59 14.59 0 0 1 1.21-11.8Zm3.6 5.9c-.14.5-.3.85-.18 1.39a43.87 43.87 0 0 0 4.85 11.78c.45.78 1.38 1.26 2.28 1.44.42.09.9.07 1.35.06a.15.15 0 0 0 .1-.04.13.13 0 0 0 .04-.1c-.1-4.8-.2-9.56-.25-14.29 0-.5-.16-.66-.68-.84-.87-.3-1.6-.51-2.2-.63-.85-.18-2.8-.54-5.84-1.1a9.8 9.8 0 0 1-1.87-.54c-.08-.03-.1 0-.07.06a4.8 4.8 0 0 0 2.1 2.44c.16.1.28.2.36.28.02.03.03.06.02.09Zm9.24 14.66c1.54.26 3.19-.5 3.88-1.8.55-1 1.07-2.02 1.58-3.04a52.77 52.77 0 0 0 3.07-8.37c.12-.4-.06-.92-.17-1.34-.1-.38.6-.62.88-.82.7-.5 1.21-1.17 1.5-2.02.04-.1 0-.12-.09-.1-1.35.36-2.72.69-4.11 1-1.9.42-3.81.5-5.63 1.19-.55.2-.76.52-.77 1.09-.06 2.97-.04 6.58-.17 9.98-.05 1.4-.03 2.77-.03 4.16 0 .01 0 .03.02.04 0 .02.03.03.04.03Z" fill="#743724"/></svg>