<!-- by TradingView --><svg width="56" height="56" viewBox="0 0 56 56" fill="none" xmlns="http://www.w3.org/2000/svg">
<rect width="56" height="56" fill="#F0F3FA"/>
<path fill-rule="evenodd" clip-rule="evenodd" d="M11 28C11 37.3745 18.6255 45 28 45C37.3745 45 45 37.3745 45 28C45 18.6255 37.3745 11 28 11C18.6255 11 11 18.6255 11 28ZM11.9062 28C11.9062 19.1255 19.1255 11.9062 28 11.9062C36.8745 11.9062 44.0938 19.1255 44.0938 28C44.0938 36.8745 36.8745 44.0938 28 44.0938C19.1255 44.0938 11.9062 36.8745 11.9062 28ZM12.9633 28C12.9633 36.2916 19.7083 43.0366 27.9999 43.0366C36.2915 43.0366 43.0365 36.2916 43.0365 28C43.0365 19.7084 36.2915 12.9634 27.9999 12.9634C19.7083 12.9634 12.9633 19.7084 12.9633 28ZM13.8695 28C13.8695 20.2083 20.2082 13.8696 27.9999 13.8696C35.7916 13.8696 42.1303 20.2083 42.1303 28C42.1303 35.7917 35.7916 42.1304 27.9999 42.1304C20.2082 42.1304 13.8695 35.7917 13.8695 28ZM28 41C20.8317 41 15 35.1683 15 28C15 20.8317 20.8317 15 28 15C35.1683 15 41 20.8317 41 28C41 35.1683 35.1683 41 28 41ZM26.1771 35.8429C28.0604 35.8429 28.8579 35.5636 29.8909 34.313C30.9255 33.0625 33.9839 20.2808 33.9839 20.2808C33.9839 20.2808 29.4967 19.9802 26.9579 20.3895C24.4191 20.7988 23.0477 21.4241 23.2894 22.8906C23.5265 24.3329 27.7961 25.1273 27.9291 25.1515C27.8264 25.1077 24.5097 23.6805 24.4976 22.6097C24.486 21.5662 25.4007 21.5129 26.7505 21.4342C26.8073 21.4309 26.8649 21.4276 26.9232 21.4241C28.3655 21.338 32.3014 21.5313 32.3014 21.5313C32.3014 21.5313 29.8622 32.33 28.799 33.4945C27.7357 34.6574 27.2917 34.7661 26.1454 34.7873C25.0005 34.8084 22.7804 33.7316 22.7804 33.7316L22.3817 35.0455C22.3817 35.0455 24.2938 35.8429 26.1771 35.8429Z" fill="#3F3025"/>
</svg>
