<!-- by TradingView --><svg width="56" height="56" viewBox="0 0 56 56" xmlns="http://www.w3.org/2000/svg"><path fill="#F0F3FA" d="M0 0h56v56H0z"/><circle cx="43.5" cy="35.5" r="1.5" fill="#EB2127"/><path fill-rule="evenodd" d="M41 13H14v14c2.28 0 3.52-1.86 3.52-4h.58l-.1 4h3v.5h-3v7c0 .8.36 2.8 1.5 2.8 1.14 0 1.64-1.36 1.94-2.25l.56.3c-.5 1.42-1.23 2.65-2.9 2.65-2.64 0-3.1-1.88-3.1-4v-6.5h-2V43h27V13Zm-7.81 30c2.42 0 5.84-1.03 5.84-3.98 0-2-1.1-3.02-3.03-3.02h-3.5c-1.52 0-1.97-1.41-.51-1.92l.32.1c.55.16 1.1.32 1.67.32 2.52 0 4.05-1.35 4.05-3.5 0-.93-.2-2.05-.97-2.6.23-.26.55-.4.97-.4.07 0 .23.16.49.47.27.32.51.47.71.47.51 0 .77-.33.77-1 0-.63-.4-.94-1.2-.94-.58 0-1.26.34-2.04 1-.89-.49-1.75-.5-2.76-.5-2.19 0-4 1.28-4 3.5 0 1.15.54 2.17 1.45 2.83-.82.4-1.95 1.12-1.95 2.17 0 1.73 2.1 2 3.5 2l.68-.01c1.7-.05 3.82-.1 3.82 2.01 0 1.85-2.42 2.58-3.88 2.58-1.39 0-2.78-.82-2.78-2.36v-.24c-.02-.36-.02-.69.16-.98.4-.4.83.17 1 .5.17-.5.2-1.5-1-1.5-1.12 0-2.04 1.47-2 2.49v.01c.1 2.04 2.58 2.5 4.19 2.5ZM29.5 29.36c0-1.11-.47-2.36-1.75-2.36-1.35 0-2.37 1.79-2.75 3v-3c-1.18.35-2.15.5-3 .5v.5c.76.04 1 .5 1 1v8c0 .4-.66.56-.96.58V38H26v-.42c-.98-.1-.99-.32-1-.64V31.5s.57-3.5 2-3.5c.41 0 .65.42.75.79-.43.35-.65.71-.65 1.1.03.56.58 1.11 1.4 1.11s1-.95 1-1.64ZM36 31c0-1.3-.44-3-2-3-1.68 0-2 1.65-2 3s.68 3 1.98 3C35.5 34 36 32.39 36 31Z" fill="#EB2127"/></svg>