<!-- by TradingView --><svg width="56" height="56" viewBox="0 0 56 56" fill="none" xmlns="http://www.w3.org/2000/svg">
<rect width="56" height="56" fill="#F0F3FA"/>
<path fill-rule="evenodd" clip-rule="evenodd" d="M12.1934 20C10.4297 20 9 21.4148 9 23.16V31.84C9 33.5852 10.4297 35 12.1934 35H43.8066C45.5703 35 47 33.5852 47 31.84V23.16C47 21.4148 45.5703 20 43.8066 20H12.1934ZM12.6372 21.5C11.4569 21.5 10.5 22.4351 10.5 23.5887V31.4113C10.5 32.5649 11.4569 33.5 12.6372 33.5H43.3628C44.5431 33.5 45.5 32.5649 45.5 31.4113V23.5887C45.5 22.4351 44.5431 21.5 43.3628 21.5H12.6372Z" fill="black"/>
<path fill-rule="evenodd" clip-rule="evenodd" d="M21.5133 25L28.0269 13L34.3957 25H21.5133ZM16.0853 35L13.9141 39H41.8261L39.7031 35H16.0853Z" fill="#00ADEF"/>
<path fill-rule="evenodd" clip-rule="evenodd" d="M20.2559 26.6763C20.7182 26.6763 21.0929 26.301 21.0929 25.8381C21.0929 25.3752 20.7182 25 20.2559 25C19.7936 25 19.4188 25.3752 19.4188 25.8381C19.4188 26.301 19.7936 26.6763 20.2559 26.6763ZM19.478 27H21.0002V30.6717L21.288 31H19.2239L19.478 30.7318V27ZM12.2026 31L12.4876 30.5903V26.7362H11.5705L11.0996 27.061L11.5705 26H15.4248L14.9167 27.061V26.7362H14.0002V30.5903L14.4705 31H12.2026ZM18.3912 27C18.0151 27 17.6746 27.396 17.4703 27.7262V27H16.0002V30.7605L15.7174 31.015H17.7815L17.4703 30.7035V28.4526C17.74 28.113 18.0715 28.0707 18.5139 28.0707C19.0836 28.0707 18.996 27 18.3912 27ZM26.0002 27.334L25.6637 27H27.3322V27.5698C27.5399 27.3276 27.959 27 28.5237 27C29.3636 27 30.2886 27.6343 30.2886 28.913C30.2886 30.1918 29.1297 31 28.428 31C27.8666 31 27.5916 30.5021 27.5243 30.2532H27.9921C28.2189 30.2327 28.6725 30.0281 28.6725 29.3734V28.3504C28.6548 28.1321 28.4812 27.6957 27.9283 27.6957C27.6091 27.6957 27.4282 27.8957 27.3322 28.1225V32.7351L27.5766 33H25.6637L26.0002 32.666V27.334ZM31.4527 28.0398C31.4745 27.6932 31.7863 27 32.8592 27C34.2002 27 34.5055 27.7427 34.5055 28.3793V30.0239C34.5346 30.1653 34.7367 30.4483 35.3124 30.4483C35.2687 30.6322 35.018 31 34.3638 31C33.5461 31 33.2408 30.7347 33.2408 30.183V29.0236C32.8006 29.1534 32.129 29.4517 32.129 29.8688C32.129 30.3342 32.6887 30.4649 32.9686 30.4721C32.8923 30.6481 32.5782 31 31.9328 31C31.126 31 30.788 30.6122 30.788 29.9765C30.788 29.3409 31.2786 29.0285 31.8674 28.8669C32.275 28.755 32.8808 28.4629 33.2367 28.2769C33.1893 28.0953 32.9504 27.7639 32.3249 27.7639C31.6788 27.7639 31.4742 27.9478 31.4527 28.0398ZM39.5468 29.9189C39.6007 30.2793 39.3263 31 37.7974 31C35.8862 31 35.5922 29.6667 35.5922 29.0613C35.5922 28.4559 35.9083 27 37.7974 27C38.4972 27 38.922 27.1874 39.047 27.2811V28.0811L38.753 27.764C38.6549 27.7399 38.3928 27.6919 38.1281 27.6919C37.7974 27.6919 37.1946 27.8072 37.1946 28.9892C37.1946 30.1712 37.7533 30.4018 38.4516 30.4018C39.0102 30.4018 39.4145 30.0799 39.5468 29.9189ZM39.6041 25H41.3955V28.863L42.4451 27.455L42.1905 27H43.8299L42.6487 28.5238L44.2576 31H42.4451V30.7354L41.3955 29.0697V30.7195L41.6551 31H39.7772L40.0002 30.7195V25.286L39.6041 25ZM22.2781 30H24.3061L24.9418 29H23.0046L22.2781 30Z" fill="black"/>
</svg>
