<!-- by TradingView --><svg width="56" height="56" viewBox="0 0 56 56" xmlns="http://www.w3.org/2000/svg"><path fill="#F0F3FA" d="M0 0h56v56H0z"/><path d="M12.18 18C8.38 18 8 22.86 8 28.45 8 36.78 9.47 38 13.54 38 20.6 38 29 32.9 29 29.78 29 26.68 16.93 18 12.18 18Z" fill="#0095DA"/><path d="M31.18 18C27.38 18 27 22.86 27 28.45c0 8.33 1.47 9.55 5.54 9.55C39.6 38 48 32.9 48 29.78 48 26.68 35.93 18 31.18 18Z" fill="#0095DA"/><path d="M11.02 26v3.55c0 .5.1.88.28 1.11.29.34.68.5 1.2.5.51 0 .91-.16 1.2-.5.19-.23.28-.6.28-1.11V26H15v3.8a2 2 0 0 1-.66 1.53c-.5.45-1.12.67-1.84.67-.73 0-1.34-.22-1.84-.67a2 2 0 0 1-.66-1.54V26h1.02ZM16 32v-6l4 3.62V26h1v6l-4-3.67V32h-1Zm7-6v6h-1v-6h1Zm10 .42v1.04c-.55-.43-1.12-.46-1.72-.46-1.22 0-2.28.76-2.28 2.02C29 30.3 30.07 31 31.29 31c.66 0 1.2-.08 1.71-.48v1.06c-.55.28-1.12.42-1.72.42C29.6 32 28 30.79 28 29.03c0-1.8 1.65-3.03 3.35-3.03.57 0 1.12.14 1.65.42Zm5.33 4.21H35.7L35 32h-1l3-6 3 6h-1.02l-.65-1.37ZM38 30l-1-2-1 2h2Zm4 0v2h-1v-6h1.22c1.18 0 2.78.46 2.78 2 0 1.3-1.32 2-2.42 2H42Zm0-1h.48c.99 0 1.52-.28 1.52-.92 0-.62-.55-1.08-1.57-1.08H42v2Z" fill="#fff"/></svg>