<!-- by TradingView --><svg width="56" height="56" viewBox="0 0 56 56" xmlns="http://www.w3.org/2000/svg"><path fill="#F0F3FA" d="M0 0h56v56H0z"/><path fill-rule="evenodd" d="M37 11H19a4 4 0 0 0-4 4v26a4 4 0 0 0 4 4h18a4 4 0 0 0 4-4V15a4 4 0 0 0-4-4Zm-18-1a5 5 0 0 0-5 5v26a5 5 0 0 0 5 5h18a5 5 0 0 0 5-5V15a5 5 0 0 0-5-5H19Z" fill="#007D21"/><path d="M22.75 17.82V14h.5v3.82l1.52-3.42.46.2-1.45 3.27 2.54-2.55.36.36-2.75 2.75 3.5-1.17.15.48-3.04 1.01H28v.5h-3.82l3.42 1.52-.2.46-3.27-1.45 2.55 2.54-.36.36-2.54-2.55 1.45 3.27-.46.2-1.52-3.42V24h-.5v-3.82l-1.52 3.42-.46-.2 1.45-3.27-2.54 2.55-.36-.36 2.75-2.75-3.5 1.17-.15-.48 3.04-1.01H18v-.5h3.82l-3.42-1.52.2-.46 3.27 1.45-2.55-2.54.36-.36 2.54 2.55-1.45-3.27.46-.2 1.52 3.42ZM21 37.98V26a1 1 0 0 0-.55-.9 1 1 0 0 0-.9 0L18 26v13.98c.17.34.8 1.01 2 1.01s1.83-.67 2-1h1l.95.63a1 1 0 0 0 1.1 0l.95-.64V25.9l-.49-.5a1 1 0 0 0-1.15-.18L23 26v11.97c0 .33-.2 1-1 1s-1-.67-1-1ZM27 26.54v13.45a1 1 0 0 0 1.45.9L31 40l.49.5a1 1 0 0 0 1.15.18L34 40V18.5l2-1v23l.55.28a1 1 0 0 0 .9 0L39 40V16.01a1 1 0 0 0-1.4-.92l-6 2.64a1 1 0 0 0-.6.92v4.87l-4 3.02Zm3 1 1-1V37.6l-1 1V27.54Z" fill="#007D21"/></svg>