<!-- by TradingView --><svg width="56" height="56" viewBox="0 0 56 56" xmlns="http://www.w3.org/2000/svg"><path fill="#F0F3FA" d="M0 0h56v56H0z"/><path fill-rule="evenodd" d="M46 16H10v18h36V16Zm-29.5 4.33V20h-5v.33c1.1.1 1.5.5 1.5 1.6v5.54c0 2.55 1.68 4.53 4.46 4.53C20.4 32 22 29.86 22 27.23v-4.62c0-1.26.11-2.11 1.5-2.28V20h-4v.33c1.37.15 1.5 1.03 1.5 2.28v4.62c0 2.05-.76 3.77-3.19 3.77-2.14 0-2.81-1.57-2.81-3.4v-5.68c0-1.11.38-1.5 1.5-1.6Zm8 11.34c1.2-.1 1.5-.38 1.5-1.64v-8.06c0-1.22-.31-1.57-1.5-1.63V20h5v.34c-1.19.06-1.5.41-1.5 1.63v8.06c0 1.26.3 1.55 1.5 1.64V32h-5v-.33Zm13.65-11.39a5.31 5.31 0 0 0-1.47-.28C33.29 20 31 22.8 31 26.07c0 3.29 2.28 5.93 5.65 5.93A5.5 5.5 0 0 0 41 29.78l-.3-.32A5.01 5.01 0 0 1 36.97 31C34.22 31 33 28.55 33 26.1c0-2.4.97-5.1 3.83-5.1 2.03 0 3.26 1.13 3.8 3H41v-4h-.35c-.1.39-.78.56-1.09.56a4.9 4.9 0 0 1-1.4-.28Z" fill="#0F1A5A"/><path d="M13.52 36.37c0-.7-.24-1.09-1.18-1.09-.21 0-.34.02-.34.25v1.97a11.3 11.3 0 0 0 .39.03c.75 0 1.13-.32 1.13-1.16Zm-3.17 3.5c.54-.06.65-.25.65-.78v-3.27c0-.48-.18-.64-.65-.68V35h2.25c.85 0 1.75.3 1.75 1.35 0 1.1-.8 1.47-1.75 1.47a16.87 16.87 0 0 1-.6-.01v1.37c0 .53.21.65.72.68V40h-2.37v-.14Zm6.52-1.77-.74-1.76-.67 1.75h1.41ZM14 40v-.13c.19-.03.33-.1.42-.22.1-.13.25-.46.48-1L16.4 35h.15l1.8 4.21c.12.28.22.45.29.52.07.07.19.11.36.14V40h-2.1v-.13c.22-.02.35-.05.42-.07.06-.03.09-.1.09-.21l-.04-.2a1.37 1.37 0 0 0-.1-.28l-.3-.72h-1.64l-.34.9a1 1 0 0 0-.05.25c0 .13.05.21.15.26.06.03.18.05.34.07V40H14Zm23.87-1.9-.74-1.76-.67 1.75h1.41ZM35 40v-.13c.19-.03.33-.1.42-.22.1-.13.25-.46.48-1L37.4 35h.15l1.8 4.21c.12.28.22.45.29.52.07.07.19.11.36.14V40h-2.1v-.13c.22-.02.35-.05.42-.07.06-.03.09-.1.09-.21l-.04-.2a1.37 1.37 0 0 0-.1-.28l-.3-.72h-1.64l-.34.9a1 1 0 0 0-.05.25c0 .13.05.21.15.26.06.03.17.05.34.07V40H35Zm-15.65-.14c.54-.04.65-.23.65-.77v-3.27c0-.5-.17-.65-.65-.68V35h2.32v.14c-.49.03-.67.18-.67.68v1.55c.45-.4.81-.73 1.1-1.01.5-.5.75-.83.75-.97 0-.2-.17-.25-.5-.25V35h1.9v.12c-.23.03-.4.07-.54.15a2.5 2.5 0 0 0-.55.46l-1.38 1.41 1.69 1.9c.31.35.52.57.64.66.11.09.28.14.5.17V40h-2.22v-.14c.4-.01.51-.05.51-.2 0-.04-.02-.1-.07-.2a1.6 1.6 0 0 0-.21-.29l-1.38-1.57-.24.22v1.36c0 .5.17.64.65.68V40h-2.3v-.14Zm5.99 0c.5-.04.66-.17.66-.68v-3.36c0-.5-.17-.65-.66-.68V35h2.32v.14c-.5.03-.66.19-.66.68v3.36c0 .51.16.64.66.68V40h-2.32v-.14Zm2.81-1.42c.12.33.25.59.4.78.27.34.51.39.9.39.47 0 .55-.26.55-.71 0-1.27-2-1.27-2-2.62 0-.71.68-1.28 1.4-1.28.23 0 .93.4 1.1.18.02-.04.05-.1.07-.18h.13l.15 1.55h-.16c-.14-.6-.54-1.26-1.24-1.26-.38 0-.45.28-.45.67 0 1.29 2 1.26 2 2.7 0 .79-.65 1.34-1.4 1.34-.37 0-.7-.26-1.04-.26-.08 0-.13.03-.16.08a.54.54 0 0 0-.05.17h-.15l-.2-1.55h.15ZM31.5 35h4v1.28h-.17c-.14-.69-.03-.97-.75-.97H34v3.87c0 .52.17.64.67.68V40h-2.33v-.14c.55-.04.66-.23.66-.77v-3.78h-.39c-.71 0-.82.28-.94.97h-.17V35Zm9.5 4.87c.62-.07.7-.38.7-.96v-3.36c-.21-.26-.36-.4-.7-.41V35h1.23L45 38.38v-2.29c0-.57-.1-.9-.69-.95V35H46v.14c-.6.06-.68.4-.68.95V40h-.13L42 36.4v2.5c0 .57.1.9.69.97V40H41v-.13Z" fill="#1C9758"/><path d="m30 18-5 1v-2l5 1Zm13.5 5 1.5 6h-3l1.5-6Z" fill="#E17C08"/></svg>