<!-- by TradingView --><svg width="56" height="56" viewBox="0 0 56 56" xmlns="http://www.w3.org/2000/svg"><path fill="#F0F3FA" d="M0 0h56v56H0z"/><path d="M22.05 13.38c.37.58 1.12 1.77 1.4-1.38.3 2.48 1.05 2.42 1.5 1.3 0 .62.28 1.69 1.27.93-.07.5.1 1.55 1.37 1.74a1.5 1.5 0 0 0-1.37 1.73c-1-.76-1.26.31-1.27.94-.3-.73-.66-.9-.95-.84v15.44c.53.88 2.23 2.63 4.05 2.63 2.57 0 3.95-2.69 3.95-4.88v-2.84c0-.26.17-5.2 5-5.2 3.87 0 4.97 3.64 5 5.46v11c0 .33-.18.59-.5.59s-.5-.26-.5-.59v-11c0-1.15-.7-4.41-4-4.41-2.63 0-3.83 2.42-4 3.57v3.79c0 3.21-2.26 5.56-4.95 5.56-2.15 0-3.98-1.67-4.63-2.5A6.2 6.2 0 0 1 18.6 37c-3.08 0-4.6-3.08-4.6-5.23V21.72c0-.37.13-.72.5-.72s.5.35.5.71v10.06c0 .78 1.04 4.23 3.6 4.23 2.03 0 3.85-1.88 4.4-2.76V17.72c-.34.04-.77.56-1 .92.21-1.4-.76-1.21-1.28-.94.25-1.25-.79-1.68-1.34-1.73.55-.06 1.6-.48 1.34-1.74.52.27 1.5.46 1.28-.94l.05.1ZM13 21.68v10.84c0 2.05 1.79 5.48 5.2 5.48 2.7 0 4.57-1.62 5.17-2.27a6.6 6.6 0 0 0 4.8 2.27A5.91 5.91 0 0 0 34 31.9v-3.99c0-1.47 1.4-2.91 2.87-2.91 1.47 0 3.17 1.44 3.17 2.91v11.44c0 .34-.2.65-.54.65s-.5-.3-.5-.65V27.98c0-.8-.7-1.98-2.14-1.98-1.19 0-1.86 1.19-1.86 1.98v3.92c-.1 2.55-1.75 7.1-6.84 7.1-1.92 0-4-1.13-4.79-1.73-.86.6-3.1 1.73-5.17 1.73-2.58 0-6.2-1.87-6.2-6.87V21.68c0-.34.27-.68.6-.68.35 0 .4.35.4.68Zm3 9.73v-9.75c0-.37.16-.66.5-.66.34 0 .5.3.5.66v9.75c-.04.8.83 2.59 2.04 2.59 1.2 0 1.95-1.8 1.96-2.59v-9.77c0-.35.17-.64.5-.64.33 0 .5.28.5.64v9.77c0 .38-.38 3.59-2.96 3.59-2.06 0-3.03-2.4-3.04-3.59Zm9-9.71v10.8c.05.86 1 2.5 2.96 2.5 2.46 0 3.04-2.22 3.04-2.9v-4.45c.03-2 .82-5.65 5.71-5.65 6.1 0 6.29 5.87 6.29 6.4v10.94c0 .36.14.66.5.66s.5-.3.5-.66v-11.7c-.07-2.37-1.63-6.64-7.29-6.64-6.82 0-6.73 5.81-6.71 6.74v4.37c0 1-1.29 1.89-2.04 1.89S26 33.12 26 32.36V21.7c0-.35-.15-.7-.5-.7s-.5.35-.5.7Z" fill="#00ACEE"/></svg>