<!-- by TradingView --><svg width="56" height="56" viewBox="0 0 56 56" xmlns="http://www.w3.org/2000/svg"><path fill="#F0F3FA" d="M0 0h56v56H0z"/><path d="m9.16 32.3 5.53-.3c.45.01 1.35.4 1.35 1.85v.27c-.03.96-.06 1.91 2.69 2.46 2.37.47 6.44.42 9.27.42 2.97 0 6.9.05 9.27-.42 2.75-.55 2.72-1.5 2.7-2.46v-.27c0-1.44.89-1.84 1.34-1.85l5.53.3-2.28 2.27 2.44 2.4h-5.84c-1.03 0-1.2.96-1.2 2.32C39.96 41.98 32 42 28 42c-4.16 0-11.96-.02-11.96-2.7 0-1.37-.17-2.34-1.2-2.34H9l2.44-2.4-2.28-2.25Z" fill="#2E3192"/><path d="m37 15-1.95-2H21v13h3V15h13ZM19 31l1.95 2H35V20h-3v11H19Z" fill="#097EFD"/><path d="M38 19v-3H25v3h11v13l2-1.95V19Zm-18-5-2 1.95V30h13v-3H20V14Z" fill="#097EFD"/><circle cx="28" cy="23" r="3" fill="#2E3192"/></svg>