<!-- by TradingView --><svg width="56" height="56" viewBox="0 0 56 56" fill="none" xmlns="http://www.w3.org/2000/svg">
<rect width="56" height="56" fill="#0194CA"/>
<path fill-rule="evenodd" clip-rule="evenodd" d="M12 22.4761V17.254L15.8418 19.4059C17.4456 20.3043 19.4044 20.2835 20.9889 19.3514L25.472 16.714C27.0874 15.7637 29.0891 15.7619 30.7062 16.7094L35.1849 19.3335C36.7915 20.2749 38.7786 20.2796 40.3898 19.346L44 17.254V22.4761L40.5483 24.5571C38.8561 25.5773 36.7321 25.5439 35.0726 24.471L30.9002 21.7734C29.1885 20.6667 26.9883 20.6688 25.2786 21.7786L21.0997 24.4914C19.4626 25.5541 17.3684 25.6046 15.6822 24.622L12 22.4761ZM12 29.7317V24.5096L15.8418 26.6615C17.4456 27.5599 19.4044 27.5391 20.9889 26.6069L25.472 23.9696C27.0874 23.0192 29.0891 23.0175 30.7062 23.965L35.1849 26.5891C36.7915 27.5304 38.7786 27.5352 40.3898 26.6016L44 24.5096V29.7317L40.5483 31.8126C38.8561 32.8329 36.7321 32.7995 35.0726 31.7266L30.9002 29.029C29.1885 27.9223 26.9883 27.9243 25.2786 29.0342L21.0997 31.747C19.4626 32.8097 17.3684 32.8602 15.6822 31.8775L12 29.7317ZM12 31.9288V37.1509L15.6822 39.2968C17.3684 40.2794 19.4626 40.2289 21.0997 39.1662L25.2786 36.4534C26.9883 35.3436 29.1885 35.3416 30.9002 36.4482L35.0726 39.1458C36.7321 40.2187 38.8561 40.2521 40.5483 39.2319L44 37.1509V31.9288L40.3898 34.0209C38.7786 34.9545 36.7915 34.9497 35.1849 34.0083L30.7062 31.3842C29.0891 30.4367 27.0874 30.4385 25.472 31.3888L20.9889 34.0262C19.4044 34.9583 17.4456 34.9791 15.8418 34.0807L12 31.9288Z" fill="white"/>
</svg>
