<!-- by TradingView --><svg width="56" height="56" viewBox="0 0 56 56" xmlns="http://www.w3.org/2000/svg"><path fill="#F0F3FA" d="M0 0h56v56H0z"/><path fill-rule="evenodd" d="M36.24 17.71a39.85 39.85 0 0 1 2.54.67l-5.6 4.34c-.02.02-.03.01-.05 0a7.05 7.05 0 0 0-8.73-.84 7.2 7.2 0 0 0-2.42 9.5l-.01.02-5.87 4.55a5.45 5.45 0 0 0-1.68 1.85c-.83 1.56-.47 3.36 1.38 3.97a40.04 40.04 0 0 0 15.42 2.15 32 32 0 0 0 8.19-1.71c.29-.1.55-.23.79-.37 1.99-1.2 1.02-4.09-1.33-3.6a209 209 0 0 1-2.48.48c-5.62 1.06-11.4 1.38-16.89-.53-.28-.1-.48-.2-.59-.3-.58-.52-.03-1.26.44-1.64a875.27 875.27 0 0 1 4-3.12 7.04 7.04 0 0 0 9.05.61 7.2 7.2 0 0 0 2.06-9.3l.01-.05c1.78-1.38 3.55-2.77 5.32-4.17.96-.75 1.9-1.65 2.15-2.89.27-1.24-.42-2.23-1.52-2.8a29.5 29.5 0 0 0-10.7-2.5c-4.43-.18-8.82.56-13.02 1.92-.57.19-1.01.48-1.32.87-1.11 1.4-.17 3.52 1.77 3.13C23.38 16.7 30 16.4 36.24 17.7Zm-7.63-2.92h-.01l-1.41 1.12h-.01a.02.02 0 0 1-.02 0v-.02l1.13-1.43v-.02l-1.1-1.42v-.03a.02.02 0 0 1 .02 0l1.42 1.14a.02.02 0 0 0 .02 0l1.4-1.1h.02v.02l-1.11 1.42v.02l1.1 1.4v.03a.02.02 0 0 1-.03 0l-1.41-1.12h-.01Zm-6.53 1.43 1.12-1.42v-.03l-1.1-1.42a.02.02 0 0 1 0-.02h.02l1.41 1.12c.02.02.03.02.04 0l1.42-1.1v-.01a.01.01 0 0 1 .02.01v.01l-1.13 1.43v.05l1.03 1.32c.1.14.1.15-.04.04l-1.32-1.06h-.06l-1.39 1.1v.01h-.02v-.03Zm9.97 0 1.11-1.42v-.04l-1.08-1.39v-.02h.03l1.39 1.1c.01.02.03.02.04 0l1.41-1.11a.01.01 0 0 1 .02 0 .01.01 0 0 1 0 .02l-1.12 1.43a.04.04 0 0 0 0 .05l1.11 1.43a.01.01 0 0 1 0 .02h-.02l-1.43-1.15h-.05l-.2.17c-.39.32-1.12.92-1.2.93a.01.01 0 0 1-.01-.02Zm-12-1.82-1.1 1.4v.04l1.1 1.4v.02a.02.02 0 0 1-.03 0l-1.4-1.11h-.05l-1.37 1.09a.02.02 0 0 1-.02 0 .02.02 0 0 1 0-.03l1.09-1.39c.02-.02.02-.04 0-.07a3328.57 3328.57 0 0 1-1.09-1.4c0-.03.01-.03.02-.02l1.41 1.13h.05l1.37-1.09h.02l.01.02v.01Zm18.12 1.25 1.37-1.09.02-.02.03-.01h.01v.02A173.56 173.56 0 0 0 38.48 16v.03l1.1 1.4v.02h-.02l-1.41-1.12h-.05l-1.4 1.1h-.02v-.02L37.8 16v-.04l-1.08-1.4a.02.02 0 0 1 .02-.02l1.4 1.12h.03ZM23.73 31.52l3.64-3.67v-.02l-2.64-4.4.01-.01h.01l3.62 3.67a.05.05 0 0 0 .06 0l4.3-2.63h.03v.03l-3.62 3.64v.03l2.61 4.35v.02a.02.02 0 0 1-.03 0l-3.6-3.64h-.04l-4.33 2.65a.01.01 0 0 1-.03-.01v-.01Zm-6.2 9.66-.08.2-.02.08c-.52-.13-1.04-.29-1.55-.46-.02 0-.03-.02-.03-.04.03-.2.08-.33.26-.45a92.18 92.18 0 0 0 1.17-.82l-.81-.25a.03.03 0 0 1-.03-.04l.09-.3c0-.02.02-.03.04-.02l1.38.42c.02 0 .02.02.02.04-.04.15-.07.27-.22.37a116.95 116.95 0 0 1-1.26.9l1 .3a.05.05 0 0 1 .04.04v.03Zm-.1.28a22.23 22.23 0 0 0 .46.1h.02l.24-.36c.01-.01.03-.02.05-.01l.68.18c.02 0 .03.02.04.04l.05.42c0 .02.01.03.03.04l.4.1a696.36 696.36 0 0 0-.23-2.14c0-.02-.02-.03-.04-.04l-.37-.1-.04.01-1.23 1.7a.28.28 0 0 1-.05.06Zm21.93-1.01c-.08.04-.26.1-.54.18-.02 0-.02.02-.02.04l.21.67c0 .02 0 .03-.02.03l-.36.12c-.02 0-.03 0-.04-.02l-.58-1.9c0-.02 0-.03.02-.04l.5-.16.14-.04c.35-.1.63-.2.86.1.28.32.25.8-.17 1.02Zm-1.69 1.27c-.5.22-1.02.2-1.19-.4l-.33-1.29c0-.02 0-.03.02-.03l.37-.1c.02 0 .03 0 .04.02.15.66.27 1.11.34 1.35.08.24.47.21.61.1.14-.12.1-.28.06-.47l-.01-.03-.28-1.13c0-.02 0-.03.02-.04l.36-.1c.02 0 .04 0 .04.03.1.35.18.7.26 1.05v.03c.1.4.2.8-.3 1.01Zm-16.73-.32v-.01l-.71-.15h-.02v.01l-.18.83v.01h-.01l-.4-.08a.02.02 0 0 1-.01-.02L20 40a.02.02 0 0 1 .02 0l.4.08.01.01v.01l-.15.74v.01l.01.01.7.15H21a.02.02 0 0 0 .02 0V41l.15-.75h.01s0-.01 0 0l.4.08h.02v.02l-.41 1.97-.01.01a.02.02 0 0 1-.01 0l-.4-.09h-.01v-.01l.17-.83v-.01Zm14.79-1.1c.2.13.34.33.4.55l.07.34a.86.86 0 0 1-.35.9.9.9 0 0 1-.32.14l-.16.04a.9.9 0 0 1-.67-.12.87.87 0 0 1-.4-.54l-.07-.33a.85.85 0 0 1 .35-.9.9.9 0 0 1 .32-.15l.15-.03a.9.9 0 0 1 .68.1Zm-13.36.18L22 42.46v.01h-.02l-.39-.06a.02.02 0 0 1-.02-.02v-.01l.37-1.96v-.01a.02.02 0 0 1 .03-.01l.38.07h.01l.01.02Zm-.02 2.01.28-1.99v-.01h.02l.8.1a.88.88 0 0 1 .75 1l-.04.26a.9.9 0 0 1-1 .77l-.79-.1-.01-.01v-.02Zm11-.55a.43.43 0 0 0-.48-.12l-.01.02.11.77v.02l-.02.01-.38.06a.03.03 0 0 1-.03-.02l-.28-1.95c0-.03 0-.05.04-.05.3-.05.58-.1.87-.13.35-.04.66-.02.78.34.11.35 0 .6-.35.75v.02c.23.14.4.34.57.55l.17.2c.02.02.01.03-.01.03l-.45.07-.04-.01-.5-.56Zm-1.65.29v-.19l-.02-.01a.03.03 0 0 0-.02-.01l-.4.04h-.02a.03.03 0 0 1-.01-.02l-.03-.32c0-.02 0-.03.03-.04l.83-.07c.02 0 .03 0 .03.02l.08.77c0 .02 0 .03-.02.04-.3.3-.66.42-1.07.38-1.16-.1-1.23-2.03.13-2.1.4-.02.69.15.82.52.01.02 0 .03-.01.03l-.38.11c-.02 0-.03 0-.04-.02-.1-.29-.5-.3-.7-.18-.4.26-.3 1.14.19 1.25.2.05.4 0 .59-.16a.05.05 0 0 0 .02-.04Zm-6.16.02c-.1.9-1.45.72-1.29-.15 0-.02.01-.02.03-.02h.36a.03.03 0 0 1 .02.02v.01c-.06.38.4.49.44.12l.15-1.4c0-.03.02-.04.04-.04l.35.04c.03 0 .05.02.05.05l-.15 1.37Zm.82.29 1.08.07h.01a.02.02 0 0 1 0 .02l-.01.34a.02.02 0 0 1-.02.01l-1.52-.1-.01-.01v-.01l.12-2a.02.02 0 0 1 0-.02h.02l1.48.1h.01a.02.02 0 0 1 0 .02l-.01.34a.02.02 0 0 1-.01.01h-.01l-1.04-.06h-.01v.02l-.04.36v.02h.02l.96.07h.01a.02.02 0 0 1 .01.02l-.02.34-.01.01-.97-.07h-.01a.02.02 0 0 0 0 .02l-.04.48a.02.02 0 0 0 0 .02Zm1.8-.45.01.48v.01h.01l1.08-.01h.01v.01l.02.34v.01a.02.02 0 0 1-.02.01l-1.51.04h-.01v-.01l-.01-.01-.04-2.02v-.01h.01l1.49-.03a.02.02 0 0 1 .01 0v.37l-.01.01-1.04.02a.02.02 0 0 0-.01 0v.4h.01l.98-.02a.02.02 0 0 1 .01 0v.37a.02.02 0 0 1 0 .02l-.97.02a.02.02 0 0 0-.02 0Zm10.38-2.31v.02l.14.44.02.02h.02l.27-.08a.5.5 0 0 0 .12-.06.39.39 0 0 0 .1-.08.25.25 0 0 0 .05-.1v-.1l-.02-.04c-.02-.06-.08-.1-.15-.13a.46.46 0 0 0-.26 0l-.27.09-.02.02Zm-20.12 1.07c-.01 0-.02-.01 0-.02l.37-.55h.01l.06.67c0 .01 0 .02-.02.02l-.42-.12Zm16.64-.26.07-.01c.26-.05.5.12.55.38l.07.37c.05.25-.12.5-.38.54l-.08.01a.48.48 0 0 1-.55-.37l-.07-.38a.47.47 0 0 1 .39-.54ZM23 40.93h.01l.32.03a.48.48 0 0 1 .31.18.47.47 0 0 1 .1.35l-.05.34a.47.47 0 0 1-.35.4.48.48 0 0 1-.18.01l-.31-.04h-.01v-.01l.16-1.26Zm9.74.08v.03l.06.37.01.03.04.01.45-.07a.3.3 0 0 0 .18-.09c.04-.05.06-.1.05-.16v-.05a.2.2 0 0 0-.1-.13.3.3 0 0 0-.2-.03l-.46.07s-.02 0-.03.02Z" fill="#0D1B48"/></svg>