<!-- by TradingView --><svg width="56" height="56" viewBox="0 0 56 56" xmlns="http://www.w3.org/2000/svg"><path fill="#F0F3FA" d="M0 0h56v56H0z"/><path d="m36.94 26.76-4.6-1.13.78-7.3-6.56-3.15L30.01 12l6.55 3.15.38 11.61ZM23.06 18.2l5.4 5.15 3.8-2.79-9.62-6.95-6.63 3 .42 4.59 6.63-3Zm1.15 6.66-7.53.88-1.71 6.88L11 30.08l1.72-6.89 11.6-2.94-.11 4.6ZM22.77 29l-3.65-2.95-4.86 10.61 4.5 5.6 4.52-1.42-4.49-5.59 3.98-6.25Zm2.47 3.68-4.67.92 5.54 10.3 7.32.09 1.69-4.31-7.32-.09-2.56-6.9ZM32.9 30l1.96 4.19L44 26.65l-1.54-6.92-4.71-.63 1.53 6.93-6.38 3.95Zm-3.16 3.13 7.18 2.37 4.63-5.48 2.43 3.96-4.63 5.48-11.77-2.22 2.16-4.1Z" fill="#E74D25"/></svg>