<!-- by TradingView --><svg width="56" height="56" viewBox="0 0 56 56" xmlns="http://www.w3.org/2000/svg"><path fill="#F0F3FA" d="M0 0h56v56H0z"/><path d="M9.3 25H4v-1h6.5a.5.5 0 0 1 .35.85L5.71 30H11v1H4.5a.5.5 0 0 1-.35-.85L9.29 25ZM12 24h6v1h-5v5h5v1h-6v-7Zm6 4h-4v-1h4v1ZM19 24h5.5c.41 0 1.02.12 1.54.5.55.39.96 1.04.96 2 0 .91-.29 1.55-.72 1.96-.41.4-.91.54-1.28.54h-4v-1h4a.9.9 0 0 0 .6-.26c.19-.19.4-.55.4-1.24 0-.64-.25-.99-.54-1.2-.32-.22-.7-.3-.96-.3H20v6h-1v-7ZM28 31v-7h1v7h-1Zm6-7v7h-1v-3h-3v-1h3v-3h1ZM35 24l3.42 4.18V31h1v-2.8l3.77-4.2h-1.34l-2.91 3.23L36.29 24H35ZM49 24h-5v7h1v-6h4c.36 0 .89.09 1.31.33.4.23.69.58.69 1.17s-.29.94-.69 1.17A2.8 2.8 0 0 1 49 28h-3v1h2.77l1.71 2h1.32l-1.82-2.13c.27-.07.56-.18.83-.34A2.26 2.26 0 0 0 52 26.5c0-1.01-.55-1.66-1.19-2.03A3.8 3.8 0 0 0 49 24Z" fill="#265C8D"/></svg>